# Blender 5.1.1
# www.blender.org
o Android
v 0.165600 0.389298 -0.012424
v 0.100800 0.361534 0.062737
v 0.108000 0.444825 -0.162745
v 0.165600 0.430943 -0.125165
v -0.165600 0.430943 -0.125165
v -0.108000 0.444825 -0.162745
v -0.165600 0.389298 -0.012424
v -0.100800 0.361534 0.062737
v -0.128000 -0.010660 0.052735
v -0.104000 0.119631 0.114576
v -0.192000 0.108083 0.035414
v -0.108000 0.585602 0.182278
v -0.144000 0.773811 0.191431
v -0.180000 0.629946 0.131387
v -0.128000 -0.027982 -0.066008
v -0.192000 0.090762 -0.083330
v -0.128000 0.084988 -0.122911
v -0.144000 0.851471 0.050347
v -0.144000 0.746436 -0.080239
v -0.578223 1.107952 -0.344895
v 0.120000 -0.010660 0.052735
v 0.192000 0.108083 0.035414
v 0.104000 0.119631 0.114576
v 0.144000 0.773811 0.191431
v 0.108000 0.585602 0.182278
v 0.180000 0.629946 0.131387
v 0.120000 -0.027982 -0.066008
v 0.128000 0.084988 -0.122911
v 0.192000 0.090762 -0.083330
v 0.144000 0.851471 0.050347
v 0.578223 1.107952 -0.344895
v 0.144000 0.746436 -0.080239
v 0.097844 1.427714 0.255215
v 0.180792 1.250020 0.154399
v 0.236216 1.081021 0.083144
v 0.153899 1.023998 0.165127
v 0.140924 0.928591 0.170510
v 0.103975 0.846294 0.203768
v 0.048676 0.754843 0.254728
v 0.138372 1.429556 0.358051
v 0.255679 1.253422 0.344415
v 0.334060 1.085466 0.331413
v 0.224503 1.026894 0.326878
v 0.206154 0.930213 0.319393
v 0.153899 0.848251 0.313048
v 0.075695 0.755759 0.305888
v 0.097844 1.431397 0.460887
v 0.180792 1.256825 0.534432
v 0.265213 1.089911 0.579681
v 0.173230 1.029791 0.488630
v 0.160255 0.932865 0.467508
v 0.123306 0.850208 0.422328
v 0.048676 0.756675 0.357047
v -0.000000 1.432159 0.503483
v -0.000000 1.258234 0.613139
v -0.000000 1.091753 0.682517
v -0.000000 1.031120 0.562836
v -0.000000 0.934093 0.536065
v -0.000000 0.851147 0.474800
v -0.000000 0.757183 0.385445
v -0.097844 1.431397 0.460887
v -0.180792 1.256825 0.534432
v -0.265213 1.089911 0.579681
v -0.173230 1.029791 0.488630
v -0.160255 0.932865 0.467508
v -0.123306 0.850208 0.422328
v -0.048676 0.756675 0.357047
v -0.138372 1.429556 0.358051
v -0.255679 1.253422 0.344415
v -0.334060 1.085466 0.331413
v -0.224503 1.026894 0.326878
v -0.206154 0.930213 0.319393
v -0.153899 0.848251 0.313048
v -0.075695 0.755759 0.305888
v -0.097844 1.427714 0.255215
v -0.180792 1.250020 0.154399
v -0.236216 1.081021 0.083144
v -0.153899 1.023998 0.165127
v -0.140924 0.928591 0.170510
v -0.103975 0.846294 0.203768
v -0.048676 0.754843 0.254728
v -0.000000 0.703315 0.301828
v -0.000000 1.533374 0.366088
v -0.000000 1.426951 0.212619
v -0.000000 1.248611 0.075692
v -0.000000 1.079179 -0.019692
v -0.000000 1.022670 0.090921
v -0.000000 0.926334 0.102722
v -0.000000 0.845355 0.151297
v -0.000000 0.754334 0.226331
v 0.150117 0.659757 0.051083
v 0.124772 0.691460 0.079412
v 0.148267 0.722842 0.022069
v 0.141131 0.748120 0.117123
v 0.182835 0.773075 0.126504
v 0.162620 0.786453 0.050206
v 0.217165 0.653009 0.032136
v 0.215315 0.716094 0.003122
v 0.258869 0.677964 0.041518
v 0.249883 0.766327 0.107557
v 0.275228 0.734624 0.079228
v 0.227663 0.786656 0.021685
v 0.222275 0.454927 0.353518
v 0.236842 0.449786 0.406898
v 0.202000 0.480290 0.376181
v 0.248450 0.545582 0.413855
v 0.215087 0.525618 0.406350
v 0.249930 0.495114 0.437066
v 0.275914 0.449529 0.338361
v 0.309277 0.469493 0.345866
v 0.290481 0.444388 0.391740
v 0.302088 0.540184 0.398698
v 0.303568 0.489715 0.421909
v 0.322364 0.514821 0.376034
v 0.173112 0.467907 0.318989
v 0.153480 0.461334 0.262574
v 0.130055 0.431516 0.294478
v 0.039825 0.191864 -0.013008
v 0.039286 0.131844 -0.028328
v 0.026486 0.195343 0.054762
v 0.192205 0.414460 0.360086
v 0.149148 0.378069 0.335574
v 0.191666 0.354440 0.344767
v 0.051303 0.098008 -0.072108
v 0.088097 0.118267 0.105051
v 0.045579 0.141896 0.095859
v 0.239054 0.474096 0.296278
v 0.261940 0.443893 0.249056
v 0.219422 0.467522 0.239863
v 0.128115 0.107829 -0.098261
v 0.086136 0.191479 -0.092135
v 0.171978 0.143209 -0.070696
v 0.258147 0.420649 0.337375
v 0.257608 0.360628 0.322056
v 0.281033 0.390446 0.290152
v 0.156755 0.027658 -0.036617
v 0.199811 0.064049 -0.012105
v 0.143415 0.031138 0.031154
v 0.322602 0.145133 0.584172
v 0.326467 0.170689 0.609230
v 0.302566 0.111742 0.621315
v 0.173165 0.467340 0.369127
v 0.151335 0.469602 0.305540
v 0.126290 0.427864 0.351970
v 0.316804 0.106799 0.546583
v 0.296768 0.073408 0.583727
v 0.312938 0.081243 0.521525
v 0.141671 0.405712 0.242893
v 0.153838 0.339560 0.243834
v 0.116626 0.363974 0.289323
v 0.373053 0.154170 0.567173
v 0.420286 0.132829 0.581651
v 0.376919 0.179726 0.592231
v 0.235421 0.484664 0.277209
v 0.257251 0.482402 0.340796
v 0.294462 0.457988 0.295307
v 0.367255 0.115836 0.529585
v 0.363390 0.090280 0.504526
v 0.414488 0.094495 0.544063
v 0.225757 0.420774 0.214562
v 0.284798 0.394098 0.232660
v 0.237924 0.354622 0.215502
v -0.173112 0.467907 0.318989
v -0.153480 0.461334 0.262574
v -0.130055 0.431516 0.294478
v -0.039825 0.191864 -0.013008
v -0.039286 0.131844 -0.028328
v -0.026486 0.195343 0.054762
v -0.192205 0.414460 0.360086
v -0.149148 0.378069 0.335574
v -0.191666 0.354440 0.344767
v -0.051303 0.098008 -0.072108
v -0.088097 0.118267 0.105052
v -0.045579 0.141896 0.095859
v -0.239054 0.474096 0.296278
v -0.261940 0.443893 0.249056
v -0.219422 0.467522 0.239863
v -0.128115 0.107829 -0.098261
v -0.086136 0.191479 -0.092135
v -0.171978 0.143209 -0.070696
v -0.258147 0.420649 0.337375
v -0.257608 0.360628 0.322056
v -0.281033 0.390446 0.290152
v -0.156755 0.027658 -0.036617
v -0.199811 0.064049 -0.012105
v -0.143415 0.031138 0.031154
v -0.322602 0.145133 0.584172
v -0.326467 0.170689 0.609230
v -0.302566 0.111742 0.621315
v -0.173165 0.467340 0.369128
v -0.151335 0.469602 0.305540
v -0.126290 0.427864 0.351970
v -0.316804 0.106798 0.546583
v -0.296768 0.073408 0.583727
v -0.312938 0.081242 0.521525
v -0.141671 0.405712 0.242893
v -0.153838 0.339560 0.243834
v -0.116626 0.363974 0.289323
v -0.373053 0.154170 0.567173
v -0.420286 0.132829 0.581651
v -0.376919 0.179726 0.592232
v -0.235421 0.484664 0.277209
v -0.257251 0.482402 0.340796
v -0.294462 0.457988 0.295307
v -0.367255 0.115836 0.529585
v -0.363390 0.090280 0.504526
v -0.414488 0.094495 0.544063
v -0.225757 0.420774 0.214562
v -0.284798 0.394098 0.232660
v -0.237924 0.354622 0.215502
v 0.251719 0.458165 0.306690
v 0.274995 0.502347 0.296780
v 0.305649 0.464795 0.332138
v 0.297487 0.558062 0.336453
v 0.296704 0.569595 0.386035
v 0.328141 0.520510 0.371811
v 0.227660 0.425516 0.366181
v 0.281590 0.432146 0.391629
v 0.226877 0.437049 0.415763
v 0.272645 0.536946 0.445527
v 0.249369 0.492764 0.455436
v 0.304082 0.487861 0.431302
v -0.076463 0.632527 0.280550
v -0.068029 0.653420 0.295428
v -0.059006 0.665663 0.273118
v -0.074738 0.732020 0.335850
v -0.074150 0.723370 0.298664
v -0.051159 0.695206 0.325182
v -0.094507 0.608040 0.325169
v -0.095095 0.616690 0.362355
v -0.086073 0.628933 0.340046
v -0.092782 0.707533 0.380469
v -0.069204 0.670720 0.369801
v -0.110239 0.674397 0.387901
v -0.150117 0.659757 0.051083
v -0.124772 0.691460 0.079412
v -0.148267 0.722842 0.022069
v -0.141131 0.748120 0.117123
v -0.182835 0.773075 0.126505
v -0.162620 0.786453 0.050206
v -0.217165 0.653009 0.032136
v -0.215315 0.716094 0.003122
v -0.258869 0.677964 0.041518
v -0.249883 0.766327 0.107557
v -0.275228 0.734624 0.079228
v -0.227663 0.786656 0.021685
v -0.222275 0.454927 0.353518
v -0.236842 0.449786 0.406898
v -0.202000 0.480290 0.376181
v -0.248450 0.545582 0.413855
v -0.215087 0.525617 0.406350
v -0.249930 0.495114 0.437066
v -0.275914 0.449529 0.338361
v -0.309277 0.469493 0.345866
v -0.290481 0.444388 0.391740
v -0.302088 0.540184 0.398698
v -0.303568 0.489715 0.421909
v -0.322364 0.514821 0.376034
v -0.251719 0.458165 0.306689
v -0.274995 0.502347 0.296780
v -0.305649 0.464795 0.332138
v -0.297487 0.558062 0.336453
v -0.296704 0.569595 0.386035
v -0.328141 0.520510 0.371811
v -0.227660 0.425516 0.366181
v -0.281590 0.432146 0.391629
v -0.226877 0.437049 0.415763
v -0.272645 0.536946 0.445526
v -0.249369 0.492764 0.455436
v -0.304082 0.487861 0.431302
v 0.076463 0.632527 0.280550
v 0.068029 0.653420 0.295427
v 0.059006 0.665663 0.273118
v 0.074737 0.732020 0.335850
v 0.074150 0.723370 0.298664
v 0.051159 0.695206 0.325182
v 0.094508 0.608040 0.325168
v 0.095095 0.616690 0.362355
v 0.086073 0.628933 0.340046
v 0.092782 0.707533 0.380469
v 0.069204 0.670720 0.369800
v 0.110239 0.674397 0.387901
v 0.000000 -0.027982 -0.066008
v 0.000000 0.084988 -0.122911
v -0.000000 0.829338 0.041109
v -0.000000 0.724303 -0.089476
v 0.000000 -0.010660 0.052735
v -0.000000 0.119631 0.114576
v -0.000000 0.773811 0.191431
v -0.000000 0.557916 0.188073
v -0.000000 0.444825 -0.162745
v -0.000000 0.361534 0.062737
v 0.385831 -0.003956 0.808379
v 0.329997 0.091942 0.614250
v 0.286738 -0.011081 0.472775
v 0.301685 0.089906 0.518363
v 0.443374 -0.004811 0.791406
v 0.387540 0.091087 0.597277
v 0.344282 -0.011935 0.455803
v 0.359228 0.089052 0.501391
v 0.386226 0.046028 0.807201
v 0.287134 0.038904 0.471597
v 0.344677 0.038049 0.454625
v 0.443769 0.045174 0.790228
v 0.299976 -0.005137 0.729464
v 0.458449 -0.008719 0.630604
v 0.458844 0.041266 0.629426
v 0.300371 0.044848 0.728287
v -0.385831 -0.003956 0.808379
v -0.329997 0.091942 0.614250
v -0.286738 -0.011081 0.472775
v -0.301685 0.089906 0.518363
v -0.443374 -0.004811 0.791406
v -0.387540 0.091087 0.597277
v -0.344281 -0.011935 0.455803
v -0.359228 0.089051 0.501391
v -0.386226 0.046028 0.807201
v -0.287133 0.038904 0.471597
v -0.344677 0.038049 0.454625
v -0.443769 0.045173 0.790228
v -0.299976 -0.005137 0.729464
v -0.458449 -0.008719 0.630604
v -0.458844 0.041265 0.629426
v -0.300371 0.044848 0.728287
v -0.087154 0.690103 0.302488
v -0.094961 0.712726 0.320577
v -0.108899 0.650796 0.342263
v -0.116707 0.673419 0.360352
v -0.103129 0.711136 0.269286
v -0.110936 0.733760 0.287375
v -0.142996 0.639073 0.342207
v -0.150804 0.661697 0.360296
v -0.174724 0.714816 0.233780
v -0.182531 0.737440 0.251869
v -0.214591 0.642753 0.306702
v -0.222399 0.665377 0.324791
v -0.117403 0.718607 0.253780
v -0.125211 0.741231 0.271869
v -0.144251 0.719988 0.240466
v -0.152059 0.742611 0.258554
v -0.108231 0.751823 0.216196
v -0.116039 0.774447 0.234285
v -0.126130 0.752743 0.207320
v -0.133937 0.775367 0.225408
v -0.212667 0.662867 0.282376
v -0.220475 0.685490 0.300465
v -0.223540 0.643213 0.302264
v -0.231348 0.665837 0.320352
v -0.302161 0.667467 0.237994
v -0.309969 0.690090 0.256083
v -0.313034 0.647813 0.257882
v -0.320842 0.670437 0.275971
v -0.198170 0.689072 0.255859
v -0.205978 0.711695 0.273948
v -0.209043 0.669418 0.275747
v -0.216851 0.692042 0.293836
v -0.287664 0.693672 0.211478
v -0.295472 0.716295 0.229566
v -0.298537 0.674018 0.231365
v -0.306345 0.696642 0.249454
v -0.183673 0.715276 0.229342
v -0.191481 0.737900 0.247431
v -0.194546 0.695623 0.249230
v -0.202354 0.718246 0.267319
v -0.273167 0.719876 0.184961
v -0.280975 0.742500 0.203050
v -0.284040 0.700223 0.204848
v -0.291847 0.722846 0.222937
v 0.087154 0.690103 0.302488
v 0.094961 0.712727 0.320576
v 0.108899 0.650796 0.342263
v 0.116707 0.673420 0.360352
v 0.103129 0.711137 0.269285
v 0.110936 0.733760 0.287374
v 0.142996 0.639073 0.342207
v 0.150804 0.661697 0.360296
v 0.174724 0.714817 0.233780
v 0.182531 0.737440 0.251869
v 0.214591 0.642753 0.306701
v 0.222399 0.665377 0.324790
v 0.117403 0.718608 0.253780
v 0.125211 0.741231 0.271869
v 0.144251 0.719988 0.240466
v 0.152059 0.742611 0.258554
v 0.108231 0.751823 0.216196
v 0.116039 0.774447 0.234285
v 0.126130 0.752744 0.207319
v 0.133938 0.775367 0.225408
v 0.212667 0.662867 0.282376
v 0.220475 0.685491 0.300465
v 0.223540 0.643213 0.302263
v 0.231348 0.665837 0.320352
v 0.302161 0.667467 0.237994
v 0.309969 0.690091 0.256083
v 0.313034 0.647813 0.257882
v 0.320842 0.670437 0.275971
v 0.198170 0.689072 0.255859
v 0.205978 0.711696 0.273948
v 0.209043 0.669418 0.275747
v 0.216851 0.692042 0.293835
v 0.287664 0.693672 0.211477
v 0.295472 0.716296 0.229566
v 0.298537 0.674018 0.231365
v 0.306345 0.696642 0.249454
v 0.183673 0.715277 0.229342
v 0.191481 0.737900 0.247431
v 0.194546 0.695623 0.249230
v 0.202354 0.718247 0.267319
v 0.273167 0.719877 0.184961
v 0.280975 0.742500 0.203049
v 0.284040 0.700223 0.204848
v 0.291847 0.722847 0.222937
v 0.100800 0.381846 -0.166215
v -0.100800 0.416489 0.071271
v -0.165600 0.387620 -0.126634
v 0.165600 0.404942 -0.007891
v -0.165600 0.404942 -0.007891
v -0.100800 0.381846 -0.166215
v 0.165600 0.387620 -0.126634
v 0.100800 0.416489 0.071271
v -0.000000 0.416489 0.071271
v -0.000000 0.381846 -0.166215
v 0.100800 0.458866 -0.137027
v -0.100800 0.481961 0.021297
v -0.100800 0.458866 -0.137027
v 0.100800 0.481961 0.021297
v 0.100800 0.338289 0.017492
v 0.100800 0.359375 -0.135195
v -0.000000 0.484814 0.019610
v -0.000000 0.465623 -0.137236
v -0.100800 0.359375 -0.135195
v -0.100800 0.338289 0.017492
v -0.000000 0.357864 -0.133980
v -0.000000 0.341522 0.020232
vn -0.0905 -0.5024 0.8599
vn 0.8849 -0.3908 0.2535
vn 0.7276 -0.3635 0.5817
vn 0.0829 0.9064 0.4143
vn -0.8849 -0.3908 0.2535
vn 0.0127 0.2582 -0.9660
vn -0.6332 -0.2336 0.7379
vn -0.6330 -0.1579 0.7579
vn -0.5100 -0.3870 -0.7682
vn 0.7177 0.5426 -0.4364
vn 0.6238 -0.2713 0.7330
vn 0.6330 -0.1579 0.7579
vn 0.5051 -0.4165 -0.7559
vn -0.7177 0.5426 -0.4364
vn -0.8824 -0.4657 0.0679
vn -0.7276 -0.3635 0.5817
vn -0.6036 0.3586 0.7121
vn -0.5270 -0.0759 -0.8464
vn -0.0000 -0.4499 -0.8931
vn -0.0793 0.7768 -0.6248
vn 0.5270 -0.0759 -0.8464
vn 0.8575 -0.5091 0.0743
vn 0.6036 0.3586 0.7121
vn 0.7227 0.1349 0.6778
vn -0.0000 -0.4288 0.9034
vn -0.0266 -0.0333 0.9991
vn -0.0000 -0.9895 0.1443
vn -0.4707 0.0927 -0.8774
vn 0.4707 0.0927 -0.8774
vn 0.7335 0.4124 0.5403
vn -0.0124 0.3401 -0.9403
vn 0.7433 0.6620 -0.0966
vn -0.7335 0.4124 0.5403
vn -0.4749 0.3119 -0.8229
vn 0.3179 -0.7856 -0.5309
vn 0.3914 -0.4816 -0.7842
vn 0.2029 -0.8790 -0.4314
vn 0.3224 0.5765 -0.7508
vn 0.3787 -0.6008 -0.7040
vn 0.4324 -0.1095 -0.8950
vn 0.3516 0.4593 -0.8158
vn 0.2349 0.7988 -0.5539
vn 0.7225 -0.6043 -0.3357
vn 0.9075 -0.1437 -0.3947
vn 0.8421 0.4192 -0.3394
vn 0.5736 0.7831 -0.2401
vn 0.5568 -0.7820 -0.2801
vn 0.7983 -0.4907 -0.3493
vn 0.4565 -0.8729 -0.1719
vn 0.7781 0.5427 -0.3164
vn 0.9348 -0.1951 0.2967
vn 0.8548 0.4418 0.2724
vn 0.5936 0.7741 0.2201
vn 0.5332 -0.7926 0.2958
vn 0.8157 -0.5208 0.2517
vn 0.4491 -0.8812 0.1474
vn 0.8028 0.5109 0.3073
vn 0.6935 -0.6715 0.2611
vn 0.2936 -0.8036 0.5177
vn 0.3211 -0.5617 0.7624
vn 0.1687 -0.8852 0.4336
vn 0.3490 0.4998 0.7927
vn 0.3092 -0.6753 0.6696
vn 0.3799 -0.2456 0.8918
vn 0.3507 0.3827 0.8547
vn 0.2557 0.7784 0.5734
vn -0.1687 -0.8852 0.4336
vn -0.3490 0.4998 0.7927
vn -0.3092 -0.6753 0.6696
vn -0.3799 -0.2456 0.8918
vn -0.3507 0.3827 0.8547
vn -0.2557 0.7784 0.5734
vn -0.2936 -0.8036 0.5177
vn -0.3211 -0.5617 0.7624
vn -0.6935 -0.6715 0.2611
vn -0.9348 -0.1951 0.2967
vn -0.8548 0.4418 0.2724
vn -0.5936 0.7741 0.2201
vn -0.5332 -0.7926 0.2958
vn -0.8157 -0.5208 0.2517
vn -0.4491 -0.8812 0.1474
vn -0.8028 0.5109 0.3073
vn -0.8421 0.4192 -0.3394
vn -0.5736 0.7831 -0.2401
vn -0.5568 -0.7820 -0.2801
vn -0.7983 -0.4907 -0.3493
vn -0.4565 -0.8729 -0.1719
vn -0.7781 0.5427 -0.3164
vn -0.7225 -0.6043 -0.3357
vn -0.9075 -0.1437 -0.3947
vn -0.3179 -0.7856 -0.5309
vn -0.3914 -0.4816 -0.7842
vn -0.2029 -0.8790 -0.4314
vn -0.3224 0.5765 -0.7508
vn -0.3787 -0.6008 -0.7040
vn -0.4324 -0.1095 -0.8950
vn -0.3516 0.4593 -0.8158
vn -0.2349 0.7988 -0.5539
vn -0.9509 0.0745 0.3005
vn 0.1672 -0.5793 0.7978
vn 0.2398 0.7871 0.5683
vn -0.2986 0.3662 -0.8813
vn 0.9634 -0.1181 -0.2405
vn -0.8426 -0.2452 -0.4794
vn -0.5386 0.7940 0.2819
vn 0.4096 -0.3712 -0.8333
vn 0.7610 0.6473 -0.0437
vn -0.7151 -0.6870 0.1290
vn -0.4096 0.3712 0.8333
vn 0.5371 -0.8130 -0.2249
vn 0.8426 0.2452 0.4794
vn -0.2861 -0.4073 -0.8673
vn -0.9332 0.3238 -0.1562
vn 0.1111 0.9784 0.1743
vn 0.7687 0.1056 -0.6308
vn 0.5183 -0.6631 -0.5401
vn 0.8485 0.4807 0.2212
vn 0.9116 -0.3751 0.1682
vn -0.1176 -0.9910 -0.0633
vn 0.2861 0.4073 0.8673
vn -0.7431 -0.2086 0.6358
vn -0.8352 -0.5269 -0.1576
vn -0.5050 0.6169 0.6037
vn -0.2272 -0.8306 -0.5083
vn -0.4703 0.7431 -0.4760
vn 0.9381 0.0784 -0.3373
vn -0.2840 -0.2465 -0.9266
vn -0.9132 -0.0130 0.4073
vn 0.0960 -0.7004 0.7073
vn -0.6881 0.7085 0.1569
vn -0.9789 0.0587 -0.1957
vn -0.3265 -0.2310 0.9165
vn -0.5087 -0.8370 0.2014
vn 0.5117 0.8146 -0.2730
vn 0.3639 0.2483 -0.8977
vn 0.8548 -0.1355 0.5010
vn 0.5843 -0.7964 0.1559
vn -0.6516 0.3022 0.6958
vn -0.8324 0.5282 -0.1674
vn -0.9386 -0.3368 0.0748
vn -0.4503 -0.5311 0.7178
vn 0.3362 -0.2357 0.9118
vn -0.6767 -0.7238 0.1349
vn 0.7605 -0.5454 0.3525
vn 0.8878 0.4343 0.1524
vn 0.6572 -0.2916 -0.6950
vn 0.4786 0.5698 -0.6681
vn -0.1185 0.9902 -0.0742
vn -0.7452 -0.1170 -0.6565
vn 0.1956 0.6407 0.7424
vn 0.1295 0.6634 0.7370
vn 0.9530 0.1261 -0.2756
vn -0.3400 0.6841 -0.6453
vn -0.9123 -0.2080 0.3529
vn -0.0848 -0.7533 -0.6522
vn 0.9219 -0.3333 0.1977
vn -0.6758 0.6910 0.2566
vn -0.8039 -0.1560 -0.5739
vn -0.4670 -0.5821 0.6656
vn 0.4389 0.8906 -0.1190
vn -0.4670 -0.5821 0.6657
vn 0.3108 0.0437 -0.9495
vn -0.5389 0.3480 0.7672
vn -0.9219 0.3333 -0.1977
vn -0.6942 -0.6788 -0.2396
vn 0.3400 -0.6841 0.6453
vn -0.3072 -0.0700 -0.9491
vn 0.5890 -0.4489 -0.6719
vn 0.4670 0.5821 -0.6657
vn 0.7443 0.5778 0.3348
vn -0.1476 0.9853 0.0857
vn 0.4703 0.7431 -0.4760
vn -0.9381 0.0784 -0.3373
vn 0.2840 -0.2465 -0.9266
vn 0.9132 -0.0130 0.4073
vn -0.0960 -0.7004 0.7073
vn 0.6881 0.7085 0.1569
vn 0.9789 0.0587 -0.1957
vn 0.3265 -0.2310 0.9165
vn 0.5087 -0.8370 0.2014
vn -0.5117 0.8146 -0.2730
vn -0.3639 0.2483 -0.8977
vn -0.8548 -0.1355 0.5010
vn -0.5843 -0.7964 0.1559
vn 0.6516 0.3022 0.6958
vn 0.8324 0.5282 -0.1674
vn 0.9386 -0.3368 0.0748
vn 0.4503 -0.5311 0.7178
vn -0.3362 -0.2357 0.9118
vn 0.6767 -0.7238 0.1349
vn -0.7605 -0.5454 0.3525
vn -0.8878 0.4343 0.1524
vn -0.6572 -0.2916 -0.6950
vn -0.4786 0.5698 -0.6681
vn 0.1185 0.9902 -0.0742
vn 0.7452 -0.1170 -0.6565
vn -0.1956 0.6407 0.7424
vn -0.1295 0.6634 0.7370
vn -0.9530 0.1261 -0.2756
vn 0.3400 0.6841 -0.6453
vn 0.9123 -0.2080 0.3529
vn 0.0848 -0.7533 -0.6522
vn -0.9219 -0.3333 0.1977
vn 0.6758 0.6910 0.2566
vn 0.8039 -0.1560 -0.5739
vn 0.4670 -0.5821 0.6657
vn -0.4389 0.8906 -0.1190
vn -0.3108 0.0437 -0.9495
vn 0.5389 0.3480 0.7672
vn 0.9219 0.3333 -0.1977
vn 0.6942 -0.6788 -0.2396
vn -0.3400 -0.6841 0.6453
vn 0.3072 -0.0700 -0.9491
vn -0.5890 -0.4489 -0.6719
vn -0.4670 0.5821 -0.6657
vn -0.7443 0.5778 0.3348
vn 0.1476 0.9853 0.0857
vn 0.2887 0.4631 -0.8380
vn -0.8892 0.4422 -0.1169
vn 0.2729 0.7926 0.5453
vn 0.8892 -0.4422 0.1169
vn -0.3789 -0.4427 0.8127
vn 0.4302 -0.4073 -0.8056
vn 0.8205 0.5595 -0.1172
vn 0.0127 -0.9739 0.2267
vn 0.4030 -0.0071 0.9152
vn -0.8205 -0.5595 0.1172
vn -0.4030 0.0071 -0.9152
vn 0.2836 -0.8844 -0.3707
vn 0.8009 0.0974 -0.5909
vn 0.7835 0.3537 0.5110
vn 0.2662 -0.6281 0.7312
vn -0.5022 -0.8440 0.1884
vn -0.0569 0.2470 0.9674
vn -0.6179 0.3902 -0.6827
vn -0.7835 -0.3537 -0.5110
vn -0.9751 -0.0946 0.2006
vn -0.0302 -0.2036 -0.9786
vn 0.4151 0.8875 -0.1999
vn -0.3550 -0.7515 -0.5560
vn 0.9509 0.0745 0.3005
vn -0.1672 -0.5793 0.7978
vn -0.2398 0.7871 0.5683
vn 0.2986 0.3662 -0.8813
vn -0.9634 -0.1181 -0.2405
vn 0.8426 -0.2452 -0.4794
vn 0.5386 0.7940 0.2819
vn -0.4096 -0.3712 -0.8333
vn -0.7610 0.6473 -0.0437
vn 0.7151 -0.6870 0.1290
vn 0.4096 0.3712 0.8333
vn -0.5371 -0.8130 -0.2249
vn -0.8426 0.2452 0.4794
vn 0.2861 -0.4073 -0.8673
vn 0.9332 0.3238 -0.1562
vn -0.1111 0.9784 0.1743
vn -0.7687 0.1056 -0.6308
vn -0.5183 -0.6631 -0.5401
vn -0.8485 0.4807 0.2212
vn -0.9116 -0.3751 0.1682
vn 0.1176 -0.9910 -0.0633
vn -0.2861 0.4073 0.8673
vn 0.7431 -0.2086 0.6358
vn 0.8352 -0.5269 -0.1576
vn 0.5050 0.6169 0.6037
vn 0.2272 -0.8306 -0.5083
vn -0.2887 0.4631 -0.8380
vn 0.8892 0.4422 -0.1169
vn -0.2729 0.7926 0.5453
vn -0.8892 -0.4422 0.1169
vn 0.3789 -0.4427 0.8127
vn -0.4302 -0.4073 -0.8056
vn -0.8205 0.5595 -0.1172
vn -0.0127 -0.9739 0.2267
vn -0.4030 -0.0071 0.9152
vn 0.8205 -0.5595 0.1172
vn 0.4030 0.0071 -0.9152
vn -0.2836 -0.8844 -0.3707
vn -0.8009 0.0974 -0.5909
vn -0.7835 0.3537 0.5110
vn -0.2662 -0.6281 0.7312
vn 0.5022 -0.8440 0.1884
vn 0.0569 0.2470 0.9674
vn 0.6179 0.3902 -0.6827
vn 0.7835 -0.3537 -0.5110
vn 0.9751 -0.0946 0.2007
vn 0.0302 -0.2036 -0.9786
vn -0.4151 0.8875 -0.1999
vn 0.3550 -0.7515 -0.5560
vn -0.0019 0.6049 0.7963
vn 0.0124 0.3401 -0.9403
vn 0.0266 -0.0333 0.9991
vn 0.0793 0.7768 -0.6248
vn -0.0127 0.2582 -0.9660
vn -0.0829 0.9064 0.4143
vn 0.0905 -0.5024 0.8599
vn -0.8822 0.4614 0.0935
vn -0.1946 0.6925 -0.6947
vn 0.5625 0.8261 0.0327
vn 0.0763 0.9748 0.2097
vn -0.0079 -0.9997 0.0236
vn 0.2831 0.0204 0.9589
vn 0.9956 -0.0057 0.0935
vn -0.2831 -0.0204 -0.9589
vn -0.9986 0.0091 0.0513
vn -0.6767 0.0227 0.7359
vn 0.8372 -0.0195 -0.5465
vn 0.0079 0.9997 -0.0236
vn 0.7667 0.4915 -0.4131
vn -0.2886 0.9091 0.3004
vn 0.8822 0.4614 0.0935
vn 0.1946 0.6925 -0.6947
vn -0.5625 0.8261 0.0327
vn -0.0763 0.9748 0.2097
vn 0.0079 -0.9997 0.0236
vn -0.2831 0.0204 0.9589
vn -0.9956 -0.0057 0.0935
vn 0.2831 -0.0204 -0.9589
vn 0.9986 0.0091 0.0513
vn 0.6767 0.0227 0.7359
vn -0.8372 -0.0195 -0.5465
vn -0.0079 0.9997 -0.0236
vn -0.7667 0.4915 -0.4131
vn 0.2886 0.9091 0.3004
vn 0.8949 -0.0460 0.4438
vn 0.1949 -0.5706 0.7978
vn 0.8891 0.4307 -0.1549
vn 0.2603 -0.7541 -0.6030
vn -0.2603 0.7541 0.6030
vn -0.3624 -0.6551 0.6629
vn 0.3624 0.6551 -0.6629
vn 0.9486 0.0834 0.3052
vn -0.8949 0.0460 -0.4438
vn -0.8949 -0.0460 0.4438
vn -0.1949 -0.5706 0.7978
vn -0.8891 0.4307 -0.1549
vn -0.2603 -0.7541 -0.6030
vn 0.2603 0.7541 0.6030
vn 0.3624 -0.6551 0.6629
vn -0.3624 0.6551 -0.6629
vn -0.9486 0.0834 0.3052
vn 0.8949 0.0460 -0.4438
vn -0.0000 -0.1443 -0.9895
vn -0.0000 0.1443 0.9895
vn 0.9962 0.0867 -0.0127
vn -0.9962 0.0867 -0.0127
vn -0.7227 0.1349 0.6778
vn 0.4749 0.3119 -0.8229
vn 0.0019 0.6049 0.7963
vn -0.7433 0.6620 -0.0966
vn -0.0484 0.9900 -0.1328
vn 0.0484 0.9900 -0.1328
vn 0.6628 -0.7287 -0.1722
vn -0.4671 -0.3067 -0.8293
vn 0.0033 -0.3104 -0.9506
vn 0.0084 -0.8969 0.4421
vn 0.6735 -0.6575 0.3378
vn -0.0033 -0.3104 -0.9506
vn -0.0084 -0.8969 0.4421
vn -0.6628 -0.7287 -0.1722
vn 0.4671 -0.3067 -0.8293
vn -0.6735 -0.6575 0.3378
vn 0.0109 -0.9926 -0.1211
vn -0.0109 -0.9926 -0.1211
vt 0.172144 0.469481
vt 0.171973 0.525509
vt 0.119454 0.535702
vt 0.123271 0.470458
vt 0.323413 0.469622
vt 0.329048 0.559029
vt 0.271784 0.555717
vt 0.269769 0.473003
vt 0.224429 0.536019
vt 0.221010 0.470753
vt 0.171578 0.656843
vt 0.098275 0.645461
vt 0.106282 0.592595
vt 0.171766 0.593801
vt 0.074500 0.472413
vt 0.071980 0.555113
vt 0.014702 0.558079
vt 0.020877 0.468708
vt 0.125000 0.848094
vt 0.125000 0.930227
vt 0.057976 0.935909
vt 0.075188 0.848003
vt 0.118558 0.132190
vt 0.128554 0.179315
vt 0.084127 0.157401
vt 0.178317 0.661080
vt 0.208858 0.690885
vt 0.178317 0.698336
vt 0.191748 0.987956
vt 0.192024 0.935909
vt 0.236681 0.952358
vt 0.221859 0.132190
vt 0.259325 0.156810
vt 0.215194 0.179315
vt 0.237257 0.592990
vt 0.075016 0.661080
vt 0.071683 0.698336
vt 0.041227 0.690545
vt 0.058252 0.987956
vt 0.013319 0.952358
vt 0.118558 0.082205
vt 0.075883 0.132190
vt 0.075883 0.082205
vt 0.042543 0.613558
vt 0.171652 0.781644
vt 0.209751 0.698701
vt 0.205958 0.781989
vt 0.125000 0.661080
vt 0.125000 0.698336
vt 0.125000 0.982481
vt 0.044042 0.781989
vt 0.040249 0.698701
vt 0.078348 0.781644
vt 0.221859 0.082205
vt 0.266690 0.082205
vt 0.266690 0.132190
vt 0.244949 0.645904
vt 0.300872 0.614338
vt 0.218526 0.262623
vt 0.264729 0.178800
vt 0.263355 0.262163
vt 0.171874 0.132190
vt 0.171874 0.179315
vt 0.171874 0.082205
vt 0.012944 0.920851
vt 0.044107 0.843803
vt 0.174812 0.848003
vt 0.205893 0.843803
vt 0.237056 0.920851
vt 0.257957 0.283956
vt 0.218526 0.288649
vt 0.125000 0.781644
vt 0.171652 0.807670
vt 0.125000 0.807670
vt 0.254571 0.305310
vt 0.254571 0.355295
vt 0.218526 0.355295
vt 0.085792 0.283956
vt 0.125222 0.262623
vt 0.125222 0.288649
vt 0.204260 0.792310
vt 0.859375 0.281250
vt 0.885106 0.256635
vt 0.891894 0.281971
vt 0.878070 0.544687
vt 0.877556 0.574516
vt 0.829942 0.566924
vt 0.839826 0.536375
vt 0.877260 0.602341
vt 0.877139 0.631101
vt 0.821219 0.629738
vt 0.823645 0.598114
vt 0.874324 0.491775
vt 0.873976 0.447406
vt 0.903699 0.436254
vt 0.934594 0.467677
vt 0.878927 0.507119
vt 0.854765 0.501683
vt 0.877239 0.666695
vt 0.820367 0.668598
vt 0.875000 0.406250
vt 0.798480 0.513179
vt 0.834141 0.487652
vt 0.760116 0.585778
vt 0.773209 0.547252
vt 0.762023 0.666908
vt 0.754270 0.625547
vt 0.915413 0.407135
vt 0.883990 0.306981
vt 0.960087 0.407618
vt 0.963302 0.747280
vt 0.979095 0.786317
vt 0.917002 0.800032
vt 0.911469 0.770080
vt 0.985192 0.827584
vt 0.976809 0.872950
vt 0.915262 0.870591
vt 0.919466 0.830703
vt 0.904686 0.378021
vt 0.858654 0.313769
vt 0.936872 0.715119
vt 0.902563 0.739887
vt 0.935899 0.346311
vt 0.902196 0.689550
vt 0.881474 0.703189
vt 0.833644 0.305865
vt 0.859375 0.775217
vt 0.859375 0.746487
vt 0.859375 0.833482
vt 0.859375 0.804002
vt 0.876024 0.365094
vt 0.875676 0.320725
vt 0.859375 0.711581
vt 0.859375 0.867625
vt 0.799284 0.830703
vt 0.801748 0.800032
vt 0.846301 0.376246
vt 0.815406 0.344823
vt 0.816186 0.739887
vt 0.837276 0.703189
vt 0.807280 0.770080
vt 0.803488 0.870591
vt 0.826856 0.280529
vt 0.781878 0.715119
vt 0.816554 0.689550
vt 0.739655 0.786317
vt 0.755447 0.747280
vt 0.741941 0.872950
vt 0.733558 0.827584
vt 0.834587 0.405365
vt 0.834760 0.255519
vt 0.789913 0.404882
vt 0.995730 0.628312
vt 0.985902 0.668598
vt 0.930940 0.664137
vt 0.931328 0.630590
vt 0.845314 0.434479
vt 0.860096 0.248731
vt 0.958042 0.517210
vt 0.981025 0.551821
vt 0.924813 0.568681
vt 0.916343 0.538099
vt 0.991899 0.589902
vt 0.929860 0.599530
vt 0.814101 0.466189
vt 0.924285 0.490207
vt 0.903231 0.502984
vt 0.563570 0.808626
vt 0.583817 0.819153
vt 0.558421 0.910405
vt 0.525097 0.898741
vt 0.660350 0.800277
vt 0.628063 0.806345
vt 0.621995 0.774057
vt 0.654283 0.767989
vt 0.621253 0.825686
vt 0.617358 0.920610
vt 0.582191 0.915969
vt 0.599032 0.823030
vt 0.689993 0.977463
vt 0.654936 0.986696
vt 0.645187 0.951779
vt 0.680806 0.942579
vt 0.678207 0.917205
vt 0.642322 0.920880
vt 0.636957 0.824580
vt 0.659977 0.821184
vt 0.503995 0.889049
vt 0.506153 0.912170
vt 0.564827 0.936598
vt 0.703061 0.911928
vt 0.695204 0.936090
vt 0.629540 0.948432
vt 0.548693 0.797289
vt 0.569057 0.790797
vt 0.596143 0.803693
vt 0.676036 0.814794
vt 0.738224 0.900922
vt 0.746005 0.925786
vt 0.710843 0.936791
vt 0.549386 0.936459
vt 0.516849 0.922305
vt 0.613431 0.950870
vt 0.578566 0.943435
vt 0.699604 0.799854
vt 0.686312 0.780446
vt 0.470058 0.299152
vt 0.486323 0.427222
vt 0.452611 0.418960
vt 0.442364 0.305175
vt 0.326228 0.305757
vt 0.318037 0.433814
vt 0.276172 0.426432
vt 0.298318 0.300836
vt 0.463692 0.498123
vt 0.432974 0.462553
vt 0.447841 0.438424
vt 0.485991 0.461930
vt 0.422638 0.308709
vt 0.430355 0.408611
vt 0.402099 0.410794
vt 0.394382 0.310892
vt 0.374347 0.310429
vt 0.382064 0.410332
vt 0.349490 0.437647
vt 0.346066 0.308594
vt 0.429441 0.289859
vt 0.444161 0.437132
vt 0.384765 0.293310
vt 0.391388 0.440615
vt 0.474849 0.279693
vt 0.489305 0.293572
vt 0.520027 0.435520
vt 0.524818 0.416061
vt 0.338604 0.289995
vt 0.328740 0.450756
vt 0.392838 0.290911
vt 0.421095 0.288729
vt 0.432796 0.440203
vt 0.404539 0.442386
vt 0.347364 0.288596
vt 0.375645 0.290432
vt 0.389416 0.441153
vt 0.347343 0.462097
vt 0.301797 0.281100
vt 0.329708 0.286022
vt 0.314557 0.453549
vt 0.272692 0.446167
vt 0.438105 0.285593
vt 0.465799 0.279570
vt 0.432082 0.257900
vt 0.459775 0.251877
vt 0.480066 0.050836
vt 0.475275 0.183301
vt 0.443185 0.180575
vt 0.460812 0.049200
vt 0.517862 0.037557
vt 0.530222 0.182420
vt 0.498043 0.183733
vt 0.498554 0.038345
vt 0.470620 0.238082
vt 0.438530 0.235355
vt 0.441257 0.203266
vt 0.473347 0.205992
vt 0.444696 0.033769
vt 0.420670 0.177159
vt 0.389174 0.170435
vt 0.425798 0.029735
vt 0.404785 0.037239
vt 0.367227 0.164359
vt 0.336821 0.153743
vt 0.386542 0.030870
vt 0.462714 0.036459
vt 0.428969 0.198365
vt 0.408252 0.024832
vt 0.372938 0.186404
vt 0.480340 0.037957
vt 0.486285 0.203235
vt 0.391551 0.019001
vt 0.374766 0.011918
vt 0.318631 0.167443
vt 0.315861 0.144840
vt 0.429602 0.011918
vt 0.448499 0.015952
vt 0.415915 0.199430
vt 0.384420 0.192706
vt 0.390788 0.018708
vt 0.409032 0.025077
vt 0.359721 0.185859
vt 0.329315 0.175243
vt 0.497811 0.020142
vt 0.517119 0.019354
vt 0.531151 0.205173
vt 0.498972 0.206487
vt 0.461902 0.036364
vt 0.481156 0.038000
vt 0.463538 0.017110
vt 0.482792 0.018746
vt 0.592442 0.299152
vt 0.620136 0.305175
vt 0.609889 0.418960
vt 0.576177 0.427222
vt 0.736272 0.305757
vt 0.764182 0.300836
vt 0.786328 0.426432
vt 0.744463 0.433814
vt 0.598808 0.498123
vt 0.576508 0.461930
vt 0.614659 0.438424
vt 0.629526 0.462553
vt 0.639862 0.308709
vt 0.668118 0.310892
vt 0.660401 0.410794
vt 0.632145 0.408611
vt 0.688153 0.310429
vt 0.716434 0.308594
vt 0.713010 0.437647
vt 0.680436 0.410332
vt 0.633059 0.289859
vt 0.618339 0.437132
vt 0.677735 0.293310
vt 0.671112 0.440615
vt 0.587651 0.279693
vt 0.573195 0.293572
vt 0.542473 0.435520
vt 0.537682 0.416061
vt 0.723896 0.289995
vt 0.733760 0.450756
vt 0.669662 0.290911
vt 0.641405 0.288729
vt 0.629704 0.440203
vt 0.657961 0.442386
vt 0.715136 0.288596
vt 0.686855 0.290432
vt 0.673084 0.441153
vt 0.715157 0.462097
vt 0.760703 0.281100
vt 0.732792 0.286022
vt 0.747943 0.453549
vt 0.789808 0.446167
vt 0.624395 0.285593
vt 0.596701 0.279570
vt 0.630418 0.257900
vt 0.602725 0.251877
vt 0.582434 0.050836
vt 0.601688 0.049200
vt 0.619315 0.180575
vt 0.587225 0.183301
vt 0.544638 0.037557
vt 0.563946 0.038345
vt 0.564457 0.183733
vt 0.532278 0.182420
vt 0.591880 0.238082
vt 0.589153 0.205992
vt 0.621243 0.203266
vt 0.623970 0.235355
vt 0.617804 0.033769
vt 0.636702 0.029735
vt 0.673326 0.170435
vt 0.641830 0.177159
vt 0.657715 0.037239
vt 0.675958 0.030870
vt 0.725679 0.153743
vt 0.695273 0.164359
vt 0.599786 0.036459
vt 0.633531 0.198365
vt 0.654248 0.024832
vt 0.689562 0.186404
vt 0.582160 0.037957
vt 0.576215 0.203235
vt 0.670949 0.019001
vt 0.687734 0.011918
vt 0.743869 0.167443
vt 0.746639 0.144840
vt 0.632898 0.011918
vt 0.614001 0.015952
vt 0.646585 0.199430
vt 0.678080 0.192706
vt 0.671712 0.018708
vt 0.653468 0.025077
vt 0.702779 0.185859
vt 0.733185 0.175243
vt 0.564689 0.020142
vt 0.545381 0.019354
vt 0.531349 0.205173
vt 0.563528 0.206487
vt 0.600598 0.036364
vt 0.581344 0.038000
vt 0.598962 0.017110
vt 0.579708 0.018746
vt 0.591894 0.553935
vt 0.616127 0.558247
vt 0.596099 0.670420
vt 0.565221 0.670324
vt 0.696257 0.551619
vt 0.661891 0.539884
vt 0.673626 0.505518
vt 0.707992 0.517253
vt 0.651158 0.561710
vt 0.646241 0.672498
vt 0.618158 0.670318
vt 0.630187 0.559218
vt 0.699385 0.744482
vt 0.654725 0.743741
vt 0.655466 0.699081
vt 0.700126 0.699822
vt 0.692970 0.674751
vt 0.665705 0.672505
vt 0.665411 0.562671
vt 0.688747 0.564166
vt 0.539183 0.673586
vt 0.560483 0.699517
vt 0.607549 0.698030
vt 0.713187 0.675663
vt 0.573927 0.543921
vt 0.589433 0.539480
vt 0.623226 0.538650
vt 0.705802 0.561815
vt 0.750343 0.684231
vt 0.740954 0.713101
vt 0.729700 0.551184
vt 0.722704 0.536890
vt 0.437045 0.807124
vt 0.475035 0.896805
vt 0.441924 0.908287
vt 0.416687 0.817484
vt 0.340258 0.797746
vt 0.346512 0.765393
vt 0.378865 0.771648
vt 0.372610 0.804000
vt 0.379264 0.823404
vt 0.401378 0.820931
vt 0.418212 0.913904
vt 0.382942 0.918473
vt 0.309960 0.975243
vt 0.319277 0.940305
vt 0.354952 0.949636
vt 0.345072 0.984607
vt 0.321961 0.914878
vt 0.340539 0.818708
vt 0.363577 0.822212
vt 0.357920 0.918673
vt 0.496029 0.887246
vt 0.493811 0.910207
vt 0.435599 0.934449
vt 0.297065 0.909509
vt 0.304863 0.933754
vt 0.370652 0.946324
vt 0.451921 0.795947
vt 0.431753 0.789299
vt 0.404595 0.801781
vt 0.324470 0.812241
vt 0.289184 0.934408
vt 0.253971 0.923263
vt 0.261852 0.898364
vt 0.483153 0.920218
vt 0.450816 0.934174
vt 0.421781 0.941450
vt 0.386808 0.948822
vt 0.300897 0.797177
vt 0.314297 0.777763
vt 0.472674 0.553515
vt 0.497190 0.670430
vt 0.466172 0.670436
vt 0.448840 0.557628
vt 0.369135 0.550888
vt 0.358037 0.516687
vt 0.392239 0.505589
vt 0.403337 0.539790
vt 0.413919 0.561328
vt 0.434818 0.558888
vt 0.445687 0.670282
vt 0.417463 0.671612
vt 0.361381 0.744329
vt 0.361463 0.698698
vt 0.407094 0.698780
vt 0.407013 0.744411
vt 0.369115 0.673465
vt 0.376363 0.563519
vt 0.399780 0.562448
vt 0.396244 0.671469
vt 0.524341 0.674079
vt 0.501864 0.699979
vt 0.455226 0.697701
vt 0.348855 0.673975
vt 0.489563 0.544288
vt 0.475118 0.539766
vt 0.441734 0.538362
vt 0.359414 0.560790
vt 0.320054 0.710886
vt 0.311436 0.681605
vt 0.335902 0.549582
vt 0.343237 0.535559
vt 0.171874 0.262623
vt 0.171874 0.288649
vt 0.078348 0.807670
vt 0.957238 0.215476
vt 0.931835 0.183848
vt 0.927027 0.159369
vt 0.936637 0.138592
vt 0.914034 0.159456
vt 0.909654 0.133395
vt 0.886954 0.200037
vt 0.913576 0.184854
vt 0.913520 0.254361
vt 0.935769 0.253661
vt 0.860426 0.091102
vt 0.920824 0.076021
vt 0.899525 0.125463
vt 0.879538 0.124938
vt 0.914104 0.272902
vt 0.936353 0.272201
vt 0.870141 0.208259
vt 0.896707 0.262583
vt 0.940968 0.116107
vt 0.913985 0.110910
vt 0.972190 0.211470
vt 0.951589 0.134586
vt 0.952140 0.262865
vt 0.973609 0.224681
vt 0.893696 0.127959
vt 0.870996 0.194601
vt 0.882600 0.008348
vt 0.902587 0.008873
vt 0.761512 0.215477
vt 0.782113 0.138592
vt 0.791723 0.159369
vt 0.786915 0.183848
vt 0.809096 0.133395
vt 0.804716 0.159456
vt 0.831796 0.200037
vt 0.805230 0.254361
vt 0.805174 0.184854
vt 0.782981 0.253661
vt 0.858324 0.091102
vt 0.839212 0.124938
vt 0.819225 0.125463
vt 0.797926 0.076021
vt 0.804646 0.272902
vt 0.782397 0.272201
vt 0.848609 0.208259
vt 0.822043 0.262583
vt 0.777782 0.116107
vt 0.804765 0.110910
vt 0.746560 0.211470
vt 0.767161 0.134585
vt 0.766610 0.262865
vt 0.745141 0.224681
vt 0.825054 0.127959
vt 0.847754 0.194601
vt 0.836150 0.008348
vt 0.816163 0.008873
vt 0.857453 0.895108
vt 0.834384 0.895108
vt 0.826694 0.906642
vt 0.868987 0.906642
vt 0.826694 0.937401
vt 0.868987 0.937401
vt 0.826694 0.941246
vt 0.838228 0.941246
vt 0.872832 0.914332
vt 0.892056 0.918177
vt 0.872832 0.925866
vt 0.892056 0.925866
vt 0.838228 0.979694
vt 0.826694 0.979694
vt 0.842073 0.941246
vt 0.853608 0.941246
vt 0.853608 0.979694
vt 0.842073 0.979694
vt 0.857453 0.941246
vt 0.868987 0.941246
vt 0.868987 0.979694
vt 0.857453 0.979694
vt 0.955047 0.895306
vt 0.978116 0.895306
vt 0.985806 0.906841
vt 0.943513 0.906841
vt 0.985806 0.937599
vt 0.943513 0.937599
vt 0.985806 0.941444
vt 0.974272 0.941444
vt 0.939668 0.914530
vt 0.920444 0.918375
vt 0.939668 0.926065
vt 0.920444 0.926065
vt 0.985806 0.979892
vt 0.974271 0.979892
vt 0.970427 0.941444
vt 0.958892 0.941444
vt 0.970427 0.979892
vt 0.958892 0.979892
vt 0.955047 0.941444
vt 0.943513 0.941444
vt 0.955047 0.979892
vt 0.943513 0.979892
vt 0.314707 0.179624
vt 0.313333 0.262987
vt 0.079021 0.178667
vt 0.080395 0.262029
vt 0.030417 0.262853
vt 0.029043 0.179491
vt 0.045740 0.792310
vt 0.089178 0.355295
vt 0.089178 0.305310
vt 0.125222 0.355295
vt 0.171874 0.355295
vt 0.258703 0.375010
vt 0.258261 0.428276
vt 0.221554 0.445728
vt 0.222142 0.374707
vt 0.203680 0.835893
vt 0.171456 0.824544
vt 0.125000 0.824607
vt 0.122879 0.445430
vt 0.172218 0.444951
vt 0.262059 0.446607
vt 0.078544 0.824545
vt 0.086278 0.427757
vt 0.086158 0.374489
vt 0.122719 0.374407
vt 0.046320 0.835893
vt 0.082368 0.446065
vt 0.172431 0.374407
s 1
f 292/1/1 290/2/1 12/3/1 8/4/1
f 4/5/2 31/6/2 26/7/2 1/8/2
f 25/9/3 2/10/3 1/8/3 26/7/3
f 285/11/4 18/12/4 13/13/4 289/14/4
f 7/15/5 14/16/5 20/17/5 5/18/5
f 291/19/6 286/20/6 32/21/6 3/22/6
f 9/23/7 10/24/7 11/25/7
f 12/3/8 13/13/8 14/16/8
f 15/26/9 16/27/9 17/28/9
f 18/29/10 19/30/10 20/31/10
f 21/32/11 22/33/11 23/34/11
f 24/35/12 25/9/12 26/7/12
f 27/36/13 28/37/13 29/38/13
f 30/39/14 31/40/14 32/21/14
f 15/41/15 9/23/15 11/42/15 16/43/15
f 8/4/16 12/3/16 14/16/16 7/15/16
f 13/13/17 18/12/17 20/44/17 14/16/17
f 418/45/18 17/28/18 16/46/18 415/47/18
f 283/48/19 15/26/19 17/28/19 284/49/19
f 285/50/20 30/39/20 32/21/20 286/20/20
f 419/51/21 29/52/21 28/37/21 413/53/21
f 21/32/22 27/54/22 29/55/22 22/56/22
f 30/57/23 24/35/23 26/7/23 31/58/23
f 420/59/24 23/34/24 22/60/24 416/61/24
f 287/62/25 21/32/25 23/34/25 288/63/25
f 289/14/26 13/13/26 12/3/26 290/2/26
f 283/64/27 27/54/27 21/32/27 287/62/27
f 31/65/28 4/66/28 3/22/28 32/21/28
f 19/30/29 6/67/29 5/68/29 20/69/29
f 420/59/30 416/70/30 426/71/30
f 422/72/31 418/45/31 425/73/31 430/74/31
f 416/75/32 419/76/32 423/77/32 426/71/32
f 417/78/33 414/79/33 424/80/33
f 418/45/34 415/81/34 425/73/34
f 82/82/35 90/83/35 39/84/35
f 89/85/36 88/86/36 37/87/36 38/88/36
f 87/89/37 86/90/37 35/91/37 36/92/37
f 85/93/38 84/94/38 33/95/38 34/96/38
f 90/97/39 89/85/39 38/88/39 39/98/39
f 88/86/40 87/89/40 36/92/40 37/87/40
f 86/90/41 85/99/41 34/100/41 35/91/41
f 84/94/42 83/101/42 33/95/42
f 39/98/43 38/88/43 45/102/43 46/103/43
f 37/87/44 36/92/44 43/104/44 44/105/44
f 35/91/45 34/100/45 41/106/45 42/107/45
f 33/95/46 83/101/46 40/108/46
f 82/82/47 39/84/47 46/109/47
f 38/88/48 37/87/48 44/105/48 45/102/48
f 36/92/49 35/91/49 42/107/49 43/104/49
f 34/96/50 33/95/50 40/108/50 41/110/50
f 44/111/51 43/112/51 50/113/51 51/114/51
f 42/115/52 41/116/52 48/117/52 49/118/52
f 40/108/53 83/101/53 47/119/53
f 82/82/54 46/109/54 53/120/54
f 45/121/55 44/111/55 51/114/55 52/122/55
f 43/112/56 42/115/56 49/118/56 50/113/56
f 41/110/57 40/108/57 47/119/57 48/123/57
f 46/124/58 45/121/58 52/122/58 53/125/58
f 82/82/59 53/120/59 60/126/59
f 52/122/60 51/114/60 58/127/60 59/128/60
f 50/113/61 49/118/61 56/129/61 57/130/61
f 48/123/62 47/119/62 54/131/62 55/132/62
f 53/125/63 52/122/63 59/128/63 60/133/63
f 51/114/64 50/113/64 57/130/64 58/127/64
f 49/118/65 48/117/65 55/134/65 56/129/65
f 47/119/66 83/101/66 54/131/66
f 57/130/67 56/129/67 63/135/67 64/136/67
f 55/132/68 54/131/68 61/137/68 62/138/68
f 60/133/69 59/128/69 66/139/69 67/140/69
f 58/127/70 57/130/70 64/136/70 65/141/70
f 56/129/71 55/134/71 62/142/71 63/135/71
f 54/131/72 83/101/72 61/137/72
f 82/82/73 60/126/73 67/143/73
f 59/128/74 58/127/74 65/141/74 66/139/74
f 67/140/75 66/139/75 73/144/75 74/145/75
f 65/141/76 64/136/76 71/146/76 72/147/76
f 63/135/77 62/142/77 69/148/77 70/149/77
f 61/137/78 83/101/78 68/150/78
f 82/82/79 67/143/79 74/151/79
f 66/139/80 65/141/80 72/147/80 73/144/80
f 64/136/81 63/135/81 70/149/81 71/146/81
f 62/138/82 61/137/82 68/150/82 69/152/82
f 70/153/83 69/154/83 76/155/83 77/156/83
f 68/150/84 83/101/84 75/157/84
f 82/82/85 74/151/85 81/158/85
f 73/159/86 72/160/86 79/161/86 80/162/86
f 71/163/87 70/153/87 77/156/87 78/164/87
f 69/152/88 68/150/88 75/157/88 76/165/88
f 74/166/89 73/159/89 80/162/89 81/167/89
f 72/160/90 71/163/90 78/164/90 79/161/90
f 82/82/91 81/158/91 90/83/91
f 80/162/92 79/161/92 88/86/92 89/85/92
f 78/164/93 77/156/93 86/90/93 87/89/93
f 76/165/94 75/157/94 84/94/94 85/93/94
f 81/167/95 80/162/95 89/85/95 90/97/95
f 79/161/96 78/164/96 87/89/96 88/86/96
f 77/156/97 76/155/97 85/99/97 86/90/97
f 75/157/98 83/101/98 84/94/98
f 105/168/99 107/169/99 94/170/99 92/171/99
f 111/172/100 113/173/100 108/174/100 104/175/100
f 112/176/101 100/177/101 95/178/101 106/179/101
f 93/180/102 96/181/102 102/182/102 98/183/102
f 99/184/103 101/185/103 114/186/103 110/187/103
f 91/188/104 92/171/104 93/189/104
f 94/170/105 95/178/105 96/190/105
f 97/191/106 98/192/106 99/184/106
f 100/177/107 101/185/107 102/193/107
f 103/194/108 104/195/108 105/168/108
f 106/179/109 107/169/109 108/196/109
f 109/197/110 110/187/110 111/172/110
f 112/176/111 113/173/111 114/186/111
f 97/191/112 91/198/112 93/199/112 98/200/112
f 92/171/113 94/170/113 96/201/113 93/202/113
f 95/178/114 100/177/114 102/203/114 96/204/114
f 101/185/115 99/184/115 98/183/115 102/182/115
f 109/197/116 97/191/116 99/184/116 110/187/116
f 100/177/117 112/176/117 114/186/117 101/185/117
f 113/173/118 111/172/118 110/187/118 114/186/118
f 103/205/119 109/197/119 111/172/119 104/206/119
f 112/176/120 106/179/120 108/196/120 113/173/120
f 107/169/121 105/168/121 104/195/121 108/196/121
f 91/188/122 103/194/122 105/168/122 92/171/122
f 106/179/123 95/178/123 94/170/123 107/169/123
f 97/191/124 109/197/124 103/205/124 91/198/124
f 129/207/125 131/208/125 118/209/125 116/210/125
f 135/211/126 137/212/126 132/213/126 128/214/126
f 136/215/127 124/216/127 119/217/127 130/218/127
f 117/219/128 120/220/128 126/221/128 122/222/128
f 123/223/129 125/224/129 138/225/129 134/226/129
f 115/227/130 116/210/130 117/219/130
f 118/209/131 119/228/131 120/220/131
f 121/229/132 122/222/132 123/223/132
f 124/230/133 125/224/133 126/221/133
f 127/231/134 128/232/134 129/207/134
f 130/233/135 131/208/135 132/234/135
f 133/235/136 134/226/136 135/211/136
f 136/236/137 137/212/137 138/225/137
f 121/237/138 115/238/138 117/219/138 122/222/138
f 116/210/139 118/209/139 120/220/139 117/219/139
f 119/239/140 124/240/140 126/221/140 120/220/140
f 125/224/141 123/223/141 122/222/141 126/221/141
f 133/241/142 121/242/142 123/223/142 134/226/142
f 124/243/143 136/244/143 138/225/143 125/224/143
f 137/212/144 135/211/144 134/226/144 138/225/144
f 127/245/145 133/246/145 135/211/145 128/214/145
f 136/247/146 130/248/146 132/213/146 137/212/146
f 131/208/147 129/207/147 128/232/147 132/234/147
f 115/249/148 127/250/148 129/207/148 116/210/148
f 130/218/149 119/217/149 118/209/149 131/208/149
f 121/251/150 133/252/150 127/250/150 115/249/150
f 153/253/151 155/254/151 142/255/151 140/256/151
f 159/257/152 161/258/152 156/259/152 152/260/152
f 160/261/153 148/262/153 143/263/153 154/264/153
f 141/265/154 144/266/154 150/267/154 146/268/154
f 147/269/155 149/270/155 162/271/155 158/272/155
f 139/273/156 140/256/156 141/265/156
f 142/255/157 143/274/157 144/266/157
f 145/275/156 146/268/156 147/269/156
f 148/276/158 149/270/158 150/267/158
f 151/277/159 152/260/159 153/253/159
f 154/278/160 155/254/160 156/259/160
f 157/279/161 158/272/161 159/280/161
f 160/281/162 161/282/162 162/271/162
f 145/283/156 139/284/156 141/265/156 146/268/156
f 140/256/163 142/255/163 144/266/163 141/265/163
f 143/285/164 148/286/164 150/267/164 144/266/164
f 149/270/165 147/269/165 146/268/165 150/267/165
f 157/287/166 145/288/166 147/269/166 158/272/166
f 148/289/167 160/290/167 162/271/167 149/270/167
f 161/282/168 159/280/168 158/272/168 162/271/168
f 151/291/161 157/292/161 159/257/161 152/260/161
f 160/293/169 154/294/169 156/259/169 161/258/169
f 155/254/170 153/253/170 152/260/170 156/259/170
f 139/295/166 151/296/166 153/253/166 140/256/166
f 154/264/171 143/263/171 142/255/171 155/254/171
f 145/297/166 157/298/166 151/296/166 139/295/166
f 177/299/172 164/300/172 166/301/172 179/302/172
f 183/303/173 176/304/173 180/305/173 185/306/173
f 184/307/174 178/308/174 167/309/174 172/310/174
f 165/311/175 170/312/175 174/313/175 168/314/175
f 171/315/176 182/316/176 186/317/176 173/318/176
f 163/319/177 165/311/177 164/300/177
f 166/301/178 168/314/178 167/320/178
f 169/321/179 171/315/179 170/312/179
f 172/322/180 174/313/180 173/318/180
f 175/323/181 177/299/181 176/324/181
f 178/325/182 180/326/182 179/302/182
f 181/327/183 183/303/183 182/316/183
f 184/328/184 186/317/184 185/306/184
f 169/329/185 170/312/185 165/311/185 163/330/185
f 164/300/186 165/311/186 168/314/186 166/301/186
f 167/331/187 168/314/187 174/313/187 172/332/187
f 173/318/188 174/313/188 170/312/188 171/315/188
f 181/333/189 182/316/189 171/315/189 169/334/189
f 172/335/190 173/318/190 186/317/190 184/336/190
f 185/306/191 186/317/191 182/316/191 183/303/191
f 175/337/192 176/304/192 183/303/192 181/338/192
f 184/339/193 185/306/193 180/305/193 178/340/193
f 179/302/194 180/326/194 176/324/194 177/299/194
f 163/341/195 164/300/195 177/299/195 175/342/195
f 178/308/196 179/302/196 166/301/196 167/309/196
f 169/343/197 163/341/197 175/342/197 181/344/197
f 201/345/198 188/346/198 190/347/198 203/348/198
f 207/349/199 200/350/199 204/351/199 209/352/199
f 208/353/200 202/354/200 191/355/200 196/356/200
f 189/357/201 194/358/201 198/359/201 192/360/201
f 195/361/202 206/362/202 210/363/202 197/364/202
f 187/365/203 189/357/203 188/346/203
f 190/347/204 192/360/204 191/366/204
f 193/367/203 195/361/203 194/358/203
f 196/368/205 198/359/205 197/364/205
f 199/369/206 201/345/206 200/350/206
f 202/370/207 204/351/207 203/348/207
f 205/371/206 207/372/206 206/362/206
f 208/373/208 210/363/208 209/374/208
f 193/375/203 194/358/203 189/357/203 187/376/203
f 188/346/209 189/357/209 192/360/209 190/347/209
f 191/377/210 192/360/210 198/359/210 196/378/210
f 197/364/211 198/359/211 194/358/211 195/361/211
f 205/379/212 206/362/212 195/361/212 193/380/212
f 196/381/213 197/364/213 210/363/213 208/382/213
f 209/374/214 210/363/214 206/362/214 207/372/214
f 199/383/206 200/350/206 207/349/206 205/384/206
f 208/385/215 209/352/215 204/351/215 202/386/215
f 203/348/216 204/351/216 200/350/216 201/345/216
f 187/387/212 188/346/212 201/345/212 199/388/212
f 202/354/217 203/348/217 190/347/217 191/355/217
f 193/389/212 187/387/212 199/388/212 205/390/212
f 225/391/218 227/392/218 214/393/218 212/394/218
f 231/395/219 233/396/219 228/397/219 224/398/219
f 232/399/220 220/400/220 215/401/220 226/402/220
f 213/403/221 216/404/221 222/405/221 218/406/221
f 219/407/222 221/408/222 234/409/222 230/410/222
f 211/411/223 212/394/223 213/412/223
f 214/393/224 215/401/224 216/413/224
f 217/414/225 218/406/225 219/407/225
f 220/400/226 221/408/226 222/405/226
f 223/415/219 224/416/219 225/391/219
f 226/402/227 227/392/227 228/417/227
f 229/418/219 230/410/219 231/395/219
f 232/399/228 233/396/228 234/409/228
f 217/414/229 211/419/229 213/420/229 218/406/229
f 212/394/230 214/393/230 216/413/230 213/412/230
f 215/401/231 220/400/231 222/405/231 216/413/231
f 221/408/232 219/407/232 218/406/232 222/405/232
f 229/418/233 217/414/233 219/407/233 230/410/233
f 220/400/234 232/399/234 234/409/234 221/408/234
f 233/396/235 231/395/235 230/410/235 234/409/235
f 223/421/219 229/418/219 231/395/219 224/422/219
f 232/399/236 226/402/236 228/417/236 233/396/236
f 227/392/237 225/391/237 224/416/237 228/417/237
f 211/411/238 223/415/238 225/391/238 212/394/238
f 226/402/239 215/401/239 214/393/239 227/392/239
f 217/414/240 229/418/240 223/421/240 211/419/240
f 249/423/241 236/424/241 238/425/241 251/426/241
f 255/427/242 248/428/242 252/429/242 257/430/242
f 256/431/243 250/432/243 239/433/243 244/434/243
f 237/435/244 242/436/244 246/437/244 240/438/244
f 243/439/245 254/440/245 258/441/245 245/442/245
f 235/443/246 237/444/246 236/424/246
f 238/425/247 240/445/247 239/433/247
f 241/446/248 243/439/248 242/447/248
f 244/434/249 246/448/249 245/442/249
f 247/449/250 249/423/250 248/450/250
f 250/432/251 252/451/251 251/426/251
f 253/452/252 255/427/252 254/440/252
f 256/431/253 258/441/253 257/430/253
f 241/446/254 242/453/254 237/454/254 235/455/254
f 236/424/255 237/456/255 240/457/255 238/425/255
f 239/433/256 240/458/256 246/459/256 244/434/256
f 245/442/257 246/437/257 242/436/257 243/439/257
f 253/452/258 254/440/258 243/439/258 241/446/258
f 244/434/259 245/442/259 258/441/259 256/431/259
f 257/430/260 258/441/260 254/440/260 255/427/260
f 247/460/261 248/461/261 255/427/261 253/452/261
f 256/431/262 257/430/262 252/451/262 250/432/262
f 251/426/263 252/451/263 248/450/263 249/423/263
f 235/443/264 236/424/264 249/423/264 247/449/264
f 250/432/265 251/426/265 238/425/265 239/433/265
f 241/446/266 235/455/266 247/460/266 253/452/266
f 273/462/267 260/463/267 262/464/267 275/465/267
f 279/466/268 272/467/268 276/468/268 281/469/268
f 280/470/269 274/471/269 263/472/269 268/473/269
f 261/474/270 266/475/270 270/476/270 264/477/270
f 267/478/271 278/479/271 282/480/271 269/481/271
f 259/482/272 261/483/272 260/463/272
f 262/464/273 264/484/273 263/472/273
f 265/485/274 267/478/274 266/475/274
f 268/473/275 270/476/275 269/481/275
f 271/486/268 273/462/268 272/487/268
f 274/471/276 276/488/276 275/465/276
f 277/489/268 279/466/268 278/479/268
f 280/470/277 282/480/277 281/469/277
f 265/485/278 266/475/278 261/490/278 259/491/278
f 260/463/279 261/483/279 264/484/279 262/464/279
f 263/472/280 264/484/280 270/476/280 268/473/280
f 269/481/281 270/476/281 266/475/281 267/478/281
f 277/489/282 278/479/282 267/478/282 265/485/282
f 268/473/283 269/481/283 282/480/283 280/470/283
f 281/469/284 282/480/284 278/479/284 279/466/284
f 271/492/268 272/493/268 279/466/268 277/489/268
f 280/470/285 281/469/285 276/488/285 274/471/285
f 275/465/286 276/488/286 272/487/286 273/462/286
f 259/482/287 260/463/287 273/462/287 271/486/287
f 274/471/288 275/465/288 262/464/288 263/472/288
f 265/485/289 259/491/289 271/492/289 277/489/289
f 414/79/290 421/494/290 429/495/290 424/80/290
f 413/53/291 422/72/291 430/74/291 423/496/291
f 15/41/27 283/64/27 287/62/27 9/23/27
f 24/35/292 289/14/292 290/2/292 25/9/292
f 9/23/25 287/62/25 288/63/25 10/24/25
f 18/29/293 285/50/293 286/20/293 19/30/293
f 27/36/19 283/48/19 284/49/19 28/37/19
f 6/67/294 19/30/294 286/20/294 291/19/294
f 30/57/295 285/11/295 289/14/295 24/35/295
f 2/10/296 25/9/296 290/2/296 292/1/296
f 308/497/297 294/498/297 296/499/297 302/500/297
f 302/500/298 296/499/298 300/501/298 303/502/298
f 307/503/299 298/504/299 304/505/299
f 304/505/300 298/504/300 294/498/300 301/506/300
f 305/507/301 306/508/301 297/509/301 293/510/301
f 297/511/302 304/505/302 301/506/302 293/512/302
f 306/513/303 307/503/303 304/505/303 297/514/303
f 295/515/304 302/500/304 303/502/304 299/516/304
f 305/517/305 308/497/305 302/500/305 295/518/305
f 293/519/306 301/506/306 308/497/306 305/520/306
f 299/521/307 303/502/307 307/503/307 306/522/307
f 300/501/308 296/499/308 294/498/308 298/504/308
f 295/523/301 299/524/301 306/508/301 305/507/301
f 303/502/309 300/501/309 298/504/309 307/503/309
f 301/506/310 294/498/310 308/497/310
f 324/525/311 318/526/311 312/527/311 310/528/311
f 318/526/312 319/529/312 316/530/312 312/527/312
f 323/531/313 320/532/313 314/533/313
f 320/532/314 317/534/314 310/528/314 314/533/314
f 321/535/315 309/536/315 313/537/315 322/538/315
f 313/539/316 309/540/316 317/534/316 320/532/316
f 322/541/317 313/542/317 320/532/317 323/531/317
f 311/543/318 315/544/318 319/529/318 318/526/318
f 321/545/319 311/546/319 318/526/319 324/525/319
f 309/547/320 321/548/320 324/525/320 317/534/320
f 315/549/321 322/550/321 323/531/321 319/529/321
f 316/530/322 314/533/322 310/528/322 312/527/322
f 311/551/315 321/535/315 322/538/315 315/552/315
f 319/529/323 323/531/323 314/533/323 316/530/323
f 317/534/324 324/525/324 310/528/324
f 325/553/325 326/553/325 328/554/325 327/554/325
f 327/554/326 328/554/326 332/555/326 331/555/326
f 329/556/327 330/556/327 326/553/327 325/553/327
f 327/554/328 331/555/328 329/556/328 325/553/328
f 332/555/329 328/554/329 326/553/329 330/556/329
f 331/555/330 332/555/330 336/557/330 335/557/330
f 330/556/331 329/556/331 333/558/331 334/558/331
f 329/556/328 331/555/328 335/557/328 333/558/328
f 347/559/325 345/560/325 346/560/325 348/559/325
f 338/561/332 337/561/332 341/562/332 342/562/332
f 335/557/333 336/557/333 334/558/333 333/558/333
f 338/561/330 340/563/330 339/563/330 337/561/330
f 342/562/331 341/562/331 343/564/331 344/564/331
f 339/563/333 340/563/333 344/564/333 343/564/333
f 340/563/329 338/561/329 342/562/329 344/564/329
f 337/561/328 339/563/328 343/564/328 341/562/328
f 348/559/329 346/560/329 350/565/329 352/566/329
f 351/566/333 352/566/333 350/565/333 349/565/333
f 347/559/330 348/559/330 352/566/330 351/566/330
f 346/560/331 345/560/331 349/565/331 350/565/331
f 345/560/328 347/559/328 351/566/328 349/565/328
f 355/567/325 353/568/325 354/568/325 356/567/325
f 356/567/329 354/568/329 358/569/329 360/570/329
f 359/570/333 360/570/333 358/569/333 357/569/333
f 355/567/330 356/567/330 360/570/330 359/570/330
f 354/568/331 353/568/331 357/569/331 358/569/331
f 353/568/328 355/567/328 359/570/328 357/569/328
f 363/571/325 361/572/325 362/572/325 364/571/325
f 364/571/329 362/572/329 366/573/329 368/574/329
f 367/574/333 368/574/333 366/573/333 365/573/333
f 363/571/330 364/571/330 368/574/330 367/574/330
f 362/572/331 361/572/331 365/573/331 366/573/331
f 361/572/328 363/571/328 367/574/328 365/573/328
f 369/575/334 371/576/334 372/576/334 370/575/334
f 371/576/335 375/577/335 376/577/335 372/576/335
f 332/555/329 330/556/329 334/558/329 336/557/329
f 373/578/336 369/575/336 370/575/336 374/578/336
f 371/576/337 369/575/337 373/578/337 375/577/337
f 376/577/338 374/578/338 370/575/338 372/576/338
f 375/577/339 379/579/339 380/579/339 376/577/339
f 374/578/340 378/580/340 377/580/340 373/578/340
f 373/578/337 377/580/337 379/579/337 375/577/337
f 391/581/334 392/581/334 390/582/334 389/582/334
f 382/583/341 386/584/341 385/584/341 381/583/341
f 379/579/342 377/580/342 378/580/342 380/579/342
f 382/583/339 381/583/339 383/585/339 384/585/339
f 386/584/340 388/586/340 387/586/340 385/584/340
f 383/585/342 387/586/342 388/586/342 384/585/342
f 384/585/338 388/586/338 386/584/338 382/583/338
f 381/583/337 385/584/337 387/586/337 383/585/337
f 392/581/338 396/587/338 394/588/338 390/582/338
f 395/587/342 393/588/342 394/588/342 396/587/342
f 391/581/339 395/587/339 396/587/339 392/581/339
f 390/582/340 394/588/340 393/588/340 389/582/340
f 389/582/337 393/588/337 395/587/337 391/581/337
f 399/589/334 400/589/334 398/590/334 397/590/334
f 400/589/338 404/591/338 402/592/338 398/590/338
f 403/591/342 401/592/342 402/592/342 404/591/342
f 399/589/339 403/591/339 404/591/339 400/589/339
f 398/590/340 402/592/340 401/592/340 397/590/340
f 397/590/337 401/592/337 403/591/337 399/589/337
f 407/593/334 408/593/334 406/594/334 405/594/334
f 408/593/338 412/595/338 410/596/338 406/594/338
f 411/595/342 409/596/342 410/596/342 412/595/342
f 407/593/339 411/595/339 412/595/339 408/593/339
f 406/594/340 410/596/340 409/596/340 405/594/340
f 405/594/337 409/596/337 411/595/337 407/593/337
f 376/577/338 380/579/338 378/580/338 374/578/338
f 17/28/343 418/45/343 422/72/343 284/49/343
f 23/34/344 420/59/344 421/494/344 288/63/344
f 288/63/344 421/494/344 414/79/344 10/24/344
f 29/597/345 419/598/345 416/61/345 22/60/345
f 11/599/346 417/600/346 415/601/346 16/602/346
f 284/49/343 422/72/343 413/53/343 28/37/343
f 10/24/347 414/79/347 417/600/347 11/599/347
f 419/603/348 413/53/348 423/496/348
f 421/494/349 420/59/349 426/71/349 429/495/349
f 415/604/350 417/605/350 424/80/350 425/606/350
f 429/495/351 430/607/351 425/606/351 424/80/351
f 430/607/352 429/495/352 426/71/352 423/77/352
f 4/608/353 1/609/353 427/610/353 428/611/353
f 5/612/354 6/67/354 431/613/354
f 6/67/355 291/19/355 433/614/355 431/613/355
f 292/1/356 8/4/356 432/615/356 434/616/356
f 1/617/357 2/10/357 427/610/357
f 291/19/358 3/22/358 428/618/358 433/614/358
f 2/10/359 292/1/359 434/616/359 427/610/359
f 7/619/360 5/620/360 431/621/360 432/615/360
f 3/22/361 4/622/361 428/618/361
f 8/4/362 7/623/362 432/615/362
f 432/615/363 431/621/363 433/624/363 434/616/363
f 433/624/364 428/611/364 427/610/364 434/616/364
