# Blender 4.2.3 LTS
# www.blender.org
mtllib barrel.mtl
o Barrel
v -0.000000 -0.910000 -0.630000
v -0.000000 0.910000 -0.630000
v 0.315000 -0.910000 -0.545596
v 0.315000 0.910000 -0.545596
v 0.545596 -0.910000 -0.315000
v 0.545596 0.910000 -0.315000
v 0.630000 -0.910000 0.000000
v 0.630000 0.910000 0.000000
v 0.545596 -0.910000 0.315000
v 0.545596 0.910000 0.315000
v 0.315000 -0.910000 0.545596
v 0.315000 0.910000 0.545596
v -0.000000 -0.910000 0.630000
v -0.000000 0.910000 0.630000
v -0.315000 -0.910000 0.545596
v -0.315000 0.910000 0.545596
v -0.545596 -0.910000 0.315000
v -0.545596 0.910000 0.315000
v -0.630000 -0.910000 0.000000
v -0.630000 0.910000 0.000000
v -0.545596 -0.910000 -0.315000
v -0.545596 0.910000 -0.315000
v -0.315000 -0.910000 -0.545596
v -0.315000 0.910000 -0.545596
v -0.000000 -0.980000 -0.693000
v 0.346500 -0.980000 -0.600156
v 0.600156 -0.980000 -0.346500
v 0.693000 -0.980000 0.000000
v 0.600156 -0.980000 0.346500
v 0.346500 -0.980000 0.600156
v -0.000000 -0.980000 0.693000
v -0.346500 -0.980000 0.600156
v -0.600156 -0.980000 0.346500
v -0.693000 -0.980000 0.000000
v -0.600156 -0.980000 -0.346500
v -0.346500 -0.980000 -0.600156
v -0.000000 -1.050000 -0.630000
v 0.315000 -1.050000 -0.545596
v 0.545596 -1.050000 -0.315000
v 0.630000 -1.050000 0.000000
v 0.545596 -1.050000 0.315000
v 0.315000 -1.050000 0.545596
v -0.000000 -1.050000 0.630000
v -0.315000 -1.050000 0.545596
v -0.545596 -1.050000 0.315000
v -0.630000 -1.050000 0.000000
v -0.545596 -1.050000 -0.315000
v -0.315000 -1.050000 -0.545596
v -0.000000 0.980000 -0.693000
v 0.346500 0.980000 -0.600156
v 0.600156 0.980000 -0.346500
v 0.693000 0.980000 0.000000
v 0.600156 0.980000 0.346500
v 0.346500 0.980000 0.600156
v -0.000000 0.980000 0.693000
v -0.346500 0.980000 0.600156
v -0.600156 0.980000 0.346500
v -0.693000 0.980000 0.000000
v -0.600156 0.980000 -0.346500
v -0.346500 0.980000 -0.600156
v -0.000000 1.050000 -0.630000
v 0.315000 1.050000 -0.545596
v 0.545596 1.050000 -0.315000
v 0.630000 1.050000 0.000000
v 0.545596 1.050000 0.315000
v 0.315000 1.050000 0.545596
v -0.000000 1.050000 0.630000
v -0.315000 1.050000 0.545596
v -0.545596 1.050000 0.315000
v -0.630000 1.050000 0.000000
v -0.545596 1.050000 -0.315000
v -0.315000 1.050000 -0.545596
v -0.000000 -0.700000 -0.693000
v 0.346500 -0.700000 -0.600156
v 0.600156 -0.700000 -0.346500
v 0.693000 -0.700000 0.000000
v 0.600156 -0.700000 0.346500
v 0.346500 -0.700000 0.600156
v -0.000000 -0.700000 0.693000
v -0.346500 -0.700000 0.600156
v -0.600156 -0.700000 0.346500
v -0.693000 -0.700000 0.000000
v -0.600156 -0.700000 -0.346500
v -0.346500 -0.700000 -0.600156
v -0.000000 0.700000 -0.693000
v 0.346500 0.700000 -0.600156
v 0.600156 0.700000 -0.346500
v 0.693000 0.700000 0.000000
v 0.600156 0.700000 0.346500
v 0.346500 0.700000 0.600156
v -0.000000 0.700000 0.693000
v -0.346500 0.700000 0.600156
v -0.600156 0.700000 0.346500
v -0.693000 0.700000 0.000000
v -0.600156 0.700000 -0.346500
v -0.346500 0.700000 -0.600156
vn 0.2486 0.2783 -0.9278
vn 0.6792 0.2783 -0.6792
vn 0.9278 0.2783 -0.2486
vn 0.9278 0.2783 0.2486
vn 0.6792 0.2783 0.6792
vn 0.2486 0.2783 0.9278
vn -0.2486 0.2783 0.9278
vn -0.6792 0.2783 0.6792
vn -0.9278 0.2783 0.2486
vn -0.9278 0.2783 -0.2486
vn -0.5336 -0.6561 0.5336
vn -0.6792 0.2783 -0.6792
vn -0.2486 0.2783 -0.9278
vn 0.1953 0.6561 0.7290
vn 0.5336 -0.6561 0.5336
vn 0.5336 0.6561 0.5336
vn 0.7290 0.6561 0.1953
vn -0.1953 0.6561 -0.7290
vn 0.1953 0.6561 -0.7290
vn 0.7290 0.6561 -0.1953
vn -0.5336 0.6561 -0.5336
vn 0.5336 0.6561 -0.5336
vn -0.7290 0.6561 -0.1953
vn -0.7290 0.6561 0.1953
vn -0.5336 0.6561 0.5336
vn -0.1953 0.6561 0.7290
vn -0.0000 -1.0000 -0.0000
vn -0.1953 -0.6561 -0.7290
vn 0.5336 -0.6561 -0.5336
vn -0.7290 -0.6561 0.1953
vn 0.1953 -0.6561 0.7290
vn 0.7290 -0.6561 -0.1953
vn -0.7290 -0.6561 -0.1953
vn -0.1953 -0.6561 0.7290
vn 0.7290 -0.6561 0.1953
vn -0.5336 -0.6561 -0.5336
vn 0.1953 -0.6561 -0.7290
vn -0.0000 1.0000 -0.0000
vn -0.2486 -0.2783 -0.9278
vn -0.6792 -0.2783 -0.6792
vn -0.9278 -0.2783 -0.2486
vn -0.9278 -0.2783 0.2486
vn -0.6792 -0.2783 0.6792
vn -0.2486 -0.2783 0.9278
vn 0.2486 -0.2783 0.9278
vn 0.6792 -0.2783 0.6792
vn 0.9278 -0.2783 0.2486
vn 0.9278 -0.2783 -0.2486
vn 0.6792 -0.2783 -0.6792
vn 0.2486 -0.2783 -0.9278
vn -0.2588 -0.0000 -0.9659
vn -0.7071 -0.0000 -0.7071
vn -0.9659 -0.0000 -0.2588
vn -0.9659 -0.0000 0.2588
vn -0.7071 -0.0000 0.7071
vn -0.2588 -0.0000 0.9659
vn 0.2588 -0.0000 0.9659
vn 0.7071 -0.0000 0.7071
vn 0.9659 -0.0000 0.2588
vn 0.9659 -0.0000 -0.2588
vn 0.7071 -0.0000 -0.7071
vn 0.2588 -0.0000 -0.9659
vt 0.010769 0.544610
vt 0.010879 0.497922
vt 0.092403 0.497922
vt 0.092293 0.544610
vt 0.173928 0.497922
vt 0.173818 0.544610
vt 0.255452 0.497922
vt 0.255342 0.544610
vt 0.336976 0.497922
vt 0.336866 0.544610
vt 0.418500 0.497922
vt 0.418390 0.544610
vt 0.500025 0.497922
vt 0.499915 0.544610
vt 0.581549 0.497922
vt 0.581439 0.544610
vt 0.663073 0.497922
vt 0.662963 0.544610
vt 0.744598 0.497922
vt 0.744488 0.544610
vt 0.826122 0.497922
vt 0.826012 0.544610
vt 0.581512 0.451750
vt 0.663037 0.451750
vt 0.907646 0.497922
vt 0.907536 0.544610
vt 0.989171 0.497922
vt 0.989061 0.544610
vt 0.418109 0.900346
vt 0.499634 0.900391
vt 0.499560 0.945313
vt 0.418036 0.945268
vt 0.336512 0.945223
vt 0.418073 0.988795
vt 0.336549 0.988750
vt 0.336585 0.900301
vt 0.255061 0.900256
vt 0.254987 0.945178
vt 0.907255 0.900614
vt 0.988779 0.900659
vt 0.988706 0.945581
vt 0.907182 0.945536
vt 0.010488 0.900122
vt 0.092012 0.900167
vt 0.091939 0.945089
vt 0.010415 0.945044
vt 0.173537 0.900212
vt 0.173463 0.945134
vt 0.825731 0.900569
vt 0.825657 0.945491
vt 0.744206 0.900525
vt 0.744133 0.945447
vt 0.662682 0.900480
vt 0.662609 0.945402
vt 0.581158 0.900435
vt 0.581085 0.945357
vt 0.980121 0.243244
vt 0.980201 0.141964
vt 0.919502 0.054219
vt 0.814289 0.003522
vt 0.692753 0.003455
vt 0.587459 0.054037
vt 0.526622 0.141715
vt 0.526542 0.242995
vt 0.587241 0.330740
vt 0.692454 0.381438
vt 0.813991 0.381504
vt 0.919284 0.330922
vt 0.988743 0.989254
vt 0.907218 0.989209
vt 0.173500 0.988660
vt 0.091976 0.988616
vt 0.744170 0.989120
vt 0.662645 0.989075
vt 0.499597 0.988839
vt 0.255024 0.988705
vt 0.825694 0.989165
vt 0.581121 0.989030
vt 0.010451 0.988571
vt 0.092367 0.451750
vt 0.010842 0.451750
vt 0.010806 0.405344
vt 0.092330 0.405344
vt 0.499988 0.451750
vt 0.418464 0.451750
vt 0.336939 0.451750
vt 0.255415 0.451750
vt 0.907609 0.451750
vt 0.989134 0.451750
vt 0.173891 0.451750
vt 0.826085 0.451750
vt 0.744561 0.451750
vt 0.025435 0.141440
vt 0.086272 0.053762
vt 0.191566 0.003180
vt 0.313102 0.003247
vt 0.418315 0.053944
vt 0.479014 0.141689
vt 0.478934 0.242969
vt 0.418097 0.330647
vt 0.312803 0.381229
vt 0.191267 0.381163
vt 0.086053 0.330465
vt 0.025355 0.242720
vt 0.581476 0.405344
vt 0.663000 0.405344
vt 0.336903 0.405344
vt 0.418427 0.405344
vt 0.907573 0.405344
vt 0.989097 0.405344
vt 0.173854 0.405344
vt 0.744524 0.405344
vt 0.499951 0.405344
vt 0.255379 0.405344
vt 0.826048 0.405344
vt 0.907292 0.854208
vt 0.988816 0.854253
vt 0.825768 0.854163
vt 0.744243 0.854118
vt 0.662719 0.854074
vt 0.581195 0.854029
vt 0.499670 0.853984
vt 0.418146 0.853940
vt 0.336622 0.853895
vt 0.255098 0.853850
vt 0.173573 0.853805
vt 0.092049 0.853761
vt 0.010525 0.853716
s 0
usemtl Material.001
f 85/1/1 2/2/1 4/3/1 86/4/1
f 86/4/2 4/3/2 6/5/2 87/6/2
f 87/6/3 6/5/3 8/7/3 88/8/3
f 88/8/4 8/7/4 10/9/4 89/10/4
f 89/10/5 10/9/5 12/11/5 90/12/5
f 90/12/6 12/11/6 14/13/6 91/14/6
f 91/14/7 14/13/7 16/15/7 92/16/7
f 92/16/8 16/15/8 18/17/8 93/18/8
f 93/18/9 18/17/9 20/19/9 94/20/9
f 94/20/10 20/19/10 22/21/10 95/22/10
f 18/17/11 16/15/11 56/23/11 57/24/11
f 95/22/12 22/21/12 24/25/12 96/26/12
f 96/26/13 24/25/13 2/27/13 85/28/13
f 11/29/14 13/30/14 31/31/14 30/32/14
f 29/33/15 30/32/15 42/34/15 41/35/15
f 9/36/16 11/29/16 30/32/16 29/33/16
f 7/37/17 9/36/17 29/33/17 28/38/17
f 23/39/18 1/40/18 25/41/18 36/42/18
f 1/43/19 3/44/19 26/45/19 25/46/19
f 5/47/20 7/37/20 28/38/20 27/48/20
f 21/49/21 23/39/21 36/42/21 35/50/21
f 3/44/22 5/47/22 27/48/22 26/45/22
f 19/51/23 21/49/23 35/50/23 34/52/23
f 17/53/24 19/51/24 34/52/24 33/54/24
f 15/55/25 17/53/25 33/54/25 32/56/25
f 13/30/26 15/55/26 32/56/26 31/31/26
f 37/57/27 38/58/27 39/59/27 40/60/27 41/61/27 42/62/27 43/63/27 44/64/27 45/65/27 46/66/27 47/67/27 48/68/27
f 36/42/28 25/41/28 37/69/28 48/70/28
f 26/45/29 27/48/29 39/71/29 38/72/29
f 33/54/30 34/52/30 46/73/30 45/74/30
f 30/32/31 31/31/31 43/75/31 42/34/31
f 27/48/32 28/38/32 40/76/32 39/71/32
f 34/52/33 35/50/33 47/77/33 46/73/33
f 31/31/34 32/56/34 44/78/34 43/75/34
f 28/38/35 29/33/35 41/35/35 40/76/35
f 35/50/36 36/42/36 48/70/36 47/77/36
f 25/46/37 26/45/37 38/72/37 37/79/37
f 32/56/11 33/54/11 45/74/11 44/78/11
f 50/80/19 49/81/19 61/82/19 62/83/19
f 16/15/34 14/13/34 55/84/34 56/23/34
f 14/13/31 12/11/31 54/85/31 55/84/31
f 12/11/15 10/9/15 53/86/15 54/85/15
f 10/9/35 8/7/35 52/87/35 53/86/35
f 2/27/28 24/25/28 60/88/28 49/89/28
f 4/3/37 2/2/37 49/81/37 50/80/37
f 8/7/32 6/5/32 51/90/32 52/87/32
f 24/25/36 22/21/36 59/91/36 60/88/36
f 6/5/29 4/3/29 50/80/29 51/90/29
f 22/21/33 20/19/33 58/92/33 59/91/33
f 20/19/30 18/17/30 57/24/30 58/92/30
f 62/93/38 61/94/38 72/95/38 71/96/38 70/97/38 69/98/38 68/99/38 67/100/38 66/101/38 65/102/38 64/103/38 63/104/38
f 57/24/25 56/23/25 68/105/25 69/106/25
f 54/85/16 53/86/16 65/107/16 66/108/16
f 49/89/18 60/88/18 72/109/18 61/110/18
f 51/90/22 50/80/22 62/83/22 63/111/22
f 58/92/24 57/24/24 69/106/24 70/112/24
f 55/84/14 54/85/14 66/108/14 67/113/14
f 52/87/20 51/90/20 63/111/20 64/114/20
f 59/91/23 58/92/23 70/112/23 71/115/23
f 56/23/26 55/84/26 67/113/26 68/105/26
f 53/86/17 52/87/17 64/114/17 65/107/17
f 60/88/21 59/91/21 71/115/21 72/109/21
f 23/39/39 84/116/39 73/117/39 1/40/39
f 21/49/40 83/118/40 84/116/40 23/39/40
f 19/51/41 82/119/41 83/118/41 21/49/41
f 17/53/42 81/120/42 82/119/42 19/51/42
f 15/55/43 80/121/43 81/120/43 17/53/43
f 13/30/44 79/122/44 80/121/44 15/55/44
f 11/29/45 78/123/45 79/122/45 13/30/45
f 9/36/46 77/124/46 78/123/46 11/29/46
f 7/37/47 76/125/47 77/124/47 9/36/47
f 5/47/48 75/126/48 76/125/48 7/37/48
f 3/44/49 74/127/49 75/126/49 5/47/49
f 1/43/50 73/128/50 74/127/50 3/44/50
f 84/116/51 96/26/51 85/28/51 73/117/51
f 83/118/52 95/22/52 96/26/52 84/116/52
f 82/119/53 94/20/53 95/22/53 83/118/53
f 81/120/54 93/18/54 94/20/54 82/119/54
f 80/121/55 92/16/55 93/18/55 81/120/55
f 79/122/56 91/14/56 92/16/56 80/121/56
f 78/123/57 90/12/57 91/14/57 79/122/57
f 77/124/58 89/10/58 90/12/58 78/123/58
f 76/125/59 88/8/59 89/10/59 77/124/59
f 75/126/60 87/6/60 88/8/60 76/125/60
f 74/127/61 86/4/61 87/6/61 75/126/61
f 73/128/62 85/1/62 86/4/62 74/127/62
