# Blender 4.1.1
# www.blender.org
mtllib Doors.mtl
o Doorframe
v -0.900000 3.500000 0.200000
v 0.900000 3.500000 0.200000
v -1.400000 0.000000 0.200000
v -1.400000 3.000000 0.200000
v 1.400000 0.000000 0.200000
v 1.400000 3.000000 0.200000
v -1.600000 0.000000 0.200000
v -1.600000 3.100000 0.200000
v 1.600000 0.000000 0.200000
v 1.600000 3.100000 0.200000
v -1.000000 3.700000 0.200000
v 1.000000 3.700000 0.200000
v -0.900000 3.500000 -0.200000
v 0.900000 3.500000 -0.200000
v -1.400000 0.000000 -0.200000
v -1.400000 3.000000 -0.200000
v 1.400000 0.000000 -0.200000
v 1.400000 3.000000 -0.200000
v -1.600000 0.000000 -0.200000
v -1.600000 3.100000 -0.200000
v 1.600000 0.000000 -0.200000
v 1.600000 3.100000 -0.200000
v -1.000000 3.700000 -0.200000
v 1.000000 3.700000 -0.200000
vn -1.0000 -0.0000 -0.0000
vn -0.7071 0.7071 -0.0000
vn -0.0000 -0.0000 1.0000
vn 1.0000 -0.0000 -0.0000
vn -0.0000 1.0000 -0.0000
vn -0.0000 -1.0000 -0.0000
vn 0.7071 -0.7071 -0.0000
vn -0.7071 -0.7071 -0.0000
vn -0.0000 -0.0000 -1.0000
vn 0.7071 0.7071 -0.0000
vt 0.375000 0.000000
vt 0.625000 0.000000
vt 0.875000 0.750000
vt 0.000000 0.000000
vt 0.625000 0.750000
vt 0.375000 0.750000
vt 0.375000 1.000000
vt 0.625000 1.000000
s 0
f 19/1/1 7/1/1 8/2/1 20/2/1
f 11/3/2 23/3/2 20/4/2 8/4/2
f 6/5/3 5/6/3 9/6/3 10/5/3
f 9/6/4 21/6/4 22/5/4 10/5/4
f 3/7/3 4/8/3 8/8/3 7/7/3
f 12/5/5 24/5/5 23/3/5 11/3/5
f 10/5/3 12/5/3 2/5/3 6/5/3
f 14/5/6 2/5/6 1/8/6 13/8/6
f 1/8/3 2/5/3 12/5/3 11/8/3
f 11/4/3 8/4/3 4/4/3 1/4/3
f 17/6/1 5/6/1 6/5/1 18/5/1
f 13/4/7 1/4/7 4/4/7 16/4/7
f 18/5/8 6/5/8 2/5/8 14/5/8
f 16/8/4 4/8/4 3/7/4 15/7/4
f 18/5/9 22/5/9 21/6/9 17/6/9
f 15/7/9 19/7/9 20/8/9 16/8/9
f 22/5/9 18/5/9 14/5/9 24/5/9
f 13/8/9 23/8/9 24/5/9 14/5/9
f 23/4/9 13/4/9 16/4/9 20/4/9
f 10/5/10 22/5/10 24/5/10 12/5/10
o Slide.L
v -0.900000 0.000000 0.100000
v -0.900000 3.500000 0.100000
v -1.400000 0.000000 0.100000
v -1.400000 3.000000 0.100000
v 0.000000 0.000000 0.100000
v 0.000000 3.500000 0.100000
v -0.900000 0.000000 -0.100000
v -0.900000 3.500000 -0.100000
v -1.400000 0.000000 -0.100000
v -1.400000 3.000000 -0.100000
v 0.000000 0.000000 -0.100000
v 0.000000 3.500000 -0.100000
vn -0.0000 -0.0000 1.0000
vn 1.0000 -0.0000 -0.0000
vn -0.0000 -0.0000 -1.0000
vt 0.375000 0.875000
vt 0.625000 0.875000
vt 0.625000 1.000000
vt 0.375000 1.000000
s 0
f 29/9/11 30/10/11 26/11/11 25/12/11
f 25/12/11 26/11/11 28/11/11 27/12/11
f 36/10/12 30/10/12 29/9/12 35/9/12
f 35/9/13 31/12/13 32/11/13 36/10/13
f 31/12/13 33/12/13 34/11/13 32/11/13
o Slide.R
v 0.900000 3.500000 0.100000
v 0.900000 0.000000 0.100000
v 1.400000 3.000000 0.100000
v 1.400000 0.000000 0.100000
v 0.000000 0.000000 0.100000
v 0.000000 3.500000 0.100000
v 0.900000 3.500000 -0.100000
v 0.900000 0.000000 -0.100000
v 1.400000 3.000000 -0.100000
v 1.400000 0.000000 -0.100000
v 0.000000 0.000000 -0.100000
v 0.000000 3.500000 -0.100000
vn -0.0000 -0.0000 1.0000
vn -1.0000 -0.0000 -0.0000
vn -0.0000 -0.0000 -1.0000
vt 0.625000 0.750000
vt 0.375000 0.750000
vt 0.625000 0.875000
vt 0.375000 0.875000
s 0
f 37/13/14 38/14/14 40/14/14 39/13/14
f 38/14/14 37/13/14 42/15/14 41/16/14
f 47/16/15 41/16/15 42/15/15 48/15/15
f 43/13/16 45/13/16 46/14/16 44/14/16
f 44/14/16 47/16/16 48/15/16 43/13/16
