# Blender 4.1.1
# www.blender.org
mtllib Doorslide.mtl
o Slide.L
v -0.900000 0.000000 0.100000
v -0.900000 3.500000 0.100000
v -1.400000 0.000000 0.100000
v -1.400000 3.000000 0.100000
v 0.000000 0.000000 0.100000
v 0.000000 3.500000 0.100000
v -0.900000 0.000000 -0.100000
v -0.900000 3.500000 -0.100000
v -1.400000 0.000000 -0.100000
v -1.400000 3.000000 -0.100000
v 0.000000 0.000000 -0.100000
v 0.000000 3.500000 -0.100000
vn -0.0000 -0.0000 1.0000
vn 1.0000 -0.0000 -0.0000
vn -0.0000 -0.0000 -1.0000
vt 0.375000 0.875000
vt 0.625000 0.875000
vt 0.625000 1.000000
vt 0.375000 1.000000
s 0
f 5/1/1 6/2/1 2/3/1 1/4/1
f 1/4/1 2/3/1 4/3/1 3/4/1
f 12/2/2 6/2/2 5/1/2 11/1/2
f 11/1/3 7/4/3 8/3/3 12/2/3
f 7/4/3 9/4/3 10/3/3 8/3/3
