# Blender 4.1.0
# www.blender.org
mtllib light_ceil_long.mtl
o CeilingLight2
v 0.600000 0.000000 -2.000000
v 0.400000 -0.100000 -1.950000
v 0.600000 0.000000 2.000000
v 0.400000 -0.100000 1.950000
v -0.600000 0.000000 -2.000000
v -0.400000 -0.100000 -1.950000
v -0.600000 0.000000 2.000000
v -0.400000 -0.100000 1.950000
v -0.500000 -0.100000 -2.000000
v -0.500000 -0.100000 2.000000
v 0.500000 -0.100000 -2.000000
v 0.500000 -0.100000 2.000000
v -0.300000 -0.200000 -1.900000
v -0.300000 -0.200000 1.900000
v 0.300000 -0.200000 -1.900000
v 0.300000 -0.200000 1.900000
vn -0.0000 1.0000 -0.0000
vn -0.0000 -0.0000 1.0000
vn -0.7071 -0.7071 -0.0000
vn 0.7071 -0.7071 -0.0000
vn -0.0000 -0.0000 -1.0000
vn -0.0000 -1.0000 -0.0000
vn -0.0000 -0.4472 -0.8944
vn -0.0000 -0.4472 0.8944
vt 0.625000 0.500000
vt 0.875000 0.500000
vt 0.875000 0.750000
vt 0.625000 0.750000
vt 0.375000 0.750000
vt 0.625000 1.000000
vt 0.375000 1.000000
vt 0.375000 0.000000
vt 0.625000 0.000000
vt 0.625000 0.250000
vt 0.375000 0.250000
vt 0.361111 0.508333
vt 0.361111 0.741667
vt 0.375000 0.500000
vt 0.138889 0.508333
vt 0.138889 0.741667
vt 0.125000 0.750000
vt 0.125000 0.500000
s 0
usemtl Material
f 1/1/1 5/2/1 7/3/1 3/4/1
f 12/5/2 3/4/2 7/6/2 10/7/2
f 10/8/3 7/9/3 5/10/3 9/11/3
f 11/14/4 1/1/4 3/4/4 12/5/4
f 9/11/5 5/10/5 1/1/5 11/14/5
f 6/15/6 8/16/6 10/17/6 9/18/6
f 2/12/6 6/15/6 9/18/6 11/14/6
f 8/16/6 4/13/6 12/5/6 10/17/6
f 4/13/6 2/12/6 11/14/6 12/5/6
usemtl Material.001
f 2/12/4 4/13/4 16/13/4 15/12/4
f 13/15/6 15/12/6 16/13/6 14/16/6
f 6/15/7 2/12/7 15/12/7 13/15/7
f 4/13/8 8/16/8 14/16/8 16/13/8
f 8/16/3 6/15/3 13/15/3 14/16/3
