# Blender 5.0.1
# www.blender.org
o orb_stance
v -0.900000 5.280000 0.900000
v -0.900000 6.720000 0.900000
v -0.900000 5.280000 -0.900000
v -0.900000 6.720000 -0.900000
v 0.900000 5.280000 0.900000
v 0.900000 6.720000 0.900000
v 0.900000 5.280000 -0.900000
v 0.900000 6.720000 -0.900000
v -1.079154 5.136677 -0.317574
v -1.079154 5.136677 0.317574
v -1.079154 5.745941 1.079154
v -1.079154 6.254059 1.079154
v -1.079154 6.863323 0.317574
v -1.079154 6.863323 -0.317574
v -1.079154 6.254059 -1.079154
v -1.079154 5.745941 -1.079154
v 0.317574 5.136677 -1.079154
v -0.317574 5.136677 -1.079154
v -0.317574 6.863323 -1.079154
v 0.317574 6.863323 -1.079154
v 1.079154 6.254059 -1.079154
v 1.079154 5.745941 -1.079154
v 1.079154 5.136677 0.317574
v 1.079154 5.136677 -0.317574
v 1.079154 6.863323 -0.317574
v 1.079154 6.863323 0.317574
v 1.079154 6.254059 1.079154
v 1.079154 5.745941 1.079154
v -0.317574 5.136677 1.079154
v 0.317574 5.136677 1.079154
v 0.317574 6.863323 1.079154
v -0.317574 6.863323 1.079154
v 0.437905 7.152119 -0.392514
v 0.437905 7.152119 0.392515
v -0.437905 7.152119 -0.392514
v -0.437905 7.152119 0.392515
v -0.437905 4.847881 -0.392514
v -0.437905 4.847881 0.392515
v 0.437905 4.847881 -0.392514
v 0.437905 4.847881 0.392515
v 0.392514 5.649675 1.440148
v -0.392514 5.649675 1.440149
v 0.392514 6.350325 1.440148
v -0.392515 6.350325 1.440149
v 1.440148 5.649675 -0.392514
v 1.440149 5.649675 0.392515
v 1.440148 6.350325 -0.392514
v 1.440149 6.350325 0.392515
v -0.392514 5.649675 -1.440148
v 0.392515 5.649675 -1.440149
v -0.392514 6.350325 -1.440148
v 0.392515 6.350325 -1.440149
v -1.440148 5.649675 0.392514
v -1.440149 5.649675 -0.392515
v -1.440148 6.350325 0.392514
v -1.440149 6.350325 -0.392515
v -2.790000 -0.090000 2.610000
v -1.290000 4.590000 1.110000
v -2.610000 -0.090000 2.790000
v -1.110000 4.590000 1.290000
v -2.479500 -0.085500 2.479500
v -0.999000 4.590000 0.999000
v -1.290000 4.890000 1.110000
v -1.110000 4.890000 1.290000
v -0.999000 4.980000 0.999000
v -1.290000 7.200000 1.110000
v -1.110000 7.200000 1.290000
v -0.999000 7.200000 0.999000
v 0.000000 4.800000 1.290000
v 0.000000 4.800000 1.110000
v 0.000000 5.190000 1.290000
v 0.000000 5.190000 1.110000
v -1.290000 4.590000 0.000000
v -1.110000 4.590000 0.000000
v -1.290000 5.190000 0.000000
v -1.110000 5.190000 0.000000
v 2.790000 -0.090000 2.610000
v 1.290000 4.590000 1.110000
v 2.610000 -0.090000 2.790000
v 1.110000 4.590000 1.290000
v 2.479500 -0.085500 2.479500
v 0.999000 4.590000 0.999000
v 1.290000 4.890000 1.110000
v 1.110000 4.890000 1.290000
v 0.999000 4.980000 0.999000
v 1.290000 7.200000 1.110000
v 1.110000 7.200000 1.290000
v 0.999000 7.200000 0.999000
v 1.290000 4.590000 0.000000
v 1.110000 4.590000 0.000000
v 1.290000 5.190000 0.000000
v 1.110000 5.190000 0.000000
v -2.790000 -0.090000 -2.610000
v -1.290000 4.590000 -1.110000
v -2.610000 -0.090000 -2.790000
v -1.110000 4.590000 -1.290000
v -2.479500 -0.085500 -2.479500
v -0.999000 4.590000 -0.999000
v -1.290000 4.890000 -1.110000
v -1.110000 4.890000 -1.290000
v -0.999000 4.980000 -0.999000
v -1.290000 7.200000 -1.110000
v -1.110000 7.200000 -1.290000
v -0.999000 7.200000 -0.999000
v 0.000000 4.800000 -1.290000
v 0.000000 4.800000 -1.110000
v 0.000000 5.190000 -1.290000
v 0.000000 5.190000 -1.110000
v 2.790000 -0.090000 -2.610000
v 1.290000 4.590000 -1.110000
v 2.610000 -0.090000 -2.790000
v 1.110000 4.590000 -1.290000
v 2.479500 -0.085500 -2.479500
v 0.999000 4.590000 -0.999000
v 1.290000 4.890000 -1.110000
v 1.110000 4.890000 -1.290000
v 0.999000 4.980000 -0.999000
v 1.290000 7.200000 -1.110000
v 1.110000 7.200000 -1.290000
v 0.999000 7.200000 -0.999000
vn -0.9277 0.2910 -0.2337
vn -0.6366 0.7502 -0.1788
vn -0.5326 0.6574 -0.5331
vn -0.6854 0.2460 -0.6854
vn 0.2337 0.2910 -0.9277
vn 0.1758 0.7561 -0.6304
vn 0.5326 0.6574 -0.5331
vn 0.6854 0.2460 -0.6854
vn 0.9277 0.2910 0.2337
vn 0.6366 0.7502 0.1788
vn 0.5326 0.6574 0.5331
vn 0.6854 0.2460 0.6854
vn -0.2337 0.2910 0.9277
vn -0.1758 0.7561 0.6304
vn -0.5326 0.6574 0.5331
vn -0.6854 0.2460 0.6854
vn 0.2097 -0.9572 0.1996
vn 0.6366 -0.7502 0.1788
vn 0.5326 -0.6574 0.5331
vn -0.2097 0.9572 0.1996
vn -0.6366 0.7502 0.1788
vn 0.2097 0.9572 0.1996
vn 0.1758 0.7561 0.6304
vn 0.2097 0.9572 -0.1996
vn 0.6366 0.7502 -0.1788
vn -0.1758 0.7561 -0.6304
vn -0.2097 0.9572 -0.1996
vn -0.2097 -0.9572 0.1996
vn -0.1758 -0.7561 0.6304
vn -0.5326 -0.6574 0.5330
vn 0.1758 -0.7561 0.6304
vn -0.5326 -0.6574 -0.5331
vn -0.1758 -0.7561 -0.6304
vn -0.2097 -0.9572 -0.1996
vn -0.6366 -0.7502 -0.1788
vn -0.6366 -0.7502 0.1788
vn 0.1758 -0.7561 -0.6304
vn 0.2097 -0.9572 -0.1996
vn 0.5326 -0.6574 -0.5330
vn 0.6366 -0.7502 -0.1788
vn -0.2337 -0.2910 0.9277
vn -0.6854 -0.2460 0.6854
vn 0.6854 -0.2460 0.6854
vn 0.2337 -0.2910 0.9277
vn 0.2337 0.2910 0.9277
vn 0.9277 -0.2910 0.2337
vn 0.6854 -0.2460 -0.6854
vn 0.9277 -0.2910 -0.2337
vn 0.9277 0.2910 -0.2337
vn 0.2337 -0.2910 -0.9277
vn -0.6854 -0.2460 -0.6854
vn -0.2337 -0.2910 -0.9277
vn -0.2337 0.2910 -0.9277
vn -0.9277 -0.2910 -0.2337
vn -0.9277 -0.2910 0.2337
vn -0.9277 0.2910 0.2337
vn -0.7071 -0.0000 0.7071
vn -0.3657 -0.1747 -0.9142
vn 0.9142 -0.1747 0.3657
vn 0.0102 -0.9999 -0.0102
vn 0.9939 -0.0000 -0.1104
vn 0.9343 -0.0000 0.3564
vn -0.0000 -0.0000 1.0000
vn -0.0000 1.0000 -0.0000
vn -0.3564 -0.0000 -0.9343
vn -0.2559 0.9468 0.1952
vn 0.1928 -0.9802 0.0454
vn 0.1104 -0.0000 -0.9939
vn -0.0000 0.9786 0.2057
vn -0.0000 -1.0000 -0.0000
vn -1.0000 -0.0000 -0.0000
vn -0.6440 0.4128 0.6440
vn -0.2057 0.9786 -0.0000
vn -0.1952 0.9468 0.2559
vn 0.7071 -0.0000 0.7071
vn 0.3657 -0.1747 -0.9142
vn -0.9142 -0.1747 0.3657
vn -0.0102 -0.9999 -0.0102
vn -0.9939 -0.0000 -0.1104
vn -0.9343 -0.0000 0.3564
vn 0.3564 -0.0000 -0.9343
vn 0.2559 0.9468 0.1952
vn -0.1928 -0.9802 0.0454
vn -0.1104 -0.0000 -0.9939
vn 1.0000 -0.0000 -0.0000
vn 0.6440 0.4128 0.6440
vn 0.2057 0.9786 -0.0000
vn 0.1952 0.9468 0.2559
vn -0.7071 -0.0000 -0.7071
vn -0.3657 -0.1747 0.9142
vn 0.9142 -0.1747 -0.3657
vn 0.0102 -0.9999 0.0102
vn 0.9939 -0.0000 0.1104
vn 0.9343 -0.0000 -0.3564
vn -0.0000 -0.0000 -1.0000
vn -0.3564 -0.0000 0.9343
vn -0.2559 0.9468 -0.1952
vn 0.1928 -0.9802 -0.0454
vn 0.1104 -0.0000 0.9939
vn -0.0000 0.9786 -0.2057
vn -0.6440 0.4128 -0.6440
vn -0.1952 0.9468 -0.2559
vn 0.7071 -0.0000 -0.7071
vn 0.3657 -0.1747 0.9142
vn -0.9142 -0.1747 -0.3657
vn -0.0102 -0.9999 0.0102
vn -0.9939 -0.0000 0.1104
vn -0.9343 -0.0000 -0.3564
vn 0.3564 -0.0000 0.9343
vn 0.2559 0.9468 -0.1952
vn -0.1928 -0.9802 -0.0454
vn -0.1104 -0.0000 0.9939
vn 0.6440 0.4128 -0.6440
vn 0.1952 0.9468 -0.2559
vt 0.829596 0.761165
vt 0.814399 0.897702
vt 0.932505 0.859556
vt 0.968835 0.735544
vt 0.814399 0.897702
vt 0.932505 0.859556
vt 0.670404 0.761165
vt 0.685601 0.897702
vt 0.567495 0.859556
vt 0.531165 0.735544
vt 0.567495 0.859556
vt 0.338800 0.563456
vt 0.468835 0.583402
vt 0.432505 0.428387
vt 0.161200 0.563456
vt 0.031165 0.583402
vt 0.067495 0.428387
vt 0.314399 0.380705
vt 0.185601 0.380705
vt 0.432505 0.907464
vt 0.314399 0.955146
vt 0.338800 0.772395
vt 0.468835 0.752449
vt 0.185601 0.955146
vt 0.161200 0.772395
vt 0.067495 0.907464
vt 0.031165 0.752449
vt 0.314399 0.380705
vt 0.314399 0.955146
vt 0.685601 0.438149
vt 0.670404 0.574685
vt 0.531165 0.600307
vt 0.567495 0.476295
vt 0.932505 0.476295
vt 0.968835 0.600307
vt 0.829596 0.574685
vt 0.814399 0.438149
vt 0.567495 0.476295
vt 0.932505 0.476295
vt 0.814399 0.438149
vt 0.670404 0.574685
vt 0.670404 0.761165
vt 0.361284 0.158330
vt 0.361284 0.190800
vt 0.317229 0.191051
vt 0.317562 0.158547
vt 0.922788 0.158393
vt 0.361284 0.123113
vt 0.922864 0.123113
vt 0.922864 0.226018
vt 0.361284 0.226018
vt 0.922390 0.190856
vt 0.955975 0.175836
vt 0.441815 0.158330
vt 0.391490 0.158330
vt 0.391490 0.021470
vt 0.441815 0.021470
vt 0.317797 0.231340
vt 0.068361 0.231340
vt 0.068188 0.190972
vt 0.361284 0.328981
vt 0.315298 0.329751
vt 0.068586 0.158509
vt 0.037732 0.173866
vt 0.317797 0.117791
vt 0.068361 0.117791
vt 0.294452 0.190756
vt 0.391490 0.190800
vt 0.391490 0.328981
vt 0.441815 0.190800
vt 0.441815 0.328981
vt 0.295931 0.158466
vt 0.301226 0.020131
vt 0.319225 0.021172
vt 0.361284 0.021470
vt 0.293368 0.329359
s 1
f 56/1/1 14/2/2 4/3/3 15/4/4
f 52/1/5 20/5/6 8/6/7 21/4/8
f 48/7/9 26/8/10 6/9/11 27/10/12
f 44/7/13 32/8/14 2/11/15 12/10/16
f 40/12/17 23/13/18 5/14/19
f 36/15/20 13/16/21 2/17/15
f 34/12/22 31/18/23 6/14/11
f 34/12/22 36/15/20 32/19/14 31/18/23
f 8/20/7 20/21/6 33/22/24
f 25/23/25 33/22/24 34/12/22 26/13/10
f 20/21/6 19/24/26 35/25/27 33/22/24
f 33/22/24 35/25/27 36/15/20 34/12/22
f 4/26/3 14/27/2 35/25/27
f 35/25/27 14/27/2 13/16/21 36/15/20
f 38/15/28 29/19/29 1/17/30
f 38/15/28 40/12/17 30/28/31 29/19/29
f 3/26/32 18/24/33 37/25/34
f 9/27/35 37/25/34 38/15/28 10/16/36
f 18/24/33 17/29/37 39/22/38 37/25/34
f 37/25/34 39/22/38 40/12/17 38/15/28
f 7/20/39 24/23/40 39/22/38
f 39/22/38 24/23/40 23/13/18 40/12/17
f 29/30/29 42/31/41 11/32/42 1/33/30
f 42/31/41 44/7/13 12/10/16 11/32/42
f 5/34/19 28/35/43 41/36/44 30/37/31
f 30/37/31 41/36/44 42/31/41 29/30/29
f 28/35/43 27/4/12 43/1/45 41/36/44
f 41/36/44 43/1/45 44/7/13 42/31/41
f 27/4/12 6/6/11 31/2/23 43/1/45
f 43/1/45 31/2/23 32/8/14 44/7/13
f 23/30/18 46/31/46 28/32/43 5/38/19
f 46/31/46 48/7/9 27/10/12 28/32/43
f 7/39/39 22/35/47 45/36/48 24/40/40
f 24/40/40 45/36/48 46/31/46 23/30/18
f 22/35/47 21/4/8 47/1/49 45/36/48
f 45/36/48 47/1/49 48/7/9 46/31/46
f 21/4/8 8/3/7 25/2/25 47/1/49
f 47/1/49 25/2/25 26/8/10 48/7/9
f 17/40/37 50/36/50 22/35/47 7/34/39
f 50/36/50 52/1/5 21/4/8 22/35/47
f 3/33/32 16/32/51 49/41/52 18/30/33
f 18/30/33 49/41/52 50/36/50 17/40/37
f 16/32/51 15/10/4 51/42/53 49/41/52
f 49/41/52 51/42/53 52/1/5 50/36/50
f 15/10/4 4/11/3 19/8/26 51/42/53
f 51/42/53 19/8/26 20/5/6 52/1/5
f 9/40/35 54/36/54 16/35/51 3/39/32
f 54/36/54 56/1/1 15/4/4 16/35/51
f 1/38/30 11/32/42 53/31/55 10/30/36
f 10/30/36 53/31/55 54/36/54 9/40/35
f 11/32/42 12/10/16 55/7/56 53/31/55
f 53/31/55 55/7/56 56/1/1 54/36/54
f 12/10/16 2/9/15 13/8/21 55/7/56
f 55/7/56 13/8/21 14/2/2 56/1/1
s 0
f 58/43/57 60/44/57 64/45/57 63/46/57
f 57/47/58 58/43/58 62/48/58 61/49/58
f 61/50/59 62/51/59 60/44/59 59/52/59
f 57/47/60 61/53/60 59/52/60
f 65/54/61 62/55/61 74/56/61 76/57/61
f 64/45/62 65/58/62 68/59/62 67/60/62
f 64/45/63 60/44/63 69/61/63 71/62/63
f 63/46/57 64/45/57 67/60/57 66/63/57
f 68/64/64 66/63/64 67/60/64
f 65/65/65 63/46/65 66/63/65 68/66/65
f 65/67/66 64/45/66 71/62/66
f 60/44/67 62/68/67 70/69/67 69/61/67
f 62/68/68 65/70/68 72/71/68 70/69/68
f 65/72/69 76/73/69 75/74/69
f 62/55/70 58/43/70 73/75/70 74/56/70
f 58/43/71 63/46/71 75/74/71 73/75/71
f 59/52/72 60/44/72 58/43/72 57/47/72
f 72/76/73 65/67/73 71/62/73
f 63/46/74 65/72/74 75/74/74
f 78/43/75 83/46/75 84/45/75 80/44/75
f 77/47/76 81/49/76 82/48/76 78/43/76
f 81/50/77 79/52/77 80/44/77 82/51/77
f 77/47/78 79/52/78 81/53/78
f 85/54/79 92/57/79 90/56/79 82/55/79
f 84/45/80 87/60/80 88/59/80 85/58/80
f 84/45/63 71/62/63 69/61/63 80/44/63
f 83/46/75 86/63/75 87/60/75 84/45/75
f 88/64/64 87/60/64 86/63/64
f 85/65/81 88/66/81 86/63/81 83/46/81
f 85/67/82 71/62/82 84/45/82
f 80/44/83 69/61/83 70/69/83 82/68/83
f 82/68/84 70/69/84 72/71/84 85/70/84
f 85/72/69 91/74/69 92/73/69
f 82/55/70 90/56/70 89/75/70 78/43/70
f 78/43/85 89/75/85 91/74/85 83/46/85
f 79/52/86 77/47/86 78/43/86 80/44/86
f 72/76/87 71/62/87 85/67/87
f 83/46/88 91/74/88 85/72/88
f 94/43/89 99/46/89 100/45/89 96/44/89
f 93/47/90 97/49/90 98/48/90 94/43/90
f 97/50/91 95/52/91 96/44/91 98/51/91
f 93/47/92 95/52/92 97/53/92
f 101/54/93 76/57/93 74/56/93 98/55/93
f 100/45/94 103/60/94 104/59/94 101/58/94
f 100/45/95 107/62/95 105/61/95 96/44/95
f 99/46/89 102/63/89 103/60/89 100/45/89
f 104/64/64 103/60/64 102/63/64
f 101/65/96 104/66/96 102/63/96 99/46/96
f 101/67/97 107/62/97 100/45/97
f 96/44/98 105/61/98 106/69/98 98/68/98
f 98/68/99 106/69/99 108/71/99 101/70/99
f 101/72/100 75/74/100 76/73/100
f 98/55/70 74/56/70 73/75/70 94/43/70
f 94/43/71 73/75/71 75/74/71 99/46/71
f 95/52/101 93/47/101 94/43/101 96/44/101
f 108/76/73 107/62/73 101/67/73
f 99/46/102 75/74/102 101/72/102
f 110/43/103 112/44/103 116/45/103 115/46/103
f 109/47/104 110/43/104 114/48/104 113/49/104
f 113/50/105 114/51/105 112/44/105 111/52/105
f 109/47/106 113/53/106 111/52/106
f 117/54/107 114/55/107 90/56/107 92/57/107
f 116/45/108 117/58/108 120/59/108 119/60/108
f 116/45/95 112/44/95 105/61/95 107/62/95
f 115/46/103 116/45/103 119/60/103 118/63/103
f 120/64/64 118/63/64 119/60/64
f 117/65/109 115/46/109 118/63/109 120/66/109
f 117/67/110 116/45/110 107/62/110
f 112/44/111 114/68/111 106/69/111 105/61/111
f 114/68/112 117/70/112 108/71/112 106/69/112
f 117/72/100 92/73/100 91/74/100
f 114/55/70 110/43/70 89/75/70 90/56/70
f 110/43/85 115/46/85 91/74/85 89/75/85
f 111/52/113 112/44/113 110/43/113 109/47/113
f 108/76/87 117/67/87 107/62/87
f 115/46/114 117/72/114 91/74/114
s 1
f 32/19/14 36/15/20 2/17/15
f 19/24/26 4/26/3 35/25/27
f 25/23/25 8/20/7 33/22/24
f 26/13/10 34/12/22 6/14/11
f 10/16/36 38/15/28 1/17/30
f 9/27/35 3/26/32 37/25/34
f 17/29/37 7/20/39 39/22/38
f 30/28/31 40/12/17 5/14/19
