# Blender 4.3.2
# www.blender.org
mtllib radio.mtl
o radio
v -0.480000 0.000000 0.120000
v -0.450000 0.060000 0.120000
v -0.510000 0.060000 0.090000
v -0.450000 0.420000 0.120000
v -0.330000 0.480000 0.090000
v -0.510000 0.420000 0.090000
v -0.480000 0.000000 -0.120000
v -0.510000 0.060000 0.030000
v -0.480000 0.030000 -0.150000
v -0.330000 0.480000 0.060000
v -0.480000 0.450000 -0.150000
v -0.510000 0.420000 0.030000
v 0.480000 0.000000 0.120000
v 0.510000 0.060000 0.090000
v 0.450000 0.060000 0.120000
v 0.330000 0.480000 0.090000
v 0.450000 0.420000 0.120000
v 0.510000 0.420000 0.090000
v 0.480000 0.000000 -0.120000
v 0.480000 0.030000 -0.150000
v 0.510000 0.060000 0.030000
v 0.330000 0.480000 0.060000
v 0.510000 0.420000 0.030000
v 0.480000 0.450000 -0.150000
v -0.480000 0.030000 0.150000
v -0.480000 0.450000 0.150000
v 0.480000 0.450000 0.150000
v 0.480000 0.030000 0.150000
v -0.510000 0.030000 0.120000
v -0.510000 0.030000 -0.120000
v -0.510000 0.450000 0.120000
v -0.510000 0.450000 -0.120000
v 0.510000 0.450000 -0.120000
v 0.510000 0.030000 -0.120000
v 0.510000 0.030000 0.120000
v 0.510000 0.450000 0.120000
v -0.480000 0.240000 0.150000
v -0.510000 0.240000 0.120000
v -0.480000 0.240000 -0.150000
v -0.510000 0.240000 -0.120000
v 0.510000 0.240000 -0.120000
v 0.480000 0.240000 -0.150000
v 0.480000 0.240000 0.150000
v 0.510000 0.240000 0.120000
v -0.450000 0.240000 0.120000
v 0.450000 0.240000 0.120000
v -0.510000 0.240000 0.090000
v -0.510000 0.240000 0.030000
v 0.510000 0.240000 0.030000
v 0.510000 0.240000 0.090000
v -0.540000 0.420000 0.060000
v -0.540000 0.420000 0.120000
v -0.540000 0.360000 0.060000
v -0.540000 0.360000 0.120000
v -0.540000 0.060000 0.120000
v -0.540000 0.060000 0.060000
v -0.540000 0.120000 0.120000
v -0.540000 0.120000 0.060000
v 0.540000 0.420000 0.120000
v 0.540000 0.420000 0.060000
v 0.540000 0.360000 0.120000
v 0.540000 0.360000 0.060000
v 0.540000 0.120000 0.060000
v 0.540000 0.060000 0.060000
v 0.540000 0.060000 0.120000
v 0.540000 0.120000 0.120000
v 0.592652 0.382652 0.172652
v 0.600000 0.390000 0.167771
v 0.600000 0.390000 0.132229
v 0.592652 0.382652 0.112652
v 0.570000 0.360000 0.137652
v 0.577200 0.367200 0.157200
v 0.577200 0.367200 0.097200
v 0.570000 0.360000 0.102348
v 0.570000 0.120000 0.102348
v 0.577200 0.112800 0.097200
v 0.592652 0.097348 0.112652
v 0.600000 0.090000 0.132229
v 0.600000 0.090000 0.167771
v 0.592652 0.097348 0.172652
v 0.577200 0.112800 0.157200
v 0.570000 0.120000 0.137652
v -0.592652 0.382652 0.112652
v -0.600000 0.390000 0.132229
v -0.600000 0.390000 0.167771
v -0.592652 0.382652 0.172652
v -0.570000 0.360000 0.102348
v -0.577200 0.367200 0.097200
v -0.577200 0.367200 0.157200
v -0.570000 0.360000 0.137652
v -0.592652 0.097348 0.172652
v -0.600000 0.090000 0.167771
v -0.600000 0.090000 0.132229
v -0.592652 0.097348 0.112652
v -0.570000 0.120000 0.137652
v -0.577200 0.112800 0.157200
v -0.577200 0.112800 0.097200
v -0.570000 0.120000 0.102348
v -0.609000 0.240000 0.129000
v -0.600000 0.240000 0.132348
v -0.630000 0.240000 0.162229
v -0.621182 0.240000 0.141182
v -0.600000 0.240000 0.167652
v -0.609000 0.240000 0.189000
v -0.621182 0.240000 0.201182
v -0.630000 0.240000 0.197771
v 0.609000 0.240000 0.189000
v 0.600000 0.240000 0.167652
v 0.630000 0.240000 0.197771
v 0.621182 0.240000 0.201182
v 0.600000 0.240000 0.132348
v 0.609000 0.240000 0.129000
v 0.621182 0.240000 0.141182
v 0.630000 0.240000 0.162229
v -0.480000 0.480000 0.120000
v -0.480000 0.480000 -0.120000
v 0.480000 0.480000 -0.120000
v 0.480000 0.480000 0.120000
v -0.330000 0.540000 0.090000
v -0.330000 0.540000 0.060000
v 0.330000 0.540000 0.060000
v 0.330000 0.540000 0.090000
vn -0.0000 -0.0000 1.0000
vn -0.7071 -0.0000 0.7071
vn -0.7071 -0.0000 -0.7071
vn -0.0000 -0.0000 -1.0000
vn -0.5774 -0.5773 0.5774
vn -0.5774 0.5774 0.5774
vn -0.5774 -0.5773 -0.5774
vn -0.5774 0.5774 -0.5774
vn 0.5774 -0.5773 0.5774
vn 0.5774 0.5774 0.5774
vn 0.5774 -0.5773 -0.5774
vn 0.5774 0.5774 -0.5774
vn -0.7071 -0.7071 -0.0000
vn -0.7071 0.7071 -0.0000
vn -0.0000 -0.7071 -0.7071
vn -0.0000 0.7071 -0.7071
vn 0.7071 -0.0000 -0.7071
vn 0.7071 -0.7071 -0.0000
vn 0.7071 0.7071 -0.0000
vn 0.7071 -0.0000 0.7071
vn -0.0000 -0.7071 0.7071
vn -0.0000 0.7071 0.7071
vn -0.0000 -1.0000 -0.0000
vn -1.0000 -0.0000 -0.0000
vn 1.0000 -0.0000 -0.0000
vn 0.9701 0.2425 -0.0000
vn -0.9806 -0.1961 -0.0000
vn -0.9701 -0.2425 -0.0000
vn -0.0000 1.0000 -0.0000
vn -0.9701 0.2425 -0.0000
vn 0.9701 -0.2425 -0.0000
vn 0.9806 -0.1961 -0.0000
vn -0.9806 0.1961 -0.0000
vn 0.4472 -0.8944 -0.0000
vn -0.4472 -0.8944 -0.0000
vn -0.4472 0.8944 -0.0000
vn 0.4472 0.8944 -0.0000
vn -0.2165 0.6810 0.6995
vn 0.7712 0.4441 -0.4562
vn -0.2429 -0.8778 0.4128
vn 0.5149 -0.7757 -0.3648
vn 0.5149 0.7757 -0.3648
vn 0.7712 -0.4441 -0.4562
vn -0.2165 -0.6810 0.6995
vn -0.2429 0.8778 0.4128
vn -0.7712 0.4441 -0.4562
vn 0.2165 0.6810 0.6995
vn -0.5149 -0.7757 -0.3648
vn 0.2429 -0.8778 0.4128
vn 0.2165 -0.6810 0.6995
vn -0.7712 -0.4441 -0.4562
vn 0.2429 0.8778 0.4128
vn -0.5149 0.7757 -0.3648
vn -0.9134 0.1321 0.3851
vn 0.3492 -0.2504 0.9030
vn -0.3319 0.3060 -0.8923
vn 0.9171 -0.1066 -0.3842
vn 0.3319 0.3060 -0.8923
vn -0.9171 -0.1066 -0.3842
vn 0.9134 0.1321 0.3851
vn -0.3492 -0.2504 0.9030
vn 0.3319 -0.3060 -0.8923
vn -0.9171 0.1066 -0.3842
vn 0.9134 -0.1321 0.3851
vn -0.3492 0.2504 0.9030
vn -0.9134 -0.1321 0.3851
vn 0.3492 0.2504 0.9030
vn -0.3319 -0.3060 -0.8923
vn 0.9171 0.1066 -0.3842
vn 0.9806 0.1961 -0.0000
vt 0.932301 0.559374
vt 0.932301 0.691786
vt 0.270243 0.691786
vt 0.270243 0.559374
vt 0.323511 0.770632
vt 0.323511 0.876562
vt 0.305856 0.805942
vt 0.305856 0.770632
vt 0.461170 0.895628
vt 0.857135 0.895628
vt 0.857136 0.931625
vt 0.461170 0.931625
vt 0.323527 0.982491
vt 0.323527 0.876562
vt 0.305872 0.947181
vt 0.305872 0.982491
vt 0.248175 0.192187
vt 0.248175 0.346667
vt 0.954369 0.346667
vt 0.954369 0.192187
vt 0.248175 0.382825
vt 0.248175 0.404894
vt 0.226106 0.404894
vt 0.248175 0.713854
vt 0.248175 0.735923
vt 0.226106 0.713854
vt 0.248175 0.015638
vt 0.226106 0.037707
vt 0.248175 0.037707
vt 0.248175 0.368735
vt 0.226106 0.346667
vt 0.954369 0.382825
vt 0.976438 0.404894
vt 0.954369 0.404894
vt 0.954369 0.735923
vt 0.954369 0.713854
vt 0.976438 0.713854
vt 0.954369 0.015638
vt 0.954369 0.037707
vt 0.976438 0.037707
vt 0.954369 0.368735
vt 0.976438 0.346667
vt 0.381294 0.749692
vt 0.381294 0.890931
vt 0.363639 0.890931
vt 0.363639 0.749692
vt 0.248175 0.559374
vt 0.226106 0.559374
vt 0.226106 0.192187
vt 0.976438 0.192187
vt 0.946250 0.890931
vt 0.946250 0.749692
vt 0.963905 0.749692
vt 0.963905 0.890931
vt 0.954369 0.559374
vt 0.976438 0.559374
vt 0.932301 0.426963
vt 0.270243 0.426963
vt 0.179978 0.684775
vt 0.135841 0.684775
vt 0.025498 0.662707
vt 0.202046 0.662707
vt 0.179978 0.817187
vt 0.202046 0.817187
vt 0.135841 0.949598
vt 0.179978 0.949598
vt 0.202046 0.971667
vt 0.025498 0.971667
vt 0.135841 0.817187
vt 0.025498 0.817187
vt 0.323527 0.770632
vt 0.305872 0.770632
vt 0.305872 0.805942
vt 0.305856 0.947181
vt 0.252907 0.876562
vt 0.270562 0.788287
vt 0.270562 0.876562
vt 0.288217 0.805942
vt 0.283965 0.801705
vt 0.265250 0.876562
vt 0.258081 0.876562
vt 0.274871 0.792612
vt 0.252892 0.876562
vt 0.270547 0.964836
vt 0.323511 0.982491
vt 0.305856 0.982491
vt 0.288202 0.947181
vt 0.274871 0.960512
vt 0.283965 0.951418
vt 0.288202 0.805942
vt 0.270547 0.876562
vt 0.270562 0.964836
vt 0.274871 0.960511
vt 0.274887 0.960511
vt 0.258097 0.876562
vt 0.265266 0.876562
vt 0.283980 0.951418
vt 0.288217 0.947181
vt 0.274887 0.792612
vt 0.283980 0.801705
vt 0.270547 0.788287
vt 0.469569 0.873276
vt 0.469569 0.855621
vt 0.857976 0.855621
vt 0.857976 0.873276
vt 0.857136 0.949623
vt 0.461170 0.949623
vt 0.857136 0.985620
vt 0.461170 0.985620
vt 0.893132 0.931625
vt 0.893132 0.949623
vt 0.425173 0.949623
vt 0.425173 0.931625
s 0
usemtl 
f 46/1/1 17/2/1 4/3/1 45/4/1
f 18/5/2 50/6/2 61/7/2 59/8/2
f 5/9/1 16/10/1 122/11/1 119/12/1
f 12/13/3 48/14/3 53/15/3 51/16/3
f 39/17/4 11/18/4 24/19/4 42/20/4
f 1/21/5 25/22/5 29/23/5
f 26/24/6 115/25/6 31/26/6
f 7/27/7 30/28/7 9/29/7
f 116/30/8 11/18/8 32/31/8
f 13/32/9 35/33/9 28/34/9
f 118/35/10 27/36/10 36/37/10
f 19/38/11 20/39/11 34/40/11
f 117/41/12 33/42/12 24/19/12
f 7/43/13 1/44/13 29/45/13 30/46/13
f 37/47/2 26/24/2 31/26/2 38/48/2
f 115/44/14 116/43/14 32/46/14 31/45/14
f 39/17/3 9/29/3 30/28/3 40/49/3
f 19/38/15 7/27/15 9/29/15 20/39/15
f 116/30/16 117/41/16 24/19/16 11/18/16
f 41/50/17 34/40/17 20/39/17 42/20/17
f 13/51/18 19/52/18 34/53/18 35/54/18
f 117/52/19 118/51/19 36/54/19 33/53/19
f 43/55/20 28/34/20 35/33/20 44/56/20
f 1/21/21 13/32/21 28/34/21 25/22/21
f 118/35/22 115/25/22 26/24/22 27/36/22
f 7/43/23 19/52/23 13/51/23 1/44/23
f 45/4/20 4/3/20 26/24/20 37/47/20
f 46/1/2 15/57/2 28/34/2 43/55/2
f 15/57/22 2/58/22 25/22/22 28/34/22
f 4/3/21 17/2/21 27/36/21 26/24/21
f 3/59/24 8/60/24 30/61/24 29/62/24
f 47/63/24 3/59/24 29/62/24 38/64/24
f 12/65/24 6/66/24 31/67/24 32/68/24
f 48/69/24 12/65/24 32/68/24 40/70/24
f 49/69/25 21/60/25 34/61/25 41/70/25
f 21/60/25 14/59/25 35/62/25 34/61/25
f 18/66/25 23/65/25 33/68/25 36/67/25
f 50/63/25 18/66/25 36/67/25 44/64/25
f 14/59/25 50/63/25 44/64/25 35/62/25
f 23/65/25 49/69/25 41/70/25 33/68/25
f 8/60/24 48/69/24 40/70/24 30/61/24
f 6/66/24 47/63/24 38/64/24 31/67/24
f 17/2/2 46/1/2 43/55/2 27/36/2
f 2/58/20 45/4/20 37/47/20 25/22/20
f 27/36/20 43/55/20 44/56/20 36/37/20
f 33/42/17 41/50/17 42/20/17 24/19/17
f 11/18/3 39/17/3 40/49/3 32/31/3
f 25/22/2 37/47/2 38/48/2 29/23/2
f 9/29/4 39/17/4 42/20/4 20/39/4
f 48/14/3 8/71/3 56/72/3 58/73/3
f 49/6/26 50/6/26 66/74/26 63/74/26
f 15/57/1 46/1/1 45/4/1 2/58/1
f 101/75/27 93/76/27 92/76/27 106/75/27
f 48/14/28 47/14/28 54/15/28 53/15/28
f 47/14/20 6/13/20 52/16/20 54/15/20
f 6/13/29 12/13/29 51/16/29 52/16/29
f 100/77/26 103/77/26 95/78/26 98/78/26
f 3/71/20 47/14/20 57/73/20 55/72/20
f 47/14/30 48/14/30 58/73/30 57/73/30
f 8/71/23 3/71/23 55/72/23 56/72/23
f 72/79/2 107/80/2 110/81/2 67/82/2
f 23/5/29 18/5/29 59/8/29 60/8/29
f 49/6/17 23/5/17 60/8/17 62/7/17
f 50/6/31 49/6/31 62/7/31 61/7/31
f 109/83/32 79/84/32 78/84/32 114/83/32
f 50/6/2 14/85/2 65/86/2 66/74/2
f 14/85/23 21/85/23 64/86/23 65/86/23
f 21/85/17 49/6/17 63/74/17 64/86/17
f 63/74/29 66/74/29 82/87/29 75/87/29
f 113/81/17 77/88/17 76/89/17 112/80/17
f 70/82/17 113/81/17 112/80/17 73/79/17
f 71/90/28 74/90/28 111/91/28 108/91/28
f 84/92/33 101/75/33 106/75/33 85/92/33
f 66/74/2 65/86/2 80/93/2 81/89/2
f 107/80/2 81/89/2 80/93/2 110/81/2
f 108/91/30 111/91/30 75/87/30 82/87/30
f 65/86/34 64/86/34 78/84/34 79/84/34
f 86/94/20 105/95/20 104/96/20 89/97/20
f 87/98/31 90/98/31 103/77/31 100/77/31
f 88/97/3 99/96/3 102/95/3 83/94/3
f 64/86/17 63/74/17 76/89/17 77/88/17
f 105/95/20 91/99/20 96/100/20 104/96/20
f 99/96/3 97/100/3 94/99/3 102/95/3
f 58/73/3 56/72/3 94/99/3 97/100/3
f 57/73/29 58/73/29 98/78/29 95/78/29
f 55/72/20 57/73/20 96/100/20 91/99/20
f 56/72/35 55/72/35 92/76/35 93/76/35
f 52/16/36 51/16/36 84/92/36 85/92/36
f 54/15/20 52/16/20 86/94/20 89/97/20
f 53/15/23 54/15/23 90/98/23 87/98/23
f 51/16/3 53/15/3 88/97/3 83/94/3
f 62/7/17 60/8/17 70/82/17 73/79/17
f 60/8/37 59/8/37 68/101/37 69/101/37
f 59/8/2 61/7/2 72/79/2 67/82/2
f 61/7/23 62/7/23 74/90/23 71/90/23
f 67/82/38 68/101/38 59/8/38
f 69/101/39 70/82/39 60/8/39
f 71/90/40 72/79/40 61/7/40
f 73/79/41 74/90/41 62/7/41
f 75/87/42 76/89/42 63/74/42
f 77/88/43 78/84/43 64/86/43
f 79/84/44 80/93/44 65/86/44
f 81/89/45 82/87/45 66/74/45
f 83/94/46 84/92/46 51/16/46
f 85/92/47 86/94/47 52/16/47
f 87/98/48 88/97/48 53/15/48
f 89/97/49 90/98/49 54/15/49
f 91/99/50 92/76/50 55/72/50
f 93/76/51 94/99/51 56/72/51
f 95/78/52 96/100/52 57/73/52
f 97/100/53 98/78/53 58/73/53
f 108/91/54 82/87/54 81/89/54 107/80/54
f 110/81/55 80/93/55 79/84/55 109/83/55
f 112/80/56 76/89/56 75/87/56 111/91/56
f 114/83/57 78/84/57 77/88/57 113/81/57
f 100/77/58 98/78/58 97/100/58 99/96/58
f 102/95/59 94/99/59 93/76/59 101/75/59
f 104/96/60 96/100/60 95/78/60 103/77/60
f 106/75/61 92/76/61 91/99/61 105/95/61
f 87/98/62 100/77/62 99/96/62 88/97/62
f 83/94/63 102/95/63 101/75/63 84/92/63
f 89/97/64 104/96/64 103/77/64 90/98/64
f 85/92/65 106/75/65 105/95/65 86/94/65
f 71/90/66 108/91/66 107/80/66 72/79/66
f 67/82/67 110/81/67 109/83/67 68/101/67
f 73/79/68 112/80/68 111/91/68 74/90/68
f 69/101/69 114/83/69 113/81/69 70/82/69
f 68/101/70 109/83/70 114/83/70 69/101/70
f 5/102/29 10/103/29 116/43/29 115/44/29
f 10/103/29 22/104/29 117/52/29 116/43/29
f 22/104/29 16/105/29 118/51/29 117/52/29
f 16/105/29 5/102/29 115/44/29 118/51/29
f 121/106/29 120/107/29 119/12/29 122/11/29
f 22/108/4 10/109/4 120/107/4 121/106/4
f 16/110/25 22/111/25 121/106/25 122/11/25
f 10/112/24 5/113/24 119/12/24 120/107/24
