# Blender 4.1.0
# www.blender.org
mtllib VendingMachine.mtl
o VendingMachine
v -1.100000 0.000000 0.000000
v -1.100000 0.000000 -1.000000
v -1.100000 3.000000 -1.000000
v 1.100000 0.000000 0.000000
v 1.100000 0.000000 -1.000000
v 1.100000 3.000000 -1.000000
v 1.000000 2.779307 0.004020
v 0.962000 2.827500 0.004020
v 1.000000 2.021083 0.004020
v 1.000000 2.780574 0.103624
v 0.050000 2.021083 0.004020
v 0.050000 2.779307 0.004020
v 0.088000 2.827500 0.004020
v 0.088000 1.971162 0.004020
v 0.962000 1.971162 0.004020
v 0.050000 2.780574 0.103624
v 0.962000 1.971162 0.061761
v 0.962000 2.828838 0.156761
v 0.088000 2.828838 0.156761
v 0.088000 1.971162 0.061761
v 0.881250 2.091152 0.046377
v 0.905000 2.781627 0.151532
v 0.145000 2.781627 0.151532
v 0.168750 2.091152 0.046377
v 0.168750 2.459434 0.087170
v 0.881250 2.459434 0.087170
v 0.145000 2.525937 0.123210
v 0.145000 2.018373 0.066990
v 0.905000 2.018373 0.066990
v 0.905000 2.525937 0.123210
v 0.168750 2.390381 0.079521
v 0.168750 2.275293 0.066773
v 0.168750 2.160205 0.054026
v 0.808219 2.054323 0.042298
v 0.525000 2.045117 0.041278
v 0.241781 2.054323 0.042298
v 0.241781 2.496262 0.091249
v 0.525000 2.505469 0.092269
v 0.808219 2.496262 0.091249
v 0.881250 2.160205 0.054026
v 0.881250 2.275293 0.066773
v 0.881250 2.390381 0.079521
v 0.818906 2.112601 0.063090
v 0.845625 2.274247 0.076216
v 0.818906 2.434847 0.098784
v 0.525000 2.080899 0.054800
v 0.525000 2.272155 0.095100
v 0.525000 2.467595 0.097632
v 0.231094 2.112601 0.063090
v 0.204375 2.274247 0.076216
v 0.231094 2.434847 0.098784
v 1.000000 0.000000 0.000000
v -1.000000 0.000000 0.000000
v -0.050000 0.000000 0.000000
v 0.050000 0.000000 0.000000
v 1.000000 1.450000 0.000000
v -1.000000 1.450000 0.000000
v -0.050000 1.450000 0.000000
v 0.050000 1.450000 0.000000
v -1.000000 1.550000 0.000000
v -0.050000 1.550000 0.000000
v 0.050000 1.550000 0.030000
v 1.000000 2.900000 0.000000
v -1.000000 2.900000 0.000000
v -0.050000 2.900000 0.000000
v 0.050000 2.900000 0.000000
v 0.050000 1.900000 0.000000
v 1.000000 1.900000 0.000000
v 0.980000 1.750000 -0.100000
v 1.000000 1.550000 0.030000
v 0.070000 1.750000 -0.100000
v -1.100000 2.900000 0.050000
v -1.100000 3.000000 0.050000
v 1.100000 0.000000 0.050000
v 1.000000 0.000000 0.050000
v -1.000000 3.000000 0.050000
v 1.100000 3.000000 0.050000
v 1.000000 3.000000 0.050000
v -0.050000 3.000000 0.050000
v -1.100000 0.000000 0.050000
v -1.000000 0.000000 0.050000
v 0.050000 3.000000 0.050000
v -0.050000 0.000000 0.050000
v 0.050000 0.000000 0.050000
v 1.100000 1.450000 0.050000
v 1.000000 1.450000 0.050000
v -1.000000 1.450000 0.050000
v -0.050000 1.450000 0.050000
v 0.050000 1.450000 0.050000
v -1.100000 1.450000 0.050000
v 1.100000 1.550000 0.050000
v 1.000000 1.550000 0.050000
v -1.000000 1.550000 0.050000
v -0.050000 1.550000 0.050000
v 0.050000 1.550000 0.050000
v -1.100000 1.550000 0.050000
v 1.100000 2.900000 0.050000
v 1.000000 1.900000 0.050000
v -1.000000 2.900000 0.050000
v -0.050000 2.900000 0.050000
v 0.050000 1.900000 0.050000
v 1.000000 2.900000 0.050000
v 0.050000 2.900000 0.050000
v 1.100000 3.000000 0.000000
v -1.100000 3.000000 0.000000
v 0.050000 3.000000 0.000000
v -0.050000 3.000000 0.000000
v -1.100000 1.550000 -1.000000
v 1.100000 1.550000 -1.000000
v -1.100000 1.550000 0.000000
v 1.100000 1.550000 0.000000
v -1.100000 1.450000 -1.000000
v 1.100000 1.450000 -1.000000
v 1.100000 1.450000 0.000000
v -1.100000 1.450000 0.000000
v -0.050000 0.000000 -1.000000
v -0.050000 3.000000 -1.000000
v -0.050000 1.550000 -1.000000
v -0.050000 1.450000 -1.000000
v 0.050000 3.000000 -1.000000
v 0.050000 0.000000 -1.000000
v 0.050000 1.550000 -1.000000
v 0.050000 1.450000 -1.000000
v -1.000000 0.000000 -1.000000
v -1.000000 3.000000 0.000000
v -1.000000 1.550000 -1.000000
v -1.000000 1.450000 -1.000000
v -1.000000 3.000000 -1.000000
v 1.000000 3.000000 -1.000000
v 1.000000 3.000000 0.000000
v 1.000000 0.000000 -1.000000
v 1.000000 1.550000 -1.000000
v 1.000000 1.450000 -1.000000
v -1.100000 2.900000 0.000000
v -1.100000 2.900000 -1.000000
v 1.100000 2.900000 -1.000000
v 1.100000 2.900000 0.000000
v -0.050000 2.900000 -1.000000
v 0.050000 2.900000 -1.000000
v -1.000000 2.900000 -1.000000
v 1.000000 2.900000 -1.000000
v -1.000000 0.000000 -1.050000
v -1.100000 0.000000 -1.050000
v 1.000000 3.000000 -1.050000
v 1.100000 3.000000 -1.050000
v -1.100000 1.450000 -1.050000
v 1.100000 1.450000 -1.050000
v 1.100000 0.000000 -1.050000
v -1.100000 2.900000 -1.050000
v -1.100000 1.550000 -1.050000
v 1.100000 2.900000 -1.050000
v 1.100000 1.550000 -1.050000
v -1.000000 1.550000 -1.050000
v -1.000000 1.450000 -1.050000
v 0.050000 0.000000 -1.050000
v -0.050000 0.000000 -1.050000
v -1.000000 3.000000 -1.050000
v -0.050000 3.000000 -1.050000
v 0.050000 1.550000 -1.050000
v -0.050000 1.550000 -1.050000
v 0.050000 1.450000 -1.050000
v -0.050000 1.450000 -1.050000
v -0.050000 2.900000 -1.050000
v 0.050000 3.000000 -1.050000
v 0.050000 2.900000 -1.050000
v -1.100000 3.000000 -1.050000
v -1.000000 2.900000 -1.050000
v 1.000000 0.000000 -1.050000
v 1.000000 1.550000 -1.050000
v 1.000000 1.450000 -1.050000
v 1.000000 2.900000 -1.050000
v 0.468557 2.781627 0.151532
v 0.468557 2.525937 0.123210
v 0.207371 2.525937 0.123210
v 0.207371 2.781627 0.151532
v 0.240000 2.720000 0.177649
v 0.440000 2.720000 0.177649
v 0.240000 2.580000 0.162001
v 0.440000 2.580000 0.162001
v 0.207371 2.752492 0.148304
v 0.468557 2.752492 0.148304
v 0.207371 2.551580 0.126051
v 0.468557 2.551580 0.126051
vn -1.0000 -0.0000 -0.0000
vn -0.0000 -0.0000 1.0000
vn 1.0000 -0.0000 -0.0000
vn -0.0000 -1.0000 -0.0000
vn 0.7957 -0.6057 -0.0000
vn -0.0000 1.0000 -0.0088
vn -0.7957 -0.6057 -0.0000
vn 0.7837 0.6211 -0.0064
vn -0.0000 -0.1101 0.9939
vn -0.7837 0.6211 -0.0064
vn 0.8234 -0.0678 0.5634
vn -0.1058 -0.0009 0.9944
vn -0.0682 0.0899 0.9936
vn -0.1779 0.0137 0.9840
vn -0.2206 -0.0664 0.9731
vn 0.7682 -0.0705 0.6363
vn -0.0000 0.5503 0.8350
vn -0.0000 -0.7197 0.6943
vn -0.7682 -0.0705 0.6363
vn 0.2206 -0.0664 0.9731
vn 0.1779 0.0137 0.9840
vn 0.0682 0.0899 0.9936
vn 0.1058 -0.0009 0.9944
vn -0.0000 0.1298 0.9915
vn -0.0000 0.0379 0.9993
vn 0.1779 -0.2287 0.9571
vn 0.2206 -0.1482 0.9640
vn 0.1058 -0.2167 0.9705
vn 0.0682 -0.3051 0.9499
vn 0.2384 -0.1069 0.9653
vn 0.1440 -0.1089 0.9836
vn -0.0000 -0.2556 0.9668
vn -0.0000 -0.3436 0.9391
vn -0.1058 -0.2167 0.9705
vn -0.0682 -0.3051 0.9499
vn -0.1440 -0.1089 0.9836
vn -0.2206 -0.1482 0.9640
vn -0.1779 -0.2287 0.9571
vn -0.2384 -0.1069 0.9653
vn -0.8234 -0.0678 0.5634
vn 0.9992 0.0035 0.0404
vn 0.9995 0.0027 0.0319
vn -0.9995 0.0027 0.0319
vn -0.0000 -0.5547 0.8321
vn -0.0000 0.5450 0.8384
vn -0.9992 0.0035 0.0404
vn -0.9845 0.0150 0.1745
vn 0.9845 0.0150 0.1745
vn -0.0000 1.0000 -0.0000
vn -0.0000 -0.0000 -1.0000
vn -0.0000 -0.1111 0.9938
vn -0.0000 0.6703 0.7421
vn -0.7076 -0.0781 0.7023
vn 0.7529 -0.0727 0.6541
vn -0.0000 -0.7845 0.6202
vt 0.173383 0.235599
vt 0.173391 0.005176
vt 0.180354 0.005176
vt 0.180532 0.242799
vt 0.349804 0.005176
vt 0.350986 0.235599
vt 0.201613 0.235599
vt 0.201613 0.005176
vt 0.194557 0.242799
vt 0.194557 0.005176
vt 0.832031 0.351082
vt 0.832031 0.336313
vt 0.972656 0.336313
vt 0.972656 0.350365
vt 0.697367 0.979914
vt 0.715156 0.978945
vt 0.715156 0.996557
vt 0.697367 0.996557
vt 0.600668 0.337111
vt 0.614648 0.335462
vt 0.617125 0.342690
vt 0.437405 0.456704
vt 0.413322 0.453673
vt 0.433657 0.342690
vt 0.453959 0.487086
vt 0.453959 0.463742
vt 0.596441 0.463742
vt 0.596441 0.487086
vt 0.436133 0.335462
vt 0.450114 0.337111
vt 0.637459 0.453673
vt 0.637614 0.460807
vt 0.600668 0.465366
vt 0.613377 0.456704
vt 0.587536 0.339197
vt 0.596822 0.331971
vt 0.596822 0.463531
vt 0.587530 0.456290
vt 0.587535 0.417064
vt 0.450114 0.465366
vt 0.413168 0.460807
vt 0.454340 0.331971
vt 0.454340 0.325414
vt 0.596822 0.325414
vt 0.463632 0.456290
vt 0.454340 0.463531
vt 0.463629 0.339214
vt 0.463635 0.417075
vt 0.473800 0.456290
vt 0.516379 0.456290
vt 0.477667 0.403008
vt 0.479410 0.412340
vt 0.467488 0.406693
vt 0.467504 0.396108
vt 0.516380 0.451821
vt 0.516383 0.421003
vt 0.516383 0.417070
vt 0.467504 0.350214
vt 0.467504 0.360815
vt 0.467504 0.378453
vt 0.583662 0.350197
vt 0.571752 0.344550
vt 0.525581 0.343138
vt 0.479410 0.344550
vt 0.583662 0.406698
vt 0.473803 0.417074
vt 0.525581 0.413753
vt 0.571752 0.412340
vt 0.583662 0.396098
vt 0.583654 0.378446
vt 0.583662 0.360785
vt 0.573495 0.403008
vt 0.525581 0.408002
vt 0.573495 0.353578
vt 0.577850 0.378344
vt 0.525581 0.348686
vt 0.525581 0.378141
vt 0.477667 0.353578
vt 0.473312 0.378344
vt 0.200082 0.741194
vt 0.200085 0.758806
vt 0.370974 0.005218
vt 0.370974 0.242799
vt 0.356861 0.242799
vt 0.356861 0.005218
vt 0.972656 0.647310
vt 0.972656 0.631634
vt 0.980469 0.631634
vt 0.980469 0.647310
vt 0.203125 0.473050
vt 0.347656 0.473050
vt 0.355469 0.480469
vt 0.195312 0.480469
vt 0.025200 0.235599
vt 0.025192 0.005176
vt 0.203125 0.259766
vt 0.203125 0.315430
vt 0.195312 0.315430
vt 0.195312 0.259766
vt 0.018050 0.242799
vt 0.018228 0.005176
vt 0.347656 0.472656
vt 0.347656 0.315430
vt 0.355469 0.315430
vt 0.173387 0.473222
vt 0.173387 0.264401
vt 0.180443 0.257201
vt 0.180443 0.480423
vt 0.203125 0.472656
vt 0.024115 0.979914
vt 0.024228 0.996557
vt 0.003594 0.996557
vt 0.003594 0.978945
vt 0.025196 0.264401
vt 0.025196 0.473222
vt 0.018139 0.480423
vt 0.018139 0.257201
vt 0.203125 0.315430
vt 0.205078 0.294922
vt 0.345703 0.294922
vt 0.348633 0.259766
vt 0.202148 0.260280
vt 0.347656 0.259766
vt 0.018139 0.494824
vt 0.004026 0.494824
vt 0.004026 0.480423
vt 0.018139 0.005218
vt 0.018139 0.242799
vt 0.004026 0.242799
vt 0.004026 0.005218
vt 0.370974 0.480423
vt 0.370974 0.494824
vt 0.356861 0.494824
vt 0.356861 0.480423
vt 0.180443 0.494824
vt 0.194557 0.494824
vt 0.194557 0.480423
vt 0.180443 0.242799
vt 0.180443 0.005218
vt 0.194557 0.005218
vt 0.356861 0.005176
vt 0.194557 0.257201
vt 0.194557 0.315275
vt 0.356861 0.257201
vt 0.370974 0.257201
vt 0.004026 0.257201
vt 0.356861 0.315275
vt 0.980469 0.336313
vt 0.980469 0.350365
vt 0.203169 0.260108
vt 0.203169 0.257298
vt 0.347656 0.257298
vt 0.972656 0.498873
vt 0.972656 0.483174
vt 0.980469 0.483174
vt 0.980469 0.498873
vt 0.355469 0.259766
vt 0.832696 0.679312
vt 0.832696 0.663687
vt 0.972103 0.663687
vt 0.972103 0.679312
vt 0.979804 0.679312
vt 0.979804 0.663687
vt 0.972103 0.827810
vt 0.972103 0.812171
vt 0.979804 0.812171
vt 0.979804 0.827823
vt 0.971881 0.960562
vt 0.979804 0.960562
vt 0.537266 0.979914
vt 0.537266 0.996557
vt 0.183379 0.979914
vt 0.183382 0.996557
vt 0.183339 0.741194
vt 0.183342 0.758806
vt 0.022620 0.758806
vt 0.022509 0.741194
vt 0.537266 0.741194
vt 0.697367 0.741194
vt 0.697367 0.758806
vt 0.537266 0.758806
vt 0.832696 0.812078
vt 0.832696 0.827675
vt 0.003594 0.758806
vt 0.003594 0.741194
vt 0.537266 0.503444
vt 0.697367 0.503444
vt 0.183299 0.503444
vt 0.021383 0.503444
vt 0.368250 0.503444
vt 0.368269 0.741194
vt 0.003594 0.503444
vt 0.715156 0.741194
vt 0.715156 0.758806
vt 0.715156 0.503444
vt 0.519477 0.758806
vt 0.368270 0.758806
vt 0.519476 0.741194
vt 0.519478 0.979914
vt 0.368288 0.979914
vt 0.519475 0.503444
vt 0.832696 0.960562
vt 0.832031 0.631736
vt 0.832031 0.498873
vt 0.832031 0.483321
vt 0.832696 0.976187
vt 0.971915 0.976187
vt 0.350481 0.758806
vt 0.350480 0.741194
vt 0.350501 0.979914
vt 0.200120 0.979914
vt 0.200044 0.503444
vt 0.350459 0.503444
vt 0.979804 0.976187
vt 0.832031 0.647310
vt 0.350502 0.996557
vt 0.200123 0.996557
vt 0.519478 0.996557
vt 0.368289 0.996557
vt 0.473803 0.421007
vt 0.473800 0.451821
vt 0.478693 0.425580
vt 0.511492 0.425577
vt 0.511490 0.447247
vt 0.478691 0.447248
s 1
usemtl Screen
f 51/51/12 37/52/13 25/53/14 31/54/15
f 42/69/20 26/65/21 39/68/22 45/72/23
f 45/72/23 39/68/22 38/67/24 48/73/25
f 48/73/25 38/67/24 37/52/13 51/51/12
f 21/61/26 40/71/27 43/74/28 34/62/29
f 40/71/27 41/70/30 44/75/31 43/74/28
f 41/70/30 42/69/20 45/72/23 44/75/31
f 34/62/29 43/74/28 46/76/32 35/63/33
f 43/74/28 44/75/31 47/77/9 46/76/32
f 44/75/31 45/72/23 48/73/25 47/77/9
f 35/63/33 46/76/32 49/78/34 36/64/35
f 46/76/32 47/77/9 50/79/36 49/78/34
f 47/77/9 48/73/25 51/51/12 50/79/36
f 36/64/35 49/78/34 33/59/37 24/58/38
f 49/78/34 50/79/36 32/60/39 33/59/37
f 50/79/36 51/51/12 31/54/15 32/60/39
usemtl VendingMachine
f 58/1/1 54/2/1 83/3/1 88/4/1
f 52/5/2 56/6/2 59/7/2 55/8/2
f 55/8/3 59/7/3 89/9/3 84/10/3
f 131/11/4 5/12/4 4/13/4 52/14/4
f 134/15/1 72/16/1 73/17/1 105/18/1
f 17/19/5 15/20/5 9/21/5
f 16/22/1 12/23/1 11/24/1
f 13/25/6 19/26/6 18/27/6 8/28/6
f 11/24/7 14/29/7 20/30/7
f 7/31/8 8/32/8 18/33/8 10/34/8
f 29/35/9 17/36/9 18/37/9 22/38/9 30/39/9
f 16/22/10 19/40/10 13/41/10 12/23/10
f 20/42/4 14/43/4 15/44/4 17/36/4
f 10/34/11 18/33/11 17/19/11 9/21/11
f 9/21/3 7/31/3 10/34/3
f 23/45/9 19/46/9 20/42/9 28/47/9 27/48/9
f 22/38/9 18/37/9 19/46/9 23/45/9 175/49/9 172/50/9
f 28/47/9 20/42/9 17/36/9 29/35/9
f 30/39/9 22/38/9 172/50/9 181/55/9 183/56/9 173/57/9
f 25/53/16 27/48/16 28/47/16 24/58/16 33/59/16 32/60/16 31/54/16
f 24/58/17 28/47/17 29/35/17 21/61/17 34/62/17 35/63/17 36/64/17
f 26/65/18 30/39/18 173/57/18 174/66/18 27/48/18 25/53/18 37/52/18 38/67/18 39/68/18
f 21/61/19 29/35/19 30/39/19 26/65/19 42/69/19 41/70/19 40/71/19
f 19/40/40 16/22/40 11/24/40 20/30/40
f 133/80/1 132/81/1 169/81/1 170/80/1
f 74/82/2 85/83/2 86/84/2 75/85/2
f 1/86/4 53/87/4 81/88/4 80/89/4
f 66/90/4 63/91/4 102/92/4 103/93/4
f 54/2/2 58/1/2 57/94/2 53/95/2
f 62/96/41 67/97/42 101/98/3 95/99/3
f 53/95/3 57/94/3 87/100/3 81/101/3
f 63/102/1 68/103/43 98/104/1 102/92/1
f 65/105/1 61/106/1 94/107/1 100/108/1
f 67/97/42 66/109/3 103/93/3 101/98/3
f 137/110/3 104/111/3 77/112/3 97/113/3
f 60/114/3 64/115/3 99/116/3 93/117/3
f 68/103/44 67/118/44 71/119/44 69/120/44
f 61/106/2 65/105/2 64/115/2 60/114/2
f 57/94/4 58/1/4 88/4/4 87/100/4
f 67/118/2 68/103/2 63/102/2 66/109/2
f 70/121/45 69/120/45 71/119/45 62/122/45
f 70/123/46 68/103/43 69/120/47
f 67/97/42 62/96/41 71/119/48
f 99/116/2 76/124/2 73/125/2 72/126/2
f 81/127/2 87/128/2 90/129/2 80/130/2
f 97/131/2 77/132/2 78/133/2 102/134/2
f 100/108/2 79/135/2 76/124/2 99/116/2
f 102/134/2 78/133/2 82/136/2 103/137/2
f 89/9/2 88/138/2 83/139/2 84/140/2
f 52/5/1 75/141/1 86/84/1 56/6/1
f 95/142/2 94/107/2 88/138/2 89/9/2
f 103/137/2 100/108/2 94/107/2 95/142/2 101/143/2
f 86/84/2 92/144/2 95/142/2 89/9/2
f 88/138/2 94/107/2 93/117/2 87/128/2
f 85/83/2 91/145/2 92/144/2 86/84/2
f 87/128/2 93/117/2 96/146/2 90/129/2
f 82/136/2 79/135/2 100/108/2 103/137/2
f 91/145/2 97/131/2 102/134/2 98/147/2 92/144/2
f 93/117/2 99/116/2 72/126/2 96/146/2
f 64/115/4 65/105/4 100/108/4 99/116/4
f 52/14/4 4/13/4 74/148/4 75/149/4
f 70/123/49 62/150/49 95/151/49 92/152/49
f 54/153/4 55/154/4 84/155/4 83/156/4
f 61/106/49 60/114/49 93/117/49 94/107/49
f 59/7/4 56/6/4 86/84/4 89/9/4
f 68/103/43 70/123/46 92/157/1 98/104/1
f 128/158/49 3/159/49 105/160/49 125/161/49
f 76/162/49 125/161/49 105/160/49 73/163/49
f 106/164/49 107/165/49 79/166/49 82/167/49
f 130/168/49 106/164/49 82/167/49 78/169/49
f 135/170/1 134/15/1 105/18/1 3/171/1
f 136/172/3 6/173/3 104/111/3 137/110/3
f 113/174/3 109/175/3 111/176/3 114/177/3
f 112/178/1 115/179/1 110/180/1 108/181/1
f 117/182/49 120/183/49 164/183/49 158/182/49
f 114/177/3 111/176/3 91/184/3 85/185/3
f 2/186/1 1/187/1 115/179/1 112/178/1
f 5/188/3 113/174/3 114/177/3 4/189/3
f 116/190/1 119/191/1 162/191/1 156/190/1
f 4/189/3 114/177/3 85/185/3 74/192/3
f 115/179/1 90/193/1 96/194/1 110/180/1
f 1/187/1 80/195/1 90/193/1 115/179/1
f 126/196/50 118/197/50 119/191/50 127/198/50
f 140/199/50 138/200/50 118/197/50 126/196/50
f 127/198/50 119/191/50 116/190/50 124/201/50
f 113/174/3 5/188/3 148/188/3 147/174/3
f 118/197/1 138/200/1 163/200/1 160/197/1
f 109/175/3 113/174/3 147/174/3 152/175/3
f 129/202/49 120/183/49 106/164/49 130/168/49
f 120/183/49 117/182/49 107/165/49 106/164/49
f 124/203/4 116/204/4 54/153/4 53/87/4
f 116/204/4 121/205/4 55/154/4 54/153/4
f 2/186/1 112/178/1 146/178/1 143/186/1
f 119/191/1 118/197/1 160/197/1 162/191/1
f 112/178/1 108/181/1 150/181/1 146/178/1
f 117/182/49 128/158/49 125/161/49 107/165/49
f 79/166/49 107/165/49 125/161/49 76/162/49
f 6/206/49 129/202/49 130/168/49 104/207/49
f 122/208/50 132/81/50 133/80/50 123/209/50
f 139/210/50 141/211/50 132/81/50 122/208/50
f 123/209/50 133/80/50 131/212/50 121/213/50
f 104/207/49 130/168/49 78/169/49 77/214/49
f 121/205/4 131/11/4 52/14/4 55/154/4
f 2/215/4 124/203/4 53/87/4 1/86/4
f 5/12/4 131/11/4 168/11/4 148/12/4
f 6/173/3 136/172/3 151/172/3 145/173/3
f 120/183/49 129/202/49 144/202/49 164/183/49
f 128/158/49 117/182/49 158/182/49 157/158/49
f 135/170/1 3/171/1 166/171/1 149/170/1
f 109/175/3 136/172/3 137/110/3 111/176/3
f 108/181/1 110/180/1 134/15/1 135/170/1
f 111/176/3 137/110/3 97/113/3 91/184/3
f 110/180/1 96/194/1 72/16/1 134/15/1
f 170/80/50 147/174/50 148/188/50 168/212/50
f 171/211/50 151/172/50 152/175/50 169/81/50
f 169/81/50 152/175/50 147/174/50 170/80/50
f 160/197/50 159/208/50 161/209/50 162/191/50
f 163/200/50 165/210/50 159/208/50 160/197/50
f 162/191/50 161/209/50 155/213/50 156/190/50
f 146/178/50 154/198/50 142/201/50 143/186/50
f 149/170/50 167/199/50 153/196/50 150/181/50
f 150/181/50 153/196/50 154/198/50 146/178/50
f 164/216/50 144/217/50 171/211/50 165/210/50
f 166/171/50 157/218/50 167/199/50 149/170/50
f 158/219/50 164/216/50 165/210/50 163/200/50
f 157/218/50 158/219/50 163/200/50 167/199/50
f 144/217/50 145/173/50 151/172/50 171/211/50
f 141/211/4 139/210/4 165/210/4 171/211/4
f 132/81/1 141/211/1 171/211/1 169/81/1
f 3/159/49 128/158/49 157/158/49 166/159/49
f 108/181/1 135/170/1 149/170/1 150/181/1
f 124/203/4 2/215/4 143/215/4 142/203/4
f 131/212/1 133/80/1 170/80/1 168/212/1
f 127/198/3 124/201/3 142/201/3 154/198/3
f 136/172/3 109/175/3 152/175/3 151/172/3
f 129/202/49 6/206/49 145/206/49 144/202/49
f 140/199/3 126/196/3 153/196/3 167/199/3
f 138/200/4 140/199/4 167/199/4 163/200/4
f 122/208/3 123/209/3 161/209/3 159/208/3
f 126/196/3 127/198/3 154/198/3 153/196/3
f 139/210/3 122/208/3 159/208/3 165/210/3
f 123/209/3 121/213/3 155/213/3 161/209/3
f 121/205/4 116/204/4 156/204/4 155/205/4
f 173/57/9 183/56/9 182/220/9 174/66/9
f 174/66/9 182/220/9 180/221/9 175/49/9 23/45/9 27/48/9
f 180/221/9 181/55/9 172/50/9 175/49/9
f 178/222/51 179/223/51 177/224/51 176/225/51
f 176/225/52 177/224/52 181/55/52 180/221/52
f 178/222/53 176/225/53 180/221/53 182/220/53
f 177/224/54 179/223/54 183/56/54 181/55/54
f 179/223/55 178/222/55 182/220/55 183/56/55
