# Blender 5.1.1
# www.blender.org
mtllib whimsigoth_sun.mtl
o star
v -0.191695 1.052871 0.070560
v 0.227239 1.045741 0.070560
v -0.191695 1.052871 -0.070560
v 0.227240 1.045741 -0.070560
v -0.104756 0.677789 0.137530
v -0.136402 1.303921 0.063504
v 0.146794 1.302286 0.063504
v -0.136402 1.303921 -0.063504
v 0.146794 1.302286 -0.063504
v -0.209329 1.504772 0.044453
v 0.020684 1.529592 0.044453
v -0.209329 1.504772 -0.044453
v 0.020684 1.529592 -0.044453
v -0.046062 1.772608 -0.000000
v -0.579949 0.899472 0.070560
v -0.579949 0.899472 -0.070560
v -0.624897 1.152588 0.063504
v -0.362605 1.259383 0.063504
v -0.624897 1.152588 -0.063504
v -0.362604 1.259383 -0.063504
v -0.769105 1.310264 0.044453
v -0.566070 1.421151 0.044452
v -0.769105 1.310264 -0.044453
v -0.566070 1.421151 -0.044453
v -0.720713 1.620195 -0.000000
v -0.880000 0.609226 0.070560
v -0.880000 0.609226 -0.070560
v -0.553452 0.405257 0.137530
v -1.018358 0.825904 0.063504
v -0.816848 1.024892 0.063504
v -1.018358 0.825904 -0.063504
v -0.816848 1.024892 -0.063504
v -1.211909 0.916425 0.044453
v -1.066711 1.096518 0.044453
v -1.211909 0.916425 -0.044453
v -1.066712 1.096518 -0.044453
v -1.285763 1.221303 -0.000000
v -1.046209 0.226278 0.070560
v -1.046209 0.226278 -0.070560
v -0.666490 0.162670 0.137530
v -1.256937 0.373556 0.063504
v -1.146848 0.634483 0.063504
v -1.256937 0.373555 -0.063504
v -1.146848 0.634483 -0.063504
v -1.470390 0.383155 0.044453
v -1.405096 0.605079 0.044453
v -1.470390 0.383155 -0.044453
v -1.405096 0.605078 -0.044453
v -1.655262 0.636600 -0.000000
v -1.053295 -0.191124 0.070560
v -1.053295 -0.191124 -0.070560
v -0.678114 -0.104709 0.137530
v -1.304343 -0.135656 0.063504
v -1.302412 0.147539 0.063504
v -1.304343 -0.135656 -0.063504
v -1.302412 0.147539 -0.063504
v -1.505230 -0.208434 0.044452
v -1.529760 0.021584 0.044452
v -1.505229 -0.208434 -0.044453
v -1.529760 0.021584 -0.044453
v -1.773002 -0.044984 -0.000000
v -0.900180 -0.579494 0.070560
v -0.900180 -0.579494 -0.070560
v -0.586554 -0.356192 0.137530
v -1.153360 -0.624279 0.063504
v -1.259882 -0.361874 0.063504
v -1.153360 -0.624279 -0.063504
v -1.259882 -0.361874 -0.063504
v -1.311128 -0.768362 0.044452
v -1.421748 -0.565211 0.044452
v -1.311127 -0.768362 -0.044453
v -1.421748 -0.565211 -0.044453
v -1.621070 -0.719777 -0.000001
v -0.610151 -0.879760 0.070560
v -0.610151 -0.879760 -0.070560
v -0.405743 -0.553512 0.137530
v -0.405743 -0.553512 -0.137530
v -0.826951 -1.017993 0.063504
v -1.025731 -0.816274 0.063504
v -0.826951 -1.017993 -0.063504
v -1.025730 -0.816274 -0.063504
v -0.917604 -1.211463 0.044452
v -1.097497 -1.066057 0.044452
v -0.917604 -1.211463 -0.044453
v -1.097497 -1.066057 -0.044453
v -1.222567 -1.285142 -0.000001
v -0.227323 -1.046251 0.070560
v -0.227323 -1.046251 -0.070560
v -0.163194 -0.666641 0.137530
v -0.374760 -1.256910 0.063504
v -0.635575 -1.146547 0.063504
v -0.374760 -1.256910 -0.063504
v -0.635575 -1.146547 -0.063504
v -0.384512 -1.470338 0.044452
v -0.606330 -1.404775 0.044452
v -0.384512 -1.470338 -0.044453
v -0.606330 -1.404775 -0.044453
v -0.638102 -1.655081 -0.000001
v 0.190078 -1.053644 0.070560
v 0.190078 -1.053643 -0.070560
v 0.104185 -0.678363 0.137530
v 0.134435 -1.304688 0.063504
v -0.148760 -1.302462 0.063504
v 0.134435 -1.304688 -0.063504
v -0.148760 -1.302462 -0.063504
v 0.207064 -1.505611 0.044452
v -0.022961 -1.529853 0.044452
v 0.207064 -1.505611 -0.044453
v -0.022961 -1.529852 -0.044453
v 0.043429 -1.773320 -0.000000
v 0.578563 -0.900812 0.070560
v 0.578563 -0.900812 -0.070560
v 0.355707 -0.586895 0.137530
v 0.623185 -1.154056 0.063504
v 0.360667 -1.260305 0.063504
v 0.623185 -1.154056 -0.063504
v 0.360667 -1.260305 -0.063504
v 0.767144 -1.311914 0.044452
v 0.563878 -1.422270 0.044452
v 0.767144 -1.311914 -0.044453
v 0.563878 -1.422270 -0.044453
v 0.718365 -1.621868 -0.000000
v 0.879044 -0.611001 0.070560
v 0.879044 -0.611001 -0.070560
v 0.553096 -0.406153 0.137530
v 0.553096 -0.406153 -0.137530
v 1.017151 -0.827923 0.063504
v 0.815224 -1.026493 0.063504
v 1.017151 -0.827923 -0.063504
v 0.815224 -1.026493 -0.063504
v 1.210541 -0.918707 0.044452
v 1.064927 -1.098399 0.044452
v 1.210542 -0.918706 -0.044453
v 1.064927 -1.098399 -0.044453
v 1.284046 -1.223755 -0.000000
v 1.045818 -0.228291 0.070560
v 1.045818 -0.228291 -0.070560
v 0.666316 -0.163641 0.137530
v 1.256406 -0.375890 0.063504
v 1.145771 -0.636591 0.063504
v 1.256406 -0.375890 -0.063504
v 1.145771 -0.636591 -0.063504
v 1.469811 -0.385794 0.044452
v 1.403979 -0.607506 0.044452
v 1.469811 -0.385794 -0.044453
v 1.403979 -0.607506 -0.044453
v 1.654425 -0.639529 -0.000000
v 1.053516 0.189107 0.070560
v 1.053516 0.189107 -0.070560
v 0.678137 0.103738 0.137530
v 0.678137 0.103738 -0.137530
v 1.304558 0.133289 0.063504
v 1.302036 -0.149906 0.063504
v 1.304557 0.133289 -0.063504
v 1.302036 -0.149906 -0.063504
v 1.505517 0.205768 0.044452
v 1.529469 -0.024262 0.044452
v 1.505517 0.205768 -0.044453
v 1.529469 -0.024262 -0.044453
v 1.773162 0.041950 -0.000001
v 0.900968 0.577708 0.070560
v 0.900968 0.577708 -0.070560
v 0.586759 0.355297 0.137530
v 1.154277 0.622167 0.063504
v 1.260252 0.359536 0.063504
v 1.154277 0.622167 -0.063504
v 1.260252 0.359536 -0.063504
v 1.312225 0.766002 0.044452
v 1.422316 0.562619 0.044453
v 1.312225 0.766001 -0.044453
v 1.422316 0.562619 -0.044453
v 1.622191 0.717029 -0.000000
v 0.611375 0.878404 0.070560
v 0.611375 0.878404 -0.070560
v 0.828418 1.016385 0.063504
v 1.026779 0.814249 0.063504
v 0.828418 1.016385 -0.063504
v 1.026779 0.814249 -0.063504
v 0.919333 1.209695 0.044452
v 1.098825 1.063872 0.044452
v 0.919333 1.209695 -0.044453
v 1.098825 1.063872 -0.044453
v 1.224466 1.283025 -0.000000
v 0.164117 0.665928 0.137886
v 0.164117 0.665928 -0.137887
v 0.376543 1.255978 0.063504
v 0.637130 1.145070 0.063504
v 0.376543 1.255978 -0.063504
v 0.637130 1.145070 -0.063504
v 0.386599 1.469359 0.044453
v 0.608205 1.403258 0.044453
v 0.386599 1.469359 -0.044453
v 0.608205 1.403258 -0.044453
v 0.640480 1.653844 -0.000000
v -0.104756 0.677789 -0.137530
v 0.406087 0.552756 -0.137530
v 0.406087 0.552756 0.137530
v 0.586759 0.355297 -0.137530
v 0.666316 -0.163641 -0.137530
v 0.355707 -0.586895 -0.137530
v 0.104185 -0.678363 -0.137530
v -0.163194 -0.666641 -0.137530
v -0.586554 -0.356192 -0.137530
v -0.678114 -0.104709 -0.137530
v -0.666490 0.162670 -0.137530
v -0.553452 0.405257 -0.137530
v -0.356202 0.586138 -0.137530
v -0.356202 0.586139 0.137530
v -0.000038 -0.000238 0.273742
v -0.000038 -0.000238 -0.273742
vn 0.9542 0.2992 -0.0000
vn 0.0043 0.1753 -0.9845
vn 0.0043 0.1753 0.9845
vn -0.0039 0.0868 -0.9962
vn -0.9766 0.2151 -0.0000
vn 0.0003 0.0278 -0.9996
vn 0.0003 0.0278 0.9996
vn -0.0189 0.1749 -0.9844
vn -0.0039 0.0868 0.9962
vn 0.8744 0.4851 -0.0000
vn -0.9400 -0.3413 -0.0000
vn -0.0189 0.1749 0.9844
vn 0.9643 0.2648 -0.0000
vn -0.8539 0.5205 -0.0000
vn 0.7704 0.6376 -0.0000
vn -0.0626 0.1633 -0.9846
vn -0.0626 0.1633 0.9846
vn -0.0368 0.0787 -0.9962
vn -0.9846 -0.1748 -0.0000
vn -0.0103 0.0258 -0.9996
vn -0.0103 0.0258 0.9996
vn -0.0843 0.1544 -0.9844
vn -0.0368 0.0787 0.9962
vn 0.6223 0.7828 -0.0000
vn -0.7379 -0.6749 -0.0000
vn -0.0843 0.1544 0.9844
vn 0.7897 0.6135 -0.0000
vn -0.9880 0.1543 -0.0000
vn 0.4679 0.8838 -0.0000
vn -0.1203 0.1270 -0.9846
vn -0.1203 0.1270 0.9846
vn -0.0641 0.0587 -0.9962
vn -0.8428 -0.5382 -0.0000
vn -0.0194 0.0199 -0.9996
vn -0.0194 0.0199 0.9996
vn -0.1369 0.1104 -0.9844
vn -0.0641 0.0587 0.9962
vn 0.2756 0.9613 -0.0000
vn -0.4236 -0.9058 -0.0000
vn -0.1369 0.1104 0.9844
vn 0.4950 0.8689 -0.0000
vn -0.9719 -0.2354 -0.0000
vn 0.0942 0.9956 -0.0000
vn -0.1597 0.0713 -0.9846
vn -0.1597 0.0713 0.9846
vn -0.0817 0.0297 -0.9962
vn -0.5729 -0.8197 -0.0000
vn -0.0256 0.0110 -0.9996
vn -0.0256 0.0110 0.9996
vn -0.1687 0.0496 -0.9844
vn -0.0817 0.0297 0.9962
vn -0.1131 0.9936 -0.0000
vn -0.0449 -0.9990 -0.0000
vn -0.1687 0.0496 0.9844
vn 0.1250 0.9922 -0.0000
vn -0.8079 -0.5893 -0.0000
vn -0.2938 0.9559 -0.0000
vn -0.1748 0.0048 -0.9846
vn -0.1748 0.0048 0.9846
vn -0.0869 -0.0038 -0.9962
vn -0.2157 -0.9765 -0.0000
vn -0.0278 0.0004 -0.9996
vn -0.0278 0.0004 0.9996
vn -0.1748 -0.0186 -0.9844
vn -0.0869 -0.0038 0.9962
vn -0.4846 0.8747 -0.0000
vn 0.3406 -0.9402 -0.0000
vn -0.1748 -0.0186 0.9844
vn -0.2640 0.9645 -0.0000
vn -0.5210 -0.8535 -0.0000
vn -0.6371 0.7708 -0.0000
vn -0.1634 -0.0625 -0.9846
vn -0.1634 -0.0625 0.9846
vn -0.0788 -0.0368 -0.9962
vn 0.1742 -0.9847 -0.0000
vn -0.0258 -0.0103 -0.9996
vn -0.0258 -0.0103 0.9996
vn -0.1544 -0.0841 -0.9844
vn -0.0788 -0.0368 0.9962
vn -0.7824 0.6228 -0.0000
vn 0.6744 -0.7384 -0.0000
vn -0.1544 -0.0841 0.9844
vn -0.6128 0.7902 -0.0000
vn -0.1549 -0.9879 -0.0000
vn -0.8835 0.4685 -0.0000
vn -0.1270 -0.1202 -0.9846
vn -0.1270 -0.1202 0.9846
vn -0.0588 -0.0641 -0.9962
vn 0.5376 -0.8432 -0.0000
vn -0.0199 -0.0194 -0.9996
vn -0.0199 -0.0194 0.9996
vn -0.1105 -0.1367 -0.9844
vn -0.0588 -0.0641 0.9962
vn -0.9611 0.2761 -0.0000
vn 0.9055 -0.4243 -0.0000
vn -0.1105 -0.1367 0.9844
vn -0.8685 0.4958 -0.0000
vn 0.2348 -0.9720 -0.0000
vn -0.9955 0.0949 -0.0000
vn -0.0714 -0.1597 -0.9846
vn -0.0714 -0.1597 0.9846
vn -0.0298 -0.0817 -0.9962
vn 0.8193 -0.5734 -0.0000
vn -0.0110 -0.0256 -0.9996
vn -0.0110 -0.0256 0.9996
vn -0.0498 -0.1685 -0.9844
vn -0.0298 -0.0817 0.9962
vn -0.9936 -0.1125 -0.0000
vn 0.9990 -0.0456 -0.0000
vn -0.0498 -0.1685 0.9844
vn -0.9920 0.1259 -0.0000
vn 0.5888 -0.8083 -0.0000
vn -0.9561 -0.2932 -0.0000
vn -0.0049 -0.1748 -0.9846
vn -0.0049 -0.1748 0.9846
vn 0.0037 -0.0869 -0.9962
vn 0.9763 -0.2164 -0.0000
vn -0.0004 -0.0278 -0.9996
vn -0.0004 -0.0278 0.9996
vn 0.0184 -0.1747 -0.9844
vn 0.0037 -0.0869 0.9962
vn -0.8750 -0.4841 -0.0000
vn 0.9404 0.3399 -0.0000
vn 0.0184 -0.1747 0.9844
vn -0.9648 -0.2631 -0.0000
vn 0.8532 -0.5215 -0.0000
vn -0.7712 -0.6366 -0.0000
vn 0.0624 -0.1634 -0.9846
vn 0.0624 -0.1634 0.9846
vn 0.0367 -0.0789 -0.9962
vn 0.9848 0.1735 -0.0000
vn 0.0103 -0.0259 -0.9996
vn 0.0103 -0.0259 0.9996
vn 0.0838 -0.1544 -0.9845
vn 0.0367 -0.0789 0.9962
vn -0.6233 -0.7820 -0.0000
vn 0.7389 0.6738 -0.0000
vn 0.0838 -0.1544 0.9845
vn -0.7908 -0.6121 -0.0000
vn 0.9878 -0.1555 -0.0000
vn -0.4690 -0.8832 -0.0000
vn 0.1201 -0.1271 -0.9846
vn 0.1201 -0.1271 0.9846
vn 0.0641 -0.0589 -0.9962
vn 0.8435 0.5371 -0.0000
vn 0.0194 -0.0200 -0.9996
vn 0.0194 -0.0200 0.9996
vn 0.1365 -0.1106 -0.9845
vn 0.0641 -0.0589 0.9962
vn -0.2767 -0.9610 -0.0000
vn 0.4249 0.9052 -0.0000
vn 0.1365 -0.1106 0.9845
vn -0.4966 -0.8680 -0.0000
vn 0.9722 0.2343 -0.0000
vn -0.0955 -0.9954 -0.0000
vn 0.1596 -0.0715 -0.9846
vn 0.1596 -0.0715 0.9846
vn 0.0817 -0.0299 -0.9962
vn 0.5739 0.8189 -0.0000
vn 0.0256 -0.0110 -0.9996
vn 0.0256 -0.0110 0.9996
vn 0.1683 -0.0500 -0.9845
vn 0.0817 -0.0299 0.9962
vn 0.1119 -0.9937 -0.0000
vn 0.0464 0.9989 -0.0000
vn 0.1683 -0.0500 0.9845
vn -0.1268 -0.9919 -0.0000
vn 0.8086 0.5883 -0.0000
vn 0.2925 -0.9563 -0.0000
vn 0.1748 -0.0050 -0.9846
vn 0.1748 -0.0050 0.9846
vn 0.0869 0.0036 -0.9962
vn 0.2170 0.9762 -0.0000
vn 0.0278 -0.0004 -0.9996
vn 0.0278 -0.0004 0.9996
vn 0.1746 0.0182 -0.9845
vn 0.0869 0.0036 0.9962
vn 0.4836 -0.8753 -0.0000
vn -0.3393 0.9407 -0.0000
vn 0.1746 0.0182 0.9845
vn 0.2622 -0.9650 -0.0000
vn 0.5220 0.8529 -0.0000
vn 0.6361 -0.7716 -0.0000
vn 0.1634 0.0623 -0.9846
vn 0.1634 0.0623 0.9846
vn 0.0789 0.0366 -0.9962
vn -0.1729 0.9849 -0.0000
vn 0.0259 0.0103 -0.9996
vn 0.0259 0.0103 0.9996
vn 0.1544 0.0836 -0.9845
vn 0.0789 0.0366 0.9962
vn 0.7816 -0.6237 -0.0000
vn -0.6733 0.7394 -0.0000
vn 0.1544 0.0836 0.9845
vn 0.6113 -0.7914 -0.0000
vn 0.1561 0.9877 -0.0000
vn 0.8829 -0.4696 -0.0000
vn 0.1272 0.1201 -0.9846
vn 0.1272 0.1201 0.9846
vn 0.0589 0.0640 -0.9962
vn -0.5365 0.8439 -0.0000
vn 0.0200 0.0194 -0.9996
vn 0.0200 0.0194 0.9996
vn 0.1107 0.1362 -0.9845
vn 0.0589 0.0640 0.9962
vn 0.9608 -0.2773 -0.0000
vn -0.9049 0.4256 -0.0000
vn 0.1107 0.1362 0.9845
vn 0.8675 -0.4974 -0.0000
vn -0.2337 0.9723 -0.0000
vn 0.9954 -0.0961 -0.0000
vn 0.0722 0.1599 -0.9845
vn 0.0722 0.1599 0.9845
vn 0.0300 0.0817 -0.9962
vn -0.8153 0.5790 -0.0000
vn 0.0110 0.0255 -0.9996
vn 0.0110 0.0255 0.9996
vn 0.0502 0.1682 -0.9845
vn 0.0300 0.0817 0.9962
vn 0.9938 0.1113 -0.0000
vn -0.9989 0.0471 -0.0000
vn 0.0502 0.1682 0.9845
vn 0.9918 -0.1277 -0.0000
vn -0.5878 0.8090 -0.0000
vn 0.0074 0.1981 -0.9802
vn 0.0074 0.1981 0.9802
vn -0.0679 0.1864 0.9801
vn -0.1341 0.1462 0.9801
vn -0.1798 0.0838 0.9801
vn -0.1982 0.0086 0.9801
vn -0.1864 -0.0679 0.9801
vn -0.1463 -0.1340 0.9801
vn -0.0839 -0.1798 0.9801
vn -0.0087 -0.1982 0.9801
vn 0.0678 -0.1865 0.9801
vn 0.1340 -0.1463 0.9801
vn 0.1798 -0.0839 0.9801
vn 0.1982 -0.0088 0.9801
vn 0.1865 0.0677 0.9801
vn 0.1464 0.1339 0.9801
vn 0.0851 0.1789 0.9802
vn 0.0851 0.1789 -0.9802
vn 0.1464 0.1339 -0.9801
vn 0.1865 0.0677 -0.9801
vn 0.1982 -0.0088 -0.9801
vn 0.1798 -0.0839 -0.9801
vn 0.1340 -0.1463 -0.9801
vn 0.0678 -0.1865 -0.9801
vn -0.0087 -0.1982 -0.9801
vn -0.0839 -0.1798 -0.9801
vn -0.1463 -0.1340 -0.9801
vn -0.1864 -0.0679 -0.9801
vn -0.1982 0.0086 -0.9801
vn -0.1798 0.0838 -0.9801
vn -0.1341 0.1462 -0.9801
vn -0.0679 0.1864 -0.9801
vt 0.571935 0.791895
vt 0.551354 0.864542
vt 0.454384 0.797166
vt 0.551956 0.685947
vt 0.476730 0.691669
vt 0.454384 0.797166
vt 0.471866 0.867211
vt 0.452961 0.924165
vt 0.517726 0.929337
vt 0.500885 0.998079
vt 0.452961 0.924165
vt 0.408017 0.856474
vt 0.344194 0.757133
vt 0.405179 0.668199
vt 0.333551 0.828541
vt 0.294299 0.873930
vt 0.352162 0.903474
vt 0.333551 0.828541
vt 0.310303 0.960559
vt 0.352162 0.903474
vt 0.294299 0.873930
vt 0.278669 0.794191
vt 0.257696 0.677996
vt 0.348051 0.619138
vt 0.220546 0.739903
vt 0.166918 0.766825
vt 0.209084 0.816249
vt 0.220546 0.739903
vt 0.148565 0.852989
vt 0.209084 0.816249
vt 0.182982 0.687169
vt 0.208047 0.571789
vt 0.314039 0.551953
vt 0.208047 0.571789
vt 0.150040 0.614779
vt 0.090193 0.619140
vt 0.110255 0.680930
vt 0.040273 0.691731
vt 0.110255 0.680930
vt 0.090193 0.619140
vt 0.135510 0.551685
vt 0.202800 0.454668
vt 0.308321 0.476867
vt 0.202800 0.454668
vt 0.132757 0.472199
vt 0.075795 0.453336
vt 0.070704 0.518100
vt 0.001900 0.501311
vt 0.070704 0.518100
vt 0.075795 0.453336
vt 0.143473 0.408347
vt 0.242752 0.344447
vt 0.331766 0.405305
vt 0.171328 0.333851
vt 0.125914 0.294634
vt 0.096445 0.352528
vt 0.039284 0.310693
vt 0.125914 0.294634
vt 0.205659 0.278957
vt 0.205659 0.278957
vt 0.321828 0.257891
vt 0.380806 0.348158
vt 0.321828 0.257891
vt 0.259887 0.220777
vt 0.232928 0.167172
vt 0.183562 0.209396
vt 0.146742 0.148869
vt 0.232928 0.167172
vt 0.312608 0.183195
vt 0.312608 0.183195
vt 0.427998 0.208164
vt 0.447980 0.314122
vt 0.427998 0.208164
vt 0.384964 0.150177
vt 0.380561 0.090338
vt 0.318802 0.110475
vt 0.307929 0.040455
vt 0.318802 0.110475
vt 0.380561 0.090338
vt 0.448053 0.135626
vt 0.448053 0.135626
vt 0.545116 0.202831
vt 0.523065 0.308375
vt 0.545116 0.202831
vt 0.527536 0.132790
vt 0.546357 0.075819
vt 0.481594 0.070809
vt 0.498331 0.001943
vt 0.481594 0.070809
vt 0.546357 0.075819
vt 0.591392 0.143484
vt 0.591392 0.143484
vt 0.655367 0.242703
vt 0.594637 0.331794
vt 0.665918 0.171262
vt 0.705099 0.125823
vt 0.647175 0.096430
vt 0.688986 0.039191
vt 0.705099 0.125823
vt 0.720823 0.205573
vt 0.741983 0.321715
vt 0.651803 0.380815
vt 0.779060 0.259741
vt 0.832641 0.232746
vt 0.790361 0.183438
vt 0.779060 0.259741
vt 0.850895 0.146537
vt 0.790361 0.183438
vt 0.832641 0.232746
vt 0.816660 0.312449
vt 0.816660 0.312449
vt 0.791788 0.427850
vt 0.685865 0.447977
vt 0.791788 0.427850
vt 0.849753 0.384771
vt 0.909585 0.380325
vt 0.889373 0.318599
vt 0.959430 0.307654
vt 0.864327 0.447855
vt 0.864327 0.447855
vt 0.797207 0.544965
vt 0.691638 0.523062
vt 0.797207 0.544965
vt 0.867245 0.527336
vt 0.924225 0.546114
vt 0.929154 0.481352
vt 0.998082 0.498037
vt 0.929154 0.481352
vt 0.924226 0.546114
vt 0.856573 0.591195
vt 0.856573 0.591196
vt 0.757416 0.655246
vt 0.668245 0.594643
vt 0.828873 0.665750
vt 0.874336 0.704896
vt 0.903654 0.646941
vt 0.960970 0.688728
vt 0.794580 0.720668
vt 0.678466 0.741921
vt 0.619245 0.651828
vt 0.740473 0.778961
vt 0.767504 0.832519
vt 0.816754 0.790182
vt 0.853735 0.850723
vt 0.767504 0.832519
vt 0.687778 0.816580
vt 0.615489 0.849749
vt 0.619978 0.909572
vt 0.681673 0.889286
vt 0.692689 0.959380
vt 0.499968 0.500034
s 0
usemtl Material.001
f 2/1/1 4/1/1 9/2/1 7/2/1
f 3/3/2 4/1/2 185/4/2 195/5/2
f 5/5/3 184/4/3 2/1/3 1/6/3
f 9/2/4 8/7/4 12/8/4 13/9/4
f 3/3/5 1/6/5 6/7/5 8/7/5
f 4/1/6 3/3/6 8/7/6 9/2/6
f 1/6/7 2/1/7 7/2/7 6/7/7
f 13/9/8 12/8/8 14/10/8
f 6/7/9 7/2/9 11/9/9 10/11/9
f 7/2/10 9/2/10 13/9/10 11/9/10
f 8/7/11 6/7/11 10/11/11 12/8/11
f 10/11/12 11/9/12 14/10/12
f 11/9/13 13/9/13 14/10/13
f 12/8/14 10/11/14 14/10/14
f 1/6/15 3/3/15 20/12/15 18/12/15
f 16/13/16 3/3/16 195/5/16 207/14/16
f 208/14/17 5/5/17 1/6/17 15/13/17
f 20/12/18 19/15/18 23/16/18 24/17/18
f 16/13/19 15/13/19 17/18/19 19/15/19
f 3/3/20 16/13/20 19/15/20 20/12/20
f 15/13/21 1/6/21 18/12/21 17/18/21
f 24/17/22 23/16/22 25/19/22
f 17/18/23 18/12/23 22/20/23 21/21/23
f 18/12/24 20/12/24 24/17/24 22/20/24
f 19/15/25 17/18/25 21/21/25 23/16/25
f 21/21/26 22/20/26 25/19/26
f 22/20/27 24/17/27 25/19/27
f 23/16/28 21/21/28 25/19/28
f 15/13/29 16/13/29 32/22/29 30/22/29
f 27/23/30 16/13/30 207/14/30 206/24/30
f 28/24/31 208/14/31 15/13/31 26/23/31
f 32/22/32 31/25/32 35/26/32 36/27/32
f 27/23/33 26/23/33 29/28/33 31/25/33
f 16/13/34 27/23/34 31/25/34 32/22/34
f 26/23/35 15/13/35 30/22/35 29/28/35
f 36/27/36 35/26/36 37/29/36
f 29/28/37 30/22/37 34/30/37 33/26/37
f 30/22/38 32/22/38 36/27/38 34/30/38
f 31/25/39 29/28/39 33/26/39 35/26/39
f 33/26/40 34/30/40 37/29/40
f 34/30/41 36/27/41 37/29/41
f 35/26/42 33/26/42 37/29/42
f 26/23/43 27/23/43 44/31/43 42/31/43
f 39/32/44 27/23/44 206/24/44 205/33/44
f 40/33/45 28/24/45 26/23/45 38/34/45
f 44/31/46 43/35/46 47/36/46 48/37/46
f 39/32/47 38/34/47 41/35/47 43/35/47
f 27/23/48 39/32/48 43/35/48 44/31/48
f 38/34/49 26/23/49 42/31/49 41/35/49
f 48/37/50 47/36/50 49/38/50
f 41/35/51 42/31/51 46/39/51 45/40/51
f 42/31/52 44/31/52 48/37/52 46/39/52
f 43/35/53 41/35/53 45/40/53 47/36/53
f 45/40/54 46/39/54 49/38/54
f 46/39/55 48/37/55 49/38/55
f 47/36/56 45/40/56 49/38/56
f 38/34/57 39/32/57 56/41/57 54/41/57
f 51/42/58 39/32/58 205/33/58 204/43/58
f 52/43/59 40/33/59 38/34/59 50/44/59
f 56/41/60 55/45/60 59/46/60 60/47/60
f 51/42/61 50/44/61 53/45/61 55/45/61
f 39/32/62 51/42/62 55/45/62 56/41/62
f 50/44/63 38/34/63 54/41/63 53/45/63
f 60/47/64 59/46/64 61/48/64
f 53/45/65 54/41/65 58/49/65 57/50/65
f 54/41/66 56/41/66 60/47/66 58/49/66
f 55/45/67 53/45/67 57/50/67 59/46/67
f 57/50/68 58/49/68 61/48/68
f 58/49/69 60/47/69 61/48/69
f 59/46/70 57/50/70 61/48/70
f 50/44/71 51/42/71 68/51/71 66/51/71
f 63/52/72 51/42/72 204/43/72 203/53/72
f 64/53/73 52/43/73 50/44/73 62/52/73
f 68/51/74 67/54/74 71/55/74 72/56/74
f 63/52/75 62/52/75 65/54/75 67/54/75
f 51/42/76 63/52/76 67/54/76 68/51/76
f 62/52/77 50/44/77 66/51/77 65/54/77
f 72/56/78 71/55/78 73/57/78
f 65/54/79 66/51/79 70/56/79 69/58/79
f 66/51/80 68/51/80 72/56/80 70/56/80
f 67/54/81 65/54/81 69/58/81 71/55/81
f 69/58/82 70/56/82 73/57/82
f 70/56/83 72/56/83 73/57/83
f 71/55/84 69/58/84 73/57/84
f 62/52/85 63/52/85 81/59/85 79/60/85
f 75/61/86 63/52/86 203/53/86 77/62/86
f 76/62/87 64/53/87 62/52/87 74/63/87
f 81/59/88 80/64/88 84/65/88 85/66/88
f 75/61/89 74/63/89 78/64/89 80/64/89
f 63/52/90 75/61/90 80/64/90 81/59/90
f 74/63/91 62/52/91 79/60/91 78/64/91
f 85/66/92 84/65/92 86/67/92
f 78/64/93 79/60/93 83/66/93 82/68/93
f 79/60/94 81/59/94 85/66/94 83/66/94
f 80/64/95 78/64/95 82/68/95 84/65/95
f 82/68/96 83/66/96 86/67/96
f 83/66/97 85/66/97 86/67/97
f 84/65/98 82/68/98 86/67/98
f 74/63/99 75/61/99 93/69/99 91/70/99
f 88/71/100 75/61/100 77/62/100 202/72/100
f 89/72/101 76/62/101 74/63/101 87/73/101
f 93/69/102 92/74/102 96/75/102 97/76/102
f 88/71/103 87/73/103 90/74/103 92/74/103
f 75/61/104 88/71/104 92/74/104 93/69/104
f 87/73/105 74/63/105 91/70/105 90/74/105
f 97/76/106 96/75/106 98/77/106
f 90/74/107 91/70/107 95/78/107 94/79/107
f 91/70/108 93/69/108 97/76/108 95/78/108
f 92/74/109 90/74/109 94/79/109 96/75/109
f 94/79/110 95/78/110 98/77/110
f 95/78/111 97/76/111 98/77/111
f 96/75/112 94/79/112 98/77/112
f 87/73/113 88/71/113 105/80/113 103/81/113
f 100/82/114 88/71/114 202/72/114 201/83/114
f 101/83/115 89/72/115 87/73/115 99/84/115
f 105/80/116 104/85/116 108/86/116 109/87/116
f 100/82/117 99/84/117 102/85/117 104/85/117
f 88/71/118 100/82/118 104/85/118 105/80/118
f 99/84/119 87/73/119 103/81/119 102/85/119
f 109/87/120 108/86/120 110/88/120
f 102/85/121 103/81/121 107/89/121 106/90/121
f 103/81/122 105/80/122 109/87/122 107/89/122
f 104/85/123 102/85/123 106/90/123 108/86/123
f 106/90/124 107/89/124 110/88/124
f 107/89/125 109/87/125 110/88/125
f 108/86/126 106/90/126 110/88/126
f 99/84/127 100/82/127 117/91/127 115/92/127
f 112/93/128 100/82/128 201/83/128 200/94/128
f 113/94/129 101/83/129 99/84/129 111/93/129
f 117/91/130 116/95/130 120/96/130 121/97/130
f 112/93/131 111/93/131 114/95/131 116/95/131
f 100/82/132 112/93/132 116/95/132 117/91/132
f 111/93/133 99/84/133 115/92/133 114/95/133
f 121/97/134 120/96/134 122/98/134
f 114/95/135 115/92/135 119/97/135 118/99/135
f 115/92/136 117/91/136 121/97/136 119/97/136
f 116/95/137 114/95/137 118/99/137 120/96/137
f 118/99/138 119/97/138 122/98/138
f 119/97/139 121/97/139 122/98/139
f 120/96/140 118/99/140 122/98/140
f 111/93/141 112/93/141 130/100/141 128/100/141
f 124/101/142 112/93/142 200/94/142 126/102/142
f 125/102/143 113/94/143 111/93/143 123/101/143
f 130/100/144 129/103/144 133/104/144 134/105/144
f 124/101/145 123/101/145 127/106/145 129/103/145
f 112/93/146 124/101/146 129/103/146 130/100/146
f 123/101/147 111/93/147 128/100/147 127/106/147
f 134/105/148 133/104/148 135/107/148
f 127/106/149 128/100/149 132/108/149 131/109/149
f 128/100/150 130/100/150 134/105/150 132/108/150
f 129/103/151 127/106/151 131/109/151 133/104/151
f 131/109/152 132/108/152 135/107/152
f 132/108/153 134/105/153 135/107/153
f 133/104/154 131/109/154 135/107/154
f 123/101/155 124/101/155 142/110/155 140/111/155
f 137/112/156 124/101/156 126/102/156 199/113/156
f 138/113/157 125/102/157 123/101/157 136/114/157
f 142/110/158 141/115/158 145/116/158 146/117/158
f 137/112/159 136/114/159 139/115/159 141/115/159
f 124/101/160 137/112/160 141/115/160 142/110/160
f 136/114/161 123/101/161 140/111/161 139/115/161
f 146/117/162 145/116/162 147/118/162
f 139/115/163 140/111/163 144/117/163 143/116/163
f 140/111/164 142/110/164 146/117/164 144/117/164
f 141/115/165 139/115/165 143/116/165 145/116/165
f 143/116/166 144/117/166 147/118/166
f 144/117/167 146/117/167 147/118/167
f 145/116/168 143/116/168 147/118/168
f 136/114/169 137/112/169 155/119/169 153/120/169
f 149/121/170 137/112/170 199/113/170 151/122/170
f 150/122/171 138/113/171 136/114/171 148/123/171
f 155/119/172 154/124/172 158/125/172 159/126/172
f 149/121/173 148/123/173 152/124/173 154/124/173
f 137/112/174 149/121/174 154/124/174 155/119/174
f 148/123/175 136/114/175 153/120/175 152/124/175
f 159/126/176 158/125/176 160/127/176
f 152/124/177 153/120/177 157/128/177 156/129/177
f 153/120/178 155/119/178 159/126/178 157/128/178
f 154/124/179 152/124/179 156/129/179 158/125/179
f 156/129/180 157/128/180 160/127/180
f 157/128/181 159/126/181 160/127/181
f 158/125/182 156/129/182 160/127/182
f 148/123/183 149/121/183 167/130/183 165/131/183
f 162/132/184 149/121/184 151/122/184 198/133/184
f 163/133/185 150/122/185 148/123/185 161/132/185
f 167/130/186 166/134/186 170/135/186 171/136/186
f 162/132/187 161/132/187 164/134/187 166/134/187
f 149/121/188 162/132/188 166/134/188 167/130/188
f 161/132/189 148/123/189 165/131/189 164/134/189
f 171/136/190 170/135/190 172/137/190
f 164/134/191 165/131/191 169/136/191 168/135/191
f 165/131/192 167/130/192 171/136/192 169/136/192
f 166/134/193 164/134/193 168/135/193 170/135/193
f 168/135/194 169/136/194 172/137/194
f 169/136/195 171/136/195 172/137/195
f 170/135/196 168/135/196 172/137/196
f 161/132/197 162/132/197 178/138/197 176/138/197
f 174/139/198 162/132/198 198/133/198 196/140/198
f 197/140/199 163/133/199 161/132/199 173/139/199
f 178/138/200 177/141/200 181/142/200 182/143/200
f 174/139/201 173/139/201 175/141/201 177/141/201
f 162/132/202 174/139/202 177/141/202 178/138/202
f 173/139/203 161/132/203 176/138/203 175/141/203
f 182/143/204 181/142/204 183/144/204
f 175/141/205 176/138/205 180/143/205 179/145/205
f 176/138/206 178/138/206 182/143/206 180/143/206
f 177/141/207 175/141/207 179/145/207 181/142/207
f 179/145/208 180/143/208 183/144/208
f 180/143/209 182/143/209 183/144/209
f 181/142/210 179/145/210 183/144/210
f 173/139/211 174/139/211 189/146/211 187/146/211
f 4/1/212 174/139/212 196/140/212 185/4/212
f 184/4/213 197/140/213 173/139/213 2/1/213
f 189/146/214 188/147/214 192/148/214 193/149/214
f 4/1/215 2/1/215 186/147/215 188/147/215
f 174/139/216 4/1/216 188/147/216 189/146/216
f 2/1/217 173/139/217 187/146/217 186/147/217
f 193/149/218 192/148/218 194/150/218
f 186/147/219 187/146/219 191/149/219 190/148/219
f 187/146/220 189/146/220 193/149/220 191/149/220
f 188/147/221 186/147/221 190/148/221 192/148/221
f 190/148/222 191/149/222 194/150/222
f 191/149/223 193/149/223 194/150/223
f 192/148/224 190/148/224 194/150/224
f 195/5/225 185/4/225 210/151/225
f 184/4/226 5/5/226 209/151/226
f 5/5/227 208/14/227 209/151/227
f 208/14/228 28/24/228 209/151/228
f 28/24/229 40/33/229 209/151/229
f 40/33/230 52/43/230 209/151/230
f 52/43/231 64/53/231 209/151/231
f 64/53/232 76/62/232 209/151/232
f 76/62/233 89/72/233 209/151/233
f 89/72/234 101/83/234 209/151/234
f 101/83/235 113/94/235 209/151/235
f 113/94/236 125/102/236 209/151/236
f 125/102/237 138/113/237 209/151/237
f 138/113/238 150/122/238 209/151/238
f 150/122/239 163/133/239 209/151/239
f 163/133/240 197/140/240 209/151/240
f 197/140/241 184/4/241 209/151/241
f 185/4/242 196/140/242 210/151/242
f 196/140/243 198/133/243 210/151/243
f 198/133/244 151/122/244 210/151/244
f 151/122/245 199/113/245 210/151/245
f 199/113/246 126/102/246 210/151/246
f 126/102/247 200/94/247 210/151/247
f 200/94/248 201/83/248 210/151/248
f 201/83/249 202/72/249 210/151/249
f 202/72/250 77/62/250 210/151/250
f 77/62/251 203/53/251 210/151/251
f 203/53/252 204/43/252 210/151/252
f 204/43/253 205/33/253 210/151/253
f 205/33/254 206/24/254 210/151/254
f 206/24/255 207/14/255 210/151/255
f 207/14/256 195/5/256 210/151/256
