# Blender 4.4.3
# www.blender.org
o psilocybe
v -0.038732 -0.000867 -0.003146
v -0.054671 0.047133 -0.001752
v -0.034669 -0.000518 -0.002426
v -0.050729 0.048169 -0.001021
v -0.031508 -0.000263 0.000237
v -0.047656 0.048927 0.001650
v -0.030096 -0.000169 0.004129
v -0.046276 0.049204 0.005544
v -0.030811 -0.000263 0.008207
v -0.046959 0.048927 0.009619
v -0.033461 -0.000518 0.011378
v -0.049521 0.048169 0.012783
v -0.037338 -0.000867 0.012793
v -0.053277 0.047133 0.014187
v -0.041401 -0.001215 0.012072
v -0.057219 0.046098 0.013456
v -0.044562 -0.001471 0.009410
v -0.060292 0.045340 0.010786
v -0.045974 -0.001564 0.005518
v -0.061672 0.045063 0.006891
v -0.045259 -0.001471 0.001440
v -0.060989 0.045340 0.002816
v -0.042608 -0.001215 -0.001731
v -0.058427 0.046098 -0.000347
v -0.062710 0.111133 -0.001852
v -0.058291 0.111897 -0.001055
v -0.054850 0.112457 0.001878
v -0.053310 0.112661 0.006160
v -0.054083 0.112457 0.010644
v -0.056963 0.111897 0.014129
v -0.061177 0.111133 0.015682
v -0.065596 0.110369 0.014885
v -0.069037 0.109810 0.011952
v -0.070577 0.109605 0.007670
v -0.069804 0.109810 0.003186
v -0.066924 0.110369 -0.000299
v -0.060217 0.175249 -0.003836
v -0.054854 0.175710 -0.002885
v -0.050681 0.176046 0.000629
v -0.048817 0.176170 0.005767
v -0.049760 0.176046 0.011149
v -0.053259 0.175710 0.015335
v -0.058376 0.175249 0.017203
v -0.063739 0.174789 0.016252
v -0.067912 0.174452 0.012737
v -0.069776 0.174329 0.007600
v -0.068832 0.174452 0.002218
v -0.065333 0.174789 -0.001969
v -0.061649 0.155591 -0.039945
v -0.037954 0.157624 -0.035743
v -0.019518 0.159113 -0.020214
v -0.011282 0.159657 0.002483
v -0.015452 0.159113 0.026265
v -0.030911 0.157624 0.044760
v -0.053517 0.155591 0.053012
v -0.077212 0.153558 0.048810
v -0.095648 0.152070 0.033281
v -0.103885 0.151525 0.010584
v -0.099715 0.152070 -0.013198
v -0.084255 0.153558 -0.031693
v -0.063485 0.169936 -0.046528
v -0.036377 0.172262 -0.041722
v -0.015287 0.173965 -0.023956
v -0.005864 0.174588 0.002009
v -0.010635 0.173965 0.029215
v -0.028320 0.172262 0.050374
v -0.054181 0.169936 0.059814
v -0.081289 0.167610 0.055008
v -0.102380 0.165908 0.037242
v -0.111802 0.165284 0.011277
v -0.107032 0.165908 -0.015929
v -0.089347 0.167610 -0.037088
v -0.065004 0.184282 -0.049487
v -0.036332 0.186742 -0.044403
v -0.014025 0.188543 -0.025612
v -0.004059 0.189202 0.001851
v -0.009104 0.188543 0.030627
v -0.027810 0.186742 0.053006
v -0.055163 0.184282 0.062991
v -0.083835 0.181821 0.057907
v -0.106143 0.180020 0.039117
v -0.116109 0.179361 0.011654
v -0.111063 0.180020 -0.017122
v -0.092357 0.181821 -0.039501
v -0.066633 0.205799 -0.046511
v -0.039395 0.208136 -0.041681
v -0.018203 0.209847 -0.023830
v -0.008735 0.210474 0.002260
v -0.013529 0.209847 0.029597
v -0.031299 0.208136 0.050857
v -0.057285 0.205799 0.060343
v -0.084523 0.203462 0.055514
v -0.105715 0.201751 0.037662
v -0.115183 0.201125 0.011573
v -0.110389 0.201751 -0.015765
v -0.092619 0.203462 -0.037025
v -0.067416 0.220145 -0.041059
v -0.042902 0.222248 -0.036712
v -0.023829 0.223788 -0.020646
v -0.015308 0.224351 0.002835
v -0.019622 0.223788 0.027439
v -0.035615 0.222248 0.046573
v -0.059002 0.220145 0.055110
v -0.083517 0.218041 0.050763
v -0.102590 0.216501 0.034697
v -0.111111 0.215938 0.011217
v -0.106796 0.216501 -0.013387
v -0.090803 0.218041 -0.032521
v -0.067617 0.232099 -0.031351
v -0.048005 0.233782 -0.027873
v -0.032747 0.235013 -0.015020
v -0.025930 0.235464 0.003764
v -0.029381 0.235013 0.023447
v -0.042176 0.233782 0.038754
v -0.060886 0.232099 0.045584
v -0.080497 0.230416 0.042107
v -0.095755 0.229184 0.029254
v -0.102572 0.228733 0.010470
v -0.099121 0.229184 -0.009213
v -0.086326 0.230416 -0.024521
v -0.068165 0.246975 -0.022689
v -0.052912 0.248284 -0.019984
v -0.041044 0.249242 -0.009987
v -0.035742 0.249593 0.004623
v -0.038427 0.249242 0.019932
v -0.048378 0.248284 0.031837
v -0.062930 0.246975 0.037149
v -0.078183 0.245667 0.034445
v -0.090051 0.244709 0.024448
v -0.095353 0.244358 0.009838
v -0.092669 0.244709 -0.005471
v -0.082717 0.245667 -0.017377
v -0.068144 0.255742 -0.013646
v -0.057467 0.256658 -0.011753
v -0.049159 0.257329 -0.004755
v -0.045448 0.257574 0.005472
v -0.047327 0.257329 0.016188
v -0.054293 0.256658 0.024522
v -0.064479 0.255742 0.028241
v -0.075157 0.254826 0.026347
v -0.083464 0.254155 0.019350
v -0.087175 0.253910 0.009123
v -0.085296 0.254155 -0.001594
v -0.078330 0.254826 -0.009928
v -0.066937 0.262914 0.007352
v -0.030065 -0.024867 0.004126
v 0.019596 -0.000867 -0.044721
v 0.030910 0.047133 -0.056034
v 0.016020 -0.000518 -0.042661
v 0.027420 0.048169 -0.054060
v 0.011887 -0.000263 -0.042669
v 0.023349 0.048927 -0.054131
v 0.008304 -0.000169 -0.044742
v 0.019789 0.049204 -0.056227
v 0.006230 -0.000263 -0.048326
v 0.017692 0.048927 -0.059788
v 0.006223 -0.000518 -0.052459
v 0.017622 0.048169 -0.063858
v 0.008282 -0.000867 -0.056034
v 0.019596 0.047133 -0.067348
v 0.011858 -0.001215 -0.058094
v 0.023086 0.046098 -0.069322
v 0.015991 -0.001471 -0.058086
v 0.027157 0.045340 -0.069252
v 0.019575 -0.001564 -0.056013
v 0.030717 0.045063 -0.067155
v 0.021648 -0.001471 -0.052429
v 0.032813 0.045340 -0.063595
v 0.021656 -0.001215 -0.048296
v 0.032884 0.046098 -0.059524
v 0.037132 0.111133 -0.061126
v 0.033235 0.111897 -0.058895
v 0.028714 0.112457 -0.058930
v 0.024782 0.112661 -0.061220
v 0.022491 0.112457 -0.065152
v 0.022457 0.111897 -0.069673
v 0.024687 0.111133 -0.073571
v 0.028585 0.110369 -0.075801
v 0.033105 0.109810 -0.075766
v 0.037038 0.109605 -0.073476
v 0.039328 0.109810 -0.069544
v 0.039363 0.110369 -0.065023
v 0.035375 0.169175 -0.058373
v 0.031128 0.169589 -0.055926
v 0.026217 0.169892 -0.055935
v 0.021960 0.170003 -0.058399
v 0.019497 0.169892 -0.062656
v 0.019488 0.169589 -0.067566
v 0.021935 0.169175 -0.071814
v 0.026182 0.168761 -0.074261
v 0.031093 0.168458 -0.074251
v 0.035350 0.168347 -0.071788
v 0.037813 0.168458 -0.067531
v 0.037822 0.168761 -0.062621
v 0.056887 0.145585 -0.033942
v 0.038120 0.147415 -0.023131
v 0.016426 0.148754 -0.023172
v -0.002383 0.149245 -0.034055
v -0.013266 0.148754 -0.052864
v -0.013307 0.147415 -0.074558
v -0.002496 0.145585 -0.093326
v 0.016271 0.143755 -0.104137
v 0.037966 0.142416 -0.104096
v 0.056774 0.141925 -0.093213
v 0.067657 0.142416 -0.074404
v 0.067699 0.143755 -0.052710
v 0.062228 0.162799 -0.030732
v 0.040758 0.164893 -0.018363
v 0.015940 0.166425 -0.018411
v -0.005577 0.166986 -0.030861
v -0.018028 0.166425 -0.052378
v -0.018075 0.164893 -0.077197
v -0.005707 0.162799 -0.098666
v 0.015763 0.160706 -0.111035
v 0.040582 0.159174 -0.110987
v 0.062099 0.158613 -0.098537
v 0.074549 0.159174 -0.077020
v 0.074596 0.160706 -0.052201
v 0.065253 0.180014 -0.029837
v 0.042544 0.182228 -0.016755
v 0.016294 0.183849 -0.016805
v -0.006465 0.184442 -0.029974
v -0.019633 0.183849 -0.052732
v -0.019683 0.182228 -0.078982
v -0.006601 0.180014 -0.101691
v 0.016107 0.177799 -0.114773
v 0.042357 0.176179 -0.114723
v 0.065116 0.175585 -0.101554
v 0.078284 0.176179 -0.078796
v 0.078334 0.177799 -0.052545
v 0.065054 0.205835 -0.033231
v 0.043481 0.207938 -0.020803
v 0.018543 0.209478 -0.020851
v -0.003078 0.210042 -0.033361
v -0.015588 0.209478 -0.054981
v -0.015635 0.207938 -0.079919
v -0.003208 0.205835 -0.101492
v 0.018365 0.203732 -0.113920
v 0.043303 0.202192 -0.113872
v 0.064924 0.201628 -0.101362
v 0.077434 0.202192 -0.079742
v 0.077481 0.203732 -0.054804
v 0.062705 0.223049 -0.037709
v 0.043290 0.224942 -0.026524
v 0.020846 0.226328 -0.026567
v 0.001387 0.226835 -0.037826
v -0.009872 0.226328 -0.057284
v -0.009915 0.224942 -0.079728
v 0.001270 0.223049 -0.099144
v 0.020686 0.221156 -0.110329
v 0.043130 0.219770 -0.110286
v 0.062589 0.219263 -0.099027
v 0.073848 0.219770 -0.079568
v 0.073890 0.221156 -0.057124
v 0.057449 0.237394 -0.044740
v 0.041917 0.238909 -0.035792
v 0.023962 0.240018 -0.035826
v 0.008395 0.240423 -0.044833
v -0.000612 0.240018 -0.060400
v -0.000647 0.238909 -0.078355
v 0.008301 0.237394 -0.093888
v 0.023834 0.235880 -0.102836
v 0.041789 0.234771 -0.102802
v 0.057356 0.234365 -0.093794
v 0.066363 0.234771 -0.078227
v 0.066397 0.235880 -0.060272
v 0.053093 0.255246 -0.051305
v 0.041012 0.256424 -0.044345
v 0.027047 0.257286 -0.044372
v 0.014939 0.257602 -0.051378
v 0.007934 0.257286 -0.063485
v 0.007907 0.256424 -0.077450
v 0.014867 0.255246 -0.089531
v 0.026947 0.254068 -0.096491
v 0.040913 0.253206 -0.096464
v 0.053020 0.252890 -0.089459
v 0.060026 0.253206 -0.077351
v 0.060052 0.254068 -0.063386
v 0.048010 0.265766 -0.057690
v 0.039553 0.266591 -0.052818
v 0.029777 0.267194 -0.052837
v 0.021302 0.267415 -0.057741
v 0.016398 0.267194 -0.066216
v 0.016380 0.266591 -0.075991
v 0.021251 0.265766 -0.084448
v 0.029708 0.264941 -0.089320
v 0.039484 0.264338 -0.089301
v 0.047959 0.264117 -0.084397
v 0.052863 0.264338 -0.075922
v 0.052881 0.264941 -0.066146
v 0.035163 0.274373 -0.071601
v 0.008282 -0.024867 -0.044721
v 0.038345 -0.000867 0.036978
v 0.052846 0.039133 0.043740
v 0.035186 -0.000518 0.034323
v 0.049797 0.040169 0.041136
v 0.033780 -0.000263 0.030436
v 0.048471 0.040927 0.037287
v 0.034503 -0.000169 0.026360
v 0.049223 0.041204 0.033224
v 0.037161 -0.000263 0.023186
v 0.051852 0.040927 0.030036
v 0.041042 -0.000518 0.021765
v 0.055653 0.040169 0.028578
v 0.045107 -0.000867 0.022478
v 0.059608 0.039133 0.029239
v 0.048265 -0.001215 0.025133
v 0.062657 0.038098 0.031844
v 0.049672 -0.001471 0.029020
v 0.063982 0.037340 0.035693
v 0.048949 -0.001564 0.033096
v 0.063230 0.037063 0.039756
v 0.046291 -0.001471 0.036270
v 0.060601 0.037340 0.042943
v 0.042409 -0.001215 0.037691
v 0.056801 0.038098 0.044402
v 0.059758 0.095133 0.047846
v 0.056329 0.095897 0.044947
v 0.054816 0.096457 0.040687
v 0.055623 0.096661 0.036208
v 0.058535 0.096457 0.032711
v 0.062771 0.095897 0.031133
v 0.067196 0.095133 0.031895
v 0.070625 0.094369 0.034795
v 0.072139 0.093810 0.039055
v 0.071332 0.093605 0.043533
v 0.068420 0.093810 0.047030
v 0.064184 0.094369 0.048609
v 0.056606 0.135249 0.048318
v 0.052437 0.135710 0.044813
v 0.050581 0.136046 0.039683
v 0.051535 0.136170 0.034302
v 0.055044 0.136046 0.030112
v 0.060167 0.135710 0.028237
v 0.065532 0.135249 0.029177
v 0.069701 0.134789 0.032682
v 0.071557 0.134452 0.037813
v 0.070603 0.134329 0.043194
v 0.067095 0.134452 0.047383
v 0.061971 0.134789 0.049259
v 0.039793 0.115591 0.080306
v 0.021372 0.117624 0.064819
v 0.013171 0.119113 0.042152
v 0.017387 0.119657 0.018378
v 0.032889 0.119113 -0.000132
v 0.055524 0.117624 -0.008420
v 0.079228 0.115591 -0.004264
v 0.097648 0.113558 0.011223
v 0.105849 0.112070 0.033890
v 0.101634 0.111525 0.057664
v 0.086132 0.112070 0.076174
v 0.063496 0.113558 0.084462
v 0.038091 0.129936 0.086925
v 0.017018 0.132262 0.069209
v 0.007636 0.133965 0.043278
v 0.012458 0.134588 0.016080
v 0.030193 0.133965 -0.005096
v 0.056088 0.132262 -0.014577
v 0.083205 0.129936 -0.009822
v 0.104278 0.127610 0.007894
v 0.113660 0.125908 0.033825
v 0.108837 0.125284 0.061023
v 0.091103 0.125908 0.082199
v 0.065208 0.127610 0.091680
v 0.037927 0.144282 0.090246
v 0.015638 0.146742 0.071508
v 0.005715 0.148543 0.044081
v 0.010815 0.149202 0.015314
v 0.029573 0.148543 -0.007084
v 0.056962 0.146742 -0.017112
v 0.085644 0.144282 -0.012083
v 0.107932 0.141821 0.006656
v 0.117856 0.140020 0.034083
v 0.112755 0.139361 0.062849
v 0.093997 0.140020 0.085247
v 0.066608 0.141821 0.095275
v 0.045291 0.167800 0.079322
v 0.028140 0.169693 0.064903
v 0.020504 0.171079 0.043798
v 0.024429 0.171586 0.021662
v 0.038863 0.171079 0.004427
v 0.059939 0.169693 -0.003290
v 0.082009 0.167800 0.000580
v 0.099160 0.165907 0.015000
v 0.106796 0.164521 0.036105
v 0.102871 0.164014 0.058241
v 0.088437 0.164521 0.075476
v 0.067361 0.165907 0.083192
v 0.048048 0.179419 0.075815
v 0.032612 0.181123 0.062838
v 0.025740 0.182370 0.043843
v 0.029272 0.182827 0.023921
v 0.042263 0.182370 0.008409
v 0.061231 0.181123 0.001464
v 0.081095 0.179419 0.004947
v 0.096530 0.177716 0.017924
v 0.103403 0.176468 0.036919
v 0.099871 0.176012 0.056841
v 0.086880 0.176468 0.072353
v 0.067911 0.177716 0.079298
v 0.050788 0.190824 0.072300
v 0.037068 0.192338 0.060764
v 0.030959 0.193447 0.043880
v 0.034099 0.193853 0.026171
v 0.045646 0.193447 0.012383
v 0.062507 0.192338 0.006210
v 0.080163 0.190824 0.009306
v 0.093884 0.189309 0.020841
v 0.099993 0.188201 0.037725
v 0.096853 0.187795 0.055434
v 0.085305 0.188201 0.069222
v 0.068445 0.189309 0.075395
v 0.054064 0.206975 0.068619
v 0.042206 0.208284 0.058650
v 0.036927 0.209242 0.044059
v 0.039640 0.209593 0.028756
v 0.049620 0.209242 0.016840
v 0.064191 0.208284 0.011505
v 0.079449 0.206975 0.014180
v 0.091307 0.205667 0.024149
v 0.096586 0.204708 0.038740
v 0.093872 0.204358 0.054044
v 0.083893 0.204708 0.065960
v 0.069322 0.205667 0.071295
v 0.058567 0.215742 0.060778
v 0.050266 0.216658 0.053799
v 0.046571 0.217329 0.043586
v 0.048470 0.217574 0.032873
v 0.055456 0.217329 0.024532
v 0.065655 0.216658 0.020798
v 0.076336 0.215742 0.022670
v 0.084637 0.214826 0.029649
v 0.088332 0.214155 0.039862
v 0.086433 0.213910 0.050575
v 0.079447 0.214155 0.058916
v 0.069248 0.214826 0.062650
v 0.068020 0.222914 0.041989
v 0.034475 -0.024867 0.026347
vn -0.0693 -0.1508 -0.9861
vn -0.1018 -0.0093 -0.9948
vn 0.4224 0.0018 -0.9064
vn 0.4008 0.1018 -0.9105
vn 0.8100 0.1154 -0.5750
vn 0.7960 0.1827 -0.5770
vn 0.9838 0.1571 -0.0861
vn 0.9735 0.2121 -0.0852
vn 0.8975 0.1154 0.4256
vn 0.8841 0.1827 0.4300
vn 0.5734 0.0018 0.8193
vn 0.5528 0.1018 0.8271
vn 0.1030 -0.1508 0.9832
vn 0.0725 -0.0093 0.9973
vn -0.3766 -0.2985 0.8769
vn -0.4229 -0.1202 0.8982
vn -0.7365 -0.4026 0.5436
vn -0.8015 -0.2008 0.5633
vn -0.8948 -0.4396 0.0783
vn -0.9695 -0.2300 0.0848
vn -0.8197 -0.4026 -0.4075
vn -0.8871 -0.2008 -0.4156
vn -0.5232 -0.2985 -0.7982
vn -0.5724 -0.1202 -0.8111
vn -0.0981 -0.0187 -0.9950
vn 0.4161 0.0006 -0.9093
vn 0.8173 0.0134 -0.5760
vn 0.9960 0.0178 -0.0871
vn 0.9049 0.0134 0.4254
vn 0.5676 0.0006 0.8233
vn 0.0762 -0.0187 0.9969
vn -0.4326 -0.0402 0.9007
vn -0.8219 -0.0573 0.5667
vn -0.9942 -0.0638 0.0870
vn -0.9078 -0.0573 -0.4154
vn -0.5824 -0.0402 -0.8119
vn 0.0669 -0.9218 -0.3819
vn 0.2430 -0.9180 -0.3133
vn 0.3540 -0.9167 -0.1855
vn 0.3987 -0.9164 -0.0349
vn 0.3808 -0.9167 0.1212
vn 0.2937 -0.9180 0.2664
vn 0.1323 -0.9218 0.3645
vn -0.0765 -0.9276 0.3656
vn -0.2638 -0.9333 0.2438
vn -0.3518 -0.9356 0.0308
vn -0.3021 -0.9333 -0.1943
vn -0.1389 -0.9276 -0.3467
vn 0.0431 -0.9075 -0.4179
vn 0.2527 -0.8895 -0.3807
vn 0.4157 -0.8763 -0.2434
vn 0.4885 -0.8715 -0.0427
vn 0.4516 -0.8763 0.1675
vn 0.3149 -0.8895 0.3311
vn 0.1150 -0.9075 0.4041
vn -0.0945 -0.9254 0.3669
vn -0.2575 -0.9386 0.2296
vn -0.3303 -0.9434 0.0289
vn -0.2934 -0.9386 -0.1814
vn -0.1568 -0.9254 -0.3449
vn -0.0557 -0.3113 -0.9487
vn 0.4268 -0.2699 -0.8631
vn 0.8021 -0.2396 -0.5469
vn 0.9698 -0.2285 -0.0848
vn 0.8849 -0.2396 0.3993
vn 0.5702 -0.2699 0.7759
vn 0.1099 -0.3113 0.9439
vn -0.3725 -0.3527 0.8584
vn -0.7479 -0.3830 0.5422
vn -0.9156 -0.3941 0.0801
vn -0.8307 -0.3830 -0.4041
vn -0.5159 -0.3527 -0.7807
vn -0.0837 -0.0391 -0.9957
vn 0.4238 0.0044 -0.9057
vn 0.8186 0.0363 -0.5731
vn 0.9950 0.0480 -0.0871
vn 0.9057 0.0363 0.4223
vn 0.5746 0.0044 0.8184
vn 0.0905 -0.0391 0.9951
vn -0.4170 -0.0827 0.9051
vn -0.8118 -0.1145 0.5725
vn -0.9882 -0.1262 0.0865
vn -0.8989 -0.1145 -0.4229
vn -0.5678 -0.0827 -0.8190
vn -0.1052 0.2357 -0.9661
vn 0.3882 0.2780 -0.8786
vn 0.7722 0.3090 -0.5552
vn 0.9437 0.3204 -0.0826
vn 0.8568 0.3090 0.4127
vn 0.5349 0.2780 0.7979
vn 0.0641 0.2357 0.9697
vn -0.4293 0.1934 0.8822
vn -0.8132 0.1624 0.5588
vn -0.9848 0.1510 0.0862
vn -0.8979 0.1624 -0.4091
vn -0.5760 0.1934 -0.7943
vn -0.1183 0.4814 -0.8685
vn 0.3264 0.5196 -0.7896
vn 0.6723 0.5475 -0.4982
vn 0.8269 0.5577 -0.0723
vn 0.7486 0.5475 0.3739
vn 0.4585 0.5196 0.7210
vn 0.0343 0.4814 0.8758
vn -0.4103 0.4433 0.7970
vn -0.7562 0.4153 0.5056
vn -0.9108 0.4051 0.0797
vn -0.8325 0.4153 -0.3666
vn -0.5425 0.4433 -0.7136
vn -0.1211 0.5681 -0.8140
vn 0.2961 0.6039 -0.7400
vn 0.6207 0.6301 -0.4666
vn 0.7657 0.6397 -0.0670
vn 0.6923 0.6301 0.3517
vn 0.4201 0.6039 0.6773
vn 0.0221 0.5681 0.8226
vn -0.3951 0.5323 0.7487
vn -0.7197 0.5061 0.4752
vn -0.8647 0.4965 0.0757
vn -0.7913 0.5061 -0.3431
vn -0.5191 0.5323 -0.6687
vn -0.1219 0.5996 -0.7910
vn 0.2837 0.6344 -0.7191
vn 0.5993 0.6598 -0.4533
vn 0.7403 0.6692 -0.0648
vn 0.6689 0.6598 0.3423
vn 0.4043 0.6344 0.6589
vn 0.0173 0.5996 0.8001
vn -0.3882 0.5648 0.7282
vn -0.7038 0.5393 0.4624
vn -0.8448 0.5299 0.0739
vn -0.7734 0.5393 -0.3332
vn -0.5088 0.5648 -0.6497
vn -0.1204 0.8322 -0.5413
vn 0.1588 0.8561 -0.4918
vn 0.3760 0.8737 -0.3088
vn 0.4730 0.8801 -0.0414
vn 0.4239 0.8737 0.2388
vn 0.2417 0.8561 0.4567
vn -0.0246 0.8322 0.5540
vn -0.3038 0.8082 0.5045
vn -0.5210 0.7907 0.3215
vn -0.6181 0.7843 0.0541
vn -0.5689 0.7907 -0.2261
vn -0.3868 0.8082 -0.4440
vn -0.0868 0.9962 0.0076
vn 0.2962 -0.9548 -0.0259
vn 0.6869 -0.1508 0.7109
vn 0.7174 -0.0093 0.6966
vn 0.2590 0.0018 0.9659
vn 0.2783 0.1018 0.9551
vn -0.2509 0.1154 0.9611
vn -0.2389 0.1827 0.9537
vn -0.6983 0.1571 0.6983
vn -0.6910 0.2121 0.6910
vn -0.9611 0.1154 0.2509
vn -0.9537 0.1827 0.2389
vn -0.9659 0.0018 -0.2590
vn -0.9551 0.1018 -0.2783
vn -0.7109 -0.1508 -0.6869
vn -0.6966 -0.0093 -0.7174
vn -0.2752 -0.2985 -0.9139
vn -0.2534 -0.1202 -0.9599
vn 0.2147 -0.4026 -0.8898
vn 0.2519 -0.2008 -0.9467
vn 0.6351 -0.4396 -0.6351
vn 0.6881 -0.2300 -0.6881
vn 0.8898 -0.4026 -0.2147
vn 0.9467 -0.2008 -0.2519
vn 0.9139 -0.2985 0.2752
vn 0.9599 -0.1202 0.2534
vn 0.7162 -0.0107 0.6978
vn 0.2671 0.0051 0.9636
vn -0.2552 0.0151 0.9668
vn -0.7070 0.0185 0.7070
vn -0.9668 0.0151 0.2552
vn -0.9636 0.0051 -0.2671
vn -0.6978 -0.0107 -0.7162
vn -0.2457 -0.0292 -0.9689
vn 0.2668 -0.0443 -0.9627
vn 0.7062 -0.0502 -0.7062
vn 0.9627 -0.0443 -0.2668
vn 0.9689 -0.0292 0.2457
vn 0.1456 -0.9440 0.2962
vn -0.0071 -0.9422 0.3349
vn -0.1379 -0.9425 0.3043
vn -0.2354 -0.9430 0.2354
vn -0.3043 -0.9425 0.1379
vn -0.3349 -0.9422 0.0071
vn -0.2962 -0.9440 -0.1456
vn -0.1663 -0.9482 -0.2706
vn 0.0277 -0.9529 -0.3021
vn 0.2100 -0.9549 -0.2100
vn 0.3021 -0.9529 -0.0277
vn 0.2706 -0.9482 0.1663
vn 0.2330 -0.9091 0.3454
vn 0.0502 -0.8912 0.4508
vn -0.1611 -0.8782 0.4504
vn -0.3443 -0.8734 0.3443
vn -0.4504 -0.8782 0.1611
vn -0.4508 -0.8912 -0.0502
vn -0.3454 -0.9091 -0.2330
vn -0.1626 -0.9269 -0.3383
vn 0.0487 -0.9399 -0.3379
vn 0.2319 -0.9447 -0.2319
vn 0.3379 -0.9399 -0.0487
vn 0.3383 -0.9269 0.1626
vn 0.6712 -0.2410 0.7010
vn 0.2375 -0.1987 0.9508
vn -0.2638 -0.1677 0.9499
vn -0.6984 -0.1564 0.6984
vn -0.9499 -0.1677 0.2638
vn -0.9508 -0.1987 -0.2375
vn -0.7010 -0.2410 -0.6712
vn -0.2673 -0.2832 -0.9210
vn 0.2340 -0.3142 -0.9201
vn 0.6686 -0.3255 -0.6686
vn 0.9201 -0.3142 -0.2340
vn 0.9210 -0.2832 0.2673
vn 0.7049 -0.0299 0.7086
vn 0.2582 0.0136 0.9660
vn -0.2582 0.0455 0.9650
vn -0.7059 0.0572 0.7059
vn -0.9650 0.0455 0.2582
vn -0.9660 0.0136 -0.2582
vn -0.7086 -0.0299 -0.7049
vn -0.2619 -0.0735 -0.9623
vn 0.2545 -0.1054 -0.9613
vn 0.7022 -0.1170 -0.7022
vn 0.9613 -0.1054 -0.2545
vn 0.9623 -0.0735 0.2619
vn 0.7066 0.1808 0.6842
vn 0.2670 0.2236 0.9374
vn -0.2411 0.2550 0.9364
vn -0.6815 0.2665 0.6815
vn -0.9364 0.2550 0.2410
vn -0.9374 0.2236 -0.2670
vn -0.6842 0.1808 -0.7066
vn -0.2447 0.1379 -0.9598
vn 0.2634 0.1065 -0.9588
vn 0.7039 0.0950 -0.7039
vn 0.9588 0.1065 -0.2634
vn 0.9598 0.1379 0.2447
vn 0.6755 0.3871 0.6276
vn 0.2637 0.4272 0.8648
vn -0.2124 0.4566 0.8639
vn -0.6251 0.4674 0.6251
vn -0.8639 0.4566 0.2124
vn -0.8648 0.4272 -0.2637
vn -0.6276 0.3871 -0.6755
vn -0.2158 0.3469 -0.9127
vn 0.2603 0.3175 -0.9118
vn 0.6730 0.3068 -0.6730
vn 0.9118 0.3175 -0.2603
vn 0.9127 0.3469 0.2158
vn 0.6556 0.4601 0.5987
vn 0.2592 0.4988 0.8271
vn -0.1990 0.5271 0.8262
vn -0.5963 0.5374 0.5963
vn -0.8262 0.5271 0.1990
vn -0.8271 0.4988 -0.2592
vn -0.5987 0.4601 -0.6556
vn -0.2023 0.4215 -0.8840
vn 0.2560 0.3932 -0.8831
vn 0.6532 0.3828 -0.6532
vn 0.8831 0.3932 -0.2560
vn 0.8840 0.4215 0.2023
vn 0.6440 0.4957 0.5827
vn 0.2563 0.5335 0.8060
vn -0.1918 0.5612 0.8052
vn -0.5804 0.5713 0.5804
vn -0.8052 0.5612 0.1918
vn -0.8060 0.5335 -0.2563
vn -0.5827 0.4957 -0.6440
vn -0.1950 0.4579 -0.8674
vn 0.2531 0.4302 -0.8665
vn 0.6417 0.4201 -0.6417
vn 0.8665 0.4302 -0.2531
vn 0.8674 0.4579 0.1950
vn 0.5038 0.7604 0.4098
vn 0.2151 0.7886 0.5761
vn -0.1187 0.8092 0.5755
vn -0.4080 0.8167 0.4080
vn -0.5755 0.8092 0.1187
vn -0.5761 0.7886 -0.2151
vn -0.4098 0.7604 -0.5038
vn -0.1210 0.7323 -0.6702
vn 0.2127 0.7117 -0.6695
vn 0.5021 0.7041 -0.5021
vn 0.6695 0.7117 -0.2127
vn 0.6702 0.7323 0.1210
vn 0.0616 0.9962 -0.0616
vn -0.2102 -0.9548 0.2102
vn -0.4374 -0.1479 0.8870
vn -0.4066 -0.0123 0.9135
vn -0.8197 0.0180 0.5725
vn -0.7975 0.1183 0.5917
vn -0.9859 0.1395 0.0928
vn -0.9712 0.2133 0.1058
vn -0.8909 0.1838 -0.4154
vn -0.8780 0.2479 -0.4094
vn -0.5626 0.1395 -0.8149
vn -0.5433 0.2133 -0.8120
vn -0.0884 0.0180 -0.9959
vn -0.0593 0.1183 -0.9912
vn 0.3983 -0.1479 -0.9052
vn 0.4384 -0.0123 -0.8987
vn 0.7573 -0.3110 -0.5742
vn 0.8126 -0.1419 -0.5653
vn 0.8981 -0.4268 -0.1065
vn 0.9680 -0.2349 -0.0881
vn 0.8009 -0.4681 0.3735
vn 0.8731 -0.2684 0.4071
vn 0.4957 -0.4268 0.7564
vn 0.5548 -0.2349 0.7982
vn 0.0470 -0.3110 0.9492
vn 0.0893 -0.1419 0.9859
vn -0.4103 -0.0275 0.9115
vn -0.8137 -0.0108 0.5812
vn -0.9958 -0.0002 0.0914
vn -0.9063 0.0034 -0.4226
vn -0.5700 -0.0002 -0.8216
vn -0.0778 -0.0108 -0.9969
vn 0.4345 -0.0275 -0.9002
vn 0.8258 -0.0472 -0.5620
vn 0.9949 -0.0635 -0.0789
vn 0.9041 -0.0699 0.4216
vn 0.5791 -0.0635 0.8128
vn 0.1002 -0.0472 0.9938
vn -0.2490 -0.9246 0.2883
vn -0.3579 -0.9233 0.1394
vn -0.3825 -0.9238 -0.0197
vn -0.3461 -0.9242 -0.1614
vn -0.2609 -0.9238 -0.2803
vn -0.1233 -0.9233 -0.3638
vn 0.0608 -0.9246 -0.3761
vn 0.2452 -0.9283 -0.2797
vn 0.3521 -0.9324 -0.0813
vn 0.3231 -0.9343 0.1507
vn 0.1641 -0.9324 0.3219
vn -0.0566 -0.9283 0.3676
vn -0.2463 -0.9075 0.3403
vn -0.4092 -0.8895 0.2034
vn -0.4817 -0.8763 0.0030
vn -0.4444 -0.8715 -0.2072
vn -0.3073 -0.8763 -0.3709
vn -0.1072 -0.8895 -0.4442
vn 0.1024 -0.9075 -0.4074
vn 0.2653 -0.9254 -0.2705
vn 0.3378 -0.9386 -0.0701
vn 0.3005 -0.9434 0.1401
vn 0.1634 -0.9386 0.3038
vn -0.0367 -0.9254 0.3771
vn -0.4261 -0.3113 0.8494
vn -0.8012 -0.2699 0.5341
vn -0.9681 -0.2396 0.0726
vn -0.8823 -0.2285 -0.4114
vn -0.5667 -0.2396 -0.7883
vn -0.1058 -0.2699 -0.9570
vn 0.3768 -0.3113 -0.8724
vn 0.7518 -0.3527 -0.5571
vn 0.9188 -0.3830 -0.0956
vn 0.8330 -0.3941 0.3884
vn 0.5173 -0.3830 0.7653
vn 0.0565 -0.3527 0.9340
vn -0.4076 0.1378 0.9027
vn -0.7986 0.1810 0.5740
vn -0.9727 0.2126 0.0928
vn -0.8833 0.2241 -0.4119
vn -0.5542 0.2126 -0.8048
vn -0.0737 0.1810 -0.9807
vn 0.4295 0.1378 -0.8925
vn 0.8205 0.0946 -0.5638
vn 0.9946 0.0631 -0.0826
vn 0.9051 0.0515 0.4221
vn 0.5760 0.0631 0.8150
vn 0.0955 0.0946 0.9909
vn -0.3499 0.4201 0.8373
vn -0.7079 0.4596 0.5364
vn -0.8673 0.4885 0.0958
vn -0.7854 0.4991 -0.3662
vn -0.4841 0.4885 -0.7260
vn -0.0442 0.4596 -0.8870
vn 0.4165 0.4201 -0.8063
vn 0.7745 0.3806 -0.5053
vn 0.9339 0.3516 -0.0648
vn 0.8520 0.3410 0.3973
vn 0.5507 0.3516 0.7570
vn 0.1108 0.3806 0.9181
vn -0.3678 0.3504 0.8614
vn -0.7374 0.3912 0.5506
vn -0.9020 0.4211 0.0958
vn -0.8174 0.4320 -0.3812
vn -0.5063 0.4211 -0.7525
vn -0.0522 0.3912 -0.9188
vn 0.4234 0.3504 -0.8354
vn 0.7930 0.3096 -0.5247
vn 0.9575 0.2797 -0.0699
vn 0.8730 0.2688 0.4071
vn 0.5619 0.2797 0.7785
vn 0.1078 0.3096 0.9447
vn -0.3753 0.3182 0.8706
vn -0.7494 0.3595 0.5561
vn -0.9160 0.3897 0.0957
vn -0.8303 0.4007 -0.3872
vn -0.5155 0.3897 -0.7632
vn -0.0557 0.3595 -0.9315
vn 0.4257 0.3182 -0.8471
vn 0.7998 0.2769 -0.5325
vn 0.9664 0.2466 -0.0721
vn 0.8808 0.2356 0.4107
vn 0.5659 0.2466 0.7867
vn 0.1062 0.2769 0.9550
vn -0.3276 0.4947 0.8049
vn -0.6703 0.5326 0.5168
vn -0.8228 0.5603 0.0951
vn -0.7444 0.5704 -0.3471
vn -0.4560 0.5603 -0.6915
vn -0.0349 0.5326 -0.8457
vn 0.4060 0.4947 -0.7683
vn 0.7487 0.4569 -0.4802
vn 0.9013 0.4292 -0.0586
vn 0.8229 0.4191 0.3837
vn 0.5345 0.4292 0.7281
vn 0.1134 0.4569 0.8822
vn -0.1663 0.8322 0.5290
vn -0.3834 0.8561 0.3465
vn -0.4800 0.8737 0.0794
vn -0.4303 0.8801 -0.2007
vn -0.2477 0.8737 -0.4188
vn 0.0190 0.8561 -0.5164
vn 0.2983 0.8322 -0.4674
vn 0.5153 0.8082 -0.2850
vn 0.6120 0.7907 -0.0179
vn 0.5623 0.7843 0.2622
vn 0.3796 0.7907 0.4803
vn 0.1129 0.8082 0.5780
vn 0.0790 0.9962 0.0368
vn -0.2695 -0.9548 -0.1256
vt 0.137797 0.319881
vt 0.109681 0.420617
vt 0.132467 0.421474
vt 0.159512 0.318288
vt 0.155289 0.422188
vt 0.181388 0.316783
vt 0.178097 0.422693
vt 0.203750 0.315751
vt 0.086935 0.419715
vt 0.115860 0.320959
vt 0.064212 0.418866
vt 0.093599 0.320942
vt 0.041514 0.418140
vt 0.071360 0.319485
vt 0.101105 0.550849
vt 0.076266 0.549674
vt 0.148111 0.265927
vt 0.093304 0.666537
vt 0.120268 0.667510
vt 0.125992 0.551923
vt 0.151008 0.552562
vt 0.176090 0.552529
vt 0.051355 0.548718
vt 0.026332 0.548213
vt 0.611214 0.017756
vt 0.646842 0.014252
vt 0.799041 0.087526
vt 0.683089 0.096003
vt 0.147222 0.668316
vt 0.174230 0.668542
vt 0.066258 0.665773
vt 0.039172 0.665471
vt 0.201240 0.667871
vt 0.824218 0.118762
vt 0.694517 0.124207
vt 0.568758 0.019827
vt 0.567427 0.097182
vt 0.490860 0.013860
vt 0.526379 0.017549
vt 0.452011 0.095486
vt 0.337590 0.086455
vt 0.466778 0.007257
vt 0.232317 0.063550
vt 0.671102 0.007757
vt 0.902731 0.065004
vt 0.310212 0.117170
vt 0.439588 0.123657
vt 0.434162 0.149844
vt 0.296755 0.146815
vt 0.566943 0.124918
vt 0.176906 0.103527
vt 0.957639 0.105114
vt 0.699072 0.150422
vt 0.835454 0.148524
vt 0.827462 0.193089
vt 0.695505 0.189296
vt 0.566489 0.150375
vt 0.155173 0.142954
vt 0.979201 0.144829
vt 0.965059 0.201611
vt 0.925138 0.239327
vt 0.807448 0.224037
vt 0.566013 0.188278
vt 0.435985 0.188809
vt 0.303443 0.191689
vt 0.167221 0.199445
vt 0.863464 0.271693
vt 0.772748 0.253814
vt 0.686294 0.216822
vt 0.565533 0.214787
vt 0.444283 0.216414
vt 0.323850 0.222644
vt 0.204027 0.237483
vt 0.458637 0.244215
vt 0.565198 0.241133
vt 0.564775 0.271569
vt 0.482809 0.274699
vt 0.671537 0.244781
vt 0.356871 0.252880
vt 0.265200 0.270245
vt 0.564212 0.293888
vt 0.504932 0.296847
vt 0.784144 0.303944
vt 0.722507 0.285768
vt 0.646921 0.275310
vt 0.405696 0.285167
vt 0.343583 0.303021
vt 0.675873 0.306807
vt 0.711400 0.323099
vt 0.563439 0.337178
vt 0.623309 0.297128
vt 0.452206 0.306163
vt 0.416151 0.322332
vt 0.626320 0.354557
vt 0.654999 0.351589
vt 0.790409 0.412427
vt 0.692067 0.420563
vt 0.821728 0.442856
vt 0.705417 0.448846
vt 0.593168 0.356127
vt 0.591562 0.422312
vt 0.531719 0.351907
vt 0.560091 0.354456
vt 0.491164 0.420539
vt 0.393437 0.411934
vt 0.511767 0.346358
vt 0.301245 0.393765
vt 0.675428 0.346410
vt 0.883478 0.394356
vt 0.361062 0.442519
vt 0.476364 0.448744
vt 0.470087 0.476073
vt 0.348697 0.473183
vt 0.590951 0.450181
vt 0.246930 0.432077
vt 0.936265 0.432635
vt 0.711491 0.476078
vt 0.832507 0.473439
vt 0.826854 0.519550
vt 0.707274 0.516929
vt 0.590490 0.476559
vt 0.221056 0.470301
vt 0.960733 0.470847
vt 0.945773 0.525663
vt 0.908187 0.561686
vt 0.805347 0.550667
vt 0.590253 0.516141
vt 0.472575 0.516994
vt 0.352773 0.519655
vt 0.235425 0.525085
vt 0.853042 0.591939
vt 0.772333 0.578763
vt 0.697913 0.545121
vt 0.590102 0.543615
vt 0.482938 0.544999
vt 0.374795 0.550730
vt 0.269219 0.561977
vt 0.496251 0.571834
vt 0.589918 0.569173
vt 0.589944 0.599491
vt 0.520063 0.602131
vt 0.682864 0.571531
vt 0.407536 0.578748
vt 0.326125 0.592082
vt 0.589419 0.620149
vt 0.540553 0.622508
vt 0.780464 0.623663
vt 0.724394 0.610089
vt 0.659705 0.602076
vt 0.454299 0.610313
vt 0.398152 0.623928
vt 0.682621 0.629726
vt 0.714619 0.641980
vt 0.589410 0.655257
vt 0.638468 0.622447
vt 0.496495 0.629794
vt 0.464399 0.642124
vt 0.613545 0.677748
vt 0.649446 0.674286
vt 0.798034 0.748176
vt 0.683711 0.756027
vt 0.823763 0.779207
vt 0.694567 0.784039
vt 0.570947 0.679863
vt 0.570082 0.757263
vt 0.492586 0.674050
vt 0.528401 0.677625
vt 0.456367 0.755656
vt 0.341764 0.747468
vt 0.468190 0.667610
vt 0.235954 0.725552
vt 0.673999 0.667913
vt 0.906376 0.726644
vt 0.316781 0.778606
vt 0.445176 0.783608
vt 0.443200 0.809873
vt 0.310184 0.808397
vt 0.569939 0.784885
vt 0.186712 0.766967
vt 0.953670 0.768185
vt 0.697120 0.810148
vt 0.830861 0.809345
vt 0.803605 0.863069
vt 0.688074 0.859387
vt 0.569865 0.810370
vt 0.167013 0.806778
vt 0.970466 0.807565
vt 0.919636 0.873540
vt 0.883571 0.901692
vt 0.783635 0.888246
vt 0.569266 0.857724
vt 0.450042 0.859246
vt 0.334468 0.862541
vt 0.220119 0.871953
vt 0.842753 0.927637
vt 0.759270 0.912440
vt 0.678455 0.881806
vt 0.569049 0.879334
vt 0.459962 0.881524
vt 0.353813 0.887848
vt 0.254127 0.900540
vt 0.471301 0.903554
vt 0.568994 0.900771
vt 0.568635 0.930658
vt 0.491865 0.933720
vt 0.666364 0.903777
vt 0.377686 0.912051
vt 0.294742 0.926697
vt 0.568367 0.952962
vt 0.511611 0.955994
vt 0.781039 0.961499
vt 0.717723 0.944186
vt 0.645313 0.933872
vt 0.419788 0.943590
vt 0.354375 0.961135
vt 0.675611 0.965276
vt 0.712054 0.981231
vt 0.567970 0.996371
vt 0.625038 0.956156
vt 0.460432 0.965147
vt 0.424397 0.980837
s 1
f 1/1/1 2/2/2 4/3/4 3/4/3
f 3/4/3 4/3/4 6/5/6 5/6/5
f 5/6/5 6/5/6 8/7/8 7/8/7
f 7/8/7 8/7/8 10/5/10 9/6/9
f 9/6/9 10/5/10 12/3/12 11/4/11
f 11/4/11 12/3/12 14/2/14 13/1/13
f 13/1/13 14/2/14 16/9/16 15/10/15
f 15/10/15 16/9/16 18/11/18 17/12/17
f 17/12/17 18/11/18 20/13/20 19/14/19
f 19/14/19 20/13/20 22/11/22 21/12/21
f 16/9/16 14/2/14 31/15/31 32/16/32
f 21/12/21 22/11/22 24/9/24 23/10/23
f 23/10/23 24/9/24 2/2/2 1/1/1
f 9/6/9 11/4/11 146/17/146
f 25/15/25 36/16/36 48/18/48 37/19/37
f 14/2/14 12/3/12 30/20/30 31/15/31
f 12/3/12 10/5/10 29/21/29 30/20/30
f 10/5/10 8/7/8 28/22/28 29/21/29
f 2/2/2 24/9/24 36/16/36 25/15/25
f 4/3/4 2/2/2 25/15/25 26/20/26
f 8/7/8 6/5/6 27/21/27 28/22/28
f 24/9/24 22/11/22 35/23/35 36/16/36
f 6/5/6 4/3/4 26/20/26 27/21/27
f 22/11/22 20/13/20 34/24/34 35/23/35
f 20/13/20 18/11/18 33/23/33 34/24/34
f 18/11/18 16/9/16 32/16/32 33/23/33
f 42/25/42 41/26/41 53/27/53 54/28/54
f 27/21/27 26/20/26 38/29/38 39/30/39
f 34/24/34 33/23/33 45/31/45 46/32/46
f 31/15/31 30/20/30 42/29/42 43/19/43
f 28/22/28 27/21/27 39/30/39 40/33/40
f 35/23/35 34/24/34 46/32/46 47/31/47
f 32/16/32 31/15/31 43/19/43 44/18/44
f 29/21/29 28/22/28 40/33/40 41/30/41
f 36/16/36 35/23/35 47/31/47 48/18/48
f 26/20/26 25/15/25 37/19/37 38/29/38
f 33/23/33 32/16/32 44/18/44 45/31/45
f 30/20/30 29/21/29 41/30/41 42/29/42
f 54/28/54 53/27/53 65/34/65 66/35/66
f 37/36/37 48/25/48 60/28/60 49/37/49
f 39/38/39 38/39/38 50/40/50 51/41/51
f 46/42/46 45/38/45 57/41/57 58/43/58
f 43/36/43 42/25/42 54/28/54 55/37/55
f 40/42/40 39/38/39 51/41/51 52/43/52
f 47/26/47 46/44/46 58/45/58 59/27/59
f 44/39/44 43/36/43 55/37/55 56/40/56
f 41/26/41 40/44/40 52/45/52 53/27/53
f 48/25/48 47/26/47 59/27/59 60/28/60
f 38/39/38 37/36/37 49/37/49 50/40/50
f 45/38/45 44/39/44 56/40/56 57/41/57
f 69/46/69 68/47/68 80/48/80 81/49/81
f 49/37/49 60/28/60 72/35/72 61/50/61
f 51/41/51 50/40/50 62/47/62 63/46/63
f 58/43/58 57/41/57 69/46/69 70/51/70
f 55/37/55 54/28/54 66/35/66 67/50/67
f 52/43/52 51/41/51 63/46/63 64/51/64
f 59/27/59 58/45/58 70/52/70 71/34/71
f 56/40/56 55/37/55 67/50/67 68/47/68
f 53/27/53 52/45/52 64/52/64 65/34/65
f 60/28/60 59/27/59 71/34/71 72/35/72
f 50/40/50 49/37/49 61/50/61 62/47/62
f 57/41/57 56/40/56 68/47/68 69/46/69
f 84/53/84 83/54/83 95/55/95 96/56/96
f 66/35/66 65/34/65 77/54/77 78/53/78
f 61/50/61 72/35/72 84/53/84 73/57/73
f 63/46/63 62/47/62 74/48/74 75/49/75
f 70/51/70 69/46/69 81/49/81 82/58/82
f 67/50/67 66/35/66 78/53/78 79/57/79
f 64/51/64 63/46/63 75/49/75 76/58/76
f 71/34/71 70/52/70 82/59/82 83/54/83
f 68/47/68 67/50/67 79/57/79 80/48/80
f 65/34/65 64/52/64 76/59/76 77/54/77
f 72/35/72 71/34/71 83/54/83 84/53/84
f 62/47/62 61/50/61 73/57/73 74/48/74
f 89/55/89 88/60/88 100/61/100 101/62/101
f 74/48/74 73/57/73 85/63/85 86/64/86
f 81/49/81 80/48/80 92/64/92 93/65/93
f 78/53/78 77/54/77 89/55/89 90/56/90
f 73/57/73 84/53/84 96/56/96 85/63/85
f 75/49/75 74/48/74 86/64/86 87/65/87
f 82/58/82 81/49/81 93/65/93 94/66/94
f 79/57/79 78/53/78 90/56/90 91/63/91
f 76/58/76 75/49/75 87/65/87 88/66/88
f 83/54/83 82/59/82 94/60/94 95/55/95
f 80/48/80 79/57/79 91/63/91 92/64/92
f 77/54/77 76/59/76 88/60/88 89/55/89
f 101/62/101 100/61/100 112/67/112 113/68/113
f 96/56/96 95/55/95 107/62/107 108/69/108
f 86/64/86 85/63/85 97/70/97 98/71/98
f 93/65/93 92/64/92 104/71/104 105/72/105
f 90/56/90 89/55/89 101/62/101 102/69/102
f 85/63/85 96/56/96 108/69/108 97/70/97
f 87/65/87 86/64/86 98/71/98 99/72/99
f 94/66/94 93/65/93 105/72/105 106/73/106
f 91/63/91 90/56/90 102/69/102 103/70/103
f 88/66/88 87/65/87 99/72/99 100/73/100
f 95/55/95 94/60/94 106/61/106 107/62/107
f 92/64/92 91/63/91 103/70/103 104/71/104
f 116/74/116 115/75/115 127/76/127 128/77/128
f 108/69/108 107/62/107 119/68/119 120/78/120
f 98/71/98 97/70/97 109/75/109 110/74/110
f 105/72/105 104/71/104 116/74/116 117/79/117
f 102/69/102 101/62/101 113/68/113 114/78/114
f 97/70/97 108/69/108 120/78/120 109/75/109
f 99/72/99 98/71/98 110/74/110 111/79/111
f 106/73/106 105/72/105 117/79/117 118/80/118
f 103/70/103 102/69/102 114/78/114 115/75/115
f 100/73/100 99/72/99 111/79/111 112/80/112
f 107/62/107 106/61/106 118/67/118 119/68/119
f 104/71/104 103/70/103 115/75/115 116/74/116
f 128/77/128 127/76/127 139/81/139 140/82/140
f 113/68/113 112/67/112 124/83/124 125/84/125
f 120/78/120 119/68/119 131/84/131 132/85/132
f 110/74/110 109/75/109 121/76/121 122/77/122
f 117/79/117 116/74/116 128/77/128 129/86/129
f 114/78/114 113/68/113 125/84/125 126/85/126
f 109/75/109 120/78/120 132/85/132 121/76/121
f 111/79/111 110/74/110 122/77/122 123/86/123
f 118/80/118 117/79/117 129/86/129 130/87/130
f 115/75/115 114/78/114 126/85/126 127/76/127
f 112/80/112 111/79/111 123/86/123 124/87/124
f 119/68/119 118/67/118 130/83/130 131/84/131
f 143/88/143 142/89/142 145/90/145
f 125/84/125 124/83/124 136/89/136 137/88/137
f 132/85/132 131/84/131 143/88/143 144/91/144
f 122/77/122 121/76/121 133/81/133 134/82/134
f 129/86/129 128/77/128 140/82/140 141/92/141
f 126/85/126 125/84/125 137/88/137 138/91/138
f 121/76/121 132/85/132 144/91/144 133/81/133
f 123/86/123 122/77/122 134/82/134 135/92/135
f 130/87/130 129/86/129 141/92/141 142/93/142
f 127/76/127 126/85/126 138/91/138 139/81/139
f 124/87/124 123/86/123 135/92/135 136/93/136
f 131/84/131 130/83/130 142/89/142 143/88/143
f 15/10/15 17/12/17 146/17/146
f 140/82/140 139/81/139 145/90/145
f 137/88/137 136/89/136 145/90/145
f 144/91/144 143/88/143 145/90/145
f 134/82/134 133/81/133 145/90/145
f 141/92/141 140/82/140 145/90/145
f 138/91/138 137/88/137 145/90/145
f 133/81/133 144/91/144 145/90/145
f 135/92/135 134/82/134 145/90/145
f 142/93/142 141/92/141 145/90/145
f 139/81/139 138/91/138 145/90/145
f 136/93/136 135/92/135 145/90/145
f 17/12/17 19/14/19 146/17/146
f 19/14/19 21/12/21 146/17/146
f 3/4/3 5/6/5 146/17/146
f 21/12/21 23/10/23 146/17/146
f 5/6/5 7/8/7 146/17/146
f 1/1/1 3/4/3 146/17/146
f 23/10/23 1/1/1 146/17/146
f 7/8/7 9/6/9 146/17/146
f 13/1/13 15/10/15 146/17/146
f 11/4/11 13/1/13 146/17/146
f 147/1/147 148/2/148 150/3/150 149/4/149
f 149/4/149 150/3/150 152/5/152 151/6/151
f 151/6/151 152/5/152 154/7/154 153/8/153
f 153/8/153 154/7/154 156/5/156 155/6/155
f 155/6/155 156/5/156 158/3/158 157/4/157
f 157/4/157 158/3/158 160/2/160 159/1/159
f 159/1/159 160/2/160 162/9/162 161/10/161
f 161/10/161 162/9/162 164/11/164 163/12/163
f 163/12/163 164/11/164 166/13/166 165/14/165
f 165/14/165 166/13/166 168/11/168 167/12/167
f 162/9/162 160/2/160 177/15/177 178/16/178
f 167/12/167 168/11/168 170/9/170 169/10/169
f 169/10/169 170/9/170 148/2/148 147/1/147
f 155/6/155 157/4/157 292/17/292
f 171/15/171 182/16/182 194/18/194 183/19/183
f 160/2/160 158/3/158 176/20/176 177/15/177
f 158/3/158 156/5/156 175/21/175 176/20/176
f 156/5/156 154/7/154 174/22/174 175/21/175
f 148/2/148 170/9/170 182/16/182 171/15/171
f 150/3/150 148/2/148 171/15/171 172/20/172
f 154/7/154 152/5/152 173/21/173 174/22/174
f 170/9/170 168/11/168 181/23/181 182/16/182
f 152/5/152 150/3/150 172/20/172 173/21/173
f 168/11/168 166/13/166 180/24/180 181/23/181
f 166/13/166 164/11/164 179/23/179 180/24/180
f 164/11/164 162/9/162 178/16/178 179/23/179
f 188/94/188 187/95/187 199/96/199 200/97/200
f 173/21/173 172/20/172 184/29/184 185/30/185
f 180/24/180 179/23/179 191/31/191 192/32/192
f 177/15/177 176/20/176 188/29/188 189/19/189
f 174/22/174 173/21/173 185/30/185 186/33/186
f 181/23/181 180/24/180 192/32/192 193/31/193
f 178/16/178 177/15/177 189/19/189 190/18/190
f 175/21/175 174/22/174 186/33/186 187/30/187
f 182/16/182 181/23/181 193/31/193 194/18/194
f 172/20/172 171/15/171 183/19/183 184/29/184
f 179/23/179 178/16/178 190/18/190 191/31/191
f 176/20/176 175/21/175 187/30/187 188/29/188
f 200/97/200 199/96/199 211/98/211 212/99/212
f 183/100/183 194/94/194 206/97/206 195/101/195
f 185/102/185 184/103/184 196/104/196 197/105/197
f 192/106/192 191/102/191 203/105/203 204/107/204
f 189/100/189 188/94/188 200/97/200 201/101/201
f 186/106/186 185/102/185 197/105/197 198/107/198
f 193/95/193 192/108/192 204/109/204 205/96/205
f 190/103/190 189/100/189 201/101/201 202/104/202
f 187/95/187 186/108/186 198/109/198 199/96/199
f 194/94/194 193/95/193 205/96/205 206/97/206
f 184/103/184 183/100/183 195/101/195 196/104/196
f 191/102/191 190/103/190 202/104/202 203/105/203
f 215/110/215 214/111/214 226/112/226 227/113/227
f 195/101/195 206/97/206 218/99/218 207/114/207
f 197/105/197 196/104/196 208/111/208 209/110/209
f 204/107/204 203/105/203 215/110/215 216/115/216
f 201/101/201 200/97/200 212/99/212 213/114/213
f 198/107/198 197/105/197 209/110/209 210/115/210
f 205/96/205 204/109/204 216/116/216 217/98/217
f 202/104/202 201/101/201 213/114/213 214/111/214
f 199/96/199 198/109/198 210/116/210 211/98/211
f 206/97/206 205/96/205 217/98/217 218/99/218
f 196/104/196 195/101/195 207/114/207 208/111/208
f 203/105/203 202/104/202 214/111/214 215/110/215
f 230/117/230 229/118/229 241/119/241 242/120/242
f 212/99/212 211/98/211 223/118/223 224/117/224
f 207/114/207 218/99/218 230/117/230 219/121/219
f 209/110/209 208/111/208 220/112/220 221/113/221
f 216/115/216 215/110/215 227/113/227 228/122/228
f 213/114/213 212/99/212 224/117/224 225/121/225
f 210/115/210 209/110/209 221/113/221 222/122/222
f 217/98/217 216/116/216 228/123/228 229/118/229
f 214/111/214 213/114/213 225/121/225 226/112/226
f 211/98/211 210/116/210 222/123/222 223/118/223
f 218/99/218 217/98/217 229/118/229 230/117/230
f 208/111/208 207/114/207 219/121/219 220/112/220
f 235/119/235 234/124/234 246/125/246 247/126/247
f 220/112/220 219/121/219 231/127/231 232/128/232
f 227/113/227 226/112/226 238/128/238 239/129/239
f 224/117/224 223/118/223 235/119/235 236/120/236
f 219/121/219 230/117/230 242/120/242 231/127/231
f 221/113/221 220/112/220 232/128/232 233/129/233
f 228/122/228 227/113/227 239/129/239 240/130/240
f 225/121/225 224/117/224 236/120/236 237/127/237
f 222/122/222 221/113/221 233/129/233 234/130/234
f 229/118/229 228/123/228 240/124/240 241/119/241
f 226/112/226 225/121/225 237/127/237 238/128/238
f 223/118/223 222/123/222 234/124/234 235/119/235
f 247/126/247 246/125/246 258/131/258 259/132/259
f 242/120/242 241/119/241 253/126/253 254/133/254
f 232/128/232 231/127/231 243/134/243 244/135/244
f 239/129/239 238/128/238 250/135/250 251/136/251
f 236/120/236 235/119/235 247/126/247 248/133/248
f 231/127/231 242/120/242 254/133/254 243/134/243
f 233/129/233 232/128/232 244/135/244 245/136/245
f 240/130/240 239/129/239 251/136/251 252/137/252
f 237/127/237 236/120/236 248/133/248 249/134/249
f 234/130/234 233/129/233 245/136/245 246/137/246
f 241/119/241 240/124/240 252/125/252 253/126/253
f 238/128/238 237/127/237 249/134/249 250/135/250
f 262/138/262 261/139/261 273/140/273 274/141/274
f 254/133/254 253/126/253 265/132/265 266/142/266
f 244/135/244 243/134/243 255/139/255 256/138/256
f 251/136/251 250/135/250 262/138/262 263/143/263
f 248/133/248 247/126/247 259/132/259 260/142/260
f 243/134/243 254/133/254 266/142/266 255/139/255
f 245/136/245 244/135/244 256/138/256 257/143/257
f 252/137/252 251/136/251 263/143/263 264/144/264
f 249/134/249 248/133/248 260/142/260 261/139/261
f 246/137/246 245/136/245 257/143/257 258/144/258
f 253/126/253 252/125/252 264/131/264 265/132/265
f 250/135/250 249/134/249 261/139/261 262/138/262
f 274/141/274 273/140/273 285/145/285 286/146/286
f 259/132/259 258/131/258 270/147/270 271/148/271
f 266/142/266 265/132/265 277/148/277 278/149/278
f 256/138/256 255/139/255 267/140/267 268/141/268
f 263/143/263 262/138/262 274/141/274 275/150/275
f 260/142/260 259/132/259 271/148/271 272/149/272
f 255/139/255 266/142/266 278/149/278 267/140/267
f 257/143/257 256/138/256 268/141/268 269/150/269
f 264/144/264 263/143/263 275/150/275 276/151/276
f 261/139/261 260/142/260 272/149/272 273/140/273
f 258/144/258 257/143/257 269/150/269 270/151/270
f 265/132/265 264/131/264 276/147/276 277/148/277
f 289/152/289 288/153/288 291/154/291
f 271/148/271 270/147/270 282/153/282 283/152/283
f 278/149/278 277/148/277 289/152/289 290/155/290
f 268/141/268 267/140/267 279/145/279 280/146/280
f 275/150/275 274/141/274 286/146/286 287/156/287
f 272/149/272 271/148/271 283/152/283 284/155/284
f 267/140/267 278/149/278 290/155/290 279/145/279
f 269/150/269 268/141/268 280/146/280 281/156/281
f 276/151/276 275/150/275 287/156/287 288/157/288
f 273/140/273 272/149/272 284/155/284 285/145/285
f 270/151/270 269/150/269 281/156/281 282/157/282
f 277/148/277 276/147/276 288/153/288 289/152/289
f 161/10/161 163/12/163 292/17/292
f 286/146/286 285/145/285 291/154/291
f 283/152/283 282/153/282 291/154/291
f 290/155/290 289/152/289 291/154/291
f 280/146/280 279/145/279 291/154/291
f 287/156/287 286/146/286 291/154/291
f 284/155/284 283/152/283 291/154/291
f 279/145/279 290/155/290 291/154/291
f 281/156/281 280/146/280 291/154/291
f 288/157/288 287/156/287 291/154/291
f 285/145/285 284/155/284 291/154/291
f 282/157/282 281/156/281 291/154/291
f 163/12/163 165/14/165 292/17/292
f 165/14/165 167/12/167 292/17/292
f 149/4/149 151/6/151 292/17/292
f 167/12/167 169/10/169 292/17/292
f 151/6/151 153/8/153 292/17/292
f 147/1/147 149/4/149 292/17/292
f 169/10/169 147/1/147 292/17/292
f 153/8/153 155/6/155 292/17/292
f 159/1/159 161/10/161 292/17/292
f 157/4/157 159/1/159 292/17/292
f 293/1/293 294/2/294 296/3/296 295/4/295
f 295/4/295 296/3/296 298/5/298 297/6/297
f 297/6/297 298/5/298 300/7/300 299/8/299
f 299/8/299 300/7/300 302/5/302 301/6/301
f 301/6/301 302/5/302 304/3/304 303/4/303
f 303/4/303 304/3/304 306/2/306 305/1/305
f 305/1/305 306/2/306 308/9/308 307/10/307
f 307/10/307 308/9/308 310/11/310 309/12/309
f 309/12/309 310/11/310 312/13/312 311/14/311
f 311/14/311 312/13/312 314/11/314 313/12/313
f 308/9/308 306/2/306 323/15/323 324/16/324
f 313/12/313 314/11/314 316/9/316 315/10/315
f 315/10/315 316/9/316 294/2/294 293/1/293
f 301/6/301 303/4/303 438/17/438
f 317/15/317 328/16/328 340/18/340 329/19/329
f 306/2/306 304/3/304 322/20/322 323/15/323
f 304/3/304 302/5/302 321/21/321 322/20/322
f 302/5/302 300/7/300 320/22/320 321/21/321
f 294/2/294 316/9/316 328/16/328 317/15/317
f 296/3/296 294/2/294 317/15/317 318/20/318
f 300/7/300 298/5/298 319/21/319 320/22/320
f 316/9/316 314/11/314 327/23/327 328/16/328
f 298/5/298 296/3/296 318/20/318 319/21/319
f 314/11/314 312/13/312 326/24/326 327/23/327
f 312/13/312 310/11/310 325/23/325 326/24/326
f 310/11/310 308/9/308 324/16/324 325/23/325
f 334/158/334 333/159/333 345/160/345 346/161/346
f 319/21/319 318/20/318 330/29/330 331/30/331
f 326/24/326 325/23/325 337/31/337 338/32/338
f 323/15/323 322/20/322 334/29/334 335/19/335
f 320/22/320 319/21/319 331/30/331 332/33/332
f 327/23/327 326/24/326 338/32/338 339/31/339
f 324/16/324 323/15/323 335/19/335 336/18/336
f 321/21/321 320/22/320 332/33/332 333/30/333
f 328/16/328 327/23/327 339/31/339 340/18/340
f 318/20/318 317/15/317 329/19/329 330/29/330
f 325/23/325 324/16/324 336/18/336 337/31/337
f 322/20/322 321/21/321 333/30/333 334/29/334
f 346/161/346 345/160/345 357/162/357 358/163/358
f 329/164/329 340/158/340 352/161/352 341/165/341
f 331/166/331 330/167/330 342/168/342 343/169/343
f 338/170/338 337/166/337 349/169/349 350/171/350
f 335/164/335 334/158/334 346/161/346 347/165/347
f 332/170/332 331/166/331 343/169/343 344/171/344
f 339/159/339 338/172/338 350/173/350 351/160/351
f 336/167/336 335/164/335 347/165/347 348/168/348
f 333/159/333 332/172/332 344/173/344 345/160/345
f 340/158/340 339/159/339 351/160/351 352/161/352
f 330/167/330 329/164/329 341/165/341 342/168/342
f 337/166/337 336/167/336 348/168/348 349/169/349
f 361/174/361 360/175/360 372/176/372 373/177/373
f 341/165/341 352/161/352 364/163/364 353/178/353
f 343/169/343 342/168/342 354/175/354 355/174/355
f 350/171/350 349/169/349 361/174/361 362/179/362
f 347/165/347 346/161/346 358/163/358 359/178/359
f 344/171/344 343/169/343 355/174/355 356/179/356
f 351/160/351 350/173/350 362/180/362 363/162/363
f 348/168/348 347/165/347 359/178/359 360/175/360
f 345/160/345 344/173/344 356/180/356 357/162/357
f 352/161/352 351/160/351 363/162/363 364/163/364
f 342/168/342 341/165/341 353/178/353 354/175/354
f 349/169/349 348/168/348 360/175/360 361/174/361
f 376/181/376 375/182/375 387/183/387 388/184/388
f 358/163/358 357/162/357 369/182/369 370/181/370
f 353/178/353 364/163/364 376/181/376 365/185/365
f 355/174/355 354/175/354 366/176/366 367/177/367
f 362/179/362 361/174/361 373/177/373 374/186/374
f 359/178/359 358/163/358 370/181/370 371/185/371
f 356/179/356 355/174/355 367/177/367 368/186/368
f 363/162/363 362/180/362 374/187/374 375/182/375
f 360/175/360 359/178/359 371/185/371 372/176/372
f 357/162/357 356/180/356 368/187/368 369/182/369
f 364/163/364 363/162/363 375/182/375 376/181/376
f 354/175/354 353/178/353 365/185/365 366/176/366
f 381/183/381 380/188/380 392/189/392 393/190/393
f 366/176/366 365/185/365 377/191/377 378/192/378
f 373/177/373 372/176/372 384/192/384 385/193/385
f 370/181/370 369/182/369 381/183/381 382/184/382
f 365/185/365 376/181/376 388/184/388 377/191/377
f 367/177/367 366/176/366 378/192/378 379/193/379
f 374/186/374 373/177/373 385/193/385 386/194/386
f 371/185/371 370/181/370 382/184/382 383/191/383
f 368/186/368 367/177/367 379/193/379 380/194/380
f 375/182/375 374/187/374 386/188/386 387/183/387
f 372/176/372 371/185/371 383/191/383 384/192/384
f 369/182/369 368/187/368 380/188/380 381/183/381
f 393/190/393 392/189/392 404/195/404 405/196/405
f 388/184/388 387/183/387 399/190/399 400/197/400
f 378/192/378 377/191/377 389/198/389 390/199/390
f 385/193/385 384/192/384 396/199/396 397/200/397
f 382/184/382 381/183/381 393/190/393 394/197/394
f 377/191/377 388/184/388 400/197/400 389/198/389
f 379/193/379 378/192/378 390/199/390 391/200/391
f 386/194/386 385/193/385 397/200/397 398/201/398
f 383/191/383 382/184/382 394/197/394 395/198/395
f 380/194/380 379/193/379 391/200/391 392/201/392
f 387/183/387 386/188/386 398/189/398 399/190/399
f 384/192/384 383/191/383 395/198/395 396/199/396
f 408/202/408 407/203/407 419/204/419 420/205/420
f 400/197/400 399/190/399 411/196/411 412/206/412
f 390/199/390 389/198/389 401/203/401 402/202/402
f 397/200/397 396/199/396 408/202/408 409/207/409
f 394/197/394 393/190/393 405/196/405 406/206/406
f 389/198/389 400/197/400 412/206/412 401/203/401
f 391/200/391 390/199/390 402/202/402 403/207/403
f 398/201/398 397/200/397 409/207/409 410/208/410
f 395/198/395 394/197/394 406/206/406 407/203/407
f 392/201/392 391/200/391 403/207/403 404/208/404
f 399/190/399 398/189/398 410/195/410 411/196/411
f 396/199/396 395/198/395 407/203/407 408/202/408
f 420/205/420 419/204/419 431/209/431 432/210/432
f 405/196/405 404/195/404 416/211/416 417/212/417
f 412/206/412 411/196/411 423/212/423 424/213/424
f 402/202/402 401/203/401 413/204/413 414/205/414
f 409/207/409 408/202/408 420/205/420 421/214/421
f 406/206/406 405/196/405 417/212/417 418/213/418
f 401/203/401 412/206/412 424/213/424 413/204/413
f 403/207/403 402/202/402 414/205/414 415/214/415
f 410/208/410 409/207/409 421/214/421 422/215/422
f 407/203/407 406/206/406 418/213/418 419/204/419
f 404/208/404 403/207/403 415/214/415 416/215/416
f 411/196/411 410/195/410 422/211/422 423/212/423
f 435/216/435 434/217/434 437/218/437
f 417/212/417 416/211/416 428/217/428 429/216/429
f 424/213/424 423/212/423 435/216/435 436/219/436
f 414/205/414 413/204/413 425/209/425 426/210/426
f 421/214/421 420/205/420 432/210/432 433/220/433
f 418/213/418 417/212/417 429/216/429 430/219/430
f 413/204/413 424/213/424 436/219/436 425/209/425
f 415/214/415 414/205/414 426/210/426 427/220/427
f 422/215/422 421/214/421 433/220/433 434/221/434
f 419/204/419 418/213/418 430/219/430 431/209/431
f 416/215/416 415/214/415 427/220/427 428/221/428
f 423/212/423 422/211/422 434/217/434 435/216/435
f 307/10/307 309/12/309 438/17/438
f 432/210/432 431/209/431 437/218/437
f 429/216/429 428/217/428 437/218/437
f 436/219/436 435/216/435 437/218/437
f 426/210/426 425/209/425 437/218/437
f 433/220/433 432/210/432 437/218/437
f 430/219/430 429/216/429 437/218/437
f 425/209/425 436/219/436 437/218/437
f 427/220/427 426/210/426 437/218/437
f 434/221/434 433/220/433 437/218/437
f 431/209/431 430/219/430 437/218/437
f 428/221/428 427/220/427 437/218/437
f 309/12/309 311/14/311 438/17/438
f 311/14/311 313/12/313 438/17/438
f 295/4/295 297/6/297 438/17/438
f 313/12/313 315/10/315 438/17/438
f 297/6/297 299/8/299 438/17/438
f 293/1/293 295/4/295 438/17/438
f 315/10/315 293/1/293 438/17/438
f 299/8/299 301/6/301 438/17/438
f 305/1/305 307/10/307 438/17/438
f 303/4/303 305/1/305 438/17/438
