# Blender 4.4.3
# www.blender.org
o amantia_muscaria.003
v -0.044800 -0.000903 -0.000000
v -0.033600 0.095097 -0.000000
v -0.038798 -0.000903 -0.022400
v -0.029098 0.095097 -0.016800
v -0.022400 -0.000903 -0.038798
v -0.016800 0.095097 -0.029098
v 0.000000 -0.000903 -0.044800
v 0.000000 0.095097 -0.033600
v 0.022400 -0.000903 -0.038798
v 0.016800 0.095097 -0.029098
v 0.038798 -0.000903 -0.022400
v 0.029098 0.095097 -0.016800
v 0.044800 -0.000903 0.000000
v 0.033600 0.095097 0.000000
v 0.038798 -0.000903 0.022400
v 0.029098 0.095097 0.016800
v 0.022400 -0.000903 0.038798
v 0.016800 0.095097 0.029098
v 0.000000 -0.000903 0.044800
v 0.000000 0.095097 0.033600
v -0.022400 -0.000903 0.038798
v -0.016800 0.095097 0.029098
v -0.038798 -0.000903 0.022400
v -0.029098 0.095097 0.016800
v -0.031360 -0.029703 -0.000000
v -0.027159 -0.029703 -0.015680
v -0.015680 -0.029703 -0.027159
v 0.000000 -0.029703 -0.031360
v 0.015680 -0.029703 -0.027159
v 0.027159 -0.029703 -0.015680
v 0.031360 -0.029703 0.000000
v 0.027159 -0.029703 0.015680
v 0.015680 -0.029703 0.027159
v 0.000000 -0.029703 0.031360
v -0.015680 -0.029703 0.027159
v -0.027159 -0.029703 0.015680
v -0.024461 0.252017 -0.000000
v -0.021184 0.252017 -0.012230
v -0.012230 0.252017 -0.021184
v 0.000000 0.252017 -0.024461
v 0.012230 0.252017 -0.021184
v 0.021184 0.252017 -0.012230
v 0.024461 0.252017 0.000000
v 0.021184 0.252017 0.012230
v 0.012230 0.252017 0.021184
v 0.000000 0.252017 0.024461
v -0.012230 0.252017 0.021184
v -0.021184 0.252017 0.012230
v -0.175718 0.264296 -0.000000
v -0.152177 0.264296 -0.087859
v -0.087859 0.264296 -0.152177
v 0.000000 0.264296 -0.175718
v 0.087859 0.264296 -0.152177
v 0.152177 0.264296 -0.087859
v 0.175718 0.264296 0.000000
v 0.152177 0.264296 0.087859
v 0.087859 0.264296 0.152177
v -0.000000 0.264296 0.175718
v -0.087859 0.264296 0.152177
v -0.152177 0.264296 0.087859
v -0.193290 0.270456 -0.000000
v -0.167394 0.270456 -0.096645
v -0.096645 0.270456 -0.167394
v 0.000000 0.270456 -0.193290
v 0.096645 0.270456 -0.167394
v 0.167394 0.270456 -0.096645
v 0.193290 0.270456 0.000000
v 0.167394 0.270456 0.096645
v 0.096645 0.270456 0.167394
v -0.000000 0.270456 0.193290
v -0.096645 0.270456 0.167394
v -0.167394 0.270456 0.096645
v -0.193290 0.286976 -0.000000
v -0.167394 0.286976 -0.096645
v -0.096645 0.286976 -0.167394
v 0.000000 0.286976 -0.193290
v 0.096645 0.286976 -0.167394
v 0.167394 0.286976 -0.096645
v 0.193290 0.286976 0.000000
v 0.167394 0.286976 0.096645
v 0.096645 0.286976 0.167394
v -0.000000 0.286976 0.193290
v -0.096645 0.286976 0.167394
v -0.167394 0.286976 0.096645
v -0.173961 0.320576 -0.000000
v -0.150655 0.320576 -0.086981
v -0.086981 0.320576 -0.150655
v 0.000000 0.320576 -0.173961
v 0.086981 0.320576 -0.150655
v 0.150655 0.320576 -0.086981
v 0.173961 0.320576 0.000000
v 0.150655 0.320576 0.086981
v 0.086981 0.320576 0.150655
v -0.000000 0.320576 0.173961
v -0.086981 0.320576 0.150655
v -0.150655 0.320576 0.086981
v -0.135690 0.348576 -0.000000
v -0.117511 0.348576 -0.067845
v -0.067845 0.348576 -0.117511
v 0.000000 0.348576 -0.135690
v 0.067845 0.348576 -0.117511
v 0.117511 0.348576 -0.067845
v 0.135690 0.348576 0.000000
v 0.117511 0.348576 0.067845
v 0.067845 0.348576 0.117511
v -0.000000 0.348576 0.135690
v -0.067845 0.348576 0.117511
v -0.117511 0.348576 0.067845
v 0.000000 0.370976 0.000000
v 0.000000 -0.039303 0.000000
v -0.071296 0.365838 -0.000000
v 0.035648 0.365838 0.061744
v -0.061744 0.365838 -0.035648
v -0.061744 0.365838 0.035648
v 0.035648 0.365838 -0.061744
v 0.061744 0.365838 0.035648
v -0.035648 0.365838 0.061744
v -0.000000 0.365838 0.071296
v 0.000000 0.365838 -0.071296
v -0.035648 0.365838 -0.061744
v 0.071296 0.365838 0.000000
v 0.061744 0.365838 -0.035648
v -0.014364 0.162617 -0.024879
v -0.018144 0.167417 -0.031426
v -0.014280 0.213497 -0.024734
v 0.000000 0.213497 -0.028560
v 0.000000 0.167417 -0.036288
v 0.000000 0.162617 -0.028728
v -0.014364 0.162617 0.024879
v -0.018144 0.167417 0.031426
v -0.014280 0.213497 0.024734
v -0.024734 0.213497 0.014280
v -0.031426 0.167417 0.018144
v -0.024879 0.162617 0.014364
v -0.024879 0.162617 -0.014364
v -0.031426 0.167417 -0.018144
v -0.024734 0.213497 -0.014280
v 0.000000 0.162617 0.028728
v 0.000000 0.167417 0.036288
v 0.000000 0.213497 0.028560
v 0.014364 0.162617 0.024879
v 0.018144 0.167417 0.031426
v 0.014280 0.213497 0.024734
v 0.024879 0.162617 0.014364
v 0.031426 0.167417 0.018144
v 0.024734 0.213497 0.014280
v 0.028728 0.162617 0.000000
v 0.036288 0.167417 0.000000
v 0.028560 0.213497 0.000000
v 0.024879 0.162617 -0.014364
v 0.031426 0.167417 -0.018144
v 0.024734 0.213497 -0.014280
v 0.014364 0.162617 -0.024879
v 0.018144 0.167417 -0.031426
v 0.014280 0.213497 -0.024734
v -0.028560 0.213497 -0.000000
v -0.036288 0.167417 -0.000000
v -0.028728 0.162617 -0.000000
v -0.038416 0.047097 -0.000000
v -0.033269 0.047097 -0.019208
v -0.019208 0.047097 -0.033269
v 0.000000 0.047097 -0.038416
v 0.019208 0.047097 -0.033269
v 0.033269 0.047097 -0.019208
v 0.038416 0.047097 0.000000
v 0.033269 0.047097 0.019208
v 0.019208 0.047097 0.033269
v 0.000000 0.047097 0.038416
v -0.019208 0.047097 0.033269
v -0.033269 0.047097 0.019208
vn -0.9894 -0.1451 -0.0000
vn -0.9963 0.0861 -0.0000
vn -0.8569 -0.1451 -0.4947
vn -0.8628 0.0861 -0.4981
vn -0.4947 -0.1451 -0.8569
vn -0.4981 0.0861 -0.8628
vn -0.0000 -0.1451 -0.9894
vn -0.0000 0.0861 -0.9963
vn 0.4947 -0.1451 -0.8569
vn 0.4981 0.0861 -0.8628
vn 0.8569 -0.1451 -0.4947
vn 0.8628 0.0861 -0.4981
vn 0.9894 -0.1451 -0.0000
vn 0.9963 0.0861 -0.0000
vn 0.8569 -0.1451 0.4947
vn 0.8628 0.0861 0.4981
vn 0.4947 -0.1451 0.8569
vn 0.4981 0.0861 0.8628
vn -0.0000 -0.1451 0.9894
vn -0.0000 0.0861 0.9963
vn -0.4947 -0.1451 0.8569
vn -0.4981 0.0861 0.8628
vn -0.8569 -0.1451 0.4947
vn -0.8628 0.0861 0.4981
vn -0.6913 -0.7226 -0.0000
vn -0.5987 -0.7226 -0.3456
vn -0.3456 -0.7226 -0.5987
vn -0.0000 -0.7226 -0.6913
vn 0.3456 -0.7226 -0.5987
vn 0.5987 -0.7226 -0.3456
vn 0.6913 -0.7226 -0.0000
vn 0.5987 -0.7226 0.3456
vn 0.3456 -0.7226 0.5987
vn -0.0000 -0.7226 0.6913
vn -0.3456 -0.7226 0.5987
vn -0.5987 -0.7226 0.3456
vn -0.7117 -0.7025 -0.0000
vn -0.6164 -0.7025 -0.3559
vn -0.3559 -0.7025 -0.6164
vn -0.0000 -0.7025 -0.7117
vn 0.3559 -0.7025 -0.6164
vn 0.6164 -0.7025 -0.3559
vn 0.7117 -0.7025 -0.0000
vn 0.6164 -0.7025 0.3559
vn 0.3559 -0.7025 0.6164
vn -0.0000 -0.7025 0.7117
vn -0.3559 -0.7025 0.6164
vn -0.6164 -0.7025 0.3559
vn -0.2277 -0.9737 -0.0000
vn -0.1972 -0.9737 -0.1139
vn -0.1139 -0.9737 -0.1972
vn -0.0000 -0.9737 -0.2277
vn 0.1139 -0.9737 -0.1972
vn 0.1972 -0.9737 -0.1139
vn 0.2277 -0.9737 -0.0000
vn 0.1972 -0.9737 0.1139
vn 0.1139 -0.9737 0.1972
vn -0.0000 -0.9737 0.2277
vn -0.1139 -0.9737 0.1972
vn -0.1972 -0.9737 0.1139
vn -0.8434 -0.5373 -0.0000
vn -0.7304 -0.5373 -0.4217
vn -0.4217 -0.5373 -0.7304
vn -0.0000 -0.5373 -0.8434
vn 0.4217 -0.5373 -0.7304
vn 0.7304 -0.5373 -0.4217
vn 0.8434 -0.5373 -0.0000
vn 0.7304 -0.5373 0.4217
vn 0.4217 -0.5373 0.7304
vn -0.0000 -0.5373 0.8434
vn -0.4217 -0.5373 0.7304
vn -0.7304 -0.5373 0.4217
vn -0.9687 0.2480 -0.0000
vn -0.8390 0.2480 -0.4844
vn -0.4844 0.2480 -0.8390
vn -0.0000 0.2480 -0.9687
vn 0.4844 0.2480 -0.8390
vn 0.8390 0.2480 -0.4844
vn 0.9687 0.2480 -0.0000
vn 0.8390 0.2480 0.4844
vn 0.4844 0.2480 0.8390
vn -0.0000 0.2480 0.9687
vn -0.4844 0.2480 0.8390
vn -0.8390 0.2480 0.4844
vn -0.7593 0.6507 -0.0000
vn -0.6576 0.6507 -0.3797
vn -0.3796 0.6507 -0.6576
vn -0.0000 0.6507 -0.7593
vn 0.3796 0.6507 -0.6576
vn 0.6576 0.6507 -0.3796
vn 0.7593 0.6507 -0.0000
vn 0.6576 0.6507 0.3797
vn 0.3796 0.6507 0.6576
vn -0.0000 0.6507 0.7593
vn -0.3797 0.6507 0.6576
vn -0.6576 0.6507 0.3796
vn -0.4563 0.8898 -0.0000
vn -0.3951 0.8898 -0.2281
vn -0.2281 0.8898 -0.3951
vn -0.0000 0.8898 -0.4563
vn 0.2281 0.8898 -0.3951
vn 0.3951 0.8898 -0.2281
vn 0.4563 0.8898 -0.0000
vn 0.3951 0.8898 0.2281
vn 0.2281 0.8898 0.3951
vn -0.0000 0.8898 0.4563
vn -0.2281 0.8898 0.3951
vn -0.3951 0.8898 0.2281
vn -0.0000 1.0000 -0.0000
vn -0.0000 -1.0000 -0.0000
vn -0.1814 0.9834 -0.0000
vn 0.0907 0.9834 0.1571
vn -0.1571 0.9834 -0.0907
vn -0.1571 0.9834 0.0907
vn 0.0907 0.9834 -0.1571
vn 0.1571 0.9834 0.0907
vn -0.0907 0.9834 0.1571
vn -0.0000 0.9834 0.1814
vn -0.0000 0.9834 -0.1814
vn -0.0907 0.9834 -0.1571
vn 0.1814 0.9834 -0.0000
vn 0.1571 0.9834 -0.0907
vn -0.4365 -0.4876 -0.7561
vn -0.4631 -0.3768 -0.8022
vn -0.4953 0.1363 -0.8579
vn -0.0000 0.1363 -0.9907
vn -0.0000 -0.3768 -0.9263
vn -0.0000 -0.4876 -0.8731
vn -0.4365 -0.4876 0.7561
vn -0.4631 -0.3768 0.8022
vn -0.4953 0.1363 0.8579
vn -0.8579 0.1363 0.4953
vn -0.8022 -0.3768 0.4631
vn -0.7561 -0.4876 0.4365
vn -0.7561 -0.4876 -0.4365
vn -0.8022 -0.3768 -0.4631
vn -0.8579 0.1363 -0.4953
vn -0.0000 -0.4876 0.8731
vn -0.0000 -0.3768 0.9263
vn -0.0000 0.1363 0.9907
vn 0.4365 -0.4876 0.7561
vn 0.4631 -0.3768 0.8022
vn 0.4953 0.1363 0.8579
vn 0.7561 -0.4876 0.4365
vn 0.8022 -0.3768 0.4631
vn 0.8579 0.1363 0.4953
vn 0.8731 -0.4876 -0.0000
vn 0.9263 -0.3768 -0.0000
vn 0.9907 0.1363 -0.0000
vn 0.7561 -0.4876 -0.4365
vn 0.8022 -0.3768 -0.4631
vn 0.8579 0.1363 -0.4953
vn 0.4365 -0.4876 -0.7561
vn 0.4631 -0.3768 -0.8022
vn 0.4953 0.1363 -0.8579
vn -0.9907 0.1363 -0.0000
vn -0.9263 -0.3768 -0.0000
vn -0.8731 -0.4876 -0.0000
vn -0.9932 0.1162 -0.0000
vn -0.8602 0.1162 -0.4966
vn -0.4966 0.1162 -0.8602
vn -0.0000 0.1162 -0.9932
vn 0.4966 0.1162 -0.8602
vn 0.8602 0.1162 -0.4966
vn 0.9932 0.1162 -0.0000
vn 0.8602 0.1162 0.4966
vn 0.4966 0.1162 0.8602
vn -0.0000 0.1162 0.9932
vn -0.4966 0.1162 0.8602
vn -0.8602 0.1162 0.4966
vt 0.707932 0.192371
vt 0.692285 0.271159
vt 0.629322 0.266973
vt 0.637620 0.193853
vt 0.564699 0.265608
vt 0.568662 0.197766
vt 0.499701 0.265149
vt 0.500766 0.198746
vt 0.435120 0.264987
vt 0.432885 0.197463
vt 0.371653 0.265688
vt 0.364534 0.194683
vt 0.309697 0.269084
vt 0.293065 0.192158
vt 0.498852 0.388047
vt 0.553415 0.388862
vt 0.549653 0.429947
vt 0.498569 0.429014
vt 0.430649 0.129938
vt 0.357415 0.123678
vt 0.387751 0.070586
vt 0.444127 0.082648
vt 0.658344 0.045747
vt 0.611136 0.070298
vt 0.500060 0.007725
vt 0.645918 0.120734
vt 0.572624 0.129923
vt 0.557312 0.082106
vt 0.501832 0.132343
vt 0.500849 0.086547
vt 0.723580 0.113584
vt 0.276433 0.115232
vt 0.343714 0.047047
vt 0.672439 0.452491
vt 0.723986 0.433935
vt 0.946608 0.567354
vt 0.797384 0.595574
vt 0.390508 0.390049
vt 0.444367 0.388382
vt 0.447449 0.429513
vt 0.396793 0.431502
vt 0.607383 0.391037
vt 0.600070 0.432392
vt 0.498852 0.388047
vt 0.660296 0.395330
vt 0.649633 0.436720
vt 0.337715 0.393665
vt 0.390508 0.390049
vt 0.347055 0.435192
vt 0.337715 0.393665
vt 0.660296 0.395330
vt 0.355040 0.597778
vt 0.500525 0.594873
vt 0.500826 0.617195
vt 0.350912 0.620179
vt 0.405222 0.454272
vt 0.499552 0.456301
vt 0.332071 0.452345
vt 0.205635 0.593113
vt 0.594347 0.456846
vt 0.646783 0.597147
vt 0.282385 0.437055
vt 0.061479 0.558632
vt 0.650836 0.619867
vt 0.653618 0.662762
vt 0.500638 0.659007
vt 0.970291 0.603650
vt 0.806478 0.620620
vt 0.195681 0.617626
vt 0.037974 0.593971
vt 0.647831 0.740975
vt 0.500789 0.734781
vt 0.347724 0.663092
vt 0.990710 0.673532
vt 0.814614 0.668486
vt 0.188502 0.665371
vt 0.011867 0.660801
vt 0.044314 0.778666
vt 0.200860 0.754811
vt 0.251463 0.837982
vt 0.135767 0.881566
vt 0.354026 0.740834
vt 0.950796 0.788752
vt 0.798137 0.757374
vt 0.299353 0.959649
vt 0.348902 0.922836
vt 0.497686 0.990175
vt 0.624018 0.816903
vt 0.499630 0.810097
vt 0.374758 0.817435
vt 0.856259 0.887727
vt 0.746116 0.841109
vt 0.499220 0.896553
vt 0.577190 0.902536
vt 0.420371 0.901904
vt 0.646162 0.922671
vt 0.693060 0.959596
vt 0.681622 0.312549
vt 0.622009 0.308328
vt 0.670959 0.353939
vt 0.614696 0.349683
vt 0.377938 0.307141
vt 0.319037 0.310611
vt 0.384223 0.348595
vt 0.328376 0.352138
vt 0.499418 0.306115
vt 0.438202 0.306119
vt 0.499135 0.347081
vt 0.441284 0.347250
vt 0.328376 0.352138
vt 0.681622 0.312549
vt 0.670959 0.353939
vt 0.560937 0.306693
vt 0.557176 0.347777
vt 0.499418 0.306115
vt 0.499135 0.347081
s 1
f 159/1/159 2/2/2 4/3/4 160/4/160
f 160/4/160 4/3/4 6/5/6 161/6/161
f 161/6/161 6/5/6 8/7/8 162/8/162
f 162/8/162 8/7/8 10/9/10 163/10/163
f 163/10/163 10/9/10 12/11/12 164/12/164
f 164/12/164 12/11/12 14/13/14 165/14/165
f 165/1/165 14/2/14 16/3/16 166/4/166
f 166/4/166 16/3/16 18/5/18 167/6/167
f 167/6/167 18/5/18 20/7/20 168/8/168
f 168/8/168 20/7/20 22/9/22 169/10/169
f 126/15/126 125/16/125 39/17/39 40/18/40
f 169/10/169 22/9/22 24/11/24 170/12/170
f 170/12/170 24/11/24 2/13/2 159/14/159
f 21/19/21 23/20/23 36/21/36 35/22/35
f 31/23/31 32/24/32 110/25/110
f 3/26/3 5/27/5 27/28/27 26/24/26
f 19/29/19 21/19/21 35/22/35 34/30/34
f 17/27/17 19/29/19 34/30/34 33/28/33
f 15/26/15 17/27/17 33/28/33 32/24/32
f 13/31/13 15/26/15 32/24/32 31/23/31
f 11/20/11 13/32/13 31/33/31 30/21/30
f 9/19/9 11/20/11 30/21/30 29/22/29
f 7/29/7 9/19/9 29/22/29 28/30/28
f 23/20/23 1/32/1 25/33/25 36/21/36
f 1/31/1 3/26/3 26/24/26 25/23/25
f 5/27/5 7/29/7 28/30/28 27/28/27
f 44/34/44 43/35/43 55/36/55 56/37/56
f 132/38/132 131/39/131 47/40/47 48/41/48
f 125/16/125 137/42/137 38/43/38 39/17/39
f 131/39/131 140/44/140 46/18/46 47/40/47
f 140/44/140 143/16/143 45/17/45 46/18/46
f 143/16/143 146/42/146 44/43/44 45/17/45
f 146/42/146 149/45/149 43/46/43 44/43/44
f 149/47/149 152/48/152 42/41/42 43/49/43
f 152/48/152 155/39/155 41/40/41 42/41/42
f 155/39/155 126/15/126 40/18/40 41/40/41
f 156/50/156 132/38/132 48/41/48 37/49/37
f 137/42/137 156/51/156 37/46/37 38/43/38
f 59/52/59 58/53/58 70/54/70 71/55/71
f 41/56/41 40/57/40 52/53/52 53/52/53
f 48/58/48 47/56/47 59/52/59 60/59/60
f 38/34/38 37/35/37 49/36/49 50/37/50
f 45/60/45 44/34/44 56/37/56 57/61/57
f 42/58/42 41/56/41 53/52/53 54/59/54
f 37/62/37 48/58/48 60/59/60 49/63/49
f 39/60/39 38/34/38 50/37/50 51/61/51
f 46/57/46 45/60/45 57/61/57 58/53/58
f 43/62/43 42/58/42 54/59/54 55/63/55
f 40/57/40 39/60/39 51/61/51 52/53/52
f 47/56/47 46/57/46 58/53/58 59/52/59
f 64/54/64 63/64/63 75/65/75 76/66/76
f 56/37/56 55/36/55 67/67/67 68/68/68
f 53/52/53 52/53/52 64/54/64 65/55/65
f 60/59/60 59/52/59 71/55/71 72/69/72
f 50/37/50 49/36/49 61/67/61 62/68/62
f 57/61/57 56/37/56 68/68/68 69/64/69
f 54/59/54 53/52/53 65/55/65 66/69/66
f 49/63/49 60/59/60 72/69/72 61/70/61
f 51/61/51 50/37/50 62/68/62 63/64/63
f 58/53/58 57/61/57 69/64/69 70/54/70
f 55/63/55 54/59/54 66/69/66 67/70/67
f 52/53/52 51/61/51 63/64/63 64/54/64
f 76/66/76 75/65/75 87/71/87 88/72/88
f 71/55/71 70/54/70 82/66/82 83/73/83
f 68/68/68 67/67/67 79/74/79 80/75/80
f 65/55/65 64/54/64 76/66/76 77/73/77
f 72/69/72 71/55/71 83/73/83 84/76/84
f 62/68/62 61/67/61 73/74/73 74/75/74
f 69/64/69 68/68/68 80/75/80 81/65/81
f 66/69/66 65/55/65 77/73/77 78/76/78
f 61/70/61 72/69/72 84/76/84 73/77/73
f 63/64/63 62/68/62 74/75/74 75/65/75
f 70/54/70 69/64/69 81/65/81 82/66/82
f 67/70/67 66/69/66 78/76/78 79/77/79
f 91/78/91 90/79/90 102/80/102 103/81/103
f 83/73/83 82/66/82 94/72/94 95/82/95
f 80/75/80 79/74/79 91/83/91 92/84/92
f 77/73/77 76/66/76 88/72/88 89/82/89
f 84/76/84 83/73/83 95/82/95 96/79/96
f 74/75/74 73/74/73 85/83/85 86/84/86
f 81/65/81 80/75/80 92/84/92 93/71/93
f 78/76/78 77/73/77 89/82/89 90/79/90
f 73/77/73 84/76/84 96/79/96 85/78/85
f 75/65/75 74/75/74 86/84/86 87/71/87
f 82/66/82 81/65/81 93/71/93 94/72/94
f 79/77/79 78/76/78 90/79/90 91/78/91
f 121/85/121 122/86/122 109/87/109
f 88/72/88 87/71/87 99/88/99 100/89/100
f 95/82/95 94/72/94 106/89/106 107/90/107
f 92/84/92 91/83/91 103/91/103 104/92/104
f 89/82/89 88/72/88 100/89/100 101/90/101
f 96/79/96 95/82/95 107/90/107 108/80/108
f 86/84/86 85/83/85 97/91/97 98/92/98
f 93/71/93 92/84/92 104/92/104 105/88/105
f 90/79/90 89/82/89 101/90/101 102/80/102
f 85/78/85 96/79/96 108/80/108 97/81/97
f 87/71/87 86/84/86 98/92/98 99/88/99
f 94/72/94 93/71/93 105/88/105 106/89/106
f 119/93/119 120/94/120 109/87/109
f 117/95/117 118/93/118 109/87/109
f 116/96/116 121/97/121 109/87/109
f 115/95/115 119/93/119 109/87/109
f 114/86/114 117/95/117 109/87/109
f 113/96/113 111/97/111 109/87/109
f 112/94/112 116/96/116 109/87/109
f 122/86/122 115/95/115 109/87/109
f 111/85/111 114/86/114 109/87/109
f 120/94/120 113/96/113 109/87/109
f 118/93/118 112/94/112 109/87/109
f 28/30/28 29/22/29 110/25/110
f 35/22/35 36/21/36 110/25/110
f 25/23/25 26/24/26 110/25/110
f 32/24/32 33/28/33 110/25/110
f 29/22/29 30/21/30 110/25/110
f 36/21/36 25/33/25 110/25/110
f 26/24/26 27/28/27 110/25/110
f 33/28/33 34/30/34 110/25/110
f 30/21/30 31/33/31 110/25/110
f 27/28/27 28/30/28 110/25/110
f 34/30/34 35/22/35 110/25/110
f 106/89/106 105/88/105 112/94/112 118/93/118
f 99/88/99 98/92/98 113/96/113 120/94/120
f 97/81/97 108/80/108 114/86/114 111/85/111
f 102/80/102 101/90/101 115/95/115 122/86/122
f 105/88/105 104/92/104 116/96/116 112/94/112
f 98/92/98 97/91/97 111/97/111 113/96/113
f 108/80/108 107/90/107 117/95/117 114/86/114
f 101/90/101 100/89/100 119/93/119 115/95/115
f 104/92/104 103/91/103 121/97/121 116/96/116
f 107/90/107 106/89/106 118/93/118 117/95/117
f 100/89/100 99/88/99 120/94/120 119/93/119
f 103/81/103 102/80/102 122/86/122 121/85/121
f 4/3/4 2/2/2 158/98/158 135/99/135
f 135/99/135 158/98/158 157/100/157 136/101/136
f 136/101/136 157/100/157 156/51/156 137/42/137
f 2/13/2 24/11/24 134/102/134 158/103/158
f 158/103/158 134/102/134 133/104/133 157/105/157
f 157/105/157 133/104/133 132/38/132 156/50/156
f 10/9/10 8/7/8 128/106/128 153/107/153
f 153/107/153 128/106/128 127/108/127 154/109/154
f 154/109/154 127/108/127 126/15/126 155/39/155
f 12/11/12 10/9/10 153/107/153 150/102/150
f 150/102/150 153/107/153 154/109/154 151/104/151
f 151/104/151 154/109/154 155/39/155 152/48/152
f 14/13/14 12/11/12 150/102/150 147/103/147
f 147/103/147 150/102/150 151/104/151 148/110/148
f 148/110/148 151/104/151 152/48/152 149/47/149
f 16/3/16 14/2/14 147/111/147 144/99/144
f 144/99/144 147/111/147 148/112/148 145/101/145
f 145/101/145 148/112/148 149/45/149 146/42/146
f 18/5/18 16/3/16 144/99/144 141/113/141
f 141/113/141 144/99/144 145/101/145 142/114/142
f 142/114/142 145/101/145 146/42/146 143/16/143
f 20/7/20 18/5/18 141/113/141 138/115/138
f 138/115/138 141/113/141 142/114/142 139/116/139
f 139/116/139 142/114/142 143/16/143 140/44/140
f 22/9/22 20/7/20 138/115/138 129/107/129
f 129/107/129 138/115/138 139/116/139 130/109/130
f 130/109/130 139/116/139 140/44/140 131/39/131
f 6/5/6 4/3/4 135/99/135 123/113/123
f 123/113/123 135/99/135 136/101/136 124/114/124
f 124/114/124 136/101/136 137/42/137 125/16/125
f 24/11/24 22/9/22 129/107/129 134/102/134
f 134/102/134 129/107/129 130/109/130 133/104/133
f 133/104/133 130/109/130 131/39/131 132/38/132
f 8/7/8 6/5/6 123/113/123 128/106/128
f 128/106/128 123/113/123 124/114/124 127/108/127
f 127/108/127 124/114/124 125/16/125 126/15/126
f 23/20/23 170/12/170 159/14/159 1/32/1
f 21/19/21 169/10/169 170/12/170 23/20/23
f 19/29/19 168/8/168 169/10/169 21/19/21
f 17/27/17 167/6/167 168/8/168 19/29/19
f 15/26/15 166/4/166 167/6/167 17/27/17
f 13/31/13 165/1/165 166/4/166 15/26/15
f 11/20/11 164/12/164 165/14/165 13/32/13
f 9/19/9 163/10/163 164/12/164 11/20/11
f 7/29/7 162/8/162 163/10/163 9/19/9
f 5/27/5 161/6/161 162/8/162 7/29/7
f 3/26/3 160/4/160 161/6/161 5/27/5
f 1/31/1 159/1/159 160/4/160 3/26/3
