# Blender 4.2.2 LTS
# www.blender.org
mtllib Doorslide.mtl
o Slide.L
v -0.900000 0.000000 0.100000
v -0.900000 3.500000 0.100000
v -1.400000 0.000000 0.100000
v -1.400000 3.000000 0.100000
v 0.000000 0.000000 0.100000
v 0.000000 3.500000 0.100000
v -0.900000 0.000000 -0.100000
v -0.900000 3.500000 -0.100000
v -1.400000 0.000000 -0.100000
v -1.400000 3.000000 -0.100000
v 0.000000 0.000000 -0.100000
v 0.000000 3.500000 -0.100000
vn -0.0000 -0.0000 1.0000
vn 1.0000 -0.0000 -0.0000
vn -0.0000 -0.0000 -1.0000
vt 0.619171 0.009519
vt 0.619171 0.925793
vt 0.824052 0.925793
vt 0.824052 0.009519
vt 0.937875 0.794897
vt 0.937875 0.009519
vt 0.239192 0.988780
vt 0.190618 0.988780
vt 0.190618 0.011220
vt 0.239192 0.011220
s 0
f 5/1/1 6/2/1 2/3/1 1/4/1
f 1/4/1 2/3/1 4/5/1 3/6/1
f 12/7/2 6/8/2 5/9/2 11/10/2
f 11/1/3 7/4/3 8/3/3 12/2/3
f 7/4/3 9/6/3 10/5/3 8/3/3
