# Blender 4.2.2 LTS
# www.blender.org
mtllib Doorframe.mtl
o Doorframe
v -0.900000 3.500000 0.200000
v 0.900000 3.500000 0.200000
v -1.400000 0.000000 0.200000
v -1.400000 3.000000 0.200000
v 1.400000 0.000000 0.200000
v 1.400000 3.000000 0.200000
v -1.600000 0.000000 0.200000
v -1.600000 3.100000 0.200000
v 1.600000 0.000000 0.200000
v 1.600000 3.100000 0.200000
v -1.000000 3.700000 0.200000
v 1.000000 3.700000 0.200000
v -0.900000 3.500000 -0.200000
v 0.900000 3.500000 -0.200000
v -1.400000 0.000000 -0.200000
v -1.400000 3.000000 -0.200000
v 1.400000 0.000000 -0.200000
v 1.400000 3.000000 -0.200000
v -1.600000 0.000000 -0.200000
v -1.600000 3.100000 -0.200000
v 1.600000 0.000000 -0.200000
v 1.600000 3.100000 -0.200000
v -1.000000 3.700000 -0.200000
v 1.000000 3.700000 -0.200000
vn -1.0000 -0.0000 -0.0000
vn -0.7071 0.7071 -0.0000
vn -0.0000 -0.0000 1.0000
vn 1.0000 -0.0000 -0.0000
vn -0.0000 1.0000 -0.0000
vn -0.0000 -1.0000 -0.0000
vn 0.7071 -0.7071 -0.0000
vn -0.7071 -0.7071 -0.0000
vn -0.0000 -0.0000 -1.0000
vn 0.7071 0.7071 -0.0000
vt 0.011163 0.011069
vt 0.045530 0.011069
vt 0.045530 0.316611
vt 0.011163 0.316611
vt 0.045530 0.393023
vt 0.011163 0.393023
vt 0.942628 0.805552
vt 0.942628 0.008460
vt 0.988837 0.008460
vt 0.988836 0.832122
vt 0.045530 0.988931
vt 0.011163 0.988931
vt 0.011163 0.683389
vt 0.045530 0.683389
vt 0.295713 0.008461
vt 0.295713 0.805552
vt 0.249505 0.832121
vt 0.249505 0.008461
vt 0.045530 0.606977
vt 0.011163 0.606977
vt 0.850211 0.991540
vt 0.827107 0.938400
vt 0.070226 0.392970
vt 0.104592 0.392970
vt 0.104592 0.606924
vt 0.070226 0.606924
vt 0.411233 0.938400
vt 0.388129 0.991540
vt 0.070226 0.011016
vt 0.104592 0.011016
vt 0.104592 0.316558
vt 0.070226 0.316558
vt 0.104592 0.683336
vt 0.070226 0.683336
vt 0.104592 0.988984
vt 0.070226 0.988984
vt 0.295713 0.805552
vt 0.249505 0.832121
vt 0.249505 0.008461
vt 0.295713 0.008461
vt 0.942629 0.008460
vt 0.942628 0.805552
vt 0.411233 0.938400
vt 0.388129 0.991540
s 0
f 19/1/1 7/2/1 8/3/1 20/4/1
f 11/5/2 23/6/2 20/4/2 8/3/2
f 6/7/3 5/8/3 9/9/3 10/10/3
f 9/11/4 21/12/4 22/13/4 10/14/4
f 3/15/3 4/16/3 8/17/3 7/18/3
f 12/19/5 24/20/5 23/6/5 11/5/5
f 10/10/3 12/21/3 2/22/3 6/7/3
f 14/23/6 2/24/6 1/25/6 13/26/6
f 1/27/3 2/22/3 12/21/3 11/28/3
f 11/28/3 8/17/3 4/16/3 1/27/3
f 17/29/1 5/30/1 6/31/1 18/32/1
f 13/26/7 1/25/7 4/33/7 16/34/7
f 18/32/8 6/31/8 2/24/8 14/23/8
f 16/34/4 4/33/4 3/35/4 15/36/4
f 18/37/9 22/38/9 21/39/9 17/40/9
f 15/41/9 19/9/9 20/10/9 16/42/9
f 22/38/9 18/37/9 14/43/9 24/44/9
f 13/22/9 23/21/9 24/44/9 14/43/9
f 23/21/9 13/22/9 16/42/9 20/10/9
f 10/14/10 22/13/10 24/20/10 12/19/10
