# Blender 4.4.3
# www.blender.org
mtllib score_lock_frame.mtl
o Cube
v 1.000000 1.000000 -0.100000
v 1.000000 -1.000000 -0.100000
v 0.900000 0.900000 0.150000
v 0.900000 -0.900000 0.150000
v -1.000000 1.000000 -0.100000
v -1.000000 -1.000000 -0.100000
v -0.900000 0.900000 0.150000
v -0.900000 -0.900000 0.150000
v -1.000000 -1.000000 0.150000
v -1.000000 1.000000 0.150000
v 1.000000 1.000000 0.150000
v 1.000000 -1.000000 0.150000
v 0.900000 0.900000 0.100000
v 0.900000 -0.900000 0.100000
v -0.900000 0.900000 0.100000
v -0.900000 -0.900000 0.100000
vn -0.0000 1.0000 -0.0000
vn -1.0000 -0.0000 -0.0000
vn -0.0000 -1.0000 -0.0000
vn 1.0000 -0.0000 -0.0000
vn -0.0000 -0.0000 -1.0000
vn -0.0000 -0.0000 1.0000
vt 0.077856 0.922671
vt 0.922671 0.922144
vt 0.953003 0.952821
vt 0.047179 0.953003
vt 0.016170 0.015873
vt 0.015873 0.983830
vt 0.000100 0.999900
vt 0.000100 0.000100
vt 0.952821 0.046997
vt 0.922144 0.077329
vt 0.077329 0.077856
vt 0.046997 0.047179
vt 0.984127 0.016170
vt 0.983830 0.984127
vt 0.999900 0.000100
vt 0.999900 0.999900
vt 0.000100 0.999900
vt 0.000100 0.000100
vt 0.999900 0.999900
vt 0.999900 0.000100
s 0
g Cube_Frame
usemtl Frame
f 1/1/1 5/2/1 10/3/1 11/4/1
f 4/5/2 3/6/2 13/7/2 14/8/2
f 9/9/2 10/3/2 5/2/2 6/10/2
f 6/10/3 2/11/3 12/12/3 9/9/3
f 2/11/4 1/1/4 11/4/4 12/12/4
f 6/10/5 5/2/5 1/1/5 2/11/5
f 8/13/6 7/14/6 10/3/6 9/9/6
f 3/6/6 4/5/6 12/12/6 11/4/6
f 7/14/6 3/6/6 11/4/6 10/3/6
f 4/5/6 8/13/6 9/9/6 12/12/6
f 3/6/3 7/14/3 15/19/3 13/7/3
f 7/14/4 8/13/4 16/20/4 15/19/4
f 8/13/1 4/5/1 14/8/1 16/20/1
g Cube_ViewPort
usemtl ViewPort
f 14/15/6 13/16/6 15/17/6 16/18/6
