# Blender 5.0.1
# www.blender.org
o head
v -0.188744 0.315845 0.198639
v -0.185089 -0.158053 -0.288328
v -0.189212 0.289736 -0.241775
v 0.188037 0.315845 0.198639
v 0.196061 -0.164413 -0.301064
v 0.189169 0.289736 -0.241775
v -0.220488 -0.189711 -0.239583
v -0.235095 -0.204988 -0.173384
v -0.226807 -0.198048 -0.093130
v -0.218256 0.090144 0.208129
v -0.211939 0.249008 0.211766
v -0.211898 0.338406 0.141157
v -0.226513 0.342684 0.067458
v -0.231677 0.332311 -0.032595
v -0.226877 0.327401 -0.119310
v -0.212514 0.313038 -0.183248
v -0.212765 0.230374 -0.265425
v -0.210868 0.151045 -0.308014
v -0.226159 0.099019 -0.284153
v -0.235277 0.032842 -0.278414
v -0.220671 -0.102842 -0.268230
v 0.128079 -0.180654 -0.310944
v 0.069075 -0.203640 -0.340220
v -0.000022 -0.199441 -0.329805
v -0.065417 -0.194697 -0.325044
v -0.128122 -0.180654 -0.310944
v -0.137984 0.324679 -0.276706
v -0.070504 0.339860 -0.291876
v -0.000022 0.332243 -0.284308
v 0.066678 0.327394 -0.279455
v 0.130627 0.313037 -0.265088
v 0.212722 0.230374 -0.265425
v 0.210633 0.151045 -0.308014
v 0.226367 0.099019 -0.284153
v 0.235233 0.032842 -0.278414
v 0.207392 -0.101817 -0.256075
v 0.226763 -0.198048 -0.093130
v 0.235051 -0.204988 -0.173384
v 0.207575 -0.179667 -0.232003
v 0.224110 0.324677 -0.190533
v 0.239285 0.339853 -0.123042
v 0.231633 0.332311 -0.032595
v 0.239649 0.356461 0.070712
v 0.224726 0.351001 0.148242
v 0.224685 0.252585 0.225847
v 0.205528 0.131327 0.195413
v 0.137976 0.350468 0.235677
v 0.070320 0.365687 0.250895
v -0.000354 0.370837 0.256045
v -0.071028 0.365687 0.250895
v -0.130634 0.338939 0.221736
v 0.162295 0.361615 -0.208929
v 0.177525 0.384503 -0.132895
v 0.182726 0.392248 -0.032801
v 0.177596 0.401424 0.080100
v 0.153271 0.372618 0.158931
v 0.082318 0.373974 -0.212439
v 0.092056 0.403241 -0.135145
v 0.095353 0.413222 -0.032234
v 0.096957 0.436956 0.086663
v 0.086688 0.416057 0.178677
v -0.000022 0.384283 -0.216513
v -0.000022 0.434467 -0.142005
v -0.000022 0.428242 -0.032181
v -0.000354 0.431907 0.086230
v -0.000354 0.409028 0.174490
v -0.086819 0.389144 -0.221042
v -0.092100 0.403241 -0.135145
v -0.095397 0.413222 -0.032234
v -0.092205 0.418128 0.083880
v -0.082449 0.398753 0.170423
v -0.154090 0.347763 -0.200924
v -0.177569 0.384503 -0.132895
v -0.182769 0.392248 -0.032801
v -0.178304 0.401424 0.080100
v -0.163114 0.388451 0.166541
v -0.150988 -0.212891 -0.249473
v -0.165189 -0.234149 -0.178787
v -0.179214 -0.256762 -0.085156
v -0.080703 -0.238576 -0.260757
v -0.090245 -0.267253 -0.185019
v -0.093517 -0.277087 -0.093000
v -0.000022 -0.264363 -0.273579
v -0.000022 -0.280789 -0.187274
v -0.000022 -0.309669 -0.105275
v 0.080660 -0.238576 -0.260757
v 0.090202 -0.267253 -0.185019
v 0.098622 -0.294189 -0.095242
v 0.150945 -0.212891 -0.249473
v 0.174132 -0.249194 -0.182897
v 0.169995 -0.241415 -0.083086
v 0.140788 0.184177 0.245940
v 0.067287 0.227212 0.291731
v 0.002110 0.243464 0.313038
v -0.092078 0.201710 0.265823
v -0.160365 0.186548 0.245078
v 0.147752 0.272525 0.245953
v 0.075727 0.287014 0.267608
v -0.000354 0.291930 0.274957
v -0.080784 0.292076 0.286249
v -0.156931 0.276843 0.263321
v 0.241195 -0.123891 -0.183673
v 0.262746 -0.107310 -0.092855
v 0.283547 0.016343 -0.199004
v 0.296158 -0.014003 -0.075222
v 0.306026 0.002723 -0.013035
v 0.251872 0.122356 -0.210038
v 0.281109 0.122229 -0.139611
v 0.309012 0.120956 -0.064411
v 0.281252 0.112646 0.046958
v 0.251886 0.052347 0.117768
v 0.230900 0.186010 -0.220788
v 0.302293 0.194195 -0.115407
v 0.312334 0.197643 -0.033326
v 0.291251 0.195429 0.069710
v 0.247484 0.124827 0.134936
v 0.260942 0.263198 -0.188747
v 0.283916 0.278160 -0.112816
v 0.291823 0.283033 -0.032155
v 0.267533 0.285246 0.076207
v 0.262139 0.277821 0.157131
v -0.145600 -0.125393 -0.309119
v -0.074897 -0.139530 -0.330362
v -0.000022 -0.146161 -0.355507
v 0.078545 -0.141106 -0.347909
v 0.145556 -0.125393 -0.309119
v -0.148237 -0.047714 -0.329250
v -0.068913 -0.063849 -0.327770
v 0.016754 -0.068829 -0.358148
v 0.089083 -0.063852 -0.362648
v 0.159606 -0.060620 -0.314338
v -0.166217 0.076030 -0.348755
v -0.082963 0.021314 -0.387510
v 0.002403 0.030624 -0.403833
v 0.100536 0.038835 -0.383071
v 0.169720 0.063658 -0.343751
v -0.148462 0.141830 -0.362280
v -0.072712 0.129497 -0.377518
v -0.000117 0.123460 -0.388485
v 0.072477 0.129497 -0.377518
v 0.140453 0.147121 -0.345312
v -0.156352 0.223559 -0.313197
v -0.080323 0.238789 -0.336082
v -0.000022 0.233328 -0.329321
v 0.076188 0.228410 -0.321957
v 0.148331 0.213918 -0.300259
v -0.279283 -0.113326 -0.096829
v -0.257125 -0.127606 -0.191278
v -0.306069 0.002723 -0.013035
v -0.296202 -0.014003 -0.075222
v -0.267459 0.015121 -0.191112
v -0.251929 0.042347 0.117768
v -0.281296 0.112646 0.046958
v -0.309055 0.120956 -0.064411
v -0.298597 0.121371 -0.143963
v -0.251916 0.122356 -0.210038
v -0.263450 0.115695 0.143287
v -0.274295 0.193297 0.064189
v -0.312377 0.197643 -0.033326
v -0.319808 0.196058 -0.119317
v -0.231336 0.186010 -0.220788
v -0.246147 0.271547 0.148541
v -0.268241 0.285246 0.076207
v -0.291866 0.283033 -0.032155
v -0.283960 0.278160 -0.112816
v -0.260985 0.263198 -0.188747
v -0.007187 0.255361 -0.193831
v -0.106281 -0.182000 0.152000
v -0.145800 0.202000 0.152000
v -0.123464 -0.172000 -0.162000
v 0.106296 -0.182000 0.152000
v 0.145800 0.202000 0.152000
v 0.123466 -0.172000 -0.162000
v -0.135386 -0.187643 -0.134973
v -0.144108 -0.199088 -0.094993
v -0.149426 -0.216065 -0.053005
v -0.151212 -0.238409 -0.010000
v -0.134483 -0.256065 0.033005
v -0.111650 -0.269088 0.104993
v -0.104889 -0.257643 0.144973
v -0.143890 -0.126252 0.149231
v -0.171881 -0.076336 0.146314
v -0.176458 -0.013005 0.126065
v -0.178568 0.034986 0.135762
v -0.176458 0.083005 0.166065
v -0.170179 0.124993 0.159088
v -0.159878 0.164973 0.167643
v -0.159878 0.217643 0.114973
v -0.170179 0.229088 0.074993
v -0.176458 0.236065 0.033005
v -0.178568 0.040000 -0.198409
v -0.166029 -0.013005 -0.196065
v -0.160121 -0.074993 -0.189088
v -0.135386 -0.134973 -0.177643
v 0.095246 -0.187643 -0.187643
v 0.064776 -0.199088 -0.199088
v 0.032776 -0.206065 -0.206065
v 0.000001 -0.208409 -0.208409
v -0.032774 -0.206065 -0.206065
v -0.064775 -0.199088 -0.199088
v -0.095245 -0.187643 -0.187643
v 0.178568 0.040000 -0.198409
v 0.166029 -0.013005 -0.196065
v 0.160121 -0.074993 -0.189088
v 0.135387 -0.134973 -0.177643
v 0.104904 -0.257643 0.144973
v 0.111658 -0.269088 0.104993
v 0.134485 -0.256065 0.033005
v 0.151214 -0.238409 -0.010000
v 0.149427 -0.216065 -0.053005
v 0.144110 -0.199088 -0.094993
v 0.135387 -0.187643 -0.134973
v 0.176458 0.236065 0.033005
v 0.170179 0.229088 0.074993
v 0.159878 0.217643 0.114973
v 0.159878 0.164973 0.167643
v 0.170179 0.124993 0.159088
v 0.176458 0.083005 0.166065
v 0.178568 0.034986 0.135762
v 0.176458 -0.013005 0.126065
v 0.171881 -0.076336 0.146314
v 0.143891 -0.126252 0.149231
v -0.075571 -0.182462 0.174269
v -0.044586 -0.189302 0.188938
v -0.022547 -0.193472 0.197880
v 0.000128 -0.195291 0.201785
v 0.022892 -0.194664 0.200450
v 0.044730 -0.189682 0.189756
v 0.075621 -0.182462 0.174269
v 0.112476 0.217643 0.167643
v 0.076494 0.229088 0.179088
v 0.038704 0.236065 0.186065
v 0.000000 0.238409 0.188409
v -0.038704 0.236065 0.186065
v -0.076494 0.229088 0.179088
v -0.112476 0.217643 0.167643
v 0.137469 0.254669 0.084127
v 0.126879 0.238980 0.127841
v 0.088889 0.256633 0.137596
v 0.046079 0.268842 0.143764
v 0.000000 0.273304 0.145889
v -0.046079 0.268842 0.143764
v -0.088889 0.256633 0.137596
v -0.137469 0.254669 0.084127
v -0.126879 0.238980 0.127841
v -0.107441 -0.208980 -0.147841
v -0.116409 -0.224669 -0.104127
v -0.121894 -0.244265 -0.057741
v -0.123739 -0.267493 -0.010000
v -0.109704 -0.284265 0.037741
v -0.090186 -0.294669 0.114127
v -0.083237 -0.278980 0.157841
v -0.075271 -0.226633 -0.157596
v -0.083028 -0.246988 -0.111206
v -0.087787 -0.269478 -0.061457
v -0.089391 -0.293688 -0.010000
v -0.087787 -0.309478 0.041457
v -0.071470 -0.316988 0.121206
v -0.064792 -0.296633 0.167596
v -0.039019 -0.238842 -0.163764
v -0.043653 -0.263160 -0.115780
v -0.046503 -0.288120 -0.063886
v -0.047465 -0.313169 -0.010000
v -0.046503 -0.328120 0.043886
v -0.037573 -0.333160 0.125780
v -0.033584 -0.308842 0.173764
v 0.000001 -0.243304 -0.165889
v 0.000001 -0.269233 -0.117378
v 0.000001 -0.295201 -0.064741
v 0.000001 -0.320592 -0.010000
v 0.000001 -0.335201 0.044741
v 0.000008 -0.339233 0.127378
v 0.000024 -0.313390 0.175975
v 0.039021 -0.238842 -0.163764
v 0.043654 -0.263160 -0.115780
v 0.046505 -0.288120 -0.063886
v 0.047467 -0.313169 -0.010000
v 0.046505 -0.328120 0.043886
v 0.037588 -0.333160 0.125780
v 0.033716 -0.309478 0.174403
v 0.075273 -0.226633 -0.157596
v 0.083030 -0.246988 -0.111206
v 0.087789 -0.269478 -0.061457
v 0.089393 -0.293688 -0.010000
v 0.087789 -0.309478 0.041457
v 0.071485 -0.316988 0.121206
v 0.064808 -0.296633 0.167596
v 0.107443 -0.208980 -0.147841
v 0.116411 -0.224669 -0.104127
v 0.121895 -0.244265 -0.057741
v 0.123741 -0.267493 -0.010000
v 0.109706 -0.284265 0.037741
v 0.090201 -0.294669 0.114127
v 0.083253 -0.278980 0.157841
v 0.111653 -0.119463 0.171844
v 0.076244 -0.132743 0.214669
v 0.038682 -0.139988 0.224313
v 0.000001 -0.142361 0.227493
v -0.038670 -0.139939 0.224265
v -0.076242 -0.132743 0.214669
v -0.111651 -0.119463 0.171844
v 0.124866 -0.077656 0.164955
v 0.085620 -0.088943 0.186988
v 0.046311 -0.095188 0.239478
v 0.000000 -0.117293 0.283688
v -0.046311 -0.095188 0.239478
v -0.085620 -0.088943 0.186988
v -0.124866 -0.077656 0.164955
v 0.124549 -0.021199 0.138842
v 0.085682 -0.027278 0.173160
v 0.048498 -0.028423 0.214107
v 0.000000 -0.032281 0.263169
v -0.048498 -0.028423 0.214107
v -0.085682 -0.027278 0.173160
v -0.124549 -0.021199 0.138842
v 0.126270 0.029533 0.146691
v 0.078279 0.025481 0.149673
v 0.044340 0.027404 0.158453
v 0.000000 0.030000 0.229291
v -0.044340 0.027404 0.158453
v -0.078279 0.025481 0.149673
v -0.126270 0.029533 0.146691
v 0.124549 0.081199 0.198842
v 0.085682 0.077278 0.223160
v 0.048498 0.081018 0.238120
v 0.000000 0.082281 0.243169
v -0.048498 0.081018 0.238120
v -0.085682 0.077278 0.223160
v -0.124549 0.081199 0.198842
v 0.132836 0.128765 0.186633
v 0.091085 0.128943 0.206988
v 0.046311 0.135188 0.219478
v 0.000000 0.137293 0.223688
v -0.046311 0.135188 0.219478
v -0.091085 0.128943 0.206988
v -0.132836 0.128765 0.186633
v 0.124057 0.180976 0.188980
v 0.084715 0.192743 0.204669
v 0.042967 0.199939 0.214265
v 0.000000 0.202361 0.217493
v -0.042967 0.199939 0.214265
v -0.084715 0.192743 0.204669
v -0.124057 0.180976 0.188980
v 0.151650 -0.150976 -0.137841
v 0.163607 -0.162743 -0.094127
v 0.170919 -0.179939 -0.047741
v 0.180316 -0.192361 0.000000
v 0.159981 -0.209939 0.047741
v 0.162755 -0.202743 0.084127
v 0.145057 -0.180976 0.127841
v 0.183447 -0.088765 -0.147596
v 0.200684 -0.098943 -0.101206
v 0.211260 -0.105188 -0.051457
v 0.216974 -0.107293 0.000000
v 0.213373 -0.105188 0.041457
v 0.215422 -0.098943 0.071206
v 0.196919 -0.088765 0.117596
v 0.193786 -0.021199 -0.153764
v 0.214379 -0.027278 -0.105780
v 0.227047 -0.031018 -0.053886
v 0.231322 -0.032281 -0.010000
v 0.227047 -0.031018 0.033886
v 0.227844 -0.027278 0.065780
v 0.205958 -0.021199 0.103764
v 0.209974 0.040000 -0.155889
v 0.226311 0.040000 -0.107378
v 0.233043 0.040000 -0.054741
v 0.237608 0.040000 -0.013242
v 0.233043 0.040000 0.026025
v 0.226311 0.040000 0.063398
v 0.209974 0.040000 0.107058
v 0.205958 0.091199 -0.153764
v 0.221009 0.097278 -0.105780
v 0.234069 0.101018 -0.053886
v 0.238477 0.102281 0.000000
v 0.234069 0.101018 0.033886
v 0.221009 0.097278 0.075780
v 0.205958 0.091199 0.123764
v 0.213289 0.148943 -0.101206
v 0.224530 0.155188 -0.051457
v 0.228319 0.157293 0.000000
v 0.224530 0.155188 0.031457
v 0.213289 0.148943 0.071206
v 0.194969 0.138765 0.117596
v 0.201838 0.199939 -0.047741
v 0.204744 0.202361 0.000000
v 0.201838 0.199939 0.037741
v 0.193202 0.192743 0.084127
v 0.179082 0.180976 0.127841
v -0.105052 -0.150976 -0.198980
v 0.105054 -0.150976 -0.198980
v -0.145056 -0.180976 0.127841
v -0.162753 -0.202743 0.084127
v -0.159979 -0.209939 0.047741
v -0.180314 -0.192361 0.000000
v -0.170918 -0.179939 -0.047741
v -0.163605 -0.162743 -0.094127
v -0.151648 -0.150976 -0.137841
v -0.196919 -0.088765 0.117596
v -0.215422 -0.098943 0.071206
v -0.213373 -0.105188 0.041457
v -0.216973 -0.107293 0.000000
v -0.211260 -0.105188 -0.051457
v -0.200684 -0.098943 -0.101206
v -0.183447 -0.088765 -0.147596
v -0.205958 -0.021199 0.103764
v -0.227844 -0.027278 0.065780
v -0.227047 -0.031018 0.033886
v -0.231322 -0.032281 -0.010000
v -0.227047 -0.031018 -0.053886
v -0.214379 -0.027278 -0.105780
v -0.193786 -0.021199 -0.153764
v -0.209974 0.040000 0.107058
v -0.226311 0.040000 0.063398
v -0.233043 0.040000 0.026025
v -0.237608 0.040000 -0.013242
v -0.233043 0.040000 -0.054741
v -0.226311 0.040000 -0.107378
v -0.209974 0.040000 -0.155889
v -0.205958 0.091199 0.123764
v -0.221009 0.097278 0.075780
v -0.234069 0.101018 0.033886
v -0.238477 0.102281 0.000000
v -0.234069 0.101018 -0.053886
v -0.221009 0.097278 -0.105780
v -0.205958 0.091199 -0.153764
v -0.194969 0.138765 0.117596
v -0.213289 0.148943 0.071206
v -0.224530 0.155188 0.031457
v -0.228319 0.157293 0.000000
v -0.224530 0.155188 -0.051457
v -0.213289 0.148943 -0.101206
v -0.179082 0.180976 0.127841
v -0.193202 0.192743 0.084127
v -0.201838 0.199939 0.037741
v -0.204744 0.202361 0.000000
v -0.201838 0.199939 -0.047741
v -0.056296 -0.207839 0.195024
v -0.029218 -0.216546 0.204626
v -0.000010 -0.220026 0.208568
v 0.029482 -0.217569 0.206474
v 0.056403 -0.208042 0.195455
v 0.061081 -0.171686 0.212544
v 0.030625 -0.176845 0.221388
v 0.000115 -0.177727 0.222378
v -0.030487 -0.176152 0.220023
v -0.061065 -0.171545 0.212152
v -0.051716 -0.256482 0.165151
v -0.026908 -0.263985 0.177984
v -0.000139 -0.266909 0.182589
v 0.027029 -0.264452 0.179381
v 0.051867 -0.256535 0.165262
vn -0.6656 0.4670 0.5821
vn -0.5571 -0.3176 -0.7673
vn -0.6264 0.5507 -0.5516
vn 0.5507 0.5222 0.6512
vn 0.6344 -0.2650 -0.7262
vn 0.5179 0.4535 -0.7253
vn -0.6785 -0.5679 -0.4659
vn -0.7438 -0.6483 -0.1627
vn -0.5071 -0.4078 0.7593
vn -0.1687 -0.8359 0.5224
vn -0.7315 0.1795 0.6578
vn -0.7585 0.5300 0.3791
vn -0.7729 0.6236 0.1175
vn -0.7282 0.6845 -0.0348
vn -0.6916 0.6850 -0.2290
vn -0.6413 0.6360 -0.4292
vn -0.7597 0.2924 -0.5808
vn -0.7714 0.1663 -0.6142
vn -0.8492 0.0409 -0.5264
vn -0.8175 -0.0629 -0.5725
vn -0.7522 -0.1387 -0.6441
vn 0.4981 -0.4599 -0.7351
vn 0.2488 -0.5493 -0.7977
vn -0.0883 -0.5495 -0.8308
vn -0.2724 -0.4997 -0.8222
vn -0.3706 -0.4426 -0.8165
vn -0.4883 0.5853 -0.6472
vn -0.1140 0.6386 -0.7611
vn 0.1169 0.6228 -0.7736
vn 0.1840 0.6018 -0.7772
vn 0.3428 0.5334 -0.7733
vn 0.6846 0.2884 -0.6694
vn 0.6922 0.2204 -0.6872
vn 0.8131 0.0854 -0.5758
vn 0.7891 -0.0896 -0.6077
vn 0.7906 -0.1531 -0.5929
vn 0.5732 -0.3726 0.7298
vn 0.8284 -0.5227 -0.2013
vn 0.7805 -0.4440 -0.4400
vn 0.6525 0.5819 -0.4853
vn 0.7173 0.6787 -0.1579
vn 0.7296 0.6834 -0.0268
vn 0.7426 0.6663 0.0676
vn 0.6559 0.6473 0.3882
vn 0.6435 0.0629 0.7628
vn 0.1651 -0.8408 0.5155
vn 0.4484 0.5251 0.7234
vn 0.2064 0.5731 0.7930
vn 0.0001 0.6392 0.7690
vn -0.2039 0.6734 0.7106
vn -0.4823 0.5953 0.6427
vn 0.3826 0.7582 -0.5279
vn 0.4351 0.8785 -0.1972
vn 0.4945 0.8648 -0.0870
vn 0.4916 0.8652 0.0984
vn 0.4880 0.7701 0.4108
vn 0.1929 0.8319 -0.5203
vn 0.2241 0.9467 -0.2316
vn 0.2089 0.9737 -0.0905
vn 0.2139 0.9726 0.0912
vn 0.2222 0.8908 0.3963
vn 0.0807 0.8573 -0.5085
vn 0.0240 0.9735 -0.2274
vn -0.0253 0.9985 -0.0486
vn -0.0785 0.9935 0.0823
vn -0.0842 0.9342 0.3467
vn -0.2279 0.8596 -0.4573
vn -0.2546 0.9436 -0.2117
vn -0.2070 0.9770 -0.0508
vn -0.1686 0.9815 0.0903
vn -0.1965 0.9100 0.3650
vn -0.5305 0.7381 -0.4168
vn -0.5284 0.8111 -0.2506
vn -0.5293 0.8458 -0.0666
vn -0.5133 0.8533 0.0920
vn -0.4845 0.7644 0.4254
vn -0.3804 -0.7980 -0.4674
vn -0.4172 -0.8764 -0.2407
vn -0.3410 -0.6574 0.6720
vn -0.3014 -0.8310 -0.4675
vn -0.3032 -0.9167 -0.2602
vn -0.1152 -0.6848 0.7196
vn -0.0269 -0.8817 -0.4710
vn -0.0232 -0.9610 -0.2756
vn -0.0279 -0.8220 0.5688
vn 0.2795 -0.8493 -0.4478
vn 0.2774 -0.9154 -0.2917
vn 0.1347 -0.7631 0.6321
vn 0.4111 -0.7845 -0.4643
vn 0.4874 -0.8328 -0.2625
vn 0.2708 -0.5258 0.8064
vn -0.0894 -0.6743 0.7330
vn 0.0349 -0.5362 0.8433
vn 0.0583 -0.4197 0.9058
vn 0.0897 -0.7741 0.6266
vn -0.0549 -0.6024 0.7963
vn 0.4263 0.1422 0.8933
vn 0.2803 0.2439 0.9284
vn 0.0364 0.2987 0.9537
vn -0.2486 0.2445 0.9372
vn -0.4984 0.2083 0.8416
vn 0.9247 -0.1908 -0.3295
vn 0.6406 -0.2218 0.7351
vn 0.9400 -0.0702 -0.3339
vn 0.6862 -0.5730 0.4482
vn 0.3862 -0.7828 0.4880
vn 0.9169 0.1317 -0.3768
vn 0.9502 0.0303 -0.3103
vn 0.9957 -0.0633 -0.0676
vn 0.7710 -0.5917 0.2355
vn 0.1199 -0.8848 0.4503
vn 0.9095 0.0593 -0.4114
vn 0.9474 0.0513 -0.3160
vn 0.9974 0.0564 0.0444
vn 0.9611 0.0074 0.2761
vn 0.4851 -0.6293 0.6072
vn 0.8352 0.2649 -0.4819
vn 0.8923 0.3939 -0.2206
vn 0.8971 0.4410 0.0266
vn 0.9302 0.3260 0.1685
vn 0.8751 0.2101 0.4360
vn -0.3671 -0.0953 -0.9253
vn -0.2492 -0.1049 -0.9628
vn -0.1466 -0.1574 -0.9766
vn 0.2789 -0.1902 -0.9413
vn 0.5130 -0.0470 -0.8571
vn -0.4379 -0.2175 -0.8723
vn -0.2635 -0.2333 -0.9360
vn -0.0893 -0.2311 -0.9688
vn 0.3245 -0.2291 -0.9177
vn 0.6105 -0.2172 -0.7617
vn -0.5412 -0.0993 -0.8350
vn -0.2792 -0.2318 -0.9318
vn -0.0333 -0.1400 -0.9896
vn 0.3465 -0.0736 -0.9351
vn 0.5719 -0.0405 -0.8193
vn -0.4383 0.2037 -0.8754
vn -0.1739 0.2458 -0.9536
vn 0.0240 0.2848 -0.9583
vn 0.2435 0.3079 -0.9197
vn 0.4177 0.3069 -0.8552
vn -0.4544 0.4010 -0.7954
vn -0.1140 0.4078 -0.9059
vn 0.0839 0.4258 -0.9009
vn 0.2127 0.4386 -0.8732
vn 0.3496 0.4382 -0.8281
vn -0.7307 -0.1749 0.6599
vn -0.9256 -0.1957 -0.3240
vn -0.3708 -0.7444 0.5554
vn -0.6435 -0.6053 0.4686
vn -0.9328 -0.0596 -0.3554
vn -0.0903 -0.8714 0.4822
vn -0.8331 -0.5289 0.1621
vn -0.9955 -0.0748 0.0574
vn -0.9312 -0.0574 -0.3601
vn -0.8942 0.0667 -0.4426
vn -0.7613 -0.4856 0.4297
vn -0.9647 0.0300 0.2616
vn -0.9854 0.0654 0.1570
vn -0.9573 0.0863 -0.2759
vn -0.8860 0.0834 -0.4561
vn -0.8726 0.2747 0.4039
vn -0.8964 0.3821 0.2246
vn -0.8695 0.4892 0.0675
vn -0.8198 0.5187 -0.2427
vn -0.7745 0.3981 -0.4916
vn 0.0128 -0.7048 0.7093
vn -0.5438 -0.1943 0.8164
vn -0.6182 0.5558 0.5558
vn -0.7138 -0.4465 -0.5395
vn 0.5440 -0.1943 0.8163
vn 0.6182 0.5558 0.5558
vn 0.7138 -0.4465 -0.5395
vn -0.7523 -0.5102 -0.4169
vn -0.7764 -0.5367 -0.3303
vn -0.7758 -0.5452 -0.3175
vn -0.7979 -0.5885 -0.1305
vn -0.7900 -0.6078 0.0801
vn -0.7991 -0.5504 0.2417
vn -0.7333 -0.3318 0.5934
vn -0.5511 -0.2414 0.7988
vn -0.5376 0.0335 0.8425
vn -0.4942 0.0117 0.8693
vn -0.5374 -0.2941 0.7904
vn -0.6392 -0.1491 0.7544
vn -0.7133 0.1584 0.6828
vn -0.6905 0.2452 0.6805
vn -0.6704 0.6048 0.4299
vn -0.7324 0.6037 0.3150
vn -0.7899 0.5706 0.2248
vn -0.7898 -0.2210 -0.5722
vn -0.8060 -0.1927 -0.5597
vn -0.7966 -0.2746 -0.5385
vn -0.7295 -0.4244 -0.5364
vn 0.6088 -0.5640 -0.5580
vn 0.3965 -0.7144 -0.5766
vn 0.2088 -0.7607 -0.6146
vn -0.0000 -0.7776 -0.6287
vn -0.2088 -0.7607 -0.6146
vn -0.3965 -0.7144 -0.5766
vn -0.6088 -0.5640 -0.5580
vn 0.7898 -0.2210 -0.5722
vn 0.8060 -0.1927 -0.5597
vn 0.7966 -0.2746 -0.5385
vn 0.7295 -0.4244 -0.5364
vn 0.7334 -0.3318 0.5933
vn 0.7992 -0.5504 0.2416
vn 0.7901 -0.6078 0.0800
vn 0.7979 -0.5885 -0.1305
vn 0.7758 -0.5452 -0.3175
vn 0.7764 -0.5367 -0.3303
vn 0.7523 -0.5102 -0.4169
vn 0.7899 0.5706 0.2248
vn 0.7324 0.6037 0.3150
vn 0.6704 0.6048 0.4299
vn 0.6905 0.2452 0.6805
vn 0.7133 0.1584 0.6828
vn 0.6392 -0.1491 0.7544
vn 0.5374 -0.2941 0.7904
vn 0.4942 0.0117 0.8693
vn 0.5376 0.0335 0.8425
vn 0.5512 -0.2414 0.7987
vn -0.6010 -0.2963 0.7423
vn -0.3919 -0.2787 0.8768
vn -0.2344 -0.2901 0.9278
vn -0.0437 -0.2932 0.9551
vn 0.2115 -0.2836 0.9353
vn 0.4319 -0.2717 0.8600
vn 0.6068 -0.2945 0.7383
vn 0.4902 0.6163 0.6163
vn 0.3409 0.6642 0.6653
vn 0.1754 0.6947 0.6975
vn -0.0000 0.7054 0.7088
vn -0.1754 0.6947 0.6975
vn -0.3409 0.6642 0.6653
vn -0.4902 0.6163 0.6163
vn 0.6185 0.6890 0.3778
vn 0.5507 0.6727 0.4942
vn 0.3678 0.7236 0.5841
vn 0.1921 0.7634 0.6167
vn -0.0000 0.7776 0.6287
vn -0.1921 0.7634 0.6167
vn -0.3678 0.7236 0.5841
vn -0.6185 0.6890 0.3778
vn -0.5507 0.6727 0.4942
vn -0.6125 -0.6421 -0.4610
vn -0.6295 -0.6839 -0.3687
vn -0.6366 -0.6814 -0.3612
vn -0.6769 -0.7059 -0.2086
vn -0.7342 -0.6788 0.0103
vn -0.7699 -0.5997 0.2181
vn -0.6709 -0.3230 0.6675
vn -0.4378 -0.7491 -0.4973
vn -0.4752 -0.7795 -0.4081
vn -0.4857 -0.7814 -0.3919
vn -0.5159 -0.8067 -0.2882
vn -0.5856 -0.8076 -0.0699
vn -0.5948 -0.7736 0.2187
vn -0.5301 -0.3769 0.7596
vn -0.2359 -0.8112 -0.5351
vn -0.2620 -0.8586 -0.4406
vn -0.2700 -0.8666 -0.4196
vn -0.2720 -0.9031 -0.3324
vn -0.2852 -0.9484 -0.1382
vn -0.2901 -0.9320 0.2174
vn -0.2846 -0.5210 0.8047
vn -0.0000 -0.8354 -0.5496
vn -0.0000 -0.8911 -0.4538
vn -0.0000 -0.9022 -0.4314
vn -0.0000 -0.9403 -0.3403
vn -0.0000 -0.9884 -0.1522
vn -0.0031 -0.9763 0.2163
vn -0.0122 -0.5832 0.8122
vn 0.2359 -0.8112 -0.5351
vn 0.2620 -0.8586 -0.4406
vn 0.2700 -0.8666 -0.4196
vn 0.2720 -0.9031 -0.3324
vn 0.2852 -0.9484 -0.1382
vn 0.2900 -0.9329 0.2137
vn 0.2825 -0.5287 0.8004
vn 0.4378 -0.7491 -0.4973
vn 0.4752 -0.7795 -0.4081
vn 0.4857 -0.7814 -0.3919
vn 0.5159 -0.8067 -0.2882
vn 0.5856 -0.8076 -0.0699
vn 0.5970 -0.7725 0.2164
vn 0.5416 -0.3762 0.7518
vn 0.6125 -0.6421 -0.4610
vn 0.6295 -0.6839 -0.3687
vn 0.6366 -0.6814 -0.3612
vn 0.6769 -0.7059 -0.2086
vn 0.7342 -0.6788 0.0103
vn 0.7699 -0.5997 0.2180
vn 0.6723 -0.3234 0.6659
vn 0.6079 -0.1281 0.7836
vn 0.6540 -0.1518 0.7411
vn 0.4001 -0.2697 0.8759
vn -0.0067 -0.4424 0.8968
vn -0.4003 -0.2807 0.8723
vn -0.6511 -0.1562 0.7428
vn -0.6075 -0.1285 0.7839
vn 0.4690 0.1557 0.8693
vn 0.6483 0.1598 0.7444
vn 0.6783 -0.0393 0.7337
vn -0.0002 -0.3183 0.9480
vn -0.6784 -0.0396 0.7336
vn -0.6483 0.1597 0.7445
vn -0.4690 0.1557 0.8693
vn 0.3450 0.1605 0.9248
vn 0.5461 0.3167 0.7756
vn 0.6847 0.3407 0.6443
vn -0.0000 0.3594 0.9332
vn -0.6847 0.3407 0.6443
vn -0.5461 0.3167 0.7756
vn -0.3450 0.1605 0.9248
vn 0.3284 -0.3777 0.8657
vn 0.4034 -0.2377 0.8836
vn 0.6065 -0.1563 0.7796
vn -0.0000 -0.0904 0.9959
vn -0.6065 -0.1563 0.7796
vn -0.4034 -0.2377 0.8836
vn -0.3284 -0.3777 0.8657
vn 0.4511 -0.2827 0.8465
vn 0.3386 -0.3507 0.8731
vn 0.3010 -0.1862 0.9353
vn -0.0000 0.0432 0.9991
vn -0.3010 -0.1862 0.9353
vn -0.3386 -0.3507 0.8731
vn -0.4511 -0.2827 0.8465
vn 0.5092 0.1012 0.8547
vn 0.3800 0.1519 0.9124
vn 0.1991 0.1960 0.9602
vn -0.0000 0.2103 0.9776
vn -0.1991 0.1960 0.9602
vn -0.3800 0.1519 0.9124
vn -0.5092 0.1012 0.8547
vn 0.5103 0.3059 0.8038
vn 0.3534 0.3441 0.8699
vn 0.1813 0.3686 0.9117
vn -0.0000 0.3773 0.9261
vn -0.1813 0.3686 0.9117
vn -0.3534 0.3441 0.8699
vn -0.5103 0.3059 0.8038
vn 0.7843 -0.4420 -0.4354
vn 0.8294 -0.4617 -0.3145
vn 0.8510 -0.4561 -0.2602
vn 0.8848 -0.4649 -0.0319
vn 0.8567 -0.5035 0.1123
vn 0.8528 -0.4605 0.2465
vn 0.7029 -0.3234 0.6336
vn 0.8275 -0.3204 -0.4612
vn 0.8815 -0.3459 -0.3214
vn 0.9187 -0.3370 -0.2058
vn 0.9498 -0.3128 -0.0060
vn 0.9458 -0.3170 0.0704
vn 0.9335 -0.2764 0.2285
vn 0.7863 -0.1679 0.5946
vn 0.8598 -0.1940 -0.4723
vn 0.9376 -0.1819 -0.2963
vn 0.9746 -0.1570 -0.1598
vn 0.9904 -0.1378 -0.0051
vn 0.9910 -0.1152 0.0683
vn 0.9688 -0.0765 0.2358
vn 0.8105 -0.0265 0.5851
vn 0.9009 -0.1137 -0.4189
vn 0.9631 -0.0519 -0.2643
vn 0.9886 -0.0457 -0.1433
vn 0.9987 -0.0505 -0.0011
vn 0.9898 -0.0378 0.1374
vn 0.9636 -0.0147 0.2671
vn 0.8448 -0.0923 0.5271
vn 0.9452 0.0919 -0.3133
vn 0.9641 0.0987 -0.2466
vn 0.9833 0.0972 -0.1536
vn 0.9964 0.0805 0.0266
vn 0.9759 0.0793 0.2035
vn 0.9456 0.0954 0.3111
vn 0.8688 0.0459 0.4930
vn 0.9542 0.1718 -0.2450
vn 0.9530 0.2714 -0.1347
vn 0.9461 0.3231 0.0210
vn 0.9332 0.2993 0.1989
vn 0.9105 0.2597 0.3216
vn 0.8670 0.2185 0.4479
vn 0.8847 0.4591 -0.0807
vn 0.8898 0.4560 0.0172
vn 0.8590 0.4687 0.2058
vn 0.8369 0.4418 0.3232
vn 0.8039 0.3746 0.4621
vn -0.6951 -0.4189 -0.5842
vn 0.6951 -0.4189 -0.5842
vn -0.7028 -0.3234 0.6336
vn -0.8527 -0.4605 0.2465
vn -0.8567 -0.5035 0.1123
vn -0.8848 -0.4649 -0.0319
vn -0.8510 -0.4561 -0.2602
vn -0.8294 -0.4617 -0.3145
vn -0.7843 -0.4420 -0.4354
vn -0.7863 -0.1679 0.5946
vn -0.9335 -0.2765 0.2285
vn -0.9458 -0.3170 0.0704
vn -0.9498 -0.3128 -0.0060
vn -0.9187 -0.3370 -0.2058
vn -0.8815 -0.3459 -0.3214
vn -0.8275 -0.3204 -0.4612
vn -0.8105 -0.0265 0.5851
vn -0.9688 -0.0765 0.2358
vn -0.9910 -0.1152 0.0683
vn -0.9904 -0.1378 -0.0051
vn -0.9746 -0.1570 -0.1598
vn -0.9376 -0.1819 -0.2963
vn -0.8598 -0.1940 -0.4723
vn -0.8448 -0.0923 0.5271
vn -0.9636 -0.0147 0.2671
vn -0.9898 -0.0378 0.1374
vn -0.9987 -0.0505 -0.0011
vn -0.9886 -0.0457 -0.1433
vn -0.9631 -0.0519 -0.2643
vn -0.9009 -0.1137 -0.4189
vn -0.8688 0.0459 0.4930
vn -0.9456 0.0954 0.3111
vn -0.9759 0.0793 0.2035
vn -0.9964 0.0805 0.0266
vn -0.9833 0.0972 -0.1536
vn -0.9641 0.0987 -0.2466
vn -0.9452 0.0919 -0.3133
vn -0.8670 0.2185 0.4479
vn -0.9105 0.2597 0.3216
vn -0.9332 0.2993 0.1989
vn -0.9461 0.3231 0.0210
vn -0.9530 0.2714 -0.1347
vn -0.9542 0.1718 -0.2450
vn -0.8039 0.3746 0.4621
vn -0.8369 0.4418 0.3232
vn -0.8590 0.4687 0.2058
vn -0.8898 0.4560 0.0172
vn -0.8847 0.4591 -0.0807
vn -0.4187 -0.0179 0.9080
vn -0.2895 -0.1010 0.9518
vn -0.0347 -0.1376 0.9899
vn 0.2823 -0.1162 0.9523
vn 0.4459 -0.0172 0.8949
vn 0.5072 -0.5135 0.6921
vn 0.2019 -0.5067 0.8381
vn -0.0250 -0.4883 0.8723
vn -0.2079 -0.5228 0.8267
vn -0.4908 -0.5266 0.6942
vn -0.4285 -0.1939 0.8825
vn -0.2798 -0.2582 0.9247
vn -0.0255 -0.3032 0.9526
vn 0.2735 -0.2662 0.9243
vn 0.4511 -0.1944 0.8710
vt 0.381892 0.850254
vt 0.415358 0.846561
vt 0.399711 0.885860
vt 0.359852 0.901740
vt 0.404755 0.856108
vt 0.450585 0.844220
vt 0.429209 0.883529
vt 0.402629 0.899344
vt 0.391711 0.889990
vt 0.440849 0.884021
vt 0.417242 0.917861
vt 0.374766 0.936130
vt 0.107767 0.856864
vt 0.152796 0.839206
vt 0.158474 0.878225
vt 0.128401 0.893800
vt 0.201515 0.861015
vt 0.199474 0.893772
vt 0.199583 0.600594
vt 0.200625 0.648573
vt 0.148560 0.658843
vt 0.158474 0.625229
vt 0.203726 0.693281
vt 0.144821 0.704272
vt 0.203801 0.751727
vt 0.143555 0.751727
vt 0.202717 0.806851
vt 0.144821 0.799182
vt 0.405812 0.624469
vt 0.427192 0.663778
vt 0.410844 0.642514
vt 0.387745 0.601008
vt 0.374314 0.632288
vt 0.353594 0.590818
vt 0.318709 0.628796
vt 0.298466 0.595956
vt 0.256137 0.632240
vt 0.246500 0.590573
vt 0.440366 0.706718
vt 0.417035 0.696216
vt 0.381913 0.689677
vt 0.325421 0.687463
vt 0.264249 0.686386
vt 0.444816 0.751504
vt 0.422865 0.751504
vt 0.396386 0.751504
vt 0.330433 0.751504
vt 0.262806 0.751727
vt 0.451775 0.798831
vt 0.427130 0.809786
vt 0.381913 0.813332
vt 0.325421 0.815545
vt 0.259547 0.813402
vt 0.437856 0.844141
vt 0.401538 0.854956
vt 0.374314 0.870721
vt 0.318709 0.874213
vt 0.256137 0.871215
vt 0.405812 0.878539
vt 0.379601 0.894186
vt 0.347243 0.903830
vt 0.298466 0.907053
vt 0.243767 0.903585
vt 0.184446 0.632227
vt 0.178897 0.670479
vt 0.139512 0.655125
vt 0.149671 0.608458
vt 0.103419 0.645590
vt 0.118563 0.598650
vt 0.058835 0.636172
vt 0.095654 0.604216
vt 0.175464 0.712583
vt 0.128365 0.702319
vt 0.086261 0.695912
vt 0.049649 0.693715
vt 0.174304 0.756494
vt 0.117674 0.756494
vt 0.079147 0.756494
vt 0.034823 0.756494
vt 0.175359 0.802890
vt 0.128365 0.810669
vt 0.086261 0.817076
vt 0.040456 0.822730
vt 0.178897 0.842509
vt 0.139512 0.857863
vt 0.096050 0.873432
vt 0.067064 0.870655
vt 0.185024 0.888157
vt 0.152967 0.895888
vt 0.118563 0.914337
vt 0.095654 0.908772
vt 0.088060 0.859169
vt 0.077180 0.898041
vt 0.098401 0.613485
vt 0.121414 0.600621
vt 0.116416 0.652279
vt 0.086763 0.656955
vt 0.108688 0.700642
vt 0.074583 0.706309
vt 0.106065 0.751727
vt 0.067649 0.750073
vt 0.099548 0.805733
vt 0.081087 0.813317
vt 0.288980 0.875087
vt 0.293345 0.915695
vt 0.094766 0.582327
vt 0.136797 0.612536
vt 0.121975 0.661151
vt 0.084523 0.628700
vt 0.133108 0.722133
vt 0.067521 0.668060
vt 0.072181 0.721948
vt 0.227216 0.597537
vt 0.216137 0.650857
vt 0.195761 0.733973
vt 0.206992 0.732269
vt 0.280801 0.691985
vt 0.286381 0.766766
vt 0.271651 0.593683
vt 0.287322 0.643449
vt 0.287236 0.690738
vt 0.286381 0.741232
vt 0.206992 0.775729
vt 0.306585 0.577661
vt 0.330063 0.636230
vt 0.335559 0.706990
vt 0.337874 0.762105
vt 0.336387 0.831290
vt 0.280801 0.816013
vt 0.240313 0.863559
vt 0.359852 0.606258
vt 0.381892 0.657744
vt 0.391939 0.708730
vt 0.395210 0.762891
vt 0.396696 0.835652
vt 0.399711 0.622138
vt 0.423173 0.656546
vt 0.433363 0.701863
vt 0.428299 0.762596
vt 0.444515 0.831963
vt 0.210418 0.854244
vt 0.206319 0.895765
vt 0.249836 0.863679
vt 0.292124 0.914460
vt 0.331980 0.870470
vt 0.332533 0.908506
vt 0.381038 0.850818
vt 0.370798 0.897942
vt 0.209804 0.608335
vt 0.210418 0.658743
vt 0.209329 0.706218
vt 0.213915 0.756494
vt 0.214304 0.809249
vt 0.292124 0.598528
vt 0.262348 0.656973
vt 0.252468 0.710235
vt 0.259771 0.767758
vt 0.264176 0.816324
vt 0.332533 0.604651
vt 0.340854 0.644900
vt 0.322048 0.700802
vt 0.332942 0.758122
vt 0.330746 0.824015
vt 0.370798 0.614918
vt 0.383658 0.656821
vt 0.381602 0.707685
vt 0.381774 0.756430
vt 0.381602 0.805174
vt 0.402629 0.613644
vt 0.414705 0.651523
vt 0.431245 0.702574
vt 0.425799 0.756494
vt 0.420467 0.807666
vt 0.429209 0.629459
vt 0.461256 0.663857
vt 0.475177 0.709167
vt 0.468207 0.756494
vt 0.463758 0.801281
vt 0.077779 0.884388
vt 0.119480 0.851953
vt 0.136108 0.903624
vt 0.099036 0.917119
vt 0.215316 0.851842
vt 0.227216 0.910462
vt 0.287322 0.864549
vt 0.271651 0.914315
vt 0.330063 0.871768
vt 0.306585 0.930337
vt 0.072181 0.786050
vt 0.129069 0.788534
vt 0.067521 0.839938
vt 0.195761 0.774025
vt 0.286660 0.820183
vt 0.233598 0.644439
vt 0.282848 0.627304
vt 0.334956 0.680416
vt 0.337874 0.745894
vt 0.336810 0.803634
vt 0.265692 0.583765
vt 0.372364 0.581323
vt 0.387498 0.623776
vt 0.396696 0.672346
vt 0.395210 0.745107
vt 0.391939 0.799268
vt 0.417242 0.590137
vt 0.432391 0.628734
vt 0.435264 0.678220
vt 0.428299 0.745403
vt 0.425002 0.803629
vt 0.143845 0.619595
vt 0.168305 0.601155
vt 0.256718 0.747775
vt 0.212349 0.590918
vt 0.260401 0.574616
vt 0.311099 0.583888
vt 0.347782 0.607485
vt 0.376957 0.619595
vt 0.395451 0.652671
vt 0.412623 0.692988
vt 0.417695 0.721667
vt 0.404962 0.783417
vt 0.389869 0.787237
vt 0.387607 0.819817
vt 0.366044 0.844157
vt 0.332770 0.881727
vt 0.294995 0.914007
vt 0.261497 0.927657
vt 0.213089 0.895324
vt 0.177993 0.882275
vt 0.148239 0.833812
vt 0.125012 0.819533
vt 0.130933 0.783603
vt 0.115840 0.783417
vt 0.103108 0.721667
vt 0.108179 0.692988
vt 0.116875 0.649040
vt 0.389763 0.429466
vt 0.373971 0.456603
vt 0.362395 0.445026
vt 0.373971 0.417622
vt 0.140485 0.429466
vt 0.150009 0.456603
vt 0.122606 0.445026
vt 0.111029 0.417622
vt 0.310961 0.057552
vt 0.328765 0.075099
vt 0.329909 0.137301
vt 0.304685 0.136922
vt 0.138165 0.472394
vt 0.111029 0.456603
vt 0.346835 0.472394
vt 0.334991 0.456603
vt 0.315595 0.485459
vt 0.305402 0.465073
vt 0.280392 0.494495
vt 0.274327 0.470237
vt 0.242500 0.497797
vt 0.242500 0.471971
vt 0.204608 0.494495
vt 0.210673 0.470237
vt 0.169405 0.485459
vt 0.179598 0.465073
vt 0.382442 0.465073
vt 0.355543 0.484006
vt 0.129457 0.484006
vt 0.102558 0.465073
vt 0.156248 0.075099
vt 0.174052 0.057552
vt 0.180357 0.136922
vt 0.155103 0.137301
vt 0.196206 0.116054
vt 0.205836 0.131297
vt 0.218473 0.108893
vt 0.223959 0.127868
vt 0.242491 0.106032
vt 0.242605 0.126372
vt 0.266744 0.108052
vt 0.261324 0.126887
vt 0.288881 0.115886
vt 0.279282 0.130984
vt 0.119652 0.128480
vt 0.147731 0.113121
vt 0.135595 0.092169
vt 0.107790 0.113121
vt 0.126672 0.076763
vt 0.099111 0.101883
vt 0.121215 0.057523
vt 0.093820 0.085213
vt 0.130571 0.052342
vt 0.105720 0.078305
vt 0.152288 0.055643
vt 0.131912 0.078527
vt 0.168338 0.044651
vt 0.150688 0.065687
vt 0.178049 0.101883
vt 0.167605 0.074836
vt 0.159887 0.054848
vt 0.155151 0.032765
vt 0.161641 0.028960
vt 0.170311 0.035182
vt 0.183729 0.026298
vt 0.189220 0.043036
vt 0.209889 0.095032
vt 0.203675 0.062847
vt 0.199065 0.038969
vt 0.196229 0.014460
vt 0.199565 0.011570
vt 0.204260 0.020053
vt 0.211603 0.012999
vt 0.214883 0.032996
vt 0.242501 0.092730
vt 0.242501 0.058466
vt 0.242501 0.033005
vt 0.242501 0.007507
vt 0.242501 0.004944
vt 0.242501 0.014308
vt 0.242506 0.008005
vt 0.242519 0.029256
vt 0.275112 0.095032
vt 0.281326 0.062847
vt 0.285937 0.038969
vt 0.288773 0.014460
vt 0.285436 0.011570
vt 0.280742 0.020053
vt 0.273409 0.012999
vt 0.270226 0.032473
vt 0.306953 0.101883
vt 0.317397 0.074836
vt 0.325115 0.054848
vt 0.329851 0.032765
vt 0.323361 0.028960
vt 0.314691 0.035182
vt 0.301284 0.026298
vt 0.295793 0.043036
vt 0.337271 0.113121
vt 0.349407 0.092169
vt 0.358330 0.076763
vt 0.363787 0.057523
vt 0.354430 0.052342
vt 0.332714 0.055643
vt 0.316674 0.044651
vt 0.365350 0.128480
vt 0.377212 0.113121
vt 0.385891 0.101883
vt 0.391182 0.085213
vt 0.379281 0.078305
vt 0.353090 0.078527
vt 0.334319 0.065687
vt 0.150687 0.188727
vt 0.124176 0.183144
vt 0.139820 0.223106
vt 0.101159 0.224191
vt 0.140080 0.269531
vt 0.097395 0.276270
vt 0.138666 0.311249
vt 0.095660 0.315734
vt 0.140080 0.353735
vt 0.097395 0.355220
vt 0.133266 0.390826
vt 0.102558 0.388034
vt 0.360825 0.183144
vt 0.334314 0.188727
vt 0.305197 0.177806
vt 0.292728 0.145783
vt 0.274309 0.171849
vt 0.267684 0.141540
vt 0.242501 0.169897
vt 0.242594 0.140815
vt 0.210701 0.171889
vt 0.217430 0.142110
vt 0.179804 0.177806
vt 0.192285 0.145898
vt 0.383841 0.224191
vt 0.345180 0.223106
vt 0.312907 0.213824
vt 0.280583 0.208689
vt 0.242500 0.190511
vt 0.204417 0.208689
vt 0.172093 0.213824
vt 0.387605 0.276270
vt 0.344920 0.269531
vt 0.312958 0.264532
vt 0.282381 0.263591
vt 0.242500 0.260419
vt 0.202619 0.263591
vt 0.172042 0.264532
vt 0.389340 0.315734
vt 0.346334 0.311249
vt 0.306870 0.307917
vt 0.278962 0.309499
vt 0.242500 0.311633
vt 0.206038 0.309499
vt 0.178130 0.307917
vt 0.387605 0.355220
vt 0.344920 0.353735
vt 0.312958 0.350511
vt 0.282381 0.353587
vt 0.242500 0.354625
vt 0.202619 0.353587
vt 0.172042 0.350511
vt 0.382442 0.388034
vt 0.351734 0.390826
vt 0.317401 0.390957
vt 0.280583 0.395579
vt 0.242500 0.397137
vt 0.204417 0.395579
vt 0.167599 0.390957
vt 0.344515 0.429466
vt 0.312163 0.438175
vt 0.277833 0.443501
vt 0.242500 0.445293
vt 0.207167 0.443501
vt 0.172837 0.438175
vt 0.361784 0.138143
vt 0.404431 0.213970
vt 0.411864 0.269531
vt 0.415166 0.319857
vt 0.411864 0.361959
vt 0.402828 0.398226
vt 0.377212 0.164838
vt 0.393393 0.149124
vt 0.405290 0.137570
vt 0.412566 0.120685
vt 0.405605 0.119410
vt 0.374056 0.115958
vt 0.376337 0.120244
vt 0.401822 0.223734
vt 0.425031 0.210210
vt 0.442182 0.200216
vt 0.452706 0.194084
vt 0.438764 0.195346
vt 0.417961 0.200964
vt 0.419646 0.205601
vt 0.407701 0.284601
vt 0.435319 0.276555
vt 0.455809 0.270585
vt 0.468414 0.266913
vt 0.451744 0.262306
vt 0.429206 0.261153
vt 0.429861 0.264532
vt 0.420177 0.336647
vt 0.451426 0.336647
vt 0.467681 0.336647
vt 0.474380 0.336647
vt 0.457430 0.326828
vt 0.434136 0.318784
vt 0.428600 0.319857
vt 0.447430 0.386921
vt 0.462406 0.392890
vt 0.475401 0.396563
vt 0.458215 0.382423
vt 0.434980 0.368301
vt 0.424240 0.366958
vt 0.454725 0.443621
vt 0.465909 0.442038
vt 0.449027 0.425637
vt 0.427136 0.408294
vt 0.417892 0.405759
vt 0.425073 0.459899
vt 0.427702 0.461844
vt 0.408476 0.440978
vt 0.401375 0.438175
vt 0.387605 0.470237
vt 0.347030 0.149124
vt 0.107790 0.164838
vt 0.137972 0.149124
vt 0.091609 0.149124
vt 0.059969 0.210210
vt 0.083178 0.223734
vt 0.049681 0.276555
vt 0.077299 0.284601
vt 0.033574 0.336647
vt 0.064823 0.336647
vt 0.123218 0.138143
vt 0.108665 0.120244
vt 0.110946 0.115958
vt 0.079397 0.119410
vt 0.072435 0.120685
vt 0.079712 0.137570
vt 0.080569 0.213970
vt 0.065354 0.205601
vt 0.067039 0.200964
vt 0.046236 0.195346
vt 0.032294 0.194084
vt 0.042818 0.200216
vt 0.073136 0.269531
vt 0.055139 0.264532
vt 0.055794 0.261153
vt 0.033257 0.262306
vt 0.016586 0.266913
vt 0.029191 0.270585
vt 0.069834 0.319857
vt 0.056400 0.319857
vt 0.050864 0.318784
vt 0.027571 0.326828
vt 0.010620 0.336647
vt 0.017319 0.336647
vt 0.073136 0.361959
vt 0.060760 0.366958
vt 0.050020 0.368301
vt 0.026785 0.382423
vt 0.009599 0.396563
vt 0.022594 0.392890
vt 0.037570 0.386921
vt 0.082172 0.398226
vt 0.067108 0.405759
vt 0.057864 0.408294
vt 0.035973 0.425637
vt 0.019091 0.442038
vt 0.030275 0.443621
vt 0.095237 0.429466
vt 0.083626 0.438175
vt 0.076524 0.440978
vt 0.057298 0.461844
vt 0.059927 0.459899
vt 0.097395 0.470237
vt 0.264726 0.069499
vt 0.285152 0.076009
vt 0.242386 0.067479
vt 0.220373 0.069883
vt 0.199973 0.076053
s 1
f 166/1/166 16/2/16 3/3/3 17/4/17
f 146/5/146 31/6/31 6/7/6 32/8/32
f 121/9/121 44/10/44 4/11/4 45/12/45
f 101/13/101 51/14/51 1/15/1 11/16/11
f 76/17/76 12/18/12 1/15/1 51/14/51
f 44/19/44 56/20/56 47/21/47 4/22/4
f 56/20/56 61/23/61 48/24/48 47/21/47
f 61/23/61 66/25/66 49/26/49 48/24/48
f 66/25/66 71/27/71 50/28/50 49/26/49
f 71/27/71 76/17/76 51/14/51 50/28/50
f 6/29/6 31/30/31 52/31/52 40/32/40
f 40/32/40 52/31/52 53/33/53 41/34/41
f 41/34/41 53/33/53 54/35/54 42/36/42
f 42/36/42 54/35/54 55/37/55 43/38/43
f 43/38/43 55/37/55 56/20/56 44/19/44
f 31/30/31 30/39/30 57/40/57 52/31/52
f 52/31/52 57/40/57 58/41/58 53/33/53
f 53/33/53 58/41/58 59/42/59 54/35/54
f 54/35/54 59/42/59 60/43/60 55/37/55
f 55/37/55 60/43/60 61/23/61 56/20/56
f 30/39/30 29/44/29 62/45/62 57/40/57
f 57/40/57 62/45/62 63/46/63 58/41/58
f 58/41/58 63/46/63 64/47/64 59/42/59
f 59/42/59 64/47/64 65/48/65 60/43/60
f 60/43/60 65/48/65 66/25/66 61/23/61
f 29/44/29 28/49/28 67/50/67 62/45/62
f 62/45/62 67/50/67 68/51/68 63/46/63
f 63/46/63 68/51/68 69/52/69 64/47/64
f 64/47/64 69/52/69 70/53/70 65/48/65
f 65/48/65 70/53/70 71/27/71 66/25/66
f 28/49/28 27/54/27 72/55/72 67/50/67
f 67/50/67 72/55/72 73/56/73 68/51/68
f 68/51/68 73/56/73 74/57/74 69/52/69
f 69/52/69 74/57/74 75/58/75 70/53/70
f 70/53/70 75/58/75 76/17/76 71/27/71
f 27/54/27 3/59/3 16/60/16 72/55/72
f 72/55/72 16/60/16 15/61/15 73/56/73
f 73/56/73 15/61/15 14/62/14 74/57/74
f 74/57/74 14/62/14 13/63/13 75/58/75
f 75/58/75 13/63/13 12/18/12 76/17/76
f 2/64/2 26/65/26 77/66/77 7/67/7
f 7/67/7 77/66/77 78/68/78 8/69/8
f 8/69/8 78/68/78 79/70/79 9/71/9
f 26/65/26 25/72/25 80/73/80 77/66/77
f 77/66/77 80/73/80 81/74/81 78/68/78
f 78/68/78 81/74/81 82/75/82 79/70/79
f 25/72/25 24/76/24 83/77/83 80/73/80
f 80/73/80 83/77/83 84/78/84 81/74/81
f 81/74/81 84/78/84 85/79/85 82/75/82
f 24/76/24 23/80/23 86/81/86 83/77/83
f 83/77/83 86/81/86 87/82/87 84/78/84
f 84/78/84 87/82/87 88/83/88 85/79/85
f 23/80/23 22/84/22 89/85/89 86/81/86
f 86/81/86 89/85/89 90/86/90 87/82/87
f 87/82/87 90/86/90 91/87/91 88/83/88
f 22/84/22 5/88/5 39/89/39 89/85/89
f 89/85/89 39/89/39 38/90/38 90/86/90
f 90/86/90 38/90/38 37/91/37 91/87/91
f 96/92/96 101/13/101 11/16/11 10/93/10
f 46/94/46 45/95/45 97/96/97 92/97/92
f 92/97/92 97/96/97 98/98/98 93/99/93
f 93/99/93 98/98/98 99/100/99 94/101/94
f 94/101/94 99/100/99 100/102/100 95/103/95
f 95/103/95 100/102/100 101/13/101 96/92/96
f 45/95/45 4/22/4 47/21/47 97/96/97
f 97/96/97 47/21/47 48/24/48 98/98/98
f 98/98/98 48/24/48 49/26/49 99/100/99
f 99/100/99 49/26/49 50/28/50 100/102/100
f 100/102/100 50/28/50 51/14/51 101/13/101
f 116/104/116 121/9/121 45/12/45 46/105/46
f 5/106/5 36/107/36 102/108/102 39/109/39
f 39/109/39 102/108/102 103/110/103 38/111/38
f 38/111/38 103/110/103 37/112/37
f 36/107/36 35/113/35 104/114/104 102/108/102
f 102/108/102 104/114/104 105/115/105 103/110/103
f 149/116/149 153/117/153 154/118/154
f 35/113/35 34/119/34 107/120/107 104/114/104
f 104/114/104 107/120/107 108/121/108 105/115/105
f 105/115/105 108/121/108 109/122/109 106/123/106
f 34/119/34 33/124/33 112/125/112 107/120/107
f 107/120/107 112/125/112 113/126/113 108/121/108
f 108/121/108 113/126/113 114/127/114 109/122/109
f 109/122/109 114/127/114 115/128/115 110/129/110
f 110/129/110 115/128/115 116/104/116 111/130/111
f 33/124/33 32/131/32 117/132/117 112/125/112
f 112/125/112 117/132/117 118/133/118 113/126/113
f 113/126/113 118/133/118 119/134/119 114/127/114
f 114/127/114 119/134/119 120/135/120 115/128/115
f 115/128/115 120/135/120 121/9/121 116/104/116
f 32/131/32 6/136/6 40/137/40 117/132/117
f 117/132/117 40/137/40 41/138/41 118/133/118
f 118/133/118 41/138/41 42/139/42 119/134/119
f 119/134/119 42/139/42 43/140/43 120/135/120
f 120/135/120 43/140/43 44/10/44 121/9/121
f 22/84/22 126/141/126 36/142/36 5/88/5
f 126/141/126 131/143/131 35/144/35 36/142/36
f 131/143/131 136/145/136 34/146/34 35/144/35
f 136/145/136 141/147/141 33/148/33 34/146/34
f 141/147/141 146/5/146 32/8/32 33/148/33
f 2/64/2 21/149/21 122/150/122 26/65/26
f 26/65/26 122/150/122 123/151/123 25/72/25
f 25/72/25 123/151/123 124/152/124 24/76/24
f 24/76/24 124/152/124 125/153/125 23/80/23
f 23/80/23 125/153/125 126/141/126 22/84/22
f 21/149/21 20/154/20 127/155/127 122/150/122
f 122/150/122 127/155/127 128/156/128 123/151/123
f 123/151/123 128/156/128 129/157/129 124/152/124
f 124/152/124 129/157/129 130/158/130 125/153/125
f 125/153/125 130/158/130 131/143/131 126/141/126
f 20/154/20 19/159/19 132/160/132 127/155/127
f 127/155/127 132/160/132 133/161/133 128/156/128
f 128/156/128 133/161/133 134/162/134 129/157/129
f 129/157/129 134/162/134 135/163/135 130/158/130
f 130/158/130 135/163/135 136/145/136 131/143/131
f 19/159/19 18/164/18 137/165/137 132/160/132
f 132/160/132 137/165/137 138/166/138 133/161/133
f 133/161/133 138/166/138 139/167/139 134/162/134
f 134/162/134 139/167/139 140/168/140 135/163/135
f 135/163/135 140/168/140 141/147/141 136/145/136
f 18/164/18 17/169/17 142/170/142 137/165/137
f 137/165/137 142/170/142 143/171/143 138/166/138
f 138/166/138 143/171/143 144/172/144 139/167/139
f 139/167/139 144/172/144 145/173/145 140/168/140
f 140/168/140 145/173/145 146/5/146 141/147/141
f 17/169/17 3/174/3 27/175/27 142/170/142
f 142/170/142 27/175/27 28/176/28 143/171/143
f 143/171/143 28/176/28 29/177/29 144/172/144
f 144/172/144 29/177/29 30/178/30 145/173/145
f 145/173/145 30/178/30 31/6/31 146/5/146
f 7/179/7 148/180/148 21/181/21 2/182/2
f 148/180/148 151/183/151 20/184/20 21/181/21
f 151/183/151 156/185/156 19/186/19 20/184/20
f 156/185/156 161/187/161 18/188/18 19/186/19
f 161/187/161 166/1/166 17/4/17 18/188/18
f 9/189/9 147/190/147 8/191/8
f 8/191/8 147/190/147 148/180/148 7/179/7
f 110/129/110 106/123/106 109/122/109
f 147/190/147 150/192/150 151/183/151 148/180/148
f 149/116/149 154/118/154 155/193/155 150/192/150
f 150/192/150 155/193/155 156/185/156 151/183/151
f 152/194/152 157/195/157 158/196/158 153/117/153
f 153/117/153 158/196/158 159/197/159 154/118/154
f 154/118/154 159/197/159 160/198/160 155/193/155
f 155/193/155 160/198/160 161/187/161 156/185/156
f 10/199/10 11/200/11 162/201/162 157/195/157
f 157/195/157 162/201/162 163/202/163 158/196/158
f 158/196/158 163/202/163 164/203/164 159/197/159
f 159/197/159 164/203/164 165/204/165 160/198/160
f 160/198/160 165/204/165 166/1/166 161/187/161
f 11/200/11 1/205/1 12/206/12 162/201/162
f 162/201/162 12/206/12 13/207/13 163/202/163
f 163/202/163 13/207/13 14/208/14 164/203/164
f 164/203/164 14/208/14 15/209/15 165/204/165
f 165/204/165 15/209/15 16/2/16 166/1/166
f 9/210/9 79/211/79 167/212/167
f 79/211/79 82/213/82 167/212/167
f 82/213/82 85/214/85 167/212/167
f 85/214/85 88/215/88 167/212/167
f 88/215/88 91/216/91 167/212/167
f 91/216/91 37/217/37 167/212/167
f 37/217/37 103/218/103 167/212/167
f 103/218/103 105/219/105 167/212/167
f 105/219/105 106/220/106 167/212/167
f 106/220/106 110/221/110 167/212/167
f 110/221/110 111/222/111 167/212/167
f 111/222/111 116/223/116 167/212/167
f 116/223/116 46/224/46 167/212/167
f 46/224/46 92/225/92 167/212/167
f 92/225/92 93/226/93 167/212/167
f 93/226/93 94/227/94 167/212/167
f 94/227/94 95/228/95 167/212/167
f 95/228/95 96/229/96 167/212/167
f 96/229/96 10/230/10 167/212/167
f 10/230/10 157/231/157 167/212/167
f 157/231/157 152/232/152 167/212/167
f 152/232/152 153/233/153 167/212/167
f 153/233/153 149/234/149 167/212/167
f 149/234/149 150/235/150 167/212/167
f 150/235/150 147/236/147 167/212/167
f 147/236/147 9/210/9 167/212/167
f 389/237/389 215/238/215 172/239/172 216/240/216
f 343/241/343 236/242/236 169/243/169 187/244/187
f 294/245/294 206/246/206 171/247/171 229/248/229
f 245/249/245 188/250/188 169/243/169 236/242/236
f 215/238/215 238/251/238 230/252/230 172/239/172
f 238/251/238 239/253/239 231/254/231 230/252/230
f 239/253/239 240/255/240 232/256/232 231/254/231
f 240/255/240 241/257/241 233/258/233 232/256/232
f 241/257/241 242/259/242 234/260/234 233/258/233
f 242/259/242 243/261/243 235/262/235 234/260/234
f 243/261/243 245/249/245 236/242/236 235/262/235
f 214/263/214 237/264/237 238/251/238 215/238/215
f 244/265/244 189/266/189 188/250/188 245/249/245
f 180/267/180 252/268/252 223/269/223 168/270/168
f 223/269/223 438/271/438 224/272/224
f 438/271/438 439/273/439 225/274/225 224/272/224
f 439/273/439 440/275/440 226/276/226 225/274/225
f 440/275/440 441/277/441 227/278/227 226/276/226
f 441/277/441 442/279/442 228/280/228 227/278/227
f 442/279/442 229/248/229 228/280/228
f 170/281/170 201/282/201 246/283/246 174/284/174
f 174/284/174 246/283/246 247/285/247 175/286/175
f 175/286/175 247/285/247 248/287/248 176/288/176
f 176/288/176 248/287/248 249/289/249 177/290/177
f 177/290/177 249/289/249 250/291/250 178/292/178
f 178/292/178 250/291/250 251/293/251 179/294/179
f 179/294/179 251/293/251 252/268/252 180/267/180
f 201/282/201 200/295/200 253/296/253 246/283/246
f 246/283/246 253/296/253 254/297/254 247/285/247
f 247/285/247 254/297/254 255/298/255 248/287/248
f 248/287/248 255/298/255 256/299/256 249/289/249
f 249/289/249 256/299/256 257/300/257 250/291/250
f 250/291/250 257/300/257 258/301/258 251/293/251
f 251/293/251 258/301/258 259/302/259 252/268/252
f 200/295/200 199/303/199 260/304/260 253/296/253
f 253/296/253 260/304/260 261/305/261 254/297/254
f 254/297/254 261/305/261 262/306/262 255/298/255
f 255/298/255 262/306/262 263/307/263 256/299/256
f 256/299/256 263/307/263 264/308/264 257/300/257
f 257/300/257 264/308/264 265/309/265 258/301/258
f 258/301/258 265/309/265 266/310/266 259/302/259
f 199/303/199 198/311/198 267/312/267 260/304/260
f 260/304/260 267/312/267 268/313/268 261/305/261
f 261/305/261 268/313/268 269/314/269 262/306/262
f 262/306/262 269/314/269 270/315/270 263/307/263
f 263/307/263 270/315/270 271/316/271 264/308/264
f 264/308/264 271/316/271 272/317/272 265/309/265
f 265/309/265 272/317/272 273/318/273 266/310/266
f 198/311/198 197/319/197 274/320/274 267/312/267
f 267/312/267 274/320/274 275/321/275 268/313/268
f 268/313/268 275/321/275 276/322/276 269/314/269
f 269/314/269 276/322/276 277/323/277 270/315/270
f 270/315/270 277/323/277 278/324/278 271/316/271
f 271/316/271 278/324/278 279/325/279 272/317/272
f 272/317/272 279/325/279 280/326/280 273/318/273
f 197/319/197 196/327/196 281/328/281 274/320/274
f 274/320/274 281/328/281 282/329/282 275/321/275
f 275/321/275 282/329/282 283/330/283 276/322/276
f 276/322/276 283/330/283 284/331/284 277/323/277
f 277/323/277 284/331/284 285/332/285 278/324/278
f 278/324/278 285/332/285 286/333/286 279/325/279
f 279/325/279 286/333/286 287/334/287 280/326/280
f 196/327/196 195/335/195 288/336/288 281/328/281
f 281/328/281 288/336/288 289/337/289 282/329/282
f 282/329/282 289/337/289 290/338/290 283/330/283
f 283/330/283 290/338/290 291/339/291 284/331/284
f 284/331/284 291/339/291 292/340/292 285/332/285
f 285/332/285 292/340/292 293/341/293 286/333/286
f 286/333/286 293/341/293 294/245/294 287/334/287
f 195/335/195 173/342/173 212/343/212 288/336/288
f 288/336/288 212/343/212 211/344/211 289/337/289
f 289/337/289 211/344/211 210/345/210 290/338/290
f 290/338/290 210/345/210 209/346/209 291/339/291
f 291/339/291 209/346/209 208/347/208 292/340/292
f 292/340/292 208/347/208 207/348/207 293/341/293
f 293/341/293 207/348/207 206/246/206 294/245/294
f 223/269/223 301/349/301 181/350/181 168/270/168
f 301/349/301 308/351/308 182/352/182 181/350/181
f 308/351/308 315/353/315 183/354/183 182/352/182
f 315/353/315 322/355/322 184/356/184 183/354/183
f 322/355/322 329/357/329 185/358/185 184/356/184
f 329/357/329 336/359/336 186/360/186 185/358/185
f 336/359/336 343/241/343 187/244/187 186/360/186
f 171/247/171 222/361/222 295/362/295 229/248/229
f 229/248/229 295/362/295 296/363/296 443/364/443
f 443/364/443 296/363/296 297/365/297 444/366/444
f 444/366/444 297/365/297 298/367/298 445/368/445
f 445/368/445 298/367/298 299/369/299 446/370/446
f 446/370/446 299/369/299 300/371/300 447/372/447
f 447/372/447 300/371/300 301/349/301 223/269/223
f 222/361/222 221/373/221 302/374/302 295/362/295
f 295/362/295 302/374/302 303/375/303 296/363/296
f 296/363/296 303/375/303 304/376/304 297/365/297
f 297/365/297 304/376/304 305/377/305 298/367/298
f 298/367/298 305/377/305 306/378/306 299/369/299
f 299/369/299 306/378/306 307/379/307 300/371/300
f 300/371/300 307/379/307 308/351/308 301/349/301
f 221/373/221 220/380/220 309/381/309 302/374/302
f 302/374/302 309/381/309 310/382/310 303/375/303
f 303/375/303 310/382/310 311/383/311 304/376/304
f 304/376/304 311/383/311 312/384/312 305/377/305
f 305/377/305 312/384/312 313/385/313 306/378/306
f 306/378/306 313/385/313 314/386/314 307/379/307
f 307/379/307 314/386/314 315/353/315 308/351/308
f 220/380/220 219/387/219 316/388/316 309/381/309
f 309/381/309 316/388/316 317/389/317 310/382/310
f 310/382/310 317/389/317 318/390/318 311/383/311
f 311/383/311 318/390/318 319/391/319
f 319/391/319 320/392/320 313/385/313
f 313/385/313 320/392/320 321/393/321 314/386/314
f 314/386/314 321/393/321 322/355/322 315/353/315
f 219/387/219 218/394/218 323/395/323 316/388/316
f 316/388/316 323/395/323 324/396/324 317/389/317
f 317/389/317 324/396/324 325/397/325 318/390/318
f 325/397/325 326/398/326 319/391/319
f 319/391/319 326/398/326 327/399/327
f 320/392/320 327/399/327 328/400/328 321/393/321
f 321/393/321 328/400/328 329/357/329 322/355/322
f 218/394/218 217/401/217 330/402/330 323/395/323
f 323/395/323 330/402/330 331/403/331 324/396/324
f 324/396/324 331/403/331 332/404/332 325/397/325
f 325/397/325 332/404/332 333/405/333 326/398/326
f 326/398/326 333/405/333 334/406/334 327/399/327
f 327/399/327 334/406/334 335/407/335 328/400/328
f 328/400/328 335/407/335 336/359/336 329/357/329
f 217/401/217 216/240/216 337/408/337 330/402/330
f 330/402/330 337/408/337 338/409/338 331/403/331
f 331/403/331 338/409/338 339/410/339 332/404/332
f 332/404/332 339/410/339 340/411/340 333/405/333
f 333/405/333 340/411/340 341/412/341 334/406/334
f 334/406/334 341/412/341 342/413/342 335/407/335
f 335/407/335 342/413/342 343/241/343 336/359/336
f 216/240/216 172/239/172 230/252/230 337/408/337
f 337/408/337 230/252/230 231/254/231 338/409/338
f 338/409/338 231/254/231 232/256/232 339/410/339
f 339/410/339 232/256/232 233/258/233 340/411/340
f 340/411/340 233/258/233 234/260/234 341/412/341
f 341/412/341 234/260/234 235/262/235 342/413/342
f 342/413/342 235/262/235 236/242/236 343/241/343
f 350/414/350 222/361/222 171/247/171
f 350/414/350 357/415/357 221/373/221 222/361/222
f 357/415/357 364/416/364 220/380/220 221/373/221
f 364/416/364 371/417/371 219/387/219 220/380/220
f 371/417/371 378/418/378 218/394/218 219/387/219
f 378/418/378 384/419/384 217/401/217 218/394/218
f 384/419/384 389/237/389 216/240/216 217/401/217
f 173/342/173 205/420/205 344/421/344 212/343/212
f 212/343/212 344/421/344 345/422/345 211/344/211
f 211/344/211 345/422/345 346/423/346 210/345/210
f 210/345/210 346/423/346 347/424/347 209/346/209
f 209/346/209 347/424/347 348/425/348 208/347/208
f 208/347/208 348/425/348 349/426/349 207/348/207
f 207/348/207 349/426/349 350/414/350 206/246/206
f 205/420/205 204/427/204 351/428/351 344/421/344
f 344/421/344 351/428/351 352/429/352 345/422/345
f 345/422/345 352/429/352 353/430/353 346/423/346
f 346/423/346 353/430/353 354/431/354 347/424/347
f 347/424/347 354/431/354 355/432/355 348/425/348
f 348/425/348 355/432/355 356/433/356 349/426/349
f 349/426/349 356/433/356 357/415/357 350/414/350
f 204/427/204 203/434/203 358/435/358 351/428/351
f 351/428/351 358/435/358 359/436/359 352/429/352
f 352/429/352 359/436/359 360/437/360 353/430/353
f 353/430/353 360/437/360 361/438/361 354/431/354
f 354/431/354 361/438/361 362/439/362 355/432/355
f 355/432/355 362/439/362 363/440/363 356/433/356
f 356/433/356 363/440/363 364/416/364 357/415/357
f 203/434/203 202/441/202 365/442/365 358/435/358
f 358/435/358 365/442/365 366/443/366 359/436/359
f 359/436/359 366/443/366 367/444/367 360/437/360
f 360/437/360 367/444/367 368/445/368 361/438/361
f 361/438/361 368/445/368 369/446/369 362/439/362
f 362/439/362 369/446/369 370/447/370 363/440/363
f 363/440/363 370/447/370 371/417/371 364/416/364
f 365/442/365 372/448/372 373/449/373 366/443/366
f 366/443/366 373/449/373 374/450/374 367/444/367
f 367/444/367 374/450/374 375/451/375 368/445/368
f 368/445/368 375/451/375 376/452/376 369/446/369
f 369/446/369 376/452/376 377/453/377 370/447/370
f 370/447/370 377/453/377 378/418/378 371/417/371
f 373/449/373 379/454/379 380/455/380 374/450/374
f 374/450/374 380/455/380 381/456/381 375/451/375
f 375/451/375 381/456/381 382/457/382 376/452/376
f 376/452/376 382/457/382 383/458/383 377/453/377
f 377/453/377 383/458/383 384/419/384 378/418/378
f 380/455/380 385/459/385 386/460/386 381/456/381
f 381/456/381 386/460/386 387/461/387 382/457/382
f 382/457/382 387/461/387 388/462/388 383/458/383
f 383/458/383 388/462/388 389/237/389 384/419/384
f 387/461/387 213/463/213 214/263/214 388/462/388
f 388/462/388 214/263/214 215/238/215 389/237/389
f 195/335/195 391/464/391 205/420/205 173/342/173
f 170/281/170 194/465/194 390/466/390 201/282/201
f 174/284/174 398/467/398 194/465/194 170/281/170
f 398/467/398 405/468/405 193/469/193 194/465/194
f 405/468/405 412/470/412 192/471/192 193/469/193
f 412/470/412 419/472/419 191/473/191 192/471/192
f 168/270/168 181/350/181 392/474/392
f 180/267/180 392/474/392 393/475/393 179/294/179
f 179/294/179 393/475/393 394/476/394 178/292/178
f 178/292/178 394/476/394 395/477/395 177/290/177
f 177/290/177 395/477/395 396/478/396 176/288/176
f 176/288/176 396/478/396 397/479/397 175/286/175
f 175/286/175 397/479/397 398/467/398 174/284/174
f 181/350/181 182/352/182 399/480/399 392/474/392
f 392/474/392 399/480/399 400/481/400 393/475/393
f 393/475/393 400/481/400 401/482/401 394/476/394
f 394/476/394 401/482/401 402/483/402 395/477/395
f 395/477/395 402/483/402 403/484/403 396/478/396
f 396/478/396 403/484/403 404/485/404 397/479/397
f 397/479/397 404/485/404 405/468/405 398/467/398
f 182/352/182 183/354/183 406/486/406 399/480/399
f 399/480/399 406/486/406 407/487/407 400/481/400
f 400/481/400 407/487/407 408/488/408 401/482/401
f 401/482/401 408/488/408 409/489/409 402/483/402
f 402/483/402 409/489/409 410/490/410 403/484/403
f 403/484/403 410/490/410 411/491/411 404/485/404
f 404/485/404 411/491/411 412/470/412 405/468/405
f 183/354/183 184/356/184 413/492/413 406/486/406
f 406/486/406 413/492/413 414/493/414 407/487/407
f 407/487/407 414/493/414 415/494/415 408/488/408
f 408/488/408 415/494/415 416/495/416 409/489/409
f 409/489/409 416/495/416 417/496/417 410/490/410
f 410/490/410 417/496/417 418/497/418 411/491/411
f 411/491/411 418/497/418 419/472/419 412/470/412
f 184/356/184 185/358/185 420/498/420 413/492/413
f 413/492/413 420/498/420 421/499/421 414/493/414
f 414/493/414 421/499/421 422/500/422 415/494/415
f 415/494/415 422/500/422 423/501/423 416/495/416
f 416/495/416 423/501/423 424/502/424 417/496/417
f 417/496/417 424/502/424 425/503/425 418/497/418
f 418/497/418 425/503/425 426/504/426 419/472/419
f 185/358/185 186/360/186 427/505/427 420/498/420
f 420/498/420 427/505/427 428/506/428 421/499/421
f 421/499/421 428/506/428 429/507/429 422/500/422
f 422/500/422 429/507/429 430/508/430 423/501/423
f 423/501/423 430/508/430 431/509/431 424/502/424
f 424/502/424 431/509/431 432/510/432 425/503/425
f 186/360/186 187/244/187 433/511/433 427/505/427
f 427/505/427 433/511/433 434/512/434 428/506/428
f 428/506/428 434/512/434 435/513/435 429/507/429
f 429/507/429 435/513/435 436/514/436 430/508/430
f 430/508/430 436/514/436 437/515/437 431/509/431
f 187/244/187 169/243/169 188/250/188 433/511/433
f 433/511/433 188/250/188 189/266/189 434/512/434
f 434/512/434 189/266/189 190/516/190 435/513/435
f 206/246/206 350/414/350 171/247/171
f 180/267/180 168/270/168 392/474/392
f 225/274/225 446/370/446 447/372/447 224/272/224
f 226/276/226 445/368/445 446/370/446 225/274/225
f 227/278/227 444/366/444 445/368/445 226/276/226
f 228/280/228 443/364/443 444/366/444 227/278/227
f 451/517/451 452/518/452 442/279/442 441/277/441
f 450/519/450 451/517/451 441/277/441 440/275/440
f 449/520/449 450/519/450 440/275/440 439/273/439
f 448/521/448 449/520/449 439/273/439 438/271/438
f 228/280/228 229/248/229 443/364/443
f 294/245/294 229/248/229 442/279/442 452/518/452
f 252/268/252 259/302/259 448/521/448
f 224/272/224 447/372/447 223/269/223
f 318/390/318 325/397/325 319/391/319
f 312/384/312 311/383/311 319/391/319
f 312/384/312 319/391/319 313/385/313
f 320/392/320 319/391/319 327/399/327
f 259/302/259 266/310/266 449/520/449 448/521/448
f 266/310/266 273/318/273 450/519/450 449/520/449
f 273/318/273 280/326/280 451/517/451 450/519/450
f 280/326/280 287/334/287 452/518/452 451/517/451
f 223/269/223 252/268/252 448/521/448 438/271/438
f 287/334/287 294/245/294 452/518/452
