# Blender 4.3.2
# www.blender.org
mtllib android_gibb_torso.mtl
o GibbTorso
v 0.250000 0.005952 0.059286
v 0.150000 0.005952 0.159286
v 0.150000 0.005952 -0.140714
v 0.250000 0.005952 -0.090714
v -0.250000 0.005952 -0.090714
v -0.150000 0.005952 -0.140714
v -0.250000 0.005952 0.059286
v -0.150000 0.005952 0.159286
v -0.160000 -0.354048 0.059286
v -0.150000 -0.254048 0.159286
v -0.250000 -0.254048 0.059286
v -0.150000 0.215952 0.189286
v -0.200000 0.365952 0.109286
v -0.250000 0.235952 0.109286
v -0.160000 -0.354048 -0.090714
v -0.250000 -0.254048 -0.090714
v -0.150000 -0.254048 -0.140714
v -0.200000 0.385952 -0.090714
v -0.200000 0.265952 -0.190714
v -0.300000 0.245952 -0.090714
v 0.160000 -0.354048 0.059286
v 0.250000 -0.254048 0.059286
v 0.150000 -0.254048 0.159286
v 0.200000 0.365952 0.109286
v 0.150000 0.215952 0.189286
v 0.250000 0.235952 0.109286
v 0.160000 -0.354048 -0.090714
v 0.150000 -0.254048 -0.140714
v 0.250000 -0.254048 -0.090714
v 0.200000 0.385952 -0.090714
v 0.300000 0.245952 -0.090714
v 0.200000 0.265952 -0.190714
v 0.000000 -0.354048 -0.090714
v 0.000000 -0.254048 -0.140714
v 0.000000 0.365952 -0.090714
v 0.000000 0.245952 -0.190714
v 0.000000 -0.354048 0.059286
v 0.000000 -0.254048 0.159286
v 0.000000 0.365952 0.109286
v 0.000000 0.195952 0.209286
v 0.000000 0.005952 -0.140714
v 0.000000 0.005952 0.159286
vn -0.0782 -0.1955 0.9776
vn 0.9834 -0.1192 0.1371
vn 0.6703 -0.1327 0.7301
vn 0.0499 0.9975 0.0499
vn -0.9834 -0.1192 0.1371
vn 0.0113 -0.1972 -0.9803
vn -0.5966 -0.5369 0.5966
vn -0.5812 0.2236 0.7824
vn -0.4149 -0.3734 -0.8297
vn -0.6674 0.4767 -0.5721
vn 0.5965 -0.5369 0.5966
vn 0.5812 0.2236 0.7824
vn 0.4149 -0.3734 -0.8297
vn 0.6674 0.4767 -0.5721
vn -0.7433 -0.6690 -0.0000
vn -0.6703 -0.1327 0.7301
vn -0.8650 0.4806 0.1442
vn -0.4472 -0.0000 -0.8944
vn -0.0000 -0.4472 -0.8944
vn -0.0639 0.6389 -0.7667
vn 0.4472 -0.0000 -0.8944
vn 0.7433 -0.6690 -0.0000
vn 0.8650 0.4806 0.1442
vn 0.7071 -0.0000 0.7071
vn -0.0000 -0.7071 0.7071
vn -0.0220 0.4875 0.8728
vn -0.0000 -1.0000 -0.0000
vn 0.5760 -0.1946 -0.7939
vn -0.5760 -0.1946 -0.7939
vn -0.7071 -0.0000 0.7071
vn -0.0000 -0.0000 -1.0000
vn -1.0000 -0.0000 -0.0000
vn 1.0000 -0.0000 -0.0000
vn -0.0000 -0.0000 1.0000
vn 0.0220 0.4875 0.8728
vn 0.0639 0.6389 -0.7667
vn -0.0113 -0.1972 -0.9803
vn -0.0499 0.9975 0.0499
vn 0.0782 -0.1955 0.9776
vt 0.590975 0.207782
vt 0.590975 0.287696
vt 0.529462 0.293959
vt 0.530472 0.208127
vt 0.123142 0.223812
vt 0.122105 0.138107
vt 0.188613 0.132393
vt 0.181895 0.218039
vt 0.236371 0.130995
vt 0.236490 0.214595
vt 0.398704 0.422231
vt 0.400098 0.343010
vt 0.479301 0.345189
vt 0.477523 0.424009
vt 0.473095 0.205366
vt 0.480580 0.291765
vt 0.413895 0.285094
vt 0.414242 0.200026
vt 0.023458 0.246668
vt 0.000329 0.155967
vt 0.072034 0.129745
vt 0.079737 0.232594
vt 0.483782 0.064115
vt 0.528102 0.103797
vt 0.477421 0.113805
vt 0.423983 0.064521
vt 0.430040 0.111037
vt 0.393520 0.097371
vt 0.364948 0.292660
vt 0.198403 0.355395
vt 0.187075 0.308866
vt 0.238118 0.314369
vt 0.188240 0.079362
vt 0.139255 0.363000
vt 0.103876 0.331248
vt 0.139606 0.313735
vt 0.109057 0.079510
vt 0.373365 0.192235
vt 0.373477 0.025440
vt 0.346169 0.060733
vt 0.040965 0.036950
vt 0.003942 0.087185
vt 0.247750 0.396838
vt 0.284381 0.353222
vt 0.550748 0.383188
vt 0.588291 0.312768
vt 0.147367 0.426092
vt 0.206515 0.418487
vt 0.047183 0.344936
vt 0.588813 0.102549
vt 0.294827 0.214368
vt 0.295293 0.313980
vt 0.318814 0.178980
vt 0.339894 0.085548
vt 0.423550 0.000736
vt 0.483349 0.000329
vt 0.259476 0.043690
vt 0.294724 0.113905
vt 0.531981 0.017381
vt 0.573289 0.059983
vt 0.332043 0.383155
vt 0.296892 0.332805
vt 0.089682 0.409196
vt 0.057402 0.374556
vt 0.295952 0.266585
vt 0.109694 0.000329
vt 0.188483 0.000573
vt 0.295293 0.137621
s 1
usemtl None
f 42/1/1 40/2/1 12/3/1 8/4/1
f 4/5/2 31/6/2 26/7/2 1/8/2
f 25/9/3 2/10/3 1/8/3 26/7/3
f 35/11/4 18/12/4 13/13/4 39/14/4
f 7/15/5 14/16/5 20/17/5 5/18/5
f 41/19/6 36/20/6 32/21/6 3/22/6
f 9/23/7 10/24/7 11/25/7
f 12/3/8 13/13/8 14/16/8
f 15/26/9 16/27/9 17/28/9
f 18/12/10 19/29/10 20/17/10
f 21/30/11 22/31/11 23/32/11
f 24/33/12 25/9/12 26/7/12
f 27/34/13 28/35/13 29/36/13
f 30/37/14 31/6/14 32/21/14
f 15/26/15 9/23/15 11/25/15 16/27/15
f 8/4/16 12/3/16 14/16/16 7/15/16
f 13/13/17 18/12/17 20/17/17 14/16/17
f 6/38/18 17/28/18 16/27/18 5/18/18
f 33/39/19 15/26/19 17/28/19 34/40/19
f 35/41/20 30/37/20 32/21/20 36/42/20
f 4/5/21 29/36/21 28/35/21 3/22/21
f 21/30/22 27/34/22 29/36/22 22/31/22
f 30/37/23 24/33/23 26/7/23 31/6/23
f 2/10/24 23/32/24 22/31/24 1/8/24
f 37/43/25 21/30/25 23/32/25 38/44/25
f 39/45/26 13/13/26 12/3/26 40/46/26
f 33/47/27 27/34/27 21/30/27 37/48/27
f 31/6/28 4/5/28 3/22/28 32/21/28
f 19/29/29 6/38/29 5/18/29 20/17/29
f 10/24/30 8/4/30 7/15/30 11/25/30
f 34/49/31 41/19/31 3/22/31 28/35/31
f 11/25/32 7/15/32 5/18/32 16/27/32
f 29/36/33 4/5/33 1/8/33 22/31/33
f 38/50/34 42/1/34 8/4/34 10/24/34
f 23/32/34 2/10/34 42/51/34 38/52/34
f 17/28/31 6/38/31 41/53/31 34/54/31
f 15/26/27 33/55/27 37/56/27 9/23/27
f 24/33/35 39/57/35 40/58/35 25/9/35
f 9/23/25 37/59/25 38/60/25 10/24/25
f 18/12/36 35/61/36 36/62/36 19/29/36
f 27/34/19 33/63/19 34/64/19 28/35/19
f 6/38/37 19/29/37 36/65/37 41/53/37
f 30/37/38 35/66/38 39/67/38 24/33/38
f 2/10/39 25/9/39 40/68/39 42/51/39
