# Blender 4.3.2
# www.blender.org
mtllib android_gibb_leg_r.mtl
o GibbLeg.R
v 0.044680 0.075643 0.039004
v 0.040133 0.125635 0.088806
v 0.094296 0.125836 0.043349
v 0.088395 0.525825 0.093092
v 0.092555 0.575833 0.043273
v 0.142751 0.476027 0.047644
v 0.053387 0.075660 -0.060616
v 0.103003 0.125853 -0.056271
v 0.057547 0.125668 -0.110435
v 0.101262 0.575850 -0.056347
v 0.106002 0.475859 -0.106140
v 0.151458 0.476044 -0.051977
v -0.054940 0.075256 0.030297
v -0.104943 0.125063 0.025935
v -0.059487 0.125248 0.080099
v -0.057068 0.625252 0.030204
v -0.015772 0.575429 0.134186
v -0.106684 0.575059 0.025859
v -0.046233 0.075273 -0.069323
v -0.042073 0.125281 -0.119142
v -0.096236 0.125079 -0.073685
v -0.044008 0.625277 -0.119226
v -0.093624 0.575084 -0.123571
v 0.010349 0.575480 -0.164674
v 0.021833 -0.284451 0.021642
v 0.011484 -0.284484 0.060280
v 0.060625 -0.324299 0.031998
v 0.021454 0.125563 0.094364
v 0.034197 0.175605 0.046058
v 0.082687 0.125794 0.059003
v 0.037357 -0.284400 -0.036315
v 0.076149 -0.324249 -0.025959
v 0.047706 -0.284367 -0.074953
v 0.060070 0.175689 -0.050537
v 0.073200 0.125731 -0.098826
v 0.108561 0.125878 -0.037592
v -0.036124 -0.284678 0.006118
v -0.074606 -0.324828 -0.004225
v -0.046473 -0.284711 0.044755
v -0.062397 0.175227 0.020184
v -0.075140 0.125185 0.068490
v -0.110501 0.125038 0.007256
v -0.020600 -0.284627 -0.051839
v -0.010250 -0.284594 -0.090477
v -0.059083 -0.324778 -0.062182
v -0.036524 0.175310 -0.076411
v -0.084627 0.125122 -0.089339
v -0.023394 0.125353 -0.124700
v -0.056138 -0.424634 0.230161
v 0.011865 -0.324467 0.042166
v 0.063539 -0.424341 -0.098742
v 0.046058 -0.324383 -0.051806
v -0.112521 -0.424861 0.209644
v -0.044518 -0.324694 0.021649
v 0.007156 -0.424568 -0.119258
v -0.010325 -0.324610 -0.072323
v -0.056330 -0.374634 0.230135
v 0.063347 -0.374341 -0.098767
v 0.006964 -0.374568 -0.119284
v -0.112713 -0.374861 0.209619
v 0.034438 -0.424323 0.156705
v -0.117614 -0.424962 0.048169
v -0.117806 -0.374962 0.048144
v 0.034246 -0.374324 0.156680
vn 0.1369 -0.0826 0.9871
vn -0.9962 -0.0039 -0.0871
vn 0.3114 0.9499 0.0274
vn 0.9867 -0.1376 0.0862
vn 0.2854 -0.0852 -0.9546
vn 0.5271 -0.5752 0.6255
vn 0.7763 0.4113 0.4777
vn 0.6277 -0.5750 -0.5248
vn 0.7209 0.3360 -0.6061
vn -0.6232 -0.5797 0.5250
vn -0.6277 0.5750 0.5248
vn -0.5227 -0.5795 -0.6253
vn -0.3372 0.4068 -0.8490
vn 0.7072 -0.7044 0.0617
vn 0.6156 -0.0883 0.7831
vn 0.8893 0.4507 0.0778
vn 0.7625 -0.0977 -0.6396
vn 0.0643 -0.7070 -0.7043
vn 0.6232 0.5797 -0.5250
vn -0.4790 -0.0635 -0.8755
vn -0.7017 -0.7098 -0.0614
vn -0.7072 0.7044 -0.0617
vn -0.7660 -0.0029 0.6429
vn -0.0588 -0.7072 0.7045
vn 0.3680 0.8180 0.4421
vn 0.0039 -1.0000 0.0002
vn -0.2578 -0.0738 0.9634
vn -0.9635 -0.0703 -0.2581
vn -0.0039 1.0000 -0.0002
vn 0.9641 -0.0627 0.2582
vn 0.2583 -0.0721 -0.9634
vn -0.6803 -0.7098 -0.1828
vn 0.4061 0.5790 0.7070
vn 0.7048 0.5800 -0.4084
vn 0.6858 -0.7044 0.1831
vn -0.7093 0.5747 0.4082
vn -0.4105 0.5757 -0.7072
vn 0.4763 -0.0799 0.8757
vn 0.6803 0.7098 0.1828
vn 0.8502 -0.0787 -0.5205
vn 0.1802 0.7077 -0.6831
vn -0.4756 -0.0839 -0.8756
vn -0.6858 0.7044 -0.1831
vn -0.8496 -0.0851 0.5205
vn -0.1857 0.7065 0.6829
vn 0.8759 0.4556 0.1588
vn 0.2391 0.7077 -0.6648
vn -0.5613 0.8274 0.0172
vn -0.0867 0.9699 0.2274
vn 0.0038 -1.0000 0.0005
vn -0.3419 -0.0008 0.9397
vn -0.9995 -0.0038 0.0315
vn 0.3419 0.0008 -0.9397
vn 0.9936 0.0039 0.1132
vn 0.6299 0.0028 0.7767
vn -0.8018 -0.0034 -0.5975
vn -0.0038 1.0000 -0.0005
vn -0.7384 0.5040 -0.4481
vn 0.2718 0.9007 0.3390
vt 0.200461 0.746260
vt 0.167620 0.703952
vt 0.162797 0.629344
vt 0.180674 0.604019
vt 0.105144 0.710208
vt 0.087299 0.775561
vt 0.000329 0.512520
vt 0.094044 0.627841
vt 0.107721 0.621776
vt 0.105371 0.457793
vt 0.149769 0.620598
vt 0.132165 0.627957
vt 0.152058 0.691111
vt 0.140163 0.688916
vt 0.137787 0.643600
vt 0.151648 0.641098
vt 0.129227 0.689735
vt 0.117436 0.695354
vt 0.112792 0.633788
vt 0.128369 0.644377
vt 0.152821 0.703846
vt 0.135298 0.694762
vt 0.225564 0.789740
vt 0.250667 0.746260
vt 0.250667 0.426751
vt 0.119391 0.707235
vt 0.152808 0.703861
vt 0.144113 0.759210
vt 0.659854 0.092161
vt 0.672420 0.095423
vt 0.678381 0.170990
vt 0.664775 0.176755
vt 0.622260 0.036497
vt 0.643385 0.071807
vt 0.646823 0.192222
vt 0.591634 0.286516
vt 0.690621 0.278647
vt 0.665063 0.191744
vt 0.686031 0.177972
vt 0.711334 0.192160
vt 0.685694 0.093869
vt 0.692044 0.091108
vt 0.710942 0.173353
vt 0.692644 0.170475
vt 0.707464 0.080250
vt 0.724047 0.030494
vt 0.779920 0.257956
vt 0.733351 0.192984
vt 0.679205 0.088758
vt 0.693292 0.081332
vt 0.711355 0.192138
vt 0.659402 0.076444
vt 0.665045 0.191726
vt 0.718289 0.008471
vt 0.749435 0.000329
vt 0.808267 0.286516
vt 0.818828 0.247687
vt 0.679205 0.088744
vt 0.680609 0.033405
vt 0.913346 0.277807
vt 0.913346 0.368627
vt 0.896619 0.348566
vt 0.894690 0.320168
vt 0.885143 0.382323
vt 0.882274 0.352307
vt 0.840444 0.315579
vt 0.853681 0.247862
vt 0.874269 0.324451
vt 0.878409 0.242064
vt 0.716517 0.390252
vt 0.685461 0.421899
vt 0.663278 0.416575
vt 0.654405 0.355794
vt 0.848849 0.227256
vt 0.873577 0.221457
vt 0.819486 0.311483
vt 0.832723 0.243766
vt 0.924760 0.392130
vt 0.896556 0.405826
vt 0.931009 0.277807
vt 0.931009 0.368627
vt 0.893734 0.227084
vt 0.928671 0.262828
vt 0.869161 0.393026
vt 0.824462 0.326283
vt 0.716517 0.292499
vt 0.694334 0.287175
s 1
usemtl None
f 15/1/1 2/2/1 4/3/1 17/4/1
f 21/5/2 14/6/2 18/7/2 23/8/2
f 22/9/3 16/10/3 5/11/3 10/12/3
f 3/13/4 8/14/4 12/15/4 6/16/4
f 9/17/5 20/18/5 24/19/5 11/20/5
f 1/21/6 3/13/6 2/2/6
f 4/3/7 6/16/7 5/11/7
f 7/22/8 9/17/8 8/14/8
f 10/12/9 12/15/9 11/20/9
f 13/23/10 15/1/10 14/24/10
f 16/10/11 18/25/11 17/4/11
f 19/26/12 21/5/12 20/18/12
f 22/9/13 24/19/13 23/8/13
f 7/22/14 8/14/14 3/13/14 1/27/14
f 2/2/15 3/13/15 6/16/15 4/3/15
f 5/11/16 6/16/16 12/15/16 10/12/16
f 11/20/17 12/15/17 8/14/17 9/17/17
f 19/26/18 20/18/18 9/17/18 7/22/18
f 10/12/19 11/20/19 24/19/19 22/9/19
f 23/8/20 24/19/20 20/18/20 21/5/20
f 13/28/21 14/6/21 21/5/21 19/26/21
f 22/9/22 23/8/22 18/7/22 16/10/22
f 17/4/23 18/25/23 14/24/23 15/1/23
f 1/27/24 2/2/24 15/1/24 13/28/24
f 16/10/25 17/4/25 4/3/25 5/11/25
f 7/22/26 1/27/26 13/28/26 19/26/26
f 39/29/27 26/30/27 28/31/27 41/32/27
f 45/33/28 38/34/28 42/35/28 47/36/28
f 46/37/29 40/38/29 29/39/29 34/40/29
f 27/41/30 32/42/30 36/43/30 30/44/30
f 33/45/31 44/46/31 48/47/31 35/48/31
f 25/49/32 27/41/32 26/30/32
f 28/31/33 30/44/33 29/39/33
f 31/50/32 33/45/32 32/42/32
f 34/51/34 36/43/34 35/48/34
f 37/52/35 39/29/35 38/34/35
f 40/53/36 42/35/36 41/32/36
f 43/54/35 45/55/35 44/46/35
f 46/56/37 48/47/37 47/57/37
f 31/50/32 32/42/32 27/41/32 25/58/32
f 26/30/38 27/41/38 30/44/38 28/31/38
f 29/39/39 30/44/39 36/43/39 34/40/39
f 35/48/40 36/43/40 32/42/40 33/45/40
f 43/59/26 44/46/26 33/45/26 31/50/26
f 34/40/41 35/48/41 48/47/41 46/37/41
f 47/57/42 48/47/42 44/46/42 45/55/42
f 37/52/35 38/34/35 45/33/35 43/59/35
f 46/37/43 47/36/43 42/35/43 40/38/43
f 41/32/44 42/35/44 38/34/44 39/29/44
f 25/58/26 26/30/26 39/29/26 37/52/26
f 40/38/45 41/32/45 28/31/45 29/39/45
f 31/50/26 25/58/26 37/52/26 43/59/26
f 64/60/46 58/61/46 52/62/46 50/63/46
f 58/61/47 59/64/47 56/65/47 52/62/47
f 63/66/48 60/67/48 54/68/48
f 60/67/49 57/69/49 50/63/49 54/68/49
f 61/70/50 49/71/50 53/72/50 62/73/50
f 53/74/51 49/75/51 57/69/51 60/67/51
f 62/76/52 53/77/52 60/67/52 63/66/52
f 51/78/53 55/79/53 59/64/53 58/61/53
f 61/80/54 51/81/54 58/61/54 64/60/54
f 49/82/55 61/83/55 64/60/55 57/69/55
f 55/84/56 62/85/56 63/66/56 59/64/56
f 56/65/57 54/68/57 50/63/57 52/62/57
f 51/86/50 61/70/50 62/73/50 55/87/50
f 59/64/58 63/66/58 54/68/58 56/65/58
f 57/69/59 64/60/59 50/63/59
