# Blender 4.3.2
# www.blender.org
mtllib android_gibb_head.mtl
o GibbHead
v 0.090596 0.309315 -0.090596
v 0.167400 0.236739 -0.167400
v 0.218719 0.128122 -0.218719
v 0.213749 0.000000 -0.213749
v 0.195728 -0.128123 -0.195728
v 0.144410 -0.236740 -0.144410
v 0.067606 -0.309315 -0.067606
v 0.128122 0.309315 -0.000000
v 0.236739 0.236739 -0.000000
v 0.309315 0.128122 -0.000000
v 0.311810 0.000000 -0.000000
v 0.286324 -0.128123 -0.000000
v 0.213749 -0.236740 0.000000
v 0.105132 -0.309315 0.000000
v 0.090596 0.309315 0.090596
v 0.167400 0.236739 0.167400
v 0.245567 0.128122 0.218719
v 0.240598 0.000000 0.213749
v 0.222577 -0.128123 0.195728
v 0.171258 -0.236740 0.144410
v 0.067606 -0.309315 0.067606
v 0.000000 0.309315 0.128122
v 0.000000 0.236739 0.236739
v 0.000000 0.128122 0.309315
v 0.000000 0.000000 0.311810
v 0.000000 -0.128123 0.286325
v 0.000000 -0.236740 0.213749
v 0.000000 -0.309315 0.105132
v -0.090596 0.309315 0.090596
v -0.167400 0.236739 0.167400
v -0.245567 0.128122 0.218719
v -0.240598 0.000000 0.213749
v -0.222577 -0.128123 0.195728
v -0.171258 -0.236740 0.144410
v -0.067606 -0.309315 0.067606
v -0.128122 0.309315 -0.000000
v -0.236739 0.236739 -0.000000
v -0.309315 0.128122 -0.000000
v -0.311810 0.000000 -0.000000
v -0.286324 -0.128123 -0.000000
v -0.213749 -0.236740 0.000000
v -0.105132 -0.309315 0.000000
v -0.090596 0.309315 -0.090596
v -0.167400 0.236739 -0.167400
v -0.218719 0.128122 -0.218719
v -0.213749 0.000000 -0.213749
v -0.195728 -0.128123 -0.195728
v -0.144410 -0.236740 -0.144410
v -0.067606 -0.309315 -0.067606
v 0.000000 -0.334800 0.000000
v 0.000000 0.334800 -0.000000
v 0.000000 0.309315 -0.128122
v 0.000000 0.236739 -0.236739
v 0.000000 0.128122 -0.309315
v 0.000000 0.000000 -0.311810
v 0.000000 -0.128123 -0.286324
v 0.000000 -0.236740 -0.213749
v 0.000000 -0.309315 -0.105132
vn 0.1297 -0.9636 -0.2336
vn 0.3622 -0.5249 -0.7703
vn 0.3998 -0.0166 -0.9165
vn 0.2243 0.8103 -0.5414
vn 0.2642 -0.8095 -0.5243
vn 0.4116 -0.1806 -0.8933
vn 0.3256 0.5253 -0.7861
vn 0.0805 0.9776 -0.1945
vn 0.5243 -0.8095 -0.2642
vn 0.8933 -0.1806 -0.4116
vn 0.7861 0.5253 -0.3256
vn 0.1945 0.9776 -0.0805
vn 0.2336 -0.9636 -0.1297
vn 0.7703 -0.5249 -0.3622
vn 0.9165 -0.0166 -0.3998
vn 0.5414 0.8103 -0.2243
vn 0.9342 -0.1803 0.3079
vn 0.7625 0.5912 0.2628
vn 0.1945 0.9776 0.0805
vn 0.2336 -0.9636 0.1297
vn 0.8131 -0.5237 0.2540
vn 0.9545 -0.0150 0.2979
vn 0.5414 0.8103 0.2243
vn 0.5060 -0.8411 0.1910
vn 0.1297 -0.9636 0.2336
vn 0.3202 -0.5253 0.7884
vn 0.3617 -0.0160 0.9321
vn 0.2243 0.8103 0.5414
vn 0.2310 -0.8246 0.5164
vn 0.3710 -0.1807 0.9109
vn 0.3012 0.5519 0.7776
vn 0.0805 0.9776 0.1945
vn -0.3617 -0.0160 0.9321
vn -0.2243 0.8103 0.5414
vn -0.2310 -0.8246 0.5164
vn -0.3710 -0.1807 0.9109
vn -0.3012 0.5519 0.7776
vn -0.0805 0.9776 0.1945
vn -0.1297 -0.9636 0.2336
vn -0.3202 -0.5253 0.7884
vn -0.5060 -0.8411 0.1910
vn -0.9342 -0.1803 0.3079
vn -0.7625 0.5912 0.2628
vn -0.1945 0.9776 0.0805
vn -0.2336 -0.9636 0.1297
vn -0.8131 -0.5237 0.2540
vn -0.9545 -0.0150 0.2979
vn -0.5414 0.8103 0.2243
vn -0.7861 0.5253 -0.3256
vn -0.1945 0.9776 -0.0805
vn -0.2336 -0.9636 -0.1297
vn -0.7703 -0.5249 -0.3622
vn -0.9165 -0.0166 -0.3998
vn -0.5414 0.8103 -0.2243
vn -0.5243 -0.8095 -0.2642
vn -0.8933 -0.1806 -0.4116
vn -0.1297 -0.9636 -0.2336
vn -0.3622 -0.5249 -0.7703
vn -0.3998 -0.0166 -0.9165
vn -0.2243 0.8103 -0.5414
vn -0.2642 -0.8095 -0.5243
vn -0.4116 -0.1806 -0.8933
vn -0.3256 0.5253 -0.7861
vn -0.0805 0.9776 -0.1945
vt 0.251326 0.438416
vt 0.255992 0.436083
vt 0.255992 0.440749
vt 0.260658 0.436083
vt 0.265324 0.436083
vt 0.265324 0.440749
vt 0.260658 0.440749
vt 0.269991 0.436083
vt 0.274657 0.436083
vt 0.274657 0.440749
vt 0.269991 0.440749
vt 0.279323 0.436083
vt 0.283989 0.436083
vt 0.283989 0.440749
vt 0.279323 0.440749
vt 0.288655 0.438416
vt 0.260658 0.445415
vt 0.255992 0.445415
vt 0.269991 0.445415
vt 0.265324 0.445415
vt 0.279323 0.445415
vt 0.274657 0.445415
vt 0.288655 0.443082
vt 0.283989 0.445415
vt 0.251326 0.443082
vt 0.269991 0.450082
vt 0.265324 0.450082
vt 0.279323 0.450082
vt 0.274657 0.450082
vt 0.288655 0.447749
vt 0.283989 0.450082
vt 0.251326 0.447749
vt 0.255992 0.450082
vt 0.260658 0.450082
vt 0.251326 0.452415
vt 0.255992 0.454748
vt 0.265324 0.454748
vt 0.260658 0.454748
vt 0.274657 0.454748
vt 0.269991 0.454748
vt 0.283989 0.454748
vt 0.279323 0.454748
vt 0.288655 0.452415
vt 0.274657 0.459414
vt 0.269991 0.459414
vt 0.283989 0.459414
vt 0.279323 0.459414
vt 0.260658 0.459414
vt 0.255992 0.459414
vt 0.265324 0.459414
vt 0.288655 0.457081
vt 0.251326 0.457081
vt 0.260658 0.464080
vt 0.255992 0.464080
vt 0.269991 0.464080
vt 0.265324 0.464080
vt 0.279323 0.464080
vt 0.274657 0.464080
vt 0.288655 0.461747
vt 0.283989 0.464080
vt 0.251326 0.461747
vt 0.274657 0.426751
vt 0.279323 0.426751
vt 0.279323 0.431417
vt 0.274657 0.431417
vt 0.283989 0.426751
vt 0.288655 0.429084
vt 0.283989 0.431417
vt 0.251326 0.429084
vt 0.255992 0.426751
vt 0.255992 0.431417
vt 0.260658 0.426751
vt 0.265324 0.426751
vt 0.265324 0.431417
vt 0.260658 0.431417
vt 0.269991 0.426751
vt 0.269991 0.431417
vt 0.251326 0.433750
vt 0.288655 0.433750
s 1
usemtl None
f 50/1/1 58/2/1 7/3/1
f 57/4/2 56/5/2 5/6/2 6/7/2
f 55/8/3 54/9/3 3/10/3 4/11/3
f 53/12/4 52/13/4 1/14/4 2/15/4
f 58/2/5 57/4/5 6/7/5 7/3/5
f 56/5/6 55/8/6 4/11/6 5/6/6
f 54/9/7 53/12/7 2/15/7 3/10/7
f 52/13/8 51/16/8 1/14/8
f 7/3/9 6/7/9 13/17/9 14/18/9
f 5/6/10 4/11/10 11/19/10 12/20/10
f 3/10/11 2/15/11 9/21/11 10/22/11
f 1/14/12 51/23/12 8/24/12
f 50/25/13 7/3/13 14/18/13
f 6/7/14 5/6/14 12/20/14 13/17/14
f 4/11/15 3/10/15 10/22/15 11/19/15
f 2/15/16 1/14/16 8/24/16 9/21/16
f 12/20/17 11/19/17 18/26/17 19/27/17
f 10/22/18 9/21/18 16/28/18 17/29/18
f 8/24/19 51/30/19 15/31/19
f 50/32/20 14/18/20 21/33/20
f 13/17/21 12/20/21 19/27/21 20/34/21
f 11/19/22 10/22/22 17/29/22 18/26/22
f 9/21/23 8/24/23 15/31/23 16/28/23
f 14/18/24 13/17/24 20/34/24 21/33/24
f 50/35/25 21/33/25 28/36/25
f 20/34/26 19/27/26 26/37/26 27/38/26
f 18/26/27 17/29/27 24/39/27 25/40/27
f 16/28/28 15/31/28 22/41/28 23/42/28
f 21/33/29 20/34/29 27/38/29 28/36/29
f 19/27/30 18/26/30 25/40/30 26/37/30
f 17/29/31 16/28/31 23/42/31 24/39/31
f 15/31/32 51/43/32 22/41/32
f 25/40/33 24/39/33 31/44/33 32/45/33
f 23/42/34 22/41/34 29/46/34 30/47/34
f 28/36/35 27/38/35 34/48/35 35/49/35
f 26/37/36 25/40/36 32/45/36 33/50/36
f 24/39/37 23/42/37 30/47/37 31/44/37
f 22/41/38 51/51/38 29/46/38
f 50/52/39 28/36/39 35/49/39
f 27/38/40 26/37/40 33/50/40 34/48/40
f 35/49/41 34/48/41 41/53/41 42/54/41
f 33/50/42 32/45/42 39/55/42 40/56/42
f 31/44/43 30/47/43 37/57/43 38/58/43
f 29/46/44 51/59/44 36/60/44
f 50/61/45 35/49/45 42/54/45
f 34/48/46 33/50/46 40/56/46 41/53/46
f 32/45/47 31/44/47 38/58/47 39/55/47
f 30/47/48 29/46/48 36/60/48 37/57/48
f 38/62/49 37/63/49 44/64/49 45/65/49
f 36/66/50 51/67/50 43/68/50
f 50/69/51 42/70/51 49/71/51
f 41/72/52 40/73/52 47/74/52 48/75/52
f 39/76/53 38/62/53 45/65/53 46/77/53
f 37/63/54 36/66/54 43/68/54 44/64/54
f 42/70/55 41/72/55 48/75/55 49/71/55
f 40/73/56 39/76/56 46/77/56 47/74/56
f 50/78/57 49/71/57 58/2/57
f 48/75/58 47/74/58 56/5/58 57/4/58
f 46/77/59 45/65/59 54/9/59 55/8/59
f 44/64/60 43/68/60 52/13/60 53/12/60
f 49/71/61 48/75/61 57/4/61 58/2/61
f 47/74/62 46/77/62 55/8/62 56/5/62
f 45/65/63 44/64/63 53/12/63 54/9/63
f 43/68/64 51/79/64 52/13/64
