# Blender 4.3.2
# www.blender.org
mtllib android_gibb_arm_r.mtl
o GibbArm.R
v 0.153718 0.493743 0.063381
v 0.102970 0.493875 0.112622
v 0.113028 0.550917 0.072064
v 0.004489 0.511239 0.112622
v -0.043244 0.528472 0.063381
v 0.016257 0.577981 0.073800
v 0.156733 0.510844 -0.035099
v 0.116043 0.568018 -0.026417
v 0.109000 0.528077 -0.084340
v -0.040228 0.545573 -0.035099
v 0.010520 0.545441 -0.084340
v 0.020983 0.604780 -0.022944
v 0.081310 0.198273 -0.000298
v 0.035077 0.166425 -0.007244
v 0.040712 0.198379 0.039095
v -0.076259 0.226057 -0.000298
v -0.038073 0.212270 0.039095
v -0.043707 0.180317 -0.007244
v 0.083722 0.211954 -0.079082
v 0.045536 0.225741 -0.118475
v 0.037490 0.180106 -0.086028
v -0.073847 0.239738 -0.079082
v -0.041295 0.193998 -0.086028
v -0.033248 0.239632 -0.118475
v 0.092941 0.214116 -0.035465
v 0.072876 0.220627 0.017024
v 0.058884 0.257643 -0.023400
v 0.000027 0.228227 0.049199
v -0.052758 0.229317 0.028886
v -0.013965 0.265243 0.008776
v 0.060221 0.208693 -0.108266
v 0.026164 0.252221 -0.096201
v 0.007436 0.209784 -0.128578
v -0.085478 0.223896 -0.043915
v -0.065413 0.217384 -0.096403
v -0.046685 0.259822 -0.064025
v 0.052285 -0.092544 -0.005344
v 0.024967 -0.089693 0.006722
v 0.037237 -0.087660 0.034022
v -0.058764 -0.110938 0.045936
v -0.019176 -0.111755 0.061171
v -0.029670 -0.083993 0.030853
v 0.027746 -0.096610 -0.059945
v -0.011843 -0.095793 -0.075180
v 0.000427 -0.093759 -0.047879
v -0.083304 -0.115004 -0.008665
v -0.054210 -0.088059 -0.023748
v -0.068256 -0.119887 -0.048031
v 0.004979 -0.117588 0.017783
v -0.022340 -0.114738 0.029848
v -0.019561 -0.121654 -0.036818
v -0.046880 -0.118804 -0.024752
v 0.015473 -0.145350 0.048100
v -0.011846 -0.142500 0.060166
v -0.029517 -0.152805 -0.052001
v -0.056836 -0.149955 -0.039936
v 0.010736 -0.224804 0.056146
v -0.016582 -0.221954 0.068211
v -0.034254 -0.232258 -0.043956
v -0.061572 -0.229408 -0.031890
v 0.018846 -0.179049 0.063697
v -0.008473 -0.176198 0.075763
v 0.006975 -0.193483 0.040229
v -0.020344 -0.190633 0.052295
v 0.020848 -0.227434 0.079661
v -0.006470 -0.224584 0.091727
v 0.012935 -0.237057 0.064016
v -0.014384 -0.234207 0.076082
v -0.020355 -0.237461 -0.016848
v -0.047203 -0.242420 -0.004413
v -0.032626 -0.239495 -0.044149
v -0.059473 -0.244453 -0.031713
v -0.002506 -0.335853 -0.017544
v -0.029353 -0.340812 -0.005108
v -0.014776 -0.337886 -0.044844
v -0.041623 -0.342845 -0.032409
v -0.003996 -0.234751 0.019552
v -0.030843 -0.239709 0.031988
v -0.016266 -0.236784 -0.007748
v -0.043113 -0.241742 0.004687
v 0.013854 -0.333142 0.018857
v -0.012993 -0.338101 0.031292
v 0.001584 -0.335175 -0.008444
v -0.025263 -0.340134 0.003992
v 0.012364 -0.232040 0.055953
v -0.014483 -0.236999 0.068388
v 0.000094 -0.234073 0.028652
v -0.026753 -0.239032 0.041088
v 0.030214 -0.330432 0.055257
v 0.003367 -0.335390 0.067693
v 0.017944 -0.332465 0.027957
v -0.008903 -0.337423 0.040392
vn -0.0411 -0.2331 0.9716
vn -0.1710 -0.9698 -0.1737
vn -0.9938 0.1108 -0.0112
vn 0.3133 0.9238 0.2202
vn 0.0191 0.1082 -0.9939
vn 0.6499 0.3610 0.6688
vn -0.5315 0.4940 0.6881
vn 0.6847 0.5584 -0.4683
vn -0.5255 0.6548 -0.5433
vn 0.4524 -0.7589 0.4683
vn -0.6847 -0.5584 0.4683
vn 0.4873 -0.5615 -0.6688
vn -0.6499 -0.3610 -0.6688
vn 0.8173 0.5630 0.1228
vn 0.1258 0.5197 0.8450
vn -0.6769 0.7234 0.1358
vn 0.1953 0.7396 -0.6441
vn 0.7043 -0.0681 -0.7066
vn -0.6851 0.1769 -0.7066
vn -0.0996 -0.5649 -0.8191
vn 0.5754 -0.8086 -0.1228
vn -0.8173 -0.5630 -0.1228
vn -0.1422 -0.8067 0.5736
vn 0.6618 -0.3094 0.6829
vn -0.7277 -0.0643 0.6829
vn 0.9718 -0.2357 -0.0112
vn 0.4165 0.0054 0.9091
vn -0.0592 -0.9932 0.1006
vn -0.9125 0.0365 0.4074
vn 0.0592 0.9932 -0.1006
vn -0.3998 -0.1299 -0.9073
vn 0.7961 0.5577 0.2351
vn -0.2554 0.6674 0.6995
vn 0.3238 0.4794 -0.8157
vn -0.7277 0.5891 -0.3513
vn 0.2554 -0.6674 -0.6995
vn 0.7277 -0.5891 0.3512
vn 0.6858 0.6351 -0.3555
vn 0.3311 0.7502 0.5724
vn -0.6020 0.7695 0.2133
vn -0.2473 0.6544 -0.7146
vn 0.3498 -0.1826 -0.9188
vn -0.9350 -0.0426 -0.3521
vn 0.3255 -0.8581 0.3972
vn 0.6020 -0.7695 -0.2133
vn -0.0315 -0.9172 -0.3971
vn 0.9269 -0.0870 0.3651
vn -0.3577 0.0530 0.9323
vn 0.9049 -0.1588 -0.3949
vn -0.3075 0.4945 -0.8130
vn 0.9106 -0.0950 -0.4022
vn -0.9106 0.0950 0.4022
vn -0.4090 -0.0678 -0.9100
vn 0.4090 0.0678 0.9100
vn -0.1785 0.9839 0.0069
vn 0.4114 0.3009 0.8604
vn -0.1192 0.8715 -0.4757
vn 0.1192 -0.8715 0.4757
vn -0.3957 -0.4812 -0.7823
vn -0.8949 -0.1653 0.4145
vn 0.1785 -0.9839 -0.0070
vn 0.8949 0.1653 -0.4145
vn -0.1785 0.9839 0.0070
vt 0.942506 0.755634
vt 0.939472 0.884146
vt 0.907860 0.842923
vt 0.914405 0.784557
vt 0.875688 0.770423
vt 0.904602 0.711513
vt 0.902638 0.776270
vt 0.887828 0.780503
vt 0.889832 0.789183
vt 0.902673 0.787859
vt 0.896667 0.834895
vt 0.884280 0.829526
vt 0.879641 0.939572
vt 0.861804 0.846448
vt 0.878936 0.837811
vt 0.891478 0.847373
vt 0.860543 0.830879
vt 0.869787 0.781133
vt 0.881885 0.787347
vt 0.875194 0.828380
vt 0.980235 0.929978
vt 0.844640 0.835981
vt 0.980235 0.718330
vt 0.859411 0.770841
vt 0.764865 0.919553
vt 0.840321 0.713816
vt 0.935738 0.466516
vt 0.927382 0.591908
vt 0.906206 0.556379
vt 0.910645 0.495371
vt 0.882548 0.483211
vt 0.914177 0.434374
vt 0.903898 0.489126
vt 0.892815 0.491328
vt 0.894531 0.497735
vt 0.903256 0.497169
vt 0.895886 0.547726
vt 0.884841 0.541582
vt 0.870821 0.635571
vt 0.863173 0.555189
vt 0.878793 0.548087
vt 0.890605 0.558899
vt 0.862996 0.541684
vt 0.879807 0.490351
vt 0.889246 0.496541
vt 0.876365 0.539517
vt 0.962188 0.642487
vt 0.849224 0.544857
vt 0.962188 0.424668
vt 0.873110 0.480824
vt 0.774803 0.609291
vt 0.872762 0.426049
vt 0.260658 0.502726
vt 0.260658 0.512058
vt 0.269991 0.512058
vt 0.269991 0.502726
vt 0.260658 0.521390
vt 0.269991 0.521390
vt 0.260658 0.530723
vt 0.260658 0.540055
vt 0.269991 0.540055
vt 0.269991 0.530723
vt 0.251326 0.521390
vt 0.251326 0.530723
vt 0.279323 0.530723
vt 0.279323 0.521390
vt 0.289314 0.464739
vt 0.289314 0.474071
vt 0.279981 0.474071
vt 0.279981 0.464739
vt 0.289314 0.426751
vt 0.289314 0.436083
vt 0.289314 0.504702
vt 0.289314 0.514035
vt 0.279981 0.514035
vt 0.279981 0.504702
vt 0.289314 0.484720
vt 0.289314 0.494053
vt 0.279981 0.494053
vt 0.279981 0.484720
s 1
usemtl None
f 15/1/1 2/2/1 4/3/1 17/4/1
f 21/5/2 14/6/2 18/7/2 23/8/2
f 22/9/3 16/10/3 5/11/3 10/12/3
f 3/13/4 8/14/4 12/15/4 6/16/4
f 9/17/5 20/18/5 24/19/5 11/20/5
f 1/21/6 3/13/6 2/2/6
f 4/3/7 6/16/7 5/11/7
f 7/22/8 9/17/8 8/14/8
f 10/12/9 12/15/9 11/20/9
f 13/23/10 15/1/10 14/6/10
f 16/10/11 18/7/11 17/4/11
f 19/24/12 21/5/12 20/18/12
f 22/9/13 24/19/13 23/8/13
f 7/22/14 8/14/14 3/13/14 1/25/14
f 2/2/15 3/13/15 6/16/15 4/3/15
f 5/11/16 6/16/16 12/15/16 10/12/16
f 11/20/17 12/15/17 8/14/17 9/17/17
f 19/24/18 20/18/18 9/17/18 7/22/18
f 10/12/19 11/20/19 24/19/19 22/9/19
f 23/8/20 24/19/20 20/18/20 21/5/20
f 13/26/21 14/6/21 21/5/21 19/24/21
f 22/9/22 23/8/22 18/7/22 16/10/22
f 17/4/23 18/7/23 14/6/23 15/1/23
f 1/21/24 2/2/24 15/1/24 13/23/24
f 16/10/25 17/4/25 4/3/25 5/11/25
f 7/22/26 1/25/26 13/26/26 19/24/26
f 39/27/27 26/28/27 28/29/27 41/30/27
f 45/31/28 38/32/28 42/33/28 47/34/28
f 46/35/29 40/36/29 29/37/29 34/38/29
f 27/39/30 32/40/30 36/41/30 30/42/30
f 33/43/31 44/44/31 48/45/31 35/46/31
f 25/47/32 27/39/32 26/28/32
f 28/29/33 30/42/33 29/37/33
f 31/48/34 33/43/34 32/40/34
f 34/38/35 36/41/35 35/46/35
f 37/49/28 39/27/28 38/32/28
f 40/36/36 42/33/36 41/30/36
f 43/50/28 45/31/28 44/44/28
f 46/35/37 48/45/37 47/34/37
f 31/48/38 32/40/38 27/39/38 25/51/38
f 26/28/39 27/39/39 30/42/39 28/29/39
f 29/37/40 30/42/40 36/41/40 34/38/40
f 35/46/41 36/41/41 32/40/41 33/43/41
f 43/50/42 44/44/42 33/43/42 31/48/42
f 34/38/43 35/46/43 48/45/43 46/35/43
f 47/34/44 48/45/44 44/44/44 45/31/44
f 37/52/28 38/32/28 45/31/28 43/50/28
f 46/35/45 47/34/45 42/33/45 40/36/45
f 41/30/46 42/33/46 38/32/46 39/27/46
f 25/47/47 26/28/47 39/27/47 37/49/47
f 40/36/48 41/30/48 28/29/48 29/37/48
f 31/48/49 25/51/49 37/52/49 43/50/49
f 49/53/30 51/54/30 52/55/30 50/56/30
f 51/54/50 55/57/50 56/58/50 52/55/50
f 53/59/39 49/60/39 50/61/39 54/62/39
f 51/63/51 49/64/51 53/59/51 55/57/51
f 56/58/52 54/62/52 50/65/52 52/66/52
f 55/57/53 59/57/53 60/58/53 56/58/53
f 54/62/54 58/62/54 57/59/54 53/59/54
f 53/59/51 57/59/51 59/57/51 55/57/51
f 71/67/55 72/68/55 70/69/55 69/70/55
f 62/71/56 66/71/56 65/72/56 61/72/56
f 59/57/28 57/59/28 58/62/28 60/58/28
f 62/71/57 61/72/57 63/72/57 64/71/57
f 66/71/58 68/71/58 67/72/58 65/72/58
f 63/72/59 67/72/59 68/71/59 64/71/59
f 64/71/52 68/71/52 66/71/52 62/71/52
f 61/72/51 65/72/51 67/72/51 63/72/51
f 72/68/60 76/68/60 74/69/60 70/69/60
f 75/67/61 73/70/61 74/69/61 76/68/61
f 71/67/53 75/67/53 76/68/53 72/68/53
f 70/69/54 74/69/54 73/70/54 69/70/54
f 69/70/62 73/70/62 75/67/62 71/67/62
f 79/73/55 80/74/55 78/75/55 77/76/55
f 80/74/60 84/74/60 82/75/60 78/75/60
f 83/73/61 81/76/61 82/75/61 84/74/61
f 79/73/53 83/73/53 84/74/53 80/74/53
f 78/75/54 82/75/54 81/76/54 77/76/54
f 77/76/62 81/76/62 83/73/62 79/73/62
f 87/77/63 88/78/63 86/79/63 85/80/63
f 88/78/60 92/78/60 90/79/60 86/79/60
f 91/77/61 89/80/61 90/79/61 92/78/61
f 87/77/53 91/77/53 92/78/53 88/78/53
f 86/79/54 90/79/54 89/80/54 85/80/54
f 85/80/62 89/80/62 91/77/62 87/77/62
f 56/58/52 60/58/52 58/62/52 54/62/52
