# Blender 5.0.1
# www.blender.org
mtllib spheroid.mtl
o spheroid
v -0.300000 -0.300000 0.300000
v -0.300000 0.300000 0.300000
v -0.300000 -0.300000 -0.300000
v -0.300000 0.300000 -0.300000
v 0.300000 -0.300000 0.300000
v 0.300000 0.300000 0.300000
v 0.300000 -0.300000 -0.300000
v 0.300000 0.300000 -0.300000
v -0.359718 -0.359718 -0.105858
v -0.359718 -0.359718 0.105858
v -0.359718 -0.105858 0.359718
v -0.359718 0.105858 0.359718
v -0.359718 0.359718 0.105858
v -0.359718 0.359718 -0.105858
v -0.359718 0.105858 -0.359718
v -0.359718 -0.105858 -0.359718
v 0.105858 -0.359718 -0.359718
v -0.105858 -0.359718 -0.359718
v -0.105858 0.359718 -0.359718
v 0.105858 0.359718 -0.359718
v 0.359718 0.105858 -0.359718
v 0.359718 -0.105858 -0.359718
v 0.359718 -0.359718 0.105858
v 0.359718 -0.359718 -0.105858
v 0.359718 0.359718 -0.105858
v 0.359718 0.359718 0.105858
v 0.359718 0.105858 0.359718
v 0.359718 -0.105858 0.359718
v -0.105858 -0.359718 0.359718
v 0.105858 -0.359718 0.359718
v 0.105858 0.359718 0.359718
v -0.105858 0.359718 0.359718
v 0.145968 0.480049 -0.130838
v 0.145968 0.480050 0.130838
v -0.145968 0.480049 -0.130838
v -0.145968 0.480050 0.130838
v -0.145968 -0.480049 -0.130838
v -0.145968 -0.480050 0.130838
v 0.145968 -0.480049 -0.130838
v 0.145968 -0.480050 0.130838
v 0.130838 -0.145968 0.480049
v -0.130838 -0.145968 0.480050
v 0.130838 0.145968 0.480049
v -0.130838 0.145968 0.480050
v 0.480049 -0.145968 -0.130838
v 0.480050 -0.145968 0.130838
v 0.480049 0.145968 -0.130838
v 0.480050 0.145968 0.130838
v -0.130838 -0.145968 -0.480049
v 0.130838 -0.145968 -0.480050
v -0.130838 0.145968 -0.480049
v 0.130838 0.145968 -0.480050
v -0.480049 -0.145968 0.130838
v -0.480050 -0.145968 -0.130838
v -0.480049 0.145968 0.130838
v -0.480050 0.145968 -0.130838
vn -0.7855 0.4376 -0.4376
vn 0.4376 0.4376 -0.7855
vn 0.7855 0.4376 0.4376
vn -0.4376 0.4376 0.7855
vn 0.4376 -0.7855 0.4376
vn -0.4376 0.7855 0.4376
vn 0.4376 0.7855 0.4376
vn -0.0000 0.8851 0.4653
vn 0.4376 0.7855 -0.4376
vn 0.4906 0.8714 -0.0000
vn -0.0000 0.8851 -0.4653
vn -0.0000 1.0000 -0.0000
vn -0.4376 0.7855 -0.4376
vn -0.4906 0.8714 -0.0000
vn -0.4376 -0.7855 0.4376
vn -0.0000 -0.8851 0.4653
vn -0.4376 -0.7855 -0.4376
vn -0.4906 -0.8714 -0.0000
vn -0.0000 -0.8851 -0.4653
vn -0.0000 -1.0000 -0.0000
vn 0.4376 -0.7855 -0.4376
vn 0.4906 -0.8714 -0.0000
vn -0.4376 -0.4376 0.7855
vn -0.4653 -0.0000 0.8851
vn 0.4376 -0.4376 0.7855
vn -0.0000 -0.4906 0.8714
vn 0.4653 -0.0000 0.8851
vn -0.0000 -0.0000 1.0000
vn 0.4376 0.4376 0.7855
vn -0.0000 0.4906 0.8714
vn 0.7855 -0.4376 0.4376
vn 0.8851 -0.0000 0.4653
vn 0.7855 -0.4376 -0.4376
vn 0.8714 -0.4906 -0.0000
vn 0.8851 -0.0000 -0.4653
vn 1.0000 -0.0000 -0.0000
vn 0.7855 0.4376 -0.4376
vn 0.8714 0.4906 -0.0000
vn 0.4376 -0.4376 -0.7855
vn 0.4653 -0.0000 -0.8851
vn -0.4376 -0.4376 -0.7855
vn -0.0000 -0.4906 -0.8714
vn -0.4653 -0.0000 -0.8851
vn -0.0000 -0.0000 -1.0000
vn -0.4376 0.4376 -0.7855
vn -0.0000 0.4906 -0.8714
vn -0.7855 -0.4376 -0.4376
vn -0.8851 -0.0000 -0.4653
vn -0.7855 -0.4376 0.4376
vn -0.8714 -0.4906 -0.0000
vn -0.8851 -0.0000 0.4653
vn -1.0000 -0.0000 -0.0000
vn -0.7855 0.4376 0.4376
vn -0.8714 0.4906 -0.0000
vt 0.132018 0.435615
vt 0.141660 0.522896
vt 0.034523 0.509359
vt 0.008613 0.429227
vt 0.556913 0.811853
vt 0.544891 0.736517
vt 0.643588 0.735672
vt 0.675053 0.813711
vt 0.753974 0.431801
vt 0.749282 0.519029
vt 0.642758 0.493831
vt 0.648183 0.417405
vt 0.451203 0.426005
vt 0.456948 0.496731
vt 0.356387 0.493809
vt 0.351255 0.417125
vt 0.563404 0.192484
vt 0.678594 0.195898
vt 0.645342 0.276473
vt 0.545100 0.272629
vt 0.440929 0.575272
vt 0.325481 0.575822
vt 0.674733 0.575815
vt 0.559021 0.576342
vt 0.541105 0.497150
vt 0.560600 0.657157
vt 0.671905 0.656813
vt 0.458501 0.735716
vt 0.441135 0.656102
vt 0.359033 0.735748
vt 0.329535 0.656806
vt 0.323006 0.194513
vt 0.440381 0.191094
vt 0.459771 0.271820
vt 0.357657 0.275971
vt 0.337947 0.031436
vt 0.444022 0.012057
vt 0.435240 0.105578
vt 0.319678 0.112648
vt 0.553188 0.008922
vt 0.564629 0.106096
vt 0.665189 0.027523
vt 0.686351 0.112806
vt 0.453226 0.344270
vt 0.352682 0.352563
vt 0.649977 0.352968
vt 0.550205 0.343704
vt 0.547889 0.425350
vt 0.752145 0.250575
vt 0.756279 0.338892
vt 0.966536 0.262014
vt 0.991933 0.342049
vt 0.868841 0.335272
vt 0.859719 0.248159
vt 0.995924 0.424488
vt 0.867872 0.432970
vt 0.971278 0.509085
vt 0.858836 0.524977
vt 0.552466 0.993878
vt 0.557458 0.904952
vt 0.682307 0.893947
vt 0.660842 0.976503
vt 0.343945 0.972831
vt 0.325506 0.894119
vt 0.444286 0.905486
vt 0.446625 0.991170
vt 0.327417 0.814774
vt 0.448670 0.812203
vt 0.140953 0.245467
vt 0.132425 0.337700
vt 0.004143 0.346621
vt 0.028360 0.261761
vt 0.246576 0.338494
vt 0.250775 0.251069
vt 0.244808 0.431609
vt 0.249469 0.520123
s 0
usemtl Material
f 56/1/1 14/2/1 4/3/1 15/4/1
f 52/5/2 20/6/2 8/7/2 21/8/2
f 48/9/3 26/10/3 6/11/3 27/12/3
f 44/13/4 32/14/4 2/15/4 12/16/4
f 40/17/5 23/18/5 5/19/5 30/20/5
f 36/21/6 13/22/6 2/15/6 32/14/6
f 26/23/7 34/24/7 31/25/7 6/11/7
f 34/24/8 36/21/8 32/14/8 31/25/8
f 8/7/9 20/6/9 33/26/9 25/27/9
f 25/27/10 33/26/10 34/24/10 26/23/10
f 20/6/11 19/28/11 35/29/11 33/26/11
f 33/26/12 35/29/12 36/21/12 34/24/12
f 19/28/13 4/30/13 14/31/13 35/29/13
f 35/29/14 14/31/14 13/22/14 36/21/14
f 10/32/15 38/33/15 29/34/15 1/35/15
f 38/33/16 40/17/16 30/20/16 29/34/16
f 3/36/17 18/37/17 37/38/17 9/39/17
f 9/39/18 37/38/18 38/33/18 10/32/18
f 18/37/19 17/40/19 39/41/19 37/38/19
f 37/38/20 39/41/20 40/17/20 38/33/20
f 17/40/21 7/42/21 24/43/21 39/41/21
f 39/41/22 24/43/22 23/18/22 40/17/22
f 29/34/23 42/44/23 11/45/23 1/35/23
f 42/44/24 44/13/24 12/16/24 11/45/24
f 5/19/25 28/46/25 41/47/25 30/20/25
f 30/20/26 41/47/26 42/44/26 29/34/26
f 28/46/27 27/12/27 43/48/27 41/47/27
f 41/47/28 43/48/28 44/13/28 42/44/28
f 27/12/29 6/11/29 31/25/29 43/48/29
f 43/48/30 31/25/30 32/14/30 44/13/30
f 23/49/31 46/50/31 28/46/31 5/19/31
f 46/50/32 48/9/32 27/12/32 28/46/32
f 7/51/33 22/52/33 45/53/33 24/54/33
f 24/54/34 45/53/34 46/50/34 23/49/34
f 22/52/35 21/55/35 47/56/35 45/53/35
f 45/53/36 47/56/36 48/9/36 46/50/36
f 21/55/37 8/57/37 25/58/37 47/56/37
f 47/56/38 25/58/38 26/10/38 48/9/38
f 17/59/39 50/60/39 22/61/39 7/62/39
f 50/60/40 52/5/40 21/8/40 22/61/40
f 3/63/41 16/64/41 49/65/41 18/66/41
f 18/66/42 49/65/42 50/60/42 17/59/42
f 16/64/43 15/67/43 51/68/43 49/65/43
f 49/65/44 51/68/44 52/5/44 50/60/44
f 15/67/45 4/30/45 19/28/45 51/68/45
f 51/68/46 19/28/46 20/6/46 52/5/46
f 9/69/47 54/70/47 16/71/47 3/72/47
f 54/70/48 56/1/48 15/4/48 16/71/48
f 1/35/49 11/45/49 53/73/49 10/74/49
f 10/74/50 53/73/50 54/70/50 9/69/50
f 11/45/51 12/16/51 55/75/51 53/73/51
f 53/73/52 55/75/52 56/1/52 54/70/52
f 12/16/53 2/15/53 13/76/53 55/75/53
f 55/75/54 13/76/54 14/2/54 56/1/54
