# Blender 4.4.3
# www.blender.org
mtllib lamppost.mtl
o Pole
v -0.099498 0.000000 -0.240208
v -0.026788 3.120000 -0.064672
v 0.099498 0.000000 -0.240208
v 0.026788 3.120000 -0.064672
v 0.240208 0.000000 -0.099498
v 0.064672 3.120000 -0.026788
v 0.240208 0.000000 0.099498
v 0.064672 3.120000 0.026788
v 0.099498 0.000000 0.240208
v 0.026788 3.120000 0.064672
v -0.099498 0.000000 0.240208
v -0.026788 3.120000 0.064672
v -0.240208 0.000000 0.099498
v -0.064672 3.120000 0.026788
v -0.240208 0.000000 -0.099498
v -0.064672 3.120000 -0.026788
v -0.026788 1.840000 -0.064672
v 0.026788 1.840000 -0.064672
v 0.064672 1.840000 -0.026788
v 0.064672 1.840000 0.026788
v 0.026788 1.840000 0.064672
v -0.026788 1.840000 0.064672
v -0.064672 1.840000 0.026788
v -0.064672 1.840000 -0.026788
v -0.022961 1.900000 -0.055433
v 0.022961 1.900000 -0.055433
v 0.055433 1.900000 -0.022961
v 0.055433 1.900000 0.022961
v 0.022961 1.900000 0.055433
v -0.022961 1.900000 0.055433
v -0.055433 1.900000 0.022961
v -0.055433 1.900000 -0.022961
v 0.045922 0.600000 -0.110866
v 0.110866 0.600000 -0.045922
v 0.110866 0.600000 0.045922
v 0.045922 0.600000 0.110866
v -0.045922 0.600000 0.110866
v -0.110866 0.600000 0.045922
v -0.110866 0.600000 -0.045922
v -0.045922 0.600000 -0.110866
v 0.038268 0.400000 -0.092388
v 0.092388 0.400000 -0.038268
v 0.092388 0.400000 0.038268
v 0.038268 0.400000 0.092388
v -0.038268 0.400000 0.092388
v -0.092388 0.400000 0.038268
v -0.092388 0.400000 -0.038268
v -0.038268 0.400000 -0.092388
v -0.038268 0.650000 -0.092388
v 0.038268 0.650000 -0.092388
v 0.092388 0.650000 -0.038268
v 0.092388 0.650000 0.038268
v 0.038268 0.650000 0.092388
v -0.038268 0.650000 0.092388
v -0.092388 0.650000 0.038268
v -0.092388 0.650000 -0.038268
v -0.038268 0.550000 -0.092388
v 0.038268 0.550000 -0.092388
v 0.092388 0.550000 -0.038268
v 0.092388 0.550000 0.038268
v 0.038268 0.550000 0.092388
v -0.038268 0.550000 0.092388
v -0.092388 0.550000 0.038268
v -0.092388 0.550000 -0.038268
v 0.045922 0.380000 -0.110866
v 0.110866 0.380000 -0.045922
v 0.110866 0.380000 0.045922
v 0.045922 0.380000 0.110866
v -0.045922 0.380000 0.110866
v -0.110866 0.380000 0.045922
v -0.110866 0.380000 -0.045922
v -0.045922 0.380000 -0.110866
v 0.045922 0.350000 -0.110866
v 0.110866 0.350000 -0.045922
v 0.110866 0.350000 0.045922
v 0.045922 0.350000 0.110866
v -0.045922 0.350000 0.110866
v -0.110866 0.350000 0.045922
v -0.110866 0.350000 -0.045922
v -0.045922 0.350000 -0.110866
v 0.045922 0.270000 -0.110866
v 0.110866 0.270000 -0.045922
v 0.110866 0.270000 0.045922
v 0.045922 0.270000 0.110866
v -0.045922 0.270000 0.110866
v -0.110866 0.270000 0.045922
v -0.110866 0.270000 -0.045922
v -0.045922 0.270000 -0.110866
v -0.053576 0.330000 -0.129343
v 0.053576 0.330000 -0.129343
v 0.129343 0.330000 -0.053576
v 0.129343 0.330000 0.053576
v 0.053576 0.330000 0.129343
v -0.053576 0.330000 0.129343
v -0.129343 0.330000 0.053576
v -0.129343 0.330000 -0.053576
v 0.053576 0.290000 -0.129343
v 0.129343 0.290000 -0.053576
v 0.129343 0.290000 0.053576
v 0.053576 0.290000 0.129343
v -0.053576 0.290000 0.129343
v -0.129343 0.290000 0.053576
v -0.129343 0.290000 -0.053576
v -0.053576 0.290000 -0.129343
v 0.076537 0.030000 -0.184776
v 0.184776 0.030000 -0.076537
v 0.184776 0.030000 0.076537
v 0.076537 0.030000 0.184776
v -0.076537 0.030000 0.184776
v -0.184776 0.030000 0.076537
v -0.184776 0.030000 -0.076537
v -0.076537 0.030000 -0.184776
v 0.095671 0.020000 -0.230970
v 0.230969 0.020000 -0.095671
v 0.230970 0.020000 0.095671
v 0.095671 0.020000 0.230970
v -0.095671 0.020000 0.230970
v -0.230969 0.020000 0.095671
v -0.230970 0.020000 -0.095671
v -0.095671 0.020000 -0.230970
v 0.000000 0.000000 0.000000
v 0.038268 1.870000 -0.092388
v 0.092388 1.870000 -0.038268
v 0.092388 1.870000 0.038268
v 0.038268 1.870000 0.092388
v -0.038268 1.870000 0.092388
v -0.092388 1.870000 0.038268
v -0.092388 1.870000 -0.038268
v -0.038268 1.870000 -0.092388
v -0.015307 3.250000 -0.036955
v 0.015307 3.250000 -0.036955
v 0.036955 3.250000 -0.015307
v 0.036955 3.250000 0.015307
v 0.015307 3.250000 0.036955
v -0.015307 3.250000 0.036955
v -0.036955 3.250000 0.015307
v -0.036955 3.250000 -0.015307
v -0.022961 3.270000 -0.055433
v 0.022961 3.270000 -0.055433
v 0.055433 3.270000 -0.022961
v 0.055433 3.270000 0.022961
v 0.022961 3.270000 0.055433
v -0.022961 3.270000 0.055433
v -0.055433 3.270000 0.022961
v -0.055433 3.270000 -0.022961
v -0.011480 3.300000 -0.027716
v 0.011481 3.300000 -0.027716
v 0.027716 3.300000 -0.011481
v 0.027716 3.300000 0.011480
v 0.011481 3.300000 0.027716
v -0.011480 3.300000 0.027716
v -0.027716 3.300000 0.011480
v -0.027716 3.300000 -0.011481
v -0.007654 3.340000 -0.018478
v 0.007654 3.340000 -0.018478
v 0.018478 3.340000 -0.007654
v 0.018478 3.340000 0.007654
v 0.007654 3.340000 0.018478
v -0.007654 3.340000 0.018478
v -0.018478 3.340000 0.007654
v -0.018478 3.340000 -0.007654
v -0.011480 3.360000 -0.027716
v 0.011481 3.360000 -0.027716
v 0.027716 3.360000 -0.011481
v 0.027716 3.360000 0.011480
v 0.011481 3.360000 0.027716
v -0.011480 3.360000 0.027716
v -0.027716 3.360000 0.011480
v -0.027716 3.360000 -0.011481
v 0.000000 3.420000 -0.000000
v -0.022961 3.000000 -0.055433
v 0.022961 3.000000 -0.055433
v 0.055433 3.000000 -0.022961
v 0.055433 3.000000 0.022961
v 0.022961 3.000000 0.055433
v -0.022961 3.000000 0.055433
v -0.055433 3.000000 0.022961
v -0.055433 3.000000 -0.022961
v -0.022961 3.060000 -0.055433
v 0.022961 3.060000 -0.055433
v 0.055433 3.060000 -0.022961
v 0.055433 3.060000 0.022961
v 0.022961 3.060000 0.055433
v -0.022961 3.060000 0.055433
v -0.055433 3.060000 0.022961
v -0.055433 3.060000 -0.022961
v 0.026788 3.050000 -0.064672
v 0.026788 3.010000 -0.064672
v 0.064672 3.050000 -0.026788
v 0.064672 3.010000 -0.026788
v 0.064672 3.050000 0.026788
v 0.064672 3.010000 0.026788
v 0.026788 3.050000 0.064672
v 0.026788 3.010000 0.064672
v -0.026788 3.050000 0.064672
v -0.026788 3.010000 0.064672
v -0.064672 3.050000 0.026788
v -0.064672 3.010000 0.026788
v -0.064672 3.050000 -0.026788
v -0.064672 3.010000 -0.026788
v -0.026788 3.010000 -0.064672
v -0.026788 3.050000 -0.064672
vn -0.0000 -0.1522 -0.9884
vn 0.6989 -0.1522 -0.6989
vn 0.9884 -0.1522 -0.0000
vn 0.6989 -0.1522 0.6989
vn -0.0000 -0.1522 0.9884
vn -0.6989 -0.1522 0.6989
vn 0.6916 0.2085 -0.6916
vn -0.9884 -0.1522 -0.0000
vn -0.6989 -0.1522 -0.6989
vn -0.0000 -1.0000 -0.0000
vn -0.7069 0.0233 -0.7069
vn -0.9997 0.0233 -0.0000
vn -0.7069 0.0233 0.7069
vn -0.0000 0.0233 0.9997
vn 0.7069 0.0233 0.7069
vn 0.9997 0.0233 -0.0000
vn 0.7069 0.0233 -0.7069
vn -0.0000 0.0233 -0.9997
vn -0.4457 0.7764 -0.4457
vn -0.6303 0.7764 -0.0000
vn -0.4457 0.7764 0.4457
vn -0.0000 0.7764 0.6303
vn 0.4457 0.7764 0.4457
vn 0.6303 0.7764 -0.0000
vn 0.4457 0.7764 -0.4457
vn -0.0000 0.7764 -0.6303
vn -0.0000 -0.3466 -0.9380
vn 0.6633 -0.3466 -0.6633
vn 0.9380 -0.3466 -0.0000
vn 0.6633 -0.3466 0.6633
vn -0.0000 -0.3466 0.9380
vn -0.6633 -0.3466 0.6633
vn -0.9380 -0.3466 -0.0000
vn -0.6633 -0.3466 -0.6633
vn -0.5194 0.6786 -0.5194
vn -0.7345 0.6786 -0.0000
vn -0.5194 0.6786 0.5194
vn -0.0000 0.6786 0.7345
vn 0.5194 0.6786 0.5194
vn 0.7345 0.6786 -0.0000
vn 0.5194 0.6786 -0.5194
vn -0.0000 0.6786 -0.7345
vn -0.0000 0.3466 -0.9380
vn 0.6633 0.3466 -0.6633
vn 0.9380 0.3466 -0.0000
vn 0.6633 0.3466 0.6633
vn -0.0000 0.3466 0.9380
vn -0.6633 0.3466 0.6633
vn -0.9380 0.3466 -0.0000
vn -0.6633 0.3466 -0.6633
vn -0.7071 -0.0000 -0.7071
vn -1.0000 -0.0000 -0.0000
vn -0.7071 -0.0000 0.7071
vn -0.0000 -0.0000 1.0000
vn 0.7071 -0.0000 0.7071
vn 1.0000 -0.0000 -0.0000
vn 0.7071 -0.0000 -0.7071
vn -0.0000 -0.0000 -1.0000
vn -0.0000 0.2943 -0.9557
vn 0.6758 0.2943 -0.6758
vn 0.9557 0.2943 -0.0000
vn 0.6758 0.2943 0.6758
vn -0.0000 0.2943 0.9557
vn -0.6758 0.2943 0.6758
vn -0.9557 0.2943 -0.0000
vn -0.6758 0.2943 -0.6758
vn -0.5194 -0.6786 -0.5194
vn -0.7345 -0.6786 -0.0000
vn -0.5194 -0.6786 0.5194
vn -0.0000 -0.6786 0.7345
vn 0.5194 -0.6786 0.5194
vn 0.7345 -0.6786 -0.0000
vn 0.5194 -0.6786 -0.5194
vn -0.0000 -0.6786 -0.7345
vn -0.1496 0.9774 -0.1496
vn -0.2116 0.9774 -0.0000
vn -0.1496 0.9774 0.1496
vn -0.0000 0.9774 0.2116
vn 0.1496 0.9774 0.1496
vn 0.2116 0.9774 -0.0000
vn 0.1496 0.9774 -0.1496
vn -0.0000 0.9774 -0.2116
vn -0.0000 0.4194 -0.9078
vn 0.6419 0.4194 -0.6419
vn 0.9078 0.4194 -0.0000
vn 0.6419 0.4194 0.6419
vn -0.0000 0.4194 0.9078
vn -0.6419 0.4194 0.6419
vn -0.9078 0.4194 -0.0000
vn -0.6419 0.4194 -0.6419
vn -0.0000 0.2085 0.9780
vn -0.6916 0.2085 -0.6916
vn -0.0000 0.2085 -0.9780
vn 0.9780 0.2085 -0.0000
vn -0.6916 0.2085 0.6916
vn 0.6916 0.2085 0.6916
vn -0.9780 0.2085 -0.0000
vn -0.6890 0.2250 -0.6890
vn -0.0000 -0.4194 0.9078
vn -0.6890 0.2250 0.6890
vn 0.6890 0.2250 0.6890
vn 0.6890 0.2250 -0.6890
vn -0.9743 0.2250 -0.0000
vn -0.0000 0.2250 0.9743
vn 0.9743 0.2250 -0.0000
vn -0.0000 0.2250 -0.9743
vn 0.9078 -0.4194 -0.0000
vn -0.0000 -0.4194 -0.9078
vn -0.6419 -0.4194 -0.6419
vn -0.6419 -0.4194 0.6419
vn 0.6419 -0.4193 0.6419
vn 0.6419 -0.4194 -0.6419
vn -0.9078 -0.4194 -0.0000
vt 0.277702 0.888110
vt 0.273292 0.905397
vt 0.335036 0.905397
vt 0.330626 0.888110
vt 0.378696 0.905397
vt 0.368048 0.888110
vt 0.330639 0.887992
vt 0.335049 0.905279
vt 0.273305 0.905279
vt 0.277716 0.887992
vt 0.229632 0.905397
vt 0.240280 0.888110
vt 0.321805 0.942852
vt 0.346754 0.942852
vt 0.698246 0.961914
vt 0.805962 0.973068
vt 0.805962 0.950760
vt 0.742863 0.934985
vt 0.197690 0.193749
vt 0.229632 0.536608
vt 0.273292 0.536608
vt 0.260061 0.193749
vt 0.260074 0.193631
vt 0.273305 0.536490
vt 0.335049 0.536490
vt 0.348281 0.193631
vt 0.348267 0.193749
vt 0.335036 0.536608
vt 0.410638 0.193749
vt 0.378696 0.536608
vt 0.197690 0.545251
vt 0.240280 0.553895
vt 0.277702 0.553895
vt 0.260061 0.545251
vt 0.260074 0.545134
vt 0.277716 0.553777
vt 0.330639 0.553777
vt 0.348281 0.545134
vt 0.348267 0.545251
vt 0.330626 0.553895
vt 0.410638 0.545251
vt 0.368048 0.553895
vt 0.260061 0.164937
vt 0.251241 0.179343
vt 0.357087 0.179343
vt 0.348267 0.164937
vt 0.431933 0.179343
vt 0.410638 0.164937
vt 0.348281 0.164820
vt 0.357101 0.179226
vt 0.251254 0.179226
vt 0.260074 0.164820
vt 0.260061 0.164937
vt 0.176395 0.179343
vt 0.197690 0.164937
vt 0.176395 0.115957
vt 0.197690 0.121720
vt 0.260061 0.121720
vt 0.251241 0.115958
vt 0.251254 0.115840
vt 0.260074 0.121602
vt 0.348281 0.121602
vt 0.357101 0.115840
vt 0.251241 0.115957
vt 0.260061 0.121720
vt 0.357087 0.115957
vt 0.348267 0.121720
vt 0.431933 0.115957
vt 0.410638 0.121720
vt 0.251241 0.107314
vt 0.357087 0.107314
vt 0.431933 0.107314
vt 0.357101 0.107196
vt 0.251254 0.107196
vt 0.251241 0.107314
vt 0.176395 0.107314
vt 0.155100 0.101552
vt 0.242420 0.101552
vt 0.242433 0.101434
vt 0.365922 0.101434
vt 0.242420 0.101552
vt 0.365908 0.101552
vt 0.453227 0.101552
vt 0.215958 0.015117
vt 0.251241 0.084265
vt 0.357087 0.084265
vt 0.392370 0.015117
vt 0.431933 0.084265
vt 0.517112 0.015117
vt 0.392383 0.014999
vt 0.357101 0.084147
vt 0.251254 0.084147
vt 0.215972 0.014999
vt 0.251241 0.084265
vt 0.176395 0.084265
vt 0.091216 0.015117
vt 0.242420 0.090027
vt 0.365908 0.090027
vt 0.453227 0.090027
vt 0.365922 0.089909
vt 0.242433 0.089909
vt 0.242420 0.090027
vt 0.155100 0.090027
vt 0.037979 0.012236
vt 0.193907 0.012236
vt 0.193920 0.012118
vt 0.414435 0.012118
vt 0.414421 0.012236
vt 0.570349 0.012236
vt 0.189496 0.006473
vt 0.418831 0.006473
vt 0.580996 0.006473
vt 0.418845 0.006356
vt 0.189510 0.006356
vt 0.580996 0.006473
vt 0.027332 0.006473
vt 0.027332 0.006473
vt 0.590530 0.950760
vt 0.653628 0.934985
vt 0.590530 0.973068
vt 0.653628 0.988843
vt 0.742863 0.988843
vt 0.321819 0.942735
vt 0.286536 0.942735
vt 0.277716 0.948497
vt 0.330639 0.948497
vt 0.286523 0.942852
vt 0.261574 0.942852
vt 0.330626 0.948615
vt 0.368048 0.948615
vt 0.336106 0.957258
vt 0.317395 0.957258
vt 0.277702 0.948615
vt 0.240280 0.948615
vt 0.290933 0.957258
vt 0.272222 0.957258
vt 0.282869 0.968783
vt 0.295343 0.968783
vt 0.290947 0.957140
vt 0.317408 0.957140
vt 0.312985 0.968783
vt 0.317395 0.974545
vt 0.290933 0.974545
vt 0.325459 0.968783
vt 0.295357 0.968665
vt 0.312998 0.968665
vt 0.317408 0.974427
vt 0.290947 0.974427
vt 0.304177 0.991715
vt 0.272222 0.974545
vt 0.336106 0.974545
vt 0.304164 0.991832
vt 0.240280 0.870823
vt 0.277702 0.870823
vt 0.277716 0.870706
vt 0.330639 0.870706
vt 0.330626 0.870823
vt 0.368048 0.870823
vt 0.229632 0.885229
vt 0.273292 0.885229
vt 0.273305 0.885111
vt 0.335049 0.885111
vt 0.335036 0.885229
vt 0.378696 0.885229
vt 0.273292 0.873704
vt 0.335036 0.873704
vt 0.378696 0.873704
vt 0.335049 0.873587
vt 0.273305 0.873587
vt 0.229632 0.873704
s 0
g Pole_lamppost_metal
usemtl lamppost_metal
f 179/1/1 2/2/1 4/3/1 180/4/1
f 180/4/2 4/3/2 6/5/2 181/6/2
f 181/7/3 6/8/3 8/9/3 182/10/3
f 182/6/4 8/5/4 10/3/4 183/4/4
f 183/4/5 10/3/5 12/2/5 184/1/5
f 184/1/6 12/2/6 14/11/6 185/12/6
f 6/5/7 4/3/7 131/13/7 132/14/7
f 185/10/8 14/9/8 16/8/8 186/7/8
f 186/12/9 16/11/9 2/2/9 179/1/9
f 121/15/10 5/16/10 7/17/10 9/18/10
f 56/19/11 24/20/11 17/21/11 49/22/11
f 55/23/12 23/24/12 24/25/12 56/26/12
f 54/22/13 22/21/13 23/20/13 55/19/13
f 53/27/14 21/28/14 22/21/14 54/22/14
f 52/29/15 20/30/15 21/28/15 53/27/15
f 51/26/16 19/25/16 20/24/16 52/23/16
f 50/27/17 18/28/17 19/30/17 51/29/17
f 49/22/18 17/21/18 18/28/18 50/27/18
f 128/31/19 32/32/19 25/33/19 129/34/19
f 127/35/20 31/36/20 32/37/20 128/38/20
f 126/34/21 30/33/21 31/32/21 127/31/21
f 125/39/22 29/40/22 30/33/22 126/34/22
f 124/41/23 28/42/23 29/40/23 125/39/23
f 123/38/24 27/37/24 28/36/24 124/35/24
f 122/39/25 26/40/25 27/42/25 123/41/25
f 129/34/26 25/33/26 26/40/26 122/39/26
f 57/43/27 40/44/27 33/45/27 58/46/27
f 58/46/28 33/45/28 34/47/28 59/48/28
f 59/49/29 34/50/29 35/51/29 60/52/29
f 60/48/30 35/47/30 36/45/30 61/46/30
f 61/46/31 36/45/31 37/44/31 62/53/31
f 62/53/32 37/44/32 38/54/32 63/55/32
f 63/52/33 38/51/33 39/50/33 64/49/33
f 64/55/34 39/54/34 40/44/34 57/43/34
f 71/56/35 47/57/35 48/58/35 72/59/35
f 70/60/36 46/61/36 47/62/36 71/63/36
f 69/64/37 45/65/37 46/57/37 70/56/37
f 68/66/38 44/67/38 45/65/38 69/64/38
f 67/68/39 43/69/39 44/67/39 68/66/39
f 66/63/40 42/62/40 43/61/40 67/60/40
f 65/66/41 41/67/41 42/69/41 66/68/41
f 72/59/42 48/58/42 41/67/42 65/66/42
f 40/44/43 49/22/43 50/27/43 33/45/43
f 33/45/44 50/27/44 51/29/44 34/47/44
f 34/50/45 51/26/45 52/23/45 35/51/45
f 35/47/46 52/29/46 53/27/46 36/45/46
f 36/45/47 53/27/47 54/22/47 37/44/47
f 37/44/48 54/22/48 55/19/48 38/54/48
f 38/51/49 55/23/49 56/26/49 39/50/49
f 39/54/50 56/19/50 49/22/50 40/44/50
f 47/57/51 64/55/51 57/43/51 48/58/51
f 46/61/52 63/52/52 64/49/52 47/62/52
f 45/65/53 62/53/53 63/55/53 46/57/53
f 44/67/54 61/46/54 62/53/54 45/65/54
f 43/69/55 60/48/55 61/46/55 44/67/55
f 42/62/56 59/49/56 60/52/56 43/61/56
f 41/67/57 58/46/57 59/48/57 42/69/57
f 48/58/58 57/43/58 58/46/58 41/67/58
f 80/70/58 72/59/58 65/66/58 73/71/58
f 73/71/57 65/66/57 66/68/57 74/72/57
f 74/73/56 66/63/56 67/60/56 75/74/56
f 75/72/55 67/68/55 68/66/55 76/71/55
f 76/71/54 68/66/54 69/64/54 77/75/54
f 77/75/53 69/64/53 70/56/53 78/76/53
f 78/74/52 70/60/52 71/63/52 79/73/52
f 79/76/51 71/56/51 72/59/51 80/70/51
f 96/77/35 79/76/35 80/70/35 89/78/35
f 95/79/36 78/74/36 79/73/36 96/80/36
f 94/81/37 77/75/37 78/76/37 95/77/37
f 93/82/38 76/71/38 77/75/38 94/81/38
f 92/83/39 75/72/39 76/71/39 93/82/39
f 91/80/40 74/73/40 75/74/40 92/79/40
f 90/82/41 73/71/41 74/72/41 91/83/41
f 89/78/42 80/70/42 73/71/42 90/82/42
f 112/84/59 88/85/59 81/86/59 105/87/59
f 105/87/60 81/86/60 82/88/60 106/89/60
f 106/90/61 82/91/61 83/92/61 107/93/61
f 107/89/62 83/88/62 84/86/62 108/87/62
f 108/87/63 84/86/63 85/94/63 109/84/63
f 109/84/64 85/94/64 86/95/64 110/96/64
f 110/93/65 86/92/65 87/91/65 111/90/65
f 111/96/66 87/95/66 88/85/66 112/84/66
f 104/97/58 89/78/58 90/82/58 97/98/58
f 97/98/57 90/82/57 91/83/57 98/99/57
f 98/100/56 91/80/56 92/79/56 99/101/56
f 99/99/55 92/83/55 93/82/55 100/98/55
f 100/98/54 93/82/54 94/81/54 101/102/54
f 101/102/53 94/81/53 95/77/53 102/103/53
f 102/101/52 95/79/52 96/80/52 103/100/52
f 103/103/51 96/77/51 89/78/51 104/97/51
f 87/95/67 103/103/67 104/97/67 88/85/67
f 86/92/68 102/101/68 103/100/68 87/91/68
f 85/94/69 101/102/69 102/103/69 86/95/69
f 84/86/70 100/98/70 101/102/70 85/94/70
f 83/88/71 99/99/71 100/98/71 84/86/71
f 82/91/72 98/100/72 99/101/72 83/92/72
f 81/86/73 97/98/73 98/99/73 82/88/73
f 88/85/74 104/97/74 97/98/74 81/86/74
f 119/104/75 111/96/75 112/84/75 120/105/75
f 118/106/76 110/93/76 111/90/76 119/107/76
f 117/105/77 109/84/77 110/96/77 118/104/77
f 116/108/78 108/87/78 109/84/78 117/105/78
f 115/109/79 107/89/79 108/87/79 116/108/79
f 114/107/80 106/90/80 107/93/80 115/106/80
f 113/108/81 105/87/81 106/89/81 114/109/81
f 120/105/82 112/84/82 105/87/82 113/108/82
f 1/110/83 120/105/83 113/108/83 3/111/83
f 3/111/84 113/108/84 114/109/84 5/112/84
f 5/113/85 114/107/85 115/106/85 7/114/85
f 7/115/86 115/109/86 116/108/86 9/111/86
f 9/111/87 116/108/87 117/105/87 11/110/87
f 11/110/88 117/105/88 118/104/88 13/116/88
f 13/114/89 118/106/89 119/107/89 15/113/89
f 15/117/90 119/104/90 120/105/90 1/110/90
f 13/118/10 121/15/10 9/18/10 11/119/10
f 15/120/10 1/121/10 121/15/10 13/118/10
f 1/121/10 3/122/10 5/16/10 121/15/10
f 17/21/74 129/34/74 122/39/74 18/28/74
f 18/28/73 122/39/73 123/41/73 19/30/73
f 19/25/72 123/38/72 124/35/72 20/24/72
f 20/30/71 124/41/71 125/39/71 21/28/71
f 21/28/70 125/39/70 126/34/70 22/21/70
f 22/21/69 126/34/69 127/31/69 23/20/69
f 23/24/68 127/35/68 128/38/68 24/25/68
f 24/20/67 128/31/67 129/34/67 17/21/67
f 137/123/68 136/124/68 144/125/68 145/126/68
f 12/2/91 10/3/91 134/13/91 135/127/91
f 2/2/92 16/11/92 137/128/92 130/127/92
f 4/3/93 2/2/93 130/127/93 131/13/93
f 8/9/94 6/8/94 132/123/94 133/124/94
f 14/11/95 12/2/95 135/127/95 136/128/95
f 10/3/96 8/5/96 133/14/96 134/13/96
f 16/8/97 14/9/97 136/124/97 137/123/97
f 142/129/39 141/130/39 149/131/39 150/132/39
f 135/127/70 134/13/70 142/129/70 143/133/70
f 133/124/72 132/123/72 140/126/72 141/125/72
f 131/13/74 130/127/74 138/133/74 139/129/74
f 130/127/67 137/128/67 145/134/67 138/133/67
f 136/128/69 135/127/69 143/133/69 144/134/69
f 134/13/71 133/14/71 141/130/71 142/129/71
f 132/14/73 131/13/73 139/129/73 140/130/73
f 146/135/98 153/136/98 161/137/98 154/138/98
f 140/130/41 139/129/41 147/132/41 148/131/41
f 145/126/36 144/125/36 152/139/36 153/140/36
f 143/133/38 142/129/38 150/132/38 151/135/38
f 141/125/40 140/126/40 148/140/40 149/139/40
f 139/129/42 138/133/42 146/135/42 147/132/42
f 138/133/35 145/134/35 153/136/35 146/135/35
f 144/134/37 143/133/37 151/135/37 152/136/37
f 159/138/99 158/141/99 166/142/99 167/143/99
f 152/136/100 151/135/100 159/138/100 160/137/100
f 150/132/101 149/131/101 157/144/101 158/141/101
f 148/131/102 147/132/102 155/141/102 156/144/102
f 153/140/103 152/139/103 160/145/103 161/146/103
f 151/135/104 150/132/104 158/141/104 159/138/104
f 149/139/105 148/140/105 156/146/105 157/145/105
f 147/132/106 146/135/106 154/138/106 155/141/106
f 169/147/89 168/148/89 170/149/89
f 157/145/107 156/146/107 164/147/107 165/148/107
f 155/141/108 154/138/108 162/143/108 163/142/108
f 154/138/109 161/137/109 169/150/109 162/143/109
f 160/137/110 159/138/110 167/143/110 168/150/110
f 158/141/111 157/144/111 165/151/111 166/142/111
f 156/144/112 155/141/112 163/142/112 164/151/112
f 161/146/113 160/145/113 168/148/113 169/147/113
f 167/143/87 166/142/87 170/152/87
f 165/148/85 164/147/85 170/149/85
f 163/142/83 162/143/83 170/152/83
f 162/143/90 169/150/90 170/152/90
f 168/150/88 167/143/88 170/152/88
f 166/142/86 165/151/86 170/152/86
f 164/151/84 163/142/84 170/152/84
f 32/32/51 178/153/51 171/154/51 25/33/51
f 31/36/52 177/155/52 178/156/52 32/37/52
f 30/33/53 176/154/53 177/153/53 31/32/53
f 29/40/54 175/157/54 176/154/54 30/33/54
f 28/42/55 174/158/55 175/157/55 29/40/55
f 27/37/56 173/156/56 174/155/56 28/36/56
f 26/40/57 172/157/57 173/158/57 27/42/57
f 25/33/58 171/154/58 172/157/58 26/40/58
f 199/159/35 186/12/35 179/1/35 202/160/35
f 197/161/36 185/10/36 186/7/36 199/162/36
f 195/160/37 184/1/37 185/12/37 197/159/37
f 193/163/38 183/4/38 184/1/38 195/160/38
f 191/164/39 182/6/39 183/4/39 193/163/39
f 189/162/40 181/7/40 182/10/40 191/161/40
f 187/163/41 180/4/41 181/6/41 189/164/41
f 202/160/42 179/1/42 180/4/42 187/163/42
f 171/154/74 201/165/74 188/166/74 172/157/74
f 201/165/58 202/160/58 187/163/58 188/166/58
f 172/157/73 188/166/73 190/167/73 173/158/73
f 188/166/57 187/163/57 189/164/57 190/167/57
f 173/156/72 190/168/72 192/169/72 174/155/72
f 190/168/56 189/162/56 191/161/56 192/169/56
f 174/158/71 192/167/71 194/166/71 175/157/71
f 192/167/55 191/164/55 193/163/55 194/166/55
f 175/157/70 194/166/70 196/165/70 176/154/70
f 194/166/54 193/163/54 195/160/54 196/165/54
f 176/154/69 196/165/69 198/170/69 177/153/69
f 196/165/53 195/160/53 197/159/53 198/170/53
f 177/155/68 198/169/68 200/168/68 178/156/68
f 198/169/52 197/161/52 199/162/52 200/168/52
f 178/153/67 200/170/67 201/165/67 171/154/67
f 200/170/51 199/159/51 202/160/51 201/165/51
o WingsEW
v -0.250000 2.500000 -0.020000
v 0.250000 2.500000 -0.020000
v -0.250000 2.485858 -0.014142
v 0.250000 2.485858 -0.014142
v -0.250000 2.480000 -0.000000
v 0.250000 2.480000 -0.000000
v -0.250000 2.485858 0.014142
v 0.250000 2.485858 0.014142
v -0.250000 2.500000 0.020000
v 0.250000 2.500000 0.020000
v -0.250000 2.514142 0.014142
v 0.250000 2.514142 0.014142
v -0.250000 2.520000 -0.000000
v 0.250000 2.520000 -0.000000
v -0.250000 2.514142 -0.014142
v 0.250000 2.514142 -0.014142
v 0.260000 2.500000 -0.010000
v 0.260000 2.492929 -0.007071
v 0.260000 2.490000 -0.000000
v 0.260000 2.492929 0.007071
v 0.260000 2.500000 0.010000
v 0.260000 2.507071 0.007071
v 0.260000 2.510000 -0.000000
v 0.260000 2.507071 -0.007071
v 0.280000 2.500000 -0.030000
v 0.280000 2.478787 -0.021213
v 0.280000 2.470000 -0.000000
v 0.280000 2.478787 0.021213
v 0.280000 2.500000 0.030000
v 0.280000 2.521213 0.021213
v 0.280000 2.530000 -0.000000
v 0.280000 2.521213 -0.021213
v 0.310000 2.500000 -0.020000
v 0.310000 2.485858 -0.014142
v 0.310000 2.480000 -0.000000
v 0.310000 2.485858 0.014142
v 0.310000 2.500000 0.020000
v 0.310000 2.514142 0.014142
v 0.310000 2.520000 -0.000000
v 0.310000 2.514142 -0.014142
v -0.260000 2.500000 -0.010000
v -0.260000 2.492929 -0.007071
v -0.260000 2.490000 -0.000000
v -0.260000 2.492929 0.007071
v -0.260000 2.500000 0.010000
v -0.260000 2.507071 0.007071
v -0.260000 2.510000 -0.000000
v -0.260000 2.507071 -0.007071
v -0.280000 2.500000 -0.030000
v -0.280000 2.478787 -0.021213
v -0.280000 2.470000 -0.000000
v -0.280000 2.478787 0.021213
v -0.280000 2.500000 0.030000
v -0.280000 2.521213 0.021213
v -0.280000 2.530000 -0.000000
v -0.280000 2.521213 -0.021213
v -0.310000 2.500000 -0.020000
v -0.310000 2.485858 -0.014142
v -0.310000 2.480000 -0.000000
v -0.310000 2.485858 0.014142
v -0.310000 2.500000 0.020000
v -0.310000 2.514142 0.014142
v -0.310000 2.520000 -0.000000
v -0.310000 2.514142 -0.014142
v -0.330000 2.500000 -0.000000
v 0.330000 2.500000 -0.000000
v -0.500000 3.075858 0.014142
v 0.500000 3.070000 -0.000000
v -0.500000 3.070000 -0.000000
v 0.500000 3.075858 -0.014142
v -0.500000 3.075858 -0.014142
v 0.500000 3.090000 -0.020000
v -0.500000 3.090000 -0.020000
v 0.500000 3.075858 0.014142
v -0.500000 3.090000 0.020000
v 0.500000 3.090000 0.020000
v -0.500000 3.104142 0.014142
v 0.500000 3.104142 0.014142
v -0.500000 3.110000 -0.000000
v 0.500000 3.110000 -0.000000
v -0.500000 3.104142 -0.014142
v 0.500000 3.104142 -0.014142
v 0.510000 3.090000 -0.010000
v 0.510000 3.082929 -0.007071
v 0.510000 3.080000 -0.000000
v 0.510000 3.082929 0.007071
v 0.510000 3.090000 0.010000
v 0.510000 3.097071 0.007071
v 0.510000 3.100000 -0.000000
v 0.510000 3.097071 -0.007071
v 0.530000 3.090000 -0.030000
v 0.530000 3.068787 -0.021213
v 0.530000 3.060000 -0.000000
v 0.530000 3.068787 0.021213
v 0.530000 3.090000 0.030000
v 0.530000 3.111213 0.021213
v 0.530000 3.120000 -0.000000
v 0.530000 3.111213 -0.021213
v 0.560000 3.090000 -0.020000
v 0.560000 3.075858 -0.014142
v 0.560000 3.070000 -0.000000
v 0.560000 3.075858 0.014142
v 0.560000 3.090000 0.020000
v 0.560000 3.104142 0.014142
v 0.560000 3.110000 -0.000000
v 0.560000 3.104142 -0.014142
v -0.510000 3.090000 -0.010000
v -0.510000 3.082929 -0.007071
v -0.510000 3.080000 -0.000000
v -0.510000 3.082929 0.007071
v -0.510000 3.090000 0.010000
v -0.510000 3.097071 0.007071
v -0.510000 3.100000 -0.000000
v -0.510000 3.097071 -0.007071
v -0.530000 3.090000 -0.030000
v -0.530000 3.068787 -0.021213
v -0.530000 3.060000 -0.000000
v -0.530000 3.068787 0.021213
v -0.530000 3.090000 0.030000
v -0.530000 3.111213 0.021213
v -0.530000 3.120000 -0.000000
v -0.530000 3.111213 -0.021213
v -0.560000 3.090000 -0.020000
v -0.560000 3.075858 -0.014142
v -0.560000 3.070000 -0.000000
v -0.560000 3.075858 0.014142
v -0.560000 3.090000 0.020000
v -0.560000 3.104142 0.014142
v -0.560000 3.110000 -0.000000
v -0.560000 3.104142 -0.014142
v -0.580000 3.090000 -0.000000
v 0.580000 3.090000 -0.000000
v -0.400001 2.980001 -0.030000
v -0.400001 3.200001 -0.030000
v -0.378788 2.980001 -0.021213
v -0.378788 3.200001 -0.021213
v -0.370001 2.980001 -0.000000
v -0.370001 3.200001 -0.000000
v -0.378788 2.980001 0.021213
v -0.378788 3.200001 0.021213
v -0.400001 2.980001 0.030000
v -0.400001 3.200001 0.030000
v -0.421214 2.980001 0.021213
v -0.421214 3.200001 0.021213
v -0.430001 2.980001 -0.000000
v -0.430001 3.200001 -0.000000
v -0.421214 2.980001 -0.021213
v -0.421214 3.200001 -0.021213
v -0.400001 3.210001 -0.010000
v -0.392930 3.210001 -0.007071
v -0.390001 3.210001 -0.000000
v -0.392930 3.210001 0.007071
v -0.400001 3.210001 0.010000
v -0.407072 3.210001 0.007071
v -0.410001 3.210001 -0.000000
v -0.407072 3.210001 -0.007071
v -0.400001 3.230001 -0.030000
v -0.378788 3.230001 -0.021213
v -0.370001 3.230001 -0.000000
v -0.378788 3.230001 0.021213
v -0.400001 3.230001 0.030000
v -0.421214 3.230001 0.021213
v -0.430001 3.230001 -0.000000
v -0.421214 3.230001 -0.021213
v -0.400001 3.260001 -0.020000
v -0.385859 3.260001 -0.014142
v -0.380001 3.260001 -0.000000
v -0.385859 3.260001 0.014142
v -0.400001 3.260001 0.020000
v -0.414143 3.260001 0.014142
v -0.420001 3.260001 -0.000000
v -0.414143 3.260001 -0.014142
v -0.400001 2.970001 -0.010000
v -0.392930 2.970001 -0.007071
v -0.390001 2.970001 -0.000000
v -0.392930 2.970001 0.007071
v -0.400001 2.970001 0.010000
v -0.407072 2.970001 0.007071
v -0.410001 2.970001 -0.000000
v -0.407072 2.970001 -0.007071
v -0.400001 2.950001 -0.030000
v -0.378787 2.950001 -0.021213
v -0.370001 2.950001 -0.000000
v -0.378787 2.950001 0.021213
v -0.400001 2.950001 0.030000
v -0.421214 2.950001 0.021213
v -0.430001 2.950001 -0.000000
v -0.421214 2.950001 -0.021213
v -0.400001 2.920001 -0.020000
v -0.385859 2.920001 -0.014142
v -0.380001 2.920001 -0.000000
v -0.385859 2.920001 0.014142
v -0.400001 2.920001 0.020000
v -0.414143 2.920001 0.014142
v -0.420000 2.920001 -0.000000
v -0.414142 2.920001 -0.014142
v -0.400001 2.910001 -0.000000
v -0.400001 3.270001 -0.000000
v 0.400001 2.980001 -0.030000
v 0.400001 3.200001 -0.030000
v 0.421214 2.980001 -0.021213
v 0.421214 3.200001 -0.021213
v 0.430001 2.980001 -0.000000
v 0.430001 3.200001 -0.000000
v 0.421214 2.980001 0.021213
v 0.421214 3.200001 0.021213
v 0.400001 2.980001 0.030000
v 0.400001 3.200001 0.030000
v 0.378788 2.980001 0.021213
v 0.378788 3.200001 0.021213
v 0.370001 2.980001 -0.000000
v 0.370001 3.200001 -0.000000
v 0.378788 2.980001 -0.021213
v 0.378788 3.200001 -0.021213
v 0.400001 3.210001 -0.010000
v 0.407072 3.210001 -0.007071
v 0.410001 3.210001 -0.000000
v 0.407072 3.210001 0.007071
v 0.400001 3.210001 0.010000
v 0.392930 3.210001 0.007071
v 0.390001 3.210001 -0.000000
v 0.392930 3.210001 -0.007071
v 0.400001 3.230001 -0.030000
v 0.421214 3.230001 -0.021213
v 0.430001 3.230001 -0.000000
v 0.421214 3.230001 0.021213
v 0.400001 3.230001 0.030000
v 0.378788 3.230001 0.021213
v 0.370001 3.230001 -0.000000
v 0.378788 3.230001 -0.021213
v 0.400001 3.260001 -0.020000
v 0.414143 3.260001 -0.014142
v 0.420001 3.260001 -0.000000
v 0.414143 3.260001 0.014142
v 0.400001 3.260001 0.020000
v 0.385859 3.260001 0.014142
v 0.380001 3.260001 -0.000000
v 0.385859 3.260001 -0.014142
v 0.400001 2.970001 -0.010000
v 0.407072 2.970001 -0.007071
v 0.410001 2.970001 -0.000000
v 0.407072 2.970001 0.007071
v 0.400001 2.970001 0.010000
v 0.392930 2.970001 0.007071
v 0.390001 2.970001 -0.000000
v 0.392930 2.970001 -0.007071
v 0.400001 2.950001 -0.030000
v 0.421214 2.950001 -0.021213
v 0.430001 2.950001 -0.000000
v 0.421214 2.950001 0.021213
v 0.400001 2.950001 0.030000
v 0.378787 2.950001 0.021213
v 0.370001 2.950001 -0.000000
v 0.378787 2.950001 -0.021213
v 0.400001 2.920001 -0.020000
v 0.414142 2.920001 -0.014142
v 0.420000 2.920001 -0.000000
v 0.414143 2.920001 0.014142
v 0.400001 2.920001 0.020000
v 0.385859 2.920001 0.014142
v 0.380001 2.920001 -0.000000
v 0.385859 2.920001 -0.014142
v 0.400001 2.910001 -0.000000
v 0.400001 3.270001 -0.000000
vn -0.0000 -0.3827 -0.9239
vn -0.0000 -0.9239 -0.3827
vn -0.0000 -0.9239 0.3827
vn -0.0000 -0.3827 0.9239
vn -0.0000 0.3827 0.9239
vn -0.0000 0.9239 0.3827
vn 0.6786 -0.2811 0.6786
vn -0.0000 0.9239 -0.3827
vn -0.0000 0.3827 -0.9239
vn -0.6786 0.2811 0.6786
vn -0.6786 -0.2811 -0.6786
vn 0.6786 0.6786 -0.2811
vn 0.6786 -0.6786 -0.2811
vn 0.6786 0.2811 0.6786
vn 0.6786 0.2811 -0.6786
vn 0.6786 -0.2811 -0.6786
vn 0.6786 -0.6786 0.2811
vn 0.6786 0.6786 0.2811
vn 0.2943 0.8830 -0.3657
vn -0.6786 0.2811 -0.6786
vn -0.6786 0.6786 0.2811
vn -0.6786 -0.2811 0.6786
vn -0.6786 -0.6786 -0.2811
vn -0.6786 0.6786 -0.2811
vn -0.6786 -0.6786 0.2811
vn 0.2943 0.3657 0.8830
vn 0.2943 -0.8830 0.3657
vn 0.2943 -0.3657 -0.8830
vn 0.2943 0.3657 -0.8830
vn 0.2943 0.8830 0.3657
vn 0.2943 -0.3657 0.8830
vn 0.2943 -0.8830 -0.3657
vn -0.2943 -0.8830 0.3657
vn -0.2943 -0.3657 -0.8830
vn -0.2943 0.3657 -0.8830
vn -0.2943 0.8830 0.3657
vn -0.2943 -0.3657 0.8830
vn -0.2943 -0.8830 -0.3657
vn -0.2943 0.8830 -0.3657
vn -0.2943 0.3657 0.8830
vn 0.3827 -0.0000 -0.9239
vn 0.9239 -0.0000 -0.3827
vn 0.9239 -0.0000 0.3827
vn 0.3827 -0.0000 0.9239
vn -0.3827 -0.0000 0.9239
vn -0.9239 -0.0000 0.3827
vn 0.1821 0.8795 0.4397
vn -0.9239 -0.0000 -0.3827
vn -0.3827 -0.0000 -0.9239
vn -0.1821 -0.8795 0.4397
vn 0.2811 -0.6786 -0.6786
vn -0.4397 0.8795 -0.1821
vn 0.4397 0.8795 -0.1821
vn -0.1821 0.8795 0.4397
vn -0.1821 0.8795 -0.4397
vn 0.1821 0.8795 -0.4397
vn 0.4397 0.8795 0.1821
vn -0.4397 0.8795 0.1821
vn -0.8830 0.2943 -0.3657
vn -0.2811 -0.6786 -0.6786
vn 0.2811 -0.6786 0.6786
vn -0.2811 -0.6786 0.6786
vn -0.3657 0.2943 0.8830
vn 0.8830 0.2943 0.3657
vn 0.3657 0.2943 -0.8830
vn -0.3657 0.2943 -0.8830
vn -0.8830 0.2943 0.3657
vn 0.3657 0.2943 0.8830
vn 0.8830 0.2943 -0.3657
vn -0.2811 0.6786 -0.6786
vn -0.1821 -0.8795 -0.4397
vn 0.1821 -0.8795 -0.4397
vn 0.4397 -0.8795 0.1821
vn -0.4397 -0.8795 0.1821
vn 0.1821 -0.8795 0.4397
vn -0.4397 -0.8795 -0.1821
vn 0.4397 -0.8795 -0.1821
vn 0.8830 -0.2943 0.3657
vn 0.2811 0.6786 0.6786
vn -0.2811 0.6786 0.6786
vn 0.2811 0.6786 -0.6786
vn 0.3657 -0.2943 -0.8830
vn -0.3657 -0.2943 -0.8830
vn -0.8830 -0.2943 0.3657
vn 0.3657 -0.2943 0.8830
vn 0.8830 -0.2943 -0.3657
vn -0.8830 -0.2943 -0.3657
vn -0.3657 -0.2943 0.8830
vt 0.539859 0.518291
vt 0.539859 0.693685
vt 0.559703 0.693685
vt 0.559703 0.518291
vt 0.567922 0.693685
vt 0.567922 0.518291
vt 0.520016 0.693685
vt 0.520016 0.518291
vt 0.511797 0.693685
vt 0.511797 0.518291
vt 0.549781 0.697193
vt 0.539859 0.697193
vt 0.529938 0.514783
vt 0.539859 0.514783
vt 0.539859 0.704208
vt 0.569625 0.704208
vt 0.525828 0.697193
vt 0.529938 0.697193
vt 0.553891 0.697193
vt 0.510094 0.704208
vt 0.497764 0.704208
vt 0.511797 0.714732
vt 0.520016 0.714732
vt 0.581954 0.704208
vt 0.539859 0.714732
vt 0.559703 0.714732
vt 0.539859 0.721748
vt 0.567922 0.714732
vt 0.539859 0.507767
vt 0.510094 0.507767
vt 0.549781 0.514783
vt 0.553891 0.514783
vt 0.525828 0.514783
vt 0.581954 0.507767
vt 0.569625 0.507767
vt 0.559703 0.497243
vt 0.567922 0.497243
vt 0.497764 0.507767
vt 0.511797 0.497243
vt 0.520016 0.497243
vt 0.539859 0.490228
vt 0.559702 0.497243
vt 0.539859 0.497243
vt 0.674284 0.425505
vt 0.674284 0.776293
vt 0.666065 0.776293
vt 0.666065 0.425505
vt 0.694128 0.425505
vt 0.694128 0.776293
vt 0.713971 0.425505
vt 0.713972 0.776293
vt 0.722191 0.425505
vt 0.722191 0.776293
vt 0.704050 0.779800
vt 0.694128 0.779800
vt 0.684206 0.421997
vt 0.694128 0.421997
vt 0.694128 0.786816
vt 0.723894 0.786816
vt 0.680097 0.779800
vt 0.684206 0.779800
vt 0.708160 0.779800
vt 0.664363 0.786816
vt 0.652034 0.786816
vt 0.666065 0.797340
vt 0.674284 0.797340
vt 0.736223 0.786816
vt 0.694128 0.797340
vt 0.713972 0.797340
vt 0.694128 0.804356
vt 0.722191 0.797340
vt 0.694127 0.414981
vt 0.664362 0.414981
vt 0.704050 0.421997
vt 0.708159 0.421997
vt 0.680096 0.421997
vt 0.736222 0.414981
vt 0.723893 0.414981
vt 0.713971 0.404457
vt 0.722191 0.404457
vt 0.652033 0.414981
vt 0.666065 0.404457
vt 0.674284 0.404457
vt 0.694128 0.397442
vt 0.694128 0.404457
vt 0.848474 0.460583
vt 0.539780 0.460583
vt 0.539780 0.468024
vt 0.848474 0.468024
vt 0.539780 0.471107
vt 0.848474 0.471107
vt 0.539780 0.453142
vt 0.848474 0.453142
vt 0.539780 0.450059
vt 0.848474 0.450059
vt 0.525748 0.463064
vt 0.525748 0.460583
vt 0.862505 0.458103
vt 0.862505 0.460583
vt 0.497686 0.460583
vt 0.497686 0.468024
vt 0.525748 0.457075
vt 0.525748 0.458103
vt 0.525748 0.464091
vt 0.497686 0.453142
vt 0.497686 0.450059
vt 0.455591 0.453567
vt 0.455591 0.455622
vt 0.497686 0.471107
vt 0.455591 0.460583
vt 0.455591 0.465544
vt 0.441560 0.460583
vt 0.455591 0.467599
vt 0.455591 0.465544
vt 0.890568 0.460583
vt 0.890568 0.453142
vt 0.862505 0.463064
vt 0.862505 0.464091
vt 0.862505 0.457075
vt 0.890568 0.471107
vt 0.890568 0.468024
vt 0.932663 0.465544
vt 0.932663 0.467599
vt 0.890568 0.450060
vt 0.890568 0.453142
vt 0.932663 0.453568
vt 0.932663 0.455622
vt 0.946694 0.460583
vt 0.932663 0.460583
vt 0.848474 0.741214
vt 0.539780 0.741214
vt 0.539780 0.748655
vt 0.848474 0.748655
vt 0.539780 0.751738
vt 0.848474 0.751738
vt 0.539780 0.733773
vt 0.848474 0.733773
vt 0.539780 0.730690
vt 0.848474 0.730690
vt 0.525748 0.743694
vt 0.525748 0.741214
vt 0.862505 0.738734
vt 0.862505 0.741214
vt 0.497686 0.741214
vt 0.497686 0.748655
vt 0.525748 0.737706
vt 0.525748 0.738734
vt 0.525748 0.744722
vt 0.497686 0.733773
vt 0.497686 0.730690
vt 0.455591 0.734198
vt 0.455591 0.736253
vt 0.497686 0.751738
vt 0.455591 0.741214
vt 0.455591 0.746175
vt 0.441560 0.741214
vt 0.455591 0.748230
vt 0.890568 0.741214
vt 0.890568 0.733773
vt 0.862505 0.743694
vt 0.862505 0.744722
vt 0.862505 0.737706
vt 0.890568 0.751738
vt 0.890568 0.748655
vt 0.932663 0.746175
vt 0.932663 0.748230
vt 0.890568 0.730690
vt 0.890568 0.748655
vt 0.932663 0.734198
vt 0.932663 0.736253
vt 0.946694 0.741214
vt 0.932663 0.746175
vt 0.932663 0.741214
s 0
g WingsEW_lamppost_metal
usemtl lamppost_metal
f 203/171/114 204/172/114 206/173/114 205/174/114
f 205/174/115 206/173/115 208/175/115 207/176/115
f 207/176/116 208/175/116 210/173/116 209/174/116
f 209/174/117 210/173/117 212/172/117 211/171/117
f 211/171/118 212/172/118 214/177/118 213/178/118
f 213/178/119 214/177/119 216/179/119 215/180/119
f 212/172/120 210/173/120 222/181/120 223/182/120
f 215/180/121 216/179/121 218/177/121 217/178/121
f 217/178/122 218/177/122 204/172/122 203/171/122
f 211/171/123 213/178/123 248/183/123 247/184/123
f 220/181/124 219/182/124 227/185/124 228/186/124
f 218/177/125 216/179/125 225/187/125 226/188/125
f 208/175/126 206/173/126 220/181/126 221/189/126
f 214/177/127 212/172/127 223/182/127 224/188/127
f 204/172/128 218/177/128 226/188/128 219/182/128
f 206/173/129 204/172/129 219/182/129 220/181/129
f 210/173/130 208/175/130 221/189/130 222/181/130
f 216/179/131 214/177/131 224/188/131 225/187/131
f 234/190/132 233/191/132 241/192/132 242/193/132
f 219/182/133 226/188/133 234/190/133 227/185/133
f 225/187/134 224/188/134 232/190/134 233/191/134
f 223/182/135 222/181/135 230/186/135 231/185/135
f 221/189/136 220/181/136 228/186/136 229/194/136
f 226/188/137 225/187/137 233/191/137 234/190/137
f 224/188/123 223/182/123 231/185/123 232/190/123
f 222/181/138 221/189/138 229/194/138 230/186/138
f 239/195/120 238/196/120 268/197/120
f 232/190/139 231/185/139 239/195/139 240/193/139
f 230/186/140 229/194/140 237/198/140 238/196/140
f 228/186/141 227/185/141 235/195/141 236/196/141
f 227/185/142 234/190/142 242/193/142 235/195/142
f 233/191/143 232/190/143 240/193/143 241/192/143
f 231/185/144 230/186/144 238/196/144 239/195/144
f 229/194/145 228/186/145 236/196/145 237/198/145
f 250/183/128 243/184/128 251/199/128 258/200/128
f 217/178/133 203/171/133 243/184/133 250/183/133
f 203/171/124 205/174/124 244/201/124 243/184/124
f 207/176/138 209/174/138 246/201/138 245/202/138
f 213/178/134 215/180/134 249/203/134 248/183/134
f 209/174/135 211/171/135 247/184/135 246/201/135
f 215/180/137 217/178/137 250/183/137 249/203/137
f 205/174/136 207/176/136 245/202/136 244/201/136
f 253/204/146 254/205/146 262/206/146 261/207/146
f 248/183/131 249/203/131 257/208/131 256/200/131
f 246/201/120 247/184/120 255/199/120 254/205/120
f 244/201/126 245/202/126 253/204/126 252/205/126
f 249/203/125 250/183/125 258/200/125 257/208/125
f 247/184/127 248/183/127 256/200/127 255/199/127
f 245/202/130 246/201/130 254/205/130 253/204/130
f 243/184/129 244/201/129 252/205/129 251/199/129
f 265/209/137 266/210/137 267/211/137
f 251/199/147 252/205/147 260/212/147 259/213/147
f 258/200/148 251/199/148 259/213/148 266/210/148
f 256/200/149 257/208/149 265/209/149 264/210/149
f 254/205/150 255/199/150 263/213/150 262/206/150
f 252/205/151 253/204/151 261/207/151 260/212/151
f 257/208/152 258/200/152 266/210/152 265/209/152
f 255/199/153 256/200/153 264/210/153 263/213/153
f 236/196/129 235/195/129 268/197/129
f 263/213/123 264/210/123 267/211/123
f 261/207/138 262/206/138 267/211/138
f 259/213/124 260/212/124 267/211/124
f 266/210/133 259/213/133 267/211/133
f 264/210/134 265/209/134 267/211/134
f 262/206/135 263/213/135 267/211/135
f 260/212/136 261/207/136 267/211/136
f 238/196/130 237/198/130 268/197/130
f 240/193/127 239/195/127 268/197/127
f 242/193/125 241/192/125 268/197/125
f 237/198/126 236/196/126 268/197/126
f 279/214/119 280/215/119 282/216/119 281/217/119
f 235/195/128 242/193/128 268/197/128
f 241/192/131 240/193/131 268/197/131
f 277/218/118 278/219/118 280/215/118 279/214/118
f 269/220/117 276/221/117 278/219/117 277/218/117
f 271/222/116 270/223/116 276/221/116 269/220/116
f 273/220/115 272/221/115 270/223/115 271/222/115
f 275/218/114 274/219/114 272/221/114 273/220/114
f 278/219/120 276/221/120 288/224/120 289/225/120
f 281/217/121 282/216/121 284/215/121 283/214/121
f 283/214/122 284/215/122 274/219/122 275/218/122
f 277/218/123 279/214/123 314/226/123 313/227/123
f 286/224/124 285/225/124 293/228/124 294/229/124
f 284/215/125 282/216/125 291/230/125 292/231/125
f 270/223/126 272/221/126 286/224/126 287/232/126
f 280/215/127 278/219/127 289/225/127 290/231/127
f 274/219/128 284/215/128 292/231/128 285/225/128
f 272/221/129 274/219/129 285/225/129 286/224/129
f 276/221/130 270/223/130 287/232/130 288/224/130
f 282/216/131 280/215/131 290/231/131 291/230/131
f 300/233/132 299/234/132 307/235/132 308/236/132
f 285/225/133 292/231/133 300/233/133 293/228/133
f 291/230/134 290/231/134 298/233/134 299/234/134
f 289/225/135 288/224/135 296/229/135 297/228/135
f 287/232/136 286/224/136 294/229/136 295/237/136
f 292/231/137 291/230/137 299/234/137 300/233/137
f 290/231/123 289/225/123 297/228/123 298/233/123
f 288/224/138 287/232/138 295/237/138 296/229/138
f 305/238/120 304/239/120 334/240/120
f 298/233/139 297/228/139 305/238/139 306/236/139
f 296/229/140 295/237/140 303/241/140 304/239/140
f 294/229/141 293/228/141 301/238/141 302/239/141
f 293/228/142 300/233/142 308/236/142 301/238/142
f 299/234/143 298/233/143 306/236/143 307/235/143
f 297/228/144 296/229/144 304/239/144 305/238/144
f 295/237/145 294/229/145 302/239/145 303/241/145
f 316/226/128 309/227/128 317/242/128 324/243/128
f 283/214/133 275/218/133 309/227/133 316/226/133
f 275/218/124 273/220/124 310/244/124 309/227/124
f 271/222/138 269/220/138 312/244/138 311/245/138
f 279/214/134 281/217/134 315/246/134 314/226/134
f 269/220/135 277/218/135 313/227/135 312/244/135
f 281/217/137 283/214/137 316/226/137 315/246/137
f 273/220/136 271/222/136 311/245/136 310/244/136
f 319/247/146 320/248/146 328/249/146 327/250/146
f 314/226/131 315/246/131 323/251/131 322/243/131
f 312/244/120 313/227/120 321/242/120 320/248/120
f 310/244/126 311/245/126 319/247/126 318/248/126
f 315/246/125 316/226/125 324/243/125 323/251/125
f 313/227/127 314/226/127 322/243/127 321/242/127
f 311/245/130 312/244/130 320/248/130 319/247/130
f 309/227/129 310/244/129 318/248/129 317/242/129
f 331/252/137 332/253/137 333/254/137
f 317/242/147 318/248/147 326/249/147 325/255/147
f 324/243/148 317/242/148 325/255/148 332/253/148
f 322/243/149 323/251/149 331/252/149 330/253/149
f 320/248/150 321/242/150 329/255/150 328/249/150
f 318/248/151 319/247/151 327/250/151 326/249/151
f 323/251/152 324/243/152 332/253/152 331/252/152
f 321/242/153 322/243/153 330/253/153 329/255/153
f 302/239/129 301/238/129 334/240/129
f 329/255/123 330/253/123 333/254/123
f 327/250/138 328/249/138 333/254/138
f 325/255/124 326/249/124 333/254/124
f 332/253/133 325/255/133 333/254/133
f 330/253/134 331/252/134 333/254/134
f 328/249/135 329/255/135 333/254/135
f 326/249/136 327/250/136 333/254/136
f 304/239/130 303/241/130 334/240/130
f 306/236/127 305/238/127 334/240/127
f 308/236/125 307/235/125 334/240/125
f 303/241/126 302/239/126 334/240/126
f 301/238/128 308/236/128 334/240/128
f 307/235/131 306/236/131 334/240/131
f 335/256/154 336/257/154 338/258/154 337/259/154
f 337/259/155 338/258/155 340/260/155 339/261/155
f 339/261/156 340/260/156 342/258/156 341/259/156
f 341/259/157 342/258/157 344/257/157 343/256/157
f 343/256/158 344/257/158 346/262/158 345/263/158
f 345/263/159 346/262/159 348/264/159 347/265/159
f 344/257/160 342/258/160 354/266/160 355/267/160
f 347/265/161 348/264/161 350/262/161 349/263/161
f 349/263/162 350/262/162 336/257/162 335/256/162
f 343/256/163 345/263/163 380/268/163 379/269/163
f 352/266/164 351/267/164 359/270/164 360/271/164
f 350/262/165 348/264/165 357/272/165 358/273/165
f 340/260/166 338/258/166 352/266/166 353/274/166
f 346/262/167 344/257/167 355/267/167 356/273/167
f 336/257/168 350/262/168 358/273/168 351/267/168
f 338/258/169 336/257/169 351/267/169 352/266/169
f 342/258/170 340/260/170 353/274/170 354/266/170
f 348/264/171 346/262/171 356/273/171 357/272/171
f 366/275/172 365/276/172 373/277/172 374/278/172
f 351/267/173 358/273/173 366/275/173 359/270/173
f 357/272/138 356/273/138 364/275/138 365/276/138
f 355/267/174 354/266/174 362/271/174 363/270/174
f 353/274/126 352/266/126 360/271/126 361/279/126
f 358/273/136 357/272/136 365/276/136 366/275/136
f 356/273/175 355/267/175 363/270/175 364/275/175
f 354/266/130 353/274/130 361/279/130 362/271/130
f 371/280/160 370/281/160 400/282/160
f 364/275/176 363/270/176 371/280/176 372/278/176
f 362/271/177 361/279/177 369/283/177 370/281/177
f 360/271/178 359/270/178 367/280/178 368/284/178
f 359/270/179 366/275/179 374/278/179 367/280/179
f 365/276/180 364/275/180 372/278/180 373/277/180
f 363/270/181 362/271/181 370/281/181 371/280/181
f 361/279/182 360/271/182 368/284/182 369/283/182
f 382/268/183 375/269/183 383/285/183 390/286/183
f 349/263/184 335/256/184 375/269/184 382/268/184
f 335/256/185 337/259/185 376/287/185 375/269/185
f 339/261/186 341/259/186 378/287/186 377/288/186
f 345/263/187 347/265/187 381/289/187 380/268/187
f 341/259/188 343/256/188 379/269/188 378/287/188
f 347/265/189 349/263/189 382/268/189 381/289/189
f 337/259/190 339/261/190 377/288/190 376/287/190
f 385/290/191 386/291/191 394/292/191 393/293/191
f 380/268/134 381/289/134 389/294/134 388/295/134
f 378/287/192 379/269/192 387/285/192 386/291/192
f 376/287/125 377/288/125 385/290/125 384/291/125
f 381/289/137 382/268/137 390/286/137 389/294/137
f 379/269/193 380/268/193 388/295/193 387/285/193
f 377/288/131 378/287/131 386/291/131 385/290/131
f 375/269/194 376/287/194 384/291/194 383/285/194
f 397/296/189 398/297/189 399/298/189
f 383/285/195 384/291/195 392/292/195 391/299/195
f 390/286/196 383/285/196 391/299/196 398/297/196
f 388/295/197 389/294/197 397/296/197 396/297/197
f 386/291/198 387/285/198 395/299/198 394/292/198
f 384/291/199 385/290/199 393/293/199 392/292/199
f 389/294/200 390/286/200 398/297/200 397/296/200
f 387/285/201 388/295/201 396/297/201 395/299/201
f 368/284/169 367/280/169 400/282/169
f 395/299/163 396/297/163 399/298/163
f 393/293/186 394/292/186 399/298/186
f 391/299/185 392/292/185 399/298/185
f 398/297/184 391/299/184 399/298/184
f 396/297/187 397/296/187 399/298/187
f 394/292/188 395/299/188 399/298/188
f 392/292/190 393/293/190 399/298/190
f 370/281/170 369/283/170 400/282/170
f 372/278/167 371/280/167 400/282/167
f 374/278/165 373/277/165 400/282/165
f 369/283/166 368/284/166 400/282/166
f 367/280/168 374/278/168 400/282/168
f 373/277/171 372/278/171 400/282/171
f 401/300/154 402/301/154 404/302/154 403/303/154
f 403/303/155 404/302/155 406/304/155 405/305/155
f 405/305/156 406/304/156 408/302/156 407/303/156
f 407/303/157 408/302/157 410/301/157 409/300/157
f 409/300/158 410/301/158 412/306/158 411/307/158
f 411/307/159 412/306/159 414/308/159 413/309/159
f 410/301/160 408/302/160 420/310/160 421/311/160
f 413/309/161 414/308/161 416/306/161 415/307/161
f 415/307/162 416/306/162 402/301/162 401/300/162
f 409/300/163 411/307/163 446/312/163 445/313/163
f 418/310/164 417/311/164 425/314/164 426/315/164
f 416/306/165 414/308/165 423/316/165 424/317/165
f 406/304/166 404/302/166 418/310/166 419/318/166
f 412/306/167 410/301/167 421/311/167 422/317/167
f 402/301/168 416/306/168 424/317/168 417/311/168
f 404/302/169 402/301/169 417/311/169 418/310/169
f 408/302/170 406/304/170 419/318/170 420/310/170
f 414/308/171 412/306/171 422/317/171 423/316/171
f 432/319/172 431/320/172 439/321/172 440/322/172
f 417/311/173 424/317/173 432/319/173 425/314/173
f 423/316/138 422/317/138 430/319/138 431/320/138
f 421/311/174 420/310/174 428/315/174 429/314/174
f 419/318/126 418/310/126 426/315/126 427/323/126
f 424/317/136 423/316/136 431/320/136 432/319/136
f 422/317/175 421/311/175 429/314/175 430/319/175
f 420/310/130 419/318/130 427/323/130 428/315/130
f 437/324/160 436/325/160 466/326/160
f 430/319/176 429/314/176 437/324/176 438/322/176
f 428/315/177 427/323/177 435/327/177 436/325/177
f 426/315/178 425/314/178 433/324/178 434/325/178
f 425/314/179 432/319/179 440/322/179 433/324/179
f 431/320/180 430/319/180 438/322/180 439/321/180
f 429/314/181 428/315/181 436/325/181 437/324/181
f 427/323/182 426/315/182 434/325/182 435/327/182
f 448/312/183 441/313/183 449/328/183 456/329/183
f 415/307/184 401/300/184 441/313/184 448/312/184
f 401/300/185 403/303/185 442/330/185 441/313/185
f 405/305/186 407/303/186 444/330/186 443/331/186
f 411/307/187 413/309/187 447/332/187 446/312/187
f 407/303/188 409/300/188 445/313/188 444/330/188
f 413/309/189 415/307/189 448/312/189 447/332/189
f 403/303/190 405/305/190 443/331/190 442/330/190
f 451/333/191 452/334/191 460/335/191 459/336/191
f 446/312/134 447/332/134 455/337/134 454/329/134
f 444/330/192 445/313/192 453/328/192 452/334/192
f 442/330/125 443/331/125 451/333/125 450/338/125
f 447/332/137 448/312/137 456/329/137 455/337/137
f 445/313/193 446/312/193 454/329/193 453/328/193
f 443/331/131 444/330/131 452/334/131 451/333/131
f 441/313/194 442/330/194 450/338/194 449/328/194
f 463/339/189 464/340/189 465/341/189
f 449/328/195 450/338/195 458/342/195 457/343/195
f 456/329/196 449/328/196 457/343/196 464/340/196
f 454/329/197 455/337/197 463/339/197 462/340/197
f 452/334/198 453/328/198 461/343/198 460/335/198
f 450/338/199 451/333/199 459/336/199 458/342/199
f 455/337/200 456/329/200 464/340/200 463/339/200
f 453/328/201 454/329/201 462/340/201 461/343/201
f 434/325/169 433/324/169 466/326/169
f 461/343/163 462/340/163 465/341/163
f 459/336/186 460/335/186 465/341/186
f 457/343/185 458/342/185 465/341/185
f 464/340/184 457/343/184 465/341/184
f 462/340/187 463/339/187 465/341/187
f 460/335/188 461/343/188 465/341/188
f 458/342/190 459/336/190 465/341/190
f 436/325/170 435/327/170 466/326/170
f 438/322/167 437/324/167 466/326/167
f 440/322/165 439/321/165 466/326/165
f 435/327/166 434/325/166 466/326/166
f 433/324/168 440/322/168 466/326/168
f 439/321/171 438/322/171 466/326/171
o WingsNS
v 0.020000 2.500000 -0.250000
v 0.020000 2.500000 0.250000
v 0.014142 2.485858 -0.250000
v 0.014142 2.485858 0.250000
v -0.000000 2.480000 -0.250000
v 0.000000 2.480000 0.250000
v -0.014142 2.485858 -0.250000
v -0.014142 2.485858 0.250000
v -0.020000 2.500000 -0.250000
v -0.020000 2.500000 0.250000
v -0.014142 2.514142 -0.250000
v -0.014142 2.514142 0.250000
v -0.000000 2.520000 -0.250000
v 0.000000 2.520000 0.250000
v 0.014142 2.514142 -0.250000
v 0.014142 2.514142 0.250000
v 0.010000 2.500000 0.260000
v 0.007071 2.492929 0.260000
v 0.000000 2.490000 0.260000
v -0.007071 2.492929 0.260000
v -0.010000 2.500000 0.260000
v -0.007071 2.507071 0.260000
v 0.000000 2.510000 0.260000
v 0.007071 2.507071 0.260000
v 0.030000 2.500000 0.280000
v 0.021213 2.478787 0.280000
v 0.000000 2.470000 0.280000
v -0.021213 2.478787 0.280000
v -0.030000 2.500000 0.280000
v -0.021213 2.521213 0.280000
v 0.000000 2.530000 0.280000
v 0.021213 2.521213 0.280000
v 0.020000 2.500000 0.310000
v 0.014142 2.485858 0.310000
v 0.000000 2.480000 0.310000
v -0.014142 2.485858 0.310000
v -0.020000 2.500000 0.310000
v -0.014142 2.514142 0.310000
v 0.000000 2.520000 0.310000
v 0.014142 2.514142 0.310000
v 0.010000 2.500000 -0.260000
v 0.007071 2.492929 -0.260000
v -0.000000 2.490000 -0.260000
v -0.007071 2.492929 -0.260000
v -0.010000 2.500000 -0.260000
v -0.007071 2.507071 -0.260000
v -0.000000 2.510000 -0.260000
v 0.007071 2.507071 -0.260000
v 0.030000 2.500000 -0.280000
v 0.021213 2.478787 -0.280000
v -0.000000 2.470000 -0.280000
v -0.021213 2.478787 -0.280000
v -0.030000 2.500000 -0.280000
v -0.021213 2.521213 -0.280000
v -0.000000 2.530000 -0.280000
v 0.021213 2.521213 -0.280000
v 0.020000 2.500000 -0.310000
v 0.014142 2.485858 -0.310000
v -0.000000 2.480000 -0.310000
v -0.014142 2.485858 -0.310000
v -0.020000 2.500000 -0.310000
v -0.014142 2.514142 -0.310000
v -0.000000 2.520000 -0.310000
v 0.014142 2.514142 -0.310000
v -0.000000 2.500000 -0.330000
v 0.000000 2.500000 0.330000
v -0.014142 3.075858 -0.500000
v 0.000000 3.070000 0.500000
v -0.000000 3.070000 -0.500000
v 0.014142 3.075858 0.500000
v 0.014142 3.075858 -0.500000
v 0.020000 3.090000 0.500000
v 0.020000 3.090000 -0.500000
v -0.014142 3.075858 0.500000
v -0.020000 3.090000 -0.500000
v -0.020000 3.090000 0.500000
v -0.014142 3.104142 -0.500000
v -0.014142 3.104142 0.500000
v -0.000000 3.110000 -0.500000
v 0.000000 3.110000 0.500000
v 0.014142 3.104142 -0.500000
v 0.014142 3.104142 0.500000
v 0.010000 3.090000 0.510000
v 0.007071 3.082929 0.510000
v 0.000000 3.080000 0.510000
v -0.007071 3.082929 0.510000
v -0.010000 3.090000 0.510000
v -0.007071 3.097071 0.510000
v 0.000000 3.100000 0.510000
v 0.007071 3.097071 0.510000
v 0.030000 3.090000 0.530000
v 0.021213 3.068787 0.530000
v 0.000000 3.060000 0.530000
v -0.021213 3.068787 0.530000
v -0.030000 3.090000 0.530000
v -0.021213 3.111213 0.530000
v 0.000000 3.120000 0.530000
v 0.021213 3.111213 0.530000
v 0.020000 3.090000 0.560000
v 0.014142 3.075858 0.560000
v 0.000000 3.070000 0.560000
v -0.014142 3.075858 0.560000
v -0.020000 3.090000 0.560000
v -0.014142 3.104142 0.560000
v 0.000000 3.110000 0.560000
v 0.014142 3.104142 0.560000
v 0.010000 3.090000 -0.510000
v 0.007071 3.082929 -0.510000
v -0.000000 3.080000 -0.510000
v -0.007071 3.082929 -0.510000
v -0.010000 3.090000 -0.510000
v -0.007071 3.097071 -0.510000
v -0.000000 3.100000 -0.510000
v 0.007071 3.097071 -0.510000
v 0.030000 3.090000 -0.530000
v 0.021213 3.068787 -0.530000
v -0.000000 3.060000 -0.530000
v -0.021213 3.068787 -0.530000
v -0.030000 3.090000 -0.530000
v -0.021213 3.111213 -0.530000
v -0.000000 3.120000 -0.530000
v 0.021213 3.111213 -0.530000
v 0.020000 3.090000 -0.560000
v 0.014142 3.075858 -0.560000
v -0.000000 3.070000 -0.560000
v -0.014142 3.075858 -0.560000
v -0.020000 3.090000 -0.560000
v -0.014142 3.104142 -0.560000
v -0.000000 3.110000 -0.560000
v 0.014142 3.104142 -0.560000
v -0.000000 3.090000 -0.580000
v 0.000000 3.090000 0.580000
v 0.030000 2.980001 -0.400001
v 0.030000 3.200001 -0.400001
v 0.021213 2.980001 -0.378788
v 0.021213 3.200001 -0.378788
v 0.000000 2.980001 -0.370001
v -0.000000 3.200001 -0.370001
v -0.021213 2.980001 -0.378788
v -0.021213 3.200001 -0.378788
v -0.030000 2.980001 -0.400001
v -0.030000 3.200001 -0.400001
v -0.021213 2.980001 -0.421214
v -0.021213 3.200001 -0.421214
v 0.000000 2.980001 -0.430001
v -0.000000 3.200001 -0.430001
v 0.021213 2.980001 -0.421214
v 0.021213 3.200001 -0.421214
v 0.010000 3.210001 -0.400001
v 0.007071 3.210001 -0.392930
v -0.000000 3.210001 -0.390001
v -0.007071 3.210001 -0.392930
v -0.010000 3.210001 -0.400001
v -0.007071 3.210001 -0.407072
v -0.000000 3.210001 -0.410001
v 0.007071 3.210001 -0.407072
v 0.030000 3.230001 -0.400001
v 0.021213 3.230001 -0.378788
v -0.000000 3.230001 -0.370001
v -0.021213 3.230001 -0.378788
v -0.030000 3.230001 -0.400001
v -0.021213 3.230001 -0.421214
v -0.000000 3.230001 -0.430001
v 0.021213 3.230001 -0.421214
v 0.020000 3.260001 -0.400001
v 0.014142 3.260001 -0.385859
v -0.000000 3.260001 -0.380001
v -0.014142 3.260001 -0.385859
v -0.020000 3.260001 -0.400001
v -0.014142 3.260001 -0.414143
v -0.000000 3.260001 -0.420001
v 0.014142 3.260001 -0.414143
v 0.010000 2.970001 -0.400001
v 0.007071 2.970001 -0.392930
v 0.000000 2.970001 -0.390001
v -0.007071 2.970001 -0.392930
v -0.010000 2.970001 -0.400001
v -0.007071 2.970001 -0.407072
v 0.000000 2.970001 -0.410001
v 0.007071 2.970001 -0.407072
v 0.030000 2.950001 -0.400001
v 0.021213 2.950001 -0.378788
v 0.000000 2.950001 -0.370001
v -0.021213 2.950001 -0.378788
v -0.030000 2.950001 -0.400001
v -0.021213 2.950001 -0.421214
v 0.000000 2.950001 -0.430001
v 0.021213 2.950001 -0.421214
v 0.020000 2.920001 -0.400001
v 0.014142 2.920001 -0.385859
v 0.000000 2.920001 -0.380001
v -0.014142 2.920001 -0.385859
v -0.020000 2.920001 -0.400001
v -0.014142 2.920001 -0.414143
v 0.000000 2.920001 -0.420000
v 0.014142 2.920001 -0.414143
v 0.000000 2.910001 -0.400001
v -0.000000 3.270001 -0.400001
v 0.030000 2.980001 0.400001
v 0.030000 3.200001 0.400001
v 0.021213 2.980001 0.421214
v 0.021213 3.200001 0.421214
v 0.000000 2.980001 0.430001
v -0.000000 3.200001 0.430001
v -0.021213 2.980001 0.421214
v -0.021213 3.200001 0.421214
v -0.030000 2.980001 0.400001
v -0.030000 3.200001 0.400001
v -0.021213 2.980001 0.378787
v -0.021213 3.200001 0.378787
v 0.000000 2.980001 0.370001
v -0.000000 3.200001 0.370001
v 0.021213 2.980001 0.378787
v 0.021213 3.200001 0.378787
v 0.010000 3.210001 0.400001
v 0.007071 3.210001 0.407072
v -0.000000 3.210001 0.410001
v -0.007071 3.210001 0.407072
v -0.010000 3.210001 0.400001
v -0.007071 3.210001 0.392930
v -0.000000 3.210001 0.390001
v 0.007071 3.210001 0.392930
v 0.030000 3.230001 0.400001
v 0.021213 3.230001 0.421214
v -0.000000 3.230001 0.430001
v -0.021213 3.230001 0.421214
v -0.030000 3.230001 0.400001
v -0.021213 3.230001 0.378787
v -0.000000 3.230001 0.370001
v 0.021213 3.230001 0.378787
v 0.020000 3.260001 0.400001
v 0.014142 3.260001 0.414143
v -0.000000 3.260001 0.420001
v -0.014142 3.260001 0.414143
v -0.020000 3.260001 0.400001
v -0.014142 3.260001 0.385859
v -0.000000 3.260001 0.380001
v 0.014142 3.260001 0.385859
v 0.010000 2.970001 0.400001
v 0.007071 2.970001 0.407072
v 0.000000 2.970001 0.410001
v -0.007071 2.970001 0.407072
v -0.010000 2.970001 0.400001
v -0.007071 2.970001 0.392930
v 0.000000 2.970001 0.390001
v 0.007071 2.970001 0.392930
v 0.030000 2.950001 0.400001
v 0.021213 2.950001 0.421214
v 0.000000 2.950001 0.430001
v -0.021213 2.950001 0.421214
v -0.030000 2.950001 0.400001
v -0.021213 2.950001 0.378787
v 0.000000 2.950001 0.370001
v 0.021213 2.950001 0.378787
v 0.020000 2.920001 0.400001
v 0.014142 2.920001 0.414142
v 0.000000 2.920001 0.420000
v -0.014142 2.920001 0.414142
v -0.020000 2.920001 0.400001
v -0.014142 2.920001 0.385859
v 0.000000 2.920001 0.380001
v 0.014142 2.920001 0.385859
v 0.000000 2.910001 0.400001
v -0.000000 3.270001 0.400001
vn 0.9239 -0.3827 -0.0000
vn 0.3827 -0.9239 -0.0000
vn -0.3827 -0.9239 -0.0000
vn -0.9239 -0.3827 -0.0000
vn -0.9239 0.3827 -0.0000
vn -0.3827 0.9239 -0.0000
vn -0.6786 -0.2811 0.6786
vn 0.3827 0.9239 -0.0000
vn 0.9239 0.3827 -0.0000
vn -0.6786 0.2811 -0.6786
vn 0.6786 -0.2811 -0.6786
vn 0.2811 0.6786 0.6786
vn 0.2811 -0.6786 0.6786
vn -0.6786 0.2811 0.6786
vn 0.6786 0.2811 0.6786
vn 0.6786 -0.2811 0.6786
vn -0.2811 -0.6786 0.6786
vn -0.2811 0.6786 0.6786
vn 0.3657 0.8830 0.2943
vn 0.6786 0.2811 -0.6786
vn -0.2811 0.6786 -0.6786
vn -0.6786 -0.2811 -0.6786
vn 0.2811 -0.6786 -0.6786
vn 0.2811 0.6786 -0.6786
vn -0.2811 -0.6786 -0.6786
vn -0.8830 0.3657 0.2943
vn -0.3657 -0.8830 0.2943
vn 0.8830 -0.3657 0.2943
vn 0.8830 0.3657 0.2943
vn -0.3657 0.8830 0.2943
vn -0.8830 -0.3657 0.2943
vn 0.3657 -0.8830 0.2943
vn -0.3657 -0.8830 -0.2943
vn 0.8830 -0.3657 -0.2943
vn 0.8830 0.3657 -0.2943
vn -0.3657 0.8830 -0.2943
vn -0.8830 -0.3657 -0.2943
vn 0.3657 -0.8830 -0.2943
vn 0.3657 0.8830 -0.2943
vn -0.8830 0.3657 -0.2943
vn 0.9239 -0.0000 0.3827
vn 0.3827 -0.0000 0.9239
vn -0.3827 -0.0000 0.9239
vn -0.9239 -0.0000 0.3827
vn -0.9239 -0.0000 -0.3827
vn -0.3827 -0.0000 -0.9239
vn -0.4397 0.8795 0.1821
vn 0.3827 -0.0000 -0.9239
vn 0.9239 -0.0000 -0.3827
vn -0.4397 -0.8795 -0.1821
vn 0.6786 -0.6786 0.2811
vn 0.1821 0.8795 -0.4397
vn 0.1821 0.8795 0.4397
vn -0.4397 0.8795 -0.1821
vn 0.4397 0.8795 -0.1821
vn 0.4397 0.8795 0.1821
vn -0.1821 0.8795 0.4397
vn -0.1821 0.8795 -0.4397
vn 0.3657 0.2943 -0.8830
vn 0.6786 -0.6786 -0.2811
vn -0.6786 -0.6786 0.2811
vn -0.6786 -0.6786 -0.2811
vn -0.8830 0.2943 -0.3657
vn -0.3657 0.2943 0.8830
vn 0.8830 0.2943 0.3657
vn 0.8830 0.2943 -0.3657
vn -0.3657 0.2943 -0.8830
vn -0.8830 0.2943 0.3657
vn 0.3657 0.2943 0.8830
vn 0.6786 0.6786 -0.2811
vn 0.4397 -0.8795 -0.1821
vn 0.4397 -0.8795 0.1821
vn -0.1821 -0.8795 0.4397
vn -0.1821 -0.8795 -0.4397
vn -0.4397 -0.8795 0.1821
vn 0.1821 -0.8795 -0.4397
vn 0.1821 -0.8795 0.4397
vn -0.3657 -0.2943 0.8830
vn -0.6786 0.6786 0.2811
vn -0.6786 0.6786 -0.2811
vn 0.6786 0.6786 0.2811
vn 0.8830 -0.2943 0.3657
vn 0.8830 -0.2943 -0.3657
vn -0.3657 -0.2943 -0.8830
vn -0.8830 -0.2943 0.3657
vn 0.3657 -0.2943 0.8830
vn 0.3657 -0.2943 -0.8830
vn -0.8830 -0.2943 -0.3657
vt 0.539859 0.693685
vt 0.539859 0.518291
vt 0.559703 0.518291
vt 0.559703 0.693685
vt 0.567922 0.518291
vt 0.567922 0.693685
vt 0.520016 0.518291
vt 0.520016 0.693685
vt 0.511797 0.518291
vt 0.511797 0.693685
vt 0.549781 0.514783
vt 0.539859 0.514783
vt 0.529938 0.697193
vt 0.539859 0.697193
vt 0.539859 0.507767
vt 0.569625 0.507767
vt 0.525828 0.514783
vt 0.529938 0.514783
vt 0.553891 0.514783
vt 0.510094 0.507767
vt 0.497765 0.507767
vt 0.511797 0.497243
vt 0.520016 0.497243
vt 0.581954 0.507767
vt 0.539859 0.497243
vt 0.559703 0.497243
vt 0.539859 0.490228
vt 0.567922 0.497243
vt 0.539859 0.704208
vt 0.510094 0.704208
vt 0.549781 0.697193
vt 0.553891 0.697193
vt 0.525828 0.697193
vt 0.581954 0.704208
vt 0.569625 0.704208
vt 0.559703 0.714732
vt 0.567922 0.714732
vt 0.497765 0.704208
vt 0.511797 0.714732
vt 0.520016 0.714732
vt 0.539859 0.721748
vt 0.559702 0.714732
vt 0.539859 0.714732
vt 0.674284 0.776293
vt 0.674284 0.425505
vt 0.666065 0.425505
vt 0.666065 0.776293
vt 0.694128 0.776293
vt 0.694128 0.425505
vt 0.713972 0.776293
vt 0.713972 0.425505
vt 0.722191 0.776293
vt 0.722191 0.425505
vt 0.704050 0.421997
vt 0.694128 0.421997
vt 0.684206 0.779800
vt 0.694128 0.779800
vt 0.694128 0.414981
vt 0.723893 0.414981
vt 0.680096 0.421997
vt 0.684206 0.421997
vt 0.708160 0.421997
vt 0.664362 0.414981
vt 0.652033 0.414981
vt 0.666065 0.404457
vt 0.674284 0.404457
vt 0.723894 0.414981
vt 0.736223 0.414981
vt 0.694128 0.404457
vt 0.713972 0.404457
vt 0.694128 0.397442
vt 0.722191 0.404457
vt 0.694128 0.786816
vt 0.664363 0.786816
vt 0.704050 0.779800
vt 0.708160 0.779800
vt 0.680097 0.779800
vt 0.736223 0.786816
vt 0.723894 0.786816
vt 0.713972 0.797340
vt 0.722191 0.797340
vt 0.652034 0.786816
vt 0.723894 0.786816
vt 0.666065 0.797340
vt 0.674284 0.797340
vt 0.694128 0.804356
vt 0.694128 0.797340
vt 0.848474 0.741214
vt 0.539780 0.741214
vt 0.539780 0.733773
vt 0.848474 0.733773
vt 0.539780 0.730690
vt 0.848474 0.730690
vt 0.539780 0.748655
vt 0.848474 0.748655
vt 0.539780 0.751738
vt 0.848474 0.751738
vt 0.525749 0.738734
vt 0.525749 0.741214
vt 0.862505 0.743694
vt 0.862505 0.741214
vt 0.497686 0.741214
vt 0.497686 0.733773
vt 0.525749 0.744722
vt 0.525749 0.743694
vt 0.525749 0.737706
vt 0.497686 0.748655
vt 0.497686 0.751738
vt 0.455591 0.748230
vt 0.455591 0.746175
vt 0.497686 0.730690
vt 0.455591 0.741214
vt 0.455591 0.736253
vt 0.441560 0.741214
vt 0.455591 0.734198
vt 0.890568 0.741214
vt 0.890568 0.748655
vt 0.862505 0.738734
vt 0.862505 0.737706
vt 0.862505 0.744722
vt 0.890568 0.730690
vt 0.890568 0.733773
vt 0.932663 0.736253
vt 0.932663 0.734198
vt 0.890568 0.751738
vt 0.890568 0.748655
vt 0.932663 0.748230
vt 0.932663 0.746175
vt 0.946694 0.741214
vt 0.932663 0.741214
vt 0.932663 0.746175
vt 0.848474 0.460583
vt 0.539780 0.460583
vt 0.539780 0.453142
vt 0.848474 0.453142
vt 0.539780 0.450059
vt 0.848474 0.450059
vt 0.848474 0.453142
vt 0.539780 0.468024
vt 0.848474 0.468024
vt 0.539780 0.471107
vt 0.848474 0.471107
vt 0.525749 0.458103
vt 0.525749 0.460583
vt 0.862505 0.463064
vt 0.862505 0.460583
vt 0.497686 0.460583
vt 0.497686 0.453142
vt 0.525749 0.464091
vt 0.525749 0.463064
vt 0.525749 0.457075
vt 0.497686 0.468024
vt 0.497686 0.471107
vt 0.455591 0.467599
vt 0.455591 0.465544
vt 0.497686 0.453142
vt 0.497686 0.450059
vt 0.455591 0.460583
vt 0.455591 0.455622
vt 0.441560 0.460583
vt 0.455591 0.453567
vt 0.890568 0.460583
vt 0.890568 0.468024
vt 0.862505 0.458103
vt 0.862505 0.457075
vt 0.862505 0.464091
vt 0.890568 0.450060
vt 0.890568 0.453142
vt 0.932663 0.455622
vt 0.932663 0.453568
vt 0.890568 0.471107
vt 0.890568 0.453142
vt 0.932663 0.467599
vt 0.932663 0.465544
vt 0.946694 0.460583
vt 0.932663 0.460583
s 0
g WingsNS_lamppost_metal
usemtl lamppost_metal
f 467/344/202 468/345/202 470/346/202 469/347/202
f 469/347/203 470/346/203 472/348/203 471/349/203
f 471/349/204 472/348/204 474/346/204 473/347/204
f 473/347/205 474/346/205 476/345/205 475/344/205
f 475/344/206 476/345/206 478/350/206 477/351/206
f 477/351/207 478/350/207 480/352/207 479/353/207
f 476/345/208 474/346/208 486/354/208 487/355/208
f 479/353/209 480/352/209 482/350/209 481/351/209
f 481/351/210 482/350/210 468/345/210 467/344/210
f 475/344/211 477/351/211 512/356/211 511/357/211
f 484/354/212 483/355/212 491/358/212 492/359/212
f 482/350/213 480/352/213 489/360/213 490/361/213
f 472/348/214 470/346/214 484/354/214 485/362/214
f 478/350/215 476/345/215 487/355/215 488/361/215
f 468/345/216 482/350/216 490/361/216 483/355/216
f 470/346/217 468/345/217 483/355/217 484/354/217
f 474/346/218 472/348/218 485/362/218 486/354/218
f 480/352/219 478/350/219 488/361/219 489/360/219
f 498/363/220 497/364/220 505/365/220 506/366/220
f 483/355/221 490/361/221 498/363/221 491/358/221
f 489/360/222 488/361/222 496/363/222 497/364/222
f 487/355/223 486/354/223 494/359/223 495/358/223
f 485/362/224 484/354/224 492/359/224 493/367/224
f 490/361/225 489/360/225 497/364/225 498/363/225
f 488/361/211 487/355/211 495/358/211 496/363/211
f 486/354/226 485/362/226 493/367/226 494/359/226
f 503/368/208 502/369/208 532/370/208
f 496/363/227 495/358/227 503/368/227 504/366/227
f 494/359/228 493/367/228 501/371/228 502/369/228
f 492/359/229 491/358/229 499/368/229 500/369/229
f 491/358/230 498/363/230 506/366/230 499/368/230
f 497/364/231 496/363/231 504/366/231 505/365/231
f 495/358/232 494/359/232 502/369/232 503/368/232
f 493/367/233 492/359/233 500/369/233 501/371/233
f 514/356/216 507/357/216 515/372/216 522/373/216
f 481/351/221 467/344/221 507/357/221 514/356/221
f 467/344/212 469/347/212 508/374/212 507/357/212
f 471/349/226 473/347/226 510/374/226 509/375/226
f 477/351/222 479/353/222 513/376/222 512/356/222
f 473/347/223 475/344/223 511/357/223 510/374/223
f 479/353/225 481/351/225 514/356/225 513/376/225
f 469/347/224 471/349/224 509/375/224 508/374/224
f 517/377/234 518/378/234 526/379/234 525/380/234
f 512/356/219 513/376/219 521/381/219 520/373/219
f 510/374/208 511/357/208 519/372/208 518/378/208
f 508/374/214 509/375/214 517/377/214 516/378/214
f 513/376/213 514/356/213 522/373/213 521/381/213
f 511/357/215 512/356/215 520/373/215 519/372/215
f 509/375/218 510/374/218 518/378/218 517/377/218
f 507/357/217 508/374/217 516/378/217 515/372/217
f 529/382/225 530/383/225 531/384/225
f 515/372/235 516/378/235 524/385/235 523/386/235
f 522/373/236 515/372/236 523/386/236 530/383/236
f 520/373/237 521/381/237 529/382/237 528/383/237
f 518/378/238 519/372/238 527/386/238 526/379/238
f 516/378/239 517/377/239 525/380/239 524/385/239
f 521/381/240 522/373/240 530/383/240 529/382/240
f 519/372/241 520/373/241 528/383/241 527/386/241
f 500/369/217 499/368/217 532/370/217
f 527/386/211 528/383/211 531/384/211
f 525/380/226 526/379/226 531/384/226
f 523/386/212 524/385/212 531/384/212
f 530/383/221 523/386/221 531/384/221
f 528/383/222 529/382/222 531/384/222
f 526/379/223 527/386/223 531/384/223
f 524/385/224 525/380/224 531/384/224
f 502/369/218 501/371/218 532/370/218
f 504/366/215 503/368/215 532/370/215
f 506/366/213 505/365/213 532/370/213
f 501/371/214 500/369/214 532/370/214
f 543/387/207 544/388/207 546/389/207 545/390/207
f 499/368/216 506/366/216 532/370/216
f 505/365/219 504/366/219 532/370/219
f 541/391/206 542/392/206 544/388/206 543/387/206
f 533/393/205 540/394/205 542/392/205 541/391/205
f 535/395/204 534/396/204 540/394/204 533/393/204
f 537/393/203 536/394/203 534/396/203 535/395/203
f 539/391/202 538/392/202 536/394/202 537/393/202
f 542/392/208 540/394/208 552/397/208 553/398/208
f 545/390/209 546/389/209 548/388/209 547/387/209
f 547/387/210 548/388/210 538/392/210 539/391/210
f 541/391/211 543/387/211 578/399/211 577/400/211
f 550/397/212 549/398/212 557/401/212 558/402/212
f 548/388/213 546/389/213 555/403/213 556/404/213
f 534/396/214 536/394/214 550/397/214 551/405/214
f 544/388/215 542/392/215 553/398/215 554/404/215
f 538/392/216 548/388/216 556/404/216 549/398/216
f 536/394/217 538/392/217 549/398/217 550/397/217
f 540/394/218 534/396/218 551/405/218 552/397/218
f 546/389/219 544/388/219 554/404/219 555/403/219
f 564/406/220 563/407/220 571/408/220 572/409/220
f 549/398/221 556/404/221 564/406/221 557/401/221
f 555/403/222 554/404/222 562/406/222 563/407/222
f 553/398/223 552/397/223 560/410/223 561/401/223
f 551/405/224 550/397/224 558/402/224 559/411/224
f 556/404/225 555/403/225 563/407/225 564/406/225
f 554/404/211 553/398/211 561/401/211 562/406/211
f 552/397/226 551/405/226 559/411/226 560/410/226
f 569/412/208 568/413/208 598/414/208
f 562/406/227 561/401/227 569/412/227 570/409/227
f 560/410/228 559/411/228 567/415/228 568/413/228
f 558/402/229 557/401/229 565/412/229 566/413/229
f 557/401/230 564/406/230 572/409/230 565/412/230
f 563/407/231 562/406/231 570/409/231 571/408/231
f 561/401/232 560/410/232 568/413/232 569/412/232
f 559/411/233 558/402/233 566/413/233 567/415/233
f 580/399/216 573/400/216 581/416/216 588/417/216
f 547/387/221 539/391/221 573/400/221 580/399/221
f 539/391/212 537/393/212 574/418/212 573/400/212
f 535/395/226 533/393/226 576/418/226 575/419/226
f 543/387/222 545/390/222 579/420/222 578/399/222
f 533/393/223 541/391/223 577/400/223 576/418/223
f 545/390/225 547/387/225 580/399/225 579/420/225
f 537/393/224 535/395/224 575/419/224 574/418/224
f 583/421/234 584/422/234 592/423/234 591/424/234
f 578/399/219 579/420/219 587/425/219 586/417/219
f 576/418/208 577/400/208 585/416/208 584/422/208
f 574/418/214 575/419/214 583/421/214 582/426/214
f 579/420/213 580/399/213 588/417/213 587/425/213
f 577/400/215 578/399/215 586/417/215 585/416/215
f 575/419/218 576/418/218 584/422/218 583/421/218
f 573/400/217 574/418/217 582/426/217 581/416/217
f 595/427/225 596/428/225 597/429/225
f 581/416/235 582/426/235 590/423/235 589/430/235
f 588/417/236 581/416/236 589/430/236 596/428/236
f 586/417/237 587/425/237 595/427/237 594/428/237
f 584/422/238 585/416/238 593/430/238 592/423/238
f 582/426/239 583/421/239 591/424/239 590/423/239
f 587/425/240 588/417/240 596/428/240 595/427/240
f 585/416/241 586/417/241 594/428/241 593/430/241
f 566/413/217 565/412/217 598/414/217
f 593/430/211 594/428/211 597/429/211
f 591/424/226 592/423/226 597/429/226
f 589/430/212 590/423/212 597/429/212
f 596/428/221 589/430/221 597/429/221
f 594/428/222 595/427/222 597/429/222
f 592/423/223 593/430/223 597/429/223
f 590/423/224 591/424/224 597/429/224
f 568/413/218 567/415/218 598/414/218
f 570/409/215 569/412/215 598/414/215
f 572/409/213 571/408/213 598/414/213
f 567/415/214 566/413/214 598/414/214
f 565/412/216 572/409/216 598/414/216
f 571/408/219 570/409/219 598/414/219
f 599/431/242 600/432/242 602/433/242 601/434/242
f 601/434/243 602/433/243 604/435/243 603/436/243
f 603/436/244 604/435/244 606/433/244 605/434/244
f 605/434/245 606/433/245 608/432/245 607/431/245
f 607/431/246 608/432/246 610/437/246 609/438/246
f 609/438/247 610/437/247 612/439/247 611/440/247
f 608/432/248 606/433/248 618/441/248 619/442/248
f 611/440/249 612/439/249 614/437/249 613/438/249
f 613/438/250 614/437/250 600/432/250 599/431/250
f 607/431/251 609/438/251 644/443/251 643/444/251
f 616/441/252 615/442/252 623/445/252 624/446/252
f 614/437/253 612/439/253 621/447/253 622/448/253
f 604/435/254 602/433/254 616/441/254 617/449/254
f 610/437/255 608/432/255 619/442/255 620/448/255
f 600/432/256 614/437/256 622/448/256 615/442/256
f 602/433/257 600/432/257 615/442/257 616/441/257
f 606/433/258 604/435/258 617/449/258 618/441/258
f 612/439/259 610/437/259 620/448/259 621/447/259
f 630/450/260 629/451/260 637/452/260 638/453/260
f 615/442/261 622/448/261 630/450/261 623/445/261
f 621/447/226 620/448/226 628/450/226 629/451/226
f 619/442/262 618/441/262 626/446/262 627/445/262
f 617/449/214 616/441/214 624/446/214 625/454/214
f 622/448/224 621/447/224 629/451/224 630/450/224
f 620/448/263 619/442/263 627/445/263 628/450/263
f 618/441/218 617/449/218 625/454/218 626/446/218
f 635/455/248 634/456/248 664/457/248
f 628/450/264 627/445/264 635/455/264 636/453/264
f 626/446/265 625/454/265 633/458/265 634/456/265
f 624/446/266 623/445/266 631/455/266 632/456/266
f 623/445/267 630/450/267 638/453/267 631/455/267
f 629/451/268 628/450/268 636/453/268 637/452/268
f 627/445/269 626/446/269 634/456/269 635/455/269
f 625/454/270 624/446/270 632/456/270 633/458/270
f 646/443/271 639/444/271 647/459/271 654/460/271
f 613/438/272 599/431/272 639/444/272 646/443/272
f 599/431/273 601/434/273 640/461/273 639/444/273
f 603/436/274 605/434/274 642/461/274 641/462/274
f 609/438/275 611/440/275 645/463/275 644/443/275
f 605/434/276 607/431/276 643/444/276 642/461/276
f 611/440/277 613/438/277 646/443/277 645/463/277
f 601/434/278 603/436/278 641/462/278 640/461/278
f 649/464/279 650/465/279 658/466/279 657/467/279
f 644/443/222 645/463/222 653/468/222 652/469/222
f 642/461/280 643/444/280 651/459/280 650/465/280
f 640/461/213 641/462/213 649/464/213 648/465/213
f 645/463/225 646/443/225 654/460/225 653/468/225
f 643/444/281 644/443/281 652/469/281 651/459/281
f 641/462/219 642/461/219 650/465/219 649/464/219
f 639/444/282 640/461/282 648/465/282 647/459/282
f 661/470/277 662/471/277 663/472/277
f 647/459/283 648/465/283 656/466/283 655/473/283
f 654/460/284 647/459/284 655/473/284 662/471/284
f 652/469/285 653/468/285 661/470/285 660/474/285
f 650/465/286 651/459/286 659/473/286 658/466/286
f 648/465/287 649/464/287 657/467/287 656/466/287
f 653/468/288 654/460/288 662/471/288 661/470/288
f 651/459/289 652/469/289 660/474/289 659/473/289
f 632/456/257 631/455/257 664/457/257
f 659/473/251 660/474/251 663/472/251
f 657/467/274 658/466/274 663/472/274
f 655/473/273 656/466/273 663/472/273
f 662/471/272 655/473/272 663/472/272
f 660/474/275 661/470/275 663/472/275
f 658/466/276 659/473/276 663/472/276
f 656/466/278 657/467/278 663/472/278
f 634/456/258 633/458/258 664/457/258
f 636/453/255 635/455/255 664/457/255
f 638/453/253 637/452/253 664/457/253
f 633/458/254 632/456/254 664/457/254
f 631/455/256 638/453/256 664/457/256
f 637/452/259 636/453/259 664/457/259
f 665/475/242 666/476/242 668/477/242 667/478/242
f 667/478/243 668/477/243 670/479/243 669/480/243
f 669/480/244 670/479/244 672/477/244 671/481/244
f 671/481/245 672/477/245 674/476/245 673/475/245
f 673/475/246 674/476/246 676/482/246 675/483/246
f 675/483/247 676/482/247 678/484/247 677/485/247
f 674/476/248 672/477/248 684/486/248 685/487/248
f 677/485/249 678/484/249 680/482/249 679/483/249
f 679/483/250 680/482/250 666/476/250 665/475/250
f 673/475/251 675/483/251 710/488/251 709/489/251
f 682/486/252 681/487/252 689/490/252 690/491/252
f 680/482/253 678/484/253 687/492/253 688/493/253
f 670/479/254 668/477/254 682/486/254 683/494/254
f 676/482/255 674/476/255 685/487/255 686/493/255
f 666/476/256 680/482/256 688/493/256 681/487/256
f 668/477/257 666/476/257 681/487/257 682/486/257
f 672/477/258 670/479/258 683/494/258 684/486/258
f 678/484/259 676/482/259 686/493/259 687/492/259
f 696/495/260 695/496/260 703/497/260 704/498/260
f 681/487/261 688/493/261 696/495/261 689/490/261
f 687/492/226 686/493/226 694/495/226 695/496/226
f 685/487/262 684/486/262 692/499/262 693/490/262
f 683/494/214 682/486/214 690/491/214 691/500/214
f 688/493/224 687/492/224 695/496/224 696/495/224
f 686/493/263 685/487/263 693/490/263 694/495/263
f 684/486/218 683/494/218 691/500/218 692/499/218
f 701/501/248 700/502/248 730/503/248
f 694/495/264 693/490/264 701/501/264 702/498/264
f 692/499/265 691/500/265 699/504/265 700/502/265
f 690/491/266 689/490/266 697/501/266 698/502/266
f 689/490/267 696/495/267 704/498/267 697/501/267
f 695/496/268 694/495/268 702/498/268 703/497/268
f 693/490/269 692/499/269 700/502/269 701/501/269
f 691/500/270 690/491/270 698/502/270 699/504/270
f 712/488/271 705/489/271 713/505/271 720/506/271
f 679/483/272 665/475/272 705/489/272 712/488/272
f 665/475/273 667/478/273 706/507/273 705/489/273
f 669/480/274 671/481/274 708/507/274 707/508/274
f 675/483/275 677/485/275 711/509/275 710/488/275
f 671/481/276 673/475/276 709/489/276 708/507/276
f 677/485/277 679/483/277 712/488/277 711/509/277
f 667/478/278 669/480/278 707/508/278 706/507/278
f 715/510/279 716/511/279 724/512/279 723/513/279
f 710/488/222 711/509/222 719/514/222 718/506/222
f 708/507/280 709/489/280 717/505/280 716/511/280
f 706/507/213 707/508/213 715/510/213 714/515/213
f 711/509/225 712/488/225 720/506/225 719/514/225
f 709/489/281 710/488/281 718/506/281 717/505/281
f 707/508/219 708/507/219 716/511/219 715/510/219
f 705/489/282 706/507/282 714/515/282 713/505/282
f 727/516/277 728/517/277 729/518/277
f 713/505/283 714/515/283 722/512/283 721/519/283
f 720/506/284 713/505/284 721/519/284 728/517/284
f 718/506/285 719/514/285 727/516/285 726/517/285
f 716/511/286 717/505/286 725/519/286 724/512/286
f 714/515/287 715/510/287 723/513/287 722/512/287
f 719/514/288 720/506/288 728/517/288 727/516/288
f 717/505/289 718/506/289 726/517/289 725/519/289
f 698/502/257 697/501/257 730/503/257
f 725/519/251 726/517/251 729/518/251
f 723/513/274 724/512/274 729/518/274
f 721/519/273 722/512/273 729/518/273
f 728/517/272 721/519/272 729/518/272
f 726/517/275 727/516/275 729/518/275
f 724/512/276 725/519/276 729/518/276
f 722/512/278 723/513/278 729/518/278
f 700/502/258 699/504/258 730/503/258
f 702/498/255 701/501/255 730/503/255
f 704/498/253 703/497/253 730/503/253
f 699/504/254 698/502/254 730/503/254
f 697/501/256 704/498/256 730/503/256
f 703/497/259 702/498/259 730/503/259
o LampsC
v -0.050000 3.430000 -0.110000
v -0.050000 3.470000 -0.110000
v 0.050000 3.430000 -0.110000
v 0.050000 3.470000 -0.110000
v 0.110000 3.430000 -0.050000
v 0.110000 3.470000 -0.050000
v 0.110000 3.430000 0.050000
v 0.110000 3.470000 0.050000
v 0.050000 3.430000 0.110000
v 0.050000 3.470000 0.110000
v -0.050000 3.430000 0.110000
v -0.050000 3.470000 0.110000
v -0.110000 3.430000 0.050000
v -0.110000 3.470000 0.050000
v -0.110000 3.430000 -0.050000
v -0.110000 3.470000 -0.050000
v -0.020000 3.420000 -0.040000
v 0.020000 3.420000 -0.040000
v 0.040000 3.420000 -0.020000
v 0.040000 3.420000 0.020000
v 0.020000 3.420000 0.040000
v -0.020000 3.420000 0.040000
v -0.040000 3.420000 0.020000
v -0.040000 3.420000 -0.020000
v -0.020000 3.410000 -0.040000
v 0.020000 3.410000 -0.040000
v 0.040000 3.410000 -0.020000
v 0.040000 3.410000 0.020000
v 0.020000 3.410000 0.040000
v -0.020000 3.410000 0.040000
v -0.040000 3.410000 0.020000
v -0.040000 3.410000 -0.020000
v -0.030000 3.400000 -0.070000
v 0.030000 3.400000 -0.070000
v 0.070000 3.400000 -0.030000
v 0.070000 3.400000 0.030000
v 0.030000 3.400000 0.070000
v -0.030000 3.400000 0.070000
v -0.070000 3.400000 0.030000
v -0.070000 3.400000 -0.030000
v -0.030000 3.380000 -0.070000
v 0.030000 3.380000 -0.070000
v 0.070000 3.380000 -0.030000
v 0.070000 3.380000 0.030000
v 0.030000 3.380000 0.070000
v -0.030000 3.380000 0.070000
v -0.070000 3.380000 0.030000
v -0.070000 3.380000 -0.030000
v -0.020000 3.360000 -0.050000
v 0.020000 3.360000 -0.050000
v 0.050000 3.360000 -0.020000
v 0.050000 3.360000 0.020000
v 0.020000 3.360000 0.050000
v -0.020000 3.360000 0.050000
v -0.050000 3.360000 0.020000
v -0.050000 3.360000 -0.020000
v -0.020962 3.489793 -0.082026
v 0.020962 3.489793 -0.082026
v 0.082026 3.489793 -0.020962
v 0.082026 3.489793 0.020962
v 0.020962 3.489793 0.082026
v -0.020962 3.489793 0.082026
v -0.082026 3.489793 0.020962
v -0.082026 3.489793 -0.020962
v -0.048936 3.760207 -0.137974
v 0.048936 3.760207 -0.137974
v 0.137974 3.760207 -0.048936
v 0.137974 3.760207 0.048936
v 0.048936 3.760207 0.137974
v -0.048936 3.760207 0.137974
v -0.137974 3.760207 0.048936
v -0.137974 3.760207 -0.048936
v -0.080000 3.790000 -0.190000
v 0.080000 3.790000 -0.190000
v 0.190000 3.790000 -0.080000
v 0.190000 3.790000 0.080000
v 0.080000 3.790000 0.190000
v -0.080000 3.790000 0.190000
v -0.190000 3.790000 0.080000
v -0.190000 3.790000 -0.080000
v -0.080000 3.810000 -0.190000
v 0.080000 3.810000 -0.190000
v 0.190000 3.810000 -0.080000
v 0.190000 3.810000 0.080000
v 0.080000 3.810000 0.190000
v -0.080000 3.810000 0.190000
v -0.190000 3.810000 0.080000
v -0.190000 3.810000 -0.080000
v -0.070000 3.820000 -0.150000
v 0.070000 3.820000 -0.150000
v 0.150000 3.820000 -0.070000
v 0.150000 3.820000 0.070000
v 0.070000 3.820000 0.150000
v -0.070000 3.820000 0.150000
v -0.150000 3.820000 0.070000
v -0.150000 3.820000 -0.070000
v -0.050000 3.860000 -0.120000
v 0.050000 3.860000 -0.120000
v 0.120000 3.860000 -0.050000
v 0.120000 3.860000 0.050000
v 0.050000 3.860000 0.120000
v -0.050000 3.860000 0.120000
v -0.120000 3.860000 0.050000
v -0.120000 3.860000 -0.050000
v -0.020000 3.880000 -0.060000
v 0.020000 3.880000 -0.060000
v 0.060000 3.880000 -0.020000
v 0.060000 3.880000 0.020000
v 0.020000 3.880000 0.060000
v -0.020000 3.880000 0.060000
v -0.060000 3.880000 0.020000
v -0.060000 3.880000 -0.020000
v -0.020000 3.900000 -0.040000
v 0.020000 3.900000 -0.040000
v 0.040000 3.900000 -0.020000
v 0.040000 3.900000 0.020000
v 0.020000 3.900000 0.040000
v -0.020000 3.900000 0.040000
v -0.040000 3.900000 0.020000
v -0.040000 3.900000 -0.020000
v -0.020000 3.920000 -0.040000
v 0.020000 3.920000 -0.040000
v 0.040000 3.920000 -0.020000
v 0.040000 3.920000 0.020000
v 0.020000 3.920000 0.040000
v -0.020000 3.920000 0.040000
v -0.040000 3.920000 0.020000
v -0.040000 3.920000 -0.020000
v -0.010000 3.930000 -0.020000
v 0.010000 3.930000 -0.020000
v 0.020000 3.930000 -0.010000
v 0.020000 3.930000 0.010000
v 0.010000 3.930000 0.020000
v -0.010000 3.930000 0.020000
v -0.020000 3.930000 0.010000
v -0.020000 3.930000 -0.010000
v -0.010000 3.980000 -0.020000
v 0.010000 3.980000 -0.020000
v 0.020000 3.980000 -0.010000
v 0.020000 3.980000 0.010000
v 0.010000 3.980000 0.020000
v -0.010000 3.980000 0.020000
v -0.020000 3.980000 0.010000
v -0.020000 3.980000 -0.010000
v 0.000000 4.010000 0.000000
v 0.038100 3.489768 -0.074932
v -0.038100 3.489768 -0.074932
v -0.038100 3.489768 0.074932
v 0.038100 3.489768 0.074932
v 0.066079 3.760232 -0.130890
v -0.066079 3.760232 -0.130890
v -0.066079 3.760232 0.130890
v 0.066079 3.760232 0.130890
v 0.074932 3.489768 0.038100
v 0.074932 3.489768 -0.038100
v -0.074932 3.489768 -0.038100
v -0.074932 3.489768 0.038100
v 0.130890 3.760232 0.066079
v 0.130890 3.760232 -0.066079
v -0.130890 3.760232 -0.066079
v -0.130890 3.760232 0.066079
v 0.080000 3.480000 -0.030000
v 0.030000 3.480000 -0.080000
v 0.030000 3.480000 0.080000
v 0.080000 3.480000 0.030000
v -0.080000 3.480000 0.030000
v -0.030000 3.480000 0.080000
v -0.030000 3.480000 -0.080000
v -0.080000 3.480000 -0.030000
v 0.140000 3.770000 -0.060000
v 0.060000 3.770000 -0.140000
v 0.060000 3.770000 0.140000
v 0.140000 3.770000 0.060000
v -0.140000 3.770000 0.060000
v -0.060000 3.770000 0.140000
v -0.060000 3.770000 -0.140000
v -0.140000 3.770000 -0.060000
vn -0.0000 -0.0000 -1.0000
vn 0.7071 -0.0000 -0.7071
vn 1.0000 -0.0000 -0.0000
vn 0.7071 -0.0000 0.7071
vn -0.0000 -0.0000 1.0000
vn -0.7071 -0.0000 0.7071
vn 0.3162 0.9487 -0.0000
vn -1.0000 -0.0000 -0.0000
vn -0.7071 -0.0000 -0.7071
vn -0.0990 -0.9901 0.0990
vn 0.0990 -0.9901 0.0990
vn -0.1414 -0.9899 -0.0000
vn 0.0990 -0.9901 -0.0990
vn -0.0000 -0.9899 0.1414
vn -0.0990 -0.9901 -0.0990
vn -0.0000 -0.9899 -0.1414
vn 0.1414 -0.9899 -0.0000
vn 0.2357 0.9428 -0.2357
vn -0.3162 0.9487 -0.0000
vn -0.0000 0.9487 0.3162
vn -0.0000 0.9487 -0.3162
vn -0.2357 0.9428 -0.2357
vn -0.2357 0.9428 0.2357
vn 0.2357 0.9428 0.2357
vn 0.7071 -0.7071 -0.0000
vn -0.0000 -1.0000 -0.0000
vn -0.0000 -0.7071 -0.7071
vn -0.4851 -0.7276 -0.4851
vn -0.4851 -0.7276 0.4851
vn 0.4851 -0.7276 0.4851
vn 0.4851 -0.7276 -0.4851
vn -0.7071 -0.7071 -0.0000
vn -0.0000 -0.7071 0.7071
vn 0.6907 -0.2143 0.6907
vn -0.1924 0.9623 0.1924
vn 0.1925 0.9623 0.1924
vn 0.1924 0.9623 -0.1924
vn -0.1925 0.9623 -0.1924
vn -0.2649 -0.9272 -0.2649
vn 0.6907 -0.2143 -0.6907
vn -0.9793 -0.2026 -0.0000
vn -0.0000 -0.2026 0.9793
vn 0.9793 -0.2026 -0.0000
vn -0.0000 -0.2026 -0.9793
vn -0.6907 -0.2143 -0.6907
vn -0.6907 -0.2143 0.6907
vn -0.2649 -0.9272 0.2649
vn 0.2649 -0.9272 0.2649
vn 0.2649 -0.9272 -0.2649
vn -0.3714 -0.9285 -0.0000
vn -0.0000 -0.9285 0.3714
vn 0.3714 -0.9285 -0.0000
vn -0.0000 -0.9285 -0.3714
vn -0.2425 0.9701 -0.0000
vn -0.5298 0.6623 0.5298
vn -0.0000 0.9701 0.2425
vn 0.2425 0.9701 -0.0000
vn -0.0000 0.9701 -0.2425
vn -0.1924 0.9623 -0.1924
vn 0.1924 0.9623 0.1924
vn 0.5298 0.6623 0.5298
vn 0.5298 0.6623 -0.5298
vn -0.8000 0.6000 -0.0000
vn -0.0000 0.6000 0.8000
vn 0.8000 0.6000 -0.0000
vn -0.0000 0.6000 -0.8000
vn -0.5298 0.6623 -0.5298
vn -0.5774 0.5774 0.5774
vn -0.2120 0.9540 -0.2120
vn -0.2120 0.9540 0.2120
vn 0.2120 0.9540 0.2120
vn 0.2120 0.9540 -0.2120
vn 0.5774 0.5774 0.5774
vn 0.5774 0.5774 -0.5774
vn -0.7071 0.7071 -0.0000
vn -0.0000 0.7071 0.7071
vn 0.7071 0.7071 -0.0000
vn -0.0000 0.7071 -0.7071
vn -0.5774 0.5774 -0.5774
vn -0.4472 0.8944 -0.0000
vn -0.0000 0.8944 0.4472
vn 0.4472 0.8944 -0.0000
vn -0.0000 0.8944 -0.4472
vn -0.3015 0.9045 -0.3015
vn -0.3015 0.9045 0.3015
vn 0.3015 0.9045 0.3015
vn 0.3015 0.9045 -0.3015
vn -0.5773 0.5774 -0.5773
vn -0.5773 0.5774 0.5773
vn 0.5773 0.5774 0.5773
vn 0.5773 0.5774 -0.5773
vn -0.8320 0.5547 -0.0000
vn -0.0000 0.5547 0.8320
vn 0.8320 0.5547 -0.0000
vn -0.0000 0.5547 -0.8320
vt 0.798234 0.795757
vt 0.798234 0.809065
vt 0.931309 0.809065
vt 0.931309 0.795757
vt 0.807712 0.796054
vt 0.807712 0.809305
vt 0.920154 0.809305
vt 0.920154 0.796054
vt 0.930510 0.795735
vt 0.930510 0.808967
vt 0.798193 0.808967
vt 0.798193 0.795735
vt 0.904047 0.812275
vt 0.824656 0.812275
vt 0.845192 0.792741
vt 0.882673 0.792741
vt 0.882673 0.792741
vt 0.845192 0.789428
vt 0.882673 0.789428
vt 0.890815 0.792427
vt 0.837888 0.792427
vt 0.838157 0.792430
vt 0.891387 0.792430
vt 0.845192 0.789428
vt 0.882673 0.789428
vt 0.901413 0.786115
vt 0.826452 0.786115
vt 0.890815 0.789119
vt 0.837888 0.789119
vt 0.838157 0.789104
vt 0.891387 0.789104
vt 0.901413 0.779490
vt 0.826452 0.779490
vt 0.904047 0.785811
vt 0.824656 0.785811
vt 0.824849 0.785777
vt 0.904694 0.785777
vt 0.904047 0.779195
vt 0.824656 0.779195
vt 0.837888 0.772580
vt 0.890815 0.772580
vt 0.826452 0.779490
vt 0.901413 0.779490
vt 0.824849 0.779123
vt 0.904694 0.779123
vt 0.654615 0.988965
vt 0.741179 0.988965
vt 0.806102 0.972734
vt 0.806102 0.951094
vt 0.741179 0.934863
vt 0.654615 0.934863
vt 0.589693 0.951094
vt 0.589693 0.972734
vt 0.891387 0.772469
vt 0.838157 0.772469
vt 0.892043 0.772864
vt 0.835822 0.772864
vt 0.829420 0.815854
vt 0.898445 0.815854
vt 0.924662 0.905455
vt 0.803204 0.905455
vt 0.910783 0.812618
vt 0.817082 0.812618
vt 0.904694 0.812392
vt 0.824849 0.812392
vt 0.938894 0.908691
vt 0.788972 0.908691
vt 0.760861 0.915317
vt 0.967004 0.915317
vt 0.898445 0.815854
vt 0.829420 0.815854
vt 0.803203 0.905455
vt 0.924662 0.905455
vt 0.892088 0.815514
vt 0.836615 0.815514
vt 0.799601 0.904966
vt 0.929102 0.904966
vt 0.836877 0.815650
vt 0.892667 0.815650
vt 0.929893 0.905614
vt 0.799650 0.905613
vt 0.836615 0.815514
vt 0.892088 0.815514
vt 0.929102 0.904966
vt 0.799601 0.904966
vt 0.892667 0.815650
vt 0.836877 0.815650
vt 0.799650 0.905614
vt 0.929893 0.905613
vt 0.758311 0.915525
vt 0.971232 0.915525
vt 0.971232 0.922179
vt 0.758311 0.922179
vt 0.967004 0.915317
vt 0.943742 0.908205
vt 0.784961 0.908205
vt 0.758497 0.914821
vt 0.970206 0.914821
vt 0.784927 0.908871
vt 0.944617 0.908871
vt 0.970206 0.921437
vt 0.758497 0.921437
vt 0.771729 0.924745
vt 0.956974 0.924745
vt 0.760861 0.921942
vt 0.967004 0.921942
vt 0.967004 0.921942
vt 0.760861 0.921942
vt 0.788972 0.925255
vt 0.938894 0.925255
vt 0.929524 0.938506
vt 0.798342 0.938506
vt 0.957925 0.925506
vt 0.771619 0.925506
vt 0.788972 0.925255
vt 0.938894 0.925255
vt 0.930510 0.937977
vt 0.798193 0.937977
vt 0.837888 0.944593
vt 0.890815 0.944593
vt 0.931309 0.938813
vt 0.798234 0.938813
vt 0.826452 0.945132
vt 0.901413 0.945132
vt 0.882673 0.951758
vt 0.845192 0.951758
vt 0.891387 0.945467
vt 0.838157 0.945467
vt 0.891387 0.952121
vt 0.838157 0.952121
vt 0.838157 0.958775
vt 0.891387 0.958775
vt 0.882673 0.951758
vt 0.837888 0.951209
vt 0.890815 0.951209
vt 0.890815 0.957824
vt 0.837888 0.957824
vt 0.851120 0.961132
vt 0.877583 0.961132
vt 0.845192 0.958384
vt 0.882673 0.958384
vt 0.882673 0.958383
vt 0.845192 0.958383
vt 0.873303 0.961696
vt 0.854563 0.961696
vt 0.854563 0.978261
vt 0.873303 0.978261
vt 0.878079 0.962102
vt 0.851464 0.962102
vt 0.854562 0.961696
vt 0.854562 0.978261
vt 0.863933 0.988199
vt 0.851120 0.977672
vt 0.877583 0.977672
vt 0.878079 0.978736
vt 0.851464 0.978736
vt 0.863933 0.988199
vt 0.864352 0.987596
vt 0.864772 0.988717
s 0
g LampsC_lamppost_metal
usemtl lamppost_metal
f 731/520/290 732/521/290 734/522/290 733/523/290
f 733/524/291 734/525/291 736/526/291 735/527/291
f 735/528/292 736/529/292 738/530/292 737/531/292
f 737/527/293 738/526/293 740/525/293 739/524/293
f 739/523/294 740/522/294 742/521/294 741/520/294
f 741/527/295 742/526/295 744/525/295 743/524/295
f 738/530/296 736/529/296 892/532/296 895/533/296
f 743/531/297 744/530/297 746/529/297 745/528/297
f 745/524/298 746/525/298 732/526/298 731/527/298
f 741/527/299 743/524/299 753/534/299 752/535/299
f 750/536/293 751/534/293 759/537/293 758/538/293
f 737/527/300 739/524/300 751/534/300 750/536/300
f 743/531/301 745/528/301 754/539/301 753/540/301
f 733/524/302 735/527/302 749/535/302 748/534/302
f 739/523/303 741/520/303 752/541/303 751/542/303
f 745/524/304 731/527/304 747/536/304 754/534/304
f 731/520/305 733/523/305 748/542/305 747/541/305
f 735/528/306 737/531/306 750/540/306 749/539/306
f 756/543/307 757/544/307 765/545/307 764/546/307
f 748/534/291 749/535/291 757/544/291 756/543/291
f 753/540/297 754/539/297 762/547/297 761/548/297
f 751/542/294 752/541/294 760/549/294 759/550/294
f 749/539/292 750/540/292 758/548/292 757/547/292
f 747/541/290 748/542/290 756/550/290 755/549/290
f 754/534/298 747/536/298 755/538/298 762/537/298
f 752/535/295 753/534/295 761/543/295 760/544/295
f 770/546/298 763/545/298 771/551/298 778/552/298
f 761/548/308 762/547/308 770/553/308 769/554/308
f 759/550/309 760/549/309 768/555/309 767/556/309
f 757/547/296 758/548/296 766/554/296 765/553/296
f 755/549/310 756/550/310 764/556/310 763/555/310
f 762/537/311 755/538/311 763/545/311 770/546/311
f 760/544/312 761/543/312 769/546/312 768/545/312
f 758/538/313 759/537/313 767/546/313 766/545/313
f 773/557/314 774/558/314 782/559/314 781/560/314
f 768/545/295 769/546/295 777/561/295 776/562/295
f 766/545/293 767/546/293 775/552/293 774/551/293
f 764/546/291 765/545/291 773/562/291 772/561/291
f 769/554/297 770/553/297 778/557/297 777/558/297
f 767/556/294 768/555/294 776/563/294 775/564/294
f 765/553/292 766/554/292 774/558/292 773/557/292
f 763/555/290 764/556/290 772/564/290 771/563/290
f 779/565/315 780/566/315 781/567/315 782/568/315 783/569/315 784/570/315 785/571/315 786/572/315
f 771/563/316 772/564/316 780/573/316 779/574/316
f 778/552/317 771/551/317 779/575/317 786/576/317
f 776/562/318 777/561/318 785/576/318 784/575/318
f 774/551/319 775/552/319 783/576/319 782/575/319
f 772/561/320 773/562/320 781/575/320 780/576/320
f 777/558/321 778/557/321 786/560/321 785/559/321
f 775/564/322 776/563/322 784/574/322 783/573/322
f 744/525/324 742/526/324 897/581/324 896/582/324
f 740/525/325 738/526/325 895/581/325 894/582/325
f 746/529/308 744/530/308 896/533/308 899/532/308
f 736/526/326 734/525/326 893/582/326 892/581/326
f 742/521/309 740/522/309 894/583/309 897/584/309
f 732/526/327 746/525/327 899/582/327 898/581/327
f 734/522/310 732/521/310 898/584/310 893/583/310
f 906/585/328 907/586/328 810/587/328 803/588/328
f 808/609/294 807/610/294 815/611/294 816/612/294
f 904/586/336 905/585/336 808/613/336 809/587/336
f 902/586/337 903/585/337 806/588/337 807/587/337
f 900/585/338 901/586/338 804/587/338 805/613/338
f 907/614/339 904/615/339 809/616/339 810/617/339
f 905/618/340 902/619/340 807/610/340 808/609/340
f 903/615/341 900/614/341 805/617/341 806/616/341
f 901/619/342 906/618/342 803/609/342 804/610/342
f 818/620/343 817/621/343 825/622/343 826/623/343
f 806/616/292 805/617/292 813/620/292 814/621/292
f 804/610/290 803/609/290 811/612/290 812/611/290
f 803/588/298 810/587/298 818/624/298 811/625/298
f 809/587/295 808/613/295 816/626/295 817/627/295
f 807/587/293 806/588/293 814/625/293 815/624/293
f 805/613/291 804/587/291 812/627/291 813/626/291
f 810/617/297 809/616/297 817/621/297 818/620/297
f 825/628/344 824/629/344 832/630/344 833/631/344
f 816/612/345 815/611/345 823/632/345 824/633/345
f 814/621/346 813/620/346 821/623/346 822/622/346
f 812/611/347 811/612/347 819/633/347 820/632/347
f 811/625/348 818/624/348 826/634/348 819/635/348
f 817/627/324 816/626/324 824/629/324 825/628/324
f 815/624/349 814/625/349 822/635/349 823/634/349
f 813/626/326 812/627/326 820/628/326 821/629/326
f 834/636/308 833/637/308 841/638/308 842/639/308
f 823/634/350 822/635/350 830/630/350 831/631/350
f 821/629/351 820/628/351 828/631/351 829/630/351
f 826/623/352 825/622/352 833/637/352 834/636/352
f 824/633/353 823/632/353 831/640/353 832/641/353
f 822/622/354 821/623/354 829/636/354 830/637/354
f 820/632/355 819/633/355 827/641/355 828/640/355
f 819/635/356 826/634/356 834/631/356 827/630/356
f 841/642/357 840/643/357 848/644/357 849/645/357
f 832/641/309 831/640/309 839/646/309 840/647/309
f 830/637/296 829/636/296 837/639/296 838/638/296
f 828/640/310 827/641/310 835/647/310 836/646/310
f 827/630/358 834/631/358 842/642/358 835/643/358
f 833/631/359 832/630/359 840/643/359 841/642/359
f 831/631/360 830/630/360 838/643/360 839/642/360
f 829/630/361 828/631/361 836/642/361 837/643/361
f 844/648/290 843/649/290 851/650/290 852/651/290
f 839/642/362 838/643/362 846/652/362 847/645/362
f 837/643/363 836/642/363 844/645/363 845/644/363
f 842/639/364 841/638/364 849/653/364 850/654/364
f 840/647/365 839/646/365 847/648/365 848/649/365
f 838/638/366 837/639/366 845/654/366 846/653/366
f 836/646/367 835/647/367 843/649/367 844/648/367
f 835/643/368 842/642/368 850/645/368 843/652/368
f 858/655/369 857/656/369 865/657/369 866/658/369
f 843/652/298 850/645/298 858/659/298 851/660/298
f 849/645/295 848/644/295 856/661/295 857/662/295
f 847/645/293 846/652/293 854/660/293 855/659/293
f 845/644/291 844/645/291 852/662/291 853/661/291
f 850/654/297 849/653/297 857/656/297 858/655/297
f 848/649/294 847/648/294 855/651/294 856/650/294
f 846/653/292 845/654/292 853/655/292 854/656/292
f 861/663/291 860/664/291 868/665/291 869/666/291
f 856/650/370 855/651/370 863/667/370 864/668/370
f 854/656/371 853/655/371 861/658/371 862/657/371
f 852/651/372 851/650/372 859/668/372 860/667/372
f 851/660/373 858/659/373 866/669/373 859/663/373
f 857/662/374 856/661/374 864/663/374 865/664/374
f 855/659/375 854/660/375 862/663/375 863/669/375
f 853/661/376 852/662/376 860/664/376 861/663/376
f 867/666/377 874/670/377 875/671/377
f 866/658/297 865/657/297 873/672/297 874/673/297
f 864/668/294 863/667/294 871/674/294 872/675/294
f 862/657/292 861/658/292 869/673/292 870/672/292
f 860/667/290 859/668/290 867/675/290 868/674/290
f 859/663/298 866/669/298 874/670/298 867/666/298
f 865/664/295 864/663/295 872/666/295 873/665/295
f 863/669/293 862/663/293 870/666/293 871/670/293
f 873/665/378 872/666/378 875/676/378
f 871/670/379 870/666/379 875/671/379
f 869/666/380 868/665/380 875/676/380
f 874/673/381 873/672/381 875/677/381
f 872/675/382 871/674/382 875/678/382
f 870/672/383 869/673/383 875/677/383
f 868/674/384 867/675/384 875/678/384
f 787/606/333 788/605/333 893/583/333 898/584/333
f 791/598/331 792/597/331 897/584/331 894/583/331
f 796/608/333 795/607/333 906/618/333 901/619/333
f 800/600/331 799/599/331 902/619/331 905/618/331
f 799/599/331 791/598/331 894/583/331 902/619/331
f 788/605/333 796/608/333 901/619/333 893/583/333
f 792/597/331 800/600/331 905/618/331 897/584/331
f 795/607/333 787/606/333 898/584/333 906/618/333
f 789/602/332 790/601/332 895/533/332 892/532/332
f 793/594/330 794/593/330 899/532/330 896/533/330
f 798/604/332 797/603/332 900/614/332 903/615/332
f 802/596/330 801/595/330 904/615/330 907/614/330
f 790/601/332 798/604/332 903/615/332 895/533/332
f 797/603/332 789/602/332 892/532/332 900/614/332
f 801/595/330 793/594/330 896/533/330 904/615/330
f 794/593/330 802/596/330 907/614/330 899/532/330
f 876/590/329 885/589/329 892/581/329 893/582/329
f 884/578/323 879/577/323 894/582/323 895/581/323
f 878/578/335 887/577/335 896/582/335 897/581/335
f 886/590/334 877/589/334 898/581/334 899/582/334
f 889/592/329 880/591/329 901/586/329 900/585/329
f 883/580/323 888/579/323 903/585/323 902/586/323
f 891/580/335 882/579/335 905/585/335 904/586/335
f 881/592/334 890/591/334 907/586/334 906/585/334
f 888/579/323 884/578/323 895/581/323 903/585/323
f 879/577/323 883/580/323 902/586/323 894/582/323
f 880/591/329 876/590/329 893/582/329 901/586/329
f 885/589/329 889/592/329 900/585/329 892/581/329
f 887/577/335 891/580/335 904/586/335 896/582/335
f 890/591/334 886/590/334 899/582/334 907/586/334
f 882/579/335 878/578/335 897/581/335 905/585/335
f 877/589/334 881/592/334 906/585/334 898/581/334
g LampsC_lamppost_emission
usemtl lamppost_emission
f 879/577/323 884/578/323 888/579/323 883/580/323
f 885/589/329 876/590/329 880/591/329 889/592/329
f 794/593/330 793/594/330 801/595/330 802/596/330
f 792/597/331 791/598/331 799/599/331 800/600/331
f 790/601/332 789/602/332 797/603/332 798/604/332
f 788/605/333 787/606/333 795/607/333 796/608/333
f 877/589/334 886/590/334 890/591/334 881/592/334
f 887/577/335 878/578/335 882/579/335 891/580/335
