# Blender 4.4.3
# www.blender.org
mtllib light_ceil_round.mtl
o ceiling_light_round
v 0.000000 -0.100000 -1.000000
v 0.000000 -0.000000 -1.100000
v 0.500000 -0.100000 -0.866025
v 0.550000 -0.000000 -0.952628
v 0.866025 -0.100000 -0.500000
v 0.952628 -0.000000 -0.550000
v 1.000000 -0.100000 0.000000
v 1.100000 0.000000 0.000000
v 0.866025 -0.100000 0.500000
v 0.952628 0.000000 0.550000
v 0.500000 -0.100000 0.866025
v 0.550000 0.000000 0.952628
v 0.000000 -0.100000 1.000000
v 0.000000 0.000000 1.100000
v -0.500000 -0.100000 0.866025
v -0.550000 0.000000 0.952628
v -0.866025 -0.100000 0.500000
v -0.952628 0.000000 0.550000
v -1.000000 -0.100000 0.000000
v -1.100000 0.000000 0.000000
v -0.866025 -0.100000 -0.500000
v -0.952628 -0.000000 -0.550000
v -0.500000 -0.100000 -0.866025
v -0.550000 -0.000000 -0.952628
v 0.000000 -0.100000 -0.900000
v 0.450000 -0.100000 -0.779423
v 0.779423 -0.100000 -0.450000
v 0.900000 -0.100000 0.000000
v 0.779423 -0.100000 0.450000
v 0.450000 -0.100000 0.779423
v 0.000000 -0.100000 0.900000
v -0.450000 -0.100000 0.779423
v -0.779423 -0.100000 0.450000
v -0.900000 -0.100000 0.000000
v -0.779423 -0.100000 -0.450000
v -0.450000 -0.100000 -0.779423
v 0.000000 -0.200000 -0.810000
v 0.405000 -0.200000 -0.701481
v 0.701481 -0.200000 -0.405000
v 0.810000 -0.200000 0.000000
v 0.701481 -0.200000 0.405000
v 0.405000 -0.200000 0.701481
v 0.000000 -0.200000 0.810000
v -0.405000 -0.200000 0.701481
v -0.701481 -0.200000 0.405000
v -0.810000 -0.200000 0.000000
v -0.701481 -0.200000 -0.405000
v -0.405000 -0.200000 -0.701481
v 0.000000 0.000000 0.000000
v 0.000000 -0.200000 0.000000
vn 0.1862 -0.6947 -0.6947
vn 0.5086 -0.6947 -0.5086
vn 0.6947 -0.6947 -0.1862
vn 0.6947 -0.6947 0.1862
vn 0.5086 -0.6947 0.5086
vn 0.1862 -0.6947 0.6947
vn -0.1862 -0.6947 0.6947
vn -0.5086 -0.6947 0.5086
vn -0.6947 -0.6947 0.1862
vn -0.6947 -0.6947 -0.1862
vn -0.0000 1.0000 -0.0000
vn -0.5086 -0.6947 -0.5086
vn -0.1862 -0.6947 -0.6947
vn -0.0000 -1.0000 -0.0000
vn 0.7290 -0.6561 0.1953
vn -0.5336 -0.6561 -0.5336
vn 0.1953 -0.6561 -0.7290
vn -0.5336 -0.6561 0.5336
vn 0.5336 -0.6561 0.5336
vn -0.1953 -0.6561 -0.7290
vn 0.5336 -0.6561 -0.5336
vn -0.7290 -0.6561 0.1953
vn 0.1953 -0.6561 0.7290
vn 0.7290 -0.6561 -0.1953
vn -0.7290 -0.6561 -0.1953
vn -0.1953 -0.6561 0.7290
vt 1.000000 0.500000
vt 1.000000 0.621094
vt 0.916667 0.621094
vt 0.916667 0.500000
vt 0.833333 0.621094
vt 0.833333 0.500000
vt 0.750000 0.621094
vt 0.750000 0.500000
vt 0.666667 0.621094
vt 0.666667 0.500000
vt 0.583333 0.621094
vt 0.583333 0.500000
vt 0.500000 0.621094
vt 0.500000 0.500000
vt 0.416667 0.621094
vt 0.416667 0.500000
vt 0.333333 0.621094
vt 0.333333 0.500000
vt 0.250000 0.621094
vt 0.250000 0.500000
vt 0.166667 0.621094
vt 0.166667 0.500000
vt 0.308983 0.312700
vt 0.125607 0.312700
vt 0.150175 0.221012
vt 0.083333 0.621094
vt 0.083333 0.500000
vt 0.000000 0.621094
vt 0.000000 0.500000
vt 0.150175 0.404388
vt 0.308983 0.129324
vt 0.400671 0.153892
vt 0.467792 0.221012
vt 0.467792 0.404388
vt 0.492359 0.312700
vt 0.217295 0.153892
vt 0.400671 0.471509
vt 0.308983 0.496076
vt 0.217295 0.471509
vt 0.691017 0.312700
vt 0.874393 0.312700
vt 0.849825 0.221012
vt 0.782705 0.153892
vt 0.782705 0.471509
vt 0.849825 0.404388
vt 0.691017 0.129324
vt 0.599329 0.153892
vt 0.599329 0.471509
vt 0.691017 0.496076
vt 0.507641 0.312700
vt 0.532208 0.221012
vt 0.532208 0.404388
s 1
g ceiling_light_round_Material.001
usemtl Material.001
f 1/1/1 2/2/1 4/3/1 3/4/1
f 3/4/2 4/3/2 6/5/2 5/6/2
f 5/6/3 6/5/3 8/7/3 7/8/3
f 7/8/4 8/7/4 10/9/4 9/10/4
f 9/10/5 10/9/5 12/11/5 11/12/5
f 11/12/6 12/11/6 14/13/6 13/14/6
f 13/14/7 14/13/7 16/15/7 15/16/7
f 15/16/8 16/15/8 18/17/8 17/18/8
f 17/18/9 18/17/9 20/19/9 19/20/9
f 19/20/10 20/19/10 22/21/10 21/22/10
f 49/23/11 20/24/11 18/25/11
f 21/22/12 22/21/12 24/26/12 23/27/12
f 23/27/13 24/26/13 2/28/13 1/29/13
f 15/16/14 17/18/14 33/18/14 32/16/14
f 13/14/14 15/16/14 32/16/14 31/14/14
f 11/12/14 13/14/14 31/14/14 30/12/14
f 9/10/14 11/12/14 30/12/14 29/10/14
f 7/8/14 9/10/14 29/10/14 28/8/14
f 23/27/14 1/29/14 25/29/14 36/27/14
f 1/1/14 3/4/14 26/4/14 25/1/14
f 5/6/14 7/8/14 28/8/14 27/6/14
f 21/22/14 23/27/14 36/27/14 35/22/14
f 3/4/14 5/6/14 27/6/14 26/4/14
f 19/20/14 21/22/14 35/22/14 34/20/14
f 17/18/14 19/20/14 34/20/14 33/18/14
f 49/23/11 22/30/11 20/24/11
f 49/23/11 14/31/11 12/32/11 10/33/11
f 6/34/11 49/23/11 8/35/11
f 14/31/11 49/23/11 18/25/11 16/36/11
f 4/37/11 2/38/11 49/23/11 6/34/11
f 2/38/11 24/39/11 22/30/11 49/23/11
f 8/35/11 49/23/11 10/33/11
g ceiling_light_round_Material.002
usemtl Material.002
f 28/8/15 29/10/15 41/10/15 40/8/15
f 50/40/14 40/41/14 41/42/14 42/43/14
f 35/22/16 36/27/16 48/27/16 47/22/16
f 25/1/17 26/4/17 38/4/17 37/1/17
f 32/16/18 33/18/18 45/18/18 44/16/18
f 29/10/19 30/12/19 42/12/19 41/10/19
f 36/27/20 25/29/20 37/29/20 48/27/20
f 26/4/21 27/6/21 39/6/21 38/4/21
f 33/18/22 34/20/22 46/20/22 45/18/22
f 30/12/23 31/14/23 43/14/23 42/12/23
f 27/6/24 28/8/24 40/8/24 39/6/24
f 34/20/25 35/22/25 47/22/25 46/20/25
f 31/14/26 32/16/26 44/16/26 43/14/26
f 38/44/14 39/45/14 40/41/14 50/40/14
f 50/40/14 43/46/14 44/47/14
f 48/48/14 37/49/14 50/40/14
f 46/50/14 50/40/14 44/47/14 45/51/14
f 43/46/14 50/40/14 42/43/14
f 47/52/14 48/48/14 50/40/14 46/50/14
f 37/49/14 38/44/14 50/40/14
