# Blender 4.4.3
# www.blender.org
mtllib light_ceil_short.mtl
o CeilingLight1
v 1.000000 -0.000000 -1.500000
v 0.800000 -0.100000 -1.400000
v 1.000000 0.000000 1.500000
v 0.800000 -0.100000 1.400000
v -1.000000 -0.000000 -1.500000
v -0.800000 -0.100000 -1.400000
v -1.000000 0.000000 1.500000
v -0.800000 -0.100000 1.400000
v -0.900000 -0.100000 -1.500000
v -0.900000 -0.100000 1.500000
v 0.900000 -0.100000 -1.500000
v 0.900000 -0.100000 1.500000
v -0.700000 -0.200000 -1.300000
v -0.700000 -0.200000 1.300000
v 0.700000 -0.200000 -1.300000
v 0.700000 -0.200000 1.300000
vn -0.0000 1.0000 -0.0000
vn -0.0000 -0.0000 1.0000
vn -0.7071 -0.7071 -0.0000
vn 0.7071 -0.7071 -0.0000
vn -0.0000 -0.0000 -1.0000
vn -0.0000 -1.0000 -0.0000
vn -0.0000 -0.7071 -0.7071
vn -0.0000 -0.7071 0.7071
vt 0.625000 0.500000
vt 0.875000 0.500000
vt 0.875000 0.750000
vt 0.625000 0.750000
vt 0.375000 0.750000
vt 0.625000 1.000000
vt 0.375000 1.000000
vt 0.375000 0.000000
vt 0.625000 0.000000
vt 0.625000 0.250000
vt 0.375000 0.250000
vt 0.375000 0.500000
vt 0.138889 0.508333
vt 0.138889 0.741667
vt 0.125000 0.750000
vt 0.125000 0.500000
vt 0.361111 0.508333
vt 0.361111 0.741667
s 1
g CeilingLight1_Material.001
usemtl Material.001
f 1/1/1 5/2/1 7/3/1 3/4/1
f 12/5/2 3/4/2 7/6/2 10/7/2
f 10/8/3 7/9/3 5/10/3 9/11/3
f 11/12/4 1/1/4 3/4/4 12/5/4
f 9/11/5 5/10/5 1/1/5 11/12/5
f 6/13/6 8/14/6 10/15/6 9/16/6
f 2/17/6 6/13/6 9/16/6 11/12/6
f 8/14/6 4/18/6 12/5/6 10/15/6
f 4/18/6 2/17/6 11/12/6 12/5/6
g CeilingLight1_Material.002
usemtl Material.002
f 2/17/4 4/18/4 16/18/4 15/17/4
f 13/13/6 15/17/6 16/18/6 14/14/6
f 6/13/7 2/17/7 15/17/7 13/13/7
f 4/18/8 8/14/8 14/14/8 16/18/8
f 8/14/3 6/13/3 13/13/3 14/14/3
