# Blender 5.1.1
# www.blender.org
o Cube
v -1.500000 0.000000 0.900000
v -0.750000 0.750000 0.750000
v -1.500000 -0.000000 -0.900000
v -0.750000 0.750000 -0.750000
v 1.500000 0.000000 0.900000
v 0.750000 0.750000 0.750000
v 1.500000 -0.000000 -0.900000
v 0.750000 0.750000 -0.750000
vn -0.7071 0.7071 -0.0000
vn -0.0000 0.1961 -0.9806
vn 0.7071 0.7071 -0.0000
vn -0.0000 0.1961 0.9806
vn -0.0000 -1.0000 -0.0000
vn -0.0000 1.0000 -0.0000
vt 0.500718 0.010279
vt 0.468902 0.297632
vt 0.158461 0.296520
vt 0.128234 0.008770
vt 0.000117 0.093426
vt 0.158349 0.703226
vt 0.000117 0.906623
vt 0.126533 0.990580
vt 0.468790 0.704339
vt 0.499017 0.992089
vt 0.627135 0.907432
vt 0.627135 0.094236
vt 0.999883 0.008770
vt 0.999883 0.822095
vt 0.627368 0.822095
vt 0.627368 0.008770
s 1
f 1/1/1 2/2/1 4/3/1 3/4/1
f 3/5/2 4/3/2 8/6/2 7/7/2
f 7/8/3 8/6/3 6/9/3 5/10/3
f 5/11/4 6/9/4 2/2/4 1/12/4
f 3/13/5 7/14/5 5/15/5 1/16/5
f 8/6/6 4/3/6 2/2/6 6/9/6
