# Blender 4.2.3 LTS
# www.blender.org
mtllib blackstar.mtl
o blackstar
v -1.000000 -0.823873 0.823873
v -1.000000 1.591829 1.591829
v -1.000000 -1.415000 -1.415000
v -1.000000 1.251117 -1.251117
v 1.000000 -0.978961 0.978961
v 1.000000 0.908075 0.908075
v 1.371005 -1.371005 -1.000000
v 1.200112 1.200112 -1.000000
v -1.290242 -1.290242 -0.690920
v -1.294404 -1.294404 -0.352860
v -0.805742 -0.805742 0.000000
v -0.826269 -0.826269 0.352860
v -1.280153 -1.280153 0.690920
v -1.545954 -0.690920 1.545954
v -1.314777 -0.352860 1.314777
v -1.842749 0.000000 1.842749
v -0.789698 0.352860 0.789698
v -1.232912 0.690920 1.232912
v -1.380221 1.380221 0.690920
v -1.013578 1.013578 0.352860
v -2.167993 2.167993 0.000000
v -0.918546 0.918546 -0.352860
v -1.542161 1.542161 -0.690920
v -0.749816 0.690920 -0.749816
v -1.308843 0.352860 -1.308843
v -0.560113 0.000000 -0.560113
v -0.739452 -0.352860 -0.739452
v -1.509594 -0.690920 -1.509594
v 0.690920 -0.992483 -0.992483
v 0.352860 -1.893062 -1.893062
v 0.000000 -0.855066 -0.855066
v -0.352860 -1.092810 -1.092810
v -0.690920 -1.360956 -1.360956
v -0.690920 1.647430 -1.647430
v -0.352860 1.918729 -1.918729
v 0.000000 1.296285 -1.296285
v 0.352860 0.795775 -0.795775
v 0.690920 0.560466 -0.560466
v 1.359872 0.690920 -1.359872
v 1.717375 0.352860 -1.717375
v 1.248081 0.000000 -1.248081
v 0.464749 -0.352860 -0.464749
v 1.073460 -0.690920 -1.073460
v 1.159507 -1.159507 0.690920
v 1.533966 -1.533966 0.352860
v 1.513602 -1.513602 0.000000
v 1.393569 -1.393569 -0.352860
v 0.745346 -0.745346 -0.690920
v 1.232322 1.232322 -0.690920
v 1.320716 1.320716 -0.352860
v 1.781366 1.781366 0.000000
v 1.090861 1.090861 0.352860
v 1.086610 1.086610 0.690920
v 1.269800 0.690920 1.269800
v 0.810639 0.352860 0.810639
v 1.508703 0.000000 1.508703
v 1.385528 -0.352860 1.385528
v 0.389942 -0.690920 0.389942
v -0.690920 -1.043928 1.043928
v -0.352860 -0.988956 0.988956
v 0.000000 -1.736004 1.736004
v 0.352860 -1.322676 1.322676
v 0.690920 -0.402596 0.402596
v 0.690920 0.821196 0.821196
v 0.352860 1.050625 1.050625
v 0.000000 0.307652 0.307652
v -0.352860 1.310739 1.310739
v -0.690920 1.347999 1.347999
v 0.569087 0.421952 -0.364329
v 0.814316 0.822710 -0.146973
v 0.783602 0.807563 0.092406
v 1.032458 1.218099 0.345990
v 0.605186 0.626973 0.597077
v 0.564088 1.475148 -0.538783
v 0.401084 1.017682 -0.246022
v 0.483627 1.293257 0.079342
v 0.308799 0.803012 0.422761
v 0.404274 1.137780 0.758290
v 0.000000 1.937678 -0.944973
v 0.000000 0.967084 -0.576640
v 0.000000 1.934430 -0.270024
v 0.000000 1.246629 -0.048212
v 0.000000 0.628889 0.120734
v -0.585784 2.444982 -1.393937
v -0.273536 1.385568 -0.793951
v -1.048491 3.628043 -0.189617
v -0.202674 1.029000 0.371699
v -0.580371 2.094958 0.869871
v -1.086847 2.172808 -1.177396
v -1.082035 2.112830 -0.649500
v -1.147589 2.169214 -0.105067
v -0.038758 0.467856 0.422754
v -0.070278 0.472602 0.911106
v -0.233871 -0.600323 -0.978995
v -0.496416 -0.936597 -0.550316
v -1.585115 -2.524856 -0.111558
v -0.455448 -0.790925 0.309700
v -0.747624 -1.185937 0.696754
v -0.337578 -1.022875 -0.777528
v -0.608756 -1.818848 -0.414352
v -0.259724 -0.758255 -0.032284
v -0.611742 -1.801722 0.342419
v -0.384660 -1.105347 0.688136
v 0.000000 -0.433998 -0.527463
v 0.000000 -2.584650 -0.172006
v 0.000000 -1.265548 0.252149
v 0.000000 -2.089076 0.747319
v 0.000000 -1.291621 1.270388
v 0.454696 -2.039363 -1.373452
v 0.671289 -2.575571 -0.778832
v 1.279675 -4.323532 -0.177809
v 0.611539 -2.260240 0.382842
v 0.262038 -1.147067 0.881893
v 0.518881 -0.545228 -0.751291
v 0.603765 -0.537705 -0.482150
v 0.452863 -0.226861 -0.222043
v 0.629922 -0.440068 0.009637
v 0.927210 -0.836900 0.212390
v 0.123429 -1.038035 1.045613
v -0.152210 -0.699108 0.599667
v -0.470042 -0.577828 0.493036
v -0.833523 -0.991046 1.274180
v -1.212556 -0.222054 0.413133
v 0.981253 -0.624343 2.184101
v 0.515508 -0.017231 0.351189
v 0.021990 -0.481468 1.734828
v -0.466509 -0.887960 2.945553
v -0.920358 -0.567952 1.974824
v 1.041402 0.000000 1.482427
v 0.501038 0.000000 1.234034
v -0.097640 0.000000 3.219594
v -0.722439 0.000000 2.749843
v -1.324588 0.000000 2.204893
v 0.572547 0.341527 0.772027
v 0.298281 0.442516 1.071632
v 0.006509 0.365365 0.837515
v -0.283778 0.404745 0.953037
v -0.554523 0.569701 1.444673
v 0.889580 1.349265 2.249608
v 0.462468 0.022160 0.252980
v 0.012896 0.961568 1.657084
v -0.434617 1.182470 1.983498
v -0.856820 1.827361 2.945049
v 0.352710 -0.362730 -0.819313
v 1.109137 -0.974222 -0.535125
v 0.556126 -0.670469 -0.261756
v 0.584326 -0.726906 -0.020040
v 0.634407 -0.794619 0.190640
v 0.377329 -0.293661 -0.230548
v 1.155576 -0.552311 0.010181
v 1.660625 -0.716483 0.301750
v 1.435751 -0.604197 0.654897
v 1.840035 -0.649337 1.039297
v 2.438939 0.000000 -0.862772
v 1.372149 0.000000 -0.416947
v 1.336491 0.000000 0.076194
v 2.664020 0.000000 0.589709
v 2.414471 0.000000 1.083724
v 1.453366 0.377429 -1.269550
v 2.298038 0.733663 -0.766827
v 1.886711 0.636566 -0.287192
v 1.932930 0.670566 0.129257
v 0.322025 0.150982 0.483219
v 2.072477 1.178801 -0.957422
v 1.254127 0.643152 -0.505247
v 1.265697 0.659086 -0.031499
v 2.568862 1.535821 0.437221
v 2.098645 1.231559 0.877420
v -1.093625 -0.245579 -0.734131
v -0.627288 -1.532879 -2.583242
v -0.154139 -0.405048 -0.829394
v 0.295127 -0.162547 -0.412998
v 0.704710 -1.819983 -2.842534
v -0.539667 -0.430356 -0.889073
v -0.312123 -0.495331 -1.025858
v -0.085850 -0.489416 -0.970820
v 0.121021 -0.412151 -0.713295
v 0.302682 -0.576485 -1.179045
v -0.334636 0.000000 -1.182384
v -0.094455 0.000000 -1.092402
v 0.195829 0.000000 -0.886491
v 0.542001 0.000000 -1.775789
v 0.914029 0.000000 -1.762967
v -0.887124 0.537646 -1.936745
v -0.406510 0.741839 -2.600212
v 0.127177 0.560057 -2.099852
v 0.689810 0.733033 -2.673624
v 1.238989 0.523424 -2.122003
v -0.457352 0.837924 -1.064073
v -0.137912 0.729989 -0.967964
v 0.220474 1.249717 -1.812715
v 0.610882 0.423895 -0.661901
v 1.005986 1.231854 -2.000360
v -2.527628 -1.350420 1.082237
v -2.192291 -1.130774 0.561355
v -1.431698 -0.626998 0.012710
v -2.640349 -1.436016 -0.533903
v -1.036066 -0.370307 -1.049947
v -1.331486 -0.421226 0.964714
v -1.403335 -0.488346 0.568236
v -2.311340 -0.816940 0.180501
v -1.397814 -0.528203 -0.166745
v -1.415386 -0.550096 -0.467612
v -2.672995 0.000000 1.347577
v -1.625199 0.000000 0.816574
v -1.709748 0.000000 0.355983
v -0.502155 0.000000 0.003191
v -0.641019 0.000000 -0.274051
v -1.232820 0.473969 0.509092
v -2.250789 0.797101 0.195949
v -2.252306 0.782097 -0.162448
v -1.003086 0.342215 -0.557472
v -1.941715 0.617616 -0.957185
v -1.813598 1.164021 0.905081
v -0.976525 0.670375 0.538525
v -0.828988 0.618324 0.172857
v -1.853876 1.337781 -0.166959
v 0.368451 -0.106336 -0.472271
vn -0.7262 -0.6820 0.0873
vn -0.1263 0.9904 0.0559
vn -0.2114 0.7745 0.5963
vn -0.7685 0.6391 -0.0299
vn -0.8470 -0.5312 -0.0180
vn 0.5005 0.7137 -0.4900
vn -0.5637 0.8254 -0.0305
vn 0.7466 0.6398 -0.1823
vn -0.9193 0.3427 0.1934
vn 0.9544 0.2695 0.1286
vn -0.9108 -0.1184 -0.3956
vn -0.7792 0.6267 -0.0064
vn -0.7622 0.6388 -0.1047
vn -0.7018 0.7119 -0.0261
vn -0.6272 0.7724 -0.1002
vn -0.5360 0.7574 0.3729
vn 0.9280 0.1369 -0.3465
vn 0.9489 0.2915 -0.1205
vn 0.6732 0.6461 -0.3597
vn 0.0759 0.9895 0.1227
vn 0.2137 0.8451 0.4901
vn 0.7735 0.1589 -0.6135
vn -0.4311 0.4191 0.7991
vn 0.6969 0.2877 -0.6569
vn -0.2681 0.4488 0.8525
vn -0.7261 0.5319 0.4358
vn 0.8553 0.4091 -0.3179
vn -0.2768 0.3787 0.8832
vn 0.6295 0.3490 -0.6942
vn 0.6598 0.3306 0.6748
vn 0.9050 0.2369 0.3533
vn -0.6201 0.3107 -0.7204
vn 0.4054 0.7033 0.5840
vn -0.4347 0.2704 -0.8591
vn -0.4027 0.0484 0.9140
vn -0.9521 -0.2970 -0.0726
vn -0.7460 -0.0170 -0.6658
vn -0.5618 0.4005 0.7239
vn -0.5089 0.0767 -0.8574
vn 0.1193 0.3777 0.9182
vn 0.5434 0.8319 -0.1121
vn -0.2935 -0.4923 0.8194
vn 0.2081 -0.9180 0.3376
vn -0.4436 -0.8305 -0.3370
vn 0.0112 -0.8248 -0.5653
vn 0.8941 -0.3025 0.3302
vn 0.4783 -0.7194 0.5037
vn 0.4301 -0.8711 -0.2372
vn -0.8564 0.1031 -0.5059
vn -0.6617 0.0922 0.7441
vn 0.0677 -0.6817 -0.7285
vn -0.8761 0.1028 0.4710
vn -0.8216 -0.0114 -0.5700
vn 0.5879 -0.8089 0.0098
vn 0.5155 -0.8293 0.2158
vn -0.9762 -0.2168 0.0025
vn 0.4722 -0.7059 0.5279
vn 0.4093 -0.2516 -0.8770
vn -0.6646 -0.1505 0.7319
vn 0.2666 -0.4479 -0.8534
vn -0.7389 -0.2513 0.6252
vn -0.8638 -0.4395 0.2464
vn -0.8738 -0.2232 -0.4320
vn -0.7846 -0.5782 0.2238
vn -0.8539 -0.5163 0.0659
vn 0.6223 -0.2777 0.7318
vn 0.9380 -0.2840 0.1989
vn 0.9549 0.0756 -0.2870
vn 0.9547 0.1498 -0.2572
vn 0.9575 0.1483 0.2473
vn 0.9501 -0.1802 0.2546
vn -0.4501 -0.6491 0.6132
vn -0.7251 -0.6670 0.1716
vn -0.7600 -0.6305 0.1580
vn -0.7720 -0.6356 0.0068
vn -0.7343 -0.6658 -0.1323
vn 0.5759 0.5898 0.5661
vn 0.2633 -0.9585 -0.1092
vn -0.5305 -0.7900 0.3073
vn -0.3807 0.9207 0.0857
vn -0.3069 -0.7900 0.5309
vn -0.0839 0.1310 -0.9878
vn -0.0626 0.6698 0.7399
vn -0.0126 0.7378 0.6749
vn 0.3773 0.7548 0.5366
vn -0.5847 -0.7909 -0.1805
vn 0.5003 -0.8555 -0.1331
vn -0.6791 0.5730 0.4588
vn 0.5020 -0.8604 0.0879
vn 0.5502 -0.8283 -0.1055
vn -0.8904 -0.4299 0.1493
vn 0.5618 0.3409 0.7538
vn -0.9051 -0.0546 0.4216
vn 0.7815 -0.6001 0.1707
vn 0.6026 -0.4531 0.6569
vn -0.7965 -0.3724 0.4763
vn -0.0582 0.8754 0.4798
vn 0.1354 0.7866 0.6024
vn 0.4319 0.8643 0.2577
vn -0.0265 0.9837 0.1778
vn 0.1449 0.8998 0.4114
vn 0.0058 -0.8223 0.5691
vn -0.4299 0.8068 -0.4053
vn 0.5139 -0.5021 0.6956
vn 0.0770 -0.7975 0.5983
vn 0.5147 -0.6207 0.5914
vn 0.3974 0.8809 -0.2570
vn -0.9088 -0.0358 0.4157
vn 0.5152 0.7579 0.4001
vn 0.7506 0.6453 -0.1422
vn 0.6287 0.7760 -0.0514
vn 0.5336 0.8442 -0.0501
vn -0.1687 -0.8853 0.4333
vn 0.3825 -0.4051 0.8304
vn 0.2340 0.9637 -0.1289
vn 0.5638 -0.8174 -0.1182
vn 0.6142 0.5128 0.5998
vn 0.3658 -0.0512 -0.9293
vn 0.6495 0.7224 0.2372
vn 0.6449 0.7629 0.0459
vn 0.6396 0.7670 -0.0507
vn -0.3585 -0.9231 0.1390
vn 0.5503 0.7531 -0.3605
vn 0.0791 -0.9662 0.2454
vn -0.0167 -0.9960 0.0880
vn 0.4605 -0.7390 -0.4918
vn 0.1423 -0.9768 -0.1601
vn 0.2289 -0.9388 -0.2575
vn 0.8205 -0.2050 -0.5337
vn 0.5587 -0.5240 -0.6429
vn 0.5641 -0.8136 -0.1412
vn 0.6243 -0.3784 -0.6834
vn 0.9723 0.1651 0.1657
vn 0.7218 -0.6381 0.2680
vn 0.5199 -0.4028 -0.7533
vn 0.0274 0.8244 0.5653
vn 0.8516 0.1061 -0.5133
vn 0.8787 0.4729 0.0646
vn -0.0165 0.9968 0.0779
vn 0.1910 0.5238 -0.8301
vn 0.4729 -0.7520 0.4591
vn 0.0495 0.7810 -0.6226
vn 0.6348 0.2535 0.7299
vn 0.8957 -0.2523 -0.3662
vn 0.5068 0.6785 -0.5317
vn -0.2476 0.9429 0.2228
vn 0.6148 -0.7881 -0.0303
vn 0.1938 0.8435 -0.5009
vn 0.5170 -0.8543 -0.0533
vn 0.3757 -0.7933 -0.4791
vn 0.7905 0.5598 -0.2484
vn 0.5104 0.4628 -0.7248
vn -0.7398 -0.6705 0.0558
vn 0.9460 -0.1669 -0.2779
vn -0.0822 0.5609 -0.8238
vn -0.9158 -0.1896 -0.3540
vn -0.2133 -0.7360 0.6425
vn 0.0628 0.8350 -0.5466
vn 0.3010 0.7513 -0.5873
vn -0.2808 -0.7320 0.6207
vn -0.3738 -0.8175 0.4381
vn -0.8128 0.3289 -0.4808
vn -0.1366 -0.3041 -0.9428
vn 0.4429 -0.2088 -0.8719
vn -0.7357 -0.1445 -0.6617
vn -0.6484 -0.4008 -0.6472
vn -0.2932 -0.9121 -0.2866
vn -0.1129 -0.8827 -0.4561
vn 0.1885 -0.8754 -0.4452
vn -0.5799 -0.6848 -0.4412
vn 0.2284 -0.7301 -0.6440
vn -0.4817 0.8745 -0.0572
vn -0.1659 0.9839 -0.0670
vn -0.4212 0.8772 -0.2304
vn 0.6136 0.7784 -0.1327
vn -0.6506 0.7236 -0.2306
vn -0.2520 -0.6539 -0.7134
vn -0.0563 -0.6159 -0.7858
vn -0.3255 -0.4137 -0.8502
vn 0.7299 0.6545 0.1971
vn -0.7727 0.6021 -0.2010
vn -0.9769 -0.0997 0.1888
vn 0.0900 0.9859 -0.1414
vn -0.5181 0.7308 -0.4445
vn -0.3932 -0.9176 -0.0591
vn -0.1654 0.6862 0.7084
vn 0.3492 -0.7173 0.6029
vn -0.0357 -0.7702 -0.6368
vn -0.0014 -0.8639 -0.5036
vn -0.0832 -0.4919 0.8667
vn -0.0288 -0.5968 -0.8019
vn -0.6440 0.7566 0.1134
vn -0.6217 0.7818 -0.0486
vn -0.9659 -0.2353 0.1080
vn -0.9076 0.4159 0.0576
vn -0.5802 0.8092 -0.0930
vn -0.2323 -0.9228 0.3074
vn -0.5737 -0.5972 -0.5605
vn -0.6359 -0.0647 0.7691
vn -0.3274 0.5599 -0.7611
vn -0.5568 0.8220 0.1195
vn -0.0903 0.9507 0.2966
vn -0.6612 0.7081 0.2477
vn -0.8324 -0.5455 0.0975
vn -0.3033 -0.7912 -0.5311
vn -0.4867 0.1910 0.8524
vn -0.5878 -0.7750 0.2322
vn -0.6050 0.7953 -0.0385
vn 0.1234 0.9901 -0.0668
vn -0.8125 0.5824 -0.0265
vn 0.2692 0.6967 -0.6649
vn -0.7045 0.3395 0.6232
vn -0.5809 -0.1590 -0.7983
vn -0.7941 -0.5166 0.3201
vn -0.9371 -0.3468 -0.0384
vn -0.5452 -0.6187 -0.5657
vt 0.583333 0.208333
vt 0.625000 0.208333
vt 0.625000 0.250000
vt 0.583333 0.250000
vt 0.583333 0.458333
vt 0.625000 0.458333
vt 0.625000 0.500000
vt 0.583333 0.500000
vt 0.583333 0.708333
vt 0.625000 0.708333
vt 0.625000 0.750000
vt 0.583333 0.750000
vt 0.583333 0.958333
vt 0.625000 0.958333
vt 0.625000 1.000000
vt 0.583333 1.000000
vt 0.333333 0.708333
vt 0.375000 0.708333
vt 0.375000 0.750000
vt 0.333333 0.750000
vt 0.833333 0.708333
vt 0.875000 0.708333
vt 0.875000 0.750000
vt 0.833333 0.750000
vt 0.666667 0.708333
vt 0.666667 0.750000
vt 0.708333 0.708333
vt 0.708333 0.750000
vt 0.750000 0.708333
vt 0.750000 0.750000
vt 0.791667 0.708333
vt 0.791667 0.750000
vt 0.666667 0.500000
vt 0.666667 0.541667
vt 0.625000 0.541667
vt 0.666667 0.583333
vt 0.625000 0.583333
vt 0.666667 0.625000
vt 0.625000 0.625000
vt 0.666667 0.666667
vt 0.625000 0.666667
vt 0.708333 0.500000
vt 0.708333 0.541667
vt 0.708333 0.583333
vt 0.708333 0.625000
vt 0.708333 0.666667
vt 0.750000 0.500000
vt 0.750000 0.541667
vt 0.750000 0.583333
vt 0.750000 0.625000
vt 0.750000 0.666667
vt 0.791667 0.500000
vt 0.791667 0.541667
vt 0.791667 0.583333
vt 0.791667 0.625000
vt 0.791667 0.666667
vt 0.833333 0.500000
vt 0.833333 0.541667
vt 0.833333 0.583333
vt 0.833333 0.625000
vt 0.833333 0.666667
vt 0.875000 0.500000
vt 0.875000 0.541667
vt 0.875000 0.583333
vt 0.875000 0.625000
vt 0.875000 0.666667
vt 0.125000 0.708333
vt 0.166667 0.708333
vt 0.166667 0.750000
vt 0.125000 0.750000
vt 0.208333 0.708333
vt 0.208333 0.750000
vt 0.250000 0.708333
vt 0.250000 0.750000
vt 0.291667 0.708333
vt 0.291667 0.750000
vt 0.125000 0.500000
vt 0.166667 0.500000
vt 0.166667 0.541667
vt 0.125000 0.541667
vt 0.166667 0.583333
vt 0.125000 0.583333
vt 0.166667 0.625000
vt 0.125000 0.625000
vt 0.166667 0.666667
vt 0.125000 0.666667
vt 0.208333 0.500000
vt 0.208333 0.541667
vt 0.208333 0.583333
vt 0.208333 0.625000
vt 0.208333 0.666667
vt 0.250000 0.500000
vt 0.250000 0.541667
vt 0.250000 0.583333
vt 0.250000 0.625000
vt 0.250000 0.666667
vt 0.291667 0.500000
vt 0.291667 0.541667
vt 0.291667 0.583333
vt 0.291667 0.625000
vt 0.291667 0.666667
vt 0.333333 0.500000
vt 0.333333 0.541667
vt 0.333333 0.583333
vt 0.333333 0.625000
vt 0.333333 0.666667
vt 0.375000 0.500000
vt 0.375000 0.541667
vt 0.375000 0.583333
vt 0.375000 0.625000
vt 0.375000 0.666667
vt 0.375000 0.958333
vt 0.416667 0.958333
vt 0.416667 1.000000
vt 0.375000 1.000000
vt 0.458333 0.958333
vt 0.458333 1.000000
vt 0.500000 0.958333
vt 0.500000 1.000000
vt 0.541667 0.958333
vt 0.541667 1.000000
vt 0.416667 0.750000
vt 0.416667 0.791667
vt 0.375000 0.791667
vt 0.416667 0.833333
vt 0.375000 0.833333
vt 0.416667 0.875000
vt 0.375000 0.875000
vt 0.416667 0.916667
vt 0.375000 0.916667
vt 0.458333 0.750000
vt 0.458333 0.791667
vt 0.458333 0.833333
vt 0.458333 0.875000
vt 0.458333 0.916667
vt 0.500000 0.750000
vt 0.500000 0.791667
vt 0.500000 0.833333
vt 0.500000 0.875000
vt 0.500000 0.916667
vt 0.541667 0.750000
vt 0.541667 0.791667
vt 0.541667 0.833333
vt 0.541667 0.875000
vt 0.541667 0.916667
vt 0.583333 0.791667
vt 0.583333 0.833333
vt 0.583333 0.875000
vt 0.583333 0.916667
vt 0.625000 0.791667
vt 0.625000 0.833333
vt 0.625000 0.875000
vt 0.625000 0.916667
vt 0.416667 0.708333
vt 0.458333 0.708333
vt 0.500000 0.708333
vt 0.541667 0.708333
vt 0.416667 0.500000
vt 0.416667 0.541667
vt 0.416667 0.583333
vt 0.416667 0.625000
vt 0.416667 0.666667
vt 0.458333 0.500000
vt 0.458333 0.541667
vt 0.458333 0.583333
vt 0.458333 0.625000
vt 0.458333 0.666667
vt 0.500000 0.500000
vt 0.500000 0.541667
vt 0.500000 0.583333
vt 0.500000 0.625000
vt 0.500000 0.666667
vt 0.541667 0.500000
vt 0.541667 0.541667
vt 0.541667 0.583333
vt 0.541667 0.625000
vt 0.541667 0.666667
vt 0.583333 0.541667
vt 0.583333 0.583333
vt 0.583333 0.625000
vt 0.583333 0.666667
vt 0.375000 0.458333
vt 0.416667 0.458333
vt 0.458333 0.458333
vt 0.500000 0.458333
vt 0.541667 0.458333
vt 0.375000 0.250000
vt 0.416667 0.250000
vt 0.416667 0.291667
vt 0.375000 0.291667
vt 0.416667 0.333333
vt 0.375000 0.333333
vt 0.416667 0.375000
vt 0.375000 0.375000
vt 0.416667 0.416667
vt 0.375000 0.416667
vt 0.458333 0.250000
vt 0.458333 0.291667
vt 0.458333 0.333333
vt 0.458333 0.375000
vt 0.458333 0.416667
vt 0.500000 0.250000
vt 0.500000 0.291667
vt 0.500000 0.333333
vt 0.500000 0.375000
vt 0.500000 0.416667
vt 0.541667 0.250000
vt 0.541667 0.291667
vt 0.541667 0.333333
vt 0.541667 0.375000
vt 0.541667 0.416667
vt 0.583333 0.291667
vt 0.583333 0.333333
vt 0.583333 0.375000
vt 0.583333 0.416667
vt 0.625000 0.291667
vt 0.625000 0.333333
vt 0.625000 0.375000
vt 0.625000 0.416667
vt 0.375000 0.208333
vt 0.416667 0.208333
vt 0.458333 0.208333
vt 0.500000 0.208333
vt 0.541667 0.208333
vt 0.375000 0.000000
vt 0.416667 0.000000
vt 0.416667 0.041667
vt 0.375000 0.041667
vt 0.416667 0.083333
vt 0.375000 0.083333
vt 0.416667 0.125000
vt 0.375000 0.125000
vt 0.416667 0.166667
vt 0.375000 0.166667
vt 0.458333 0.000000
vt 0.458333 0.041667
vt 0.458333 0.083333
vt 0.458333 0.125000
vt 0.458333 0.166667
vt 0.500000 0.000000
vt 0.500000 0.041667
vt 0.500000 0.083333
vt 0.500000 0.125000
vt 0.500000 0.166667
vt 0.541667 0.000000
vt 0.541667 0.041667
vt 0.541667 0.083333
vt 0.541667 0.125000
vt 0.541667 0.166667
vt 0.583333 0.000000
vt 0.583333 0.041667
vt 0.583333 0.083333
vt 0.583333 0.125000
vt 0.583333 0.166667
vt 0.625000 0.000000
vt 0.625000 0.041667
vt 0.625000 0.083333
vt 0.625000 0.125000
vt 0.625000 0.166667
s 0
usemtl Material.001
f 218/1/1 23/2/1 4/3/1 24/4/1
f 193/5/2 38/6/2 8/7/2 39/8/2
f 168/9/3 53/10/3 6/11/3 54/12/3
f 143/13/4 68/14/4 2/15/4 18/16/4
f 118/17/5 44/18/5 5/19/5 63/20/5
f 93/21/6 19/22/6 2/23/6 68/24/6
f 53/10/7 73/25/7 64/26/7 6/11/7
f 73/25/8 78/27/8 65/28/8 64/26/8
f 78/27/9 83/29/9 66/30/9 65/28/9
f 83/29/10 88/31/10 67/32/10 66/30/10
f 88/31/11 93/21/11 68/24/11 67/32/11
f 8/7/12 38/33/12 69/34/12 49/35/12
f 49/35/13 69/34/13 70/36/13 50/37/13
f 50/37/14 70/36/14 71/38/14 51/39/14
f 51/39/15 71/38/15 72/40/15 52/41/15
f 52/41/16 72/40/16 73/25/16 53/10/16
f 38/33/17 37/42/17 74/43/17 69/34/17
f 69/34/18 74/43/18 75/44/18 70/36/18
f 70/36/19 75/44/19 76/45/19 71/38/19
f 71/38/20 76/45/20 77/46/20 72/40/20
f 72/40/21 77/46/21 78/27/21 73/25/21
f 37/42/22 36/47/22 79/48/22 74/43/22
f 74/43/23 79/48/23 80/49/23 75/44/23
f 75/44/24 80/49/24 81/50/24 76/45/24
f 76/45/25 81/50/25 82/51/25 77/46/25
f 77/46/26 82/51/26 83/29/26 78/27/26
f 36/47/27 35/52/27 84/53/27 79/48/27
f 79/48/28 84/53/28 85/54/28 80/49/28
f 80/49/29 85/54/29 86/55/29 81/50/29
f 81/50/30 86/55/30 87/56/30 82/51/30
f 82/51/31 87/56/31 88/31/31 83/29/31
f 35/52/32 34/57/32 89/58/32 84/53/32
f 84/53/33 89/58/33 90/59/33 85/54/33
f 85/54/34 90/59/34 91/60/34 86/55/34
f 86/55/35 91/60/35 92/61/35 87/56/35
f 87/56/36 92/61/36 93/21/36 88/31/36
f 34/57/37 4/62/37 23/63/37 89/58/37
f 89/58/38 23/63/38 22/64/38 90/59/38
f 90/59/39 22/64/39 21/65/39 91/60/39
f 91/60/40 21/65/40 20/66/40 92/61/40
f 92/61/41 20/66/41 19/22/41 93/21/41
f 13/67/42 98/68/42 59/69/42 1/70/42
f 98/68/43 103/71/43 60/72/43 59/69/43
f 103/71/44 108/73/44 61/74/44 60/72/44
f 108/73/45 113/75/45 62/76/45 61/74/45
f 113/75/46 118/17/46 63/20/46 62/76/46
f 3/77/47 33/78/47 94/79/47 9/80/47
f 9/80/48 94/79/48 95/81/48 10/82/48
f 10/82/49 95/81/49 96/83/49 11/84/49
f 11/84/50 96/83/50 97/85/50 12/86/50
f 12/86/51 97/85/51 98/68/51 13/67/51
f 33/78/52 32/87/52 99/88/52 94/79/52
f 94/79/53 99/88/53 100/89/53 95/81/53
f 95/81/54 100/89/54 101/90/54 96/83/54
f 96/83/55 101/90/55 102/91/55 97/85/55
f 97/85/56 102/91/56 103/71/56 98/68/56
f 32/87/57 31/92/57 104/93/57 99/88/57
f 99/88/58 104/93/58 105/94/58 100/89/58
f 100/89/59 105/94/59 106/95/59 101/90/59
f 101/90/60 106/95/60 107/96/60 102/91/60
f 102/91/61 107/96/61 108/73/61 103/71/61
f 31/92/62 30/97/62 109/98/62 104/93/62
f 104/93/63 109/98/63 110/99/63 105/94/63
f 105/94/64 110/99/64 111/100/64 106/95/64
f 106/95/65 111/100/65 112/101/65 107/96/65
f 107/96/66 112/101/66 113/75/66 108/73/66
f 30/97/67 29/102/67 114/103/67 109/98/67
f 109/98/68 114/103/68 115/104/68 110/99/68
f 110/99/69 115/104/69 116/105/69 111/100/69
f 111/100/70 116/105/70 117/106/70 112/101/70
f 112/101/71 117/106/71 118/17/71 113/75/71
f 29/102/72 7/107/72 48/108/72 114/103/72
f 114/103/73 48/108/73 47/109/73 115/104/73
f 115/104/74 47/109/74 46/110/74 116/105/74
f 116/105/75 46/110/75 45/111/75 117/106/75
f 117/106/76 45/111/76 44/18/76 118/17/76
f 59/112/77 123/113/77 14/114/77 1/115/77
f 123/113/78 128/116/78 15/117/78 14/114/78
f 128/116/79 133/118/79 16/119/79 15/117/79
f 133/118/80 138/120/80 17/121/80 16/119/80
f 138/120/81 143/13/81 18/16/81 17/121/81
f 5/19/82 58/122/82 119/123/82 63/124/82
f 63/124/83 119/123/83 120/125/83 62/126/83
f 62/126/84 120/125/84 121/127/84 61/128/84
f 61/128/85 121/127/85 122/129/85 60/130/85
f 60/130/86 122/129/86 123/113/86 59/112/86
f 58/122/87 57/131/87 124/132/87 119/123/87
f 119/123/88 124/132/88 125/133/88 120/125/88
f 120/125/89 125/133/89 126/134/89 121/127/89
f 121/127/90 126/134/90 127/135/90 122/129/90
f 122/129/91 127/135/91 128/116/91 123/113/91
f 57/131/92 56/136/92 129/137/92 124/132/92
f 124/132/93 129/137/93 130/138/93 125/133/93
f 125/133/94 130/138/94 131/139/94 126/134/94
f 126/134/95 131/139/95 132/140/95 127/135/95
f 127/135/96 132/140/96 133/118/96 128/116/96
f 56/136/97 55/141/97 134/142/97 129/137/97
f 129/137/98 134/142/98 135/143/98 130/138/98
f 130/138/99 135/143/99 136/144/99 131/139/99
f 131/139/100 136/144/100 137/145/100 132/140/100
f 132/140/101 137/145/101 138/120/101 133/118/101
f 55/141/102 54/12/102 139/146/102 134/142/102
f 134/142/103 139/146/103 140/147/103 135/143/103
f 135/143/104 140/147/104 141/148/104 136/144/104
f 136/144/105 141/148/105 142/149/105 137/145/105
f 137/145/106 142/149/106 143/13/106 138/120/106
f 54/12/107 6/11/107 64/150/107 139/146/107
f 139/146/108 64/150/108 65/151/108 140/147/108
f 140/147/109 65/151/109 66/152/109 141/148/109
f 141/148/110 66/152/110 67/153/110 142/149/110
f 142/149/111 67/153/111 68/14/111 143/13/111
f 44/18/112 148/154/112 58/122/112 5/19/112
f 148/154/113 153/155/113 57/131/113 58/122/113
f 153/155/114 158/156/114 56/136/114 57/131/114
f 158/156/115 163/157/115 55/141/115 56/136/115
f 163/157/116 168/9/116 54/12/116 55/141/116
f 7/107/117 43/158/117 144/159/117 48/108/117
f 48/108/118 144/159/118 145/160/118 47/109/118
f 47/109/119 145/160/119 146/161/119 46/110/119
f 46/110/120 146/161/120 147/162/120 45/111/120
f 45/111/121 147/162/121 148/154/121 44/18/121
f 43/158/122 42/163/122 149/164/122 144/159/122
f 144/159/123 149/164/123 150/165/123 145/160/123
f 145/160/124 150/165/124 151/166/124 146/161/124
f 146/161/125 151/166/125 152/167/125 147/162/125
f 147/162/126 152/167/126 153/155/126 148/154/126
f 42/163/127 41/168/127 154/169/127 149/164/127
f 149/164/128 154/169/128 155/170/128 150/165/128
f 150/165/129 155/170/129 156/171/129 151/166/129
f 151/166/130 156/171/130 157/172/130 152/167/130
f 152/167/131 157/172/131 158/156/131 153/155/131
f 41/168/132 40/173/132 159/174/132 154/169/132
f 154/169/133 159/174/133 160/175/133 155/170/133
f 155/170/134 160/175/134 161/176/134 156/171/134
f 156/171/135 161/176/135 162/177/135 157/172/135
f 157/172/136 162/177/136 163/157/136 158/156/136
f 40/173/137 39/8/137 164/178/137 159/174/137
f 159/174/138 164/178/138 165/179/138 160/175/138
f 160/175/139 165/179/139 166/180/139 161/176/139
f 161/176/140 166/180/140 167/181/140 162/177/140
f 162/177/141 167/181/141 168/9/141 163/157/141
f 39/8/142 8/7/142 49/35/142 164/178/142
f 164/178/143 49/35/143 50/37/143 165/179/143
f 165/179/144 50/37/144 51/39/144 166/180/144
f 166/180/145 51/39/145 52/41/145 167/181/145
f 167/181/146 52/41/146 53/10/146 168/9/146
f 29/182/147 173/183/147 43/158/147 7/107/147
f 173/183/148 178/184/148 42/163/148 43/158/148
f 178/184/149 183/185/149 41/168/149 42/163/149
f 183/185/150 188/186/150 40/173/150 41/168/150
f 188/186/151 193/5/151 39/8/151 40/173/151
f 3/187/152 28/188/152 169/189/152 33/190/152
f 33/190/153 169/189/153 170/191/153 32/192/153
f 32/192/154 170/191/154 171/193/154 31/194/154
f 31/194/155 171/193/155 172/195/155 30/196/155
f 30/196/156 172/195/156 173/183/156 29/182/156
f 28/188/157 27/197/157 174/198/157 169/189/157
f 169/189/158 174/198/158 175/199/158 170/191/158
f 170/191/159 175/199/159 176/200/159 171/193/159
f 171/193/160 176/200/160 177/201/160 172/195/160
f 172/195/161 177/201/161 178/184/161 173/183/161
f 27/197/162 26/202/162 179/203/162 174/198/162
f 174/198/163 179/203/163 180/204/163 175/199/163
f 175/199/164 180/204/164 181/205/164 176/200/164
f 176/200/165 181/205/165 182/206/165 177/201/165
f 177/201/166 182/206/166 183/185/166 178/184/166
f 26/202/167 25/207/167 184/208/167 179/203/167
f 179/203/168 184/208/168 185/209/168 180/204/168
f 180/204/169 185/209/169 186/210/169 181/205/169
f 181/205/170 186/210/170 187/211/170 182/206/170
f 182/206/171 187/211/171 188/186/171 183/185/171
f 25/207/172 24/4/172 189/212/172 184/208/172
f 184/208/173 189/212/173 190/213/173 185/209/173
f 185/209/174 190/213/174 191/214/174 186/210/174
f 186/210/175 191/214/175 192/215/175 187/211/175
f 187/211/176 192/215/176 193/5/176 188/186/176
f 24/4/177 4/3/177 34/216/177 189/212/177
f 189/212/178 34/216/178 35/217/178 190/213/178
f 190/213/179 35/217/179 36/218/179 191/214/179
f 191/214/180 36/218/180 37/219/180 192/215/180
f 192/215/181 37/219/181 38/6/181 193/5/181
f 9/220/182 198/221/182 28/188/182 3/187/182
f 198/221/183 203/222/183 27/197/183 28/188/183
f 203/222/184 208/223/184 26/202/184 27/197/184
f 208/223/185 213/224/185 25/207/185 26/202/185
f 213/224/186 218/1/186 24/4/186 25/207/186
f 1/225/187 14/226/187 194/227/187 13/228/187
f 13/228/188 194/227/188 195/229/188 12/230/188
f 12/230/189 195/229/189 196/231/189 11/232/189
f 11/232/190 196/231/190 197/233/190 10/234/190
f 10/234/191 197/233/191 198/221/191 9/220/191
f 14/226/192 15/235/192 199/236/192 194/227/192
f 194/227/193 199/236/193 200/237/193 195/229/193
f 195/229/194 200/237/194 201/238/194 196/231/194
f 196/231/195 201/238/195 202/239/195 197/233/195
f 197/233/196 202/239/196 203/222/196 198/221/196
f 15/235/197 16/240/197 204/241/197 199/236/197
f 199/236/198 204/241/198 205/242/198 200/237/198
f 200/237/199 205/242/199 206/243/199 201/238/199
f 201/238/200 206/243/200 207/244/200 202/239/200
f 202/239/201 207/244/201 208/223/201 203/222/201
f 16/240/202 17/245/202 209/246/202 204/241/202
f 204/241/203 209/246/203 210/247/203 205/242/203
f 205/242/204 210/247/204 211/248/204 206/243/204
f 206/243/205 211/248/205 212/249/205 207/244/205
f 207/244/206 212/249/206 213/224/206 208/223/206
f 17/245/207 18/250/207 214/251/207 209/246/207
f 209/246/208 214/251/208 215/252/208 210/247/208
f 210/247/209 215/252/209 216/253/209 211/248/209
f 211/248/210 216/253/210 217/254/210 212/249/210
f 212/249/211 217/254/211 218/1/211 213/224/211
f 18/250/212 2/255/212 19/256/212 214/251/212
f 214/251/213 19/256/213 20/257/213 215/252/213
f 215/252/214 20/257/214 21/258/214 216/253/214
f 216/253/215 21/258/215 22/259/215 217/254/215
f 217/254/216 22/259/216 23/2/216 218/1/216
