# Blender 5.0.0
# www.blender.org
o Hand.R
v -0.430000 0.220000 0.080000
v -0.430000 0.390000 0.080000
v -0.430000 0.220000 -0.090000
v -0.430000 0.390000 -0.090000
v -0.340000 0.330000 0.080000
v -0.340000 0.390000 0.080000
v -0.340000 0.290000 -0.090000
v -0.340000 0.390000 -0.090000
v -0.410000 0.020000 0.060000
v -0.410000 0.290000 0.060000
v -0.480000 0.150000 0.070000
v -0.450000 0.150000 0.090000
v -0.430000 0.150000 0.070000
v -0.430000 0.150000 0.040000
v -0.480000 0.150000 0.040000
v -0.450000 0.150000 0.020000
v -0.440000 0.070000 0.020000
v -0.440000 0.240000 0.020000
v -0.410000 0.260000 0.040000
v -0.410000 0.080000 0.040000
v -0.410000 0.260000 0.070000
v -0.410000 0.080000 0.070000
v -0.440000 0.240000 0.090000
v -0.440000 0.070000 0.090000
v -0.460000 0.240000 0.070000
v -0.460000 0.070000 0.070000
v -0.460000 0.240000 0.040000
v -0.460000 0.070000 0.040000
v -0.430000 0.120000 0.040000
v -0.430000 0.120000 0.070000
v -0.450000 0.110000 0.090000
v -0.470000 0.110000 0.070000
v -0.470000 0.110000 0.040000
v -0.450000 0.110000 0.020000
v -0.450000 0.200000 0.020000
v -0.470000 0.200000 0.040000
v -0.470000 0.200000 0.070000
v -0.450000 0.200000 0.090000
v -0.430000 0.190000 0.070000
v -0.430000 0.190000 0.040000
v -0.410000 0.020000 -0.070000
v -0.410000 0.290000 -0.070000
v -0.480000 0.150000 -0.050000
v -0.450000 0.150000 -0.040000
v -0.430000 0.150000 -0.050000
v -0.430000 0.150000 -0.080000
v -0.480000 0.150000 -0.080000
v -0.450000 0.150000 -0.100000
v -0.440000 0.070000 -0.100000
v -0.440000 0.240000 -0.100000
v -0.410000 0.240000 -0.080000
v -0.410000 0.080000 -0.080000
v -0.410000 0.240000 -0.050000
v -0.410000 0.080000 -0.050000
v -0.440000 0.240000 -0.040000
v -0.440000 0.070000 -0.040000
v -0.460000 0.240000 -0.050000
v -0.460000 0.070000 -0.050000
v -0.460000 0.240000 -0.080000
v -0.460000 0.070000 -0.080000
v -0.430000 0.120000 -0.080000
v -0.430000 0.120000 -0.050000
v -0.450000 0.110000 -0.040000
v -0.470000 0.110000 -0.050000
v -0.470000 0.110000 -0.080000
v -0.450000 0.110000 -0.100000
v -0.450000 0.200000 -0.100000
v -0.470000 0.200000 -0.080000
v -0.470000 0.200000 -0.050000
v -0.450000 0.200000 -0.040000
v -0.430000 0.190000 -0.050000
v -0.430000 0.190000 -0.080000
v -0.360000 0.130000 0.140000
v -0.360000 0.390000 0.080000
v -0.340000 0.280000 0.180000
v -0.330000 0.280000 0.150000
v -0.340000 0.270000 0.120000
v -0.370000 0.270000 0.120000
v -0.370000 0.280000 0.180000
v -0.380000 0.280000 0.150000
v -0.380000 0.190000 0.160000
v -0.380000 0.350000 0.110000
v -0.370000 0.340000 0.070000
v -0.370000 0.190000 0.130000
v -0.340000 0.340000 0.070000
v -0.340000 0.190000 0.130000
v -0.330000 0.350000 0.110000
v -0.330000 0.190000 0.160000
v -0.340000 0.360000 0.130000
v -0.340000 0.190000 0.180000
v -0.370000 0.360000 0.130000
v -0.370000 0.190000 0.180000
v -0.370000 0.230000 0.130000
v -0.340000 0.230000 0.130000
v -0.330000 0.240000 0.160000
v -0.340000 0.240000 0.190000
v -0.370000 0.240000 0.190000
v -0.380000 0.240000 0.160000
v -0.380000 0.320000 0.130000
v -0.370000 0.320000 0.160000
v -0.340000 0.320000 0.160000
v -0.330000 0.320000 0.130000
v -0.340000 0.310000 0.110000
v -0.370000 0.310000 0.110000
v -0.340000 0.460000 -0.030000
v -0.340000 0.460000 0.020000
vn -1.0000 -0.0000 -0.0000
vn -0.0000 -0.0000 -1.0000
vn 1.0000 -0.0000 -0.0000
vn -0.0000 -0.0000 1.0000
vn 0.7047 -0.7047 0.0829
vn -0.0000 0.6508 0.7593
vn 0.1818 0.5455 -0.8182
vn 0.3885 0.2914 0.8742
vn -0.5392 0.6470 0.5392
vn -0.6228 -0.0778 0.7785
vn -0.7071 0.7071 -0.0000
vn -0.5025 0.7035 -0.5025
vn -0.9701 -0.2425 -0.0000
vn -0.5025 -0.7035 -0.5025
vn -0.6963 0.1741 -0.6963
vn -0.7071 -0.7071 -0.0000
vn -0.9701 0.2425 -0.0000
vn -0.5392 -0.6470 0.5392
vn -0.6963 0.1741 0.6963
vn 0.5802 -0.1339 0.8034
vn 0.6361 -0.1735 0.7518
vn 0.9615 -0.2747 -0.0000
vn 0.5937 -0.2545 -0.7634
vn 0.6361 -0.1735 -0.7518
vn 0.7071 -0.0000 0.7071
vn 0.7071 -0.0000 -0.7071
vn -0.6228 -0.0778 -0.7785
vn -0.6963 -0.1741 -0.6963
vn 0.5584 0.2094 -0.8027
vn 0.8944 0.4472 -0.0000
vn 0.5584 0.2094 0.8027
vn -0.6963 -0.1741 0.6963
vn -0.6235 0.0623 0.7793
vn -0.9806 0.1961 -0.0000
vn -0.6235 0.0623 -0.7793
vn 0.5472 0.1642 -0.8208
vn 0.2957 0.3548 0.8870
vn -0.3484 0.6271 0.6967
vn -0.3710 -0.0464 0.9275
vn -0.5392 0.6470 -0.5392
vn -0.5392 -0.6470 -0.5392
vn -0.3484 -0.6271 0.6967
vn -0.4444 0.1111 0.8889
vn 0.3885 -0.2914 0.8742
vn 0.3487 -0.1162 0.9300
vn 0.9285 -0.3714 -0.0000
vn 0.5802 -0.1339 -0.8034
vn 0.5883 -0.1961 -0.7845
vn 0.4472 -0.0000 0.8944
vn 0.3261 0.1223 0.9374
vn -0.4444 -0.1111 0.8889
vn -0.3711 0.0371 0.9278
vn -0.9249 0.2434 -0.2921
vn -0.0000 0.1961 -0.9806
vn 0.8575 0.4062 -0.3159
vn 0.7720 0.6317 0.0702
vn 0.9457 0.0788 0.3152
vn -0.0000 0.8575 0.5145
vn -0.8339 0.5307 0.1516
vn -0.0000 0.2425 0.9701
vn -0.8165 -0.4082 0.4082
vn -0.9186 0.2297 0.3215
vn -0.0000 -0.5547 0.8321
vn -0.0000 0.6000 0.8000
vn 0.7682 -0.5121 0.3841
vn 0.9186 0.2297 0.3215
vn 0.8900 -0.3461 -0.2967
vn 0.9428 -0.2357 -0.2357
vn -0.0000 -0.1644 -0.9864
vn -0.0000 -0.8000 -0.6000
vn -0.9283 -0.2063 -0.3094
vn -0.9428 -0.2357 -0.2357
vn 0.9532 -0.0733 -0.2933
vn -0.0000 -0.2425 -0.9701
vn -0.9532 -0.0733 -0.2933
vn -0.9457 0.0788 0.3152
vn -0.9278 -0.0371 0.3711
vn -0.9487 -0.0000 -0.3162
vn 0.9487 -0.0000 -0.3162
vn -0.0000 -0.1961 0.9806
vn 0.9278 -0.0371 0.3711
vn -0.9374 -0.1223 -0.3261
vn 0.9374 -0.1223 -0.3261
vn 0.9370 0.1562 0.3123
vn -0.0000 0.4472 0.8944
vn -0.9370 0.1562 0.3123
vn -0.0000 0.6508 -0.7593
vn -0.6139 0.7894 -0.0000
vt 0.375000 0.000000
vt 0.625000 0.000000
vt 0.625000 0.250000
vt 0.375000 0.250000
vt 0.625000 0.500000
vt 0.375000 0.500000
vt 0.625000 0.750000
vt 0.625000 0.583333
vt 0.625000 0.666667
vt 0.375000 0.750000
vt 0.625000 1.000000
vt 0.375000 1.000000
vt 0.125000 0.500000
vt 0.125000 0.750000
vt 0.875000 0.750000
vt 1.000000 0.833333
vt 0.833333 1.000000
vt 0.833333 0.833333
vt 0.666667 1.000000
vt 0.666667 0.833333
vt 0.500000 1.000000
vt 0.500000 0.833333
vt 0.333333 1.000000
vt 0.333333 0.833333
vt 0.500000 0.708333
vt 0.500000 0.750000
vt 0.333333 0.750000
vt 0.333333 0.708333
vt 0.166667 1.000000
vt 0.166667 0.833333
vt -0.000000 1.000000
vt -0.000000 0.833333
vt 0.166667 0.750000
vt 0.166667 0.708333
vt 0.166667 0.500000
vt 0.166667 0.666667
vt -0.000000 0.666667
vt 0.166667 0.791667
vt -0.000000 0.791667
vt 0.333333 0.500000
vt 0.333333 0.666667
vt 0.333333 0.791667
vt 0.500000 0.500000
vt 0.500000 0.666667
vt 0.500000 0.791667
vt 0.666667 0.500000
vt 0.666667 0.666667
vt 0.666667 0.791667
vt 0.833333 0.500000
vt 0.833333 0.666667
vt 0.833333 0.791667
vt 1.000000 0.500000
vt 1.000000 0.666667
vt 1.000000 0.791667
vt 0.666667 0.708333
vt 0.666667 0.750000
vt 0.833333 0.708333
vt 0.833333 0.750000
vt 1.000000 0.708333
vt 1.000000 0.750000
vt -0.000000 0.750000
vt -0.000000 0.708333
vt 0.875000 0.500000
s 0
f 1/1/1 2/2/1 4/3/1 3/4/1
f 3/4/2 4/3/2 8/5/2 7/6/2
f 6/7/3 8/5/3 105/8/3 106/9/3
f 5/10/4 6/7/4 2/11/4 1/12/4
f 3/13/5 7/6/5 5/10/5 1/14/5
f 2/15/6 6/7/6 106/9/6
f 18/16/7 10/17/7 19/18/7
f 19/18/3 10/19/3 21/20/3
f 21/20/8 10/21/8 23/22/8
f 23/22/9 10/23/9 25/24/9
f 31/25/10 12/26/10 11/27/10 32/28/10
f 25/24/11 10/29/11 27/30/11
f 27/30/12 10/31/12 18/32/12
f 32/28/13 11/27/13 15/33/13 33/34/13
f 9/35/14 28/36/14 17/37/14
f 36/38/15 27/30/15 18/32/15 35/39/15
f 9/40/16 26/41/16 28/36/16
f 37/42/17 25/24/17 27/30/17 36/38/17
f 9/43/18 24/44/18 26/41/18
f 38/45/19 23/22/19 25/24/19 37/42/19
f 9/46/20 22/47/20 24/44/20
f 39/48/21 21/20/21 23/22/21 38/45/21
f 9/49/3 20/50/3 22/47/3
f 40/51/22 19/18/22 21/20/22 39/48/22
f 9/52/23 17/53/23 20/50/23
f 35/54/24 18/16/24 19/18/24 40/51/24
f 30/55/25 13/56/25 12/26/25 31/25/25
f 29/57/3 14/58/3 13/56/3 30/55/3
f 34/59/26 16/60/26 14/58/26 29/57/26
f 33/34/27 15/33/27 16/61/27 34/62/27
f 28/36/28 33/34/28 34/62/28 17/37/28
f 17/53/29 34/59/29 29/57/29 20/50/29
f 20/50/30 29/57/30 30/55/30 22/47/30
f 22/47/31 30/55/31 31/25/31 24/44/31
f 26/41/13 32/28/13 33/34/13 28/36/13
f 24/44/32 31/25/32 32/28/32 26/41/32
f 16/60/26 35/54/26 40/51/26 14/58/26
f 14/58/3 40/51/3 39/48/3 13/56/3
f 13/56/25 39/48/25 38/45/25 12/26/25
f 12/26/33 38/45/33 37/42/33 11/27/33
f 11/27/34 37/42/34 36/38/34 15/33/34
f 15/33/35 36/38/35 35/39/35 16/61/35
f 50/16/36 42/17/36 51/18/36
f 51/18/3 42/19/3 53/20/3
f 53/20/37 42/21/37 55/22/37
f 55/22/38 42/23/38 57/24/38
f 63/25/39 44/26/39 43/27/39 64/28/39
f 57/24/11 42/29/11 59/30/11
f 59/30/40 42/31/40 50/32/40
f 64/28/13 43/27/13 47/33/13 65/34/13
f 41/35/41 60/36/41 49/37/41
f 68/38/15 59/30/15 50/32/15 67/39/15
f 41/40/16 58/41/16 60/36/16
f 69/42/17 57/24/17 59/30/17 68/38/17
f 41/43/42 56/44/42 58/41/42
f 70/45/43 55/22/43 57/24/43 69/42/43
f 41/46/44 54/47/44 56/44/44
f 71/48/45 53/20/45 55/22/45 70/45/45
f 41/49/3 52/50/3 54/47/3
f 72/51/46 51/18/46 53/20/46 71/48/46
f 41/52/47 49/53/47 52/50/47
f 67/54/48 50/16/48 51/18/48 72/51/48
f 62/55/49 45/56/49 44/26/49 63/25/49
f 61/57/3 46/58/3 45/56/3 62/55/3
f 66/59/26 48/60/26 46/58/26 61/57/26
f 65/34/27 47/33/27 48/61/27 66/62/27
f 60/36/28 65/34/28 66/62/28 49/37/28
f 49/53/29 66/59/29 61/57/29 52/50/29
f 52/50/30 61/57/30 62/55/30 54/47/30
f 54/47/50 62/55/50 63/25/50 56/44/50
f 58/41/13 64/28/13 65/34/13 60/36/13
f 56/44/51 63/25/51 64/28/51 58/41/51
f 48/60/26 67/54/26 72/51/26 46/58/26
f 46/58/3 72/51/3 71/48/3 45/56/3
f 45/56/49 71/48/49 70/45/49 44/26/49
f 44/26/52 70/45/52 69/42/52 43/27/52
f 43/27/34 69/42/34 68/38/34 47/33/34
f 47/33/35 68/38/35 67/39/35 48/61/35
f 82/16/53 74/17/53 83/18/53
f 83/18/54 74/19/54 85/20/54
f 85/20/55 74/21/55 87/22/55
f 87/22/56 74/23/56 89/24/56
f 95/25/57 76/26/57 75/27/57 96/28/57
f 89/24/58 74/29/58 91/30/58
f 91/30/59 74/31/59 82/32/59
f 96/28/60 75/27/60 79/33/60 97/34/60
f 73/35/61 92/36/61 81/37/61
f 100/38/62 91/30/62 82/32/62 99/39/62
f 73/40/63 90/41/63 92/36/63
f 101/42/64 89/24/64 91/30/64 100/38/64
f 73/43/65 88/44/65 90/41/65
f 102/45/66 87/22/66 89/24/66 101/42/66
f 73/46/67 86/47/67 88/44/67
f 103/48/68 85/20/68 87/22/68 102/45/68
f 73/49/69 84/50/69 86/47/69
f 104/51/70 83/18/70 85/20/70 103/48/70
f 73/52/71 81/53/71 84/50/71
f 99/54/72 82/16/72 83/18/72 104/51/72
f 94/55/73 77/56/73 76/26/73 95/25/73
f 93/57/74 78/58/74 77/56/74 94/55/74
f 98/59/75 80/60/75 78/58/75 93/57/75
f 97/34/76 79/33/76 80/61/76 98/62/76
f 92/36/77 97/34/77 98/62/77 81/37/77
f 81/53/78 98/59/78 93/57/78 84/50/78
f 84/50/2 93/57/2 94/55/2 86/47/2
f 86/47/79 94/55/79 95/25/79 88/44/79
f 90/41/80 96/28/80 97/34/80 92/36/80
f 88/44/81 95/25/81 96/28/81 90/41/81
f 80/60/82 99/54/82 104/51/82 78/58/82
f 78/58/74 104/51/74 103/48/74 77/56/74
f 77/56/83 103/48/83 102/45/83 76/26/83
f 76/26/84 102/45/84 101/42/84 75/27/84
f 75/27/85 101/42/85 100/38/85 79/33/85
f 79/33/86 100/38/86 99/39/86 80/61/86
f 8/5/87 4/63/87 105/8/87
f 4/63/88 2/15/88 106/9/88 105/8/88
f 5/10/3 7/6/3 8/5/3 6/7/3
o Hand.L
v 0.430000 0.220000 0.080000
v 0.430000 0.390000 0.080000
v 0.430000 0.220000 -0.090000
v 0.430000 0.390000 -0.090000
v 0.340000 0.330000 0.080000
v 0.340000 0.390000 0.080000
v 0.340000 0.290000 -0.090000
v 0.340000 0.390000 -0.090000
v 0.410000 0.020000 0.060000
v 0.410000 0.290000 0.060000
v 0.480000 0.150000 0.070000
v 0.450000 0.150000 0.090000
v 0.430000 0.150000 0.070000
v 0.430000 0.150000 0.040000
v 0.480000 0.150000 0.040000
v 0.450000 0.150000 0.020000
v 0.440000 0.070000 0.020000
v 0.440000 0.240000 0.020000
v 0.410000 0.260000 0.040000
v 0.410000 0.080000 0.040000
v 0.410000 0.260000 0.070000
v 0.410000 0.080000 0.070000
v 0.440000 0.240000 0.090000
v 0.440000 0.070000 0.090000
v 0.460000 0.240000 0.070000
v 0.460000 0.070000 0.070000
v 0.460000 0.240000 0.040000
v 0.460000 0.070000 0.040000
v 0.430000 0.120000 0.040000
v 0.430000 0.120000 0.070000
v 0.450000 0.110000 0.090000
v 0.470000 0.110000 0.070000
v 0.470000 0.110000 0.040000
v 0.450000 0.110000 0.020000
v 0.450000 0.200000 0.020000
v 0.470000 0.200000 0.040000
v 0.470000 0.200000 0.070000
v 0.450000 0.200000 0.090000
v 0.430000 0.190000 0.070000
v 0.430000 0.190000 0.040000
v 0.410000 0.020000 -0.070000
v 0.410000 0.290000 -0.070000
v 0.480000 0.150000 -0.050000
v 0.450000 0.150000 -0.040000
v 0.430000 0.150000 -0.050000
v 0.430000 0.150000 -0.080000
v 0.480000 0.150000 -0.080000
v 0.450000 0.150000 -0.100000
v 0.440000 0.070000 -0.100000
v 0.440000 0.240000 -0.100000
v 0.410000 0.240000 -0.080000
v 0.410000 0.080000 -0.080000
v 0.410000 0.240000 -0.050000
v 0.410000 0.080000 -0.050000
v 0.440000 0.240000 -0.040000
v 0.440000 0.070000 -0.040000
v 0.460000 0.240000 -0.050000
v 0.460000 0.070000 -0.050000
v 0.460000 0.240000 -0.080000
v 0.460000 0.070000 -0.080000
v 0.430000 0.120000 -0.080000
v 0.430000 0.120000 -0.050000
v 0.450000 0.110000 -0.040000
v 0.470000 0.110000 -0.050000
v 0.470000 0.110000 -0.080000
v 0.450000 0.110000 -0.100000
v 0.450000 0.200000 -0.100000
v 0.470000 0.200000 -0.080000
v 0.470000 0.200000 -0.050000
v 0.450000 0.200000 -0.040000
v 0.430000 0.190000 -0.050000
v 0.430000 0.190000 -0.080000
v 0.360000 0.130000 0.140000
v 0.360000 0.390000 0.080000
v 0.340000 0.280000 0.180000
v 0.330000 0.280000 0.150000
v 0.340000 0.270000 0.120000
v 0.370000 0.270000 0.120000
v 0.370000 0.280000 0.180000
v 0.380000 0.280000 0.150000
v 0.380000 0.190000 0.160000
v 0.380000 0.350000 0.110000
v 0.370000 0.340000 0.070000
v 0.370000 0.190000 0.130000
v 0.340000 0.340000 0.070000
v 0.340000 0.190000 0.130000
v 0.330000 0.350000 0.110000
v 0.330000 0.190000 0.160000
v 0.340000 0.360000 0.130000
v 0.340000 0.190000 0.180000
v 0.370000 0.360000 0.130000
v 0.370000 0.190000 0.180000
v 0.370000 0.230000 0.130000
v 0.340000 0.230000 0.130000
v 0.330000 0.240000 0.160000
v 0.340000 0.240000 0.190000
v 0.370000 0.240000 0.190000
v 0.380000 0.240000 0.160000
v 0.380000 0.320000 0.130000
v 0.370000 0.320000 0.160000
v 0.340000 0.320000 0.160000
v 0.330000 0.320000 0.130000
v 0.340000 0.310000 0.110000
v 0.370000 0.310000 0.110000
v 0.340000 0.460000 -0.030000
v 0.340000 0.460000 0.020000
vn 1.0000 -0.0000 -0.0000
vn -0.0000 -0.0000 -1.0000
vn -1.0000 -0.0000 -0.0000
vn -0.0000 -0.0000 1.0000
vn -0.7047 -0.7047 0.0829
vn -0.0000 0.6508 0.7593
vn -0.1818 0.5455 -0.8182
vn -0.3885 0.2914 0.8742
vn 0.5392 0.6470 0.5392
vn 0.6228 -0.0778 0.7785
vn 0.7071 0.7071 -0.0000
vn 0.5025 0.7035 -0.5025
vn 0.9701 -0.2425 -0.0000
vn 0.5025 -0.7035 -0.5025
vn 0.6963 0.1741 -0.6963
vn 0.7071 -0.7071 -0.0000
vn 0.9701 0.2425 -0.0000
vn 0.5392 -0.6470 0.5392
vn 0.6963 0.1741 0.6963
vn -0.5802 -0.1339 0.8034
vn -0.6361 -0.1735 0.7518
vn -0.9615 -0.2747 -0.0000
vn -0.5937 -0.2545 -0.7634
vn -0.6361 -0.1735 -0.7518
vn -0.7071 -0.0000 0.7071
vn -0.7071 -0.0000 -0.7071
vn 0.6228 -0.0778 -0.7785
vn 0.6963 -0.1741 -0.6963
vn -0.5584 0.2094 -0.8027
vn -0.8944 0.4472 -0.0000
vn -0.5584 0.2094 0.8027
vn 0.6963 -0.1741 0.6963
vn 0.6235 0.0623 0.7793
vn 0.9806 0.1961 -0.0000
vn 0.6235 0.0623 -0.7793
vn -0.5472 0.1642 -0.8208
vn -0.2957 0.3548 0.8870
vn 0.3484 0.6271 0.6967
vn 0.3710 -0.0464 0.9275
vn 0.5392 0.6470 -0.5392
vn 0.5392 -0.6470 -0.5392
vn 0.3484 -0.6271 0.6967
vn 0.4444 0.1111 0.8889
vn -0.3885 -0.2914 0.8742
vn -0.3487 -0.1162 0.9300
vn -0.9285 -0.3714 -0.0000
vn -0.5802 -0.1339 -0.8034
vn -0.5883 -0.1961 -0.7845
vn -0.4472 -0.0000 0.8944
vn -0.3261 0.1223 0.9374
vn 0.4444 -0.1111 0.8889
vn 0.3711 0.0371 0.9278
vn 0.9249 0.2434 -0.2921
vn -0.0000 0.1961 -0.9806
vn -0.8575 0.4062 -0.3159
vn -0.7720 0.6317 0.0702
vn -0.9457 0.0788 0.3152
vn -0.0000 0.8575 0.5145
vn 0.8339 0.5307 0.1516
vn -0.0000 0.2425 0.9701
vn 0.8165 -0.4082 0.4082
vn 0.9186 0.2297 0.3215
vn -0.0000 -0.5547 0.8321
vn -0.0000 0.6000 0.8000
vn -0.7682 -0.5121 0.3841
vn -0.9186 0.2297 0.3215
vn -0.8900 -0.3461 -0.2967
vn -0.9428 -0.2357 -0.2357
vn -0.0000 -0.1644 -0.9864
vn -0.0000 -0.8000 -0.6000
vn 0.9283 -0.2063 -0.3094
vn 0.9428 -0.2357 -0.2357
vn -0.9532 -0.0733 -0.2933
vn -0.0000 -0.2425 -0.9701
vn 0.9532 -0.0733 -0.2933
vn 0.9457 0.0788 0.3152
vn 0.9278 -0.0371 0.3711
vn 0.9487 -0.0000 -0.3162
vn -0.9487 -0.0000 -0.3162
vn -0.0000 -0.1961 0.9806
vn -0.9278 -0.0371 0.3711
vn 0.9374 -0.1223 -0.3261
vn -0.9374 -0.1223 -0.3261
vn -0.9370 0.1562 0.3123
vn -0.0000 0.4472 0.8944
vn 0.9370 0.1562 0.3123
vn -0.0000 0.6508 -0.7593
vn 0.6139 0.7894 -0.0000
vt 0.375000 0.000000
vt 0.625000 0.000000
vt 0.625000 0.250000
vt 0.375000 0.250000
vt 0.625000 0.500000
vt 0.375000 0.500000
vt 0.625000 0.750000
vt 0.625000 0.583333
vt 0.625000 0.666667
vt 0.375000 0.750000
vt 0.625000 1.000000
vt 0.375000 1.000000
vt 0.125000 0.500000
vt 0.125000 0.750000
vt 0.875000 0.750000
vt 1.000000 0.833333
vt 0.833333 1.000000
vt 0.833333 0.833333
vt 0.666667 1.000000
vt 0.666667 0.833333
vt 0.500000 1.000000
vt 0.500000 0.833333
vt 0.333333 1.000000
vt 0.333333 0.833333
vt 0.500000 0.708333
vt 0.500000 0.750000
vt 0.333333 0.750000
vt 0.333333 0.708333
vt 0.166667 1.000000
vt 0.166667 0.833333
vt -0.000000 1.000000
vt -0.000000 0.833333
vt 0.166667 0.750000
vt 0.166667 0.708333
vt 0.166667 0.500000
vt 0.166667 0.666667
vt -0.000000 0.666667
vt 0.166667 0.791667
vt -0.000000 0.791667
vt 0.333333 0.500000
vt 0.333333 0.666667
vt 0.333333 0.791667
vt 0.500000 0.500000
vt 0.500000 0.666667
vt 0.500000 0.791667
vt 0.666667 0.500000
vt 0.666667 0.666667
vt 0.666667 0.791667
vt 0.833333 0.500000
vt 0.833333 0.666667
vt 0.833333 0.791667
vt 1.000000 0.500000
vt 1.000000 0.666667
vt 1.000000 0.791667
vt 0.666667 0.708333
vt 0.666667 0.750000
vt 0.833333 0.708333
vt 0.833333 0.750000
vt 1.000000 0.708333
vt 1.000000 0.750000
vt -0.000000 0.750000
vt -0.000000 0.708333
vt 0.875000 0.500000
s 0
f 107/64/89 109/67/89 110/66/89 108/65/89
f 109/67/90 113/69/90 114/68/90 110/66/90
f 112/70/91 212/72/91 211/71/91 114/68/91
f 111/73/92 107/75/92 108/74/92 112/70/92
f 109/76/93 107/77/93 111/73/93 113/69/93
f 108/78/94 212/72/94 112/70/94
f 124/79/95 125/81/95 116/80/95
f 125/81/91 127/83/91 116/82/91
f 127/83/96 129/85/96 116/84/96
f 129/85/97 131/87/97 116/86/97
f 137/88/98 138/91/98 117/90/98 118/89/98
f 131/87/99 133/93/99 116/92/99
f 133/93/100 124/95/100 116/94/100
f 138/91/101 139/97/101 121/96/101 117/90/101
f 115/98/102 123/100/102 134/99/102
f 142/101/103 141/102/103 124/95/103 133/93/103
f 115/103/104 134/99/104 132/104/104
f 143/105/105 142/101/105 133/93/105 131/87/105
f 115/106/106 132/104/106 130/107/106
f 144/108/107 143/105/107 131/87/107 129/85/107
f 115/109/108 130/107/108 128/110/108
f 145/111/109 144/108/109 129/85/109 127/83/109
f 115/112/91 128/110/91 126/113/91
f 146/114/110 145/111/110 127/83/110 125/81/110
f 115/115/111 126/113/111 123/116/111
f 141/117/112 146/114/112 125/81/112 124/79/112
f 136/118/113 137/88/113 118/89/113 119/119/113
f 135/120/91 136/118/91 119/119/91 120/121/91
f 140/122/114 135/120/114 120/121/114 122/123/114
f 139/97/115 140/125/115 122/124/115 121/96/115
f 134/99/116 123/100/116 140/125/116 139/97/116
f 123/116/117 126/113/117 135/120/117 140/122/117
f 126/113/118 128/110/118 136/118/118 135/120/118
f 128/110/119 130/107/119 137/88/119 136/118/119
f 132/104/101 134/99/101 139/97/101 138/91/101
f 130/107/120 132/104/120 138/91/120 137/88/120
f 122/123/114 120/121/114 146/114/114 141/117/114
f 120/121/91 119/119/91 145/111/91 146/114/91
f 119/119/113 118/89/113 144/108/113 145/111/113
f 118/89/121 117/90/121 143/105/121 144/108/121
f 117/90/122 121/96/122 142/101/122 143/105/122
f 121/96/123 122/124/123 141/102/123 142/101/123
f 156/79/124 157/81/124 148/80/124
f 157/81/91 159/83/91 148/82/91
f 159/83/125 161/85/125 148/84/125
f 161/85/126 163/87/126 148/86/126
f 169/88/127 170/91/127 149/90/127 150/89/127
f 163/87/99 165/93/99 148/92/99
f 165/93/128 156/95/128 148/94/128
f 170/91/101 171/97/101 153/96/101 149/90/101
f 147/98/129 155/100/129 166/99/129
f 174/101/103 173/102/103 156/95/103 165/93/103
f 147/103/104 166/99/104 164/104/104
f 175/105/105 174/101/105 165/93/105 163/87/105
f 147/106/130 164/104/130 162/107/130
f 176/108/131 175/105/131 163/87/131 161/85/131
f 147/109/132 162/107/132 160/110/132
f 177/111/133 176/108/133 161/85/133 159/83/133
f 147/112/91 160/110/91 158/113/91
f 178/114/134 177/111/134 159/83/134 157/81/134
f 147/115/135 158/113/135 155/116/135
f 173/117/136 178/114/136 157/81/136 156/79/136
f 168/118/137 169/88/137 150/89/137 151/119/137
f 167/120/91 168/118/91 151/119/91 152/121/91
f 172/122/114 167/120/114 152/121/114 154/123/114
f 171/97/115 172/125/115 154/124/115 153/96/115
f 166/99/116 155/100/116 172/125/116 171/97/116
f 155/116/117 158/113/117 167/120/117 172/122/117
f 158/113/118 160/110/118 168/118/118 167/120/118
f 160/110/138 162/107/138 169/88/138 168/118/138
f 164/104/101 166/99/101 171/97/101 170/91/101
f 162/107/139 164/104/139 170/91/139 169/88/139
f 154/123/114 152/121/114 178/114/114 173/117/114
f 152/121/91 151/119/91 177/111/91 178/114/91
f 151/119/137 150/89/137 176/108/137 177/111/137
f 150/89/140 149/90/140 175/105/140 176/108/140
f 149/90/122 153/96/122 174/101/122 175/105/122
f 153/96/123 154/124/123 173/102/123 174/101/123
f 188/79/141 189/81/141 180/80/141
f 189/81/142 191/83/142 180/82/142
f 191/83/143 193/85/143 180/84/143
f 193/85/144 195/87/144 180/86/144
f 201/88/145 202/91/145 181/90/145 182/89/145
f 195/87/146 197/93/146 180/92/146
f 197/93/147 188/95/147 180/94/147
f 202/91/148 203/97/148 185/96/148 181/90/148
f 179/98/149 187/100/149 198/99/149
f 206/101/150 205/102/150 188/95/150 197/93/150
f 179/103/151 198/99/151 196/104/151
f 207/105/152 206/101/152 197/93/152 195/87/152
f 179/106/153 196/104/153 194/107/153
f 208/108/154 207/105/154 195/87/154 193/85/154
f 179/109/155 194/107/155 192/110/155
f 209/111/156 208/108/156 193/85/156 191/83/156
f 179/112/157 192/110/157 190/113/157
f 210/114/158 209/111/158 191/83/158 189/81/158
f 179/115/159 190/113/159 187/116/159
f 205/117/160 210/114/160 189/81/160 188/79/160
f 200/118/161 201/88/161 182/89/161 183/119/161
f 199/120/162 200/118/162 183/119/162 184/121/162
f 204/122/163 199/120/163 184/121/163 186/123/163
f 203/97/164 204/125/164 186/124/164 185/96/164
f 198/99/165 187/100/165 204/125/165 203/97/165
f 187/116/166 190/113/166 199/120/166 204/122/166
f 190/113/90 192/110/90 200/118/90 199/120/90
f 192/110/167 194/107/167 201/88/167 200/118/167
f 196/104/168 198/99/168 203/97/168 202/91/168
f 194/107/169 196/104/169 202/91/169 201/88/169
f 186/123/170 184/121/170 210/114/170 205/117/170
f 184/121/162 183/119/162 209/111/162 210/114/162
f 183/119/171 182/89/171 208/108/171 209/111/171
f 182/89/172 181/90/172 207/105/172 208/108/172
f 181/90/173 185/96/173 206/101/173 207/105/173
f 185/96/174 186/124/174 205/102/174 206/101/174
f 114/68/175 211/71/175 110/126/175
f 110/126/176 211/71/176 212/72/176 108/78/176
f 111/73/91 112/70/91 114/68/91 113/69/91
o Leg.R
v -0.200000 0.140000 0.060000
v -0.200000 0.140000 -0.070000
v -0.090000 0.140000 0.060000
v -0.090000 0.140000 -0.070000
v -0.200000 0.060000 0.060000
v -0.200000 0.060000 -0.070000
v -0.090000 0.060000 -0.070000
v -0.220000 0.040000 0.150000
v -0.200000 0.040000 0.180000
v -0.200000 0.040000 -0.110000
v -0.220000 0.040000 -0.080000
v -0.090000 0.040000 0.180000
v -0.070000 0.040000 0.150000
v -0.090000 0.060000 0.060000
v -0.070000 0.040000 -0.080000
v -0.090000 0.040000 -0.110000
v -0.200000 0.000000 0.180000
v -0.220000 0.000000 0.150000
v -0.220000 0.000000 -0.080000
v -0.200000 0.000000 -0.110000
v -0.070000 0.000000 0.150000
v -0.090000 0.000000 0.180000
v -0.090000 0.000000 -0.110000
v -0.070000 0.000000 -0.080000
vn -0.0000 -0.0000 -1.0000
vn 1.0000 -0.0000 -0.0000
vn -0.0000 -0.0000 1.0000
vn -0.2394 0.9577 0.1596
vn -0.5571 0.7428 -0.3714
vn 0.2394 0.9577 0.1596
vn 0.5571 0.7428 -0.3714
vn 0.8321 -0.0000 -0.5547
vn -0.8321 -0.0000 -0.5547
vn 0.8321 -0.0000 0.5547
vn -0.8321 -0.0000 0.5547
vn -1.0000 -0.0000 -0.0000
vn -0.0000 0.9864 0.1644
vn -0.7071 0.7071 -0.0000
vn -0.0000 0.8944 -0.4472
vn 0.7071 0.7071 -0.0000
vn -0.0000 -1.0000 -0.0000
vt 0.625000 0.500000
vt 0.375000 0.500000
vt 0.375000 0.250000
vt 0.625000 0.250000
vt 0.625000 0.750000
vt 0.375000 0.750000
vt 0.625000 1.000000
vt 0.375000 1.000000
vt 0.375000 0.958333
vt 0.375000 0.999932
vt 0.375000 0.291667
vt 0.375000 0.227651
vt 0.375000 0.791667
vt 0.375000 0.727455
vt 0.375000 0.522727
vt 0.375000 0.459409
vt 0.375000 0.500000
vt 0.375000 0.522727
vt 0.375000 0.458333
vt 0.375000 0.305459
vt 0.375000 0.291667
vt 0.375000 0.791667
vt 0.375000 0.727273
vt 0.375000 0.000000
vt 0.375000 0.022727
vt 0.375000 0.022727
vt 0.375000 0.958333
vt 0.375000 0.931818
vt 0.625000 0.000000
s 0
f 216/127/177 219/128/177 218/129/177 214/130/177
f 215/131/178 226/132/178 219/128/178 216/127/178
f 213/133/179 217/134/179 226/132/179 215/131/179
f 220/134/180 221/135/180 217/136/180
f 222/137/181 223/138/181 218/129/181
f 224/139/182 225/140/182 226/132/182
f 227/141/183 228/142/183 219/143/183
f 227/141/184 236/144/184 235/145/184 228/142/184
f 231/146/185 223/138/185 222/137/185 232/147/185
f 224/139/186 234/148/186 233/149/186 225/140/186
f 229/150/187 221/150/187 220/151/187 230/152/187
f 220/151/188 223/138/188 231/146/188 230/152/188
f 226/132/189 217/136/189 221/135/189 224/139/189
f 217/150/190 218/129/190 223/138/190 220/151/190
f 224/139/179 221/135/179 229/153/179 234/148/179
f 222/137/177 228/142/177 235/145/177 232/147/177
f 218/129/191 219/143/191 228/142/191 222/137/191
f 227/141/178 225/140/178 233/149/178 236/144/178
f 219/128/192 226/132/192 225/140/192 227/141/192
f 229/153/193 230/154/193 231/146/193 232/147/193 235/145/193 236/144/193 233/149/193 234/148/193
f 214/130/188 218/129/188 217/150/188 213/155/188
o Leg.L
v 0.090000 0.140000 0.060000
v 0.090000 0.140000 -0.070000
v 0.200000 0.140000 0.060000
v 0.200000 0.140000 -0.070000
v 0.090000 0.060000 0.060000
v 0.090000 0.060000 -0.070000
v 0.200000 0.060000 -0.070000
v 0.070000 0.040000 0.150000
v 0.090000 0.040000 0.180000
v 0.090000 0.040000 -0.110000
v 0.070000 0.040000 -0.080000
v 0.200000 0.040000 0.180000
v 0.220000 0.040000 0.150000
v 0.200000 0.060000 0.060000
v 0.220000 0.040000 -0.080000
v 0.200000 0.040000 -0.110000
v 0.090000 0.000000 0.180000
v 0.070000 0.000000 0.150000
v 0.070000 0.000000 -0.080000
v 0.090000 0.000000 -0.110000
v 0.220000 0.000000 0.150000
v 0.200000 0.000000 0.180000
v 0.200000 0.000000 -0.110000
v 0.220000 0.000000 -0.080000
vn -0.0000 -0.0000 -1.0000
vn 1.0000 -0.0000 -0.0000
vn -0.0000 -0.0000 1.0000
vn -0.2394 0.9577 0.1596
vn -0.5571 0.7428 -0.3714
vn 0.2394 0.9577 0.1596
vn 0.5571 0.7428 -0.3714
vn 0.8321 -0.0000 -0.5547
vn -0.8321 -0.0000 -0.5547
vn 0.8321 -0.0000 0.5547
vn -0.8321 -0.0000 0.5547
vn -1.0000 -0.0000 -0.0000
vn -0.0000 0.9864 0.1644
vn -0.7071 0.7071 -0.0000
vn -0.0000 0.8944 -0.4472
vn 0.7071 0.7071 -0.0000
vn -0.0000 -1.0000 -0.0000
vt 0.625000 0.500000
vt 0.375000 0.500000
vt 0.375000 0.250000
vt 0.625000 0.250000
vt 0.625000 0.750000
vt 0.375000 0.750000
vt 0.625000 1.000000
vt 0.375000 1.000000
vt 0.375000 0.958333
vt 0.375000 0.999932
vt 0.375000 0.291667
vt 0.375000 0.227651
vt 0.375000 0.791667
vt 0.375000 0.727455
vt 0.375000 0.522727
vt 0.375000 0.459409
vt 0.375000 0.500000
vt 0.375000 0.522727
vt 0.375000 0.458333
vt 0.375000 0.305459
vt 0.375000 0.291667
vt 0.375000 0.791667
vt 0.375000 0.727273
vt 0.375000 0.000000
vt 0.375000 0.022727
vt 0.375000 0.022727
vt 0.375000 0.958333
vt 0.375000 0.931818
vt 0.625000 0.000000
s 0
f 240/156/194 243/157/194 242/158/194 238/159/194
f 239/160/195 250/161/195 243/157/195 240/156/195
f 237/162/196 241/163/196 250/161/196 239/160/196
f 244/163/197 245/164/197 241/165/197
f 246/166/198 247/167/198 242/158/198
f 248/168/199 249/169/199 250/161/199
f 251/170/200 252/171/200 243/172/200
f 251/170/201 260/173/201 259/174/201 252/171/201
f 255/175/202 247/167/202 246/166/202 256/176/202
f 248/168/203 258/177/203 257/178/203 249/169/203
f 253/179/204 245/179/204 244/180/204 254/181/204
f 244/180/205 247/167/205 255/175/205 254/181/205
f 250/161/206 241/165/206 245/164/206 248/168/206
f 241/179/207 242/158/207 247/167/207 244/180/207
f 248/168/196 245/164/196 253/182/196 258/177/196
f 246/166/194 252/171/194 259/174/194 256/176/194
f 242/158/208 243/172/208 252/171/208 246/166/208
f 251/170/195 249/169/195 257/178/195 260/173/195
f 243/157/209 250/161/209 249/169/209 251/170/209
f 253/182/210 254/183/210 255/175/210 256/176/210 259/174/210 260/173/210 257/178/210 258/177/210
f 238/159/205 242/158/205 241/179/205 237/184/205
o Body
v 0.150000 1.100000 -0.190000
v 0.360000 1.100000 -0.190000
v 0.170000 1.050000 -0.190000
v 0.270000 1.000000 -0.200000
v 0.170000 1.050000 0.190000
v 0.270000 1.000000 0.200000
v 0.150000 1.100000 0.190000
v 0.360000 1.100000 0.190000
v 0.130000 1.160000 0.170000
v 0.390000 1.160000 0.170000
v 0.120000 1.190000 0.130000
v 0.410000 1.190000 0.130000
v 0.120000 1.190000 -0.130000
v 0.410000 1.190000 -0.130000
v 0.130000 1.160000 -0.170000
v 0.390000 1.160000 -0.170000
v 0.190000 1.100000 -0.220000
v 0.200000 1.050000 -0.220000
v 0.320000 1.050000 -0.220000
v 0.360000 1.100000 -0.220000
v 0.200000 1.050000 0.230000
v 0.320000 1.050000 0.230000
v 0.190000 1.100000 0.230000
v 0.360000 1.100000 0.230000
v 0.160000 1.180000 0.200000
v 0.410000 1.180000 0.200000
v 0.150000 1.230000 0.140000
v 0.420000 1.230000 0.140000
v 0.150000 1.230000 -0.140000
v 0.420000 1.230000 -0.140000
v 0.160000 1.180000 -0.200000
v 0.410000 1.180000 -0.200000
v 0.220000 0.990000 -0.200000
v 0.210000 1.060000 -0.190000
v 0.220000 0.990000 0.200000
v 0.210000 1.060000 0.190000
v 0.210000 1.110000 0.170000
v 0.210000 1.140000 0.130000
v 0.210000 1.140000 -0.130000
v 0.210000 1.110000 -0.170000
v 0.320000 1.050000 -0.190000
v 0.320000 1.050000 0.190000
v 0.220000 1.000000 -0.190000
v 0.220000 1.000000 0.190000
v 0.130000 1.250000 0.040000
v 0.130000 1.250000 -0.040000
v 0.420000 1.250000 -0.040000
v 0.420000 1.250000 0.040000
v 0.120000 1.190000 0.040000
v 0.120000 1.190000 -0.040000
v 0.410000 1.190000 -0.040000
v 0.410000 1.190000 0.040000
v 0.210000 1.140000 -0.040000
v 0.210000 1.140000 0.040000
v -0.300000 0.590000 0.190000
v -0.210000 1.160000 0.190000
v -0.250000 0.540000 -0.190000
v -0.210000 1.210000 -0.140000
v -0.210000 1.160000 -0.190000
v -0.270000 1.160000 -0.140000
v 0.250000 0.540000 0.190000
v 0.210000 1.210000 0.140000
v 0.210000 1.160000 0.190000
v 0.270000 1.160000 0.140000
v 0.300000 0.590000 -0.190000
v 0.210000 1.160000 -0.190000
v 0.010000 0.540000 0.190000
v 0.090000 0.490000 -0.100000
v 0.120000 0.540000 0.190000
v 0.250000 0.540000 -0.100000
v 0.250000 0.540000 0.090000
v -0.090000 0.490000 0.090000
v -0.250000 0.540000 0.090000
v -0.250000 0.490000 -0.130000
v -0.250000 0.420000 -0.110000
v 0.250000 0.420000 -0.110000
v 0.250000 0.370000 -0.040000
v 0.250000 0.370000 0.040000
v 0.250000 0.420000 0.100000
v 0.250000 0.490000 0.120000
v -0.250000 0.540000 0.110000
v 0.250000 0.540000 0.110000
v -0.150000 1.100000 -0.190000
v -0.360000 1.100000 -0.190000
v -0.170000 1.050000 -0.190000
v -0.270000 1.000000 -0.200000
v -0.170000 1.050000 0.190000
v -0.270000 1.000000 0.200000
v -0.150000 1.100000 0.190000
v -0.360000 1.100000 0.190000
v -0.130000 1.160000 0.170000
v -0.390000 1.160000 0.170000
v -0.120000 1.190000 0.130000
v -0.410000 1.190000 0.130000
v -0.120000 1.190000 -0.130000
v -0.410000 1.190000 -0.130000
v -0.130000 1.160000 -0.170000
v -0.390000 1.160000 -0.170000
v -0.190000 1.100000 -0.220000
v -0.200000 1.050000 -0.220000
v -0.320000 1.050000 -0.220000
v -0.360000 1.100000 -0.220000
v -0.200000 1.050000 0.230000
v -0.320000 1.050000 0.230000
v -0.190000 1.100000 0.230000
v -0.360000 1.100000 0.230000
v -0.160000 1.180000 0.200000
v -0.410000 1.180000 0.200000
v -0.150000 1.230000 0.140000
v -0.420000 1.230000 0.140000
v -0.150000 1.230000 -0.140000
v -0.420000 1.230000 -0.140000
v -0.160000 1.180000 -0.200000
v -0.410000 1.180000 -0.200000
v -0.220000 0.990000 -0.200000
v -0.210000 1.060000 -0.190000
v -0.220000 0.990000 0.200000
v -0.210000 1.060000 0.190000
v -0.210000 1.110000 0.170000
v -0.210000 1.140000 0.130000
v -0.210000 1.140000 -0.130000
v -0.210000 1.110000 -0.170000
v -0.320000 1.050000 -0.190000
v -0.320000 1.050000 0.190000
v -0.220000 1.000000 -0.190000
v -0.220000 1.000000 0.190000
v -0.130000 1.250000 0.040000
v -0.130000 1.250000 -0.040000
v -0.420000 1.250000 -0.040000
v -0.420000 1.250000 0.040000
v -0.120000 1.190000 0.040000
v -0.120000 1.190000 -0.040000
v -0.410000 1.190000 -0.040000
v -0.410000 1.190000 0.040000
v -0.210000 1.140000 -0.040000
v -0.210000 1.140000 0.040000
v 0.250000 0.590000 0.230000
v 0.300000 0.590000 0.190000
v 0.250000 0.540000 -0.190000
v 0.250000 0.590000 -0.230000
v 0.210000 1.210000 -0.140000
v 0.270000 1.160000 -0.140000
v -0.250000 0.540000 0.190000
v -0.250000 0.590000 0.230000
v -0.210000 1.210000 0.140000
v -0.270000 1.160000 0.140000
v -0.250000 0.590000 -0.230000
v -0.300000 0.590000 -0.190000
v -0.010000 0.350000 0.090000
v -0.010000 0.540000 0.190000
v -0.010000 0.350000 -0.100000
v -0.010000 0.540000 -0.190000
v -0.120000 0.540000 -0.190000
v -0.090000 0.490000 -0.100000
v -0.120000 0.540000 0.190000
v -0.250000 0.540000 -0.100000
v 0.010000 0.350000 0.090000
v 0.010000 0.350000 -0.100000
v 0.010000 0.540000 -0.190000
v 0.120000 0.540000 -0.190000
v 0.090000 0.490000 0.090000
v 0.250000 0.490000 -0.130000
v -0.250000 0.370000 -0.040000
v -0.250000 0.370000 0.040000
v -0.250000 0.420000 0.100000
v -0.250000 0.490000 0.120000
v 0.250000 0.540000 -0.120000
v -0.250000 0.540000 -0.120000
v -0.300000 1.040000 -0.130000
v 0.300000 1.040000 -0.130000
v -0.300000 0.960000 -0.110000
v 0.300000 0.960000 -0.110000
v -0.300000 0.910000 -0.040000
v 0.300000 0.910000 -0.040000
v -0.300000 0.910000 0.040000
v 0.300000 0.910000 0.040000
v -0.300000 0.960000 0.110000
v 0.300000 0.960000 0.110000
v -0.300000 1.040000 0.130000
v 0.300000 1.040000 0.130000
v -0.300000 1.120000 0.110000
v 0.300000 1.120000 0.110000
v -0.300000 1.160000 0.040000
v 0.300000 1.160000 0.040000
v -0.300000 1.160000 -0.040000
v 0.300000 1.160000 -0.040000
v -0.300000 1.120000 -0.110000
v 0.300000 1.120000 -0.110000
vn -0.0000 -0.0000 -1.0000
vn -0.0000 -0.0000 1.0000
vn -0.0000 0.3511 0.9363
vn -0.0000 0.7682 0.6402
vn -0.0000 0.9806 -0.1961
vn 0.0992 -0.3638 0.9262
vn -0.0000 0.7682 -0.6402
vn -0.0000 0.2425 -0.9701
vn -0.6960 -0.4930 0.5220
vn -0.6387 -0.1916 -0.7452
vn 0.7071 -0.7071 -0.0000
vn -0.7341 -0.2202 0.6423
vn 0.7809 -0.6247 -0.0000
vn -0.7071 -0.0000 0.7071
vn 0.8495 -0.5191 -0.0944
vn -0.7571 0.4279 0.4937
vn 0.9081 -0.4146 -0.0592
vn -0.9246 0.3563 0.1348
vn 0.9808 -0.1941 0.0204
vn -0.7571 0.4279 -0.4937
vn 0.9081 -0.4146 0.0592
vn -0.6484 -0.0141 -0.7612
vn 0.8489 -0.5167 0.1107
vn 0.0285 -0.4846 0.8742
vn 0.1761 -0.4402 -0.8805
vn 0.2122 -0.8065 -0.5518
vn -0.6396 -0.4264 -0.6396
vn 0.2122 -0.8065 0.5518
vn 0.0204 -0.3466 -0.9378
vn 0.0992 -0.3638 -0.9262
vn 0.2425 -0.9701 -0.0000
vn 0.1761 -0.4402 0.8805
vn 0.9808 -0.1941 -0.0204
vn 0.9864 -0.1644 -0.0000
vn -0.9246 0.3563 -0.1348
vn -0.9864 0.1644 -0.0000
vn -0.0000 0.9806 0.1961
vn -0.0000 1.0000 -0.0000
vn -0.5298 -0.5298 0.6623
vn -0.5077 0.6092 0.6092
vn -0.5298 -0.5298 -0.6623
vn -0.5077 0.6092 -0.6092
vn 0.5298 -0.5298 0.6623
vn 0.5077 0.6092 0.6092
vn 0.5298 -0.5298 -0.6623
vn 0.5077 0.6092 -0.6092
vn -0.7071 -0.7071 -0.0000
vn -0.6301 0.0995 0.7701
vn -0.6402 0.7682 -0.0000
vn -0.6301 0.0995 -0.7701
vn -0.0000 -0.6247 -0.7809
vn -0.0000 0.7071 -0.7071
vn 0.6301 0.0995 -0.7701
vn 0.6402 0.7682 -0.0000
vn 0.6301 0.0995 0.7701
vn -0.0000 -0.6247 0.7809
vn -0.0000 0.7071 0.7071
vn -0.0000 -1.0000 -0.0000
vn -0.9986 0.0526 -0.0000
vn -0.0000 0.0700 0.9975
vn -0.0000 0.0700 -0.9975
vn 0.9986 0.0526 -0.0000
vn 0.8682 -0.4961 -0.0000
vn -0.0000 -0.4657 0.8849
vn 0.6318 -0.3610 0.6859
vn 0.2739 -0.8766 -0.3957
vn 0.2781 -0.8899 0.3615
vn -0.0000 -0.8944 0.4472
vn 0.8682 -0.4961 0.0138
vn -0.8682 -0.4961 -0.0000
vn -0.6318 -0.3610 0.6859
vn -0.2781 -0.8899 0.3615
vn -0.0000 -0.2747 -0.9615
vn -0.0000 -0.8137 -0.5812
vn -0.0000 -0.7682 0.6402
vn -0.0000 -0.2747 0.9615
vn -0.0000 0.1961 0.9806
vn -1.0000 -0.0000 -0.0000
vn 1.0000 -0.0000 -0.0000
vn -0.0000 0.1961 -0.9806
vn -0.0992 -0.3638 0.9262
vn 0.6960 -0.4930 0.5220
vn 0.6387 -0.1916 -0.7452
vn 0.7341 -0.2202 0.6423
vn -0.7809 -0.6247 -0.0000
vn 0.7071 -0.0000 0.7071
vn -0.8495 -0.5191 -0.0944
vn 0.7571 0.4279 0.4937
vn -0.9081 -0.4146 -0.0592
vn 0.9246 0.3563 0.1348
vn -0.9808 -0.1941 0.0204
vn 0.7571 0.4279 -0.4937
vn -0.9081 -0.4146 0.0592
vn 0.6484 -0.0141 -0.7612
vn -0.8489 -0.5167 0.1107
vn -0.0285 -0.4846 0.8742
vn -0.1761 -0.4402 -0.8805
vn -0.2122 -0.8065 -0.5518
vn 0.6396 -0.4264 -0.6396
vn -0.2122 -0.8065 0.5518
vn -0.0204 -0.3466 -0.9378
vn -0.0992 -0.3638 -0.9262
vn -0.2425 -0.9701 -0.0000
vn -0.1761 -0.4402 0.8805
vn -0.9808 -0.1941 -0.0204
vn -0.9864 -0.1644 -0.0000
vn 0.9246 0.3563 -0.1348
vn 0.9864 0.1644 -0.0000
vn -0.0000 -0.4281 -0.9037
vn -0.2739 -0.8766 -0.3957
vn -0.8682 -0.4961 0.0138
vn -0.0000 -0.2425 -0.9701
vn -0.0000 -0.8137 0.5812
vn -0.0000 -0.2425 0.9701
vn -0.0000 0.2425 0.9701
vn -0.0000 0.8682 0.4961
vn -0.0000 0.8682 -0.4961
vt 1.000000 0.500000
vt 1.000000 1.000000
vt 0.900000 1.000000
vt 0.900000 0.500000
vt 0.600000 0.500000
vt 0.600000 1.000000
vt 0.500000 1.000000
vt 0.500000 0.500000
vt 0.400000 1.000000
vt 0.400000 0.500000
vt 0.300000 1.000000
vt 0.300000 0.500000
vt 0.233333 0.500000
vt 0.233333 1.000000
vt 0.200000 1.000000
vt 0.200000 0.500000
vt 0.250000 0.434361
vt 0.153430 0.405196
vt 0.100000 1.000000
vt 0.100000 0.500000
vt -0.000000 1.000000
vt -0.000000 0.500000
vt 0.846570 0.094804
vt 0.346570 0.094804
vt 0.891068 0.055836
vt 0.846570 0.405196
vt 0.750000 0.434361
vt 0.750000 0.490000
vt 0.891068 0.444164
vt 0.298285 0.419779
vt 0.346570 0.405196
vt 0.391068 0.444164
vt 0.750000 0.065639
vt 0.750000 0.010000
vt 0.298285 0.080221
vt 0.250000 0.065639
vt 0.250000 0.010000
vt 0.391068 0.055836
vt 0.653430 0.094804
vt 0.608932 0.055836
vt 0.153430 0.094804
vt 0.108932 0.055836
vt 0.593746 0.160012
vt 0.521746 0.175836
vt 0.093746 0.160012
vt 0.021746 0.175836
vt 0.593746 0.220004
vt 0.521746 0.225279
vt 0.093746 0.279996
vt 0.093746 0.339988
vt 0.021746 0.324164
vt 0.021746 0.274721
vt 0.653430 0.405196
vt 0.593746 0.339988
vt 0.521746 0.324164
vt 0.608932 0.444164
vt 0.108932 0.444164
vt 0.250000 0.490000
vt 0.093746 0.220004
vt 0.093746 0.220004
vt 0.021746 0.225279
vt 0.593746 0.279996
vt 0.521746 0.274721
vt 0.266667 1.000000
vt 0.266667 0.500000
vt 0.146739 0.725000
vt 0.147849 0.749874
vt 0.125077 0.722833
vt 0.609217 0.000000
vt 0.625000 0.033333
vt 0.608354 0.031925
vt 0.146739 0.525000
vt 0.125077 0.527167
vt 0.147849 0.500126
vt 0.625000 0.249828
vt 0.608396 0.274272
vt 0.608354 0.218075
vt 0.353261 0.725000
vt 0.391521 0.723909
vt 0.387935 0.770169
vt 0.645083 0.728139
vt 0.608391 0.774424
vt 0.608365 0.718326
vt 0.353261 0.525000
vt 0.387935 0.479831
vt 0.391521 0.526091
vt 0.645083 0.521861
vt 0.608365 0.531674
vt 0.608391 0.475576
vt 0.392436 0.000000
vt 0.391646 0.026083
vt 0.391609 0.272253
vt 0.391646 0.223917
vt 0.625000 0.975000
vt 0.608391 0.975576
vt 0.391609 0.977747
vt 0.850000 0.533333
vt 0.850000 0.716667
vt 0.375000 0.750000
vt 0.375000 0.500000
vt 0.625000 0.750000
vt 0.625000 0.500000
vt 0.800000 1.000000
vt 0.800000 0.500000
vt 0.700000 1.000000
vt 0.700000 0.500000
vt 0.978254 0.324164
vt 0.978254 0.175836
vt 0.478254 0.175836
vt 0.478254 0.324164
s 0
f 277/185/211 280/186/211 279/187/211 278/188/211
f 281/189/212 282/190/212 284/191/212 283/192/212
f 283/192/213 284/191/213 286/193/213 285/194/213
f 285/194/214 286/193/214 288/195/214 287/196/214
f 306/197/215 307/198/215 290/199/215 289/200/215
f 262/201/216 276/202/216 300/202/216 294/201/216
f 289/200/217 290/199/217 292/203/217 291/204/217
f 291/204/218 292/203/218 280/205/218 277/206/218
f 265/207/219 295/208/219 281/209/219
f 263/210/220 261/211/220 277/212/220 278/213/220
f 301/214/221 264/215/221 279/216/221
f 267/217/222 265/207/222 281/209/222 283/218/222
f 302/219/223 268/220/223 284/221/223 282/222/223
f 269/223/224 267/217/224 283/218/224 285/224/224
f 268/220/225 270/225/225 286/226/225 284/221/225
f 271/227/226 269/223/226 285/224/226 287/228/226
f 270/225/227 272/229/227 288/230/227 286/226/227
f 309/231/228 271/227/228 287/228/228 305/232/228
f 311/233/229 274/234/229 290/235/229 307/236/229
f 275/237/230 273/238/230 289/239/230 291/240/230
f 274/234/231 276/202/231 292/241/231 290/235/231
f 261/211/232 275/237/232 291/240/232 277/212/232
f 276/202/233 262/201/233 280/242/233 292/241/233
f 281/189/234 295/208/234 266/208/234 282/222/234
f 302/219/235 266/208/235 295/208/235 304/219/235
f 272/229/236 270/225/236 297/225/236 298/229/236
f 263/210/237 278/188/237 293/215/237
f 276/202/238 274/234/238 299/234/238 300/202/238
f 278/188/239 279/216/239 264/215/239 293/215/239
f 270/225/240 268/220/240 296/220/240 297/225/240
f 301/214/212 262/201/212 294/201/212 303/214/212
f 312/243/241 272/229/241 298/229/241 314/244/241
f 268/220/211 302/219/211 304/219/211 296/220/211
f 266/208/221 302/219/221 282/222/221
f 264/215/242 301/214/242 303/214/242 293/215/242
f 262/201/223 301/214/223 279/216/223 280/242/223
f 274/234/241 311/233/241 313/233/241 299/234/241
f 311/233/241 312/243/241 314/244/241 313/233/241
f 272/229/243 312/243/243 308/245/243 288/230/243
f 312/243/244 311/233/244 307/236/244 308/245/244
f 273/238/245 310/246/245 306/247/245 289/239/245
f 310/246/246 309/231/246 305/232/246 306/247/246
f 287/196/247 288/195/247 308/248/247 305/249/247
f 305/249/248 308/248/248 307/198/248 306/197/248
f 403/250/249 404/251/249 315/252/249
f 316/253/250 405/254/250 406/255/250
f 317/256/251 408/257/251 407/258/251
f 318/259/252 319/260/252 320/261/252
f 321/262/253 398/263/253 397/264/253
f 322/265/254 323/266/254 324/267/254
f 399/268/255 400/269/255 325/270/255
f 401/271/256 402/272/256 326/273/256
f 317/256/257 403/250/257 315/252/257 408/257/257
f 404/274/258 316/253/258 406/255/258 315/275/258
f 405/254/259 318/259/259 320/261/259 406/255/259
f 319/260/260 407/276/260 408/277/260 320/261/260
f 399/268/261 317/256/261 407/258/261 400/269/261
f 318/259/262 401/271/262 326/273/262 319/260/262
f 402/272/263 325/270/263 400/269/263 326/273/263
f 321/262/221 399/268/221 325/270/221 398/263/221
f 401/271/264 322/265/264 324/267/264 402/272/264
f 323/266/265 397/264/265 398/263/265 324/267/265
f 403/250/266 321/262/266 397/264/266 404/251/266
f 322/265/267 405/278/267 316/279/267 323/266/267
f 317/256/268 399/268/268 321/262/268 403/250/268
f 315/275/269 406/255/269 320/261/269 408/277/269
f 397/264/270 323/266/270 316/279/270 404/280/270
f 401/271/248 318/281/248 405/282/248 322/265/248
f 407/276/271 319/260/271 326/273/271 400/269/271
f 325/270/272 402/272/272 324/267/272 398/263/272
f 417/283/273 418/284/273 328/284/273 421/283/273
f 409/283/274 417/283/274 327/285/274 410/285/274
f 327/285/275 417/283/275 421/283/275
f 328/284/276 420/286/276 330/284/276
f 329/285/277 421/283/277 331/285/277
f 329/285/278 327/285/278 421/283/278
f 328/284/279 418/284/279 420/286/279
f 409/283/280 332/283/280 414/284/280 411/284/280
f 410/285/281 332/283/281 409/283/281
f 415/285/282 333/285/282 332/283/282
f 415/285/278 332/283/278 410/285/278
f 334/185/283 422/186/283 336/187/283 335/188/283
f 335/188/284 336/187/284 337/287/284 423/288/284
f 423/288/268 337/287/268 338/289/268 424/290/268
f 424/290/285 338/289/285 339/190/285 425/189/285
f 425/189/286 339/190/286 340/191/286 426/192/286
f 426/192/287 340/191/287 342/193/287 341/194/287
f 334/212/288 335/213/288 423/291/288 424/292/288 425/209/288 426/218/288 341/224/288 428/240/288
f 336/216/289 422/242/289 427/241/289 342/226/289 340/221/289 339/222/289 338/293/289 337/294/289
f 428/204/290 427/203/290 422/205/290 334/206/290
f 359/185/211 360/188/211 361/187/211 362/186/211
f 363/189/212 365/192/212 366/191/212 364/190/212
f 365/192/213 367/194/213 368/193/213 366/191/213
f 367/194/214 369/196/214 370/195/214 368/193/214
f 388/197/215 371/200/215 372/199/215 389/198/215
f 344/201/291 376/201/291 382/202/291 358/202/291
f 371/200/217 373/204/217 374/203/217 372/199/217
f 373/204/218 359/206/218 362/205/218 374/203/218
f 347/207/292 363/209/292 377/208/292
f 345/210/293 360/213/293 359/212/293 343/211/293
f 383/214/257 361/216/257 346/215/257
f 349/217/294 365/218/294 363/209/294 347/207/294
f 384/219/295 364/222/295 366/221/295 350/220/295
f 351/223/296 367/224/296 365/218/296 349/217/296
f 350/220/297 366/221/297 368/226/297 352/225/297
f 353/227/298 369/228/298 367/224/298 351/223/298
f 352/225/299 368/226/299 370/230/299 354/229/299
f 391/231/300 387/232/300 369/228/300 353/227/300
f 393/233/301 389/236/301 372/235/301 356/234/301
f 357/237/302 373/240/302 371/239/302 355/238/302
f 356/234/303 372/235/303 374/241/303 358/202/303
f 343/211/304 359/212/304 373/240/304 357/237/304
f 358/202/305 374/241/305 362/242/305 344/201/305
f 363/189/306 364/222/306 348/208/306 377/208/306
f 384/219/307 386/219/307 377/208/307 348/208/307
f 354/229/308 380/229/308 379/225/308 352/225/308
f 345/210/309 375/215/309 360/188/309
f 358/202/310 382/202/310 381/234/310 356/234/310
f 360/188/311 375/215/311 346/215/311 361/216/311
f 352/225/312 379/225/312 378/220/312 350/220/312
f 383/214/212 385/214/212 376/201/212 344/201/212
f 394/243/313 396/244/313 380/229/313 354/229/313
f 350/220/211 378/220/211 386/219/211 384/219/211
f 348/208/257 364/222/257 384/219/257
f 346/215/314 375/215/314 385/214/314 383/214/314
f 344/201/295 362/242/295 361/216/295 383/214/295
f 356/234/313 381/234/313 395/233/313 393/233/313
f 393/233/313 395/233/313 396/244/313 394/243/313
f 354/229/315 370/230/315 390/245/315 394/243/315
f 394/243/316 390/245/316 389/236/316 393/233/316
f 355/238/317 371/239/317 388/247/317 392/246/317
f 392/246/318 388/247/318 387/232/318 391/231/318
f 369/196/247 387/249/247 390/248/247 370/195/247
f 387/249/248 388/197/248 389/198/248 390/248/248
f 411/284/319 412/286/319 419/286/319 418/284/319
f 411/284/319 413/286/319 412/286/319
f 414/284/320 416/284/320 413/286/320
f 414/284/321 413/286/321 411/284/321
f 418/284/319 419/286/319 420/286/319
f 409/283/268 411/284/268 418/284/268 417/283/268
f 429/185/322 430/186/322 432/187/322 431/188/322
f 431/188/284 432/187/284 434/287/284 433/288/284
f 433/288/268 434/287/268 436/289/268 435/290/268
f 435/290/323 436/289/323 438/190/323 437/189/323
f 437/189/324 438/190/324 440/191/324 439/192/324
f 439/192/325 440/191/325 442/193/325 441/194/325
f 441/194/326 442/193/326 444/195/326 443/196/326
f 443/196/248 444/195/248 446/199/248 445/200/248
f 432/216/289 430/242/289 448/241/289 446/235/289 444/230/289 442/226/289 440/221/289 438/222/289 436/293/289 434/294/289
f 445/200/327 446/199/327 448/203/327 447/204/327
f 447/204/218 448/203/218 430/205/218 429/206/218
f 429/212/288 431/213/288 433/291/288 435/292/288 437/209/288 439/218/288 441/224/288 443/228/288 445/239/288 447/240/288
o Arm.R
v -0.380000 0.780000 0.040000
v -0.380000 1.040000 0.040000
v -0.380000 0.780000 -0.040000
v -0.380000 1.040000 -0.040000
v -0.300000 0.780000 0.040000
v -0.300000 1.040000 0.040000
v -0.300000 0.780000 -0.040000
v -0.300000 1.040000 -0.040000
v -0.400000 0.710000 -0.100000
v -0.290000 0.710000 -0.100000
v -0.400000 0.660000 -0.080000
v -0.290000 0.660000 -0.080000
v -0.400000 0.620000 -0.030000
v -0.290000 0.620000 -0.030000
v -0.400000 0.620000 0.030000
v -0.290000 0.620000 0.030000
v -0.400000 0.660000 0.080000
v -0.290000 0.660000 0.080000
v -0.400000 0.710000 0.100000
v -0.290000 0.710000 0.100000
v -0.400000 0.770000 0.080000
v -0.290000 0.770000 0.080000
v -0.400000 0.800000 0.030000
v -0.290000 0.800000 0.030000
v -0.400000 0.800000 -0.030000
v -0.290000 0.800000 -0.030000
v -0.400000 0.770000 -0.080000
v -0.290000 0.770000 -0.080000
v -0.300000 1.140000 -0.060000
v -0.300000 1.140000 0.050000
v -0.240000 1.120000 -0.060000
v -0.240000 1.120000 0.050000
v -0.200000 1.070000 -0.060000
v -0.200000 1.070000 0.050000
v -0.200000 1.010000 -0.060000
v -0.200000 1.010000 0.050000
v -0.240000 0.950000 -0.060000
v -0.240000 0.950000 0.050000
v -0.300000 0.930000 -0.060000
v -0.300000 0.930000 0.050000
v -0.370000 0.950000 -0.060000
v -0.370000 0.950000 0.050000
v -0.410000 1.010000 -0.060000
v -0.410000 1.010000 0.050000
v -0.410000 1.070000 -0.060000
v -0.410000 1.070000 0.050000
v -0.370000 1.120000 -0.060000
v -0.370000 1.120000 0.050000
vn -1.0000 -0.0000 -0.0000
vn -0.0000 -0.0000 -1.0000
vn 1.0000 -0.0000 -0.0000
vn -0.0000 -0.0000 1.0000
vn -0.0000 1.0000 -0.0000
vn -0.0000 -0.3714 -0.9285
vn -0.0000 -0.7809 -0.6247
vn -0.0000 -1.0000 -0.0000
vn -0.0000 -0.7809 0.6247
vn -0.0000 -0.3714 0.9285
vn -0.0000 0.3162 0.9487
vn -0.0000 0.8575 0.5145
vn -0.0000 0.8575 -0.5145
vn -0.0000 0.3162 -0.9487
vn 0.3162 0.9487 -0.0000
vn 0.7809 0.6247 -0.0000
vn 0.8321 -0.5547 -0.0000
vn 0.3162 -0.9487 -0.0000
vn -0.2747 -0.9615 -0.0000
vn -0.8321 -0.5547 -0.0000
vn -0.7809 0.6247 -0.0000
vn -0.2747 0.9615 -0.0000
vt 0.375000 0.000000
vt 0.625000 0.000000
vt 0.625000 0.250000
vt 0.375000 0.250000
vt 0.625000 0.500000
vt 0.375000 0.500000
vt 0.625000 0.750000
vt 0.375000 0.750000
vt 0.625000 1.000000
vt 0.375000 1.000000
vt 0.875000 0.500000
vt 0.875000 0.750000
vt 1.000000 0.500000
vt 1.000000 1.000000
vt 0.900000 1.000000
vt 0.900000 0.500000
vt 0.800000 1.000000
vt 0.800000 0.500000
vt 0.700000 1.000000
vt 0.700000 0.500000
vt 0.600000 1.000000
vt 0.600000 0.500000
vt 0.500000 1.000000
vt 0.500000 0.500000
vt 0.400000 1.000000
vt 0.400000 0.500000
vt 0.300000 1.000000
vt 0.300000 0.500000
vt 0.200000 1.000000
vt 0.200000 0.500000
vt 0.391068 0.444164
vt 0.250000 0.490000
vt 0.108932 0.444164
vt 0.021746 0.324164
vt 0.021746 0.175836
vt 0.108932 0.055836
vt 0.250000 0.010000
vt 0.391068 0.055836
vt 0.478254 0.175836
vt 0.478254 0.324164
vt 0.100000 1.000000
vt 0.100000 0.500000
vt -0.000000 1.000000
vt -0.000000 0.500000
vt 0.750000 0.490000
vt 0.891068 0.444164
vt 0.978254 0.324164
vt 0.978254 0.175836
vt 0.891068 0.055836
vt 0.750000 0.010000
vt 0.608932 0.055836
vt 0.521746 0.175836
vt 0.521746 0.324164
vt 0.608932 0.444164
vt 0.391068 0.444164
vt 0.250000 0.490000
vt 0.108932 0.444164
vt 0.021746 0.324164
vt 0.021746 0.175836
vt 0.108932 0.055836
vt 0.250000 0.010000
vt 0.391068 0.055836
vt 0.478254 0.175836
vt 0.478254 0.324164
vt 0.750000 0.490000
vt 0.891068 0.444164
vt 0.978254 0.324164
vt 0.978254 0.175836
vt 0.891068 0.055836
vt 0.750000 0.010000
vt 0.608932 0.055836
vt 0.521746 0.175836
vt 0.521746 0.324164
vt 0.608932 0.444164
s 0
f 449/295/328 450/296/328 452/297/328 451/298/328
f 451/298/329 452/297/329 456/299/329 455/300/329
f 455/300/330 456/299/330 454/301/330 453/302/330
f 453/302/331 454/301/331 450/303/331 449/304/331
f 456/299/332 452/305/332 450/306/332 454/301/332
f 457/307/333 458/308/333 460/309/333 459/310/333
f 459/310/334 460/309/334 462/311/334 461/312/334
f 461/312/335 462/311/335 464/313/335 463/314/335
f 463/314/336 464/313/336 466/315/336 465/316/336
f 465/316/337 466/315/337 468/317/337 467/318/337
f 467/318/338 468/317/338 470/319/338 469/320/338
f 469/320/339 470/319/339 472/321/339 471/322/339
f 471/322/332 472/321/332 474/323/332 473/324/332
f 460/325/330 458/326/330 476/327/330 474/328/330 472/329/330 470/330/330 468/331/330 466/332/330 464/333/330 462/334/330
f 473/324/340 474/323/340 476/335/340 475/336/340
f 475/336/341 476/335/341 458/337/341 457/338/341
f 457/339/328 459/340/328 461/341/328 463/342/328 465/343/328 467/344/328 469/345/328 471/346/328 473/347/328 475/348/328
f 477/307/342 478/308/342 480/309/342 479/310/342
f 479/310/343 480/309/343 482/311/343 481/312/343
f 481/312/330 482/311/330 484/313/330 483/314/330
f 483/314/344 484/313/344 486/315/344 485/316/344
f 485/316/345 486/315/345 488/317/345 487/318/345
f 487/318/346 488/317/346 490/319/346 489/320/346
f 489/320/347 490/319/347 492/321/347 491/322/347
f 491/322/328 492/321/328 494/323/328 493/324/328
f 480/349/331 478/350/331 496/351/331 494/352/331 492/353/331 490/354/331 488/355/331 486/356/331 484/357/331 482/358/331
f 493/324/348 494/323/348 496/335/348 495/336/348
f 495/336/349 496/335/349 478/337/349 477/338/349
f 477/359/329 479/360/329 481/361/329 483/362/329 485/363/329 487/364/329 489/365/329 491/366/329 493/367/329 495/368/329
o Arm.l
v 0.380000 0.710000 0.040000
v 0.380000 1.040000 0.040000
v 0.380000 0.710000 -0.040000
v 0.380000 1.040000 -0.040000
v 0.300000 0.710000 0.040000
v 0.300000 1.040000 0.040000
v 0.300000 0.710000 -0.040000
v 0.300000 1.040000 -0.040000
v 0.410000 0.710000 -0.100000
v 0.290000 0.710000 -0.100000
v 0.410000 0.660000 -0.080000
v 0.290000 0.660000 -0.080000
v 0.410000 0.620000 -0.030000
v 0.290000 0.620000 -0.030000
v 0.410000 0.620000 0.030000
v 0.290000 0.620000 0.030000
v 0.410000 0.660000 0.080000
v 0.290000 0.660000 0.080000
v 0.410000 0.710000 0.100000
v 0.290000 0.710000 0.100000
v 0.410000 0.770000 0.080000
v 0.290000 0.770000 0.080000
v 0.410000 0.800000 0.030000
v 0.290000 0.800000 0.030000
v 0.410000 0.800000 -0.030000
v 0.290000 0.800000 -0.030000
v 0.410000 0.770000 -0.080000
v 0.290000 0.770000 -0.080000
v 0.300000 1.140000 -0.060000
v 0.300000 1.140000 0.060000
v 0.240000 1.120000 -0.060000
v 0.240000 1.120000 0.060000
v 0.200000 1.070000 -0.060000
v 0.200000 1.070000 0.060000
v 0.200000 1.010000 -0.060000
v 0.200000 1.010000 0.060000
v 0.240000 0.950000 -0.060000
v 0.240000 0.950000 0.060000
v 0.300000 0.930000 -0.060000
v 0.300000 0.930000 0.060000
v 0.370000 0.950000 -0.060000
v 0.370000 0.950000 0.060000
v 0.410000 1.010000 -0.060000
v 0.410000 1.010000 0.060000
v 0.410000 1.070000 -0.060000
v 0.410000 1.070000 0.060000
v 0.370000 1.120000 -0.060000
v 0.370000 1.120000 0.060000
vn 1.0000 -0.0000 -0.0000
vn -0.0000 -0.0000 -1.0000
vn -1.0000 -0.0000 -0.0000
vn -0.0000 -0.0000 1.0000
vn -0.0000 1.0000 -0.0000
vn -0.0000 -0.3714 -0.9285
vn -0.0000 -0.7809 -0.6247
vn -0.0000 -1.0000 -0.0000
vn -0.0000 -0.7809 0.6247
vn -0.0000 -0.3714 0.9285
vn -0.0000 0.3162 0.9487
vn -0.0000 0.8575 0.5145
vn -0.0000 0.8575 -0.5145
vn -0.0000 0.3162 -0.9487
vn -0.3162 0.9487 -0.0000
vn -0.7809 0.6247 -0.0000
vn -0.8321 -0.5547 -0.0000
vn -0.3162 -0.9487 -0.0000
vn 0.2747 -0.9615 -0.0000
vn 0.8321 -0.5547 -0.0000
vn 0.7809 0.6247 -0.0000
vn 0.2747 0.9615 -0.0000
vt 0.375000 0.000000
vt 0.375000 0.250000
vt 0.625000 0.250000
vt 0.625000 0.000000
vt 0.375000 0.500000
vt 0.625000 0.500000
vt 0.375000 0.750000
vt 0.625000 0.750000
vt 0.375000 1.000000
vt 0.625000 1.000000
vt 0.875000 0.750000
vt 0.875000 0.500000
vt 1.000000 0.500000
vt 0.900000 0.500000
vt 0.900000 1.000000
vt 1.000000 1.000000
vt 0.800000 0.500000
vt 0.800000 1.000000
vt 0.700000 0.500000
vt 0.700000 1.000000
vt 0.600000 0.500000
vt 0.600000 1.000000
vt 0.500000 0.500000
vt 0.500000 1.000000
vt 0.400000 0.500000
vt 0.400000 1.000000
vt 0.300000 0.500000
vt 0.300000 1.000000
vt 0.200000 0.500000
vt 0.200000 1.000000
vt 0.391068 0.444164
vt 0.478254 0.324164
vt 0.478254 0.175836
vt 0.391068 0.055836
vt 0.250000 0.010000
vt 0.108932 0.055836
vt 0.021746 0.175836
vt 0.021746 0.324164
vt 0.108932 0.444164
vt 0.250000 0.490000
vt 0.100000 0.500000
vt 0.100000 1.000000
vt -0.000000 0.500000
vt -0.000000 1.000000
vt 0.750000 0.490000
vt 0.608932 0.444164
vt 0.521746 0.324164
vt 0.521746 0.175836
vt 0.608932 0.055836
vt 0.750000 0.010000
vt 0.891068 0.055836
vt 0.978254 0.175836
vt 0.978254 0.324164
vt 0.891068 0.444164
vt 0.391068 0.444164
vt 0.478254 0.324164
vt 0.478254 0.175836
vt 0.391068 0.055836
vt 0.250000 0.010000
vt 0.108932 0.055836
vt 0.021746 0.175836
vt 0.021746 0.324164
vt 0.108932 0.444164
vt 0.250000 0.490000
vt 0.750000 0.490000
vt 0.608932 0.444164
vt 0.521746 0.324164
vt 0.521746 0.175836
vt 0.608932 0.055836
vt 0.750000 0.010000
vt 0.891068 0.055836
vt 0.978254 0.175836
vt 0.978254 0.324164
vt 0.891068 0.444164
s 0
f 497/369/350 499/370/350 500/371/350 498/372/350
f 499/370/351 503/373/351 504/374/351 500/371/351
f 503/373/352 501/375/352 502/376/352 504/374/352
f 501/375/353 497/377/353 498/378/353 502/376/353
f 504/374/354 502/376/354 498/379/354 500/380/354
f 505/381/355 507/382/355 508/383/355 506/384/355
f 507/382/356 509/385/356 510/386/356 508/383/356
f 509/385/357 511/387/357 512/388/357 510/386/357
f 511/387/358 513/389/358 514/390/358 512/388/358
f 513/389/359 515/391/359 516/392/359 514/390/359
f 515/391/360 517/393/360 518/394/360 516/392/360
f 517/393/361 519/395/361 520/396/361 518/394/361
f 519/395/354 521/397/354 522/398/354 520/396/354
f 508/399/352 510/400/352 512/401/352 514/402/352 516/403/352 518/404/352 520/405/352 522/406/352 524/407/352 506/408/352
f 521/397/362 523/409/362 524/410/362 522/398/362
f 523/409/363 505/411/363 506/412/363 524/410/363
f 505/413/350 523/414/350 521/415/350 519/416/350 517/417/350 515/418/350 513/419/350 511/420/350 509/421/350 507/422/350
f 525/381/364 527/382/364 528/383/364 526/384/364
f 527/382/365 529/385/365 530/386/365 528/383/365
f 529/385/352 531/387/352 532/388/352 530/386/352
f 531/387/366 533/389/366 534/390/366 532/388/366
f 533/389/367 535/391/367 536/392/367 534/390/367
f 535/391/368 537/393/368 538/394/368 536/392/368
f 537/393/369 539/395/369 540/396/369 538/394/369
f 539/395/350 541/397/350 542/398/350 540/396/350
f 528/423/353 530/424/353 532/425/353 534/426/353 536/427/353 538/428/353 540/429/353 542/430/353 544/431/353 526/432/353
f 541/397/370 543/409/370 544/410/370 542/398/370
f 543/409/371 525/411/371 526/412/371 544/410/371
f 525/433/351 543/434/351 541/435/351 539/436/351 537/437/351 535/438/351 533/439/351 531/440/351 529/441/351 527/442/351
o Arm.R.f
v -0.380000 0.470000 0.060000
v -0.380000 0.640000 0.040000
v -0.380000 0.470000 -0.060000
v -0.380000 0.640000 -0.040000
v -0.300000 0.470000 0.060000
v -0.300000 0.640000 0.040000
v -0.300000 0.470000 -0.060000
v -0.300000 0.640000 -0.040000
v -0.340000 0.430000 -0.080000
v -0.340000 0.510000 -0.080000
v -0.290000 0.430000 -0.060000
v -0.290000 0.510000 -0.060000
v -0.260000 0.430000 -0.020000
v -0.260000 0.510000 -0.020000
v -0.260000 0.430000 0.020000
v -0.260000 0.510000 0.020000
v -0.290000 0.430000 0.060000
v -0.290000 0.510000 0.060000
v -0.340000 0.430000 0.080000
v -0.340000 0.510000 0.080000
v -0.390000 0.430000 0.060000
v -0.390000 0.510000 0.060000
v -0.420000 0.430000 0.020000
v -0.420000 0.510000 0.020000
v -0.420000 0.430000 -0.020000
v -0.420000 0.510000 -0.020000
v -0.390000 0.430000 -0.060000
v -0.390000 0.510000 -0.060000
vn -1.0000 -0.0000 -0.0000
vn -0.0000 0.1168 -0.9932
vn 1.0000 -0.0000 -0.0000
vn -0.0000 0.1168 0.9932
vn 0.3714 -0.0000 -0.9285
vn 0.8000 -0.0000 -0.6000
vn 0.8000 -0.0000 0.6000
vn 0.3714 -0.0000 0.9285
vn -0.3714 -0.0000 0.9285
vn -0.8000 -0.0000 0.6000
vn -0.0000 1.0000 -0.0000
vn -0.8000 -0.0000 -0.6000
vn -0.3714 -0.0000 -0.9285
vn -0.0000 -1.0000 -0.0000
vt 0.375000 0.000000
vt 0.625000 0.000000
vt 0.625000 0.250000
vt 0.375000 0.250000
vt 0.625000 0.500000
vt 0.375000 0.500000
vt 0.625000 0.750000
vt 0.375000 0.750000
vt 0.625000 1.000000
vt 0.375000 1.000000
vt 1.000000 0.500000
vt 1.000000 1.000000
vt 0.900000 1.000000
vt 0.900000 0.500000
vt 0.800000 1.000000
vt 0.800000 0.500000
vt 0.700000 1.000000
vt 0.700000 0.500000
vt 0.600000 1.000000
vt 0.600000 0.500000
vt 0.500000 1.000000
vt 0.500000 0.500000
vt 0.400000 1.000000
vt 0.400000 0.500000
vt 0.300000 1.000000
vt 0.300000 0.500000
vt 0.200000 1.000000
vt 0.200000 0.500000
vt 0.391068 0.444164
vt 0.250000 0.490000
vt 0.108932 0.444164
vt 0.021746 0.324164
vt 0.021746 0.175836
vt 0.108932 0.055836
vt 0.250000 0.010000
vt 0.391068 0.055836
vt 0.478254 0.175836
vt 0.478254 0.324164
vt 0.100000 1.000000
vt 0.100000 0.500000
vt -0.000000 1.000000
vt -0.000000 0.500000
vt 0.750000 0.490000
vt 0.891068 0.444164
vt 0.978254 0.324164
vt 0.978254 0.175836
vt 0.891068 0.055836
vt 0.750000 0.010000
vt 0.608932 0.055836
vt 0.521746 0.175836
vt 0.521746 0.324164
vt 0.608932 0.444164
s 0
f 545/443/372 546/444/372 548/445/372 547/446/372
f 547/446/373 548/445/373 552/447/373 551/448/373
f 551/448/374 552/447/374 550/449/374 549/450/374
f 549/450/375 550/449/375 546/451/375 545/452/375
f 553/453/376 554/454/376 556/455/376 555/456/376
f 555/456/377 556/455/377 558/457/377 557/458/377
f 557/458/374 558/457/374 560/459/374 559/460/374
f 559/460/378 560/459/378 562/461/378 561/462/378
f 561/462/379 562/461/379 564/463/379 563/464/379
f 563/464/380 564/463/380 566/465/380 565/466/380
f 565/466/381 566/465/381 568/467/381 567/468/381
f 567/468/372 568/467/372 570/469/372 569/470/372
f 556/471/382 554/472/382 572/473/382 570/474/382 568/475/382 566/476/382 564/477/382 562/478/382 560/479/382 558/480/382
f 569/470/383 570/469/383 572/481/383 571/482/383
f 571/482/384 572/481/384 554/483/384 553/484/384
f 553/485/385 555/486/385 557/487/385 559/488/385 561/489/385 563/490/385 565/491/385 567/492/385 569/493/385 571/494/385
o Arm.l.f
v 0.380000 0.470000 0.060000
v 0.380000 0.650000 0.040000
v 0.380000 0.470000 -0.060000
v 0.380000 0.650000 -0.040000
v 0.300000 0.470000 0.060000
v 0.300000 0.650000 0.040000
v 0.300000 0.470000 -0.060000
v 0.300000 0.650000 -0.040000
v 0.340000 0.430000 -0.080000
v 0.340000 0.510000 -0.080000
v 0.290000 0.430000 -0.060000
v 0.290000 0.510000 -0.060000
v 0.260000 0.430000 -0.020000
v 0.260000 0.510000 -0.020000
v 0.260000 0.430000 0.020000
v 0.260000 0.510000 0.020000
v 0.290000 0.430000 0.060000
v 0.290000 0.510000 0.060000
v 0.340000 0.430000 0.080000
v 0.340000 0.510000 0.080000
v 0.390000 0.430000 0.060000
v 0.390000 0.510000 0.060000
v 0.420000 0.430000 0.020000
v 0.420000 0.510000 0.020000
v 0.420000 0.430000 -0.020000
v 0.420000 0.510000 -0.020000
v 0.390000 0.430000 -0.060000
v 0.390000 0.510000 -0.060000
vn 1.0000 -0.0000 -0.0000
vn -0.0000 0.1104 -0.9939
vn -1.0000 -0.0000 -0.0000
vn -0.0000 0.1104 0.9939
vn -0.3714 -0.0000 -0.9285
vn -0.8000 -0.0000 -0.6000
vn -0.8000 -0.0000 0.6000
vn -0.3714 -0.0000 0.9285
vn 0.3714 -0.0000 0.9285
vn 0.8000 -0.0000 0.6000
vn -0.0000 1.0000 -0.0000
vn 0.8000 -0.0000 -0.6000
vn 0.3714 -0.0000 -0.9285
vn -0.0000 -1.0000 -0.0000
vt 0.375000 0.000000
vt 0.375000 0.250000
vt 0.625000 0.250000
vt 0.625000 0.000000
vt 0.375000 0.500000
vt 0.625000 0.500000
vt 0.375000 0.750000
vt 0.625000 0.750000
vt 0.375000 1.000000
vt 0.625000 1.000000
vt 1.000000 0.500000
vt 0.900000 0.500000
vt 0.900000 1.000000
vt 1.000000 1.000000
vt 0.800000 0.500000
vt 0.800000 1.000000
vt 0.700000 0.500000
vt 0.700000 1.000000
vt 0.600000 0.500000
vt 0.600000 1.000000
vt 0.500000 0.500000
vt 0.500000 1.000000
vt 0.400000 0.500000
vt 0.400000 1.000000
vt 0.300000 0.500000
vt 0.300000 1.000000
vt 0.200000 0.500000
vt 0.200000 1.000000
vt 0.391068 0.444164
vt 0.478254 0.324164
vt 0.478254 0.175836
vt 0.391068 0.055836
vt 0.250000 0.010000
vt 0.108932 0.055836
vt 0.021746 0.175836
vt 0.021746 0.324164
vt 0.108932 0.444164
vt 0.250000 0.490000
vt 0.100000 0.500000
vt 0.100000 1.000000
vt -0.000000 0.500000
vt -0.000000 1.000000
vt 0.750000 0.490000
vt 0.608932 0.444164
vt 0.521746 0.324164
vt 0.521746 0.175836
vt 0.608932 0.055836
vt 0.750000 0.010000
vt 0.891068 0.055836
vt 0.978254 0.175836
vt 0.978254 0.324164
vt 0.891068 0.444164
s 0
f 573/495/386 575/496/386 576/497/386 574/498/386
f 575/496/387 579/499/387 580/500/387 576/497/387
f 579/499/388 577/501/388 578/502/388 580/500/388
f 577/501/389 573/503/389 574/504/389 578/502/389
f 581/505/390 583/506/390 584/507/390 582/508/390
f 583/506/391 585/509/391 586/510/391 584/507/391
f 585/509/388 587/511/388 588/512/388 586/510/388
f 587/511/392 589/513/392 590/514/392 588/512/392
f 589/513/393 591/515/393 592/516/393 590/514/393
f 591/515/394 593/517/394 594/518/394 592/516/394
f 593/517/395 595/519/395 596/520/395 594/518/395
f 595/519/386 597/521/386 598/522/386 596/520/386
f 584/523/396 586/524/396 588/525/396 590/526/396 592/527/396 594/528/396 596/529/396 598/530/396 600/531/396 582/532/396
f 597/521/397 599/533/397 600/534/397 598/522/397
f 599/533/398 581/535/398 582/536/398 600/534/398
f 581/537/399 599/538/399 597/539/399 595/540/399 593/541/399 591/542/399 589/543/399 587/544/399 585/545/399 583/546/399
o Leg.L.f
v 0.090000 0.280000 0.060000
v 0.070000 0.450000 0.060000
v 0.090000 0.280000 -0.070000
v 0.070000 0.450000 -0.070000
v 0.200000 0.280000 0.060000
v 0.220000 0.450000 0.060000
v 0.200000 0.280000 -0.070000
v 0.220000 0.450000 -0.070000
v 0.070000 0.210000 -0.110000
v 0.220000 0.210000 -0.110000
v 0.070000 0.150000 -0.090000
v 0.220000 0.150000 -0.090000
v 0.070000 0.110000 -0.040000
v 0.220000 0.110000 -0.040000
v 0.070000 0.110000 0.030000
v 0.220000 0.110000 0.030000
v 0.070000 0.150000 0.080000
v 0.220000 0.150000 0.080000
v 0.070000 0.210000 0.100000
v 0.220000 0.210000 0.100000
v 0.070000 0.270000 0.080000
v 0.220000 0.270000 0.080000
v 0.070000 0.310000 0.030000
v 0.220000 0.310000 0.030000
v 0.070000 0.310000 -0.040000
v 0.220000 0.310000 -0.040000
v 0.070000 0.270000 -0.090000
v 0.220000 0.270000 -0.090000
vn -0.9932 -0.1168 -0.0000
vn -0.0000 -0.0000 -1.0000
vn 0.9932 -0.1168 -0.0000
vn -0.0000 -0.0000 1.0000
vn -0.0000 -0.3162 -0.9487
vn -0.0000 -0.7809 -0.6247
vn -0.0000 -1.0000 -0.0000
vn -0.0000 -0.7809 0.6247
vn -0.0000 -0.3162 0.9487
vn -0.0000 0.3162 0.9487
vn -0.0000 0.7809 0.6247
vn -0.0000 1.0000 -0.0000
vn 1.0000 -0.0000 -0.0000
vn -0.0000 0.7809 -0.6247
vn -0.0000 0.3162 -0.9487
vn -1.0000 -0.0000 -0.0000
vt 0.375000 0.000000
vt 0.625000 0.000000
vt 0.625000 0.250000
vt 0.375000 0.250000
vt 0.625000 0.500000
vt 0.375000 0.500000
vt 0.625000 0.750000
vt 0.375000 0.750000
vt 0.625000 1.000000
vt 0.375000 1.000000
vt 1.000000 0.500000
vt 1.000000 1.000000
vt 0.900000 1.000000
vt 0.900000 0.500000
vt 0.800000 1.000000
vt 0.800000 0.500000
vt 0.700000 1.000000
vt 0.700000 0.500000
vt 0.600000 1.000000
vt 0.600000 0.500000
vt 0.500000 1.000000
vt 0.500000 0.500000
vt 0.400000 1.000000
vt 0.400000 0.500000
vt 0.300000 1.000000
vt 0.300000 0.500000
vt 0.200000 1.000000
vt 0.200000 0.500000
vt 0.391068 0.444164
vt 0.250000 0.490000
vt 0.108932 0.444164
vt 0.021746 0.324164
vt 0.021746 0.175836
vt 0.108932 0.055836
vt 0.250000 0.010000
vt 0.391068 0.055836
vt 0.478254 0.175836
vt 0.478254 0.324164
vt 0.100000 1.000000
vt 0.100000 0.500000
vt -0.000000 1.000000
vt -0.000000 0.500000
vt 0.750000 0.490000
vt 0.891068 0.444164
vt 0.978254 0.324164
vt 0.978254 0.175836
vt 0.891068 0.055836
vt 0.750000 0.010000
vt 0.608932 0.055836
vt 0.521746 0.175836
vt 0.521746 0.324164
vt 0.608932 0.444164
s 0
f 601/547/400 602/548/400 604/549/400 603/550/400
f 603/550/401 604/549/401 608/551/401 607/552/401
f 607/552/402 608/551/402 606/553/402 605/554/402
f 605/554/403 606/553/403 602/555/403 601/556/403
f 609/557/404 610/558/404 612/559/404 611/560/404
f 611/560/405 612/559/405 614/561/405 613/562/405
f 613/562/406 614/561/406 616/563/406 615/564/406
f 615/564/407 616/563/407 618/565/407 617/566/407
f 617/566/408 618/565/408 620/567/408 619/568/408
f 619/568/409 620/567/409 622/569/409 621/570/409
f 621/570/410 622/569/410 624/571/410 623/572/410
f 623/572/411 624/571/411 626/573/411 625/574/411
f 612/575/412 610/576/412 628/577/412 626/578/412 624/579/412 622/580/412 620/581/412 618/582/412 616/583/412 614/584/412
f 625/574/413 626/573/413 628/585/413 627/586/413
f 627/586/414 628/585/414 610/587/414 609/588/414
f 609/589/415 611/590/415 613/591/415 615/592/415 617/593/415 619/594/415 621/595/415 623/596/415 625/597/415 627/598/415
o Leg.R.f
v -0.200000 0.280000 0.060000
v -0.220000 0.450000 0.060000
v -0.200000 0.280000 -0.070000
v -0.220000 0.450000 -0.070000
v -0.090000 0.280000 0.060000
v -0.070000 0.450000 0.060000
v -0.090000 0.280000 -0.070000
v -0.070000 0.450000 -0.070000
v -0.220000 0.210000 -0.110000
v -0.070000 0.210000 -0.110000
v -0.220000 0.150000 -0.090000
v -0.070000 0.150000 -0.090000
v -0.220000 0.110000 -0.040000
v -0.070000 0.110000 -0.040000
v -0.220000 0.110000 0.030000
v -0.070000 0.110000 0.030000
v -0.220000 0.150000 0.080000
v -0.070000 0.150000 0.080000
v -0.220000 0.210000 0.100000
v -0.070000 0.210000 0.100000
v -0.220000 0.270000 0.080000
v -0.070000 0.270000 0.080000
v -0.220000 0.310000 0.030000
v -0.070000 0.310000 0.030000
v -0.220000 0.310000 -0.040000
v -0.070000 0.310000 -0.040000
v -0.220000 0.270000 -0.090000
v -0.070000 0.270000 -0.090000
vn -0.9932 -0.1168 -0.0000
vn -0.0000 -0.0000 -1.0000
vn 0.9932 -0.1168 -0.0000
vn -0.0000 -0.0000 1.0000
vn -0.0000 -0.3162 -0.9487
vn -0.0000 -0.7809 -0.6247
vn -0.0000 -1.0000 -0.0000
vn -0.0000 -0.7809 0.6247
vn -0.0000 -0.3162 0.9487
vn -0.0000 0.3162 0.9487
vn -0.0000 0.7809 0.6247
vn -0.0000 1.0000 -0.0000
vn 1.0000 -0.0000 -0.0000
vn -0.0000 0.7809 -0.6247
vn -0.0000 0.3162 -0.9487
vn -1.0000 -0.0000 -0.0000
vt 0.375000 0.000000
vt 0.625000 0.000000
vt 0.625000 0.250000
vt 0.375000 0.250000
vt 0.625000 0.500000
vt 0.375000 0.500000
vt 0.625000 0.750000
vt 0.375000 0.750000
vt 0.625000 1.000000
vt 0.375000 1.000000
vt 1.000000 0.500000
vt 1.000000 1.000000
vt 0.900000 1.000000
vt 0.900000 0.500000
vt 0.800000 1.000000
vt 0.800000 0.500000
vt 0.700000 1.000000
vt 0.700000 0.500000
vt 0.600000 1.000000
vt 0.600000 0.500000
vt 0.500000 1.000000
vt 0.500000 0.500000
vt 0.400000 1.000000
vt 0.400000 0.500000
vt 0.300000 1.000000
vt 0.300000 0.500000
vt 0.200000 1.000000
vt 0.200000 0.500000
vt 0.391068 0.444164
vt 0.250000 0.490000
vt 0.108932 0.444164
vt 0.021746 0.324164
vt 0.021746 0.175836
vt 0.108932 0.055836
vt 0.250000 0.010000
vt 0.391068 0.055836
vt 0.478254 0.175836
vt 0.478254 0.324164
vt 0.100000 1.000000
vt 0.100000 0.500000
vt -0.000000 1.000000
vt -0.000000 0.500000
vt 0.750000 0.490000
vt 0.891068 0.444164
vt 0.978254 0.324164
vt 0.978254 0.175836
vt 0.891068 0.055836
vt 0.750000 0.010000
vt 0.608932 0.055836
vt 0.521746 0.175836
vt 0.521746 0.324164
vt 0.608932 0.444164
s 0
f 629/599/416 630/600/416 632/601/416 631/602/416
f 631/602/417 632/601/417 636/603/417 635/604/417
f 635/604/418 636/603/418 634/605/418 633/606/418
f 633/606/419 634/605/419 630/607/419 629/608/419
f 637/609/420 638/610/420 640/611/420 639/612/420
f 639/612/421 640/611/421 642/613/421 641/614/421
f 641/614/422 642/613/422 644/615/422 643/616/422
f 643/616/423 644/615/423 646/617/423 645/618/423
f 645/618/424 646/617/424 648/619/424 647/620/424
f 647/620/425 648/619/425 650/621/425 649/622/425
f 649/622/426 650/621/426 652/623/426 651/624/426
f 651/624/427 652/623/427 654/625/427 653/626/427
f 640/627/428 638/628/428 656/629/428 654/630/428 652/631/428 650/632/428 648/633/428 646/634/428 644/635/428 642/636/428
f 653/626/429 654/625/429 656/637/429 655/638/429
f 655/638/430 656/637/430 638/639/430 637/640/430
f 637/641/431 639/642/431 641/643/431 643/644/431 645/645/431 647/646/431 649/647/431 651/648/431 653/649/431 655/650/431
