# Blender 4.4.3
# www.blender.org
o poppy
v -0.024040 -0.010000 0.045600
v 0.012560 0.250000 -0.014400
v 0.005660 -0.010000 0.028453
v 0.032360 0.250000 -0.025832
v 0.005660 -0.010000 0.062747
v 0.032360 0.250000 -0.002968
v 0.002560 0.470000 -0.044400
v 0.022360 0.470000 -0.055832
v 0.022360 0.470000 -0.032968
v -0.026240 0.650000 -0.034400
v -0.008240 0.650000 -0.044792
v -0.008240 0.650000 -0.024008
v -0.036240 0.840000 -0.004400
v -0.018240 0.840000 -0.014792
v -0.018240 0.840000 0.005992
v -0.004240 1.050000 -0.004400
v -0.004462 1.153083 -0.034797
v -0.072345 1.130050 -0.018669
v -0.100462 1.074444 0.020267
v -0.072345 1.018839 0.059202
v -0.004462 0.995806 0.075330
v 0.063420 1.018839 0.059202
v 0.091538 1.074444 0.020267
v 0.063420 1.130050 -0.018669
v -0.004462 1.054711 0.000533
v -0.024240 -0.200000 0.045600
v -0.085116 0.075953 0.077817
v -0.068802 0.085991 0.069748
v -0.068802 0.080611 0.089824
v -0.124240 0.167444 0.095011
v 0.060356 0.076143 0.045208
v 0.046567 0.087713 0.055600
v 0.060356 0.076143 0.065992
v 0.085760 0.200000 0.045600
v 0.001760 0.115961 0.097087
v -0.016240 0.110000 0.105600
v 0.001760 0.104039 0.114113
v -0.044240 0.220000 0.135600
v -0.008240 0.093320 -0.032361
v -0.026240 0.100000 -0.024400
v -0.008240 0.106680 -0.016439
v -0.004240 0.190000 -0.054400
v -0.027140 0.945000 0.000600
v -0.012290 0.945000 0.009174
v -0.012290 0.945000 -0.007974
v 0.067867 0.612775 -0.085144
v 0.079707 0.606730 -0.091055
v 0.079707 0.610495 -0.077001
v 0.145760 0.750000 -0.154400
v -0.061691 0.610091 -0.006232
v -0.071220 0.599908 -0.002086
v -0.059808 0.603064 0.006368
v -0.164240 0.716937 0.064350
v 0.029960 0.575144 0.010456
v 0.017360 0.570000 0.015600
v 0.029960 0.564856 0.020744
v 0.035760 0.640000 0.095600
v -0.028861 0.160471 0.016247
v -0.044999 0.159059 0.025600
v -0.028861 0.160471 0.034953
v -0.024240 0.270000 0.035600
v 0.078814 0.372490 0.000039
v 0.089233 0.369867 -0.006924
v 0.089233 0.367643 0.005685
v 0.105760 0.500000 0.005600
v -0.010053 0.314572 -0.001252
v -0.022614 0.306331 0.004264
v -0.010053 0.309098 0.013787
v -0.064240 0.410000 0.055600
v 0.024338 1.061911 0.007733
v -0.033262 1.061911 0.007733
v -0.004462 1.038319 0.024252
v -0.004462 1.085503 -0.008786
v 0.015902 1.045229 0.019414
v -0.024827 1.078593 -0.003947
v 0.015902 1.078593 -0.003947
v -0.024827 1.045229 0.019414
v -0.004462 1.081911 0.027733
vn -0.9806 0.1631 0.1087
vn -0.9848 0.1072 -0.1364
vn 0.4811 -0.2262 -0.8470
vn 0.4956 -0.2260 -0.8386
vn 0.6035 0.1366 0.7856
vn 0.4029 0.1852 0.8963
vn -0.9964 -0.0348 0.0770
vn 0.4829 0.1398 0.8644
vn 0.5103 0.1389 0.8487
vn -0.9959 -0.0550 -0.0715
vn 0.5308 -0.1587 0.8325
vn -1.0000 0.0011 -0.0000
vn -0.1041 -0.9946 -0.0000
vn -0.9872 -0.1560 -0.0342
vn 0.5751 0.0571 0.8161
vn 0.4914 -0.0392 0.8701
vn -0.9948 -0.0960 -0.0346
vn 0.5518 -0.0880 -0.8293
vn 0.4498 -0.1006 -0.8875
vn 0.4635 -0.0841 0.8821
vn -0.9995 0.0106 0.0293
vn 0.5429 0.1430 -0.8276
vn 0.4550 0.1437 -0.8788
vn -0.9892 0.1447 0.0250
vn 0.4786 0.0131 0.8779
vn 0.1222 0.9914 -0.0470
vn 0.4890 0.0997 -0.8666
vn 0.5000 0.0097 -0.8659
vn -0.1082 0.7641 0.6360
vn -0.2457 0.4695 0.8480
vn 0.1426 0.8143 0.5627
vn 0.3187 0.4302 0.8446
vn -0.3332 0.6480 0.6848
vn 0.1280 0.2873 0.9492
vn -0.1280 0.2873 0.9492
vn 0.3332 0.6480 0.6848
vn 0.5308 -0.1587 -0.8325
vn -0.8360 -0.4818 -0.2626
vn 0.6785 0.3284 0.6571
vn 0.3585 0.0760 0.9304
vn -0.8822 -0.4638 -0.0817
vn 0.4974 0.6501 -0.5745
vn 0.3434 0.5443 -0.7653
vn -0.4934 0.8555 0.1574
vn -0.2113 0.1787 -0.9610
vn 0.7964 -0.6031 0.0450
vn 0.8867 -0.4578 -0.0640
vn -0.5149 0.1556 -0.8430
vn -0.2319 -0.0171 0.9726
vn -0.5624 0.1388 0.8151
vn -0.2436 -0.9666 0.0803
vn -0.9621 0.1627 -0.2189
vn 0.6049 -0.3085 0.7341
vn 0.5172 -0.1886 0.8348
vn -0.9943 -0.1054 0.0167
vn 0.3667 0.4591 -0.8092
vn 0.5888 0.4747 -0.6542
vn -0.3298 0.9104 0.2497
vn -0.3555 -0.5627 -0.7463
vn 0.9498 -0.1424 -0.2784
vn 0.9912 -0.0712 0.1116
vn -0.4947 -0.4360 -0.7518
vn -0.6600 0.3150 0.6820
vn -0.4590 0.3157 0.8304
vn -0.1040 -0.9427 0.3171
vn -0.2704 -0.1809 -0.9456
vn 0.8954 -0.4367 -0.0872
vn 0.8982 -0.4341 0.0691
vn -0.4933 -0.1497 -0.8569
vn -0.3494 0.3660 0.8625
vn -0.4374 0.4606 0.7724
vn -0.4082 -0.8167 0.4079
vn -0.8780 -0.4154 -0.2378
vn 0.6867 0.2060 0.6971
vn 0.4978 0.0190 0.8671
vn -0.8507 -0.4897 -0.1912
vn 0.5308 0.5519 -0.6431
vn 0.3397 0.6161 -0.7106
vn -0.6096 0.6865 0.3964
vn -0.5786 0.4312 -0.6923
vn 0.9382 -0.2637 0.2240
vn 0.9870 -0.1601 -0.0152
vn -0.5388 0.5310 -0.6540
vn -0.3112 -0.4927 0.8126
vn -0.4774 -0.5785 0.6613
vn -0.0934 -0.6558 -0.7491
vn -0.9911 -0.1144 0.0682
vn 0.5199 0.2393 0.8201
vn 0.4597 0.1109 0.8811
vn -0.9986 0.0201 -0.0490
vn 0.5922 0.0617 -0.8035
vn 0.4156 0.0817 -0.9059
vn 0.0894 0.9919 0.0897
vn -0.4669 0.1557 0.8705
vn -0.4620 0.1108 0.8799
vn -0.4613 0.1055 0.8809
vn -0.2592 -0.0239 0.9655
vn -0.9028 0.4292 0.0269
vn -0.9556 0.2935 0.0249
vn -0.5432 0.0492 0.8381
vn 0.4651 -0.3483 0.8138
vn 0.4963 -0.2520 0.8307
vn -0.4549 0.0574 0.8887
vn -0.4671 -0.0257 0.8838
vn 0.4334 0.5177 -0.7377
vn 0.4333 0.5256 -0.7321
vn 0.4333 0.5252 -0.7324
vn 0.8342 0.5458 0.0788
vn 0.5273 0.5963 -0.6053
vn 0.3341 0.5675 -0.7525
vn 0.8675 0.4838 0.1156
vn -0.4671 0.0164 -0.8840
vn -0.4893 0.1159 -0.8644
vn 0.3865 0.6240 -0.6791
vn 0.4331 0.5336 -0.7264
vn 0.2545 0.6377 0.7270
vn -0.0994 0.3574 0.9286
vn 0.0994 0.3574 0.9286
vn -0.2545 0.6377 0.7270
vn 0.2457 0.4695 0.8480
vn 0.1082 0.7641 0.6360
vn -0.3187 0.4302 0.8446
vn -0.1426 0.8143 0.5627
vn 0.6909 0.6152 0.3797
vn -0.2999 0.9494 0.0934
vn -0.2551 -0.0770 0.9638
vn 0.6459 0.1910 0.7392
vn -0.6459 0.1910 0.7392
vn 0.2999 0.9494 0.0934
vn -0.6909 0.6152 0.3797
vn 0.2551 -0.0770 0.9638
vt 0.824522 0.162559
vt 0.871066 0.356490
vt 0.879934 0.356490
vt 0.837824 0.162559
vt 0.862198 0.356490
vt 0.811221 0.162559
vt 0.885470 0.534908
vt 0.894338 0.534908
vt 0.824522 0.015170
vt 0.878519 0.674539
vt 0.886581 0.674539
vt 0.903206 0.534908
vt 0.855247 0.821927
vt 0.863309 0.821927
vt 0.894642 0.674539
vt 0.859430 0.903378
vt 0.852779 0.903378
vt 0.863309 0.984830
vt 0.871370 0.821927
vt 0.866081 0.903378
vt 0.414063 0.445453
vt 0.414063 0.172343
vt 0.694201 0.286618
vt 0.498104 0.479735
vt 0.532915 0.562500
vt 0.810238 0.562499
vt 0.694201 0.838381
vt 0.498104 0.645264
vt 0.036913 0.865783
vt 0.085938 0.845785
vt 0.085938 0.914062
vt 0.036913 0.962342
vt 0.016607 0.914062
vt 0.155268 0.914062
vt 0.134962 0.865783
vt 0.085938 0.982340
vt 0.134962 0.962342
vt 0.790217 0.232848
vt 0.799531 0.229235
vt 0.805791 0.237021
vt 0.786193 0.300207
vt 0.816765 0.238358
vt 0.808704 0.229382
vt 0.824827 0.229382
vt 0.824522 0.325461
vt 0.771375 0.251022
vt 0.777979 0.255646
vt 0.784582 0.260270
vt 0.754707 0.340976
vt 0.878823 0.247889
vt 0.872648 0.253070
vt 0.884999 0.242707
vt 0.902095 0.317704
vt 0.926191 0.646585
vt 0.917168 0.644058
vt 0.932742 0.639885
vt 0.979668 0.752112
vt 0.852622 0.637700
vt 0.861992 0.634203
vt 0.866585 0.645487
vt 0.809978 0.726464
vt 0.847794 0.612480
vt 0.842094 0.606780
vt 0.853495 0.618181
vt 0.785736 0.666781
vt 0.832782 0.294797
vt 0.840037 0.293702
vt 0.847292 0.294797
vt 0.832280 0.379762
vt 0.017887 0.562499
vt 0.133924 0.286618
vt 0.330021 0.479735
vt 0.295210 0.562500
vt 0.414063 0.952656
vt 0.414063 0.679547
vt 0.133924 0.838381
vt 0.330021 0.645264
vt 0.414062 0.581249
vt 0.532846 0.562499
vt 0.498055 0.645216
vt 0.414062 0.679478
vt 0.330070 0.645216
vt 0.330070 0.479783
vt 0.414062 0.445521
vt 0.498055 0.479783
vt 0.295279 0.562499
s 1
f 1/1/1 2/2/2 4/3/3 3/4/4
f 3/4/4 4/3/3 6/5/5 5/6/6
f 2/2/7 6/5/8 9/7/9 7/8/10
f 5/6/6 6/5/5 2/2/2 1/1/1
f 5/6/11 1/1/12 26/9/13
f 7/8/14 9/7/15 12/10/16 10/11/17
f 6/5/8 4/3/18 8/12/19 9/7/9
f 4/3/18 2/2/7 7/8/10 8/12/19
f 10/11/17 12/10/16 15/13/20 13/14/21
f 9/7/15 8/12/22 11/15/23 12/10/16
f 8/12/22 7/8/14 10/11/17 11/15/23
f 43/16/24 44/17/25 16/18/26
f 12/10/16 11/15/23 14/19/27 15/13/20
f 11/15/23 10/11/17 13/14/21 14/19/27
f 44/17/25 45/20/28 16/18/26
f 45/20/28 43/16/24 16/18/26
s 0
f 72/21/29 21/22/29 22/23/29 74/24/29
f 70/25/30 23/26/30 24/27/30 76/28/30
f 77/29/31 72/30/31 25/31/31
f 75/32/32 71/33/32 25/31/32
f 70/34/33 25/31/33 74/35/33
f 73/36/34 75/32/34 25/31/34
f 73/36/35 25/31/35 76/37/35
f 71/33/36 77/29/36 25/31/36
s 1
f 3/4/37 5/6/11 26/9/13
f 1/1/12 3/4/37 26/9/13
f 1/1/38 5/6/39 29/38/40 27/39/41
f 5/6/39 3/4/42 28/40/43 29/38/40
f 3/4/42 1/1/38 27/39/41 28/40/43
f 27/39/41 29/38/40 30/41/44
f 29/38/40 28/40/43 30/41/44
f 28/40/43 27/39/41 30/41/44
f 5/6/45 1/1/46 32/42/47 33/43/48
f 3/4/49 5/6/45 33/43/48 31/44/50
f 1/1/46 3/4/49 31/44/50 32/42/47
f 32/42/47 31/44/50 34/45/51
f 31/44/50 33/43/48 34/45/51
f 33/43/48 32/42/47 34/45/51
f 1/1/52 5/6/53 37/46/54 36/47/55
f 5/6/53 3/4/56 35/48/57 37/46/54
f 3/4/56 1/1/52 36/47/55 35/48/57
f 35/48/57 36/47/55 38/49/58
f 37/46/54 35/48/57 38/49/58
f 36/47/55 37/46/54 38/49/58
f 5/6/59 1/1/60 40/50/61 41/51/62
f 3/4/63 5/6/59 41/51/62 39/52/64
f 1/1/60 3/4/63 39/52/64 40/50/61
f 40/50/61 39/52/64 42/53/65
f 39/52/64 41/51/62 42/53/65
f 41/51/62 40/50/61 42/53/65
f 14/19/27 13/14/21 43/16/24 45/20/28
f 15/13/20 14/19/27 45/20/28 44/17/25
f 13/14/21 15/13/20 44/17/25 43/16/24
f 9/7/66 7/8/67 46/54/68 48/55/69
f 8/12/70 9/7/66 48/55/69 47/56/71
f 7/8/67 8/12/70 47/56/71 46/54/68
f 48/55/69 46/54/68 49/57/72
f 47/56/71 48/55/69 49/57/72
f 46/54/68 47/56/71 49/57/72
f 7/8/73 9/7/74 52/58/75 51/59/76
f 9/7/74 8/12/77 50/60/78 52/58/75
f 8/12/77 7/8/73 51/59/76 50/60/78
f 50/60/78 51/59/76 53/61/79
f 52/58/75 50/60/78 53/61/79
f 51/59/76 52/58/75 53/61/79
f 9/7/80 7/8/81 55/62/82 56/63/83
f 8/12/84 9/7/80 56/63/83 54/64/85
f 7/8/81 8/12/84 54/64/85 55/62/82
f 55/62/82 54/64/85 57/65/86
f 54/64/85 56/63/83 57/65/86
f 56/63/83 55/62/82 57/65/86
f 1/1/87 5/6/88 60/66/89 59/67/90
f 5/6/88 3/4/91 58/68/92 60/66/89
f 3/4/91 1/1/87 59/67/90 58/68/92
f 58/68/92 59/67/90 61/69/93
f 60/66/89 58/68/92 61/69/93
f 59/67/90 60/66/89 61/69/93
f 2/2/94 6/5/94 64/5/95 62/2/96
f 4/3/97 6/5/98 64/5/99 63/3/100
f 2/2/101 4/3/97 63/3/100 62/2/102
f 62/2/96 64/5/95 65/2/103
f 63/3/100 64/5/99 65/3/104
f 62/2/102 63/3/100 65/2/104
f 6/5/105 2/2/105 67/2/106 68/5/107
f 6/5/108 4/3/109 66/3/110 68/5/111
f 4/3/109 2/2/112 67/2/113 66/3/110
f 66/3/110 67/2/113 69/3/114
f 68/5/111 66/3/110 69/5/114
f 68/5/107 67/2/106 69/5/115
s 0
f 19/70/116 20/71/116 77/72/116 71/73/116
f 17/74/117 73/75/117 76/28/117 24/27/117
f 17/74/118 18/76/118 75/77/118 73/75/118
f 23/26/119 70/25/119 74/24/119 22/23/119
f 18/76/120 19/70/120 71/73/120 75/77/120
f 20/71/121 21/22/121 72/21/121 77/72/121
f 25/31/122 70/34/122 76/37/122
f 25/31/123 72/30/123 74/35/123
f 78/78/124 70/79/124 76/80/124
f 78/78/125 73/81/125 75/82/125
f 77/83/126 72/84/126 78/78/126
f 74/85/127 70/79/127 78/78/127
f 71/86/128 77/83/128 78/78/128
f 73/81/129 78/78/129 76/80/129
f 71/86/130 78/78/130 75/82/130
f 72/84/131 74/85/131 78/78/131
