# Blender 5.1.1
# www.blender.org
o Android
v 0.207000 1.259007 0.237361
v 0.126000 1.258998 0.337361
v 0.135000 1.259023 0.037361
v 0.207000 1.259019 0.087361
v -0.207000 1.259019 0.087361
v -0.135000 1.259023 0.037361
v -0.207000 1.259007 0.237361
v -0.126000 1.258998 0.337361
v -0.160000 0.906475 0.268441
v -0.130000 1.014802 0.359354
v -0.240000 1.006095 0.259734
v -0.135000 1.468996 0.367378
v -0.180000 1.619002 0.287391
v -0.225000 1.489002 0.287380
v -0.160000 0.893414 0.119011
v -0.240000 0.993034 0.110304
v -0.160000 0.988680 0.060494
v -0.180000 1.639019 0.087393
v -0.180000 1.519027 -0.012617
v -0.270000 1.499019 0.087381
v 0.150000 0.906475 0.268441
v 0.240000 1.006095 0.259734
v 0.130000 1.014802 0.359354
v 0.180000 1.619002 0.287391
v 0.135000 1.468996 0.367378
v 0.225000 1.489002 0.287380
v 0.150000 0.893414 0.119011
v 0.160000 0.988680 0.060494
v 0.240000 0.993034 0.110304
v 0.180000 1.639019 0.087393
v 0.270000 1.499019 0.087381
v 0.180000 1.519027 -0.012617
v 0.318332 2.006672 0.541822
v 0.353375 2.012594 0.429753
v 0.353921 1.988425 0.314696
v 0.301135 1.925909 0.233198
v 0.235847 1.856229 0.157939
v 0.154531 1.779166 0.132403
v 0.064280 1.705343 0.147482
v 0.348942 1.931692 0.576891
v 0.409933 1.874047 0.494552
v 0.427819 1.807405 0.399361
v 0.381121 1.746926 0.312972
v 0.311601 1.692549 0.235301
v 0.211090 1.657570 0.185336
v 0.094889 1.647313 0.170685
v 0.318332 1.873083 0.635346
v 0.353375 1.765752 0.602563
v 0.375821 1.660054 0.532117
v 0.323035 1.604867 0.445489
v 0.259604 1.562149 0.356190
v 0.176431 1.560369 0.273114
v 0.064280 1.605654 0.217273
v 0.244435 1.865178 0.682944
v 0.216831 1.751146 0.690512
v 0.175517 1.646827 0.655395
v 0.126785 1.585052 0.571071
v 0.078053 1.543906 0.472305
v 0.036740 1.546604 0.362266
v 0.009135 1.592734 0.257707
v 0.170538 1.912608 0.691803
v 0.080286 1.838785 0.706882
v -0.024786 1.767189 0.685149
v -0.069465 1.709834 0.595423
v -0.103498 1.659254 0.494895
v -0.102952 1.635084 0.379838
v -0.046009 1.635149 0.259403
v 0.139929 1.987588 0.656734
v 0.023728 1.977331 0.642083
v -0.076784 1.942352 0.592118
v -0.127551 1.882960 0.507284
v -0.155495 1.817466 0.413731
v -0.137610 1.750823 0.318539
v -0.076618 1.693179 0.236201
v 0.170538 2.046197 0.598279
v 0.080286 2.085626 0.534073
v -0.002886 2.083846 0.450996
v -0.047565 2.019163 0.366401
v -0.084451 1.939044 0.276232
v -0.081052 1.842168 0.222396
v -0.046009 1.734838 0.189613
v -0.000558 1.658324 0.186414
v 0.254129 1.971562 0.633842
v 0.244435 2.054102 0.550681
v 0.216831 2.100232 0.446123
v 0.175517 2.102930 0.336084
v 0.126785 2.044834 0.249185
v 0.078053 1.966109 0.176728
v 0.036740 1.861790 0.141610
v 0.009135 1.747758 0.149178
v 0.300302 1.448376 0.229278
v 0.288175 1.493688 0.282192
v 0.234865 1.472560 0.240819
v 0.246555 1.584318 0.289538
v 0.217063 1.629637 0.243971
v 0.184320 1.558964 0.249738
v 0.282937 1.448385 0.130798
v 0.217500 1.472568 0.142338
v 0.253445 1.493704 0.085230
v 0.199698 1.629645 0.145490
v 0.211825 1.584334 0.092577
v 0.158030 1.554746 0.152831
v 0.566929 1.597519 0.172123
v 0.585982 1.650676 0.168768
v 0.557227 1.633768 0.214454
v 0.500337 1.742527 0.183877
v 0.523931 1.706272 0.220331
v 0.552687 1.723181 0.174645
v 0.553037 1.597526 0.093338
v 0.529443 1.633781 0.056885
v 0.572090 1.650683 0.089983
v 0.486445 1.742534 0.105092
v 0.538795 1.723187 0.095860
v 0.496147 1.706285 0.062762
v 0.112573 0.507214 0.303622
v 0.126153 0.560373 0.348228
v 0.064954 0.558665 0.312849
v 0.083320 0.960888 0.332329
v 0.071108 1.007462 0.280544
v 0.021437 0.909315 0.300539
v 0.086782 0.500629 0.207230
v 0.039162 0.552081 0.216457
v 0.074569 0.547203 0.155444
v 0.047120 1.000160 0.166128
v 0.031053 0.897852 0.143135
v -0.004355 0.902730 0.204147
v 0.209180 0.504044 0.277989
v 0.258168 0.552326 0.261583
v 0.222760 0.557203 0.322596
v 0.216702 1.052574 0.238505
v 0.193507 1.010877 0.351303
v 0.263921 1.001262 0.230130
v 0.183389 0.497460 0.181597
v 0.171176 0.544034 0.129812
v 0.232376 0.545741 0.165191
v 0.178015 1.042697 0.093917
v 0.225634 0.991245 0.084690
v 0.116131 0.991123 0.062127
v 0.094265 0.145360 0.201343
v 0.104089 0.137579 0.239329
v 0.052424 0.107413 0.204390
v 0.124920 0.534336 0.346802
v 0.116639 0.593081 0.308326
v 0.064337 0.545647 0.312136
v 0.079530 0.157032 0.144363
v 0.037688 0.119084 0.147411
v 0.069706 0.164813 0.106377
v 0.092080 0.612534 0.213361
v 0.075802 0.573240 0.156871
v 0.039778 0.565099 0.217170
v 0.152229 0.143458 0.185963
v 0.187674 0.102975 0.168504
v 0.162053 0.135678 0.223949
v 0.213246 0.589911 0.282693
v 0.221527 0.531166 0.321169
v 0.257551 0.539307 0.260870
v 0.137494 0.155130 0.128984
v 0.127670 0.162911 0.090997
v 0.172938 0.114646 0.111525
v 0.188687 0.609364 0.187728
v 0.232992 0.558760 0.165904
v 0.172409 0.570071 0.131238
v -0.112573 0.507214 0.303622
v -0.126153 0.560373 0.348228
v -0.064954 0.558665 0.312849
v -0.083320 0.960888 0.332329
v -0.071108 1.007462 0.280544
v -0.021437 0.909315 0.300539
v -0.086782 0.500629 0.207230
v -0.039162 0.552081 0.216457
v -0.074569 0.547203 0.155444
v -0.047120 1.000160 0.166128
v -0.031053 0.897852 0.143135
v 0.004355 0.902730 0.204147
v -0.209180 0.504044 0.277989
v -0.258168 0.552326 0.261583
v -0.222760 0.557203 0.322596
v -0.216702 1.052574 0.238505
v -0.193507 1.010877 0.351303
v -0.263921 1.001262 0.230130
v -0.183389 0.497460 0.181597
v -0.171176 0.544034 0.129812
v -0.232376 0.545741 0.165191
v -0.178015 1.042697 0.093917
v -0.225634 0.991245 0.084690
v -0.116131 0.991123 0.062127
v -0.094265 0.145360 0.201343
v -0.104089 0.137579 0.239329
v -0.052424 0.107413 0.204390
v -0.124920 0.534336 0.346802
v -0.116639 0.593081 0.308326
v -0.064337 0.545647 0.312136
v -0.079530 0.157032 0.144363
v -0.037688 0.119084 0.147411
v -0.069706 0.164813 0.106377
v -0.092080 0.612534 0.213361
v -0.075802 0.573240 0.156871
v -0.039778 0.565099 0.217170
v -0.152229 0.143458 0.185963
v -0.187673 0.102975 0.168504
v -0.162053 0.135677 0.223949
v -0.213246 0.589911 0.282693
v -0.221527 0.531166 0.321169
v -0.257551 0.539307 0.260870
v -0.137494 0.155130 0.128984
v -0.127670 0.162911 0.090997
v -0.172938 0.114646 0.111525
v -0.188687 0.609364 0.187728
v -0.232992 0.558760 0.165904
v -0.172409 0.570071 0.131238
v 0.547314 1.591239 0.175581
v 0.547419 1.630628 0.216183
v 0.501679 1.623685 0.183630
v 0.533738 1.709412 0.218602
v 0.519952 1.748808 0.180419
v 0.487999 1.702469 0.186049
v 0.533422 1.591245 0.096797
v 0.487788 1.623691 0.104846
v 0.519636 1.630641 0.058614
v 0.506060 1.748814 0.101634
v 0.505955 1.709425 0.061033
v 0.474107 1.702475 0.107265
v 0.842809 1.664771 0.113329
v 0.837679 1.694315 0.114236
v 0.842889 1.694313 0.143780
v 0.851384 1.788158 0.111828
v 0.861723 1.758611 0.140465
v 0.827419 1.753404 0.116050
v 0.832391 1.664776 0.054241
v 0.822051 1.694323 0.025604
v 0.827260 1.694320 0.055148
v 0.840965 1.788162 0.052739
v 0.817000 1.753408 0.056962
v 0.840886 1.758621 0.022288
v -0.300302 1.448376 0.229278
v -0.288175 1.493688 0.282192
v -0.234865 1.472560 0.240819
v -0.246555 1.584318 0.289538
v -0.217063 1.629637 0.243971
v -0.184320 1.558964 0.249738
v -0.282937 1.448385 0.130798
v -0.217500 1.472568 0.142338
v -0.253445 1.493704 0.085230
v -0.199698 1.629645 0.145490
v -0.211825 1.584334 0.092577
v -0.158030 1.554746 0.152831
v -0.566929 1.597519 0.172123
v -0.585982 1.650676 0.168768
v -0.557227 1.633768 0.214454
v -0.500337 1.742527 0.183877
v -0.523931 1.706272 0.220331
v -0.552687 1.723180 0.174645
v -0.553037 1.597525 0.093338
v -0.529443 1.633781 0.056885
v -0.572091 1.650683 0.089983
v -0.486445 1.742534 0.105092
v -0.538795 1.723187 0.095860
v -0.496147 1.706285 0.062762
v -0.547314 1.591239 0.175581
v -0.547419 1.630628 0.216183
v -0.501679 1.623685 0.183630
v -0.533738 1.709412 0.218602
v -0.519952 1.748808 0.180419
v -0.487999 1.702469 0.186049
v -0.533422 1.591245 0.096797
v -0.487788 1.623691 0.104846
v -0.519636 1.630641 0.058614
v -0.506060 1.748814 0.101634
v -0.505955 1.709425 0.061033
v -0.474107 1.702475 0.107265
v -0.842809 1.664771 0.113329
v -0.837679 1.694315 0.114236
v -0.842889 1.694313 0.143780
v -0.851384 1.788157 0.111828
v -0.861723 1.758611 0.140465
v -0.827419 1.753404 0.116050
v -0.832391 1.664776 0.054241
v -0.822051 1.694323 0.025604
v -0.827260 1.694320 0.055148
v -0.840965 1.788162 0.052739
v -0.817000 1.753408 0.056962
v -0.840886 1.758621 0.022288
v 0.000000 0.893414 0.119011
v 0.000000 0.988680 0.060494
v -0.000000 1.619019 0.087391
v -0.000000 1.499027 -0.012619
v 0.000000 0.906475 0.268441
v -0.000000 1.014802 0.359354
v -0.000000 1.619002 0.287391
v -0.000000 1.448994 0.387377
v -0.000000 1.259023 0.037361
v -0.000000 1.258998 0.337361
v 0.103187 -0.118716 0.267625
v 0.087851 0.088192 0.184237
v 0.042741 0.111813 0.011301
v 0.070580 0.154058 0.111002
v 0.161152 -0.120618 0.252246
v 0.145815 0.086290 0.168858
v 0.100705 0.109911 -0.004079
v 0.128545 0.152156 0.095622
v 0.112790 -0.081128 0.299167
v 0.052343 0.149402 0.042842
v 0.110307 0.147500 0.027463
v 0.170754 -0.083029 0.283787
v 0.027953 -0.050949 0.209769
v 0.193210 -0.023722 0.127013
v 0.202812 0.013867 0.158554
v 0.037555 -0.013360 0.241311
v -0.103187 -0.118716 0.267625
v -0.087851 0.088192 0.184237
v -0.042740 0.111813 0.011301
v -0.070580 0.154058 0.111002
v -0.161151 -0.120618 0.252246
v -0.145815 0.086290 0.168858
v -0.100705 0.109911 -0.004079
v -0.128544 0.152156 0.095622
v -0.112790 -0.081128 0.299167
v -0.052343 0.149402 0.042842
v -0.110307 0.147500 0.027463
v -0.170754 -0.083029 0.283787
v -0.027953 -0.050949 0.209769
v -0.193210 -0.023722 0.127013
v -0.202812 0.013867 0.158554
v -0.037555 -0.013360 0.241311
v 0.862435 1.698133 0.083080
v 0.864988 1.710617 0.110240
v 0.848732 1.751688 0.059752
v 0.851286 1.764171 0.086912
v 0.898382 1.676566 0.089614
v 0.900935 1.689050 0.116773
v 0.873260 1.774749 0.046847
v 0.875814 1.787232 0.074006
v 0.975969 1.690459 0.075934
v 0.978522 1.702943 0.103094
v 0.950848 1.788642 0.033167
v 0.953401 1.801125 0.060326
v 0.920062 1.671113 0.090082
v 0.922615 1.683597 0.117242
v 0.949158 1.676323 0.084952
v 0.951711 1.688807 0.112112
v 0.941179 1.628222 0.107812
v 0.943733 1.640705 0.134971
v 0.960576 1.631695 0.104392
v 0.963130 1.644178 0.131551
v 0.967398 1.763601 0.043121
v 0.969951 1.776085 0.070280
v 0.960547 1.790378 0.031457
v 0.963100 1.802862 0.058616
v 1.064382 1.780967 0.026021
v 1.066936 1.793451 0.053181
v 1.057531 1.807745 0.014357
v 1.060084 1.820228 0.041517
v 0.976533 1.727898 0.058673
v 0.979086 1.740382 0.085832
v 0.969682 1.754676 0.047009
v 0.972235 1.767159 0.074168
v 1.073517 1.745265 0.041573
v 1.076071 1.757748 0.068733
v 1.066666 1.772042 0.029909
v 1.069219 1.784526 0.057069
v 0.985668 1.692196 0.074225
v 0.988221 1.704679 0.101384
v 0.978817 1.718973 0.062561
v 0.981370 1.731457 0.089720
v 1.082652 1.709562 0.057125
v 1.085206 1.722046 0.084284
v 1.075801 1.736339 0.045461
v 1.078354 1.748823 0.072621
v -0.862435 1.698133 0.083080
v -0.864988 1.710617 0.110240
v -0.848732 1.751687 0.059752
v -0.851286 1.764171 0.086912
v -0.898382 1.676566 0.089614
v -0.900935 1.689049 0.116773
v -0.873260 1.774749 0.046847
v -0.875814 1.787232 0.074006
v -0.975969 1.690459 0.075934
v -0.978523 1.702943 0.103094
v -0.950848 1.788642 0.033167
v -0.953401 1.801125 0.060326
v -0.920062 1.671113 0.090082
v -0.922615 1.683597 0.117241
v -0.949158 1.676323 0.084952
v -0.951711 1.688807 0.112112
v -0.941180 1.628222 0.107812
v -0.943733 1.640705 0.134971
v -0.960576 1.631695 0.104392
v -0.963130 1.644178 0.131551
v -0.967398 1.763601 0.043121
v -0.969951 1.776085 0.070280
v -0.960547 1.790378 0.031457
v -0.963100 1.802862 0.058617
v -1.064382 1.780968 0.026021
v -1.066936 1.793451 0.053181
v -1.057531 1.807745 0.014357
v -1.060084 1.820228 0.041517
v -0.976533 1.727898 0.058673
v -0.979086 1.740382 0.085832
v -0.969682 1.754676 0.047009
v -0.972235 1.767159 0.074168
v -1.073517 1.745265 0.041573
v -1.076071 1.757748 0.068733
v -1.066666 1.772042 0.029909
v -1.069219 1.784526 0.057069
v -0.985668 1.692196 0.074224
v -0.988221 1.704679 0.101384
v -0.978817 1.718973 0.062561
v -0.981370 1.731456 0.089720
v -1.082652 1.709562 0.057125
v -1.085206 1.722046 0.084284
v -1.075801 1.736339 0.045461
v -1.078354 1.748823 0.072621
v 0.126000 1.237731 0.038725
v -0.126000 1.263853 0.337586
v -0.207000 1.242085 0.088536
v 0.207000 1.255146 0.237966
v -0.207000 1.255146 0.237966
v -0.126000 1.237731 0.038725
v 0.207000 1.242085 0.088536
v 0.126000 1.263853 0.337586
v -0.000000 1.263853 0.337586
v -0.000000 1.237731 0.038725
v 0.126000 1.301857 0.083311
v -0.126000 1.319271 0.282552
v -0.126000 1.301857 0.083311
v 0.126000 1.319271 0.282552
v 0.126000 1.213497 0.289004
v 0.126000 1.205916 0.089490
v -0.004468 1.321564 0.273560
v -0.004272 1.309284 0.077155
v -0.126000 1.205916 0.089490
v -0.126000 1.213497 0.289004
v -0.000000 1.205627 0.089688
v -0.000000 1.214295 0.289296
vn -0.0899 -0.1973 0.9762
vn 0.9761 -0.1810 0.1203
vn 0.7241 -0.1662 0.6694
vn 0.0554 0.9972 0.0499
vn -0.9761 -0.1810 0.1203
vn 0.0125 -0.1971 -0.9803
vn -0.5923 -0.4153 0.6904
vn -0.6217 0.2151 0.7532
vn -0.4879 -0.4569 -0.7438
vn -0.7056 0.4537 -0.5443
vn 0.5754 -0.4608 0.6757
vn 0.6217 0.2151 0.7532
vn 0.4784 -0.4955 -0.7250
vn 0.7056 0.4537 -0.5443
vn -0.7809 -0.6223 0.0544
vn -0.7241 -0.1662 0.6694
vn -0.8865 0.4432 0.1330
vn -0.5263 -0.0035 -0.8503
vn -0.0000 -0.5234 -0.8521
vn -0.0710 0.6386 -0.7662
vn 0.5263 -0.0035 -0.8503
vn 0.7433 -0.6664 0.0582
vn 0.8865 0.4432 0.1330
vn 0.7222 0.1133 0.6824
vn -0.0000 -0.6429 0.7660
vn -0.0245 0.4874 0.8728
vn -0.0000 -0.9962 0.0871
vn 0.6495 -0.2132 -0.7299
vn -0.6495 -0.2132 -0.7299
vn 0.6881 0.5113 0.5148
vn -0.0368 0.5207 -0.8529
vn 0.5952 0.8005 -0.0700
vn -0.6881 0.5113 0.5148
vn -0.4285 0.5158 -0.7419
vn -0.2897 -0.3409 -0.8943
vn 0.0862 0.2631 -0.9609
vn 0.3553 0.6452 -0.6763
vn 0.5457 0.8103 0.2134
vn -0.1026 -0.0553 -0.9932
vn 0.2967 0.5495 -0.7811
vn 0.5171 0.8381 -0.1736
vn 0.4862 0.6479 0.5864
vn 0.1330 -0.3314 -0.9341
vn 0.7389 0.0271 -0.6733
vn 0.9345 0.3492 -0.0689
vn 0.5894 0.5270 0.6123
vn -0.1955 -0.4513 -0.8707
vn 0.4688 -0.1777 -0.8652
vn 0.8236 0.0967 -0.5589
vn 0.8331 0.4737 0.2855
vn 0.7705 -0.5723 -0.2807
vn 0.9409 -0.0928 0.3257
vn 0.5894 0.3950 0.7047
vn -0.1955 -0.6637 -0.7220
vn 0.5156 -0.6774 -0.5247
vn 0.8587 -0.4832 -0.1708
vn 0.8331 0.1062 0.5428
vn 0.1032 -0.7163 -0.6901
vn -0.2897 -0.7237 -0.6264
vn 0.0682 -0.9965 -0.0487
vn 0.3211 -0.8596 0.3975
vn 0.5457 -0.0767 0.8345
vn -0.1391 -0.9076 -0.3961
vn 0.2599 -0.9301 0.2598
vn 0.5062 -0.4232 0.7515
vn 0.4862 0.3293 0.8095
vn -0.3346 -0.6843 0.6479
vn 0.1392 0.0320 0.9897
vn -0.5579 -0.7956 -0.2361
vn -0.4126 -0.7502 0.5166
vn -0.0397 -0.2772 0.9600
vn 0.3402 0.3684 0.8652
vn -0.5248 -0.6608 -0.5366
vn -0.5122 -0.8413 0.1730
vn -0.8141 -0.4710 -0.3397
vn -0.9228 -0.1195 0.3662
vn -0.4412 0.2768 0.8536
vn 0.2369 0.4893 0.8393
vn -0.6190 -0.5505 -0.5602
vn -0.9583 -0.2832 0.0383
vn -0.8714 -0.0205 0.4901
vn -0.1482 0.3687 0.9177
vn -0.4905 0.7303 0.4754
vn 0.2369 0.6212 0.7469
vn -0.6190 -0.3380 -0.7089
vn -0.9236 0.1855 -0.3354
vn -0.8376 0.5410 0.0757
vn -0.1483 0.7361 0.6604
vn -0.8173 -0.0772 -0.5711
vn -0.8856 0.4614 -0.0532
vn -0.5248 -0.2781 -0.8045
vn -0.5389 0.4235 -0.7282
vn -0.3694 0.8390 -0.3995
vn 0.1392 0.9191 0.3687
vn -0.5816 0.0727 -0.8102
vn -0.4382 0.7474 -0.4993
vn -0.0731 0.9960 0.0519
vn 0.3401 0.6870 0.6422
vn 0.2308 0.0271 0.9726
vn 0.8925 0.4226 -0.1573
vn -0.3579 0.9316 0.0632
vn -0.8113 -0.5517 0.1932
vn -0.1158 0.0273 -0.9929
vn -0.1748 -0.7673 0.6170
vn -0.6009 0.3375 0.7246
vn -0.3753 -0.7672 -0.5202
vn -0.7747 0.3815 -0.5043
vn 0.8559 -0.2793 0.4353
vn 0.3753 0.7672 0.5201
vn 0.6553 -0.2792 -0.7018
vn 0.1748 0.7673 -0.6170
vn -0.3368 -0.9397 0.0593
vn -0.4576 -0.3147 0.8316
vn -0.8684 0.4605 0.1841
vn -0.6768 -0.3278 -0.6592
vn 0.2320 -0.6104 -0.7573
vn -0.3552 0.6683 -0.6537
vn 0.5083 0.2989 -0.8076
vn 0.9254 -0.3420 -0.1632
vn 0.3368 0.9397 -0.0593
vn 0.7539 0.2988 0.5851
vn 0.4770 -0.6106 0.6322
vn -0.1102 0.6682 0.7358
vn 0.4728 -0.8772 -0.0834
vn 0.0349 -0.0120 0.9993
vn 0.9667 -0.0307 -0.2540
vn -0.2988 0.9543 0.0090
vn -0.9583 -0.1097 0.2639
vn -0.4469 -0.1438 -0.8829
vn -0.4167 -0.5195 0.7460
vn -0.6779 0.4599 0.5735
vn -0.7146 -0.5955 -0.3671
vn -0.8304 0.2431 -0.5013
vn 0.6988 -0.5561 0.4500
vn 0.7135 0.5967 0.3673
vn 0.4010 -0.6321 -0.6631
vn 0.1894 0.3405 -0.9210
vn -0.6928 -0.6828 0.2320
vn -0.4719 -0.0211 0.8814
vn -0.8540 0.4919 0.1693
vn -0.8625 -0.1243 -0.4906
vn -0.1920 -0.7518 -0.6308
vn -0.6867 0.5264 -0.5014
vn 0.3198 -0.1336 -0.9380
vn 0.6734 -0.7276 -0.1305
vn 0.6949 0.6809 -0.2311
vn 0.8653 0.0241 0.5007
vn 0.1727 -0.6587 0.7324
vn -0.2779 0.8541 0.4395
vn -0.0137 -0.9973 0.0718
vn 0.2391 -0.2655 0.9340
vn 0.9586 -0.0968 -0.2677
vn 0.0800 0.9804 0.1801
vn -0.9692 -0.0336 0.2438
vn -0.2508 0.1225 -0.9603
vn 0.6266 -0.7157 -0.3086
vn -0.3698 0.4720 0.8003
vn -0.6534 0.6966 -0.2963
vn -0.7397 -0.6708 0.0539
vn 0.7457 0.4354 0.5043
vn 0.4621 0.6600 -0.5923
vn -0.4921 -0.1991 0.8475
vn -0.6266 0.7157 0.3086
vn -0.8470 0.0820 -0.5252
vn -0.0800 -0.9804 -0.1801
vn -0.1171 0.8308 -0.5441
vn 0.4790 0.0385 -0.8770
vn 0.7397 0.6708 -0.0539
vn 0.8339 -0.2426 0.4956
vn 0.2302 0.5557 0.7989
vn -0.0349 -0.0120 0.9993
vn -0.9667 -0.0307 -0.2540
vn 0.2988 0.9543 0.0090
vn 0.9583 -0.1097 0.2639
vn 0.4469 -0.1438 -0.8829
vn 0.4167 -0.5195 0.7460
vn 0.6779 0.4599 0.5735
vn 0.7146 -0.5955 -0.3671
vn 0.8304 0.2431 -0.5013
vn -0.6988 -0.5561 0.4500
vn -0.7135 0.5967 0.3673
vn -0.4010 -0.6321 -0.6631
vn -0.1894 0.3405 -0.9210
vn 0.6928 -0.6828 0.2320
vn 0.4719 -0.0211 0.8814
vn 0.8540 0.4919 0.1693
vn 0.8625 -0.1243 -0.4906
vn 0.1920 -0.7518 -0.6308
vn 0.6867 0.5264 -0.5014
vn -0.3198 -0.1336 -0.9380
vn -0.6734 -0.7276 -0.1305
vn -0.6949 0.6809 -0.2311
vn -0.8653 0.0241 0.5007
vn -0.1727 -0.6587 0.7324
vn 0.2779 0.8541 0.4395
vn 0.0137 -0.9973 0.0718
vn -0.2391 -0.2655 0.9340
vn -0.9586 -0.0968 -0.2677
vn -0.0800 0.9804 0.1801
vn 0.9692 -0.0336 0.2438
vn 0.2508 0.1225 -0.9603
vn -0.6266 -0.7157 -0.3086
vn 0.3698 0.4720 0.8003
vn 0.6534 0.6966 -0.2963
vn 0.7397 -0.6708 0.0539
vn -0.7457 0.4354 0.5043
vn -0.4621 0.6600 -0.5923
vn 0.4921 -0.1991 0.8475
vn 0.6266 0.7157 0.3086
vn 0.8470 0.0820 -0.5252
vn 0.0800 -0.9804 -0.1801
vn 0.1171 0.8308 -0.5441
vn -0.4790 0.0385 -0.8770
vn -0.7397 0.6708 -0.0539
vn -0.8339 -0.2426 0.4956
vn -0.2302 0.5557 0.7989
vn 0.2351 -0.0024 0.9720
vn 0.9698 0.1737 -0.1710
vn -0.1138 0.9933 0.0201
vn -0.9698 -0.1737 0.1710
vn -0.1115 -0.0022 -0.9938
vn -0.3610 -0.6689 0.6498
vn -0.5584 0.4683 0.6848
vn -0.5615 -0.6688 -0.4873
vn -0.7589 0.4684 -0.4524
vn 0.5584 -0.4683 -0.6848
vn 0.7589 -0.4684 0.4524
vn -0.5649 -0.8192 0.0995
vn -0.5630 -0.1229 0.8173
vn -0.8067 0.5736 0.1423
vn -0.8086 -0.1227 -0.5755
vn 0.0644 -0.6828 -0.7277
vn -0.1828 0.7059 -0.6843
vn 0.9597 -0.0634 0.2739
vn 0.8067 -0.5736 -0.1423
vn 0.8081 -0.0633 -0.5857
vn 0.3094 -0.6829 0.6617
vn 0.0623 0.7058 0.7057
vn 0.2331 -0.9716 -0.0412
vn -0.2308 0.0271 0.9726
vn -0.8925 0.4226 -0.1573
vn 0.3579 0.9316 0.0632
vn 0.8113 -0.5517 0.1932
vn 0.1158 0.0273 -0.9929
vn 0.1748 -0.7673 0.6170
vn 0.6009 0.3375 0.7246
vn 0.3753 -0.7672 -0.5202
vn 0.7747 0.3815 -0.5043
vn -0.8559 -0.2793 0.4353
vn -0.3753 0.7672 0.5202
vn -0.6553 -0.2792 -0.7018
vn -0.1748 0.7673 -0.6170
vn 0.3368 -0.9397 0.0593
vn 0.4576 -0.3147 0.8316
vn 0.8684 0.4605 0.1841
vn 0.6768 -0.3278 -0.6592
vn -0.2320 -0.6104 -0.7573
vn 0.3552 0.6683 -0.6537
vn -0.5083 0.2989 -0.8076
vn -0.9254 -0.3420 -0.1632
vn -0.3368 0.9397 -0.0593
vn -0.7539 0.2988 0.5851
vn -0.4770 -0.6106 0.6322
vn 0.1102 0.6682 0.7358
vn -0.4728 -0.8772 -0.0834
vn -0.2351 -0.0024 0.9720
vn -0.9698 0.1737 -0.1710
vn 0.1138 0.9933 0.0201
vn 0.9698 -0.1737 0.1710
vn 0.1115 -0.0022 -0.9938
vn 0.3610 -0.6689 0.6498
vn 0.5584 0.4683 0.6848
vn 0.5615 -0.6688 -0.4873
vn 0.7589 0.4684 -0.4524
vn -0.5584 -0.4683 -0.6848
vn -0.7589 -0.4684 0.4524
vn 0.5649 -0.8192 0.0995
vn 0.5630 -0.1229 0.8173
vn 0.8067 0.5736 0.1423
vn 0.8086 -0.1227 -0.5755
vn -0.0643 -0.6828 -0.7277
vn 0.1828 0.7059 -0.6843
vn -0.9597 -0.0634 0.2740
vn -0.8067 -0.5736 -0.1423
vn -0.8081 -0.0633 -0.5857
vn -0.3094 -0.6829 0.6617
vn -0.0623 0.7058 0.7057
vn -0.2331 -0.9716 -0.0412
vn 0.0183 0.7252 0.6883
vn 0.0356 0.5224 -0.8520
vn 0.0245 0.4874 0.8728
vn 0.0710 0.6386 -0.7662
vn -0.0125 -0.1971 -0.9803
vn -0.0554 0.9972 0.0499
vn 0.0899 -0.1973 0.9762
vn -0.7885 0.4670 0.4002
vn 0.0137 0.9973 -0.0718
vn 0.6960 0.4706 0.5423
vn 0.2282 0.5696 0.7896
vn 0.9611 -0.2740 0.0340
vn -0.1727 0.6587 -0.7324
vn -0.9797 0.1845 0.0783
vn -0.7395 -0.3117 0.5966
vn 0.8757 0.1589 -0.4560
vn 0.1920 0.7518 0.6308
vn 0.8847 0.4658 -0.0205
vn -0.1505 0.5400 0.8281
vn 0.7885 0.4670 0.4002
vn -0.0137 0.9973 -0.0718
vn -0.6960 0.4706 0.5423
vn -0.2282 0.5696 0.7896
vn -0.9611 -0.2740 0.0340
vn 0.1727 0.6587 -0.7324
vn 0.9797 0.1845 0.0783
vn 0.7395 -0.3117 0.5966
vn -0.8757 0.1589 -0.4560
vn -0.1920 0.7518 0.6308
vn -0.8847 0.4658 -0.0205
vn 0.1505 0.5400 0.8281
vn -0.7280 0.6463 -0.2286
vn -0.5243 -0.7539 0.3958
vn -0.0851 -0.4161 -0.9053
vn 0.0851 0.4161 0.9053
vn -0.2284 0.8926 -0.3888
vn 0.2284 -0.8926 0.3888
vn -0.9062 -0.3453 0.2439
vn 0.7280 0.6463 -0.2286
vn 0.5243 -0.7539 0.3958
vn 0.0851 -0.4161 -0.9053
vn -0.0851 0.4161 0.9053
vn 0.2284 0.8926 -0.3888
vn -0.2284 -0.8926 0.3888
vn 0.9062 -0.3453 0.2439
vn -0.0000 -0.0871 -0.9962
vn -0.0000 0.0871 0.9962
vn 0.9914 0.1304 -0.0114
vn -0.9914 0.1304 -0.0114
vn -0.7222 0.1133 0.6824
vn 0.4285 0.5158 -0.7419
vn -0.0177 0.7245 0.6891
vn -0.5952 0.8005 -0.0700
vn -0.0445 0.9962 -0.0748
vn 0.0415 0.9963 -0.0748
vn 0.5243 -0.8513 0.0184
vn -0.4233 -0.6702 -0.6097
vn -0.0002 -0.7002 -0.7139
vn 0.0015 -0.7303 0.6832
vn 0.6459 -0.5560 0.5231
vn 0.0002 -0.7002 -0.7139
vn -0.0015 -0.7303 0.6832
vn -0.5243 -0.8513 0.0184
vn 0.4233 -0.6702 -0.6097
vn -0.6459 -0.5560 0.5231
vn 0.0019 -0.9992 0.0407
vn -0.0019 -0.9992 0.0407
vt 0.172144 0.469481
vt 0.171973 0.525509
vt 0.119454 0.535702
vt 0.123271 0.470458
vt 0.323413 0.469622
vt 0.329048 0.559029
vt 0.271784 0.555717
vt 0.269769 0.473003
vt 0.224429 0.536019
vt 0.221010 0.470753
vt 0.171578 0.656843
vt 0.098275 0.645461
vt 0.106282 0.592595
vt 0.171766 0.593801
vt 0.074500 0.472413
vt 0.071980 0.555113
vt 0.014702 0.558079
vt 0.020877 0.468708
vt 0.125000 0.848094
vt 0.125000 0.930227
vt 0.057976 0.935909
vt 0.075188 0.848003
vt 0.118558 0.132190
vt 0.128554 0.179315
vt 0.084127 0.157401
vt 0.178317 0.661080
vt 0.208858 0.690885
vt 0.178317 0.698336
vt 0.191748 0.987956
vt 0.192024 0.935909
vt 0.236681 0.952358
vt 0.221859 0.132190
vt 0.259325 0.156810
vt 0.215194 0.179315
vt 0.237257 0.592990
vt 0.075016 0.661080
vt 0.071683 0.698336
vt 0.041227 0.690545
vt 0.058252 0.987956
vt 0.013319 0.952358
vt 0.118558 0.082205
vt 0.075883 0.132190
vt 0.075883 0.082205
vt 0.042543 0.613558
vt 0.171652 0.781644
vt 0.209751 0.698701
vt 0.205958 0.781989
vt 0.125000 0.661080
vt 0.125000 0.698336
vt 0.125000 0.982481
vt 0.044042 0.781989
vt 0.040249 0.698701
vt 0.078348 0.781644
vt 0.221859 0.082205
vt 0.266690 0.082205
vt 0.266690 0.132190
vt 0.244949 0.645904
vt 0.300872 0.614338
vt 0.218526 0.262623
vt 0.264729 0.178800
vt 0.263355 0.262163
vt 0.171874 0.132190
vt 0.171874 0.179315
vt 0.171874 0.082205
vt 0.012944 0.920851
vt 0.044107 0.843803
vt 0.174812 0.848003
vt 0.205893 0.843803
vt 0.237056 0.920851
vt 0.257957 0.283956
vt 0.218526 0.288649
vt 0.125000 0.781644
vt 0.171652 0.807670
vt 0.125000 0.807670
vt 0.254571 0.305310
vt 0.254571 0.355295
vt 0.218526 0.355295
vt 0.085792 0.283956
vt 0.125222 0.262623
vt 0.125222 0.288649
vt 0.204260 0.792310
vt 0.859375 0.281250
vt 0.885106 0.256635
vt 0.891894 0.281971
vt 0.878070 0.544687
vt 0.877556 0.574516
vt 0.829942 0.566924
vt 0.839826 0.536375
vt 0.877260 0.602341
vt 0.877139 0.631101
vt 0.821219 0.629738
vt 0.823645 0.598114
vt 0.874324 0.491775
vt 0.873976 0.447406
vt 0.903699 0.436254
vt 0.934594 0.467677
vt 0.878927 0.507119
vt 0.854765 0.501683
vt 0.877239 0.666695
vt 0.820367 0.668598
vt 0.875000 0.406250
vt 0.798480 0.513179
vt 0.834141 0.487652
vt 0.760116 0.585778
vt 0.773209 0.547252
vt 0.762023 0.666908
vt 0.754270 0.625547
vt 0.915413 0.407135
vt 0.883990 0.306981
vt 0.960087 0.407618
vt 0.963302 0.747280
vt 0.979095 0.786317
vt 0.917002 0.800032
vt 0.911469 0.770080
vt 0.985192 0.827584
vt 0.976809 0.872950
vt 0.915262 0.870591
vt 0.919466 0.830703
vt 0.904686 0.378021
vt 0.858654 0.313769
vt 0.936872 0.715119
vt 0.902563 0.739887
vt 0.935899 0.346311
vt 0.902196 0.689550
vt 0.881474 0.703189
vt 0.833644 0.305865
vt 0.859375 0.775217
vt 0.859375 0.746487
vt 0.859375 0.833482
vt 0.859375 0.804002
vt 0.876024 0.365094
vt 0.875676 0.320725
vt 0.859375 0.711581
vt 0.859375 0.867625
vt 0.799284 0.830703
vt 0.801748 0.800032
vt 0.846301 0.376246
vt 0.815406 0.344823
vt 0.816186 0.739887
vt 0.837276 0.703189
vt 0.807280 0.770080
vt 0.803488 0.870591
vt 0.826856 0.280529
vt 0.781878 0.715119
vt 0.816554 0.689550
vt 0.739655 0.786317
vt 0.755447 0.747280
vt 0.741941 0.872950
vt 0.733558 0.827584
vt 0.834587 0.405365
vt 0.834760 0.255519
vt 0.789913 0.404882
vt 0.995730 0.628312
vt 0.985902 0.668598
vt 0.930940 0.664137
vt 0.931328 0.630590
vt 0.845314 0.434479
vt 0.860096 0.248731
vt 0.958042 0.517210
vt 0.981025 0.551821
vt 0.924813 0.568681
vt 0.916343 0.538099
vt 0.991899 0.589902
vt 0.929860 0.599530
vt 0.814101 0.466189
vt 0.924285 0.490207
vt 0.903231 0.502984
vt 0.563570 0.808626
vt 0.583817 0.819153
vt 0.558421 0.910405
vt 0.525097 0.898741
vt 0.660350 0.800277
vt 0.628063 0.806345
vt 0.621995 0.774057
vt 0.654283 0.767989
vt 0.621253 0.825686
vt 0.617358 0.920610
vt 0.582191 0.915969
vt 0.599032 0.823030
vt 0.689993 0.977463
vt 0.654936 0.986696
vt 0.645187 0.951779
vt 0.680806 0.942579
vt 0.678207 0.917205
vt 0.642322 0.920880
vt 0.636957 0.824580
vt 0.659977 0.821184
vt 0.503995 0.889049
vt 0.506153 0.912170
vt 0.564827 0.936598
vt 0.703061 0.911928
vt 0.695204 0.936090
vt 0.629540 0.948432
vt 0.548693 0.797289
vt 0.569057 0.790797
vt 0.596143 0.803693
vt 0.676036 0.814794
vt 0.738224 0.900922
vt 0.746005 0.925786
vt 0.710843 0.936791
vt 0.549386 0.936459
vt 0.516849 0.922305
vt 0.613431 0.950870
vt 0.578566 0.943435
vt 0.699604 0.799854
vt 0.686312 0.780446
vt 0.470058 0.299152
vt 0.486323 0.427222
vt 0.452611 0.418960
vt 0.442364 0.305175
vt 0.326228 0.305757
vt 0.318037 0.433814
vt 0.276172 0.426432
vt 0.298318 0.300836
vt 0.463692 0.498123
vt 0.432974 0.462553
vt 0.447841 0.438424
vt 0.485991 0.461930
vt 0.422638 0.308709
vt 0.430355 0.408611
vt 0.402099 0.410794
vt 0.394382 0.310892
vt 0.374347 0.310429
vt 0.382064 0.410332
vt 0.349490 0.437647
vt 0.346066 0.308594
vt 0.429441 0.289859
vt 0.444161 0.437132
vt 0.384765 0.293310
vt 0.391388 0.440615
vt 0.474849 0.279693
vt 0.489305 0.293572
vt 0.520027 0.435520
vt 0.524818 0.416061
vt 0.338604 0.289995
vt 0.328740 0.450756
vt 0.392838 0.290911
vt 0.421095 0.288729
vt 0.432796 0.440203
vt 0.404539 0.442386
vt 0.347364 0.288596
vt 0.375645 0.290432
vt 0.389416 0.441153
vt 0.347343 0.462097
vt 0.301797 0.281100
vt 0.329708 0.286022
vt 0.314557 0.453549
vt 0.272692 0.446167
vt 0.438105 0.285593
vt 0.465799 0.279570
vt 0.432082 0.257900
vt 0.459775 0.251877
vt 0.480066 0.050836
vt 0.475275 0.183301
vt 0.443185 0.180575
vt 0.460812 0.049200
vt 0.517862 0.037557
vt 0.530222 0.182420
vt 0.498043 0.183733
vt 0.498554 0.038345
vt 0.470620 0.238082
vt 0.438530 0.235355
vt 0.441257 0.203266
vt 0.473347 0.205992
vt 0.444696 0.033769
vt 0.420670 0.177159
vt 0.389174 0.170435
vt 0.425798 0.029735
vt 0.404785 0.037239
vt 0.367227 0.164359
vt 0.336821 0.153743
vt 0.386542 0.030870
vt 0.462714 0.036459
vt 0.428969 0.198365
vt 0.408252 0.024832
vt 0.372938 0.186404
vt 0.480340 0.037957
vt 0.486285 0.203235
vt 0.391551 0.019001
vt 0.374766 0.011918
vt 0.318631 0.167443
vt 0.315861 0.144840
vt 0.429602 0.011918
vt 0.448499 0.015952
vt 0.415915 0.199430
vt 0.384420 0.192706
vt 0.390788 0.018708
vt 0.409032 0.025077
vt 0.359721 0.185859
vt 0.329315 0.175243
vt 0.497811 0.020142
vt 0.517119 0.019354
vt 0.531151 0.205173
vt 0.498972 0.206487
vt 0.461902 0.036364
vt 0.481156 0.038000
vt 0.463538 0.017110
vt 0.482792 0.018746
vt 0.592442 0.299152
vt 0.620136 0.305175
vt 0.609889 0.418960
vt 0.576177 0.427222
vt 0.736272 0.305757
vt 0.764182 0.300836
vt 0.786328 0.426432
vt 0.744463 0.433814
vt 0.598808 0.498123
vt 0.576508 0.461930
vt 0.614659 0.438424
vt 0.629526 0.462553
vt 0.639862 0.308709
vt 0.668118 0.310892
vt 0.660401 0.410794
vt 0.632145 0.408611
vt 0.688153 0.310429
vt 0.716434 0.308594
vt 0.713010 0.437647
vt 0.680436 0.410332
vt 0.633059 0.289859
vt 0.618339 0.437132
vt 0.677735 0.293310
vt 0.671112 0.440615
vt 0.587651 0.279693
vt 0.573195 0.293572
vt 0.542473 0.435520
vt 0.537682 0.416061
vt 0.723896 0.289995
vt 0.733760 0.450756
vt 0.669662 0.290911
vt 0.641405 0.288729
vt 0.629704 0.440203
vt 0.657961 0.442386
vt 0.715136 0.288596
vt 0.686855 0.290432
vt 0.673084 0.441153
vt 0.715157 0.462097
vt 0.760703 0.281100
vt 0.732792 0.286022
vt 0.747943 0.453549
vt 0.789808 0.446167
vt 0.624395 0.285593
vt 0.596701 0.279570
vt 0.630418 0.257900
vt 0.602725 0.251877
vt 0.582434 0.050836
vt 0.601688 0.049200
vt 0.619315 0.180575
vt 0.587225 0.183301
vt 0.544638 0.037557
vt 0.563946 0.038345
vt 0.564457 0.183733
vt 0.532278 0.182420
vt 0.591880 0.238082
vt 0.589153 0.205992
vt 0.621243 0.203266
vt 0.623970 0.235355
vt 0.617804 0.033769
vt 0.636702 0.029735
vt 0.673326 0.170435
vt 0.641830 0.177159
vt 0.657715 0.037239
vt 0.675958 0.030870
vt 0.725679 0.153743
vt 0.695273 0.164359
vt 0.599786 0.036459
vt 0.633531 0.198365
vt 0.654248 0.024832
vt 0.689562 0.186404
vt 0.582160 0.037957
vt 0.576215 0.203235
vt 0.670949 0.019001
vt 0.687734 0.011918
vt 0.743869 0.167443
vt 0.746639 0.144840
vt 0.632898 0.011918
vt 0.614001 0.015952
vt 0.646585 0.199430
vt 0.678080 0.192706
vt 0.671712 0.018708
vt 0.653468 0.025077
vt 0.702779 0.185859
vt 0.733185 0.175243
vt 0.564689 0.020142
vt 0.545381 0.019354
vt 0.531349 0.205173
vt 0.563528 0.206487
vt 0.600598 0.036364
vt 0.581344 0.038000
vt 0.598962 0.017110
vt 0.579708 0.018746
vt 0.591894 0.553935
vt 0.616127 0.558247
vt 0.596099 0.670420
vt 0.565221 0.670324
vt 0.696257 0.551619
vt 0.661891 0.539884
vt 0.673626 0.505518
vt 0.707992 0.517253
vt 0.651158 0.561710
vt 0.646241 0.672498
vt 0.618158 0.670318
vt 0.630187 0.559218
vt 0.699385 0.744482
vt 0.654725 0.743741
vt 0.655466 0.699081
vt 0.700126 0.699822
vt 0.692970 0.674751
vt 0.665705 0.672505
vt 0.665411 0.562671
vt 0.688747 0.564166
vt 0.539183 0.673586
vt 0.560483 0.699517
vt 0.607549 0.698030
vt 0.713187 0.675663
vt 0.573927 0.543921
vt 0.589433 0.539480
vt 0.623226 0.538650
vt 0.705802 0.561815
vt 0.750343 0.684231
vt 0.740954 0.713101
vt 0.729700 0.551184
vt 0.722704 0.536890
vt 0.437045 0.807124
vt 0.475035 0.896805
vt 0.441924 0.908287
vt 0.416687 0.817484
vt 0.340258 0.797746
vt 0.346512 0.765393
vt 0.378865 0.771648
vt 0.372610 0.804000
vt 0.379264 0.823404
vt 0.401378 0.820931
vt 0.418212 0.913904
vt 0.382942 0.918473
vt 0.309960 0.975243
vt 0.319277 0.940305
vt 0.354952 0.949636
vt 0.345072 0.984607
vt 0.321961 0.914878
vt 0.340539 0.818708
vt 0.363577 0.822212
vt 0.357920 0.918673
vt 0.496029 0.887246
vt 0.493811 0.910207
vt 0.435599 0.934449
vt 0.297065 0.909509
vt 0.304863 0.933754
vt 0.370652 0.946324
vt 0.451921 0.795947
vt 0.431753 0.789299
vt 0.404595 0.801781
vt 0.324470 0.812241
vt 0.289184 0.934408
vt 0.253971 0.923263
vt 0.261852 0.898364
vt 0.483153 0.920218
vt 0.450816 0.934174
vt 0.421781 0.941450
vt 0.386808 0.948822
vt 0.300897 0.797177
vt 0.314297 0.777763
vt 0.472674 0.553515
vt 0.497190 0.670430
vt 0.466172 0.670436
vt 0.448840 0.557628
vt 0.369135 0.550888
vt 0.358037 0.516687
vt 0.392239 0.505589
vt 0.403337 0.539790
vt 0.413919 0.561328
vt 0.434818 0.558888
vt 0.445687 0.670282
vt 0.417463 0.671612
vt 0.361381 0.744329
vt 0.361463 0.698698
vt 0.407094 0.698780
vt 0.407013 0.744411
vt 0.369115 0.673465
vt 0.376363 0.563519
vt 0.399780 0.562448
vt 0.396244 0.671469
vt 0.524341 0.674079
vt 0.501864 0.699979
vt 0.455226 0.697701
vt 0.348855 0.673975
vt 0.489563 0.544288
vt 0.475118 0.539766
vt 0.441734 0.538362
vt 0.359414 0.560790
vt 0.320054 0.710886
vt 0.311436 0.681605
vt 0.335902 0.549582
vt 0.343237 0.535559
vt 0.171874 0.262623
vt 0.171874 0.288649
vt 0.078348 0.807670
vt 0.957238 0.215476
vt 0.931835 0.183848
vt 0.927027 0.159369
vt 0.936637 0.138592
vt 0.914034 0.159456
vt 0.909654 0.133395
vt 0.886954 0.200037
vt 0.913576 0.184854
vt 0.913520 0.254361
vt 0.935769 0.253661
vt 0.860426 0.091102
vt 0.920824 0.076021
vt 0.899525 0.125463
vt 0.879538 0.124938
vt 0.914104 0.272902
vt 0.936353 0.272201
vt 0.870141 0.208259
vt 0.896707 0.262583
vt 0.940968 0.116107
vt 0.913985 0.110910
vt 0.972190 0.211470
vt 0.951589 0.134586
vt 0.952140 0.262865
vt 0.973609 0.224681
vt 0.893696 0.127959
vt 0.870996 0.194601
vt 0.882600 0.008348
vt 0.902587 0.008873
vt 0.761512 0.215477
vt 0.782113 0.138592
vt 0.791723 0.159369
vt 0.786915 0.183848
vt 0.809096 0.133395
vt 0.804716 0.159456
vt 0.831796 0.200037
vt 0.805230 0.254361
vt 0.805174 0.184854
vt 0.782981 0.253661
vt 0.858324 0.091102
vt 0.839212 0.124938
vt 0.819225 0.125463
vt 0.797926 0.076021
vt 0.804646 0.272902
vt 0.782397 0.272201
vt 0.848609 0.208259
vt 0.822043 0.262583
vt 0.777782 0.116107
vt 0.804765 0.110910
vt 0.746560 0.211470
vt 0.767161 0.134585
vt 0.766610 0.262865
vt 0.745141 0.224681
vt 0.825054 0.127959
vt 0.847754 0.194601
vt 0.836150 0.008348
vt 0.816163 0.008873
vt 0.857453 0.895108
vt 0.834384 0.895108
vt 0.826694 0.906642
vt 0.868987 0.906642
vt 0.826694 0.937401
vt 0.868987 0.937401
vt 0.826694 0.941246
vt 0.838228 0.941246
vt 0.872832 0.914332
vt 0.892056 0.918177
vt 0.872832 0.925866
vt 0.892056 0.925866
vt 0.838228 0.979694
vt 0.826694 0.979694
vt 0.842073 0.941246
vt 0.853608 0.941246
vt 0.853608 0.979694
vt 0.842073 0.979694
vt 0.857453 0.941246
vt 0.868987 0.941246
vt 0.868987 0.979694
vt 0.857453 0.979694
vt 0.955047 0.895306
vt 0.978116 0.895306
vt 0.985806 0.906841
vt 0.943513 0.906841
vt 0.985806 0.937599
vt 0.943513 0.937599
vt 0.985806 0.941444
vt 0.974272 0.941444
vt 0.939668 0.914530
vt 0.920444 0.918375
vt 0.939668 0.926065
vt 0.920444 0.926065
vt 0.985806 0.979892
vt 0.974271 0.979892
vt 0.970427 0.941444
vt 0.958892 0.941444
vt 0.970427 0.979892
vt 0.958892 0.979892
vt 0.955047 0.941444
vt 0.943513 0.941444
vt 0.955047 0.979892
vt 0.943513 0.979892
vt 0.314707 0.179624
vt 0.313333 0.262987
vt 0.079021 0.178667
vt 0.080395 0.262029
vt 0.030417 0.262853
vt 0.029043 0.179491
vt 0.045740 0.792310
vt 0.089178 0.355295
vt 0.089178 0.305310
vt 0.125222 0.355295
vt 0.171874 0.355295
vt 0.258703 0.375010
vt 0.258261 0.428276
vt 0.221554 0.445728
vt 0.222142 0.374707
vt 0.203680 0.835893
vt 0.171456 0.824544
vt 0.125000 0.824607
vt 0.122879 0.445430
vt 0.172218 0.444951
vt 0.262059 0.446607
vt 0.078544 0.824545
vt 0.086278 0.427757
vt 0.086158 0.374489
vt 0.122719 0.374407
vt 0.046320 0.835893
vt 0.082368 0.446065
vt 0.172431 0.374407
s 1
f 292/1/1 290/2/1 12/3/1 8/4/1
f 4/5/2 31/6/2 26/7/2 1/8/2
f 25/9/3 2/10/3 1/8/3 26/7/3
f 285/11/4 18/12/4 13/13/4 289/14/4
f 7/15/5 14/16/5 20/17/5 5/18/5
f 291/19/6 286/20/6 32/21/6 3/22/6
f 9/23/7 10/24/7 11/25/7
f 12/3/8 13/13/8 14/16/8
f 15/26/9 16/27/9 17/28/9
f 18/29/10 19/30/10 20/31/10
f 21/32/11 22/33/11 23/34/11
f 24/35/12 25/9/12 26/7/12
f 27/36/13 28/37/13 29/38/13
f 30/39/14 31/40/14 32/21/14
f 15/41/15 9/23/15 11/42/15 16/43/15
f 8/4/16 12/3/16 14/16/16 7/15/16
f 13/13/17 18/12/17 20/44/17 14/16/17
f 418/45/18 17/28/18 16/46/18 415/47/18
f 283/48/19 15/26/19 17/28/19 284/49/19
f 285/50/20 30/39/20 32/21/20 286/20/20
f 419/51/21 29/52/21 28/37/21 413/53/21
f 21/32/22 27/54/22 29/55/22 22/56/22
f 30/57/23 24/35/23 26/7/23 31/58/23
f 420/59/24 23/34/24 22/60/24 416/61/24
f 287/62/25 21/32/25 23/34/25 288/63/25
f 289/14/26 13/13/26 12/3/26 290/2/26
f 283/64/27 27/54/27 21/32/27 287/62/27
f 31/65/28 4/66/28 3/22/28 32/21/28
f 19/30/29 6/67/29 5/68/29 20/69/29
f 420/59/30 416/70/30 426/71/30
f 422/72/31 418/45/31 425/73/31 430/74/31
f 416/75/32 419/76/32 423/77/32 426/71/32
f 417/78/33 414/79/33 424/80/33
f 418/45/34 415/81/34 425/73/34
f 82/82/35 90/83/35 39/84/35
f 89/85/36 88/86/36 37/87/36 38/88/36
f 87/89/37 86/90/37 35/91/37 36/92/37
f 85/93/38 84/94/38 33/95/38 34/96/38
f 90/97/39 89/85/39 38/88/39 39/98/39
f 88/86/40 87/89/40 36/92/40 37/87/40
f 86/90/41 85/99/41 34/100/41 35/91/41
f 84/94/42 83/101/42 33/95/42
f 39/98/43 38/88/43 45/102/43 46/103/43
f 37/87/44 36/92/44 43/104/44 44/105/44
f 35/91/45 34/100/45 41/106/45 42/107/45
f 33/95/46 83/101/46 40/108/46
f 82/82/47 39/84/47 46/109/47
f 38/88/48 37/87/48 44/105/48 45/102/48
f 36/92/49 35/91/49 42/107/49 43/104/49
f 34/96/50 33/95/50 40/108/50 41/110/50
f 44/111/51 43/112/51 50/113/51 51/114/51
f 42/115/52 41/116/52 48/117/52 49/118/52
f 40/108/53 83/101/53 47/119/53
f 82/82/54 46/109/54 53/120/54
f 45/121/55 44/111/55 51/114/55 52/122/55
f 43/112/56 42/115/56 49/118/56 50/113/56
f 41/110/57 40/108/57 47/119/57 48/123/57
f 46/124/58 45/121/58 52/122/58 53/125/58
f 82/82/59 53/120/59 60/126/59
f 52/122/60 51/114/60 58/127/60 59/128/60
f 50/113/61 49/118/61 56/129/61 57/130/61
f 48/123/62 47/119/62 54/131/62 55/132/62
f 53/125/63 52/122/63 59/128/63 60/133/63
f 51/114/64 50/113/64 57/130/64 58/127/64
f 49/118/65 48/117/65 55/134/65 56/129/65
f 47/119/66 83/101/66 54/131/66
f 57/130/67 56/129/67 63/135/67 64/136/67
f 55/132/68 54/131/68 61/137/68 62/138/68
f 60/133/69 59/128/69 66/139/69 67/140/69
f 58/127/70 57/130/70 64/136/70 65/141/70
f 56/129/71 55/134/71 62/142/71 63/135/71
f 54/131/72 83/101/72 61/137/72
f 82/82/73 60/126/73 67/143/73
f 59/128/74 58/127/74 65/141/74 66/139/74
f 67/140/75 66/139/75 73/144/75 74/145/75
f 65/141/76 64/136/76 71/146/76 72/147/76
f 63/135/77 62/142/77 69/148/77 70/149/77
f 61/137/78 83/101/78 68/150/78
f 82/82/79 67/143/79 74/151/79
f 66/139/80 65/141/80 72/147/80 73/144/80
f 64/136/81 63/135/81 70/149/81 71/146/81
f 62/138/82 61/137/82 68/150/82 69/152/82
f 70/153/83 69/154/83 76/155/83 77/156/83
f 68/150/84 83/101/84 75/157/84
f 82/82/85 74/151/85 81/158/85
f 73/159/86 72/160/86 79/161/86 80/162/86
f 71/163/87 70/153/87 77/156/87 78/164/87
f 69/152/88 68/150/88 75/157/88 76/165/88
f 74/166/89 73/159/89 80/162/89 81/167/89
f 72/160/90 71/163/90 78/164/90 79/161/90
f 82/82/91 81/158/91 90/83/91
f 80/162/92 79/161/92 88/86/92 89/85/92
f 78/164/93 77/156/93 86/90/93 87/89/93
f 76/165/94 75/157/94 84/94/94 85/93/94
f 81/167/95 80/162/95 89/85/95 90/97/95
f 79/161/96 78/164/96 87/89/96 88/86/96
f 77/156/97 76/155/97 85/99/97 86/90/97
f 75/157/98 83/101/98 84/94/98
f 105/168/99 107/169/99 94/170/99 92/171/99
f 111/172/100 113/173/100 108/174/100 104/175/100
f 112/176/101 100/177/101 95/178/101 106/179/101
f 93/180/102 96/181/102 102/182/102 98/183/102
f 99/184/103 101/185/103 114/186/103 110/187/103
f 91/188/104 92/171/104 93/189/104
f 94/170/105 95/178/105 96/190/105
f 97/191/106 98/192/106 99/184/106
f 100/177/107 101/185/107 102/193/107
f 103/194/108 104/195/108 105/168/108
f 106/179/109 107/169/109 108/196/109
f 109/197/110 110/187/110 111/172/110
f 112/176/111 113/173/111 114/186/111
f 97/191/112 91/198/112 93/199/112 98/200/112
f 92/171/113 94/170/113 96/201/113 93/202/113
f 95/178/114 100/177/114 102/203/114 96/204/114
f 101/185/115 99/184/115 98/183/115 102/182/115
f 109/197/116 97/191/116 99/184/116 110/187/116
f 100/177/117 112/176/117 114/186/117 101/185/117
f 113/173/118 111/172/118 110/187/118 114/186/118
f 103/205/119 109/197/119 111/172/119 104/206/119
f 112/176/120 106/179/120 108/196/120 113/173/120
f 107/169/121 105/168/121 104/195/121 108/196/121
f 91/188/122 103/194/122 105/168/122 92/171/122
f 106/179/123 95/178/123 94/170/123 107/169/123
f 97/191/124 109/197/124 103/205/124 91/198/124
f 129/207/125 131/208/125 118/209/125 116/210/125
f 135/211/126 137/212/126 132/213/126 128/214/126
f 136/215/127 124/216/127 119/217/127 130/218/127
f 117/219/128 120/220/128 126/221/128 122/222/128
f 123/223/129 125/224/129 138/225/129 134/226/129
f 115/227/130 116/210/130 117/219/130
f 118/209/131 119/228/131 120/220/131
f 121/229/132 122/222/132 123/223/132
f 124/230/133 125/224/133 126/221/133
f 127/231/134 128/232/134 129/207/134
f 130/233/135 131/208/135 132/234/135
f 133/235/136 134/226/136 135/211/136
f 136/236/137 137/212/137 138/225/137
f 121/237/138 115/238/138 117/219/138 122/222/138
f 116/210/139 118/209/139 120/220/139 117/219/139
f 119/239/140 124/240/140 126/221/140 120/220/140
f 125/224/141 123/223/141 122/222/141 126/221/141
f 133/241/142 121/242/142 123/223/142 134/226/142
f 124/243/143 136/244/143 138/225/143 125/224/143
f 137/212/144 135/211/144 134/226/144 138/225/144
f 127/245/145 133/246/145 135/211/145 128/214/145
f 136/247/146 130/248/146 132/213/146 137/212/146
f 131/208/147 129/207/147 128/232/147 132/234/147
f 115/249/148 127/250/148 129/207/148 116/210/148
f 130/218/149 119/217/149 118/209/149 131/208/149
f 121/251/150 133/252/150 127/250/150 115/249/150
f 153/253/151 155/254/151 142/255/151 140/256/151
f 159/257/152 161/258/152 156/259/152 152/260/152
f 160/261/153 148/262/153 143/263/153 154/264/153
f 141/265/154 144/266/154 150/267/154 146/268/154
f 147/269/155 149/270/155 162/271/155 158/272/155
f 139/273/156 140/256/156 141/265/156
f 142/255/157 143/274/157 144/266/157
f 145/275/156 146/268/156 147/269/156
f 148/276/158 149/270/158 150/267/158
f 151/277/159 152/260/159 153/253/159
f 154/278/160 155/254/160 156/259/160
f 157/279/159 158/272/159 159/280/159
f 160/281/161 161/282/161 162/271/161
f 145/283/156 139/284/156 141/265/156 146/268/156
f 140/256/162 142/255/162 144/266/162 141/265/162
f 143/285/163 148/286/163 150/267/163 144/266/163
f 149/270/164 147/269/164 146/268/164 150/267/164
f 157/287/165 145/288/165 147/269/165 158/272/165
f 148/289/166 160/290/166 162/271/166 149/270/166
f 161/282/167 159/280/167 158/272/167 162/271/167
f 151/291/159 157/292/159 159/257/159 152/260/159
f 160/293/168 154/294/168 156/259/168 161/258/168
f 155/254/169 153/253/169 152/260/169 156/259/169
f 139/295/165 151/296/165 153/253/165 140/256/165
f 154/264/170 143/263/170 142/255/170 155/254/170
f 145/297/165 157/298/165 151/296/165 139/295/165
f 177/299/171 164/300/171 166/301/171 179/302/171
f 183/303/172 176/304/172 180/305/172 185/306/172
f 184/307/173 178/308/173 167/309/173 172/310/173
f 165/311/174 170/312/174 174/313/174 168/314/174
f 171/315/175 182/316/175 186/317/175 173/318/175
f 163/319/176 165/311/176 164/300/176
f 166/301/177 168/314/177 167/320/177
f 169/321/178 171/315/178 170/312/178
f 172/322/179 174/313/179 173/318/179
f 175/323/180 177/299/180 176/324/180
f 178/325/181 180/326/181 179/302/181
f 181/327/182 183/303/182 182/316/182
f 184/328/183 186/317/183 185/306/183
f 169/329/184 170/312/184 165/311/184 163/330/184
f 164/300/185 165/311/185 168/314/185 166/301/185
f 167/331/186 168/314/186 174/313/186 172/332/186
f 173/318/187 174/313/187 170/312/187 171/315/187
f 181/333/188 182/316/188 171/315/188 169/334/188
f 172/335/189 173/318/189 186/317/189 184/336/189
f 185/306/190 186/317/190 182/316/190 183/303/190
f 175/337/191 176/304/191 183/303/191 181/338/191
f 184/339/192 185/306/192 180/305/192 178/340/192
f 179/302/193 180/326/193 176/324/193 177/299/193
f 163/341/194 164/300/194 177/299/194 175/342/194
f 178/308/195 179/302/195 166/301/195 167/309/195
f 169/343/196 163/341/196 175/342/196 181/344/196
f 201/345/197 188/346/197 190/347/197 203/348/197
f 207/349/198 200/350/198 204/351/198 209/352/198
f 208/353/199 202/354/199 191/355/199 196/356/199
f 189/357/200 194/358/200 198/359/200 192/360/200
f 195/361/201 206/362/201 210/363/201 197/364/201
f 187/365/202 189/357/202 188/346/202
f 190/347/203 192/360/203 191/366/203
f 193/367/202 195/361/202 194/358/202
f 196/368/204 198/359/204 197/364/204
f 199/369/205 201/345/205 200/350/205
f 202/370/206 204/351/206 203/348/206
f 205/371/205 207/372/205 206/362/205
f 208/373/207 210/363/207 209/374/207
f 193/375/202 194/358/202 189/357/202 187/376/202
f 188/346/208 189/357/208 192/360/208 190/347/208
f 191/377/209 192/360/209 198/359/209 196/378/209
f 197/364/210 198/359/210 194/358/210 195/361/210
f 205/379/211 206/362/211 195/361/211 193/380/211
f 196/381/212 197/364/212 210/363/212 208/382/212
f 209/374/213 210/363/213 206/362/213 207/372/213
f 199/383/205 200/350/205 207/349/205 205/384/205
f 208/385/214 209/352/214 204/351/214 202/386/214
f 203/348/215 204/351/215 200/350/215 201/345/215
f 187/387/211 188/346/211 201/345/211 199/388/211
f 202/354/216 203/348/216 190/347/216 191/355/216
f 193/389/211 187/387/211 199/388/211 205/390/211
f 225/391/217 227/392/217 214/393/217 212/394/217
f 231/395/218 233/396/218 228/397/218 224/398/218
f 232/399/219 220/400/219 215/401/219 226/402/219
f 213/403/220 216/404/220 222/405/220 218/406/220
f 219/407/221 221/408/221 234/409/221 230/410/221
f 211/411/222 212/394/222 213/412/222
f 214/393/223 215/401/223 216/413/223
f 217/414/224 218/406/224 219/407/224
f 220/400/225 221/408/225 222/405/225
f 223/415/218 224/416/218 225/391/218
f 226/402/226 227/392/226 228/417/226
f 229/418/218 230/410/218 231/395/218
f 232/399/227 233/396/227 234/409/227
f 217/414/228 211/419/228 213/420/228 218/406/228
f 212/394/229 214/393/229 216/413/229 213/412/229
f 215/401/230 220/400/230 222/405/230 216/413/230
f 221/408/231 219/407/231 218/406/231 222/405/231
f 229/418/232 217/414/232 219/407/232 230/410/232
f 220/400/233 232/399/233 234/409/233 221/408/233
f 233/396/234 231/395/234 230/410/234 234/409/234
f 223/421/218 229/418/218 231/395/218 224/422/218
f 232/399/235 226/402/235 228/417/235 233/396/235
f 227/392/236 225/391/236 224/416/236 228/417/236
f 211/411/237 223/415/237 225/391/237 212/394/237
f 226/402/238 215/401/238 214/393/238 227/392/238
f 217/414/239 229/418/239 223/421/239 211/419/239
f 249/423/240 236/424/240 238/425/240 251/426/240
f 255/427/241 248/428/241 252/429/241 257/430/241
f 256/431/242 250/432/242 239/433/242 244/434/242
f 237/435/243 242/436/243 246/437/243 240/438/243
f 243/439/244 254/440/244 258/441/244 245/442/244
f 235/443/245 237/444/245 236/424/245
f 238/425/246 240/445/246 239/433/246
f 241/446/247 243/439/247 242/447/247
f 244/434/248 246/448/248 245/442/248
f 247/449/249 249/423/249 248/450/249
f 250/432/250 252/451/250 251/426/250
f 253/452/251 255/427/251 254/440/251
f 256/431/252 258/441/252 257/430/252
f 241/446/253 242/453/253 237/454/253 235/455/253
f 236/424/254 237/456/254 240/457/254 238/425/254
f 239/433/255 240/458/255 246/459/255 244/434/255
f 245/442/256 246/437/256 242/436/256 243/439/256
f 253/452/257 254/440/257 243/439/257 241/446/257
f 244/434/258 245/442/258 258/441/258 256/431/258
f 257/430/259 258/441/259 254/440/259 255/427/259
f 247/460/260 248/461/260 255/427/260 253/452/260
f 256/431/261 257/430/261 252/451/261 250/432/261
f 251/426/262 252/451/262 248/450/262 249/423/262
f 235/443/263 236/424/263 249/423/263 247/449/263
f 250/432/264 251/426/264 238/425/264 239/433/264
f 241/446/265 235/455/265 247/460/265 253/452/265
f 273/462/266 260/463/266 262/464/266 275/465/266
f 279/466/267 272/467/267 276/468/267 281/469/267
f 280/470/268 274/471/268 263/472/268 268/473/268
f 261/474/269 266/475/269 270/476/269 264/477/269
f 267/478/270 278/479/270 282/480/270 269/481/270
f 259/482/271 261/483/271 260/463/271
f 262/464/272 264/484/272 263/472/272
f 265/485/273 267/478/273 266/475/273
f 268/473/274 270/476/274 269/481/274
f 271/486/267 273/462/267 272/487/267
f 274/471/275 276/488/275 275/465/275
f 277/489/267 279/466/267 278/479/267
f 280/470/276 282/480/276 281/469/276
f 265/485/277 266/475/277 261/490/277 259/491/277
f 260/463/278 261/483/278 264/484/278 262/464/278
f 263/472/279 264/484/279 270/476/279 268/473/279
f 269/481/280 270/476/280 266/475/280 267/478/280
f 277/489/281 278/479/281 267/478/281 265/485/281
f 268/473/282 269/481/282 282/480/282 280/470/282
f 281/469/283 282/480/283 278/479/283 279/466/283
f 271/492/267 272/493/267 279/466/267 277/489/267
f 280/470/284 281/469/284 276/488/284 274/471/284
f 275/465/285 276/488/285 272/487/285 273/462/285
f 259/482/286 260/463/286 273/462/286 271/486/286
f 274/471/287 275/465/287 262/464/287 263/472/287
f 265/485/288 259/491/288 271/492/288 277/489/288
f 414/79/289 421/494/289 429/495/289 424/80/289
f 413/53/290 422/72/290 430/74/290 423/496/290
f 15/41/27 283/64/27 287/62/27 9/23/27
f 24/35/291 289/14/291 290/2/291 25/9/291
f 9/23/25 287/62/25 288/63/25 10/24/25
f 18/29/292 285/50/292 286/20/292 19/30/292
f 27/36/19 283/48/19 284/49/19 28/37/19
f 6/67/293 19/30/293 286/20/293 291/19/293
f 30/57/294 285/11/294 289/14/294 24/35/294
f 2/10/295 25/9/295 290/2/295 292/1/295
f 308/497/296 294/498/296 296/499/296 302/500/296
f 302/500/297 296/499/297 300/501/297 303/502/297
f 307/503/298 298/504/298 304/505/298
f 304/505/299 298/504/299 294/498/299 301/506/299
f 305/507/142 306/508/142 297/509/142 293/510/142
f 297/511/148 304/505/148 301/506/148 293/512/148
f 306/513/300 307/503/300 304/505/300 297/514/300
f 295/515/301 302/500/301 303/502/301 299/516/301
f 305/517/302 308/497/302 302/500/302 295/518/302
f 293/519/303 301/506/303 308/497/303 305/520/303
f 299/521/304 303/502/304 307/503/304 306/522/304
f 300/501/305 296/499/305 294/498/305 298/504/305
f 295/523/142 299/524/142 306/508/142 305/507/142
f 303/502/306 300/501/306 298/504/306 307/503/306
f 301/506/307 294/498/307 308/497/307
f 324/525/308 318/526/308 312/527/308 310/528/308
f 318/526/309 319/529/309 316/530/309 312/527/309
f 323/531/310 320/532/310 314/533/310
f 320/532/311 317/534/311 310/528/311 314/533/311
f 321/535/188 309/536/188 313/537/188 322/538/188
f 313/539/194 309/540/194 317/534/194 320/532/194
f 322/541/312 313/542/312 320/532/312 323/531/312
f 311/543/313 315/544/313 319/529/313 318/526/313
f 321/545/314 311/546/314 318/526/314 324/525/314
f 309/547/315 321/548/315 324/525/315 317/534/315
f 315/549/316 322/550/316 323/531/316 319/529/316
f 316/530/317 314/533/317 310/528/317 312/527/317
f 311/551/188 321/535/188 322/538/188 315/552/188
f 319/529/318 323/531/318 314/533/318 316/530/318
f 317/534/319 324/525/319 310/528/319
f 325/553/220 326/553/220 328/554/220 327/554/220
f 327/554/320 328/554/320 332/555/320 331/555/320
f 329/556/321 330/556/321 326/553/321 325/553/321
f 327/554/322 331/555/322 329/556/322 325/553/322
f 332/555/323 328/554/323 326/553/323 330/556/323
f 331/555/324 332/555/324 336/557/324 335/557/324
f 330/556/325 329/556/325 333/558/325 334/558/325
f 329/556/322 331/555/322 335/557/322 333/558/322
f 347/559/220 345/560/220 346/560/220 348/559/220
f 338/561/326 337/561/326 341/562/326 342/562/326
f 335/557/218 336/557/218 334/558/218 333/558/218
f 338/561/324 340/563/324 339/563/324 337/561/324
f 342/562/325 341/562/325 343/564/325 344/564/325
f 339/563/218 340/563/218 344/564/218 343/564/218
f 340/563/323 338/561/323 342/562/323 344/564/323
f 337/561/322 339/563/322 343/564/322 341/562/322
f 348/559/323 346/560/323 350/565/323 352/566/323
f 351/566/218 352/566/218 350/565/218 349/565/218
f 347/559/324 348/559/324 352/566/324 351/566/324
f 346/560/325 345/560/325 349/565/325 350/565/325
f 345/560/322 347/559/322 351/566/322 349/565/322
f 355/567/220 353/568/220 354/568/220 356/567/220
f 356/567/323 354/568/323 358/569/323 360/570/323
f 359/570/218 360/570/218 358/569/218 357/569/218
f 355/567/324 356/567/324 360/570/324 359/570/324
f 354/568/325 353/568/325 357/569/325 358/569/325
f 353/568/322 355/567/322 359/570/322 357/569/322
f 363/571/220 361/572/220 362/572/220 364/571/220
f 364/571/323 362/572/323 366/573/323 368/574/323
f 367/574/218 368/574/218 366/573/218 365/573/218
f 363/571/324 364/571/324 368/574/324 367/574/324
f 362/572/325 361/572/325 365/573/325 366/573/325
f 361/572/322 363/571/322 367/574/322 365/573/322
f 369/575/269 371/576/269 372/576/269 370/575/269
f 371/576/327 375/577/327 376/577/327 372/576/327
f 332/555/323 330/556/323 334/558/323 336/557/323
f 373/578/328 369/575/328 370/575/328 374/578/328
f 371/576/329 369/575/329 373/578/329 375/577/329
f 376/577/330 374/578/330 370/575/330 372/576/330
f 375/577/331 379/579/331 380/579/331 376/577/331
f 374/578/332 378/580/332 377/580/332 373/578/332
f 373/578/329 377/580/329 379/579/329 375/577/329
f 391/581/269 392/581/269 390/582/269 389/582/269
f 382/583/333 386/584/333 385/584/333 381/583/333
f 379/579/267 377/580/267 378/580/267 380/579/267
f 382/583/331 381/583/331 383/585/331 384/585/331
f 386/584/332 388/586/332 387/586/332 385/584/332
f 383/585/267 387/586/267 388/586/267 384/585/267
f 384/585/330 388/586/330 386/584/330 382/583/330
f 381/583/329 385/584/329 387/586/329 383/585/329
f 392/581/330 396/587/330 394/588/330 390/582/330
f 395/587/267 393/588/267 394/588/267 396/587/267
f 391/581/331 395/587/331 396/587/331 392/581/331
f 390/582/332 394/588/332 393/588/332 389/582/332
f 389/582/329 393/588/329 395/587/329 391/581/329
f 399/589/269 400/589/269 398/590/269 397/590/269
f 400/589/330 404/591/330 402/592/330 398/590/330
f 403/591/267 401/592/267 402/592/267 404/591/267
f 399/589/331 403/591/331 404/591/331 400/589/331
f 398/590/332 402/592/332 401/592/332 397/590/332
f 397/590/329 401/592/329 403/591/329 399/589/329
f 407/593/269 408/593/269 406/594/269 405/594/269
f 408/593/330 412/595/330 410/596/330 406/594/330
f 411/595/267 409/596/267 410/596/267 412/595/267
f 407/593/331 411/595/331 412/595/331 408/593/331
f 406/594/332 410/596/332 409/596/332 405/594/332
f 405/594/329 409/596/329 411/595/329 407/593/329
f 376/577/330 380/579/330 378/580/330 374/578/330
f 17/28/334 418/45/334 422/72/334 284/49/334
f 23/34/335 420/59/335 421/494/335 288/63/335
f 288/63/335 421/494/335 414/79/335 10/24/335
f 29/597/336 419/598/336 416/61/336 22/60/336
f 11/599/337 417/600/337 415/601/337 16/602/337
f 284/49/334 422/72/334 413/53/334 28/37/334
f 10/24/338 414/79/338 417/600/338 11/599/338
f 419/603/339 413/53/339 423/496/339
f 421/494/340 420/59/340 426/71/340 429/495/340
f 415/604/341 417/605/341 424/80/341 425/606/341
f 429/495/342 430/607/342 425/606/342 424/80/342
f 430/607/343 429/495/343 426/71/343 423/77/343
f 4/608/344 1/609/344 427/610/344 428/611/344
f 5/612/345 6/67/345 431/613/345
f 6/67/346 291/19/346 433/614/346 431/613/346
f 292/1/347 8/4/347 432/615/347 434/616/347
f 1/617/348 2/10/348 427/610/348
f 291/19/349 3/22/349 428/618/349 433/614/349
f 2/10/350 292/1/350 434/616/350 427/610/350
f 7/619/351 5/620/351 431/621/351 432/615/351
f 3/22/352 4/622/352 428/618/352
f 8/4/353 7/623/353 432/615/353
f 432/615/354 431/621/354 433/624/354 434/616/354
f 433/624/355 428/611/355 427/610/355 434/616/355
