# Blender 5.1.1
# www.blender.org
o Cylinder
v -0.000000 0.299600 -0.074900
v -0.000000 0.299600 0.074900
v 0.149800 0.259461 -0.074900
v 0.149800 0.259461 0.074900
v 0.259461 0.149800 -0.074900
v 0.259461 0.149800 0.074900
v 0.299600 -0.000000 -0.074900
v 0.299600 0.000000 0.074900
v 0.259461 -0.149800 -0.074900
v 0.259461 -0.149800 0.074900
v 0.149800 -0.259461 -0.074900
v 0.149800 -0.259461 0.074900
v -0.000000 -0.299600 -0.074900
v -0.000000 -0.299600 0.074900
v -0.149800 -0.259461 -0.074900
v -0.149800 -0.259461 0.074900
v -0.259461 -0.149800 -0.074900
v -0.259461 -0.149800 0.074900
v -0.299600 -0.000000 -0.074900
v -0.299600 0.000000 0.074900
v -0.259461 0.149800 -0.074900
v -0.259461 0.149800 0.074900
v -0.149800 0.259461 -0.074900
v -0.149800 0.259461 0.074900
vn 0.2588 0.9659 -0.0000
vn 0.7071 0.7071 -0.0000
vn 0.9659 0.2588 -0.0000
vn 0.9659 -0.2588 -0.0000
vn 0.7071 -0.7071 -0.0000
vn 0.2588 -0.9659 -0.0000
vn -0.2588 -0.9659 -0.0000
vn -0.7071 -0.7071 -0.0000
vn -0.9659 -0.2588 -0.0000
vn -0.9659 0.2588 -0.0000
vn -0.0000 -0.0000 1.0000
vn -0.7071 0.7071 -0.0000
vn -0.2588 0.9659 -0.0000
vn -0.0000 -0.0000 -1.0000
vt 0.500589 0.004301
vt 0.500589 0.158820
vt 0.417271 0.158820
vt 0.417271 0.004301
vt 0.333953 0.158820
vt 0.333953 0.004301
vt 0.250636 0.158820
vt 0.250635 0.004301
vt 0.167318 0.158820
vt 0.167318 0.004301
vt 0.084000 0.158820
vt 0.084000 0.004301
vt 0.000682 0.158820
vt 0.000682 0.004301
vt 1.000496 0.004300
vt 1.000496 0.158820
vt 0.917178 0.158820
vt 0.917178 0.004300
vt 0.833860 0.158820
vt 0.833860 0.004300
vt 0.750542 0.158820
vt 0.750542 0.004300
vt 0.667224 0.158820
vt 0.667224 0.004301
vt 0.368940 0.929038
vt 0.253050 0.978722
vt 0.137161 0.929038
vt 0.052324 0.793299
vt 0.021271 0.607875
vt 0.052324 0.422452
vt 0.137161 0.286713
vt 0.253050 0.237029
vt 0.368939 0.286713
vt 0.453776 0.422452
vt 0.484829 0.607875
vt 0.453776 0.793299
vt 0.583907 0.158820
vt 0.583907 0.004301
vt 0.750862 0.978722
vt 0.634973 0.929038
vt 0.550136 0.793299
vt 0.519083 0.607875
vt 0.550136 0.422452
vt 0.634973 0.286713
vt 0.750862 0.237029
vt 0.866752 0.286713
vt 0.951589 0.422452
vt 0.982641 0.607875
vt 0.951589 0.793298
vt 0.866752 0.929038
s 0
f 1/1/1 2/2/1 4/3/1 3/4/1
f 3/4/2 4/3/2 6/5/2 5/6/2
f 5/6/3 6/5/3 8/7/3 7/8/3
f 7/8/4 8/7/4 10/9/4 9/10/4
f 9/10/5 10/9/5 12/11/5 11/12/5
f 11/12/6 12/11/6 14/13/6 13/14/6
f 13/15/7 14/16/7 16/17/7 15/18/7
f 15/18/8 16/17/8 18/19/8 17/20/8
f 17/20/9 18/19/9 20/21/9 19/22/9
f 19/22/10 20/21/10 22/23/10 21/24/10
f 4/25/11 2/26/11 24/27/11 22/28/11 20/29/11 18/30/11 16/31/11 14/32/11 12/33/11 10/34/11 8/35/11 6/36/11
f 21/24/12 22/23/12 24/37/12 23/38/12
f 23/38/13 24/37/13 2/2/13 1/1/13
f 1/39/14 3/40/14 5/41/14 7/42/14 9/43/14 11/44/14 13/45/14 15/46/14 17/47/14 19/48/14 21/49/14 23/50/14
