# Blender 5.1.1
# www.blender.org
o Cube
v -0.150000 -0.200000 0.060000
v -0.150000 0.350000 0.060000
v -0.150000 -0.200000 -0.060000
v -0.150000 0.350000 -0.060000
v 0.150000 -0.200000 0.060000
v 0.150000 0.350000 0.060000
v 0.150000 -0.200000 -0.060000
v 0.150000 0.350000 -0.060000
v -0.100000 -0.210000 0.040000
v -0.100000 -0.210000 -0.040000
v 0.100000 -0.210000 0.040000
v 0.100000 -0.210000 -0.040000
v -0.100000 -0.400000 0.040000
v -0.100000 -0.400000 -0.040000
v 0.100000 -0.400000 0.040000
v 0.100000 -0.400000 -0.040000
v -0.100000 0.400000 0.060000
v -0.100000 0.400000 -0.060000
v 0.100000 0.400000 0.060000
v 0.100000 0.400000 -0.060000
vn -1.0000 -0.0000 -0.0000
vn -0.0000 -0.0000 -1.0000
vn 1.0000 -0.0000 -0.0000
vn -0.0000 -0.0000 1.0000
vn -0.0000 -0.8944 -0.4472
vn 0.7071 0.7071 -0.0000
vn -0.1961 -0.9806 -0.0000
vn 0.1961 -0.9806 -0.0000
vn -0.0000 -0.8944 0.4472
vn -0.0000 -1.0000 -0.0000
vn -0.0000 1.0000 -0.0000
vn -0.7071 0.7071 -0.0000
vt 0.162452 0.249423
vt 0.162452 0.935522
vt 0.025232 0.935522
vt 0.025232 0.249423
vt 0.849615 0.249986
vt 0.849615 0.936085
vt 0.506566 0.936085
vt 0.506566 0.249986
vt 0.162620 0.249423
vt 0.162620 0.935522
vt 0.025400 0.935522
vt 0.025400 0.249423
vt 0.506118 0.249986
vt 0.506118 0.936085
vt 0.163068 0.936085
vt 0.163068 0.249986
vt 0.563741 0.224416
vt 0.792441 0.224416
vt 0.162620 0.993821
vt 0.025400 0.993821
vt 0.448943 0.224416
vt 0.220243 0.224416
vt 0.220243 0.007152
vt 0.448943 0.007152
vt 0.048102 0.224416
vt 0.139582 0.224416
vt 0.048270 0.224416
vt 0.139750 0.224416
vt 0.989777 0.217260
vt 0.989777 0.517064
vt 0.869855 0.517064
vt 0.869855 0.217260
vt 0.563741 0.007152
vt 0.792441 0.007152
vt 0.048270 0.007152
vt 0.139750 0.007152
vt 0.048102 0.007152
vt 0.139582 0.007152
vt 0.867238 0.215925
vt 0.867238 0.008016
vt 0.991984 0.008016
vt 0.991984 0.215925
vt 0.162452 0.993821
vt 0.025232 0.993821
vt 0.448943 0.993260
vt 0.220243 0.993260
vt 0.792441 0.993260
vt 0.563741 0.993260
s 0
f 1/1/1 2/2/1 4/3/1 3/4/1
f 3/5/2 4/6/2 8/7/2 7/8/2
f 7/9/3 8/10/3 6/11/3 5/12/3
f 5/13/4 6/14/4 2/15/4 1/16/4
f 3/5/5 7/8/5 12/17/5 10/18/5
f 6/11/6 8/10/6 20/19/6 19/20/6
f 11/21/4 9/22/4 13/23/4 15/24/4
f 1/1/7 3/4/7 10/25/7 9/26/7
f 7/9/8 5/12/8 11/27/8 12/28/8
f 5/13/9 1/16/9 9/22/9 11/21/9
f 14/29/10 16/30/10 15/31/10 13/32/10
f 10/18/2 12/17/2 16/33/2 14/34/2
f 12/28/3 11/27/3 15/35/3 16/36/3
f 9/26/1 10/25/1 14/37/1 13/38/1
f 20/39/11 18/40/11 17/41/11 19/42/11
f 4/3/12 2/2/12 17/43/12 18/44/12
f 2/15/4 6/14/4 19/45/4 17/46/4
f 8/7/2 4/6/2 18/47/2 20/48/2
